<?xml version="1.0" encoding="utf-8" standalone="no"?>
<!DOCTYPE svg PUBLIC "-//W3C//DTD SVG 1.1//EN"
  "http://www.w3.org/Graphics/SVG/1.1/DTD/svg11.dtd">
<svg xmlns:xlink="http://www.w3.org/1999/xlink" width="460.8pt" height="345.6pt" viewBox="0 0 460.8 345.6" xmlns="http://www.w3.org/2000/svg" version="1.1">
 <metadata>
  <rdf:RDF xmlns:dc="http://purl.org/dc/elements/1.1/" xmlns:cc="http://creativecommons.org/ns#" xmlns:rdf="http://www.w3.org/1999/02/22-rdf-syntax-ns#">
   <cc:Work>
    <dc:type rdf:resource="http://purl.org/dc/dcmitype/StillImage"/>
    <dc:date>2023-12-03T18:15:55.009171</dc:date>
    <dc:format>image/svg+xml</dc:format>
    <dc:creator>
     <cc:Agent>
      <dc:title>Matplotlib v3.7.1, https://matplotlib.org/</dc:title>
     </cc:Agent>
    </dc:creator>
   </cc:Work>
  </rdf:RDF>
 </metadata>
 <defs>
  <style type="text/css">*{stroke-linejoin: round; stroke-linecap: butt}</style>
 </defs>
 <g id="figure_1">
  <g id="patch_1">
   <path d="M 0 345.6 
L 460.8 345.6 
L 460.8 0 
L 0 0 
z
" style="fill: #ffffff"/>
  </g>
  <g id="axes_1">
   <g id="patch_2">
    <path d="M 57.6 307.584 
L 414.72 307.584 
L 414.72 41.472 
L 57.6 41.472 
z
" style="fill: #ffffff"/>
   </g>
   <g id="matplotlib.axis_1">
    <g id="xtick_1">
     <g id="line2d_1">
      <defs>
       <path id="meece3344e8" d="M 0 0 
L 0 3.5 
" style="stroke: #000000; stroke-width: 0.8"/>
      </defs>
      <g>
       <use xlink:href="#meece3344e8" x="73.832727" y="307.584" style="stroke: #000000; stroke-width: 0.8"/>
      </g>
     </g>
     <g id="text_1">
      <!-- 0 -->
      <g transform="translate(70.651477 322.182437) scale(0.1 -0.1)">
       <defs>
        <path id="DejaVuSans-30" d="M 2034 4250 
Q 1547 4250 1301 3770 
Q 1056 3291 1056 2328 
Q 1056 1369 1301 889 
Q 1547 409 2034 409 
Q 2525 409 2770 889 
Q 3016 1369 3016 2328 
Q 3016 3291 2770 3770 
Q 2525 4250 2034 4250 
z
M 2034 4750 
Q 2819 4750 3233 4129 
Q 3647 3509 3647 2328 
Q 3647 1150 3233 529 
Q 2819 -91 2034 -91 
Q 1250 -91 836 529 
Q 422 1150 422 2328 
Q 422 3509 836 4129 
Q 1250 4750 2034 4750 
z
" transform="scale(0.015625)"/>
       </defs>
       <use xlink:href="#DejaVuSans-30"/>
      </g>
     </g>
    </g>
    <g id="xtick_2">
     <g id="line2d_2">
      <g>
       <use xlink:href="#meece3344e8" x="150.186101" y="307.584" style="stroke: #000000; stroke-width: 0.8"/>
      </g>
     </g>
     <g id="text_2">
      <!-- 1000 -->
      <g transform="translate(137.461101 322.182437) scale(0.1 -0.1)">
       <defs>
        <path id="DejaVuSans-31" d="M 794 531 
L 1825 531 
L 1825 4091 
L 703 3866 
L 703 4441 
L 1819 4666 
L 2450 4666 
L 2450 531 
L 3481 531 
L 3481 0 
L 794 0 
L 794 531 
z
" transform="scale(0.015625)"/>
       </defs>
       <use xlink:href="#DejaVuSans-31"/>
       <use xlink:href="#DejaVuSans-30" x="63.623047"/>
       <use xlink:href="#DejaVuSans-30" x="127.246094"/>
       <use xlink:href="#DejaVuSans-30" x="190.869141"/>
      </g>
     </g>
    </g>
    <g id="xtick_3">
     <g id="line2d_3">
      <g>
       <use xlink:href="#meece3344e8" x="226.539475" y="307.584" style="stroke: #000000; stroke-width: 0.8"/>
      </g>
     </g>
     <g id="text_3">
      <!-- 2000 -->
      <g transform="translate(213.814475 322.182437) scale(0.1 -0.1)">
       <defs>
        <path id="DejaVuSans-32" d="M 1228 531 
L 3431 531 
L 3431 0 
L 469 0 
L 469 531 
Q 828 903 1448 1529 
Q 2069 2156 2228 2338 
Q 2531 2678 2651 2914 
Q 2772 3150 2772 3378 
Q 2772 3750 2511 3984 
Q 2250 4219 1831 4219 
Q 1534 4219 1204 4116 
Q 875 4013 500 3803 
L 500 4441 
Q 881 4594 1212 4672 
Q 1544 4750 1819 4750 
Q 2544 4750 2975 4387 
Q 3406 4025 3406 3419 
Q 3406 3131 3298 2873 
Q 3191 2616 2906 2266 
Q 2828 2175 2409 1742 
Q 1991 1309 1228 531 
z
" transform="scale(0.015625)"/>
       </defs>
       <use xlink:href="#DejaVuSans-32"/>
       <use xlink:href="#DejaVuSans-30" x="63.623047"/>
       <use xlink:href="#DejaVuSans-30" x="127.246094"/>
       <use xlink:href="#DejaVuSans-30" x="190.869141"/>
      </g>
     </g>
    </g>
    <g id="xtick_4">
     <g id="line2d_4">
      <g>
       <use xlink:href="#meece3344e8" x="302.892849" y="307.584" style="stroke: #000000; stroke-width: 0.8"/>
      </g>
     </g>
     <g id="text_4">
      <!-- 3000 -->
      <g transform="translate(290.167849 322.182437) scale(0.1 -0.1)">
       <defs>
        <path id="DejaVuSans-33" d="M 2597 2516 
Q 3050 2419 3304 2112 
Q 3559 1806 3559 1356 
Q 3559 666 3084 287 
Q 2609 -91 1734 -91 
Q 1441 -91 1130 -33 
Q 819 25 488 141 
L 488 750 
Q 750 597 1062 519 
Q 1375 441 1716 441 
Q 2309 441 2620 675 
Q 2931 909 2931 1356 
Q 2931 1769 2642 2001 
Q 2353 2234 1838 2234 
L 1294 2234 
L 1294 2753 
L 1863 2753 
Q 2328 2753 2575 2939 
Q 2822 3125 2822 3475 
Q 2822 3834 2567 4026 
Q 2313 4219 1838 4219 
Q 1578 4219 1281 4162 
Q 984 4106 628 3988 
L 628 4550 
Q 988 4650 1302 4700 
Q 1616 4750 1894 4750 
Q 2613 4750 3031 4423 
Q 3450 4097 3450 3541 
Q 3450 3153 3228 2886 
Q 3006 2619 2597 2516 
z
" transform="scale(0.015625)"/>
       </defs>
       <use xlink:href="#DejaVuSans-33"/>
       <use xlink:href="#DejaVuSans-30" x="63.623047"/>
       <use xlink:href="#DejaVuSans-30" x="127.246094"/>
       <use xlink:href="#DejaVuSans-30" x="190.869141"/>
      </g>
     </g>
    </g>
    <g id="xtick_5">
     <g id="line2d_5">
      <g>
       <use xlink:href="#meece3344e8" x="379.246223" y="307.584" style="stroke: #000000; stroke-width: 0.8"/>
      </g>
     </g>
     <g id="text_5">
      <!-- 4000 -->
      <g transform="translate(366.521223 322.182437) scale(0.1 -0.1)">
       <defs>
        <path id="DejaVuSans-34" d="M 2419 4116 
L 825 1625 
L 2419 1625 
L 2419 4116 
z
M 2253 4666 
L 3047 4666 
L 3047 1625 
L 3713 1625 
L 3713 1100 
L 3047 1100 
L 3047 0 
L 2419 0 
L 2419 1100 
L 313 1100 
L 313 1709 
L 2253 4666 
z
" transform="scale(0.015625)"/>
       </defs>
       <use xlink:href="#DejaVuSans-34"/>
       <use xlink:href="#DejaVuSans-30" x="63.623047"/>
       <use xlink:href="#DejaVuSans-30" x="127.246094"/>
       <use xlink:href="#DejaVuSans-30" x="190.869141"/>
      </g>
     </g>
    </g>
    <g id="text_6">
     <!-- iteration -->
     <g transform="translate(215.037344 335.860562) scale(0.1 -0.1)">
      <defs>
       <path id="DejaVuSans-69" d="M 603 3500 
L 1178 3500 
L 1178 0 
L 603 0 
L 603 3500 
z
M 603 4863 
L 1178 4863 
L 1178 4134 
L 603 4134 
L 603 4863 
z
" transform="scale(0.015625)"/>
       <path id="DejaVuSans-74" d="M 1172 4494 
L 1172 3500 
L 2356 3500 
L 2356 3053 
L 1172 3053 
L 1172 1153 
Q 1172 725 1289 603 
Q 1406 481 1766 481 
L 2356 481 
L 2356 0 
L 1766 0 
Q 1100 0 847 248 
Q 594 497 594 1153 
L 594 3053 
L 172 3053 
L 172 3500 
L 594 3500 
L 594 4494 
L 1172 4494 
z
" transform="scale(0.015625)"/>
       <path id="DejaVuSans-65" d="M 3597 1894 
L 3597 1613 
L 953 1613 
Q 991 1019 1311 708 
Q 1631 397 2203 397 
Q 2534 397 2845 478 
Q 3156 559 3463 722 
L 3463 178 
Q 3153 47 2828 -22 
Q 2503 -91 2169 -91 
Q 1331 -91 842 396 
Q 353 884 353 1716 
Q 353 2575 817 3079 
Q 1281 3584 2069 3584 
Q 2775 3584 3186 3129 
Q 3597 2675 3597 1894 
z
M 3022 2063 
Q 3016 2534 2758 2815 
Q 2500 3097 2075 3097 
Q 1594 3097 1305 2825 
Q 1016 2553 972 2059 
L 3022 2063 
z
" transform="scale(0.015625)"/>
       <path id="DejaVuSans-72" d="M 2631 2963 
Q 2534 3019 2420 3045 
Q 2306 3072 2169 3072 
Q 1681 3072 1420 2755 
Q 1159 2438 1159 1844 
L 1159 0 
L 581 0 
L 581 3500 
L 1159 3500 
L 1159 2956 
Q 1341 3275 1631 3429 
Q 1922 3584 2338 3584 
Q 2397 3584 2469 3576 
Q 2541 3569 2628 3553 
L 2631 2963 
z
" transform="scale(0.015625)"/>
       <path id="DejaVuSans-61" d="M 2194 1759 
Q 1497 1759 1228 1600 
Q 959 1441 959 1056 
Q 959 750 1161 570 
Q 1363 391 1709 391 
Q 2188 391 2477 730 
Q 2766 1069 2766 1631 
L 2766 1759 
L 2194 1759 
z
M 3341 1997 
L 3341 0 
L 2766 0 
L 2766 531 
Q 2569 213 2275 61 
Q 1981 -91 1556 -91 
Q 1019 -91 701 211 
Q 384 513 384 1019 
Q 384 1609 779 1909 
Q 1175 2209 1959 2209 
L 2766 2209 
L 2766 2266 
Q 2766 2663 2505 2880 
Q 2244 3097 1772 3097 
Q 1472 3097 1187 3025 
Q 903 2953 641 2809 
L 641 3341 
Q 956 3463 1253 3523 
Q 1550 3584 1831 3584 
Q 2591 3584 2966 3190 
Q 3341 2797 3341 1997 
z
" transform="scale(0.015625)"/>
       <path id="DejaVuSans-6f" d="M 1959 3097 
Q 1497 3097 1228 2736 
Q 959 2375 959 1747 
Q 959 1119 1226 758 
Q 1494 397 1959 397 
Q 2419 397 2687 759 
Q 2956 1122 2956 1747 
Q 2956 2369 2687 2733 
Q 2419 3097 1959 3097 
z
M 1959 3584 
Q 2709 3584 3137 3096 
Q 3566 2609 3566 1747 
Q 3566 888 3137 398 
Q 2709 -91 1959 -91 
Q 1206 -91 779 398 
Q 353 888 353 1747 
Q 353 2609 779 3096 
Q 1206 3584 1959 3584 
z
" transform="scale(0.015625)"/>
       <path id="DejaVuSans-6e" d="M 3513 2113 
L 3513 0 
L 2938 0 
L 2938 2094 
Q 2938 2591 2744 2837 
Q 2550 3084 2163 3084 
Q 1697 3084 1428 2787 
Q 1159 2491 1159 1978 
L 1159 0 
L 581 0 
L 581 3500 
L 1159 3500 
L 1159 2956 
Q 1366 3272 1645 3428 
Q 1925 3584 2291 3584 
Q 2894 3584 3203 3211 
Q 3513 2838 3513 2113 
z
" transform="scale(0.015625)"/>
      </defs>
      <use xlink:href="#DejaVuSans-69"/>
      <use xlink:href="#DejaVuSans-74" x="27.783203"/>
      <use xlink:href="#DejaVuSans-65" x="66.992188"/>
      <use xlink:href="#DejaVuSans-72" x="128.515625"/>
      <use xlink:href="#DejaVuSans-61" x="169.628906"/>
      <use xlink:href="#DejaVuSans-74" x="230.908203"/>
      <use xlink:href="#DejaVuSans-69" x="270.117188"/>
      <use xlink:href="#DejaVuSans-6f" x="297.900391"/>
      <use xlink:href="#DejaVuSans-6e" x="359.082031"/>
     </g>
    </g>
   </g>
   <g id="matplotlib.axis_2">
    <g id="ytick_1">
     <g id="line2d_6">
      <defs>
       <path id="m54fe32e5c7" d="M 0 0 
L -3.5 0 
" style="stroke: #000000; stroke-width: 0.8"/>
      </defs>
      <g>
       <use xlink:href="#m54fe32e5c7" x="57.6" y="283.97103" style="stroke: #000000; stroke-width: 0.8"/>
      </g>
     </g>
     <g id="text_7">
      <!-- 1000 -->
      <g transform="translate(25.15 287.770249) scale(0.1 -0.1)">
       <use xlink:href="#DejaVuSans-31"/>
       <use xlink:href="#DejaVuSans-30" x="63.623047"/>
       <use xlink:href="#DejaVuSans-30" x="127.246094"/>
       <use xlink:href="#DejaVuSans-30" x="190.869141"/>
      </g>
     </g>
    </g>
    <g id="ytick_2">
     <g id="line2d_7">
      <g>
       <use xlink:href="#m54fe32e5c7" x="57.6" y="252.156196" style="stroke: #000000; stroke-width: 0.8"/>
      </g>
     </g>
     <g id="text_8">
      <!-- 1500 -->
      <g transform="translate(25.15 255.955414) scale(0.1 -0.1)">
       <defs>
        <path id="DejaVuSans-35" d="M 691 4666 
L 3169 4666 
L 3169 4134 
L 1269 4134 
L 1269 2991 
Q 1406 3038 1543 3061 
Q 1681 3084 1819 3084 
Q 2600 3084 3056 2656 
Q 3513 2228 3513 1497 
Q 3513 744 3044 326 
Q 2575 -91 1722 -91 
Q 1428 -91 1123 -41 
Q 819 9 494 109 
L 494 744 
Q 775 591 1075 516 
Q 1375 441 1709 441 
Q 2250 441 2565 725 
Q 2881 1009 2881 1497 
Q 2881 1984 2565 2268 
Q 2250 2553 1709 2553 
Q 1456 2553 1204 2497 
Q 953 2441 691 2322 
L 691 4666 
z
" transform="scale(0.015625)"/>
       </defs>
       <use xlink:href="#DejaVuSans-31"/>
       <use xlink:href="#DejaVuSans-35" x="63.623047"/>
       <use xlink:href="#DejaVuSans-30" x="127.246094"/>
       <use xlink:href="#DejaVuSans-30" x="190.869141"/>
      </g>
     </g>
    </g>
    <g id="ytick_3">
     <g id="line2d_8">
      <g>
       <use xlink:href="#m54fe32e5c7" x="57.6" y="220.341361" style="stroke: #000000; stroke-width: 0.8"/>
      </g>
     </g>
     <g id="text_9">
      <!-- 2000 -->
      <g transform="translate(25.15 224.14058) scale(0.1 -0.1)">
       <use xlink:href="#DejaVuSans-32"/>
       <use xlink:href="#DejaVuSans-30" x="63.623047"/>
       <use xlink:href="#DejaVuSans-30" x="127.246094"/>
       <use xlink:href="#DejaVuSans-30" x="190.869141"/>
      </g>
     </g>
    </g>
    <g id="ytick_4">
     <g id="line2d_9">
      <g>
       <use xlink:href="#m54fe32e5c7" x="57.6" y="188.526527" style="stroke: #000000; stroke-width: 0.8"/>
      </g>
     </g>
     <g id="text_10">
      <!-- 2500 -->
      <g transform="translate(25.15 192.325746) scale(0.1 -0.1)">
       <use xlink:href="#DejaVuSans-32"/>
       <use xlink:href="#DejaVuSans-35" x="63.623047"/>
       <use xlink:href="#DejaVuSans-30" x="127.246094"/>
       <use xlink:href="#DejaVuSans-30" x="190.869141"/>
      </g>
     </g>
    </g>
    <g id="ytick_5">
     <g id="line2d_10">
      <g>
       <use xlink:href="#m54fe32e5c7" x="57.6" y="156.711693" style="stroke: #000000; stroke-width: 0.8"/>
      </g>
     </g>
     <g id="text_11">
      <!-- 3000 -->
      <g transform="translate(25.15 160.510912) scale(0.1 -0.1)">
       <use xlink:href="#DejaVuSans-33"/>
       <use xlink:href="#DejaVuSans-30" x="63.623047"/>
       <use xlink:href="#DejaVuSans-30" x="127.246094"/>
       <use xlink:href="#DejaVuSans-30" x="190.869141"/>
      </g>
     </g>
    </g>
    <g id="ytick_6">
     <g id="line2d_11">
      <g>
       <use xlink:href="#m54fe32e5c7" x="57.6" y="124.896858" style="stroke: #000000; stroke-width: 0.8"/>
      </g>
     </g>
     <g id="text_12">
      <!-- 3500 -->
      <g transform="translate(25.15 128.696077) scale(0.1 -0.1)">
       <use xlink:href="#DejaVuSans-33"/>
       <use xlink:href="#DejaVuSans-35" x="63.623047"/>
       <use xlink:href="#DejaVuSans-30" x="127.246094"/>
       <use xlink:href="#DejaVuSans-30" x="190.869141"/>
      </g>
     </g>
    </g>
    <g id="ytick_7">
     <g id="line2d_12">
      <g>
       <use xlink:href="#m54fe32e5c7" x="57.6" y="93.082024" style="stroke: #000000; stroke-width: 0.8"/>
      </g>
     </g>
     <g id="text_13">
      <!-- 4000 -->
      <g transform="translate(25.15 96.881243) scale(0.1 -0.1)">
       <use xlink:href="#DejaVuSans-34"/>
       <use xlink:href="#DejaVuSans-30" x="63.623047"/>
       <use xlink:href="#DejaVuSans-30" x="127.246094"/>
       <use xlink:href="#DejaVuSans-30" x="190.869141"/>
      </g>
     </g>
    </g>
    <g id="ytick_8">
     <g id="line2d_13">
      <g>
       <use xlink:href="#m54fe32e5c7" x="57.6" y="61.26719" style="stroke: #000000; stroke-width: 0.8"/>
      </g>
     </g>
     <g id="text_14">
      <!-- 4500 -->
      <g transform="translate(25.15 65.066409) scale(0.1 -0.1)">
       <use xlink:href="#DejaVuSans-34"/>
       <use xlink:href="#DejaVuSans-35" x="63.623047"/>
       <use xlink:href="#DejaVuSans-30" x="127.246094"/>
       <use xlink:href="#DejaVuSans-30" x="190.869141"/>
      </g>
     </g>
    </g>
    <g id="text_15">
     <!-- best fitness of swarm -->
     <g transform="translate(19.070312 228.0905) rotate(-90) scale(0.1 -0.1)">
      <defs>
       <path id="DejaVuSans-62" d="M 3116 1747 
Q 3116 2381 2855 2742 
Q 2594 3103 2138 3103 
Q 1681 3103 1420 2742 
Q 1159 2381 1159 1747 
Q 1159 1113 1420 752 
Q 1681 391 2138 391 
Q 2594 391 2855 752 
Q 3116 1113 3116 1747 
z
M 1159 2969 
Q 1341 3281 1617 3432 
Q 1894 3584 2278 3584 
Q 2916 3584 3314 3078 
Q 3713 2572 3713 1747 
Q 3713 922 3314 415 
Q 2916 -91 2278 -91 
Q 1894 -91 1617 61 
Q 1341 213 1159 525 
L 1159 0 
L 581 0 
L 581 4863 
L 1159 4863 
L 1159 2969 
z
" transform="scale(0.015625)"/>
       <path id="DejaVuSans-73" d="M 2834 3397 
L 2834 2853 
Q 2591 2978 2328 3040 
Q 2066 3103 1784 3103 
Q 1356 3103 1142 2972 
Q 928 2841 928 2578 
Q 928 2378 1081 2264 
Q 1234 2150 1697 2047 
L 1894 2003 
Q 2506 1872 2764 1633 
Q 3022 1394 3022 966 
Q 3022 478 2636 193 
Q 2250 -91 1575 -91 
Q 1294 -91 989 -36 
Q 684 19 347 128 
L 347 722 
Q 666 556 975 473 
Q 1284 391 1588 391 
Q 1994 391 2212 530 
Q 2431 669 2431 922 
Q 2431 1156 2273 1281 
Q 2116 1406 1581 1522 
L 1381 1569 
Q 847 1681 609 1914 
Q 372 2147 372 2553 
Q 372 3047 722 3315 
Q 1072 3584 1716 3584 
Q 2034 3584 2315 3537 
Q 2597 3491 2834 3397 
z
" transform="scale(0.015625)"/>
       <path id="DejaVuSans-20" transform="scale(0.015625)"/>
       <path id="DejaVuSans-66" d="M 2375 4863 
L 2375 4384 
L 1825 4384 
Q 1516 4384 1395 4259 
Q 1275 4134 1275 3809 
L 1275 3500 
L 2222 3500 
L 2222 3053 
L 1275 3053 
L 1275 0 
L 697 0 
L 697 3053 
L 147 3053 
L 147 3500 
L 697 3500 
L 697 3744 
Q 697 4328 969 4595 
Q 1241 4863 1831 4863 
L 2375 4863 
z
" transform="scale(0.015625)"/>
       <path id="DejaVuSans-77" d="M 269 3500 
L 844 3500 
L 1563 769 
L 2278 3500 
L 2956 3500 
L 3675 769 
L 4391 3500 
L 4966 3500 
L 4050 0 
L 3372 0 
L 2619 2869 
L 1863 0 
L 1184 0 
L 269 3500 
z
" transform="scale(0.015625)"/>
       <path id="DejaVuSans-6d" d="M 3328 2828 
Q 3544 3216 3844 3400 
Q 4144 3584 4550 3584 
Q 5097 3584 5394 3201 
Q 5691 2819 5691 2113 
L 5691 0 
L 5113 0 
L 5113 2094 
Q 5113 2597 4934 2840 
Q 4756 3084 4391 3084 
Q 3944 3084 3684 2787 
Q 3425 2491 3425 1978 
L 3425 0 
L 2847 0 
L 2847 2094 
Q 2847 2600 2669 2842 
Q 2491 3084 2119 3084 
Q 1678 3084 1418 2786 
Q 1159 2488 1159 1978 
L 1159 0 
L 581 0 
L 581 3500 
L 1159 3500 
L 1159 2956 
Q 1356 3278 1631 3431 
Q 1906 3584 2284 3584 
Q 2666 3584 2933 3390 
Q 3200 3197 3328 2828 
z
" transform="scale(0.015625)"/>
      </defs>
      <use xlink:href="#DejaVuSans-62"/>
      <use xlink:href="#DejaVuSans-65" x="63.476562"/>
      <use xlink:href="#DejaVuSans-73" x="125"/>
      <use xlink:href="#DejaVuSans-74" x="177.099609"/>
      <use xlink:href="#DejaVuSans-20" x="216.308594"/>
      <use xlink:href="#DejaVuSans-66" x="248.095703"/>
      <use xlink:href="#DejaVuSans-69" x="283.300781"/>
      <use xlink:href="#DejaVuSans-74" x="311.083984"/>
      <use xlink:href="#DejaVuSans-6e" x="350.292969"/>
      <use xlink:href="#DejaVuSans-65" x="413.671875"/>
      <use xlink:href="#DejaVuSans-73" x="475.195312"/>
      <use xlink:href="#DejaVuSans-73" x="527.294922"/>
      <use xlink:href="#DejaVuSans-20" x="579.394531"/>
      <use xlink:href="#DejaVuSans-6f" x="611.181641"/>
      <use xlink:href="#DejaVuSans-66" x="672.363281"/>
      <use xlink:href="#DejaVuSans-20" x="707.568359"/>
      <use xlink:href="#DejaVuSans-73" x="739.355469"/>
      <use xlink:href="#DejaVuSans-77" x="791.455078"/>
      <use xlink:href="#DejaVuSans-61" x="873.242188"/>
      <use xlink:href="#DejaVuSans-72" x="934.521484"/>
      <use xlink:href="#DejaVuSans-6d" x="973.884766"/>
     </g>
    </g>
   </g>
   <g id="line2d_14">
    <path d="M 73.832727 295.488 
L 74.061787 293.197332 
L 74.138141 294.342666 
L 74.214494 294.151777 
L 74.290848 294.151777 
L 74.443554 287.661551 
L 74.519908 287.279773 
L 74.672614 284.480067 
L 74.748968 284.480067 
L 74.901675 279.898731 
L 74.978028 279.898731 
L 75.130735 280.980436 
L 75.207088 280.916806 
L 75.359795 278.944286 
L 75.436148 278.944286 
L 75.817915 275.062876 
L 75.894268 275.062876 
L 75.970622 275.890062 
L 76.046975 275.317395 
L 76.199682 269.590725 
L 76.352389 269.527095 
L 76.581449 255.973976 
L 76.657802 255.973976 
L 76.734155 255.464938 
L 76.810509 253.492419 
L 76.886862 253.810567 
L 77.039569 253.810567 
L 77.421336 250.120046 
L 77.497689 250.247306 
L 77.574043 250.120046 
L 77.650396 251.519899 
L 77.726749 251.456269 
L 77.879456 249.48375 
L 77.955809 249.547379 
L 78.337576 235.867001 
L 78.566636 232.621887 
L 78.719343 232.876406 
L 78.795697 232.812776 
L 79.024757 230.20396 
L 79.177463 231.094775 
L 79.635584 224.095512 
L 79.711937 224.222771 
L 79.864644 226.068032 
L 80.017351 221.550325 
L 80.093704 221.359436 
L 80.170057 221.995733 
L 80.475471 218.814249 
L 80.551824 218.75062 
L 80.628178 219.577805 
L 80.704531 219.450546 
L 80.857238 213.02395 
L 80.933591 212.514912 
L 81.009944 213.787506 
L 81.239005 211.305948 
L 81.391711 211.305948 
L 81.697125 206.915501 
L 81.773478 206.915501 
L 81.926185 199.216311 
L 82.002538 199.216311 
L 82.155245 195.65305 
L 82.231598 195.525791 
L 82.384305 195.71668 
L 82.537012 199.788978 
L 82.613365 195.907569 
L 82.689719 196.034828 
L 82.842425 195.016753 
L 82.918779 199.53446 
L 82.995132 199.4072 
L 83.071486 199.4072 
L 83.147839 199.661719 
L 83.300546 196.480236 
L 83.453252 198.134607 
L 83.529606 198.070977 
L 83.682312 199.53446 
L 83.758666 199.089052 
L 83.911373 193.426012 
L 83.987726 194.507716 
L 84.064079 194.125938 
L 84.140433 192.217048 
L 84.293139 194.062308 
L 84.445846 193.489641 
L 84.598553 193.426012 
L 84.674906 192.662456 
L 84.827613 195.525791 
L 84.903966 195.271272 
L 85.056673 198.452755 
L 85.20938 198.770904 
L 85.285733 196.543865 
L 85.362087 200.043497 
L 85.43844 199.089052 
L 85.514793 200.425275 
L 85.591147 200.361645 
L 85.6675 200.361645 
L 85.743854 192.026159 
L 85.820207 192.344307 
L 85.89656 192.344307 
L 85.972914 193.489641 
L 86.049267 190.053639 
L 86.12562 192.471567 
L 86.201974 192.407937 
L 86.354681 192.407937 
L 86.736447 190.180898 
L 86.812801 190.180898 
L 86.889154 192.662456 
L 86.965508 192.598826 
L 87.118214 191.83527 
L 87.194568 192.726085 
L 87.423628 191.326233 
L 87.576335 188.908305 
L 87.652688 188.335638 
L 87.729041 188.526527 
L 87.805395 188.717416 
L 87.881748 193.044234 
L 88.034455 188.717416 
L 88.339868 189.099194 
L 88.416222 188.781046 
L 88.492575 190.308158 
L 88.568928 189.162824 
L 88.645282 189.608231 
L 88.797989 189.79912 
L 88.950695 189.544602 
L 89.332462 189.544602 
L 89.485169 186.935785 
L 89.561522 186.935785 
L 89.714229 176.627779 
L 89.790582 180.954597 
L 89.866936 180.509189 
L 90.019643 179.809262 
L 90.095996 179.745633 
L 90.325056 179.045706 
L 90.401409 179.682003 
L 90.63047 178.34578 
L 90.783176 178.027632 
L 90.85953 178.027632 
L 90.935883 173.891703 
L 91.012236 175.100667 
L 91.08859 174.528 
L 91.31765 175.991482 
L 91.394003 175.609704 
L 91.470357 173.255407 
L 91.54671 173.637185 
L 91.623063 173.637185 
L 91.699417 174.909778 
L 91.77577 174.528 
L 91.928477 174.846148 
L 92.157537 169.946664 
L 92.310244 170.264812 
L 92.46295 171.601035 
L 92.615657 171.155628 
L 92.768364 171.728295 
L 92.997424 177.009557 
L 93.226484 167.528736 
L 93.302838 167.528736 
L 93.379191 167.274218 
L 93.531898 167.528736 
L 93.608251 167.528736 
L 93.990018 166.319773 
L 94.142725 161.992955 
L 94.371785 163.901845 
L 94.448138 163.138289 
L 94.600845 160.783992 
L 94.677198 160.783992 
L 94.829905 155.757248 
L 95.058965 158.620583 
L 95.135319 159.19325 
L 95.288025 153.46658 
L 95.364379 153.46658 
L 95.440732 157.538878 
L 95.669792 151.112282 
L 95.822499 153.40295 
L 96.204266 154.611914 
L 96.509679 152.130357 
L 96.586033 152.193986 
L 96.662386 151.303171 
L 96.738739 151.812208 
L 96.891446 150.157837 
L 97.044153 149.139762 
L 97.120506 149.52154 
L 97.19686 149.394281 
L 97.349566 144.558426 
L 97.42592 144.685685 
L 97.502273 142.585906 
L 97.65498 145.449241 
L 97.731333 143.985759 
L 97.807687 144.367537 
L 97.960393 148.312577 
L 98.1131 148.312577 
L 98.265807 144.940204 
L 98.418514 147.930799 
L 98.647574 146.403686 
L 98.723927 146.403686 
L 98.876634 149.267022 
L 99.029341 143.222203 
L 99.105694 146.276427 
L 99.182047 145.70376 
L 99.334754 147.485391 
L 99.411108 146.849094 
L 99.487461 146.721835 
L 99.640168 150.985023 
L 99.792874 150.921393 
L 99.869228 151.43043 
L 99.945581 154.739173 
L 100.021934 154.039247 
L 100.174641 152.257616 
L 100.403701 152.193986 
L 100.556408 151.55769 
L 100.632761 151.43043 
L 100.785468 152.448505 
L 100.938175 152.384875 
L 101.090882 152.575764 
L 101.243588 150.539615 
L 101.472649 150.157837 
L 101.549002 150.157837 
L 101.930769 143.667611 
L 102.007122 144.049389 
L 102.159829 143.985759 
L 102.236182 143.222203 
L 102.312536 140.167979 
L 102.388889 140.231609 
L 102.541596 148.248947 
L 102.617949 147.103613 
L 102.694303 148.885244 
L 102.770656 145.70376 
L 102.847009 145.958279 
L 102.923363 145.958279 
L 103.076069 149.203392 
L 103.228776 148.885244 
L 103.381483 142.776795 
L 103.457836 142.967684 
L 103.53419 142.649536 
L 103.610543 142.840425 
L 103.686896 143.79487 
L 103.76325 143.540351 
L 103.915957 141.567832 
L 104.145017 137.368274 
L 104.22137 137.241014 
L 104.297723 136.22294 
L 104.45043 132.468789 
L 104.603137 132.659678 
L 104.755844 134.632198 
L 104.90855 131.196196 
L 104.984904 131.896122 
L 105.061257 130.30538 
L 105.137611 130.36901 
L 105.213964 130.36901 
L 105.290317 130.114491 
L 105.366671 126.296711 
L 105.443024 126.360341 
L 105.672084 126.360341 
L 105.824791 122.033523 
L 105.977498 121.906264 
L 106.130204 126.678489 
L 106.282911 126.742119 
L 106.359265 126.360341 
L 106.435618 126.423971 
L 106.588325 126.296711 
L 106.741031 133.041456 
L 106.893738 133.423234 
L 106.970092 136.350199 
L 107.046445 136.22294 
L 107.122798 136.22294 
L 107.199152 130.750788 
L 107.275505 130.941677 
L 107.351858 130.941677 
L 107.504565 127.760194 
L 107.657272 126.805749 
L 107.886332 120.442782 
L 107.962685 122.860709 
L 108.039039 120.442782 
L 108.115392 120.633671 
L 108.191745 120.442782 
L 108.268099 120.951819 
L 108.420806 118.406632 
L 108.497159 118.724781 
L 108.955279 127.187527 
L 109.107986 127.378416 
L 109.337046 120.506411 
L 109.413399 120.506411 
L 109.489753 120.061004 
L 109.566106 120.315522 
L 109.64246 119.551966 
L 109.795166 121.906264 
L 109.947873 122.097153 
L 110.024226 124.260562 
L 110.10058 123.815154 
L 110.176933 125.278637 
L 110.32964 131.005307 
L 110.482347 131.005307 
L 110.635053 127.505675 
L 110.711407 127.632934 
L 110.78776 128.46012 
L 110.864114 125.405896 
L 111.01682 129.032787 
L 111.169527 129.414565 
L 111.322234 128.014712 
L 111.398587 129.287306 
L 111.474941 129.096417 
L 111.551294 129.096417 
L 111.627647 129.350935 
L 111.780354 127.760194 
L 111.856707 127.760194 
L 111.933061 126.61486 
L 112.162121 118.91567 
L 112.314828 126.933008 
L 112.467534 126.61486 
L 112.772948 122.797079 
L 112.849301 122.542561 
L 113.002008 127.187527 
L 113.078361 127.505675 
L 113.231068 122.478931 
L 113.307422 119.997374 
L 113.383775 120.061004 
L 113.460128 119.997374 
L 113.536482 120.315522 
L 113.612835 120.188263 
L 113.689188 119.488337 
L 113.765542 120.124633 
L 113.841895 122.097153 
L 113.918249 120.82456 
L 114.070955 123.815154 
L 114.223662 124.833229 
L 114.376369 123.624265 
L 114.529076 124.960488 
L 114.605429 124.960488 
L 114.758136 126.423971 
L 114.834489 126.61486 
L 115.063549 126.296711 
L 115.216256 128.841898 
L 115.292609 128.841898 
L 115.368963 128.587379 
L 115.445316 128.651009 
L 115.521669 128.651009 
L 115.750729 134.314049 
L 115.827083 135.141235 
L 115.903436 134.377679 
L 115.97979 135.077605 
L 116.132496 141.758721 
L 116.20885 142.458647 
L 116.361556 145.385612 
L 116.43791 145.194723 
L 116.590617 142.522277 
L 116.819677 142.522277 
L 116.89603 136.09568 
L 117.048737 141.504202 
L 117.12509 141.504202 
L 117.201444 141.631461 
L 117.35415 136.731977 
L 117.506857 136.668347 
L 117.58321 136.986496 
L 117.659564 131.896122 
L 117.735917 131.959752 
L 117.888624 132.596048 
L 117.964977 132.596048 
L 118.041331 132.150641 
L 118.270391 120.379152 
L 118.346744 119.106559 
L 118.423098 115.861446 
L 118.575804 122.351672 
L 118.728511 122.60619 
L 118.881218 120.379152 
L 118.957571 120.379152 
L 119.033925 125.342266 
L 119.110278 125.215007 
L 119.186631 125.914933 
L 119.262985 125.342266 
L 119.339338 131.387085 
L 119.492045 123.306117 
L 119.568398 124.069673 
L 119.721105 115.352408 
L 119.797458 117.388558 
L 119.950165 111.470998 
L 120.026518 111.725517 
L 120.179225 114.397963 
L 120.255579 114.079815 
L 120.408285 108.034996 
L 120.484639 107.3987 
L 120.560992 108.034996 
L 120.713699 104.535365 
L 120.790052 104.535365 
L 120.866406 108.353145 
L 120.942759 107.971367 
L 121.019112 107.653218 
L 121.400879 100.590325 
L 121.477233 102.944623 
L 121.553586 102.690104 
L 121.629939 102.690104 
L 121.782646 106.444255 
L 121.858999 105.807958 
L 122.011706 106.380625 
L 122.08806 103.326401 
L 122.164413 104.726254 
L 122.240766 101.6084 
L 122.31712 101.926548 
L 122.469826 103.771809 
L 122.54618 103.51729 
L 122.698887 106.507884 
L 122.77524 105.044402 
L 122.851593 105.235291 
L 123.0043 109.816627 
L 123.080653 109.943886 
L 123.23336 106.953292 
L 123.309714 107.844107 
L 123.386067 111.661887 
L 123.46242 110.452924 
L 123.538774 110.452924 
L 123.615127 110.198405 
L 123.69148 110.325664 
L 123.767834 110.389294 
L 123.92054 116.94315 
L 124.073247 117.324928 
L 124.149601 118.215743 
L 124.225954 127.632934 
L 124.302307 127.569305 
L 124.455014 125.596785 
L 124.531367 126.169452 
L 124.760428 132.786937 
L 124.836781 132.786937 
L 124.913134 132.914197 
L 125.065841 134.886716 
L 125.142194 134.886716 
L 125.218548 129.478195 
L 125.294901 131.387085 
L 125.371255 131.832492 
L 125.447608 131.577974 
L 125.523961 131.641603 
L 125.676668 131.641603 
L 125.829375 132.914197 
L 125.982082 133.041456 
L 126.134788 133.359604 
L 126.211142 135.395754 
L 126.287495 135.332124 
L 126.592909 135.332124 
L 126.669262 135.904791 
L 126.745615 142.395017 
L 126.821969 141.440572 
L 127.127382 131.959752 
L 127.203736 132.34153 
L 127.280089 136.03205 
L 127.432796 130.559899 
L 127.509149 130.43264 
L 127.585502 120.251893 
L 127.661856 120.570041 
L 127.738209 120.506411 
L 127.814563 120.188263 
L 127.890916 120.379152 
L 128.043623 112.489073 
L 128.119976 112.489073 
L 128.196329 109.18033 
L 128.272683 116.115964 
L 128.349036 115.925075 
L 128.42539 116.306853 
L 128.501743 115.606927 
L 128.65445 109.562108 
L 128.730803 109.562108 
L 128.88351 113.634407 
L 129.11257 109.943886 
L 129.188923 110.898331 
L 129.265277 103.262771 
L 129.34163 103.58092 
L 129.417983 103.071882 
L 129.494337 103.390031 
L 129.723397 102.435585 
L 129.876104 103.708179 
L 130.105164 103.390031 
L 130.181517 103.390031 
L 130.257871 106.635144 
L 130.334224 102.944623 
L 130.486931 108.607663 
L 130.563284 108.416774 
L 130.792344 106.062477 
L 130.868698 106.062477 
L 131.021404 108.862182 
L 131.250464 108.925812 
L 131.326818 110.071146 
L 131.479525 104.726254 
L 131.937645 106.253366 
L 132.166705 105.171661 
L 132.319412 105.998847 
L 132.395765 105.998847 
L 132.701178 103.771809 
L 132.777532 103.835438 
L 132.930239 110.580183 
L 133.006592 110.771072 
L 133.159299 111.661887 
L 133.312005 111.789147 
L 133.388359 111.789147 
L 133.541066 108.162256 
L 133.693772 114.652482 
L 133.770126 115.225149 
L 133.846479 115.161519 
L 133.922832 115.03426 
L 133.999186 118.661151 
L 134.228246 108.034996 
L 134.380953 104.598994 
L 134.457306 104.662624 
L 134.610013 105.42618 
L 134.686366 105.36255 
L 134.76272 106.889662 
L 134.915426 104.089957 
L 134.99178 103.771809 
L 135.144486 107.589589 
L 135.297193 108.162256 
L 135.4499 114.525223 
L 135.526253 114.334334 
L 135.67896 115.606927 
L 135.831667 115.670557 
L 135.984374 115.09789 
L 136.13708 115.479668 
L 136.213434 114.143445 
L 136.442494 115.288779 
L 136.518847 118.215743 
L 136.595201 118.088484 
L 136.671554 117.897595 
L 136.824261 115.797816 
L 136.900614 116.115964 
L 136.976967 115.734186 
L 137.053321 115.797816 
L 137.206028 115.543297 
L 137.282381 114.270704 
L 137.358734 116.497742 
L 137.435088 116.434113 
L 137.587794 116.434113 
L 137.816855 111.725517 
L 138.198621 111.725517 
L 138.274975 110.134775 
L 138.427682 113.06174 
L 138.580388 109.689368 
L 138.809448 114.270704 
L 138.885802 114.207074 
L 138.962155 114.461593 
L 139.038509 114.270704 
L 139.114862 119.806485 
L 139.267569 116.370483 
L 139.343922 115.734186 
L 139.496629 113.507148 
L 139.649335 113.252629 
L 139.725689 113.761666 
L 139.954749 112.107295 
L 140.183809 112.298184 
L 140.336516 112.807221 
L 140.412869 112.807221 
L 140.565576 115.288779 
L 140.641929 115.416038 
L 140.794636 117.643076 
L 140.870989 118.088484 
L 140.947343 117.961225 
L 141.023696 116.94315 
L 141.405463 105.744328 
L 141.634523 104.789883 
L 141.710877 104.917143 
L 141.78723 99.826769 
L 141.863583 103.262771 
L 141.939937 103.199142 
L 142.092643 102.690104 
L 142.398057 96.963434 
L 142.550764 95.75447 
L 142.627117 95.75447 
L 142.779824 101.54477 
L 142.856177 99.69951 
L 143.008884 98.872324 
L 143.085237 98.490546 
L 143.161591 98.808694 
L 143.237944 98.745065 
L 143.390651 102.753734 
L 143.543358 102.371956 
L 143.696064 98.045138 
L 143.848771 108.289515 
L 143.925124 108.289515 
L 144.077831 107.144181 
L 144.154185 107.016922 
L 144.306891 111.534628 
L 144.383245 111.21648 
L 144.459598 111.534628 
L 144.535951 118.215743 
L 144.612305 116.561372 
L 144.688658 116.370483 
L 144.841365 112.616332 
L 144.917718 117.452187 
L 144.994072 117.324928 
L 145.146778 111.852776 
L 145.223132 112.234554 
L 145.375839 113.888926 
L 145.452192 113.888926 
L 145.604899 114.461593 
L 145.681252 114.334334 
L 145.757605 112.234554 
L 145.833959 113.188999 
L 145.910312 113.188999 
L 146.063019 112.425443 
L 146.139372 112.361814 
L 146.215726 111.916406 
L 146.292079 112.234554 
L 146.368432 110.262035 
L 146.597493 113.12537 
L 146.673846 112.99811 
L 146.826553 103.390031 
L 147.055613 108.734923 
L 147.20832 108.353145 
L 147.361026 104.280846 
L 147.43738 108.162256 
L 147.513733 107.907737 
L 147.66644 108.034996 
L 147.819146 108.098626 
L 147.8955 109.498479 
L 147.971853 105.998847 
L 148.048207 106.062477 
L 148.12456 106.253366 
L 148.277267 104.217216 
L 148.506327 104.153587 
L 148.58268 101.290251 
L 148.659034 101.735659 
L 148.81174 100.781214 
L 148.964447 100.781214 
L 149.193507 96.836175 
L 149.422567 97.408842 
L 149.804334 96.199878 
L 149.880688 99.763139 
L 149.957041 99.69951 
L 150.186101 101.6084 
L 150.262454 101.6084 
L 150.415161 100.908473 
L 150.567868 100.908473 
L 150.720575 97.981509 
L 150.796928 97.536101 
L 150.949635 96.136248 
L 151.025988 96.136248 
L 151.178695 96.518026 
L 151.484108 95.627211 
L 151.560462 98.872324 
L 151.636815 96.136248 
L 151.713169 99.381361 
L 151.865875 95.75447 
L 152.018582 97.154323 
L 152.094935 97.154323 
L 152.171289 96.581656 
L 152.323996 102.181067 
L 152.400349 102.117437 
L 152.629409 101.290251 
L 152.858469 102.117437 
L 152.934823 100.272177 
L 153.163883 90.218689 
L 153.316589 89.455133 
L 153.392943 91.87306 
L 153.469296 91.554912 
L 153.54565 92.572987 
L 153.698356 91.809431 
L 153.927416 94.672766 
L 154.156477 104.408105 
L 154.23283 102.880993 
L 154.309183 103.071882 
L 154.46189 102.053807 
L 154.614597 101.799289 
L 154.69095 101.799289 
L 154.767304 106.698773 
L 154.843657 100.463066 
L 154.92001 100.653955 
L 155.225424 105.807958 
L 155.530837 96.963434 
L 155.607191 96.963434 
L 155.759897 97.66336 
L 155.988957 95.245433 
L 156.141664 98.363287 
L 156.218018 96.708915 
L 156.294371 97.408842 
L 156.370724 101.353881 
L 156.447078 99.890399 
L 156.599784 101.290251 
L 156.752491 101.162992 
L 157.057905 102.817363 
L 157.134258 102.817363 
L 157.210611 101.862918 
L 157.363318 102.371956 
L 157.439672 102.499215 
L 157.592378 102.181067 
L 157.745085 103.962698 
L 157.974145 103.899068 
L 158.126852 106.635144 
L 158.203205 106.635144 
L 158.355912 107.016922 
L 158.508619 100.717584 
L 158.661326 100.717584 
L 158.737679 101.54477 
L 158.890386 97.599731 
L 159.043092 101.990178 
L 159.119446 102.117437 
L 159.195799 108.289515 
L 159.272153 107.907737 
L 159.348506 107.907737 
L 159.424859 108.034996 
L 159.577566 99.508621 
L 159.730273 99.508621 
L 159.806626 99.69951 
L 159.88298 99.57225 
L 160.035686 94.863655 
L 160.11204 94.545507 
L 160.188393 94.863655 
L 160.417453 90.536837 
L 160.57016 90.791356 
L 160.646513 90.473208 
L 160.722867 93.781951 
L 160.875573 102.308326 
L 161.104634 94.927285 
L 161.25734 94.036469 
L 161.333694 94.163729 
L 161.410047 93.400173 
L 161.4864 93.463802 
L 161.791814 83.473944 
L 161.868167 83.473944 
L 161.944521 82.32861 
L 162.020874 83.219426 
L 162.097227 82.774018 
L 162.173581 82.901277 
L 162.326288 82.583129 
L 162.402641 82.583129 
L 162.478994 82.837648 
L 162.708054 82.201351 
L 162.784408 82.964907 
L 162.937115 82.583129 
L 163.013468 82.583129 
L 163.089821 82.074092 
L 163.242528 84.36476 
L 163.318881 83.792093 
L 163.471588 84.873797 
L 163.547942 84.873797 
L 163.700648 80.674239 
L 163.777002 77.810904 
L 164.158768 84.810167 
L 164.235122 83.537574 
L 164.387829 90.345948 
L 164.464182 90.218689 
L 164.540535 90.536837 
L 164.616889 90.09143 
L 164.693242 83.473944 
L 164.769595 84.492019 
L 165.151362 76.792829 
L 165.227716 76.792829 
L 165.380422 79.592534 
L 165.533129 75.711125 
L 165.685836 75.711125 
L 165.762189 75.520236 
L 165.838543 76.220162 
L 166.067603 79.528905 
L 166.143956 77.810904 
L 166.296663 82.074092 
L 166.44937 75.265717 
L 166.525723 78.765349 
L 166.602076 78.383571 
L 166.754783 78.319941 
L 166.831137 77.747274 
L 166.90749 73.929494 
L 166.983843 74.565791 
L 167.060197 74.311272 
L 167.289257 75.711125 
L 167.36561 75.583865 
L 167.441964 72.275123 
L 167.518317 77.810904 
L 167.59467 73.356827 
L 167.671024 74.820309 
L 167.82373 77.492755 
L 167.976437 77.874533 
L 168.129144 79.528905 
L 168.205497 75.838384 
L 168.281851 75.965643 
L 168.510911 78.129052 
L 168.587264 78.065422 
L 168.663618 78.383571 
L 168.892678 74.502161 
L 169.045384 74.502161 
L 169.198091 76.60194 
L 169.274445 76.920088 
L 169.503505 82.39224 
L 169.656211 78.319941 
L 169.732565 86.082761 
L 169.808918 83.537574 
L 169.961625 89.009725 
L 170.037978 89.200614 
L 170.114332 89.073355 
L 170.343392 81.946832 
L 170.419745 82.010462 
L 170.496099 81.246906 
L 170.572452 82.901277 
L 170.648805 78.892608 
L 170.725159 82.710388 
L 170.801512 82.519499 
L 170.954219 80.865128 
L 171.030572 80.674239 
L 171.106926 84.2375 
L 171.335986 77.874533 
L 171.488692 77.620015 
L 171.565046 79.083497 
L 171.717753 76.283792 
L 171.794106 75.392976 
L 171.870459 71.511567 
L 171.946813 73.165938 
L 172.023166 75.456606 
L 172.099519 75.202087 
L 172.175873 75.456606 
L 172.252226 78.701719 
L 172.328579 77.747274 
L 172.55764 73.547716 
L 172.633993 75.074828 
L 172.710346 74.820309 
L 172.7867 74.820309 
L 172.939406 75.392976 
L 173.01576 75.392976 
L 173.092113 74.62942 
L 173.168467 74.69305 
L 173.321173 75.774754 
L 173.397527 69.030009 
L 173.47388 69.857195 
L 173.550233 70.111714 
L 173.626587 69.793565 
L 173.779294 70.429862 
L 173.855647 69.666306 
L 173.932 75.011198 
L 174.008354 74.184013 
L 174.084707 74.565791 
L 174.16106 72.529641 
L 174.466474 77.047348 
L 174.542827 77.620015 
L 174.619181 77.365496 
L 174.695534 77.429126 
L 174.848241 78.129052 
L 175.000948 82.901277 
L 175.230008 71.829715 
L 175.764481 74.247642 
L 175.993541 76.66557 
L 176.069895 76.411051 
L 176.146248 74.311272 
L 176.222602 74.502161 
L 176.298955 74.69305 
L 176.451662 75.520236 
L 176.528015 75.583865 
L 176.604368 75.838384 
L 176.757075 74.565791 
L 176.909782 81.565054 
L 176.986135 81.946832 
L 177.138842 79.719794 
L 177.215195 85.446464 
L 177.291549 85.382834 
L 177.367902 85.446464 
L 177.596962 91.93669 
L 177.673316 91.618542 
L 177.749669 92.572987 
L 177.826022 91.809431 
L 177.978729 93.272913 
L 178.055083 93.527432 
L 178.284143 94.990914 
L 178.436849 94.927285 
L 178.513203 95.372692 
L 178.66591 94.990914 
L 178.742263 93.272913 
L 178.89497 94.863655 
L 178.971323 95.054544 
L 179.12403 95.563581 
L 179.276737 88.309799 
L 179.429443 93.654691 
L 179.505797 93.781951 
L 179.58215 93.400173 
L 179.658503 96.581656 
L 179.734857 96.136248 
L 179.81121 96.136248 
L 179.887563 96.581656 
L 180.04027 94.354618 
L 180.192977 95.372692 
L 180.26933 95.181803 
L 180.345684 95.118174 
L 180.49839 94.227358 
L 180.574744 94.927285 
L 180.651097 94.609136 
L 180.880157 94.163729 
L 180.956511 94.545507 
L 181.109217 92.00032 
L 181.261924 91.682171 
L 181.414631 89.518763 
L 181.490984 94.100099 
L 181.567338 93.90921 
L 181.643691 93.90921 
L 182.025458 91.491282 
L 182.178165 91.236764 
L 182.330871 89.264244 
L 182.407225 89.200614 
L 182.483578 83.410315 
L 182.559932 83.664833 
L 182.712638 83.664833 
L 182.788992 83.092166 
L 182.941698 81.310536 
L 183.018052 81.056017 
L 183.094405 82.010462 
L 183.247112 77.683644 
L 183.323465 77.683644 
L 183.476172 77.365496 
L 183.628879 81.183276 
L 183.705232 81.692314 
L 183.781586 84.937427 
L 183.857939 84.555649 
L 183.934292 84.555649 
L 184.010646 84.110241 
L 184.086999 90.473208 
L 184.163352 86.27365 
L 184.239706 86.719057 
L 184.392413 86.591798 
L 184.468766 86.655428 
L 184.545119 85.573723 
L 184.697826 89.200614 
L 184.850533 89.200614 
L 185.079593 90.536837 
L 185.2323 89.582392 
L 185.308653 89.264244 
L 185.385006 93.145654 
L 185.46136 91.427653 
L 185.537713 91.491282 
L 185.614067 91.045875 
L 185.69042 93.90921 
L 185.843127 88.627947 
L 185.91948 88.946096 
L 185.995833 91.618542 
L 186.14854 82.646759 
L 186.301247 82.646759 
L 186.3776 82.964907 
L 186.530307 84.682908 
L 186.683014 81.755943 
L 186.835721 82.32861 
L 186.912074 82.32861 
L 186.988427 79.656164 
L 187.064781 79.719794 
L 187.141134 79.719794 
L 187.217487 79.528905 
L 187.293841 81.501425 
L 187.370194 81.056017 
L 187.446548 81.183276 
L 187.522901 80.165201 
L 187.675608 74.69305 
L 187.751961 74.69305 
L 187.981021 75.456606 
L 188.057374 75.392976 
L 188.210081 73.293197 
L 188.286435 74.247642 
L 188.362788 64.321414 
L 188.439141 65.02134 
L 188.515495 64.512303 
L 188.591848 64.575933 
L 188.668201 65.721267 
L 188.897262 63.494228 
L 189.049968 65.403118 
L 189.202675 64.957711 
L 189.279028 66.230304 
L 189.355382 66.103045 
L 189.508089 71.829715 
L 189.660795 71.511567 
L 189.737149 72.020604 
L 189.813502 71.893345 
L 189.889855 71.893345 
L 189.966209 72.338752 
L 190.118916 75.902014 
L 190.195269 76.029273 
L 190.271622 75.265717 
L 190.347976 75.329347 
L 190.500682 76.092903 
L 190.729743 69.157269 
L 190.806096 69.093639 
L 190.958803 68.202824 
L 191.264216 68.139194 
L 191.34057 68.520972 
L 191.416923 69.857195 
L 191.493276 69.539047 
L 191.56963 69.220898 
L 191.645983 68.393713 
L 191.722336 68.711861 
L 191.79869 68.775491 
L 192.02775 67.184749 
L 192.104103 67.312008 
L 192.25681 65.403118 
L 192.409517 64.830451 
L 192.71493 66.484823 
L 192.791284 66.484823 
L 193.020344 67.757416 
L 193.096697 67.757416 
L 193.402111 75.329347 
L 193.478464 75.774754 
L 193.707524 73.547716 
L 193.860231 73.484086 
L 193.936584 67.502897 
L 194.012938 67.693786 
L 194.089291 67.693786 
L 194.241998 67.121119 
L 194.318351 64.066895 
L 194.394705 64.194155 
L 194.623765 70.620751 
L 194.700118 66.739341 
L 194.776471 67.948305 
L 194.852825 67.948305 
L 194.929178 65.848526 
L 195.005532 65.912156 
L 195.158238 66.548452 
L 195.234592 66.039415 
L 195.387298 70.429862 
L 195.540005 69.411787 
L 195.692712 69.539047 
L 195.845419 69.093639 
L 195.921772 69.411787 
L 195.998125 68.711861 
L 196.150832 71.129789 
L 196.379892 71.129789 
L 196.685306 81.056017 
L 196.914366 77.556385 
L 196.990719 78.192682 
L 197.067073 83.283055 
L 197.143426 82.010462 
L 197.219779 75.456606 
L 197.296133 75.902014 
L 197.448839 75.965643 
L 197.601546 66.739341 
L 197.6779 66.866601 
L 197.754253 68.011935 
L 197.830606 67.948305 
L 197.90696 67.948305 
L 197.983313 68.202824 
L 198.36508 72.911419 
L 198.441433 72.911419 
L 198.59414 68.584602 
L 198.670493 69.030009 
L 198.746847 68.457342 
L 199.128614 71.193418 
L 199.28132 66.230304 
L 199.357674 66.93023 
L 199.434027 66.612082 
L 199.586734 61.967116 
L 199.663087 62.476154 
L 199.739441 65.594007 
L 199.815794 63.048821 
L 199.892147 65.594007 
L 200.044854 62.603413 
L 200.121208 64.703192 
L 200.197561 64.194155 
L 200.350268 63.939636 
L 200.426621 62.348894 
L 200.655681 75.074828 
L 200.732035 74.502161 
L 200.808388 70.748011 
L 200.961095 77.301866 
L 201.037448 77.301866 
L 201.113801 76.66557 
L 201.190155 80.801498 
L 201.342862 75.838384 
L 201.419215 75.902014 
L 201.571922 74.184013 
L 201.648275 74.184013 
L 201.724628 74.883939 
L 201.953689 69.666306 
L 202.106395 69.539047 
L 202.335455 69.602676 
L 202.488162 71.002529 
L 202.564516 71.193418 
L 202.640869 70.9389 
L 202.869929 71.893345 
L 203.098989 67.884675 
L 203.251696 67.948305 
L 203.328049 63.494228 
L 203.404403 64.130525 
L 203.480756 64.575933 
L 203.557109 64.385044 
L 203.709816 64.385044 
L 204.091583 60.821782 
L 204.24429 53.63163 
L 204.396996 60.121856 
L 204.47335 57.513039 
L 204.549703 60.440004 
L 204.626057 56.622224 
L 204.778763 59.676448 
L 204.855117 59.740078 
L 205.313237 56.685854 
L 205.465944 56.876743 
L 205.61865 53.568 
L 205.695004 56.240446 
L 205.771357 56.176816 
L 205.924064 53.695259 
L 206.000417 54.077037 
L 206.153124 56.685854 
L 206.305831 56.685854 
L 206.382184 57.004002 
L 206.458538 60.885412 
L 206.611244 58.531114 
L 206.687598 61.521709 
L 206.763951 61.458079 
L 206.840304 62.094376 
L 206.916658 67.248379 
L 206.993011 67.05749 
L 207.069365 66.293934 
L 207.145718 67.375638 
L 207.222071 64.257784 
L 207.298425 64.385044 
L 207.451131 63.048821 
L 207.527485 67.566527 
L 207.680192 59.803708 
L 207.832898 63.430599 
L 208.061958 63.430599 
L 208.291019 60.058226 
L 208.367372 60.694523 
L 208.443725 60.821782 
L 208.672785 59.803708 
L 208.749139 59.803708 
L 208.901846 63.17608 
L 208.978199 63.17608 
L 209.054552 64.321414 
L 209.130906 63.557858 
L 209.207259 64.448673 
L 209.359966 60.249115 
L 209.436319 60.503634 
L 209.512673 59.867337 
L 209.665379 72.147863 
L 209.741733 72.147863 
L 209.818086 72.593271 
L 209.894439 73.929494 
L 209.970793 73.165938 
L 210.047146 73.993124 
L 210.199853 72.975049 
L 210.276206 72.975049 
L 210.428913 72.78416 
L 210.58162 77.683644 
L 210.657973 77.301866 
L 210.81068 79.274386 
L 210.887033 79.910683 
L 211.03974 73.356827 
L 211.192447 70.620751 
L 211.421507 75.647495 
L 211.803274 81.056017 
L 211.955981 78.001793 
L 212.032334 78.001793 
L 212.185041 79.338016 
L 212.261394 77.365496 
L 212.337747 77.874533 
L 212.490454 77.874533 
L 212.566807 78.256311 
L 212.948574 69.220898 
L 213.024928 69.539047 
L 213.101281 68.96638 
L 213.177634 69.602676 
L 213.330341 78.4472 
L 213.483048 77.938163 
L 213.559401 71.638826 
L 213.635755 71.893345 
L 214.017522 73.865864 
L 214.246582 81.946832 
L 214.475642 75.520236 
L 214.551995 74.62942 
L 214.628349 76.156532 
L 214.704702 74.247642 
L 214.781055 75.965643 
L 214.857409 75.774754 
L 215.010115 74.947569 
L 215.162822 77.747274 
L 215.315529 77.874533 
L 215.468236 77.238237 
L 215.544589 77.301866 
L 215.697296 73.865864 
L 215.850003 75.074828 
L 216.002709 71.893345 
L 216.231769 71.893345 
L 216.384476 73.929494 
L 216.46083 73.865864 
L 216.68989 74.374902 
L 216.842596 74.502161 
L 216.995303 75.265717 
L 217.14801 71.638826 
L 217.37707 76.792829 
L 217.529777 78.065422 
L 217.60613 78.065422 
L 217.682484 78.192682 
L 217.758837 81.628684 
L 217.83519 81.501425 
L 217.911544 79.592534 
L 217.987897 79.783423 
L 218.06425 80.228831 
L 218.140604 84.937427 
L 218.216957 84.682908 
L 218.293311 84.555649 
L 218.369664 84.746538 
L 218.598724 71.893345 
L 218.675077 74.883939 
L 218.904138 69.666306 
L 218.980491 69.602676 
L 219.133198 68.457342 
L 219.285904 69.857195 
L 219.362258 70.175344 
L 219.820378 78.319941 
L 219.896731 78.319941 
L 219.973085 78.956238 
L 220.202145 76.029273 
L 220.354852 69.602676 
L 220.507558 71.320678 
L 220.583912 71.193418 
L 220.736618 72.275123 
L 220.812972 66.484823 
L 220.965679 71.066159 
L 221.194739 69.729936 
L 221.347445 65.466748 
L 221.500152 69.220898 
L 221.576506 69.220898 
L 221.805566 70.87527 
L 221.881919 70.87527 
L 222.110979 79.592534 
L 222.340039 68.139194 
L 222.416393 68.266453 
L 222.492746 67.821046 
L 222.569099 67.948305 
L 222.645453 67.948305 
L 222.721806 67.757416 
L 222.79816 67.248379 
L 222.874513 65.784896 
L 223.103573 67.566527 
L 223.179926 67.439268 
L 223.561693 68.393713 
L 223.638047 67.821046 
L 223.7144 67.948305 
L 223.790753 67.884675 
L 223.94346 59.803708 
L 224.248874 61.967116 
L 224.40158 62.985191 
L 224.630641 74.184013 
L 224.706994 74.565791 
L 224.783347 79.592534 
L 224.859701 79.274386 
L 224.936054 80.41972 
L 225.012407 80.292461 
L 225.088761 80.292461 
L 225.165114 80.165201 
L 225.317821 79.147127 
L 225.394174 72.593271 
L 225.470528 72.656901 
L 225.546881 72.84779 
L 225.623234 67.121119 
L 225.699588 67.693786 
L 225.775941 67.693786 
L 225.928648 68.711861 
L 226.005001 68.648231 
L 226.081355 68.90275 
L 226.157708 67.948305 
L 226.234061 68.139194 
L 226.310415 68.202824 
L 226.386768 67.312008 
L 226.463122 68.330083 
L 226.539475 75.774754 
L 226.615828 75.265717 
L 226.692182 75.265717 
L 226.768535 73.165938 
L 226.844888 73.484086 
L 226.921242 73.356827 
L 227.073949 77.365496 
L 227.150302 76.60194 
L 227.303009 78.638089 
L 227.379362 78.956238 
L 227.608422 76.856459 
L 227.684776 79.274386 
L 227.761129 78.319941 
L 227.837482 79.592534 
L 227.913836 76.347421 
L 227.990189 76.856459 
L 228.066542 76.920088 
L 228.295602 71.384307 
L 228.371956 70.81164 
L 228.448309 72.147863 
L 228.601016 69.093639 
L 228.677369 73.547716 
L 228.753723 72.975049 
L 228.830076 72.975049 
L 228.982783 72.338752 
L 229.059136 69.602676 
L 229.13549 69.729936 
L 229.288196 69.030009 
L 229.517256 72.466012 
L 229.59361 72.147863 
L 229.746317 73.038679 
L 229.82267 72.147863 
L 229.899023 74.120383 
L 230.05173 72.593271 
L 230.433497 77.047348 
L 230.50985 76.411051 
L 230.586204 78.256311 
L 230.662557 74.502161 
L 230.73891 74.62942 
L 230.967971 83.219426 
L 231.120677 73.738605 
L 231.197031 74.120383 
L 231.273384 73.802235 
L 231.502444 75.902014 
L 231.578798 83.537574 
L 231.655151 77.174607 
L 231.731504 77.620015 
L 231.807858 77.810904 
L 232.036918 73.738605 
L 232.113271 73.738605 
L 232.342331 76.53831 
L 232.495038 72.529641 
L 232.571391 72.529641 
L 232.647745 73.165938 
L 232.800452 76.156532 
L 232.876805 76.156532 
L 232.953158 76.029273 
L 233.029512 76.092903 
L 233.105865 77.620015 
L 233.258572 74.947569 
L 233.334925 83.346685 
L 233.411279 82.710388 
L 233.487632 82.774018 
L 233.640339 78.192682 
L 233.716692 78.192682 
L 233.793045 77.620015 
L 234.098459 80.292461 
L 234.174812 80.165201 
L 234.327519 80.801498 
L 234.403872 84.110241 
L 234.480226 83.792093 
L 234.632933 83.346685 
L 234.785639 86.337279 
L 234.861993 85.828242 
L 235.014699 83.537574 
L 235.320113 83.346685 
L 235.47282 83.473944 
L 235.549173 83.473944 
L 235.625526 90.409578 
L 235.778233 85.001056 
L 235.93094 88.309799 
L 236.083647 88.246169 
L 236.16 87.737132 
L 236.312707 83.601204 
L 236.465413 85.700983 
L 236.61812 85.001056 
L 236.694474 85.828242 
L 236.770827 84.36476 
L 236.84718 86.14639 
L 237.152594 81.883203 
L 237.228947 81.565054 
L 237.381654 84.492019 
L 237.458007 84.110241 
L 237.687067 86.973576 
L 237.839774 85.828242 
L 237.992481 84.428389 
L 238.068834 85.510094 
L 238.221541 80.992387 
L 238.297894 80.992387 
L 238.450601 81.501425 
L 238.603308 82.137721 
L 238.679661 85.764612 
L 238.832368 78.192682 
L 238.908721 78.4472 
L 238.985075 78.192682 
L 239.061428 80.674239 
L 239.214135 73.484086 
L 239.290488 73.102308 
L 239.366842 73.165938 
L 239.672255 73.356827 
L 239.824962 74.184013 
L 239.977669 74.184013 
L 240.130375 73.674975 
L 240.283082 75.838384 
L 240.588496 75.202087 
L 240.664849 74.311272 
L 240.817556 69.793565 
L 240.893909 69.793565 
L 241.046616 70.748011 
L 241.122969 70.748011 
L 241.352029 70.366233 
L 241.428383 71.002529 
L 241.504736 69.793565 
L 241.657443 75.965643 
L 241.733796 76.092903 
L 241.886503 75.392976 
L 242.115563 75.456606 
L 242.26827 75.583865 
L 242.344623 76.156532 
L 242.49733 74.883939 
L 242.573683 75.011198 
L 242.72639 73.738605 
L 242.802744 73.738605 
L 243.031804 74.565791 
L 243.108157 74.565791 
L 243.18451 74.69305 
L 243.337217 73.802235 
L 243.413571 69.348158 
L 243.489924 69.793565 
L 243.566277 69.793565 
L 243.642631 69.157269 
L 243.871691 72.72053 
L 244.024398 72.78416 
L 244.253458 70.620751 
L 244.329811 71.002529 
L 244.406164 71.002529 
L 244.482518 69.793565 
L 244.558871 69.984454 
L 244.635224 69.920825 
L 244.787931 73.547716 
L 244.864285 73.547716 
L 244.940638 73.356827 
L 245.016991 69.729936 
L 245.093345 71.575196 
L 245.169698 70.620751 
L 245.322405 71.257048 
L 245.398758 70.87527 
L 245.475112 71.766085 
L 245.704172 76.983718 
L 245.780525 77.238237 
L 245.856878 82.010462 
L 245.933232 79.910683 
L 246.085939 79.719794 
L 246.162292 79.719794 
L 246.314999 72.020604 
L 246.391352 74.374902 
L 246.620412 77.683644 
L 246.773119 77.683644 
L 246.925826 76.283792 
L 247.002179 76.283792 
L 247.231239 80.228831 
L 247.307593 79.974312 
L 247.536653 73.865864 
L 247.613006 76.283792 
L 247.689359 75.392976 
L 247.765713 75.265717 
L 247.842066 80.292461 
L 247.91842 79.847053 
L 248.14748 79.783423 
L 248.37654 83.728463 
L 248.452893 83.728463 
L 248.6056 84.046611 
L 248.681953 85.891872 
L 248.758307 85.828242 
L 249.06372 87.800762 
L 249.140074 86.464539 
L 249.216427 90.918615 
L 249.369134 88.818836 
L 249.598194 88.500688 
L 249.674547 92.891135 
L 249.750901 90.791356 
L 249.827254 91.554912 
L 249.903607 91.427653 
L 250.056314 97.79062 
L 250.285374 98.236027 
L 250.361728 100.972103 
L 250.438081 100.908473 
L 250.514434 101.290251 
L 250.590788 105.744328 
L 250.667141 104.853513 
L 250.743494 104.853513 
L 250.819848 104.980772 
L 250.896201 103.835438 
L 250.972555 98.808694 
L 251.048908 100.399436 
L 251.201615 97.79062 
L 251.354321 96.263508 
L 251.507028 90.09143 
L 251.583382 90.473208 
L 251.659735 94.227358 
L 251.736088 92.891135 
L 251.812442 92.891135 
L 251.965148 93.84558 
L 252.041502 92.636617 
L 252.194209 93.336543 
L 252.270562 93.400173 
L 252.346915 93.781951 
L 252.423269 99.508621 
L 252.499622 97.79062 
L 252.575975 97.154323 
L 252.728682 99.126843 
L 252.881389 99.57225 
L 253.110449 93.591062 
L 253.186802 93.718321 
L 253.492216 99.954028 
L 253.644923 103.135512 
L 253.721276 103.199142 
L 253.797629 98.681435 
L 253.873983 99.508621 
L 254.026689 99.063213 
L 254.103043 94.354618 
L 254.179396 96.772545 
L 254.332103 91.427653 
L 254.48481 91.364023 
L 254.561163 90.791356 
L 254.790223 95.690841 
L 254.94293 92.254839 
L 255.019283 93.718321 
L 255.17199 100.844844 
L 255.248343 95.75447 
L 255.324697 99.381361 
L 255.40105 99.190472 
L 255.553757 98.172398 
L 255.63011 99.063213 
L 255.85917 105.235291 
L 256.011877 104.789883 
L 256.088231 104.789883 
L 256.164584 108.544034 
L 256.393644 103.962698 
L 256.469997 103.58092 
L 256.546351 103.771809 
L 256.622704 103.199142 
L 256.851764 106.635144 
L 257.004471 101.926548 
L 257.080824 101.417511 
L 257.233531 103.899068 
L 257.386238 98.935954 
L 257.462591 101.735659 
L 257.538945 99.254102 
L 257.615298 99.317732 
L 257.768005 99.317732 
L 257.997065 95.436322 
L 258.073418 95.499952 
L 258.149772 95.372692 
L 258.302478 89.773281 
L 258.378832 90.0278 
L 258.455185 90.0278 
L 258.607892 92.318468 
L 258.913305 92.00032 
L 258.989659 91.93669 
L 259.142366 91.554912 
L 259.218719 91.554912 
L 259.295072 85.764612 
L 259.371426 86.21002 
L 259.447779 86.019131 
L 259.524132 86.337279 
L 259.600486 82.774018 
L 259.753193 89.773281 
L 259.829546 89.773281 
L 259.982253 94.863655 
L 260.134959 89.264244 
L 260.211313 93.082024 
L 260.287666 93.018395 
L 260.364019 93.018395 
L 260.440373 95.563581 
L 260.516726 95.436322 
L 260.669433 95.8181 
L 260.898493 98.808694 
L 260.974846 94.990914 
L 261.0512 95.245433 
L 261.127553 95.118174 
L 261.432967 90.0278 
L 261.585673 92.127579 
L 261.662027 92.127579 
L 261.814734 92.954765 
L 261.891087 92.700246 
L 261.96744 94.736396 
L 262.120147 89.264244 
L 262.349207 89.327874 
L 262.425561 89.646022 
L 262.501914 89.518763 
L 262.730974 94.609136 
L 262.807327 94.545507 
L 262.960034 94.418247 
L 263.112741 86.464539 
L 263.189094 86.655428 
L 263.265448 89.518763 
L 263.341801 89.455133 
L 263.418154 89.455133 
L 263.799921 96.772545 
L 263.876275 96.708915 
L 264.181688 95.054544 
L 264.258042 95.309063 
L 264.334395 95.054544 
L 264.410748 95.245433 
L 264.487102 95.054544 
L 264.563455 96.518026 
L 264.716162 100.844844 
L 264.868869 100.144917 
L 265.097929 96.327137 
L 265.174282 95.88173 
L 265.250635 97.217953 
L 265.326989 96.454397 
L 265.403342 96.518026 
L 265.708756 95.499952 
L 265.785109 98.999583 
L 265.861462 98.490546 
L 266.090523 102.690104 
L 266.243229 107.27144 
L 266.548643 107.589589 
L 266.70135 106.762403 
L 267.006763 92.254839 
L 267.15947 93.97284 
L 267.38853 85.891872 
L 267.464883 85.891872 
L 267.61759 86.14639 
L 267.693943 89.327874 
L 267.770297 88.627947 
L 267.84665 88.627947 
L 268.07571 89.073355 
L 268.152064 88.755207 
L 268.228417 88.818836 
L 268.30477 88.946096 
L 268.381124 88.627947 
L 268.53383 90.409578 
L 268.686537 90.0278 
L 268.839244 93.654691 
L 268.991951 91.745801 
L 269.068304 91.745801 
L 269.526424 87.482613 
L 269.602778 87.800762 
L 269.755484 88.18254 
L 269.908191 85.955501 
L 269.984545 85.955501 
L 270.213605 87.228095 
L 270.289958 93.272913 
L 270.442665 86.782687 
L 270.595372 85.764612 
L 270.824432 85.382834 
L 270.900785 85.255575 
L 270.977138 88.755207 
L 271.129845 85.573723 
L 271.282552 86.337279 
L 271.358905 86.082761 
L 271.435259 86.846317 
L 271.511612 85.828242 
L 272.046086 95.309063 
L 272.122439 95.181803 
L 272.275146 94.545507 
L 272.351499 94.545507 
L 272.427853 97.917879 
L 272.580559 87.928021 
L 272.733266 93.591062 
L 272.885973 91.173134 
L 272.962326 91.682171 
L 273.115033 94.609136 
L 273.191386 94.609136 
L 273.26774 93.654691 
L 273.344093 96.899804 
L 273.573153 88.246169 
L 273.72586 88.18254 
L 273.878567 85.191945 
L 273.95492 88.05528 
L 274.031273 87.991651 
L 274.107627 87.991651 
L 274.260334 89.200614 
L 274.41304 90.791356 
L 274.565747 90.218689 
L 274.6421 90.218689 
L 274.794807 90.345948 
L 274.871161 90.09143 
L 275.023867 87.737132 
L 275.176574 87.737132 
L 275.329281 86.528168 
L 275.481988 76.029273 
L 275.711048 82.519499 
L 275.787401 82.39224 
L 275.863754 87.482613 
L 275.940108 86.14639 
L 276.169168 85.191945 
L 276.245521 82.901277 
L 276.321875 83.028537 
L 276.474581 84.810167 
L 276.550935 85.700983 
L 276.627288 85.255575 
L 276.779995 82.646759 
L 276.856348 82.519499 
L 276.932702 82.901277 
L 277.009055 80.228831 
L 277.085408 81.819573 
L 277.161762 78.319941 
L 277.238115 78.892608 
L 277.390822 77.047348 
L 277.467175 72.338752 
L 277.619882 75.774754 
L 277.696235 76.156532 
L 277.925295 75.138458 
L 278.001649 73.674975 
L 278.078002 74.247642 
L 278.154356 73.929494 
L 278.307062 71.447937 
L 278.536122 71.384307 
L 278.612476 71.384307 
L 278.688829 71.002529 
L 278.765183 71.066159 
L 278.917889 73.420457 
L 278.994243 73.420457 
L 279.070596 73.293197 
L 279.223303 74.120383 
L 279.37601 77.301866 
L 279.528716 77.301866 
L 279.60507 76.856459 
L 279.757776 75.456606 
L 279.83413 75.456606 
L 279.986837 73.611346 
L 280.06319 73.674975 
L 280.368603 76.220162 
L 280.444957 75.711125 
L 280.674017 76.347421 
L 280.75037 79.019867 
L 280.826724 78.192682 
L 280.903077 78.192682 
L 280.97943 78.065422 
L 281.132137 82.901277 
L 281.208491 82.901277 
L 281.284844 83.028537 
L 281.437551 82.774018 
L 281.590257 83.601204 
L 281.666611 83.410315 
L 281.742964 82.901277 
L 281.819318 80.801498 
L 281.895671 80.928757 
L 281.972024 81.692314 
L 282.124731 79.401645 
L 282.277438 80.35609 
L 282.506498 81.183276 
L 282.659205 81.246906 
L 282.735558 82.39224 
L 282.888265 79.338016 
L 282.964618 78.956238 
L 283.117325 81.056017 
L 283.193678 81.183276 
L 283.270032 79.210756 
L 283.422738 81.565054 
L 283.499092 80.35609 
L 283.575445 85.446464 
L 283.728152 81.501425 
L 283.804505 85.382834 
L 283.880859 84.619278 
L 284.033565 82.39224 
L 284.109919 84.36476 
L 284.415332 79.719794 
L 284.491686 79.974312 
L 284.644392 80.928757 
L 284.720746 80.674239 
L 284.873452 78.001793 
L 284.949806 81.246906 
L 285.026159 80.992387 
L 285.102513 80.801498 
L 285.178866 83.028537 
L 285.331573 80.992387 
L 285.407926 81.501425 
L 285.484279 78.001793 
L 285.636986 85.064686 
L 285.71334 83.028537 
L 285.789693 86.21002 
L 285.9424 83.092166 
L 286.095106 86.909946 
L 286.17146 86.655428 
L 286.324167 91.491282 
L 286.40052 92.827506 
L 286.705933 91.045875 
L 286.782287 91.173134 
L 286.934994 88.755207 
L 287.011347 88.755207 
L 287.393114 104.344476 
L 287.545821 104.344476 
L 287.698527 104.471735 
L 287.774881 103.899068 
L 288.003941 91.93669 
L 288.156648 100.335806 
L 288.462061 91.045875 
L 288.538414 91.682171 
L 288.614768 86.782687 
L 288.691121 90.727726 
L 288.767475 90.218689 
L 288.920181 89.518763 
L 288.996535 89.518763 
L 289.072888 82.710388 
L 289.149241 85.319205 
L 289.225595 83.792093 
L 289.301948 85.191945 
L 289.378302 84.746538 
L 289.454655 84.746538 
L 289.607362 84.873797 
L 289.760068 86.782687 
L 289.836422 89.136985 
L 289.912775 89.073355 
L 289.989129 89.073355 
L 290.065482 90.155059 
L 290.294542 85.637353 
L 290.447249 85.955501 
L 290.599956 85.955501 
L 290.752662 80.674239 
L 290.905369 85.510094 
L 291.058076 81.501425 
L 291.134429 81.501425 
L 291.210783 82.201351 
L 291.287136 84.046611 
L 291.363489 83.855722 
L 291.516196 79.974312 
L 291.668903 84.619278 
L 291.82161 80.037942 
L 291.897963 80.037942 
L 291.974316 80.165201 
L 292.05067 79.847053 
L 292.127023 83.092166 
L 292.203376 82.583129 
L 292.356083 82.583129 
L 292.432437 84.173871 
L 292.50879 84.110241 
L 292.661497 84.428389 
L 292.73785 84.428389 
L 292.890557 84.046611 
L 292.96691 88.11891 
L 293.043263 87.291724 
L 293.19597 87.291724 
L 293.272324 83.601204 
L 293.348677 84.937427 
L 293.42503 84.36476 
L 293.501384 84.682908 
L 293.577737 84.173871 
L 293.65409 85.382834 
L 293.730444 85.128316 
L 293.883151 85.128316 
L 294.112211 83.283055 
L 294.188564 83.664833 
L 294.341271 84.746538 
L 294.417624 84.746538 
L 294.570331 84.619278 
L 294.723038 88.755207 
L 294.875744 86.21002 
L 295.104805 86.21002 
L 295.181158 88.11891 
L 295.333865 86.719057 
L 295.410218 86.591798 
L 295.486571 90.409578 
L 295.562925 89.836911 
L 295.639278 89.709652 
L 295.715632 89.900541 
L 295.791985 89.836911 
L 295.868338 90.664097 
L 295.944692 89.96417 
L 296.097398 87.418984 
L 296.326459 89.900541 
L 296.555519 90.473208 
L 296.708225 91.300393 
L 296.784579 91.173134 
L 296.937286 89.073355 
L 297.089992 89.327874 
L 297.319052 94.418247 
L 297.395406 94.354618 
L 297.471759 85.382834 
L 297.548113 88.246169 
L 297.624466 88.373429 
L 297.777173 88.05528 
L 297.853526 88.05528 
L 298.006233 88.627947 
L 298.15894 88.691577 
L 298.235293 88.437058 
L 298.388 88.946096 
L 298.464353 88.882466 
L 298.693413 87.482613 
L 298.769767 87.737132 
L 298.922473 82.137721 
L 299.07518 81.437795 
L 299.151533 81.501425 
L 299.227887 80.48335 
L 299.30424 84.110241 
L 299.380594 84.046611 
L 299.456947 83.792093 
L 299.5333 83.919352 
L 299.686007 82.32861 
L 299.838714 82.646759 
L 299.991421 82.646759 
L 300.220481 87.991651 
L 300.296834 87.928021 
L 300.373187 87.609873 
L 300.525894 90.218689 
L 300.602247 89.582392 
L 300.831308 90.664097 
L 300.984014 90.664097 
L 301.060368 90.282319 
L 301.136721 92.509357 
L 301.213074 92.445728 
L 301.289428 92.318468 
L 301.442135 90.918615 
L 301.594841 90.791356 
L 301.671195 90.09143 
L 301.747548 87.737132 
L 301.823901 88.246169 
L 301.900255 86.909946 
L 301.976608 87.037206 
L 302.052962 86.973576 
L 302.129315 87.100835 
L 302.358375 87.928021 
L 302.587435 82.774018 
L 302.740142 82.774018 
L 302.816495 83.283055 
L 303.045555 89.327874 
L 303.198262 84.873797 
L 303.274616 84.36476 
L 303.350969 83.028537 
L 303.580029 84.746538 
L 303.656382 84.746538 
L 303.809089 73.356827 
L 303.961796 74.565791 
L 304.190856 78.256311 
L 304.267209 78.129052 
L 304.343563 78.956238 
L 304.49627 77.747274 
L 304.648976 77.747274 
L 304.878036 70.238973 
L 305.030743 66.293934 
L 305.107097 70.620751 
L 305.18345 69.093639 
L 305.41251 71.002529 
L 305.488863 69.666306 
L 305.64157 70.493492 
L 305.717924 70.493492 
L 305.794277 70.620751 
L 306.023337 70.302603 
L 306.176044 66.293934 
L 306.252397 71.002529 
L 306.328751 70.366233 
L 306.481457 70.748011 
L 306.557811 70.175344 
L 306.634164 79.147127 
L 306.710517 77.301866 
L 306.786871 76.283792 
L 306.863224 79.656164 
L 306.939578 79.338016 
L 307.092284 77.301866 
L 307.244991 78.57446 
L 307.397698 76.856459 
L 307.474051 80.35609 
L 307.550405 80.292461 
L 307.626758 81.310536 
L 307.703111 81.056017 
L 307.855818 77.810904 
L 308.008525 77.556385 
L 308.161232 78.065422 
L 308.313938 78.065422 
L 308.390292 79.974312 
L 308.542998 90.536837 
L 308.695705 85.255575 
L 308.772058 83.919352 
L 308.848412 85.255575 
L 308.924765 85.128316 
L 309.001119 85.382834 
L 309.153825 79.656164 
L 309.306532 79.465275 
L 309.382885 80.101572 
L 309.459239 81.946832 
L 309.535592 78.892608 
L 309.611946 79.274386 
L 309.764652 80.865128 
L 309.917359 81.565054 
L 310.070066 80.674239 
L 310.299126 84.873797 
L 310.451833 85.064686 
L 310.604539 82.45587 
L 310.757246 85.510094 
L 310.8336 85.510094 
L 310.986306 85.001056 
L 311.139013 84.36476 
L 311.215366 85.828242 
L 311.444427 97.090693 
L 311.74984 100.017658 
L 311.826193 99.063213 
L 311.902547 99.126843 
L 312.055254 105.171661 
L 312.284314 106.635144 
L 312.43702 106.826033 
L 312.513374 106.826033 
L 312.589727 105.871588 
L 312.742434 99.826769 
L 312.895141 97.154323 
L 313.047847 97.599731 
L 313.276908 87.928021 
L 313.429614 89.136985 
L 313.505968 85.955501 
L 313.582321 93.654691 
L 313.658674 90.409578 
L 313.811381 88.946096 
L 313.887735 88.946096 
L 313.964088 88.818836 
L 314.193148 100.844844 
L 314.269501 106.444255 
L 314.422208 95.118174 
L 314.574915 104.598994 
L 314.727622 103.58092 
L 314.803975 103.58092 
L 314.956682 104.089957 
L 315.109389 98.872324 
L 315.262095 98.872324 
L 315.414802 98.426916 
L 315.491155 98.872324 
L 315.720216 106.380625 
L 315.872922 114.016185 
L 315.949276 113.761666 
L 316.101982 114.97063 
L 316.254689 113.379888 
L 316.331043 114.97063 
L 316.407396 114.334334 
L 316.483749 113.825296 
L 316.636456 107.33507 
L 316.865516 111.343739 
L 316.941869 108.798552 
L 317.018223 109.371219 
L 317.094576 113.634407 
L 317.17093 112.552703 
L 317.705403 125.724044 
L 317.781757 125.533155 
L 317.934463 121.969894 
L 318.010817 121.779005 
L 318.08717 121.906264 
L 318.163523 121.460856 
L 318.239877 121.588116 
L 318.392584 121.588116 
L 318.621644 116.243224 
L 318.850704 115.988705 
L 318.927057 116.752261 
L 319.003411 114.525223 
L 319.079764 115.288779 
L 319.232471 118.78841 
L 319.308824 118.279373 
L 319.385177 118.406632 
L 319.537884 112.234554 
L 319.614238 112.170925 
L 319.766944 111.534628 
L 319.843298 110.007516 
L 319.996004 104.598994 
L 320.072358 105.171661 
L 320.148711 107.207811 
L 320.377771 99.126843 
L 320.530478 99.69951 
L 320.606831 99.69951 
L 320.683185 99.954028 
L 320.759538 95.436322 
L 320.912245 98.617805 
L 320.988598 98.872324 
L 321.141305 99.763139 
L 321.217658 99.763139 
L 321.294012 99.508621 
L 321.523072 107.971367 
L 321.675779 105.935217 
L 321.752132 105.36255 
L 321.904839 97.217953 
L 322.286606 92.700246 
L 322.362959 93.654691 
L 322.515666 92.763876 
L 322.592019 97.72699 
L 322.744726 95.054544 
L 322.821079 95.054544 
L 323.050139 93.84558 
L 323.126493 93.654691 
L 323.355553 91.300393 
L 323.431906 92.06395 
L 323.584613 90.600467 
L 323.660966 91.682171 
L 323.813673 87.546243 
L 324.042733 89.773281 
L 324.19544 89.455133 
L 324.271793 89.518763 
L 324.348147 91.809431 
L 324.4245 91.109504 
L 324.500854 91.045875 
L 324.729914 93.145654 
L 324.88262 85.764612 
L 324.958974 85.764612 
L 325.035327 86.655428 
L 325.11168 86.591798 
L 325.188034 87.037206 
L 325.264387 86.655428 
L 325.417094 86.909946 
L 325.493447 86.973576 
L 325.569801 81.883203 
L 325.646154 87.546243 
L 325.722507 87.482613 
L 325.798861 88.05528 
L 325.951568 90.282319 
L 326.027921 90.218689 
L 326.104274 88.946096 
L 326.256981 92.891135 
L 326.333334 93.018395 
L 326.409688 87.673502 
L 326.486041 87.737132 
L 326.562395 85.064686 
L 326.638748 86.528168 
L 326.944161 83.919352 
L 327.020515 83.664833 
L 327.096868 83.919352 
L 327.402282 89.009725 
L 327.478635 89.009725 
L 327.631342 92.763876 
L 327.784049 92.382098 
L 327.860402 87.228095 
L 327.936755 88.882466 
L 328.013109 88.882466 
L 328.089462 86.719057 
L 328.242169 92.572987 
L 328.318522 90.473208 
L 328.394876 90.791356 
L 328.471229 90.345948 
L 328.547582 87.864391 
L 328.623936 89.900541 
L 328.700289 89.709652 
L 328.776642 87.037206 
L 328.852996 87.800762 
L 328.929349 88.818836 
L 329.158409 96.645286 
L 329.234763 96.645286 
L 329.387469 97.217953 
L 329.540176 95.499952 
L 329.692883 89.773281 
L 329.769236 89.773281 
L 329.84559 89.073355 
L 329.921943 94.100099 
L 329.998296 92.954765 
L 330.151003 93.018395 
L 330.30371 94.481877 
L 330.380063 94.481877 
L 330.456417 94.036469 
L 330.609123 92.382098 
L 330.685477 92.254839 
L 330.838184 92.891135 
L 330.914537 90.854986 
L 330.99089 93.654691 
L 331.067244 93.082024 
L 331.143597 92.572987 
L 331.21995 92.891135 
L 331.296304 99.444991 
L 331.372657 98.617805 
L 331.449011 97.281582 
L 331.525364 97.599731 
L 331.601717 96.645286 
L 331.678071 99.508621 
L 331.830777 95.945359 
L 331.983484 97.408842 
L 332.059838 96.072619 
L 332.288898 83.601204 
L 332.365251 83.728463 
L 332.517958 82.32861 
L 332.594311 81.056017 
L 332.670665 81.437795 
L 332.747018 80.546979 
L 332.823371 80.674239 
L 332.976078 86.27365 
L 333.205138 86.27365 
L 333.357845 86.973576 
L 333.434198 91.93669 
L 333.510552 86.528168 
L 333.586905 88.500688 
L 333.663258 88.11891 
L 333.739612 88.946096 
L 333.815965 88.755207 
L 333.968672 88.818836 
L 334.121379 89.136985 
L 334.197732 89.136985 
L 334.274085 87.418984 
L 334.350439 88.755207 
L 334.426792 88.627947 
L 334.503145 88.627947 
L 334.579499 88.818836 
L 334.655852 88.500688 
L 334.884912 86.591798 
L 334.961266 87.228095 
L 335.190326 83.155796 
L 335.266679 83.537574 
L 335.419386 81.755943 
L 335.495739 81.819573 
L 335.648446 87.291724 
L 335.801153 80.737868 
L 335.877506 80.292461 
L 336.030213 74.184013 
L 336.106566 77.238237 
L 336.259273 74.947569 
L 336.41198 74.947569 
L 336.488333 74.75668 
L 336.64104 73.611346 
L 336.717393 73.484086 
L 336.793747 73.038679 
L 336.8701 71.893345 
L 336.946453 74.184013 
L 337.022807 73.993124 
L 337.09916 74.120383 
L 337.251867 73.611346 
L 337.32822 73.993124 
L 337.480927 76.856459 
L 337.55728 75.711125 
L 337.633634 67.502897 
L 337.709987 68.330083 
L 337.786341 73.356827 
L 337.862694 72.72053 
L 337.939047 75.456606 
L 338.015401 75.392976 
L 338.091754 76.220162 
L 338.244461 72.084234 
L 338.320814 72.275123 
L 338.397168 72.275123 
L 338.626228 77.429126 
L 339.007995 78.956238 
L 339.160701 72.593271 
L 339.237055 72.529641 
L 339.542468 74.056753 
L 339.695175 73.865864 
L 340.076942 85.573723 
L 340.153295 81.565054 
L 340.229649 83.346685 
L 340.382355 84.2375 
L 340.458709 83.982982 
L 340.611415 83.982982 
L 340.687769 92.636617 
L 340.764122 92.382098 
L 340.916829 93.082024 
L 340.993182 93.082024 
L 341.069536 94.418247 
L 341.145889 99.826769 
L 341.222242 99.190472 
L 341.298596 99.254102 
L 341.374949 100.908473 
L 341.604009 97.917879 
L 341.680363 98.045138 
L 341.833069 99.063213 
L 341.909423 99.57225 
L 341.985776 99.254102 
L 342.138483 96.836175 
L 342.52025 94.609136 
L 342.672956 95.245433 
L 342.74931 96.327137 
L 342.902017 95.245433 
L 342.97837 95.181803 
L 343.054723 94.800025 
L 343.131077 94.863655 
L 343.20743 95.309063 
L 343.43649 93.654691 
L 343.589197 94.481877 
L 343.818257 91.87306 
L 343.89461 93.145654 
L 343.970964 92.954765 
L 344.047317 92.954765 
L 344.200024 89.773281 
L 344.276377 90.282319 
L 344.352731 89.327874 
L 344.505437 84.2375 
L 344.581791 85.382834 
L 344.810851 84.2375 
L 344.887204 85.382834 
L 344.963558 85.128316 
L 345.039911 81.246906 
L 345.116264 82.010462 
L 345.192618 82.010462 
L 345.268971 88.246169 
L 345.345325 88.05528 
L 345.421678 87.100835 
L 345.498031 84.173871 
L 345.574385 86.973576 
L 345.650738 86.909946 
L 345.727091 86.909946 
L 345.879798 88.818836 
L 345.956152 88.691577 
L 346.032505 87.482613 
L 346.185212 91.364023 
L 346.261565 91.427653 
L 346.719685 85.191945 
L 346.796039 86.909946 
L 346.872392 86.528168 
L 346.948745 87.037206 
L 347.025099 89.773281 
L 347.254159 83.473944 
L 347.330512 83.919352 
L 347.483219 77.810904 
L 347.559572 76.60194 
L 347.635926 76.792829 
L 347.788633 76.66557 
L 347.941339 77.556385 
L 348.017693 77.492755 
L 348.094046 78.51083 
L 348.246753 72.72053 
L 348.323106 72.656901 
L 348.475813 73.929494 
L 348.62852 66.802971 
L 348.704873 66.99386 
L 349.08664 59.485559 
L 349.392053 59.485559 
L 349.54476 59.103781 
L 349.621113 59.040151 
L 349.850174 64.894081 
L 350.00288 59.930967 
L 350.155587 60.249115 
L 350.23194 61.521709 
L 350.461001 69.475417 
L 350.537354 68.775491 
L 350.690061 76.283792 
L 350.766414 76.283792 
L 350.919121 70.238973 
L 351.071828 69.729936 
L 351.224534 72.275123 
L 351.300888 72.275123 
L 351.377241 73.929494 
L 351.453594 73.802235 
L 351.529948 71.129789 
L 351.606301 71.193418 
L 351.682655 71.129789 
L 351.835361 71.638826 
L 351.988068 76.729199 
L 352.140775 76.474681 
L 352.217128 75.774754 
L 352.293482 77.810904 
L 352.369835 77.301866 
L 352.446188 75.392976 
L 352.522542 75.583865 
L 352.675248 80.292461 
L 352.827955 79.847053 
L 352.904309 79.847053 
L 352.980662 80.928757 
L 353.057015 80.865128 
L 353.133369 80.165201 
L 353.286075 75.774754 
L 353.362429 75.774754 
L 353.438782 75.456606 
L 353.515136 75.647495 
L 353.591489 74.374902 
L 353.744196 75.392976 
L 354.049609 74.565791 
L 354.125963 74.75668 
L 354.202316 74.056753 
L 354.355023 77.620015 
L 354.507729 72.78416 
L 354.584083 72.78416 
L 354.73679 75.902014 
L 354.813143 73.993124 
L 354.96585 75.583865 
L 355.118556 76.156532 
L 355.19491 76.220162 
L 355.347617 80.35609 
L 355.42397 80.165201 
L 355.576677 77.429126 
L 355.729383 77.874533 
L 355.805737 76.856459 
L 355.88209 74.184013 
L 355.958444 74.247642 
L 356.11115 78.828978 
L 356.263857 78.701719 
L 356.416564 78.065422 
L 356.492917 78.065422 
L 356.569271 76.60194 
L 356.721977 79.974312 
L 356.798331 79.974312 
L 357.103744 85.382834 
L 357.409158 85.382834 
L 357.485511 83.664833 
L 357.561864 85.128316 
L 357.714571 81.628684 
L 357.867278 83.537574 
L 357.943631 83.537574 
L 358.172691 83.346685 
L 358.249045 83.346685 
L 358.401751 83.028537 
L 358.478105 83.155796 
L 358.554458 83.155796 
L 358.707165 80.48335 
L 358.783518 80.546979 
L 358.936225 82.583129 
L 359.088932 83.028537 
L 359.241639 80.292461 
L 359.394345 83.792093 
L 359.470699 80.928757 
L 359.547052 81.565054 
L 359.623405 81.565054 
L 359.776112 81.119647 
L 359.928819 86.27365 
L 360.005172 86.27365 
L 360.310586 77.110977 
L 360.463293 82.264981 
L 360.539646 83.792093 
L 360.615999 83.346685 
L 360.692353 83.346685 
L 360.768706 82.519499 
L 360.845059 82.774018 
L 360.921413 82.519499 
L 360.997766 81.246906 
L 361.07412 81.437795 
L 361.226826 83.092166 
L 361.455886 81.246906 
L 361.684947 85.319205 
L 361.837653 80.928757 
L 361.914007 81.374165 
L 362.066713 79.847053 
L 362.21942 79.019867 
L 362.372127 79.338016 
L 362.44848 80.546979 
L 362.524834 78.828978 
L 362.601187 78.892608 
L 362.67754 79.019867 
L 362.830247 74.62942 
L 362.906601 75.520236 
L 363.212014 69.475417 
L 363.364721 69.475417 
L 363.517428 68.648231 
L 363.593781 68.96638 
L 363.899194 79.528905 
L 363.975548 79.338016 
L 364.051901 76.920088 
L 364.204608 70.620751 
L 364.357315 70.620751 
L 364.510021 68.711861 
L 364.586375 68.648231 
L 364.739082 68.90275 
L 364.968142 65.403118 
L 365.120848 68.202824 
L 365.426262 65.275859 
L 365.655322 67.375638 
L 365.808029 68.202824 
L 365.884382 65.657637 
L 365.960735 66.103045 
L 366.495209 77.110977 
L 366.571562 77.110977 
L 366.647916 73.102308 
L 366.876976 78.765349 
L 367.106036 76.411051 
L 367.182389 76.411051 
L 367.487803 82.519499 
L 367.564156 82.519499 
L 367.64051 83.728463 
L 367.86957 97.345212 
L 368.022277 97.090693 
L 368.09863 97.090693 
L 368.174983 95.945359 
L 368.32769 92.572987 
L 368.404043 92.572987 
L 368.480397 92.00032 
L 368.55675 86.21002 
L 368.633104 87.546243 
L 368.709457 87.546243 
L 368.938517 90.536837 
L 369.01487 96.454397 
L 369.091224 96.327137 
L 369.167577 95.309063 
L 369.320284 96.136248 
L 369.472991 95.8181 
L 369.625697 97.408842 
L 369.702051 97.599731 
L 369.931111 92.827506 
L 370.160171 91.236764 
L 370.236524 98.172398 
L 370.312878 95.372692 
L 370.770998 103.771809 
L 371.000058 103.45366 
L 371.152765 102.690104 
L 371.229118 104.408105 
L 371.381825 103.390031 
L 371.458178 103.390031 
L 371.687239 98.554176 
L 371.763592 98.236027 
L 371.916299 102.308326 
L 372.069005 103.071882 
L 372.145359 108.162256 
L 372.221712 107.971367 
L 372.374419 107.589589 
L 372.527126 104.917143 
L 372.603479 104.917143 
L 372.756186 107.27144 
L 372.832539 107.144181 
L 372.985246 109.498479 
L 373.214306 106.826033 
L 373.367013 106.762403 
L 373.443366 108.925812 
L 373.596073 105.553439 
L 373.672426 105.617069 
L 373.74878 106.126106 
L 373.901486 100.972103 
L 374.054193 106.316995 
L 374.130546 105.108032 
L 374.283253 107.144181 
L 374.359607 107.080551 
L 374.43596 106.762403 
L 374.588667 99.254102 
L 374.741373 107.207811 
L 374.89408 107.080551 
L 375.12314 109.18033 
L 375.275847 109.24396 
L 375.428554 112.552703 
L 375.581261 107.716848 
L 375.657614 108.225885 
L 375.810321 102.499215 
L 375.886674 102.499215 
L 375.963027 99.954028 
L 376.039381 104.408105 
L 376.115734 104.153587 
L 376.192088 104.535365 
L 376.344794 107.716848 
L 376.421148 108.034996 
L 376.573854 107.716848 
L 376.650208 107.653218 
L 376.726561 102.499215 
L 376.802915 103.390031 
L 376.879268 103.390031 
L 377.031975 98.872324 
L 377.108328 98.999583 
L 377.184681 99.126843 
L 377.337388 99.69951 
L 377.413742 99.763139 
L 377.566448 103.008252 
L 377.642802 103.008252 
L 377.871862 103.45366 
L 378.024569 96.327137 
L 378.100922 96.327137 
L 378.177275 96.772545 
L 378.253629 95.499952 
L 378.406335 96.390767 
L 378.482689 96.772545 
L 378.559042 96.708915 
L 378.635396 96.581656 
L 378.788102 93.018395 
L 378.864456 93.718321 
L 378.940809 93.84558 
L 379.093516 96.899804 
L 379.169869 96.772545 
L 379.322576 97.090693 
L 379.398929 94.036469 
L 379.475283 94.736396 
L 379.551636 94.736396 
L 379.627989 97.281582 
L 379.704343 97.154323 
L 379.85705 97.66336 
L 380.009756 97.281582 
L 380.08611 97.472471 
L 380.238816 101.48114 
L 380.391523 98.999583 
L 380.467877 88.18254 
L 380.54423 88.437058 
L 380.620583 88.437058 
L 380.696937 90.536837 
L 380.849643 86.782687 
L 380.925997 87.100835 
L 381.078703 89.773281 
L 381.23141 89.836911 
L 381.307764 89.96417 
L 381.46047 91.809431 
L 381.536824 91.745801 
L 381.613177 88.564318 
L 381.765884 90.345948 
L 382.224004 79.719794 
L 382.300357 79.719794 
L 382.376711 78.57446 
L 382.453064 80.228831 
L 382.529418 79.847053 
L 382.605771 80.48335 
L 382.758478 87.991651 
L 382.834831 87.991651 
L 383.140245 89.900541 
L 383.292951 85.446464 
L 383.369305 86.14639 
L 383.445658 87.928021 
L 383.522011 87.737132 
L 383.598365 87.864391 
L 383.674718 85.764612 
L 383.751072 85.891872 
L 383.980132 85.319205 
L 384.056485 85.446464 
L 384.132838 82.32861 
L 384.209192 88.11891 
L 384.285545 87.928021 
L 384.438252 86.019131 
L 384.590959 87.864391 
L 384.667312 87.864391 
L 384.743665 87.991651 
L 384.820019 80.992387 
L 384.896372 81.183276 
L 384.972726 79.083497 
L 385.278139 90.155059 
L 385.354492 94.036469 
L 385.430846 93.336543 
L 385.583553 93.145654 
L 385.736259 92.954765 
L 385.888966 94.100099 
L 386.041673 89.073355 
L 386.118026 89.200614 
L 386.270733 94.736396 
L 386.347086 94.736396 
L 386.42344 94.863655 
L 386.6525 92.191209 
L 386.728853 92.445728 
L 386.805207 95.181803 
L 386.957913 91.682171 
L 387.11062 92.127579 
L 387.186973 95.181803 
L 387.263327 94.545507 
L 387.416034 93.145654 
L 387.492387 93.463802 
L 387.721447 91.682171 
L 387.874154 92.509357 
L 387.950507 92.382098 
L 388.255921 93.209284 
L 388.408627 89.646022 
L 388.866748 89.646022 
L 389.095808 91.745801 
L 389.248514 87.609873 
L 389.401221 87.609873 
L 389.477575 86.591798 
L 389.553928 86.719057 
L 389.706635 86.337279 
L 389.782988 86.909946 
L 389.859341 83.092166 
L 389.935695 83.155796 
L 390.164755 81.119647 
L 390.241108 81.183276 
L 390.393815 81.628684 
L 390.470168 81.565054 
L 390.622875 90.664097 
L 390.851935 92.954765 
L 390.928289 92.954765 
L 391.080995 100.399436 
L 391.233702 100.844844 
L 391.310056 100.144917 
L 391.386409 100.781214 
L 391.539116 94.290988 
L 391.615469 97.217953 
L 391.768176 94.927285 
L 391.920883 94.927285 
L 391.997236 95.054544 
L 392.073589 94.990914 
L 392.149943 94.545507 
L 392.302649 92.763876 
L 392.455356 86.27365 
L 392.53171 86.27365 
L 392.684416 86.909946 
L 392.76077 86.909946 
L 392.837123 83.092166 
L 392.913476 85.764612 
L 392.98983 85.446464 
L 393.142537 85.382834 
L 393.21889 86.528168 
L 393.295243 86.21002 
L 393.44795 87.164465 
L 393.524303 90.918615 
L 393.600657 90.600467 
L 393.67701 92.445728 
L 393.753364 92.318468 
L 393.829717 90.155059 
L 393.90607 91.109504 
L 394.058777 92.763876 
L 394.13513 93.018395 
L 394.211484 91.427653 
L 394.364191 94.036469 
L 394.516897 93.718321 
L 394.669604 94.036469 
L 394.822311 89.455133 
L 395.127724 89.391503 
L 395.433138 94.609136 
L 395.585845 88.500688 
L 395.814905 87.991651 
L 395.891258 88.882466 
L 396.043965 80.674239 
L 396.120318 79.592534 
L 396.196672 79.974312 
L 396.273025 85.700983 
L 396.425732 82.774018 
L 396.502085 82.774018 
L 396.654792 84.173871 
L 396.731145 84.046611 
L 396.883852 82.519499 
L 396.960205 82.710388 
L 397.112912 84.2375 
L 397.265619 84.492019 
L 397.494679 83.664833 
L 397.571032 86.14639 
L 397.647386 85.828242 
L 397.952799 83.792093 
L 398.029152 85.891872 
L 398.105506 85.828242 
L 398.181859 85.955501 
L 398.258213 85.828242 
L 398.410919 85.064686 
L 398.487273 85.128316 
L 398.487273 85.128316 
" clip-path="url(#p9346c15e2a)" style="fill: none; stroke: #1f77b4; stroke-width: 1.5; stroke-linecap: square"/>
   </g>
   <g id="patch_3">
    <path d="M 57.6 307.584 
L 57.6 41.472 
" style="fill: none; stroke: #000000; stroke-width: 0.8; stroke-linejoin: miter; stroke-linecap: square"/>
   </g>
   <g id="patch_4">
    <path d="M 414.72 307.584 
L 414.72 41.472 
" style="fill: none; stroke: #000000; stroke-width: 0.8; stroke-linejoin: miter; stroke-linecap: square"/>
   </g>
   <g id="patch_5">
    <path d="M 57.6 307.584 
L 414.72 307.584 
" style="fill: none; stroke: #000000; stroke-width: 0.8; stroke-linejoin: miter; stroke-linecap: square"/>
   </g>
   <g id="patch_6">
    <path d="M 57.6 41.472 
L 414.72 41.472 
" style="fill: none; stroke: #000000; stroke-width: 0.8; stroke-linejoin: miter; stroke-linecap: square"/>
   </g>
   <g id="text_16">
    <!-- comp06 -->
    <g transform="translate(211.90125 35.472) scale(0.12 -0.12)">
     <defs>
      <path id="DejaVuSans-63" d="M 3122 3366 
L 3122 2828 
Q 2878 2963 2633 3030 
Q 2388 3097 2138 3097 
Q 1578 3097 1268 2742 
Q 959 2388 959 1747 
Q 959 1106 1268 751 
Q 1578 397 2138 397 
Q 2388 397 2633 464 
Q 2878 531 3122 666 
L 3122 134 
Q 2881 22 2623 -34 
Q 2366 -91 2075 -91 
Q 1284 -91 818 406 
Q 353 903 353 1747 
Q 353 2603 823 3093 
Q 1294 3584 2113 3584 
Q 2378 3584 2631 3529 
Q 2884 3475 3122 3366 
z
" transform="scale(0.015625)"/>
      <path id="DejaVuSans-70" d="M 1159 525 
L 1159 -1331 
L 581 -1331 
L 581 3500 
L 1159 3500 
L 1159 2969 
Q 1341 3281 1617 3432 
Q 1894 3584 2278 3584 
Q 2916 3584 3314 3078 
Q 3713 2572 3713 1747 
Q 3713 922 3314 415 
Q 2916 -91 2278 -91 
Q 1894 -91 1617 61 
Q 1341 213 1159 525 
z
M 3116 1747 
Q 3116 2381 2855 2742 
Q 2594 3103 2138 3103 
Q 1681 3103 1420 2742 
Q 1159 2381 1159 1747 
Q 1159 1113 1420 752 
Q 1681 391 2138 391 
Q 2594 391 2855 752 
Q 3116 1113 3116 1747 
z
" transform="scale(0.015625)"/>
      <path id="DejaVuSans-36" d="M 2113 2584 
Q 1688 2584 1439 2293 
Q 1191 2003 1191 1497 
Q 1191 994 1439 701 
Q 1688 409 2113 409 
Q 2538 409 2786 701 
Q 3034 994 3034 1497 
Q 3034 2003 2786 2293 
Q 2538 2584 2113 2584 
z
M 3366 4563 
L 3366 3988 
Q 3128 4100 2886 4159 
Q 2644 4219 2406 4219 
Q 1781 4219 1451 3797 
Q 1122 3375 1075 2522 
Q 1259 2794 1537 2939 
Q 1816 3084 2150 3084 
Q 2853 3084 3261 2657 
Q 3669 2231 3669 1497 
Q 3669 778 3244 343 
Q 2819 -91 2113 -91 
Q 1303 -91 875 529 
Q 447 1150 447 2328 
Q 447 3434 972 4092 
Q 1497 4750 2381 4750 
Q 2619 4750 2861 4703 
Q 3103 4656 3366 4563 
z
" transform="scale(0.015625)"/>
     </defs>
     <use xlink:href="#DejaVuSans-63"/>
     <use xlink:href="#DejaVuSans-6f" x="54.980469"/>
     <use xlink:href="#DejaVuSans-6d" x="116.162109"/>
     <use xlink:href="#DejaVuSans-70" x="213.574219"/>
     <use xlink:href="#DejaVuSans-30" x="277.050781"/>
     <use xlink:href="#DejaVuSans-36" x="340.673828"/>
    </g>
   </g>
  </g>
 </g>
 <defs>
  <clipPath id="p9346c15e2a">
   <rect x="57.6" y="41.472" width="357.12" height="266.112"/>
  </clipPath>
 </defs>
</svg>
