<?xml version="1.0" encoding="utf-8" standalone="no"?>
<!DOCTYPE svg PUBLIC "-//W3C//DTD SVG 1.1//EN"
  "http://www.w3.org/Graphics/SVG/1.1/DTD/svg11.dtd">
<svg xmlns:xlink="http://www.w3.org/1999/xlink" width="460.8pt" height="345.6pt" viewBox="0 0 460.8 345.6" xmlns="http://www.w3.org/2000/svg" version="1.1">
 <metadata>
  <rdf:RDF xmlns:dc="http://purl.org/dc/elements/1.1/" xmlns:cc="http://creativecommons.org/ns#" xmlns:rdf="http://www.w3.org/1999/02/22-rdf-syntax-ns#">
   <cc:Work>
    <dc:type rdf:resource="http://purl.org/dc/dcmitype/StillImage"/>
    <dc:date>2023-12-03T18:15:55.089473</dc:date>
    <dc:format>image/svg+xml</dc:format>
    <dc:creator>
     <cc:Agent>
      <dc:title>Matplotlib v3.7.1, https://matplotlib.org/</dc:title>
     </cc:Agent>
    </dc:creator>
   </cc:Work>
  </rdf:RDF>
 </metadata>
 <defs>
  <style type="text/css">*{stroke-linejoin: round; stroke-linecap: butt}</style>
 </defs>
 <g id="figure_1">
  <g id="patch_1">
   <path d="M 0 345.6 
L 460.8 345.6 
L 460.8 0 
L 0 0 
z
" style="fill: #ffffff"/>
  </g>
  <g id="axes_1">
   <g id="patch_2">
    <path d="M 57.6 307.584 
L 414.72 307.584 
L 414.72 41.472 
L 57.6 41.472 
z
" style="fill: #ffffff"/>
   </g>
   <g id="matplotlib.axis_1">
    <g id="xtick_1">
     <g id="line2d_1">
      <defs>
       <path id="mc78961103d" d="M 0 0 
L 0 3.5 
" style="stroke: #000000; stroke-width: 0.8"/>
      </defs>
      <g>
       <use xlink:href="#mc78961103d" x="73.832727" y="307.584" style="stroke: #000000; stroke-width: 0.8"/>
      </g>
     </g>
     <g id="text_1">
      <!-- 0 -->
      <g transform="translate(70.651477 322.182437) scale(0.1 -0.1)">
       <defs>
        <path id="DejaVuSans-30" d="M 2034 4250 
Q 1547 4250 1301 3770 
Q 1056 3291 1056 2328 
Q 1056 1369 1301 889 
Q 1547 409 2034 409 
Q 2525 409 2770 889 
Q 3016 1369 3016 2328 
Q 3016 3291 2770 3770 
Q 2525 4250 2034 4250 
z
M 2034 4750 
Q 2819 4750 3233 4129 
Q 3647 3509 3647 2328 
Q 3647 1150 3233 529 
Q 2819 -91 2034 -91 
Q 1250 -91 836 529 
Q 422 1150 422 2328 
Q 422 3509 836 4129 
Q 1250 4750 2034 4750 
z
" transform="scale(0.015625)"/>
       </defs>
       <use xlink:href="#DejaVuSans-30"/>
      </g>
     </g>
    </g>
    <g id="xtick_2">
     <g id="line2d_2">
      <g>
       <use xlink:href="#mc78961103d" x="143.381687" y="307.584" style="stroke: #000000; stroke-width: 0.8"/>
      </g>
     </g>
     <g id="text_2">
      <!-- 1000 -->
      <g transform="translate(130.656687 322.182437) scale(0.1 -0.1)">
       <defs>
        <path id="DejaVuSans-31" d="M 794 531 
L 1825 531 
L 1825 4091 
L 703 3866 
L 703 4441 
L 1819 4666 
L 2450 4666 
L 2450 531 
L 3481 531 
L 3481 0 
L 794 0 
L 794 531 
z
" transform="scale(0.015625)"/>
       </defs>
       <use xlink:href="#DejaVuSans-31"/>
       <use xlink:href="#DejaVuSans-30" x="63.623047"/>
       <use xlink:href="#DejaVuSans-30" x="127.246094"/>
       <use xlink:href="#DejaVuSans-30" x="190.869141"/>
      </g>
     </g>
    </g>
    <g id="xtick_3">
     <g id="line2d_3">
      <g>
       <use xlink:href="#mc78961103d" x="212.930647" y="307.584" style="stroke: #000000; stroke-width: 0.8"/>
      </g>
     </g>
     <g id="text_3">
      <!-- 2000 -->
      <g transform="translate(200.205647 322.182437) scale(0.1 -0.1)">
       <defs>
        <path id="DejaVuSans-32" d="M 1228 531 
L 3431 531 
L 3431 0 
L 469 0 
L 469 531 
Q 828 903 1448 1529 
Q 2069 2156 2228 2338 
Q 2531 2678 2651 2914 
Q 2772 3150 2772 3378 
Q 2772 3750 2511 3984 
Q 2250 4219 1831 4219 
Q 1534 4219 1204 4116 
Q 875 4013 500 3803 
L 500 4441 
Q 881 4594 1212 4672 
Q 1544 4750 1819 4750 
Q 2544 4750 2975 4387 
Q 3406 4025 3406 3419 
Q 3406 3131 3298 2873 
Q 3191 2616 2906 2266 
Q 2828 2175 2409 1742 
Q 1991 1309 1228 531 
z
" transform="scale(0.015625)"/>
       </defs>
       <use xlink:href="#DejaVuSans-32"/>
       <use xlink:href="#DejaVuSans-30" x="63.623047"/>
       <use xlink:href="#DejaVuSans-30" x="127.246094"/>
       <use xlink:href="#DejaVuSans-30" x="190.869141"/>
      </g>
     </g>
    </g>
    <g id="xtick_4">
     <g id="line2d_4">
      <g>
       <use xlink:href="#mc78961103d" x="282.479607" y="307.584" style="stroke: #000000; stroke-width: 0.8"/>
      </g>
     </g>
     <g id="text_4">
      <!-- 3000 -->
      <g transform="translate(269.754607 322.182437) scale(0.1 -0.1)">
       <defs>
        <path id="DejaVuSans-33" d="M 2597 2516 
Q 3050 2419 3304 2112 
Q 3559 1806 3559 1356 
Q 3559 666 3084 287 
Q 2609 -91 1734 -91 
Q 1441 -91 1130 -33 
Q 819 25 488 141 
L 488 750 
Q 750 597 1062 519 
Q 1375 441 1716 441 
Q 2309 441 2620 675 
Q 2931 909 2931 1356 
Q 2931 1769 2642 2001 
Q 2353 2234 1838 2234 
L 1294 2234 
L 1294 2753 
L 1863 2753 
Q 2328 2753 2575 2939 
Q 2822 3125 2822 3475 
Q 2822 3834 2567 4026 
Q 2313 4219 1838 4219 
Q 1578 4219 1281 4162 
Q 984 4106 628 3988 
L 628 4550 
Q 988 4650 1302 4700 
Q 1616 4750 1894 4750 
Q 2613 4750 3031 4423 
Q 3450 4097 3450 3541 
Q 3450 3153 3228 2886 
Q 3006 2619 2597 2516 
z
" transform="scale(0.015625)"/>
       </defs>
       <use xlink:href="#DejaVuSans-33"/>
       <use xlink:href="#DejaVuSans-30" x="63.623047"/>
       <use xlink:href="#DejaVuSans-30" x="127.246094"/>
       <use xlink:href="#DejaVuSans-30" x="190.869141"/>
      </g>
     </g>
    </g>
    <g id="xtick_5">
     <g id="line2d_5">
      <g>
       <use xlink:href="#mc78961103d" x="352.028567" y="307.584" style="stroke: #000000; stroke-width: 0.8"/>
      </g>
     </g>
     <g id="text_5">
      <!-- 4000 -->
      <g transform="translate(339.303567 322.182437) scale(0.1 -0.1)">
       <defs>
        <path id="DejaVuSans-34" d="M 2419 4116 
L 825 1625 
L 2419 1625 
L 2419 4116 
z
M 2253 4666 
L 3047 4666 
L 3047 1625 
L 3713 1625 
L 3713 1100 
L 3047 1100 
L 3047 0 
L 2419 0 
L 2419 1100 
L 313 1100 
L 313 1709 
L 2253 4666 
z
" transform="scale(0.015625)"/>
       </defs>
       <use xlink:href="#DejaVuSans-34"/>
       <use xlink:href="#DejaVuSans-30" x="63.623047"/>
       <use xlink:href="#DejaVuSans-30" x="127.246094"/>
       <use xlink:href="#DejaVuSans-30" x="190.869141"/>
      </g>
     </g>
    </g>
    <g id="text_6">
     <!-- iteration -->
     <g transform="translate(215.037344 335.860562) scale(0.1 -0.1)">
      <defs>
       <path id="DejaVuSans-69" d="M 603 3500 
L 1178 3500 
L 1178 0 
L 603 0 
L 603 3500 
z
M 603 4863 
L 1178 4863 
L 1178 4134 
L 603 4134 
L 603 4863 
z
" transform="scale(0.015625)"/>
       <path id="DejaVuSans-74" d="M 1172 4494 
L 1172 3500 
L 2356 3500 
L 2356 3053 
L 1172 3053 
L 1172 1153 
Q 1172 725 1289 603 
Q 1406 481 1766 481 
L 2356 481 
L 2356 0 
L 1766 0 
Q 1100 0 847 248 
Q 594 497 594 1153 
L 594 3053 
L 172 3053 
L 172 3500 
L 594 3500 
L 594 4494 
L 1172 4494 
z
" transform="scale(0.015625)"/>
       <path id="DejaVuSans-65" d="M 3597 1894 
L 3597 1613 
L 953 1613 
Q 991 1019 1311 708 
Q 1631 397 2203 397 
Q 2534 397 2845 478 
Q 3156 559 3463 722 
L 3463 178 
Q 3153 47 2828 -22 
Q 2503 -91 2169 -91 
Q 1331 -91 842 396 
Q 353 884 353 1716 
Q 353 2575 817 3079 
Q 1281 3584 2069 3584 
Q 2775 3584 3186 3129 
Q 3597 2675 3597 1894 
z
M 3022 2063 
Q 3016 2534 2758 2815 
Q 2500 3097 2075 3097 
Q 1594 3097 1305 2825 
Q 1016 2553 972 2059 
L 3022 2063 
z
" transform="scale(0.015625)"/>
       <path id="DejaVuSans-72" d="M 2631 2963 
Q 2534 3019 2420 3045 
Q 2306 3072 2169 3072 
Q 1681 3072 1420 2755 
Q 1159 2438 1159 1844 
L 1159 0 
L 581 0 
L 581 3500 
L 1159 3500 
L 1159 2956 
Q 1341 3275 1631 3429 
Q 1922 3584 2338 3584 
Q 2397 3584 2469 3576 
Q 2541 3569 2628 3553 
L 2631 2963 
z
" transform="scale(0.015625)"/>
       <path id="DejaVuSans-61" d="M 2194 1759 
Q 1497 1759 1228 1600 
Q 959 1441 959 1056 
Q 959 750 1161 570 
Q 1363 391 1709 391 
Q 2188 391 2477 730 
Q 2766 1069 2766 1631 
L 2766 1759 
L 2194 1759 
z
M 3341 1997 
L 3341 0 
L 2766 0 
L 2766 531 
Q 2569 213 2275 61 
Q 1981 -91 1556 -91 
Q 1019 -91 701 211 
Q 384 513 384 1019 
Q 384 1609 779 1909 
Q 1175 2209 1959 2209 
L 2766 2209 
L 2766 2266 
Q 2766 2663 2505 2880 
Q 2244 3097 1772 3097 
Q 1472 3097 1187 3025 
Q 903 2953 641 2809 
L 641 3341 
Q 956 3463 1253 3523 
Q 1550 3584 1831 3584 
Q 2591 3584 2966 3190 
Q 3341 2797 3341 1997 
z
" transform="scale(0.015625)"/>
       <path id="DejaVuSans-6f" d="M 1959 3097 
Q 1497 3097 1228 2736 
Q 959 2375 959 1747 
Q 959 1119 1226 758 
Q 1494 397 1959 397 
Q 2419 397 2687 759 
Q 2956 1122 2956 1747 
Q 2956 2369 2687 2733 
Q 2419 3097 1959 3097 
z
M 1959 3584 
Q 2709 3584 3137 3096 
Q 3566 2609 3566 1747 
Q 3566 888 3137 398 
Q 2709 -91 1959 -91 
Q 1206 -91 779 398 
Q 353 888 353 1747 
Q 353 2609 779 3096 
Q 1206 3584 1959 3584 
z
" transform="scale(0.015625)"/>
       <path id="DejaVuSans-6e" d="M 3513 2113 
L 3513 0 
L 2938 0 
L 2938 2094 
Q 2938 2591 2744 2837 
Q 2550 3084 2163 3084 
Q 1697 3084 1428 2787 
Q 1159 2491 1159 1978 
L 1159 0 
L 581 0 
L 581 3500 
L 1159 3500 
L 1159 2956 
Q 1366 3272 1645 3428 
Q 1925 3584 2291 3584 
Q 2894 3584 3203 3211 
Q 3513 2838 3513 2113 
z
" transform="scale(0.015625)"/>
      </defs>
      <use xlink:href="#DejaVuSans-69"/>
      <use xlink:href="#DejaVuSans-74" x="27.783203"/>
      <use xlink:href="#DejaVuSans-65" x="66.992188"/>
      <use xlink:href="#DejaVuSans-72" x="128.515625"/>
      <use xlink:href="#DejaVuSans-61" x="169.628906"/>
      <use xlink:href="#DejaVuSans-74" x="230.908203"/>
      <use xlink:href="#DejaVuSans-69" x="270.117188"/>
      <use xlink:href="#DejaVuSans-6f" x="297.900391"/>
      <use xlink:href="#DejaVuSans-6e" x="359.082031"/>
     </g>
    </g>
   </g>
   <g id="matplotlib.axis_2">
    <g id="ytick_1">
     <g id="line2d_6">
      <defs>
       <path id="md692883a7e" d="M 0 0 
L -3.5 0 
" style="stroke: #000000; stroke-width: 0.8"/>
      </defs>
      <g>
       <use xlink:href="#md692883a7e" x="57.6" y="272.17867" style="stroke: #000000; stroke-width: 0.8"/>
      </g>
     </g>
     <g id="text_7">
      <!-- 500 -->
      <g transform="translate(31.5125 275.977888) scale(0.1 -0.1)">
       <defs>
        <path id="DejaVuSans-35" d="M 691 4666 
L 3169 4666 
L 3169 4134 
L 1269 4134 
L 1269 2991 
Q 1406 3038 1543 3061 
Q 1681 3084 1819 3084 
Q 2600 3084 3056 2656 
Q 3513 2228 3513 1497 
Q 3513 744 3044 326 
Q 2575 -91 1722 -91 
Q 1428 -91 1123 -41 
Q 819 9 494 109 
L 494 744 
Q 775 591 1075 516 
Q 1375 441 1709 441 
Q 2250 441 2565 725 
Q 2881 1009 2881 1497 
Q 2881 1984 2565 2268 
Q 2250 2553 1709 2553 
Q 1456 2553 1204 2497 
Q 953 2441 691 2322 
L 691 4666 
z
" transform="scale(0.015625)"/>
       </defs>
       <use xlink:href="#DejaVuSans-35"/>
       <use xlink:href="#DejaVuSans-30" x="63.623047"/>
       <use xlink:href="#DejaVuSans-30" x="127.246094"/>
      </g>
     </g>
    </g>
    <g id="ytick_2">
     <g id="line2d_7">
      <g>
       <use xlink:href="#md692883a7e" x="57.6" y="229.330635" style="stroke: #000000; stroke-width: 0.8"/>
      </g>
     </g>
     <g id="text_8">
      <!-- 1000 -->
      <g transform="translate(25.15 233.129854) scale(0.1 -0.1)">
       <use xlink:href="#DejaVuSans-31"/>
       <use xlink:href="#DejaVuSans-30" x="63.623047"/>
       <use xlink:href="#DejaVuSans-30" x="127.246094"/>
       <use xlink:href="#DejaVuSans-30" x="190.869141"/>
      </g>
     </g>
    </g>
    <g id="ytick_3">
     <g id="line2d_8">
      <g>
       <use xlink:href="#md692883a7e" x="57.6" y="186.482601" style="stroke: #000000; stroke-width: 0.8"/>
      </g>
     </g>
     <g id="text_9">
      <!-- 1500 -->
      <g transform="translate(25.15 190.28182) scale(0.1 -0.1)">
       <use xlink:href="#DejaVuSans-31"/>
       <use xlink:href="#DejaVuSans-35" x="63.623047"/>
       <use xlink:href="#DejaVuSans-30" x="127.246094"/>
       <use xlink:href="#DejaVuSans-30" x="190.869141"/>
      </g>
     </g>
    </g>
    <g id="ytick_4">
     <g id="line2d_9">
      <g>
       <use xlink:href="#md692883a7e" x="57.6" y="143.634567" style="stroke: #000000; stroke-width: 0.8"/>
      </g>
     </g>
     <g id="text_10">
      <!-- 2000 -->
      <g transform="translate(25.15 147.433786) scale(0.1 -0.1)">
       <use xlink:href="#DejaVuSans-32"/>
       <use xlink:href="#DejaVuSans-30" x="63.623047"/>
       <use xlink:href="#DejaVuSans-30" x="127.246094"/>
       <use xlink:href="#DejaVuSans-30" x="190.869141"/>
      </g>
     </g>
    </g>
    <g id="ytick_5">
     <g id="line2d_10">
      <g>
       <use xlink:href="#md692883a7e" x="57.6" y="100.786533" style="stroke: #000000; stroke-width: 0.8"/>
      </g>
     </g>
     <g id="text_11">
      <!-- 2500 -->
      <g transform="translate(25.15 104.585752) scale(0.1 -0.1)">
       <use xlink:href="#DejaVuSans-32"/>
       <use xlink:href="#DejaVuSans-35" x="63.623047"/>
       <use xlink:href="#DejaVuSans-30" x="127.246094"/>
       <use xlink:href="#DejaVuSans-30" x="190.869141"/>
      </g>
     </g>
    </g>
    <g id="ytick_6">
     <g id="line2d_11">
      <g>
       <use xlink:href="#md692883a7e" x="57.6" y="57.938499" style="stroke: #000000; stroke-width: 0.8"/>
      </g>
     </g>
     <g id="text_12">
      <!-- 3000 -->
      <g transform="translate(25.15 61.737718) scale(0.1 -0.1)">
       <use xlink:href="#DejaVuSans-33"/>
       <use xlink:href="#DejaVuSans-30" x="63.623047"/>
       <use xlink:href="#DejaVuSans-30" x="127.246094"/>
       <use xlink:href="#DejaVuSans-30" x="190.869141"/>
      </g>
     </g>
    </g>
    <g id="text_13">
     <!-- best fitness of swarm -->
     <g transform="translate(19.070312 228.0905) rotate(-90) scale(0.1 -0.1)">
      <defs>
       <path id="DejaVuSans-62" d="M 3116 1747 
Q 3116 2381 2855 2742 
Q 2594 3103 2138 3103 
Q 1681 3103 1420 2742 
Q 1159 2381 1159 1747 
Q 1159 1113 1420 752 
Q 1681 391 2138 391 
Q 2594 391 2855 752 
Q 3116 1113 3116 1747 
z
M 1159 2969 
Q 1341 3281 1617 3432 
Q 1894 3584 2278 3584 
Q 2916 3584 3314 3078 
Q 3713 2572 3713 1747 
Q 3713 922 3314 415 
Q 2916 -91 2278 -91 
Q 1894 -91 1617 61 
Q 1341 213 1159 525 
L 1159 0 
L 581 0 
L 581 4863 
L 1159 4863 
L 1159 2969 
z
" transform="scale(0.015625)"/>
       <path id="DejaVuSans-73" d="M 2834 3397 
L 2834 2853 
Q 2591 2978 2328 3040 
Q 2066 3103 1784 3103 
Q 1356 3103 1142 2972 
Q 928 2841 928 2578 
Q 928 2378 1081 2264 
Q 1234 2150 1697 2047 
L 1894 2003 
Q 2506 1872 2764 1633 
Q 3022 1394 3022 966 
Q 3022 478 2636 193 
Q 2250 -91 1575 -91 
Q 1294 -91 989 -36 
Q 684 19 347 128 
L 347 722 
Q 666 556 975 473 
Q 1284 391 1588 391 
Q 1994 391 2212 530 
Q 2431 669 2431 922 
Q 2431 1156 2273 1281 
Q 2116 1406 1581 1522 
L 1381 1569 
Q 847 1681 609 1914 
Q 372 2147 372 2553 
Q 372 3047 722 3315 
Q 1072 3584 1716 3584 
Q 2034 3584 2315 3537 
Q 2597 3491 2834 3397 
z
" transform="scale(0.015625)"/>
       <path id="DejaVuSans-20" transform="scale(0.015625)"/>
       <path id="DejaVuSans-66" d="M 2375 4863 
L 2375 4384 
L 1825 4384 
Q 1516 4384 1395 4259 
Q 1275 4134 1275 3809 
L 1275 3500 
L 2222 3500 
L 2222 3053 
L 1275 3053 
L 1275 0 
L 697 0 
L 697 3053 
L 147 3053 
L 147 3500 
L 697 3500 
L 697 3744 
Q 697 4328 969 4595 
Q 1241 4863 1831 4863 
L 2375 4863 
z
" transform="scale(0.015625)"/>
       <path id="DejaVuSans-77" d="M 269 3500 
L 844 3500 
L 1563 769 
L 2278 3500 
L 2956 3500 
L 3675 769 
L 4391 3500 
L 4966 3500 
L 4050 0 
L 3372 0 
L 2619 2869 
L 1863 0 
L 1184 0 
L 269 3500 
z
" transform="scale(0.015625)"/>
       <path id="DejaVuSans-6d" d="M 3328 2828 
Q 3544 3216 3844 3400 
Q 4144 3584 4550 3584 
Q 5097 3584 5394 3201 
Q 5691 2819 5691 2113 
L 5691 0 
L 5113 0 
L 5113 2094 
Q 5113 2597 4934 2840 
Q 4756 3084 4391 3084 
Q 3944 3084 3684 2787 
Q 3425 2491 3425 1978 
L 3425 0 
L 2847 0 
L 2847 2094 
Q 2847 2600 2669 2842 
Q 2491 3084 2119 3084 
Q 1678 3084 1418 2786 
Q 1159 2488 1159 1978 
L 1159 0 
L 581 0 
L 581 3500 
L 1159 3500 
L 1159 2956 
Q 1356 3278 1631 3431 
Q 1906 3584 2284 3584 
Q 2666 3584 2933 3390 
Q 3200 3197 3328 2828 
z
" transform="scale(0.015625)"/>
      </defs>
      <use xlink:href="#DejaVuSans-62"/>
      <use xlink:href="#DejaVuSans-65" x="63.476562"/>
      <use xlink:href="#DejaVuSans-73" x="125"/>
      <use xlink:href="#DejaVuSans-74" x="177.099609"/>
      <use xlink:href="#DejaVuSans-20" x="216.308594"/>
      <use xlink:href="#DejaVuSans-66" x="248.095703"/>
      <use xlink:href="#DejaVuSans-69" x="283.300781"/>
      <use xlink:href="#DejaVuSans-74" x="311.083984"/>
      <use xlink:href="#DejaVuSans-6e" x="350.292969"/>
      <use xlink:href="#DejaVuSans-65" x="413.671875"/>
      <use xlink:href="#DejaVuSans-73" x="475.195312"/>
      <use xlink:href="#DejaVuSans-73" x="527.294922"/>
      <use xlink:href="#DejaVuSans-20" x="579.394531"/>
      <use xlink:href="#DejaVuSans-6f" x="611.181641"/>
      <use xlink:href="#DejaVuSans-66" x="672.363281"/>
      <use xlink:href="#DejaVuSans-20" x="707.568359"/>
      <use xlink:href="#DejaVuSans-73" x="739.355469"/>
      <use xlink:href="#DejaVuSans-77" x="791.455078"/>
      <use xlink:href="#DejaVuSans-61" x="873.242188"/>
      <use xlink:href="#DejaVuSans-72" x="934.521484"/>
      <use xlink:href="#DejaVuSans-6d" x="973.884766"/>
     </g>
    </g>
   </g>
   <g id="line2d_12">
    <path d="M 73.832727 295.488 
L 74.110923 295.402304 
L 74.180472 295.230912 
L 74.528217 285.46156 
L 74.667315 285.290168 
L 74.945511 285.375864 
L 75.01506 278.348786 
L 75.084609 278.862963 
L 75.293255 277.234738 
L 75.362804 276.977649 
L 75.501902 275.8636 
L 75.571451 275.520816 
L 75.641 275.606512 
L 75.780098 276.034993 
L 75.988745 273.03563 
L 76.058294 273.03563 
L 76.33649 272.007277 
L 76.406039 272.007277 
L 76.475588 271.493101 
L 76.684235 261.209573 
L 76.753784 261.209573 
L 76.892882 259.667044 
L 77.031979 259.838436 
L 77.171077 259.838436 
L 77.310175 257.010465 
L 77.588371 256.839073 
L 77.727469 255.810721 
L 77.797018 255.810721 
L 77.936116 256.153505 
L 78.144763 256.067809 
L 78.283861 256.753377 
L 78.35341 256.753377 
L 78.492508 251.183133 
L 78.701154 250.926045 
L 78.840252 250.926045 
L 78.97935 250.58326 
L 79.118448 250.58326 
L 79.257546 246.127065 
L 79.535742 233.701135 
L 79.67484 233.701135 
L 79.813938 224.788744 
L 79.883487 224.788744 
L 80.022585 224.360264 
L 80.231232 224.274567 
L 80.439878 224.188871 
L 80.578976 224.188871 
L 80.718074 215.790657 
L 80.787623 215.704961 
L 80.926721 219.389892 
L 80.99627 219.304196 
L 81.135368 218.361539 
L 81.274466 218.190147 
L 81.344015 218.190147 
L 81.413564 213.391167 
L 81.483113 213.648255 
L 81.622211 213.648255 
L 81.69176 221.189509 
L 81.761309 221.018117 
L 82.109054 220.932421 
L 82.248151 220.589637 
L 82.387249 211.591549 
L 82.526347 210.820285 
L 82.734994 210.905981 
L 83.01319 210.04902 
L 83.360935 210.04902 
L 83.500033 201.479413 
L 83.639131 201.565109 
L 83.778229 201.907894 
L 83.917326 201.907894 
L 83.986875 200.965237 
L 84.195522 192.224238 
L 84.33462 192.224238 
L 84.404169 196.251953 
L 84.473718 196.166257 
L 84.612816 196.166257 
L 84.682365 195.909169 
L 84.751914 196.509041 
L 84.821463 196.251953 
L 85.03011 196.251953 
L 85.169208 192.138542 
L 85.377855 193.595375 
L 85.795148 192.995503 
L 85.864697 193.081199 
L 85.934246 185.19716 
L 86.003795 188.625003 
L 86.073344 188.453611 
L 86.212442 188.625003 
L 86.35154 188.625003 
L 86.421089 187.59665 
L 86.560187 182.454886 
L 86.629736 182.797671 
L 86.768834 179.455524 
L 86.838383 179.455524 
L 86.977481 178.769955 
L 87.116579 186.653994 
L 87.255677 186.653994 
L 87.325226 186.482601 
L 87.394774 185.797033 
L 87.533872 188.025131 
L 87.603421 188.025131 
L 87.742519 185.025768 
L 87.951166 185.111464 
L 88.159813 180.312485 
L 88.229362 179.54122 
L 88.298911 179.9697 
L 88.36846 183.140455 
L 88.438009 182.969063 
L 88.507558 182.112102 
L 88.646656 177.056034 
L 88.785754 177.14173 
L 88.924852 173.542495 
L 88.994401 181.340837 
L 89.06395 180.912357 
L 89.133498 180.912357 
L 89.342145 187.853739 
L 89.411694 187.682346 
L 89.550792 187.853739 
L 89.68989 191.710062 
L 89.759439 191.710062 
L 89.898537 192.567022 
L 90.037635 201.650806 
L 90.107184 201.222325 
L 90.176733 201.736502 
L 90.315831 195.994865 
L 90.454929 201.736502 
L 90.872222 201.393717 
L 90.941771 201.479413 
L 91.01132 201.308021 
L 91.150418 200.536757 
L 91.289516 200.536757 
L 91.359065 196.594738 
L 91.428614 196.680434 
L 91.498163 195.823473 
L 91.637261 200.879541 
L 91.70681 199.679796 
L 91.845908 202.764854 
L 91.985006 202.250678 
L 92.054555 202.250678 
L 92.193653 199.251316 
L 92.263202 199.251316 
L 92.4023 198.394355 
L 92.471849 198.394355 
L 92.610946 198.908531 
L 92.680495 198.480051 
L 92.889142 188.796395 
L 93.02824 186.996778 
L 93.097789 189.99614 
L 93.167338 188.967787 
L 93.306436 186.225513 
L 93.445534 185.19716 
L 93.793279 197.451698 
L 93.862828 197.19461 
L 93.932377 194.452336 
L 94.001926 194.880816 
L 94.071475 194.966512 
L 94.210573 193.423983 
L 94.280122 193.423983 
L 94.34967 193.766767 
L 94.488768 176.456162 
L 94.558317 176.71325 
L 94.697415 176.71325 
L 94.836513 177.398818 
L 94.975611 177.398818 
L 95.04516 182.112102 
L 95.253807 172.428446 
L 95.392905 176.284769 
L 95.462454 176.113377 
L 95.532003 169.0863 
L 95.601552 169.257692 
L 95.671101 169.257692 
L 95.810199 168.914908 
L 95.879748 168.914908 
L 95.949297 169.51478 
L 96.088394 168.057947 
L 96.227492 168.914908 
L 96.297041 168.914908 
L 96.36659 165.744153 
L 96.505688 169.257692 
L 96.575237 169.257692 
L 96.714335 170.714525 
L 96.922982 165.229977 
L 97.06208 164.373016 
L 97.131629 164.373016 
L 97.270727 166.68681 
L 97.409825 166.943898 
L 97.548923 166.858202 
L 97.618472 166.772506 
L 97.75757 166.172633 
L 97.896667 165.915545 
L 97.966216 165.144281 
L 98.105314 160.002516 
L 98.174863 160.173909 
L 98.244412 159.831124 
L 98.38351 154.68936 
L 98.522608 158.117203 
L 98.592157 158.117203 
L 98.731255 158.374291 
L 98.800804 158.374291 
L 98.870353 158.545683 
L 99.079 155.032145 
L 99.148549 155.803409 
L 99.287647 150.747341 
L 99.426745 150.918733 
L 99.635391 143.977352 
L 100.122234 143.977352 
L 100.261332 143.720264 
L 100.330881 144.063048 
L 100.469979 143.80596 
L 100.539528 139.43546 
L 100.609077 139.692548 
L 100.748175 140.378117 
L 100.817724 143.034695 
L 100.887273 142.948999 
L 100.956822 143.377479 
L 101.026371 139.606852 
L 101.09592 141.577862 
L 101.304566 141.663558 
L 101.374115 147.747979 
L 101.443664 147.490891 
L 101.582762 147.405194 
L 101.652311 147.319498 
L 101.791409 144.148744 
L 101.860958 144.148744 
L 101.930507 143.977352 
L 102.069605 145.262793 
L 102.347801 145.091401 
L 102.486899 149.119116 
L 102.556448 149.119116 
L 102.625997 148.862028 
L 102.765095 145.605577 
L 102.834644 145.862665 
L 102.904193 142.434823 
L 103.04329 150.747341 
L 103.182388 150.918733 
L 103.321486 150.490253 
L 103.391035 151.347214 
L 103.73878 136.864578 
L 103.808329 137.03597 
L 103.877878 140.463813 
L 104.016976 137.464451 
L 104.156074 138.064323 
L 104.295172 138.749892 
L 104.503819 137.978627 
L 104.642917 137.892931 
L 104.712466 138.407107 
L 104.851563 132.922559 
L 105.06021 140.035333 
L 105.129759 140.035333 
L 105.268857 136.436098 
L 105.407955 139.778244 
L 105.547053 140.635205 
L 105.686151 140.720901 
L 106.103445 139.00698 
L 106.172994 139.00698 
L 106.242543 140.720901 
L 106.381641 136.17901 
L 106.45119 136.264706 
L 106.590287 135.664833 
L 106.659836 135.836225 
L 106.729385 135.322049 
L 106.798934 138.235715 
L 106.868483 137.550147 
L 106.938032 137.550147 
L 107.07713 137.03597 
L 107.146679 140.720901 
L 107.216228 140.635205 
L 107.355326 140.635205 
L 107.424875 136.60749 
L 107.563973 149.976077 
L 107.703071 149.718988 
L 107.911718 148.776332 
L 107.981267 148.604939 
L 108.189914 151.689998 
L 108.39856 151.775694 
L 108.607207 158.545683 
L 108.676756 155.117841 
L 108.815854 167.458074 
L 108.885403 167.458074 
L 108.954952 170.714525 
L 109.09405 167.54377 
L 109.302697 167.458074 
L 109.372246 165.658457 
L 109.511344 170.286045 
L 109.580893 170.286045 
L 109.650442 169.600476 
L 109.719991 170.286045 
L 109.78954 168.143643 
L 109.928638 159.745428 
L 109.998186 159.745428 
L 110.206833 164.030232 
L 110.345931 164.544408 
L 110.485029 163.601751 
L 110.554578 163.601751 
L 110.624127 163.944536 
L 110.763225 167.372378 
L 110.832774 167.372378 
L 110.902323 166.772506 
L 111.041421 167.200986 
L 111.11097 167.200986 
L 111.250068 169.0863 
L 111.389166 168.143643 
L 111.528264 171.057309 
L 111.806459 173.028319 
L 111.876008 173.028319 
L 111.945557 173.456799 
L 112.084655 178.598563 
L 112.223753 174.485152 
L 112.362851 181.255141 
L 112.4324 181.169445 
L 112.501949 181.597926 
L 112.641047 181.169445 
L 112.780145 175.770593 
L 112.849694 183.568935 
L 112.919243 183.140455 
L 112.988792 186.225513 
L 113.058341 186.139817 
L 113.266988 167.029594 
L 113.545183 168.400731 
L 113.684281 168.400731 
L 113.823379 167.629467 
L 113.962477 167.629467 
L 114.032026 168.057947 
L 114.240673 155.717713 
L 114.310222 155.803409 
L 114.44932 159.91682 
L 114.588418 160.088213 
L 114.727516 160.088213 
L 115.005712 151.347214 
L 115.075261 141.149382 
L 115.14481 144.23444 
L 115.283907 143.977352 
L 115.353456 143.977352 
L 115.423005 143.80596 
L 115.492554 143.891656 
L 115.631652 142.349126 
L 115.77075 142.606215 
L 115.840299 141.83495 
L 115.909848 134.807872 
L 115.979397 138.921284 
L 116.048946 139.178372 
L 116.188044 147.405194 
L 116.257593 143.034695 
L 116.327142 143.291783 
L 116.46624 143.291783 
L 116.605338 141.063685 
L 116.744436 149.290508 
L 116.813985 149.290508 
L 117.022631 148.604939 
L 117.231278 142.863303 
L 117.370376 142.863303 
L 117.509474 135.579137 
L 117.648572 134.807872 
L 117.718121 135.579137 
L 117.926768 128.037883 
L 117.996317 127.438011 
L 118.135415 130.523069 
L 118.274513 130.608765 
L 118.344062 130.351677 
L 118.413611 129.494716 
L 118.552709 131.465726 
L 118.622258 131.294334 
L 118.691806 132.065598 
L 118.830904 122.639031 
L 118.900453 122.639031 
L 119.039551 127.095226 
L 119.1091 127.095226 
L 119.248198 115.954738 
L 119.456845 137.207362 
L 119.526394 137.207362 
L 119.595943 137.03597 
L 119.80459 125.895481 
L 119.874139 126.238266 
L 119.943688 125.809785 
L 120.082786 128.894844 
L 120.221884 128.637756 
L 120.291433 128.637756 
L 120.360982 130.608765 
L 120.569628 145.605577 
L 120.639177 145.605577 
L 120.778275 142.26343 
L 120.847824 146.462538 
L 120.917373 145.519881 
L 121.056471 145.519881 
L 121.265118 151.689998 
L 121.404216 148.519243 
L 121.612863 148.433547 
L 121.751961 142.691911 
L 121.82151 143.034695 
L 121.891059 142.948999 
L 122.030157 139.778244 
L 122.169254 139.86394 
L 122.308352 136.093313 
L 122.44745 136.264706 
L 122.586548 139.692548 
L 122.656097 139.692548 
L 122.795195 138.921284 
L 122.864744 139.00698 
L 122.934293 138.749892 
L 123.073391 134.293696 
L 123.14294 134.550784 
L 123.351587 131.551422 
L 123.490685 131.465726 
L 123.629783 131.208638 
L 123.699332 127.095226 
L 123.768881 128.123579 
L 123.83843 128.123579 
L 123.907978 128.809148 
L 124.047076 124.781433 
L 124.394821 124.524344 
L 124.533919 124.524344 
L 124.673017 121.439286 
L 124.742566 121.096502 
L 124.881664 112.098414 
L 124.951213 112.098414 
L 125.090311 106.185386 
L 125.298958 110.812973 
L 125.368507 110.213101 
L 125.507605 108.670572 
L 125.646703 109.184748 
L 125.7858 102.414759 
L 125.855349 102.329063 
L 126.063996 108.327787 
L 126.203094 108.413484 
L 126.342192 107.813611 
L 126.48129 107.899307 
L 126.550839 107.985003 
L 126.620388 103.7002 
L 126.689937 104.55716 
L 126.759486 108.49918 
L 126.829035 104.471464 
L 126.898584 107.556523 
L 126.968133 106.613866 
L 127.037682 106.613866 
L 127.17678 109.099052 
L 127.246329 109.270444 
L 127.315878 109.184748 
L 127.385427 112.612591 
L 127.454975 112.184111 
L 127.524524 109.35614 
L 127.594073 110.213101 
L 127.733171 109.613228 
L 127.872269 110.555885 
L 127.941818 109.870317 
L 128.150465 105.157033 
L 128.289563 105.071337 
L 128.428661 104.642857 
L 128.567759 104.814249 
L 128.706857 109.099052 
L 128.845955 104.728553 
L 128.915504 105.585513 
L 128.985053 105.499817 
L 129.124151 108.92766 
L 129.193699 108.92766 
L 129.332797 113.898032 
L 129.402346 113.898032 
L 129.471895 106.09969 
L 129.541444 107.899307 
L 129.680542 107.899307 
L 129.889189 108.327787 
L 129.958738 108.327787 
L 130.167385 109.784621 
L 130.376032 107.385131 
L 130.51513 108.49918 
L 130.793326 108.413484 
L 130.862875 107.470827 
L 130.932423 115.097777 
L 131.001972 111.155758 
L 131.071521 111.155758 
L 131.210619 115.869041 
L 131.280168 115.783345 
L 131.419266 110.812973 
L 131.488815 110.812973 
L 131.627913 109.613228 
L 131.697462 109.870317 
L 131.767011 110.213101 
L 131.906109 109.441836 
L 131.975658 109.441836 
L 132.114756 101.043622 
L 132.184305 103.014631 
L 132.323403 102.329063 
L 132.53205 102.414759 
L 132.671147 102.757543 
L 132.810245 104.728553 
L 133.018892 104.814249 
L 133.227539 97.530083 
L 133.297088 97.530083 
L 133.436186 104.642857 
L 133.505735 104.55716 
L 133.783931 104.55716 
L 133.923029 110.812973 
L 133.992578 110.89867 
L 134.062127 110.727277 
L 134.131676 111.75563 
L 134.201225 107.642219 
L 134.270774 109.613228 
L 134.409871 109.613228 
L 134.47942 109.784621 
L 134.618518 109.613228 
L 134.688067 109.613228 
L 134.896714 110.041709 
L 134.966263 109.698925 
L 135.105361 110.041709 
L 135.17491 115.954738 
L 135.244459 114.412208 
L 135.314008 114.412208 
L 135.453106 120.839413 
L 135.592204 120.925109 
L 135.8704 122.124854 
L 136.009498 119.811061 
L 136.079047 119.811061 
L 136.148595 124.095864 
L 136.218144 122.553335 
L 136.287693 122.553335 
L 136.426791 121.182198 
L 136.565889 121.35359 
L 136.704987 120.582325 
L 136.844085 125.552697 
L 136.913634 125.552697 
L 136.983183 125.209913 
L 137.122281 125.467001 
L 137.19183 125.295609 
L 137.330928 125.638393 
L 137.470026 124.952825 
L 137.539575 124.952825 
L 137.609124 125.124217 
L 137.678673 123.324599 
L 137.748222 124.18156 
L 137.817771 128.55206 
L 137.887319 126.752442 
L 137.956868 127.00953 
L 138.095966 120.839413 
L 138.165515 120.925109 
L 138.374162 121.439286 
L 138.443711 121.35359 
L 138.51326 121.78207 
L 138.582809 113.212463 
L 138.652358 113.469552 
L 138.721907 114.326512 
L 138.791456 112.955375 
L 138.930554 115.269169 
L 139.000103 115.440561 
L 139.069652 115.183473 
L 139.139201 108.670572 
L 139.20875 112.698287 
L 139.347848 96.844514 
L 139.417397 98.986916 
L 139.486946 102.414759 
L 139.626043 98.301348 
L 139.695592 98.301348 
L 139.765141 99.929573 
L 139.83469 99.586789 
L 140.043337 99.586789 
L 140.112886 99.415396 
L 140.251984 106.613866 
L 140.460631 107.470827 
L 140.53018 107.470827 
L 140.599729 106.870954 
L 140.669278 107.128043 
L 140.808376 108.327787 
L 141.086572 108.49918 
L 141.22567 108.413484 
L 141.364767 107.299435 
L 141.434316 107.299435 
L 141.503865 107.556523 
L 141.573414 110.041709 
L 141.642963 109.870317 
L 141.712512 109.870317 
L 141.85161 109.698925 
L 141.921159 109.698925 
L 142.060257 112.355503 
L 142.199355 107.985003 
L 142.268904 108.242091 
L 142.338453 108.92766 
L 142.477551 107.899307 
L 142.616649 109.184748 
L 142.825296 100.786533 
L 142.894845 100.786533 
L 142.964394 100.529445 
L 143.033943 100.700837 
L 143.242589 111.412846 
L 143.312138 111.412846 
L 143.451236 111.927022 
L 143.520785 112.012718 
L 143.659883 112.612591 
L 143.729432 110.727277 
L 143.798981 111.155758 
L 143.938079 113.640944 
L 144.007628 113.640944 
L 144.077177 114.326512 
L 144.146726 112.355503 
L 144.216275 114.326512 
L 144.56402 99.415396 
L 144.772667 104.300072 
L 144.842215 104.471464 
L 144.911764 104.300072 
L 145.120411 102.414759 
L 145.259509 102.757543 
L 145.329058 102.757543 
L 145.468156 106.013994 
L 145.537705 106.013994 
L 145.676803 110.127405 
L 145.746352 110.127405 
L 145.88545 110.384493 
L 146.024548 110.384493 
L 146.163646 115.183473 
L 146.233195 115.183473 
L 146.441842 122.381943 
L 146.511391 122.21055 
L 146.650488 113.640944 
L 146.720037 113.640944 
L 146.789586 114.840689 
L 146.859135 114.5836 
L 147.067782 114.497904 
L 147.20688 110.984366 
L 147.415527 111.75563 
L 147.554625 115.697649 
L 147.624174 114.926385 
L 147.763272 122.21055 
L 147.90237 120.839413 
L 148.041468 117.154482 
L 148.111017 118.354227 
L 148.180566 118.182835 
L 148.319663 118.182835 
L 148.389212 118.868404 
L 148.597859 102.157671 
L 148.736957 105.328425 
L 148.806506 105.328425 
L 148.945604 100.957926 
L 149.015153 101.643494 
L 149.084702 107.128043 
L 149.154251 107.042346 
L 149.2238 102.757543 
L 149.293349 102.843239 
L 149.362898 102.843239 
L 149.571545 103.271719 
L 149.710643 112.184111 
L 149.849741 106.699562 
L 149.988839 107.556523 
L 150.058387 107.042346 
L 150.127936 107.128043 
L 150.336583 113.469552 
L 150.54523 115.354865 
L 150.684328 114.754993 
L 150.753877 114.5836 
L 150.823426 113.983728 
L 150.962524 106.356778 
L 151.032073 106.356778 
L 151.101622 105.499817 
L 151.171171 111.32715 
L 151.24072 108.070699 
L 151.379818 107.899307 
L 151.449367 105.585513 
L 151.518916 105.756905 
L 151.658014 106.09969 
L 151.727563 106.09969 
L 151.936209 106.785258 
L 152.005758 106.785258 
L 152.075307 110.89867 
L 152.144856 110.727277 
L 152.214405 106.699562 
L 152.353503 118.097139 
L 152.423052 117.068786 
L 152.56215 116.12613 
L 152.631699 116.040434 
L 152.701248 108.242091 
L 152.770797 108.584876 
L 152.840346 108.584876 
L 152.909895 112.012718 
L 153.048993 108.92766 
L 153.188091 107.727915 
L 153.327189 107.128043 
L 153.466287 108.92766 
L 153.605384 109.184748 
L 153.674933 107.727915 
L 153.744482 107.899307 
L 153.814031 107.899307 
L 154.022678 99.158308 
L 154.092227 99.501092 
L 154.161776 98.90122 
L 154.439972 112.012718 
L 154.509521 112.269807 
L 154.57907 109.013356 
L 154.857266 120.496629 
L 155.065913 120.582325 
L 155.205011 119.039796 
L 155.274559 119.639668 
L 155.344108 117.240179 
L 155.483206 120.496629 
L 155.622304 120.496629 
L 155.830951 122.124854 
L 155.9005 121.953462 
L 156.109147 129.323324 
L 156.248245 118.182835 
L 156.317794 118.439923 
L 156.387343 114.240816 
L 156.456892 114.326512 
L 156.526441 113.72664 
L 156.735088 116.040434 
L 156.804637 115.869041 
L 157.22193 125.467001 
L 157.291479 125.467001 
L 157.361028 125.638393 
L 157.500126 126.58105 
L 157.569675 126.58105 
L 157.639224 126.238266 
L 157.778322 122.381943 
L 157.91742 122.553335 
L 157.986969 114.497904 
L 158.056518 114.669296 
L 158.195616 115.440561 
L 158.265165 114.5836 
L 158.334714 116.468914 
L 158.543361 135.921921 
L 158.682459 117.840051 
L 158.752007 122.124854 
L 158.891105 114.069424 
L 158.960654 114.412208 
L 159.030203 117.582963 
L 159.099752 117.325875 
L 159.377948 106.95665 
L 159.586595 106.95665 
L 159.725693 95.987554 
L 159.795242 100.272357 
L 160.073438 100.272357 
L 160.142987 99.929573 
L 160.282085 96.50173 
L 160.421183 96.416034 
L 160.56028 95.559073 
L 160.768927 106.271082 
L 160.838476 99.843877 
L 160.977574 103.957288 
L 161.047123 98.558436 
L 161.116672 99.072612 
L 161.186221 99.415396 
L 161.25577 99.3297 
L 161.325319 94.016544 
L 161.394868 94.187936 
L 161.603515 94.187936 
L 161.742613 93.159583 
L 161.881711 94.616417 
L 162.020809 99.929573 
L 162.159907 100.529445 
L 162.229455 101.814886 
L 162.368553 96.758818 
L 162.716298 110.89867 
L 162.924945 103.957288 
L 162.994494 104.042984 
L 163.133592 109.698925 
L 163.203141 109.698925 
L 163.342239 109.956013 
L 163.481337 107.985003 
L 163.620435 110.555885 
L 163.689984 110.555885 
L 163.829082 111.412846 
L 163.968179 111.070062 
L 164.037728 111.498542 
L 164.107277 110.470189 
L 164.176826 106.95665 
L 164.315924 111.75563 
L 164.455022 111.498542 
L 164.524571 111.498542 
L 164.59412 111.669934 
L 164.733218 110.89867 
L 164.872316 111.412846 
L 164.941865 110.812973 
L 165.011414 108.070699 
L 165.080963 109.013356 
L 165.220061 109.013356 
L 165.359159 96.330338 
L 165.498257 96.330338 
L 165.706903 95.559073 
L 165.776452 95.901858 
L 165.846001 95.816162 
L 165.91555 95.816162 
L 165.985099 95.987554 
L 166.193746 91.617054 
L 166.332844 90.760094 
L 166.402393 90.760094 
L 166.541491 89.988829 
L 166.61104 89.988829 
L 166.819687 80.905046 
L 166.889236 81.504918 
L 167.097883 74.04936 
L 167.167432 72.935311 
L 167.30653 74.992017 
L 167.376079 74.477841 
L 167.515176 78.84834 
L 167.723823 69.850253 
L 167.862921 72.506831 
L 167.93247 69.507469 
L 168.002019 70.364429 
L 168.071568 70.364429 
L 168.210666 74.563537 
L 168.280215 74.563537 
L 168.419313 75.163409 
L 168.488862 75.163409 
L 168.697509 76.963027 
L 168.767058 74.992017 
L 168.906156 80.133781 
L 169.323449 80.219477 
L 169.392998 74.04936 
L 169.462547 74.734929 
L 169.601645 74.649233 
L 169.740743 78.248468 
L 169.810292 73.792272 
L 169.879841 74.220752 
L 169.94939 80.219477 
L 170.088488 74.906321 
L 170.297135 73.792272 
L 170.366684 77.648595 
L 170.575331 70.79291 
L 170.714429 70.878606 
L 170.783978 71.135694 
L 170.853527 70.278733 
L 170.923075 70.450125 
L 171.062173 70.79291 
L 171.131722 70.79291 
L 171.27082 70.535821 
L 171.409918 70.535821 
L 171.479467 70.878606 
L 171.549016 63.680136 
L 171.618565 64.280009 
L 171.757663 69.764557 
L 171.96631 60.595078 
L 172.105408 60.76647 
L 172.174957 60.680774 
L 172.314055 61.794823 
L 172.383604 61.794823 
L 172.453153 58.281284 
L 172.522702 58.538372 
L 172.592251 57.510019 
L 172.661799 58.79546 
L 172.939995 54.510657 
L 173.009544 53.568 
L 173.28774 66.936587 
L 173.357289 66.936587 
L 173.496387 67.107979 
L 173.565936 67.107979 
L 173.705034 68.39342 
L 173.774583 70.964302 
L 173.913681 67.536459 
L 174.052779 71.992655 
L 174.122328 73.106704 
L 174.261426 85.018457 
L 174.330975 84.761369 
L 174.539621 83.475928 
L 174.60917 83.475928 
L 174.678719 85.618329 
L 174.887366 72.935311 
L 174.956915 72.935311 
L 175.096013 71.64987 
L 175.235111 71.64987 
L 175.30466 75.334801 
L 175.374209 74.992017 
L 175.443758 69.850253 
L 175.582856 74.04936 
L 175.652405 74.04936 
L 175.791503 73.792272 
L 175.861052 73.792272 
L 175.930601 73.62088 
L 176.139247 66.079626 
L 176.347894 65.99393 
L 176.417443 66.508106 
L 176.486992 66.165322 
L 176.695639 72.592527 
L 176.765188 74.220752 
L 176.834737 73.363792 
L 177.112933 77.734291 
L 177.182482 74.306448 
L 177.32158 80.133781 
L 177.599776 79.876693 
L 177.669325 75.420497 
L 177.808423 81.162134 
L 177.94752 81.762006 
L 178.086618 87.846427 
L 178.156167 87.846427 
L 178.225716 90.760094 
L 178.295265 86.818074 
L 178.364814 91.531358 
L 178.434363 91.102878 
L 178.503912 87.246555 
L 178.573461 88.531996 
L 178.782108 93.073887 
L 178.851657 93.073887 
L 178.921206 92.302623 
L 178.990755 89.817437 
L 179.060304 90.160221 
L 179.199402 90.160221 
L 179.3385 92.902495 
L 179.408049 92.902495 
L 179.686244 83.304536 
L 179.755793 83.304536 
L 179.894891 85.875418 
L 179.96444 84.589977 
L 180.173087 84.504281 
L 180.242636 88.103515 
L 180.381734 84.332888 
L 180.590381 85.875418 
L 180.729479 90.84579 
L 180.799028 91.188574 
L 180.868577 91.017182 
L 180.938126 91.017182 
L 181.146773 93.67376 
L 181.216322 93.845152 
L 181.285871 90.588701 
L 181.494517 100.786533 
L 181.633615 107.128043 
L 181.703164 107.128043 
L 181.842262 108.49918 
L 181.911811 108.327787 
L 181.98136 109.099052 
L 182.120458 105.756905 
L 182.259556 94.702113 
L 182.398654 94.616417 
L 182.537752 92.131231 
L 182.607301 93.67376 
L 182.67685 97.701475 
L 182.746399 97.530083 
L 182.815948 97.530083 
L 182.885497 97.272995 
L 183.024595 93.159583 
L 183.233241 95.044897 
L 183.30279 94.359328 
L 183.441888 97.872867 
L 183.511437 97.958563 
L 183.580986 98.387044 
L 183.650535 95.301985 
L 183.720084 95.730465 
L 183.928731 95.901858 
L 184.067829 95.559073 
L 184.137378 95.730465 
L 184.276476 104.300072 
L 184.346025 104.214376 
L 184.415574 104.642857 
L 184.554672 107.213739 
L 184.624221 107.213739 
L 184.763319 109.013356 
L 184.832867 109.099052 
L 184.971965 105.671209 
L 185.041514 106.442474 
L 185.111063 106.013994 
L 185.180612 103.357416 
L 185.250161 103.614504 
L 185.389259 103.014631 
L 185.528357 95.987554 
L 185.597906 96.416034 
L 185.806553 95.387681 
L 185.876102 95.301985 
L 186.0152 94.530721 
L 186.154298 95.387681 
L 186.293396 95.044897 
L 186.432494 101.72919 
L 186.571591 100.186661 
L 186.710689 100.015269 
L 186.780238 100.015269 
L 186.849787 104.12868 
L 186.919336 98.044259 
L 186.988885 98.301348 
L 187.058434 98.301348 
L 187.197532 99.501092 
L 187.267081 99.3297 
L 187.33663 99.072612 
L 187.406179 97.358691 
L 187.475728 97.787171 
L 187.614826 96.673122 
L 187.823473 97.958563 
L 187.893022 97.958563 
L 188.101669 96.416034 
L 188.240767 87.503643 
L 188.379864 87.417947 
L 188.727609 88.360604 
L 188.866707 88.360604 
L 188.936256 88.617692 
L 189.005805 89.646045 
L 189.075354 81.24783 
L 189.144903 81.333526 
L 189.214452 81.333526 
L 189.35355 78.762644 
L 189.423099 78.248468 
L 189.562197 78.591252 
L 189.701295 78.591252 
L 189.840393 78.334164 
L 189.909942 78.41986 
L 190.049039 77.734291 
L 190.188137 77.819987 
L 190.257686 77.991379 
L 190.396784 73.706576 
L 190.466333 74.306448 
L 190.535882 70.278733 
L 190.605431 70.535821 
L 190.67498 70.278733 
L 190.744529 78.934036 
L 190.814078 75.763282 
L 190.953176 75.763282 
L 191.092274 75.934674 
L 191.300921 85.618329 
L 191.509568 85.532633 
L 191.718215 92.559711 
L 191.787763 91.188574 
L 191.99641 91.102878 
L 192.135508 87.846427 
L 192.205057 88.017819 
L 192.274606 87.589339 
L 192.344155 83.475928 
L 192.413704 84.161496 
L 192.483253 83.904408 
L 192.552802 85.275545 
L 192.6919 82.790359 
L 192.830998 83.904408 
L 192.970096 83.904408 
L 193.039645 83.561624 
L 193.109194 77.648595 
L 193.248292 84.332888 
L 193.456939 84.418584 
L 193.735134 83.64732 
L 193.943781 99.072612 
L 194.082879 98.129955 
L 194.291526 98.129955 
L 194.430624 102.500455 
L 194.500173 101.643494 
L 194.639271 96.416034 
L 194.70882 96.587426 
L 194.847918 95.644769 
L 194.917467 95.644769 
L 195.056565 97.615779 
L 195.126114 89.817437 
L 195.195663 90.674397 
L 195.265211 90.674397 
L 195.33476 90.331613 
L 195.404309 93.502368 
L 195.473858 91.959838 
L 195.543407 91.959838 
L 195.682505 92.302623 
L 195.752054 92.302623 
L 195.821603 92.902495 
L 196.03025 96.844514 
L 196.099799 96.844514 
L 196.169348 96.416034 
L 196.308446 97.958563 
L 196.447544 98.129955 
L 196.586642 92.302623 
L 196.795289 105.671209 
L 197.143033 93.330976 
L 197.282131 96.587426 
L 197.421229 91.959838 
L 197.560327 91.788446 
L 197.629876 92.216927 
L 197.699425 89.131868 
L 197.838523 91.874142 
L 197.908072 91.874142 
L 198.04717 93.930848 
L 198.186268 93.930848 
L 198.325366 101.986278 
L 198.464464 101.986278 
L 198.603562 94.273632 
L 198.673111 93.67376 
L 198.812208 99.158308 
L 198.881757 99.244004 
L 198.951306 98.90122 
L 199.020855 99.244004 
L 199.090404 95.130593 
L 199.159953 95.473377 
L 199.229502 95.473377 
L 199.3686 97.701475 
L 199.507698 94.787809 
L 199.646796 94.873505 
L 199.855443 94.959201 
L 199.924992 98.729828 
L 200.06409 95.901858 
L 200.133639 96.673122 
L 200.203188 96.416034 
L 200.272737 91.959838 
L 200.411835 99.244004 
L 200.620481 99.3297 
L 200.898677 104.55716 
L 200.968226 105.414121 
L 201.107324 103.357416 
L 201.246422 103.357416 
L 201.455069 95.044897 
L 201.524618 97.187299 
L 201.594167 96.673122 
L 201.733265 92.559711 
L 201.802814 92.559711 
L 201.941912 92.388319 
L 202.011461 92.731103 
L 202.08101 95.301985 
L 202.150559 94.959201 
L 202.289656 94.959201 
L 202.359205 98.387044 
L 202.428754 97.958563 
L 202.567852 95.644769 
L 202.70695 95.816162 
L 202.846048 95.387681 
L 202.915597 95.387681 
L 203.124244 102.414759 
L 203.263342 102.757543 
L 203.40244 103.614504 
L 203.471989 103.614504 
L 203.541538 103.357416 
L 203.680636 103.528808 
L 203.750185 103.357416 
L 203.889283 99.501092 
L 203.958832 100.272357 
L 204.02838 103.785896 
L 204.097929 103.186023 
L 204.167478 99.158308 
L 204.237027 99.758181 
L 204.445674 99.758181 
L 204.584772 107.385131 
L 204.654321 107.470827 
L 204.72387 97.872867 
L 204.793419 97.958563 
L 204.862968 97.615779 
L 204.932517 97.701475 
L 205.071615 94.10224 
L 205.141164 94.10224 
L 205.280262 90.417309 
L 205.488909 90.074525 
L 205.558458 90.074525 
L 205.628007 90.588701 
L 205.697556 87.417947 
L 205.836653 91.788446 
L 205.975751 86.732378 
L 206.114849 86.560986 
L 206.323496 109.35614 
L 206.393045 109.35614 
L 206.74079 107.299435 
L 206.879888 102.928935 
L 207.018986 102.928935 
L 207.088535 103.357416 
L 207.227633 106.271082 
L 207.297182 106.870954 
L 207.366731 101.814886 
L 207.43628 102.157671 
L 207.505828 102.157671 
L 207.575377 103.186023 
L 207.644926 103.100327 
L 207.714475 95.301985 
L 207.784024 95.559073 
L 207.853573 95.559073 
L 207.992671 95.987554 
L 208.06222 95.987554 
L 208.201318 95.816162 
L 208.270867 96.587426 
L 208.340416 99.672485 
L 208.618612 92.302623 
L 208.688161 92.902495 
L 208.75771 89.988829 
L 208.827259 92.474015 
L 208.966357 87.503643 
L 209.035906 87.589339 
L 209.105455 87.246555 
L 209.175004 87.503643 
L 209.314101 84.589977 
L 209.38365 85.532633 
L 209.453199 85.104153 
L 209.592297 85.104153 
L 209.661846 77.305811 
L 209.800944 83.733016 
L 209.870493 84.332888 
L 209.940042 84.0758 
L 210.07914 84.0758 
L 210.218238 92.302623 
L 210.287787 93.330976 
L 210.426885 87.932123 
L 210.496434 90.84579 
L 210.565983 90.674397 
L 210.705081 90.674397 
L 210.77463 93.502368 
L 210.983276 89.731741 
L 211.122374 91.017182 
L 211.191923 90.417309 
L 211.261472 90.503005 
L 211.331021 91.017182 
L 211.40057 90.074525 
L 211.470119 90.588701 
L 211.539668 90.588701 
L 211.678766 91.27427 
L 211.748315 91.188574 
L 211.817864 88.703388 
L 211.956962 93.759456 
L 212.026511 93.759456 
L 212.09606 94.016544 
L 212.165609 93.588064 
L 212.304707 109.613228 
L 212.374256 109.099052 
L 212.443805 111.584238 
L 212.513354 111.412846 
L 212.652452 111.241454 
L 212.791549 111.927022 
L 212.861098 116.211826 
L 212.930647 113.212463 
L 213.069745 117.668659 
L 213.139294 117.925747 
L 213.278392 117.668659 
L 213.41749 113.898032 
L 213.487039 114.497904 
L 213.626137 111.498542 
L 213.695686 111.070062 
L 213.765235 111.498542 
L 213.904333 108.584876 
L 213.973882 108.584876 
L 214.11298 109.099052 
L 214.182529 113.041071 
L 214.252078 112.955375 
L 214.391176 107.470827 
L 214.530273 107.213739 
L 214.669371 110.812973 
L 214.73892 110.812973 
L 214.808469 114.15512 
L 214.878018 114.069424 
L 214.947567 114.069424 
L 215.086665 115.097777 
L 215.156214 114.840689 
L 215.295312 113.983728 
L 215.364861 113.72664 
L 215.573508 105.499817 
L 215.643057 105.756905 
L 215.851704 105.756905 
L 215.990802 110.470189 
L 216.060351 110.470189 
L 216.408095 111.584238 
L 216.477644 113.812336 
L 216.547193 113.555248 
L 216.616742 107.899307 
L 216.686291 110.89867 
L 216.894938 110.298797 
L 216.964487 110.470189 
L 217.034036 105.071337 
L 217.103585 105.157033 
L 217.173134 105.585513 
L 217.312232 108.92766 
L 217.381781 109.35614 
L 217.45133 108.92766 
L 217.520879 105.328425 
L 217.590428 107.299435 
L 217.659977 107.299435 
L 217.729526 103.271719 
L 217.799075 103.871592 
L 217.938172 104.042984 
L 218.07727 103.957288 
L 218.146819 104.985641 
L 218.216368 104.642857 
L 218.285917 104.55716 
L 218.355466 104.728553 
L 218.564113 99.501092 
L 218.633662 99.843877 
L 218.703211 105.414121 
L 218.77276 104.728553 
L 218.911858 98.47274 
L 219.050956 98.387044 
L 219.120505 97.787171 
L 219.190054 97.872867 
L 219.329152 97.872867 
L 219.398701 98.215651 
L 219.537799 106.09969 
L 219.676896 106.699562 
L 219.746445 107.128043 
L 219.955092 98.215651 
L 220.09419 98.301348 
L 220.233288 102.500455 
L 220.372386 93.416672 
L 220.511484 93.930848 
L 220.650582 98.387044 
L 220.720131 96.758818 
L 220.859229 101.900582 
L 220.998327 101.643494 
L 221.137425 106.185386 
L 221.346072 105.928298 
L 221.485169 107.899307 
L 221.554718 107.899307 
L 221.693816 105.842601 
L 221.763365 107.213739 
L 221.832914 102.157671 
L 221.902463 102.671847 
L 221.972012 102.757543 
L 222.041561 98.387044 
L 222.180659 104.55716 
L 222.250208 104.55716 
L 222.389306 105.071337 
L 222.458855 104.214376 
L 222.597953 106.870954 
L 222.737051 107.727915 
L 222.876149 116.468914 
L 223.084796 116.468914 
L 223.223893 112.012718 
L 223.362991 120.153845 
L 223.502089 121.096502 
L 223.641187 120.153845 
L 223.780285 120.582325 
L 223.919383 116.640306 
L 224.058481 116.811698 
L 224.197579 115.954738 
L 224.406226 110.127405 
L 224.475775 110.127405 
L 224.545324 111.927022 
L 224.684422 107.642219 
L 224.82352 107.642219 
L 224.962617 108.327787 
L 225.240813 91.959838 
L 225.310362 92.131231 
L 225.44946 97.958563 
L 225.519009 97.958563 
L 225.727656 88.103515 
L 225.936303 86.989467 
L 226.005852 86.989467 
L 226.14495 85.532633 
L 226.562244 85.875418 
L 226.631792 85.532633 
L 226.840439 87.675035 
L 226.979537 88.274908 
L 227.049086 87.675035 
L 227.118635 92.045535 
L 227.188184 91.617054 
L 227.327282 91.70275 
L 227.396831 90.674397 
L 227.46638 92.559711 
L 227.605478 87.503643 
L 227.953223 87.503643 
L 228.022772 87.846427 
L 228.16187 91.959838 
L 228.231419 91.788446 
L 228.300968 90.245917 
L 228.440065 94.359328 
L 228.579163 92.474015 
L 228.718261 92.474015 
L 228.78781 92.645407 
L 228.857359 92.045535 
L 229.066006 95.216289 
L 229.274653 94.702113 
L 229.344202 94.702113 
L 229.4833 101.643494 
L 229.552849 102.414759 
L 229.761496 99.158308 
L 229.831045 99.758181 
L 229.970143 103.014631 
L 230.039692 99.501092 
L 230.178789 101.72919 
L 230.248338 101.72919 
L 230.387436 101.557798 
L 230.456985 101.643494 
L 230.596083 106.699562 
L 230.665632 103.443112 
L 230.735181 103.7002 
L 230.874279 101.129318 
L 230.943828 106.52817 
L 231.013377 105.756905 
L 231.152475 97.101603 
L 231.291573 97.187299 
L 231.361122 97.272995 
L 231.50022 98.644132 
L 231.569769 98.044259 
L 231.639318 94.187936 
L 231.708867 94.616417 
L 231.778416 94.616417 
L 231.987062 90.503005 
L 232.056611 90.503005 
L 232.265258 94.187936 
L 232.334807 94.359328 
L 232.404356 94.016544 
L 232.473905 92.216927 
L 232.613003 96.758818 
L 232.752101 96.673122 
L 232.82165 96.758818 
L 232.960748 104.899945 
L 233.099846 106.013994 
L 233.238944 106.09969 
L 233.447591 117.840051 
L 233.586688 117.668659 
L 233.725786 118.697012 
L 233.795335 118.439923 
L 233.864884 116.468914 
L 233.934433 116.55461 
L 234.003982 116.726002 
L 234.282178 125.038521 
L 234.351727 124.781433 
L 234.490825 124.61004 
L 234.629923 129.494716 
L 234.699472 129.580412 
L 234.769021 131.38003 
L 234.83857 130.437373 
L 234.908119 128.123579 
L 234.977668 128.209275 
L 235.047217 128.637756 
L 235.255864 127.866491 
L 235.325412 134.807872 
L 235.394961 134.63648 
L 235.534059 134.465088 
L 235.742706 132.322687 
L 235.812255 134.550784 
L 236.020902 128.209275 
L 236.16 127.523707 
L 236.299098 124.010168 
L 236.438196 129.066236 
L 236.507745 129.066236 
L 236.646843 121.696374 
L 236.785941 120.925109 
L 236.85549 121.182198 
L 237.064136 132.151294 
L 237.272783 130.865853 
L 237.342332 134.293696 
L 237.411881 132.23699 
L 237.550979 135.921921 
L 237.690077 131.122942 
L 237.829175 130.694461 
L 237.898724 130.608765 
L 237.968273 122.296247 
L 238.037822 123.153207 
L 238.17692 122.981815 
L 238.246469 126.323962 
L 238.316018 126.238266 
L 238.385567 119.639668 
L 238.524665 124.010168 
L 238.594214 124.267256 
L 238.733312 119.211188 
L 238.80286 119.211188 
L 238.872409 120.410933 
L 238.941958 119.982453 
L 239.150605 119.982453 
L 239.359252 118.097139 
L 239.567899 118.182835 
L 239.706997 118.182835 
L 239.776546 118.354227 
L 239.846095 118.268531 
L 239.985193 118.011443 
L 240.054742 118.52562 
L 240.124291 117.925747 
L 240.19384 114.326512 
L 240.263389 114.497904 
L 240.332938 114.669296 
L 240.472036 111.412846 
L 240.541584 111.498542 
L 240.680682 112.184111 
L 240.81978 111.669934 
L 240.889329 113.041071 
L 241.028427 107.128043 
L 241.167525 107.299435 
L 241.306623 107.299435 
L 241.445721 102.928935 
L 241.584819 103.528808 
L 241.723917 96.07325 
L 241.863015 95.901858 
L 242.21076 95.901858 
L 242.419406 104.300072 
L 242.628053 104.814249 
L 242.767151 105.671209 
L 242.906249 106.699562 
L 242.975798 106.95665 
L 243.045347 108.584876 
L 243.114896 101.472102 
L 243.184445 104.985641 
L 243.323543 105.414121 
L 243.393092 104.985641 
L 243.462641 105.242729 
L 243.601739 105.328425 
L 243.671288 104.899945 
L 243.810386 105.328425 
L 243.949484 109.613228 
L 244.019032 109.441836 
L 244.088581 110.298797 
L 244.15813 109.441836 
L 244.227679 109.956013 
L 244.297228 109.956013 
L 244.436326 108.584876 
L 244.505875 112.012718 
L 244.644973 107.213739 
L 244.784071 110.298797 
L 244.923169 103.357416 
L 245.062267 102.757543 
L 245.131816 103.186023 
L 245.270914 102.843239 
L 245.340463 103.271719 
L 245.479561 94.616417 
L 245.618659 96.758818 
L 245.757756 96.758818 
L 245.827305 90.160221 
L 245.896854 90.588701 
L 246.035952 90.931486 
L 246.105501 90.931486 
L 246.244599 85.704026 
L 246.314148 86.646682 
L 246.383697 83.64732 
L 246.453246 84.0758 
L 246.592344 84.247192 
L 246.800991 84.247192 
L 246.87054 79.790997 
L 246.940089 80.048085 
L 247.079187 78.41986 
L 247.218285 78.162772 
L 247.357383 80.562261 
L 247.566029 74.906321 
L 247.705127 74.220752 
L 247.844225 75.506193 
L 247.983323 75.077713 
L 248.052872 71.64987 
L 248.122421 72.164047 
L 248.261519 72.592527 
L 248.400617 69.593165 
L 248.539715 72.421135 
L 248.609264 72.421135 
L 248.88746 70.707214 
L 248.957009 70.707214 
L 249.096107 67.365067 
L 249.235204 70.878606 
L 249.304753 70.878606 
L 249.374302 71.64987 
L 249.443851 68.136332 
L 249.582949 75.848978 
L 249.861145 67.536459 
L 250.000243 73.1924 
L 250.069792 72.678223 
L 250.347988 93.67376 
L 250.417537 92.988191 
L 250.556635 92.988191 
L 250.626184 92.645407 
L 250.695733 92.816799 
L 250.765282 92.559711 
L 250.90438 81.419222 
L 250.973928 81.419222 
L 251.113026 82.361879 
L 251.182575 86.90377 
L 251.252124 86.818074 
L 251.321673 86.732378 
L 251.391222 87.075163 
L 251.53032 90.331613 
L 251.669418 90.160221 
L 251.808516 96.158946 
L 251.878065 95.130593 
L 252.017163 100.358053 
L 252.156261 100.100965 
L 252.295359 97.958563 
L 252.364908 97.272995 
L 252.504006 93.845152 
L 252.573555 93.845152 
L 252.712652 91.359966 
L 252.85175 91.445662 
L 252.990848 90.160221 
L 253.060397 96.416034 
L 253.129946 96.330338 
L 253.269044 96.416034 
L 253.338593 95.816162 
L 253.408142 96.158946 
L 253.477691 96.330338 
L 253.54724 96.158946 
L 253.686338 96.330338 
L 253.825436 97.187299 
L 253.964534 97.187299 
L 254.034083 96.587426 
L 254.24273 97.358691 
L 254.312279 99.586789 
L 254.381828 97.615779 
L 254.451376 98.129955 
L 254.799121 98.215651 
L 255.007768 93.845152 
L 255.077317 94.016544 
L 255.146866 94.016544 
L 255.216415 94.702113 
L 255.285964 87.332251 
L 255.355513 88.4463 
L 255.494611 88.103515 
L 255.56416 81.67631 
L 255.633709 84.504281 
L 255.772807 89.646045 
L 255.842356 89.988829 
L 255.981454 88.87478 
L 256.120552 90.503005 
L 256.1901 89.903133 
L 256.398747 99.3297 
L 256.468296 96.158946 
L 256.537845 96.330338 
L 256.676943 95.301985 
L 256.746492 99.415396 
L 256.816041 92.216927 
L 256.88559 97.015906 
L 256.955139 96.758818 
L 257.094237 96.844514 
L 257.233335 84.247192 
L 257.511531 84.0758 
L 257.58108 83.390232 
L 257.650629 91.531358 
L 257.720178 88.617692 
L 257.859276 88.960476 
L 257.998373 99.672485 
L 258.067922 99.672485 
L 258.137471 99.158308 
L 258.20702 99.758181 
L 258.276569 99.501092 
L 258.415667 99.415396 
L 258.485216 99.158308 
L 258.624314 99.586789 
L 258.693863 99.501092 
L 258.832961 103.7002 
L 258.972059 102.928935 
L 259.041608 108.670572 
L 259.111157 108.242091 
L 259.180706 108.242091 
L 259.458902 106.95665 
L 259.528451 106.95665 
L 259.598 107.385131 
L 259.667548 112.269807 
L 259.737097 111.841326 
L 259.806646 112.012718 
L 259.876195 109.270444 
L 259.945744 109.441836 
L 260.084842 109.527532 
L 260.363038 108.070699 
L 260.432587 107.642219 
L 260.710783 91.102878 
L 260.780332 91.359966 
L 260.849881 91.617054 
L 260.91943 84.332888 
L 260.988979 84.589977 
L 261.058528 84.247192 
L 261.336724 85.704026 
L 261.614919 85.704026 
L 261.684468 85.018457 
L 261.754017 82.961751 
L 261.893115 88.103515 
L 261.962664 88.703388 
L 262.101762 84.932761 
L 262.171311 84.932761 
L 262.24086 81.933399 
L 262.379958 85.446937 
L 262.797252 85.361241 
L 263.005899 89.217564 
L 263.144996 89.388956 
L 263.353643 88.189211 
L 263.492741 83.047447 
L 263.701388 84.418584 
L 263.910035 79.105428 
L 263.979584 79.105428 
L 264.25778 79.876693 
L 264.327329 79.790997 
L 264.396878 79.790997 
L 264.466427 80.476565 
L 264.675074 77.134419 
L 264.744623 77.220115 
L 264.814172 77.220115 
L 264.953269 77.648595 
L 265.022818 77.648595 
L 265.161916 75.163409 
L 265.231465 75.163409 
L 265.370563 74.392145 
L 265.440112 76.363154 
L 265.57921 72.678223 
L 265.718308 72.678223 
L 265.857406 70.450125 
L 266.2747 70.535821 
L 266.413798 70.79291 
L 266.483347 70.193037 
L 266.691993 73.278096 
L 266.761542 73.278096 
L 266.90064 73.963664 
L 267.039738 73.963664 
L 267.178836 71.906959 
L 267.59613 83.304536 
L 267.665679 82.704663 
L 267.735228 82.961751 
L 267.874326 78.762644 
L 268.013424 81.504918 
L 268.082973 79.962389 
L 268.152522 80.81935 
L 268.222071 86.90377 
L 268.29162 85.189849 
L 268.430717 80.733654 
L 268.500266 80.990742 
L 268.569815 80.647957 
L 268.778462 89.817437 
L 268.848011 89.131868 
L 269.056658 83.64732 
L 269.195756 83.64732 
L 269.334854 86.732378 
L 269.404403 86.90377 
L 269.473952 85.875418 
L 269.543501 91.531358 
L 269.61305 86.303898 
L 269.682599 86.989467 
L 269.752148 86.132506 
L 269.960795 91.359966 
L 270.030344 90.931486 
L 270.169441 86.646682 
L 270.23899 86.818074 
L 270.308539 86.389594 
L 270.378088 86.560986 
L 270.447637 86.732378 
L 270.517186 86.303898 
L 270.656284 82.618967 
L 270.725833 82.447575 
L 270.795382 83.047447 
L 270.93448 82.276183 
L 271.004029 82.361879 
L 271.143127 80.905046 
L 271.282225 71.906959 
L 271.351774 72.678223 
L 271.62997 79.790997 
L 271.699519 79.790997 
L 271.838616 76.963027 
L 271.977714 84.761369 
L 272.047263 84.761369 
L 272.186361 84.504281 
L 272.395008 75.420497 
L 272.534106 75.420497 
L 272.673204 83.904408 
L 272.812302 78.84834 
L 272.881851 78.505556 
L 272.9514 78.676948 
L 273.090498 86.389594 
L 273.160047 86.389594 
L 273.368694 87.246555 
L 273.438243 87.246555 
L 273.577341 86.732378 
L 273.785987 87.503643 
L 273.855536 87.503643 
L 273.994634 86.989467 
L 274.133732 87.160859 
L 274.27283 87.846427 
L 274.411928 86.90377 
L 274.481477 86.90377 
L 274.551026 87.075163 
L 274.690124 79.448213 
L 274.759673 80.133781 
L 274.829222 80.133781 
L 274.898771 79.876693 
L 274.96832 87.760731 
L 275.037869 83.475928 
L 275.385613 83.561624 
L 275.59426 87.160859 
L 275.663809 79.448213 
L 275.733358 82.876055 
L 275.802907 83.990104 
L 275.872456 83.733016 
L 275.942005 80.048085 
L 276.081103 84.332888 
L 276.150652 84.247192 
L 276.28975 83.21884 
L 276.359299 75.848978 
L 276.498397 84.0758 
L 276.567946 84.0758 
L 276.637495 84.247192 
L 276.776593 90.674397 
L 276.915691 90.674397 
L 277.054789 89.731741 
L 277.124337 89.731741 
L 277.193886 94.445024 
L 277.263435 94.016544 
L 277.332984 94.016544 
L 277.472082 92.216927 
L 277.541631 92.045535 
L 277.61118 92.131231 
L 277.680729 92.302623 
L 277.819827 92.131231 
L 277.958925 92.559711 
L 278.237121 85.704026 
L 278.376219 89.217564 
L 278.584866 89.217564 
L 278.723964 88.789084 
L 278.793513 88.703388 
L 278.863061 88.87478 
L 278.93261 88.274908 
L 279.071708 84.0758 
L 279.280355 83.990104 
L 279.349904 83.21884 
L 279.6281 75.848978 
L 279.697649 75.677586 
L 279.906296 77.991379 
L 280.045394 71.64987 
L 280.254041 81.67631 
L 280.393139 76.363154 
L 280.462688 76.363154 
L 280.532237 76.791634 
L 280.671334 84.675673 
L 280.740883 84.675673 
L 280.94953 76.620242 
L 281.019079 76.620242 
L 281.158177 76.44885 
L 281.227726 77.734291 
L 281.297275 77.477203 
L 281.436373 77.220115 
L 281.575471 77.220115 
L 281.64502 82.447575 
L 281.714569 82.276183 
L 282.062314 80.048085 
L 282.131863 80.476565 
L 282.201412 80.476565 
L 282.340509 74.563537 
L 282.549156 82.361879 
L 282.757803 73.963664 
L 282.827352 73.963664 
L 282.96645 71.906959 
L 283.035999 72.506831 
L 283.383744 62.994567 
L 283.522842 62.994567 
L 283.66194 66.679498 
L 283.731489 67.622155 
L 284.079233 81.076438 
L 284.218331 81.504918 
L 284.28788 81.419222 
L 284.357429 80.647957 
L 284.496527 81.847702 
L 284.566076 81.333526 
L 284.635625 81.419222 
L 284.705174 82.790359 
L 284.774723 82.704663 
L 284.844272 83.21884 
L 284.98337 82.019095 
L 285.192017 81.076438 
L 285.261566 81.504918 
L 285.331115 78.505556 
L 285.400664 79.962389 
L 285.539762 78.334164 
L 285.67886 79.019732 
L 285.748409 79.019732 
L 285.817957 79.448213 
L 285.887506 78.248468 
L 285.957055 78.334164 
L 286.096153 81.076438 
L 286.165702 81.076438 
L 286.235251 79.790997 
L 286.3048 84.761369 
L 286.374349 84.332888 
L 286.513447 80.133781 
L 286.652545 79.619605 
L 286.722094 80.390869 
L 286.791643 79.876693 
L 286.861192 83.561624 
L 286.930741 83.390232 
L 287.208937 85.189849 
L 287.348035 84.332888 
L 287.487133 84.161496 
L 287.62623 88.189211 
L 287.834877 88.189211 
L 287.973975 87.160859 
L 288.113073 91.959838 
L 288.252171 91.445662 
L 288.32172 91.445662 
L 288.460818 95.044897 
L 288.669465 84.675673 
L 288.808563 89.988829 
L 288.947661 90.417309 
L 289.01721 90.417309 
L 289.156308 89.646045 
L 289.225857 89.817437 
L 289.364954 89.217564 
L 289.504052 93.330976 
L 289.573601 92.902495 
L 289.64315 88.617692 
L 289.712699 89.560349 
L 289.782248 89.731741 
L 289.851797 89.388956 
L 289.921346 89.474652 
L 289.990895 89.474652 
L 290.060444 88.789084 
L 290.129993 89.903133 
L 290.199542 89.388956 
L 290.269091 95.130593 
L 290.33864 94.959201 
L 290.477738 94.702113 
L 290.547287 94.702113 
L 290.825483 93.930848 
L 290.895032 95.559073 
L 290.964581 91.27427 
L 291.034129 98.644132 
L 291.173227 93.159583 
L 291.242776 94.10224 
L 291.312325 93.588064 
L 291.381874 94.016544 
L 291.451423 93.588064 
L 291.590521 95.044897 
L 291.66007 99.586789 
L 291.729619 99.158308 
L 291.938266 92.388319 
L 292.007815 91.70275 
L 292.077364 91.788446 
L 292.146913 91.788446 
L 292.286011 92.645407 
L 292.425109 92.902495 
L 292.703305 85.789722 
L 292.772853 85.446937 
L 292.911951 94.273632 
L 292.9815 93.930848 
L 293.190147 87.417947 
L 293.329245 94.359328 
L 293.398794 93.67376 
L 293.67699 106.185386 
L 293.746539 106.271082 
L 293.885637 106.699562 
L 293.955186 106.785258 
L 294.024735 106.613866 
L 294.302931 107.385131 
L 294.442029 107.385131 
L 294.650675 101.043622 
L 294.928871 101.043622 
L 294.99842 101.215014 
L 295.137518 105.928298 
L 295.346165 91.788446 
L 295.485263 91.531358 
L 295.554812 91.617054 
L 295.69391 88.360604 
L 295.763459 88.531996 
L 295.902557 87.417947 
L 295.972106 88.789084 
L 296.041655 88.4463 
L 296.111204 88.017819 
L 296.180753 84.932761 
L 296.250301 92.559711 
L 296.31985 92.131231 
L 296.458948 92.131231 
L 296.528497 83.733016 
L 296.598046 84.247192 
L 296.667595 84.418584 
L 296.737144 85.018457 
L 296.876242 93.330976 
L 296.945791 93.330976 
L 297.084889 86.47529 
L 297.223987 93.502368 
L 297.293536 93.67376 
L 297.432634 93.502368 
L 297.571732 90.245917 
L 297.641281 90.245917 
L 297.780379 89.988829 
L 297.849928 91.359966 
L 297.919477 90.331613 
L 298.128123 98.387044 
L 298.267221 97.530083 
L 298.406319 97.358691 
L 298.545417 97.872867 
L 298.684515 101.129318 
L 298.754064 101.557798 
L 298.823613 100.529445 
L 298.893162 101.043622 
L 299.03226 101.814886 
L 299.101809 101.814886 
L 299.240907 102.671847 
L 299.310456 102.757543 
L 299.449554 101.215014 
L 299.519103 101.215014 
L 299.658201 100.786533 
L 299.727749 104.899945 
L 299.797298 104.814249 
L 299.866847 99.672485 
L 299.936396 102.671847 
L 300.145043 102.671847 
L 300.284141 101.814886 
L 300.423239 101.72919 
L 300.492788 102.329063 
L 300.631886 105.242729 
L 300.701435 105.414121 
L 300.840533 110.213101 
L 301.04918 110.641581 
L 301.327376 110.727277 
L 301.466473 105.756905 
L 301.605571 106.442474 
L 301.67512 106.442474 
L 301.814218 102.329063 
L 302.022865 101.386406 
L 302.092414 101.557798 
L 302.161963 101.215014 
L 302.231512 101.30071 
L 302.37061 97.015906 
L 302.440159 100.272357 
L 302.509708 100.100965 
L 302.648806 97.015906 
L 302.787904 97.701475 
L 302.996551 95.559073 
L 303.135649 95.559073 
L 303.413844 88.960476 
L 303.483393 89.131868 
L 303.552942 88.87478 
L 303.69204 89.046172 
L 303.761589 88.4463 
L 303.900687 94.702113 
L 304.109334 87.246555 
L 304.248432 87.932123 
L 304.38753 87.589339 
L 304.596177 87.503643 
L 304.665726 87.417947 
L 304.874373 96.416034 
L 305.222117 90.588701 
L 305.291666 94.016544 
L 305.361215 90.245917 
L 305.430764 91.531358 
L 305.500313 91.531358 
L 305.569862 90.588701 
L 305.70896 91.27427 
L 305.778509 91.27427 
L 305.917607 91.445662 
L 305.987156 91.445662 
L 306.056705 91.017182 
L 306.126254 91.617054 
L 306.195803 91.27427 
L 306.473999 83.047447 
L 306.543548 83.304536 
L 306.682645 82.361879 
L 306.752194 82.361879 
L 306.891292 86.818074 
L 306.960841 86.132506 
L 307.03039 87.417947 
L 307.169488 94.445024 
L 307.239037 95.216289 
L 307.447684 90.331613 
L 307.586782 90.503005 
L 307.72588 90.674397 
L 307.795429 85.275545 
L 307.864978 85.618329 
L 308.004076 85.018457 
L 308.143174 92.645407 
L 308.212723 92.645407 
L 308.282272 97.444387 
L 308.351821 96.844514 
L 308.490918 94.959201 
L 308.560467 94.359328 
L 308.630016 92.731103 
L 308.699565 97.187299 
L 308.769114 96.758818 
L 308.838663 96.758818 
L 308.908212 97.015906 
L 309.04731 102.586151 
L 309.116859 103.357416 
L 309.186408 103.271719 
L 309.395055 86.303898 
L 309.464604 87.075163 
L 309.603702 86.303898 
L 309.673251 86.47529 
L 309.7428 86.389594 
L 309.951447 85.361241 
L 310.020996 90.245917 
L 310.090545 89.646045 
L 310.438289 89.30326 
L 310.507838 91.102878 
L 310.646936 87.246555 
L 310.786034 86.646682 
L 310.925132 83.904408 
L 310.994681 84.504281 
L 311.06423 83.904408 
L 311.203328 84.589977 
L 311.272877 88.103515 
L 311.411975 85.104153 
L 311.620622 83.904408 
L 311.690171 83.904408 
L 311.75972 86.389594 
L 311.898817 83.390232 
L 311.968366 83.390232 
L 312.037915 90.674397 
L 312.107464 89.046172 
L 312.177013 86.47529 
L 312.246562 86.560986 
L 312.316111 86.47529 
L 312.455209 76.963027 
L 312.594307 81.162134 
L 312.733405 76.620242 
L 312.802954 81.504918 
L 312.872503 81.333526 
L 312.942052 80.81935 
L 313.011601 80.905046 
L 313.08115 77.562899 
L 313.289797 82.104791 
L 313.359346 82.104791 
L 313.428895 85.361241 
L 313.498444 84.589977 
L 313.567993 83.64732 
L 313.637541 84.589977 
L 313.70709 82.361879 
L 313.846188 85.104153 
L 313.915737 85.104153 
L 313.985286 84.247192 
L 314.054835 85.189849 
L 314.124384 84.847065 
L 314.193933 84.761369 
L 314.263482 89.474652 
L 314.333031 89.388956 
L 314.541678 89.217564 
L 314.680776 86.389594 
L 314.750325 86.303898 
L 314.819874 86.560986 
L 314.958972 85.618329 
L 315.028521 85.704026 
L 315.167619 85.104153 
L 315.376265 89.388956 
L 315.515363 88.703388 
L 315.584912 88.4463 
L 315.72401 97.358691 
L 315.793559 93.930848 
L 315.932657 100.786533 
L 316.071755 94.702113 
L 316.141304 95.816162 
L 316.280402 94.702113 
L 316.349951 94.702113 
L 316.628147 95.473377 
L 316.767245 95.473377 
L 316.836794 95.901858 
L 316.906343 95.816162 
L 317.045441 94.787809 
L 317.254087 86.90377 
L 317.323636 87.246555 
L 317.393185 80.219477 
L 317.462734 82.447575 
L 317.74093 83.733016 
L 317.810479 85.704026 
L 317.880028 85.618329 
L 317.949577 84.847065 
L 318.019126 85.104153 
L 318.158224 81.333526 
L 318.297322 84.0758 
L 318.366871 84.0758 
L 318.505969 87.503643 
L 318.575518 87.675035 
L 318.645067 88.189211 
L 318.714616 86.218202 
L 318.784165 86.303898 
L 318.853713 86.303898 
L 319.06236 88.531996 
L 319.201458 88.531996 
L 319.271007 94.187936 
L 319.340556 92.216927 
L 319.410105 92.388319 
L 319.479654 83.733016 
L 319.549203 83.904408 
L 319.688301 84.0758 
L 319.827399 84.0758 
L 319.896948 88.4463 
L 319.966497 87.332251 
L 320.036046 86.303898 
L 320.105595 75.163409 
L 320.175144 75.420497 
L 320.244693 75.763282 
L 320.314242 72.506831 
L 320.383791 72.678223 
L 320.522889 72.421135 
L 320.801084 72.506831 
L 320.940182 74.04936 
L 321.07928 73.963664 
L 321.218378 74.992017 
L 321.287927 74.734929 
L 321.357476 75.420497 
L 321.427025 74.392145 
L 321.566123 67.879243 
L 321.705221 78.505556 
L 321.77477 78.505556 
L 321.844319 79.105428 
L 321.913868 81.504918 
L 321.983417 80.733654 
L 322.122515 80.733654 
L 322.261613 81.162134 
L 322.40071 82.876055 
L 322.470259 82.447575 
L 322.609357 86.303898 
L 322.678906 86.303898 
L 322.748455 85.532633 
L 322.887553 77.905683 
L 322.957102 77.905683 
L 323.0962 75.848978 
L 323.165749 76.02037 
L 323.304847 78.762644 
L 323.443945 73.278096 
L 323.513494 72.763919 
L 323.652592 73.963664 
L 323.722141 67.964939 
L 323.79169 68.050635 
L 323.861239 67.193675 
L 324.000337 69.507469 
L 324.069885 69.507469 
L 324.139434 67.964939 
L 324.208983 68.222028 
L 324.41763 68.222028 
L 324.487179 72.421135 
L 324.556728 70.364429 
L 324.695826 70.021645 
L 324.765375 74.563537 
L 324.834924 74.392145 
L 324.904473 74.477841 
L 324.974022 71.307086 
L 325.043571 71.821262 
L 325.11312 71.821262 
L 325.252218 70.878606 
L 325.321767 71.049998 
L 325.460865 72.078351 
L 325.530414 72.078351 
L 325.739061 71.735566 
L 325.808609 71.735566 
L 326.017256 78.762644 
L 326.086805 78.934036 
L 326.156354 79.448213 
L 326.225903 78.84834 
L 326.365001 73.706576 
L 326.43455 73.963664 
L 326.573648 75.591889 
L 326.643197 73.449488 
L 326.712746 75.934674 
L 326.921393 66.079626 
L 326.990942 65.651146 
L 327.338687 76.791634 
L 327.408236 77.391507 
L 327.477785 70.878606 
L 327.547333 70.964302 
L 327.825529 71.564174 
L 327.964627 71.478478 
L 328.034176 73.278096 
L 328.242823 67.793547 
L 328.312372 65.479753 
L 328.45147 71.735566 
L 328.590568 72.849615 
L 328.729666 67.707851 
L 328.799215 72.249743 
L 328.868764 71.564174 
L 328.938313 71.564174 
L 329.007862 70.707214 
L 329.077411 70.878606 
L 329.216509 74.992017 
L 329.355606 74.992017 
L 329.425155 75.163409 
L 329.494704 74.649233 
L 329.633802 64.622793 
L 329.7729 78.762644 
L 329.842449 78.505556 
L 329.911998 78.505556 
L 330.051096 78.84834 
L 330.190194 69.850253 
L 330.259743 70.878606 
L 330.329292 70.878606 
L 330.46839 70.364429 
L 330.537939 70.193037 
L 330.607488 69.25038 
L 330.677037 69.336077 
L 330.816135 71.392782 
L 330.885684 70.707214 
L 330.955233 71.64987 
L 331.024781 70.964302 
L 331.09433 78.676948 
L 331.163879 77.648595 
L 331.233428 77.391507 
L 331.302977 73.963664 
L 331.372526 75.077713 
L 331.511624 75.077713 
L 331.581173 74.04936 
L 331.650722 78.248468 
L 331.78982 71.64987 
L 331.859369 71.64987 
L 331.998467 65.908234 
L 332.207114 64.965577 
L 332.276663 69.078988 
L 332.346212 68.564812 
L 332.415761 65.394057 
L 332.48531 69.078988 
L 332.554859 68.993292 
L 332.624408 68.993292 
L 332.693957 68.8219 
L 332.833054 66.936587 
L 332.902603 66.936587 
L 332.972152 67.107979 
L 333.041701 65.651146 
L 333.180799 60.937862 
L 333.319897 59.909509 
L 333.389446 61.966215 
L 333.458995 61.794823 
L 333.528544 56.567362 
L 333.598093 60.595078 
L 333.667642 60.509382 
L 333.737191 60.509382 
L 333.80674 58.452676 
L 333.876289 59.052548 
L 334.015387 62.480391 
L 334.154485 60.509382 
L 334.293583 64.879881 
L 334.363132 64.879881 
L 334.502229 62.994567 
L 334.641327 62.994567 
L 334.780425 62.051911 
L 334.919523 62.051911 
L 335.058621 60.595078 
L 335.267268 61.19495 
L 335.336817 61.19495 
L 335.475915 60.252293 
L 335.615013 56.310274 
L 335.82366 57.510019 
L 335.893209 56.824451 
L 336.032307 65.56545 
L 336.240953 59.138244 
L 336.310502 59.138244 
L 336.380051 58.709764 
L 336.4496 58.966852 
L 336.519149 58.881156 
L 336.727796 56.995843 
L 336.797345 56.995843 
L 336.866894 56.138882 
L 336.936443 62.308999 
L 337.005992 62.223303 
L 337.075541 62.394695 
L 337.214639 63.765832 
L 337.284188 63.59444 
L 337.353737 64.280009 
L 337.562384 58.024196 
L 337.701482 57.938499 
L 337.84058 63.423048 
L 337.910129 63.251656 
L 338.118775 64.622793 
L 338.257873 65.308361 
L 338.327422 73.535184 
L 338.396971 73.021007 
L 338.46652 73.021007 
L 338.536069 72.592527 
L 338.605618 70.278733 
L 338.675167 71.64987 
L 338.744716 72.335439 
L 338.883814 74.135056 
L 338.953363 74.392145 
L 339.022912 73.706576 
L 339.16201 78.077075 
L 339.231559 72.249743 
L 339.370657 76.44885 
L 339.509755 76.791634 
L 339.718401 85.532633 
L 339.78795 81.333526 
L 339.857499 82.704663 
L 339.927048 80.390869 
L 340.066146 84.0758 
L 340.205244 79.105428 
L 340.413891 79.27682 
L 340.552989 84.161496 
L 340.692087 83.21884 
L 340.761636 83.733016 
L 340.970283 82.019095 
L 341.109381 82.104791 
L 341.318028 76.02037 
L 341.387577 76.44885 
L 341.457125 79.27682 
L 341.596223 87.417947 
L 341.735321 87.675035 
L 341.874419 87.589339 
L 341.943968 87.675035 
L 342.083066 90.331613 
L 342.152615 90.331613 
L 342.222164 83.561624 
L 342.291713 90.84579 
L 342.361262 90.674397 
L 342.569909 90.674397 
L 342.709007 91.959838 
L 342.917654 83.561624 
L 343.126301 83.390232 
L 343.265398 83.561624 
L 343.334947 83.561624 
L 343.404496 84.0758 
L 343.474045 83.990104 
L 343.682692 83.561624 
L 343.82179 84.761369 
L 343.891339 79.876693 
L 343.960888 83.818712 
L 344.030437 77.734291 
L 344.099986 77.819987 
L 344.169535 77.734291 
L 344.308633 92.988191 
L 344.378182 92.816799 
L 344.51728 92.816799 
L 344.725927 90.674397 
L 345.073671 90.760094 
L 345.282318 97.615779 
L 345.351867 97.615779 
L 345.490965 96.758818 
L 345.560514 96.758818 
L 345.699612 92.131231 
L 345.769161 92.216927 
L 345.83871 89.217564 
L 345.908259 89.30326 
L 345.977808 89.474652 
L 346.116906 88.789084 
L 346.186455 83.990104 
L 346.256004 85.189849 
L 346.5342 90.84579 
L 346.603749 90.84579 
L 346.673297 86.989467 
L 346.742846 87.589339 
L 346.951493 86.303898 
L 347.090591 86.132506 
L 347.299238 86.989467 
L 347.438336 84.589977 
L 347.577434 84.418584 
L 347.646983 84.932761 
L 347.786081 89.30326 
L 348.064277 89.217564 
L 348.133826 89.046172 
L 348.272924 89.474652 
L 348.412022 89.474652 
L 348.48157 85.446937 
L 348.551119 85.875418 
L 348.620668 85.789722 
L 348.690217 85.875418 
L 348.898864 85.875418 
L 349.037962 86.218202 
L 349.107511 90.503005 
L 349.17706 90.160221 
L 349.246609 89.30326 
L 349.455256 79.27682 
L 349.594354 79.962389 
L 349.803001 78.162772 
L 349.87255 78.162772 
L 349.942099 80.562261 
L 350.011648 78.162772 
L 350.081197 78.84834 
L 350.220294 79.705301 
L 350.359392 79.619605 
L 350.428941 79.619605 
L 350.49849 83.047447 
L 350.707137 106.870954 
L 351.19398 106.95665 
L 351.263529 107.042346 
L 351.402627 106.785258 
L 351.541725 107.042346 
L 351.750372 107.042346 
L 351.88947 97.701475 
L 351.959018 97.615779 
L 352.098116 104.471464 
L 352.167665 104.385768 
L 352.306763 104.385768 
L 352.445861 100.358053 
L 352.51541 101.129318 
L 352.584959 95.473377 
L 352.654508 95.559073 
L 352.724057 95.644769 
L 352.793606 92.902495 
L 352.863155 92.988191 
L 353.002253 92.988191 
L 353.141351 91.788446 
L 353.2109 91.874142 
L 353.280449 91.788446 
L 353.419547 87.246555 
L 353.558645 89.988829 
L 353.697742 89.988829 
L 353.767291 98.558436 
L 353.83684 97.701475 
L 353.906389 97.701475 
L 353.975938 97.530083 
L 354.045487 96.673122 
L 354.115036 96.758818 
L 354.184585 97.101603 
L 354.323683 96.416034 
L 354.393232 96.416034 
L 354.53233 95.987554 
L 354.671428 98.301348 
L 354.810526 98.301348 
L 354.880075 98.644132 
L 355.019173 98.301348 
L 355.158271 99.415396 
L 355.366918 99.501092 
L 355.506015 102.329063 
L 355.645113 102.329063 
L 355.714662 101.986278 
L 355.85376 102.329063 
L 355.923309 101.986278 
L 356.062407 105.242729 
L 356.271054 105.071337 
L 356.340603 105.328425 
L 356.618799 109.956013 
L 356.757897 104.899945 
L 356.896995 104.985641 
L 357.036093 104.899945 
L 357.105642 103.957288 
L 357.453386 112.184111 
L 357.592484 112.184111 
L 357.662033 112.355503 
L 357.801131 121.439286 
L 357.940229 121.439286 
L 358.009778 120.839413 
L 358.148876 121.78207 
L 358.218425 121.953462 
L 358.287974 121.610678 
L 358.496621 122.467639 
L 358.635719 121.182198 
L 358.844366 120.753717 
L 358.983463 121.267894 
L 359.053012 121.182198 
L 359.19211 121.524982 
L 359.400757 117.754355 
L 359.539855 110.89867 
L 359.609404 110.89867 
L 359.678953 107.213739 
L 359.748502 107.385131 
L 359.818051 107.470827 
L 359.957149 108.670572 
L 360.096247 108.841964 
L 360.165796 108.841964 
L 360.235345 108.584876 
L 360.304894 112.441199 
L 360.374443 109.613228 
L 360.443992 113.126767 
L 360.58309 108.92766 
L 360.722187 110.384493 
L 360.861285 110.727277 
L 361.20903 110.727277 
L 361.278579 111.927022 
L 361.417677 110.89867 
L 361.487226 110.641581 
L 361.626324 111.32715 
L 361.695873 111.412846 
L 361.765422 110.984366 
L 361.834971 111.75563 
L 362.043618 108.156395 
L 362.113167 108.156395 
L 362.182716 108.413484 
L 362.252265 107.128043 
L 362.391362 103.785896 
L 362.460911 103.785896 
L 362.600009 100.529445 
L 362.669558 100.529445 
L 362.808656 100.957926 
L 362.947754 109.441836 
L 363.086852 100.443749 
L 363.295499 99.158308 
L 363.434597 96.416034 
L 363.504146 96.416034 
L 363.573695 94.359328 
L 363.643244 95.216289 
L 363.782342 96.07325 
L 363.92144 96.330338 
L 364.060538 96.244642 
L 364.199635 95.644769 
L 364.408282 95.559073 
L 364.686478 85.275545 
L 364.825576 85.275545 
L 364.895125 85.446937 
L 364.964674 85.275545 
L 365.173321 91.102878 
L 365.312419 91.617054 
L 365.381968 91.188574 
L 365.451517 91.27427 
L 365.521066 89.217564 
L 365.590615 89.388956 
L 365.660164 89.388956 
L 365.729713 89.731741 
L 365.799262 89.046172 
L 365.86881 96.758818 
L 365.938359 96.673122 
L 366.007908 99.586789 
L 366.147006 90.931486 
L 366.286104 100.443749 
L 366.355653 100.443749 
L 366.494751 96.330338 
L 366.5643 96.330338 
L 366.772947 97.101603 
L 366.912045 95.901858 
L 367.051143 96.758818 
L 367.120692 96.758818 
L 367.190241 95.044897 
L 367.25979 98.129955 
L 367.329339 97.701475 
L 367.398888 97.187299 
L 367.468437 97.358691 
L 367.746632 97.358691 
L 367.955279 91.531358 
L 368.233475 89.560349 
L 368.442122 89.560349 
L 368.511671 90.160221 
L 368.58122 89.046172 
L 368.650769 89.217564 
L 368.720318 89.217564 
L 368.859416 87.932123 
L 368.928965 88.103515 
L 369.068063 88.789084 
L 369.207161 88.789084 
L 369.346258 97.272995 
L 369.554905 95.473377 
L 369.694003 94.873505 
L 369.833101 95.044897 
L 369.90265 93.073887 
L 369.972199 98.986916 
L 370.041748 98.815524 
L 370.111297 99.244004 
L 370.180846 98.986916 
L 370.250395 97.358691 
L 370.389493 105.671209 
L 370.59814 105.928298 
L 370.667689 105.928298 
L 370.876336 94.530721 
L 370.945885 102.586151 
L 371.015434 102.243367 
L 371.084982 102.243367 
L 371.22408 102.671847 
L 371.363178 106.185386 
L 371.432727 106.52817 
L 371.571825 104.12868 
L 371.641374 104.12868 
L 371.710923 104.300072 
L 371.850021 99.501092 
L 371.989119 98.729828 
L 372.058668 98.815524 
L 372.197766 103.357416 
L 372.475962 93.416672 
L 372.545511 94.445024 
L 372.61506 93.930848 
L 372.684609 93.245279 
L 372.893255 104.55716 
L 373.241 107.042346 
L 373.380098 106.356778 
L 373.727843 107.128043 
L 373.797392 107.042346 
L 373.93649 108.327787 
L 374.075588 108.327787 
L 374.214686 103.7002 
L 374.492882 102.586151 
L 374.701528 93.416672 
L 374.840626 102.071974 
L 374.979724 101.986278 
L 375.118822 106.09969 
L 375.25792 97.358691 
L 375.466567 97.272995 
L 375.536116 97.444387 
L 375.675214 96.844514 
L 375.744763 96.758818 
L 375.883861 97.444387 
L 376.022959 97.187299 
L 376.162057 95.730465 
L 376.231606 95.216289 
L 376.301154 95.387681 
L 376.370703 95.387681 
L 376.509801 105.756905 
L 376.57935 106.613866 
L 376.648899 106.52817 
L 376.718448 106.52817 
L 376.787997 107.042346 
L 377.066193 106.185386 
L 377.135742 107.899307 
L 377.27484 105.157033 
L 377.413938 105.157033 
L 377.553036 107.385131 
L 377.761683 107.470827 
L 377.831232 106.870954 
L 377.900781 103.014631 
L 377.97033 103.100327 
L 378.039878 104.12868 
L 378.178976 109.099052 
L 378.387623 108.413484 
L 378.457172 108.413484 
L 378.665819 109.184748 
L 378.804917 109.184748 
L 379.152662 113.126767 
L 379.29176 109.784621 
L 379.361309 110.470189 
L 379.500407 104.300072 
L 379.569956 104.12868 
L 379.778602 96.330338 
L 379.9177 96.330338 
L 380.056798 96.758818 
L 380.126347 96.330338 
L 380.265445 95.044897 
L 380.334994 94.616417 
L 380.61319 99.072612 
L 380.682739 101.643494 
L 380.821837 109.099052 
L 381.030484 93.845152 
L 381.378229 95.901858 
L 381.517326 95.816162 
L 381.586875 102.843239 
L 381.656424 99.415396 
L 381.795522 99.415396 
L 381.93462 103.271719 
L 382.004169 103.271719 
L 382.143267 103.785896 
L 382.282365 103.785896 
L 382.351914 104.385768 
L 382.838757 89.646045 
L 382.977855 89.646045 
L 383.047404 90.074525 
L 383.186502 86.818074 
L 383.25605 86.646682 
L 383.464697 92.131231 
L 383.603795 92.131231 
L 383.742893 89.046172 
L 383.881991 92.474015 
L 383.95154 92.302623 
L 384.299285 101.986278 
L 384.368834 101.557798 
L 384.438383 105.499817 
L 384.577481 116.98309 
L 384.64703 117.497267 
L 384.716579 110.555885 
L 384.786128 110.812973 
L 384.994774 110.89867 
L 385.203421 105.842601 
L 385.27297 105.842601 
L 385.481617 111.669934 
L 385.551166 112.441199 
L 385.620715 112.012718 
L 385.759813 112.012718 
L 385.898911 103.271719 
L 386.385754 107.213739 
L 386.455303 103.271719 
L 386.66395 113.298159 
L 386.733498 113.298159 
L 386.872596 107.556523 
L 386.942145 107.556523 
L 387.081243 107.128043 
L 387.220341 104.728553 
L 387.359439 104.728553 
L 387.428988 105.157033 
L 387.568086 95.044897 
L 387.637635 95.473377 
L 387.707184 97.615779 
L 387.776733 97.530083 
L 387.846282 98.215651 
L 387.98538 95.044897 
L 388.263576 96.07325 
L 388.402674 91.874142 
L 388.472222 91.959838 
L 388.61132 95.044897 
L 388.680869 94.359328 
L 388.750418 96.758818 
L 388.889516 93.330976 
L 388.959065 93.330976 
L 389.028614 91.617054 
L 389.098163 92.131231 
L 389.167712 92.131231 
L 389.376359 83.990104 
L 389.445908 83.990104 
L 389.515457 84.247192 
L 389.654555 83.047447 
L 389.724104 83.304536 
L 389.793653 80.133781 
L 389.863202 82.618967 
L 390.0023 80.390869 
L 390.071849 80.390869 
L 390.350044 94.616417 
L 390.489142 94.359328 
L 390.767338 94.273632 
L 390.836887 94.787809 
L 390.975985 84.247192 
L 391.045534 84.247192 
L 391.184632 84.675673 
L 391.254181 86.389594 
L 391.393279 84.504281 
L 391.462828 84.332888 
L 391.601926 82.618967 
L 391.671475 91.017182 
L 391.741024 90.331613 
L 391.880122 90.331613 
L 391.94967 89.903133 
L 392.158317 75.334801 
L 392.366964 75.334801 
L 392.436513 75.591889 
L 392.506062 83.304536 
L 392.575611 82.790359 
L 392.714709 87.503643 
L 392.784258 86.90377 
L 392.853807 86.90377 
L 392.992905 90.84579 
L 393.062454 90.245917 
L 393.201552 88.617692 
L 393.549297 88.274908 
L 393.618846 87.332251 
L 393.688394 83.904408 
L 393.757943 84.332888 
L 394.105688 84.0758 
L 394.175237 87.675035 
L 394.244786 87.160859 
L 394.314335 87.160859 
L 394.453433 87.503643 
L 394.522982 87.503643 
L 394.592531 87.760731 
L 394.66208 87.589339 
L 394.731629 79.962389 
L 394.801178 80.133781 
L 394.940276 79.790997 
L 395.079374 70.878606 
L 395.218472 75.420497 
L 395.288021 75.334801 
L 395.427118 67.536459 
L 395.496667 69.421773 
L 395.635765 65.051273 
L 395.705314 69.336077 
L 395.774863 68.736204 
L 395.844412 67.964939 
L 395.913961 68.050635 
L 396.053059 68.050635 
L 396.261706 66.936587 
L 396.400804 66.936587 
L 396.470353 67.107979 
L 396.609451 59.22394 
L 396.679 59.22394 
L 396.818098 65.822538 
L 396.957196 66.42241 
L 397.096294 70.364429 
L 397.165842 70.193037 
L 397.30494 67.450763 
L 397.374489 68.050635 
L 397.513587 74.477841 
L 397.722234 74.563537 
L 397.791783 74.563537 
L 397.930881 70.79291 
L 398.139528 72.164047 
L 398.209077 67.022283 
L 398.278626 67.707851 
L 398.417724 66.679498 
L 398.487273 67.365067 
L 398.487273 67.365067 
" clip-path="url(#p3a5621a03c)" style="fill: none; stroke: #1f77b4; stroke-width: 1.5; stroke-linecap: square"/>
   </g>
   <g id="patch_3">
    <path d="M 57.6 307.584 
L 57.6 41.472 
" style="fill: none; stroke: #000000; stroke-width: 0.8; stroke-linejoin: miter; stroke-linecap: square"/>
   </g>
   <g id="patch_4">
    <path d="M 414.72 307.584 
L 414.72 41.472 
" style="fill: none; stroke: #000000; stroke-width: 0.8; stroke-linejoin: miter; stroke-linecap: square"/>
   </g>
   <g id="patch_5">
    <path d="M 57.6 307.584 
L 414.72 307.584 
" style="fill: none; stroke: #000000; stroke-width: 0.8; stroke-linejoin: miter; stroke-linecap: square"/>
   </g>
   <g id="patch_6">
    <path d="M 57.6 41.472 
L 414.72 41.472 
" style="fill: none; stroke: #000000; stroke-width: 0.8; stroke-linejoin: miter; stroke-linecap: square"/>
   </g>
   <g id="text_14">
    <!-- comp09 -->
    <g transform="translate(211.90125 35.472) scale(0.12 -0.12)">
     <defs>
      <path id="DejaVuSans-63" d="M 3122 3366 
L 3122 2828 
Q 2878 2963 2633 3030 
Q 2388 3097 2138 3097 
Q 1578 3097 1268 2742 
Q 959 2388 959 1747 
Q 959 1106 1268 751 
Q 1578 397 2138 397 
Q 2388 397 2633 464 
Q 2878 531 3122 666 
L 3122 134 
Q 2881 22 2623 -34 
Q 2366 -91 2075 -91 
Q 1284 -91 818 406 
Q 353 903 353 1747 
Q 353 2603 823 3093 
Q 1294 3584 2113 3584 
Q 2378 3584 2631 3529 
Q 2884 3475 3122 3366 
z
" transform="scale(0.015625)"/>
      <path id="DejaVuSans-70" d="M 1159 525 
L 1159 -1331 
L 581 -1331 
L 581 3500 
L 1159 3500 
L 1159 2969 
Q 1341 3281 1617 3432 
Q 1894 3584 2278 3584 
Q 2916 3584 3314 3078 
Q 3713 2572 3713 1747 
Q 3713 922 3314 415 
Q 2916 -91 2278 -91 
Q 1894 -91 1617 61 
Q 1341 213 1159 525 
z
M 3116 1747 
Q 3116 2381 2855 2742 
Q 2594 3103 2138 3103 
Q 1681 3103 1420 2742 
Q 1159 2381 1159 1747 
Q 1159 1113 1420 752 
Q 1681 391 2138 391 
Q 2594 391 2855 752 
Q 3116 1113 3116 1747 
z
" transform="scale(0.015625)"/>
      <path id="DejaVuSans-39" d="M 703 97 
L 703 672 
Q 941 559 1184 500 
Q 1428 441 1663 441 
Q 2288 441 2617 861 
Q 2947 1281 2994 2138 
Q 2813 1869 2534 1725 
Q 2256 1581 1919 1581 
Q 1219 1581 811 2004 
Q 403 2428 403 3163 
Q 403 3881 828 4315 
Q 1253 4750 1959 4750 
Q 2769 4750 3195 4129 
Q 3622 3509 3622 2328 
Q 3622 1225 3098 567 
Q 2575 -91 1691 -91 
Q 1453 -91 1209 -44 
Q 966 3 703 97 
z
M 1959 2075 
Q 2384 2075 2632 2365 
Q 2881 2656 2881 3163 
Q 2881 3666 2632 3958 
Q 2384 4250 1959 4250 
Q 1534 4250 1286 3958 
Q 1038 3666 1038 3163 
Q 1038 2656 1286 2365 
Q 1534 2075 1959 2075 
z
" transform="scale(0.015625)"/>
     </defs>
     <use xlink:href="#DejaVuSans-63"/>
     <use xlink:href="#DejaVuSans-6f" x="54.980469"/>
     <use xlink:href="#DejaVuSans-6d" x="116.162109"/>
     <use xlink:href="#DejaVuSans-70" x="213.574219"/>
     <use xlink:href="#DejaVuSans-30" x="277.050781"/>
     <use xlink:href="#DejaVuSans-39" x="340.673828"/>
    </g>
   </g>
  </g>
 </g>
 <defs>
  <clipPath id="p3a5621a03c">
   <rect x="57.6" y="41.472" width="357.12" height="266.112"/>
  </clipPath>
 </defs>
</svg>
