<?xml version="1.0" encoding="utf-8" standalone="no"?>
<!DOCTYPE svg PUBLIC "-//W3C//DTD SVG 1.1//EN"
  "http://www.w3.org/Graphics/SVG/1.1/DTD/svg11.dtd">
<svg xmlns:xlink="http://www.w3.org/1999/xlink" width="460.8pt" height="345.6pt" viewBox="0 0 460.8 345.6" xmlns="http://www.w3.org/2000/svg" version="1.1">
 <metadata>
  <rdf:RDF xmlns:dc="http://purl.org/dc/elements/1.1/" xmlns:cc="http://creativecommons.org/ns#" xmlns:rdf="http://www.w3.org/1999/02/22-rdf-syntax-ns#">
   <cc:Work>
    <dc:type rdf:resource="http://purl.org/dc/dcmitype/StillImage"/>
    <dc:date>2023-12-03T18:15:54.923668</dc:date>
    <dc:format>image/svg+xml</dc:format>
    <dc:creator>
     <cc:Agent>
      <dc:title>Matplotlib v3.7.1, https://matplotlib.org/</dc:title>
     </cc:Agent>
    </dc:creator>
   </cc:Work>
  </rdf:RDF>
 </metadata>
 <defs>
  <style type="text/css">*{stroke-linejoin: round; stroke-linecap: butt}</style>
 </defs>
 <g id="figure_1">
  <g id="patch_1">
   <path d="M 0 345.6 
L 460.8 345.6 
L 460.8 0 
L 0 0 
z
" style="fill: #ffffff"/>
  </g>
  <g id="axes_1">
   <g id="patch_2">
    <path d="M 57.6 307.584 
L 414.72 307.584 
L 414.72 41.472 
L 57.6 41.472 
z
" style="fill: #ffffff"/>
   </g>
   <g id="matplotlib.axis_1">
    <g id="xtick_1">
     <g id="line2d_1">
      <defs>
       <path id="md25857e1a9" d="M 0 0 
L 0 3.5 
" style="stroke: #000000; stroke-width: 0.8"/>
      </defs>
      <g>
       <use xlink:href="#md25857e1a9" x="73.832727" y="307.584" style="stroke: #000000; stroke-width: 0.8"/>
      </g>
     </g>
     <g id="text_1">
      <!-- 0 -->
      <g transform="translate(70.651477 322.182437) scale(0.1 -0.1)">
       <defs>
        <path id="DejaVuSans-30" d="M 2034 4250 
Q 1547 4250 1301 3770 
Q 1056 3291 1056 2328 
Q 1056 1369 1301 889 
Q 1547 409 2034 409 
Q 2525 409 2770 889 
Q 3016 1369 3016 2328 
Q 3016 3291 2770 3770 
Q 2525 4250 2034 4250 
z
M 2034 4750 
Q 2819 4750 3233 4129 
Q 3647 3509 3647 2328 
Q 3647 1150 3233 529 
Q 2819 -91 2034 -91 
Q 1250 -91 836 529 
Q 422 1150 422 2328 
Q 422 3509 836 4129 
Q 1250 4750 2034 4750 
z
" transform="scale(0.015625)"/>
       </defs>
       <use xlink:href="#DejaVuSans-30"/>
      </g>
     </g>
    </g>
    <g id="xtick_2">
     <g id="line2d_2">
      <g>
       <use xlink:href="#md25857e1a9" x="117.716824" y="307.584" style="stroke: #000000; stroke-width: 0.8"/>
      </g>
     </g>
     <g id="text_2">
      <!-- 500 -->
      <g transform="translate(108.173074 322.182437) scale(0.1 -0.1)">
       <defs>
        <path id="DejaVuSans-35" d="M 691 4666 
L 3169 4666 
L 3169 4134 
L 1269 4134 
L 1269 2991 
Q 1406 3038 1543 3061 
Q 1681 3084 1819 3084 
Q 2600 3084 3056 2656 
Q 3513 2228 3513 1497 
Q 3513 744 3044 326 
Q 2575 -91 1722 -91 
Q 1428 -91 1123 -41 
Q 819 9 494 109 
L 494 744 
Q 775 591 1075 516 
Q 1375 441 1709 441 
Q 2250 441 2565 725 
Q 2881 1009 2881 1497 
Q 2881 1984 2565 2268 
Q 2250 2553 1709 2553 
Q 1456 2553 1204 2497 
Q 953 2441 691 2322 
L 691 4666 
z
" transform="scale(0.015625)"/>
       </defs>
       <use xlink:href="#DejaVuSans-35"/>
       <use xlink:href="#DejaVuSans-30" x="63.623047"/>
       <use xlink:href="#DejaVuSans-30" x="127.246094"/>
      </g>
     </g>
    </g>
    <g id="xtick_3">
     <g id="line2d_3">
      <g>
       <use xlink:href="#md25857e1a9" x="161.60092" y="307.584" style="stroke: #000000; stroke-width: 0.8"/>
      </g>
     </g>
     <g id="text_3">
      <!-- 1000 -->
      <g transform="translate(148.87592 322.182437) scale(0.1 -0.1)">
       <defs>
        <path id="DejaVuSans-31" d="M 794 531 
L 1825 531 
L 1825 4091 
L 703 3866 
L 703 4441 
L 1819 4666 
L 2450 4666 
L 2450 531 
L 3481 531 
L 3481 0 
L 794 0 
L 794 531 
z
" transform="scale(0.015625)"/>
       </defs>
       <use xlink:href="#DejaVuSans-31"/>
       <use xlink:href="#DejaVuSans-30" x="63.623047"/>
       <use xlink:href="#DejaVuSans-30" x="127.246094"/>
       <use xlink:href="#DejaVuSans-30" x="190.869141"/>
      </g>
     </g>
    </g>
    <g id="xtick_4">
     <g id="line2d_4">
      <g>
       <use xlink:href="#md25857e1a9" x="205.485017" y="307.584" style="stroke: #000000; stroke-width: 0.8"/>
      </g>
     </g>
     <g id="text_4">
      <!-- 1500 -->
      <g transform="translate(192.760017 322.182437) scale(0.1 -0.1)">
       <use xlink:href="#DejaVuSans-31"/>
       <use xlink:href="#DejaVuSans-35" x="63.623047"/>
       <use xlink:href="#DejaVuSans-30" x="127.246094"/>
       <use xlink:href="#DejaVuSans-30" x="190.869141"/>
      </g>
     </g>
    </g>
    <g id="xtick_5">
     <g id="line2d_5">
      <g>
       <use xlink:href="#md25857e1a9" x="249.369113" y="307.584" style="stroke: #000000; stroke-width: 0.8"/>
      </g>
     </g>
     <g id="text_5">
      <!-- 2000 -->
      <g transform="translate(236.644113 322.182437) scale(0.1 -0.1)">
       <defs>
        <path id="DejaVuSans-32" d="M 1228 531 
L 3431 531 
L 3431 0 
L 469 0 
L 469 531 
Q 828 903 1448 1529 
Q 2069 2156 2228 2338 
Q 2531 2678 2651 2914 
Q 2772 3150 2772 3378 
Q 2772 3750 2511 3984 
Q 2250 4219 1831 4219 
Q 1534 4219 1204 4116 
Q 875 4013 500 3803 
L 500 4441 
Q 881 4594 1212 4672 
Q 1544 4750 1819 4750 
Q 2544 4750 2975 4387 
Q 3406 4025 3406 3419 
Q 3406 3131 3298 2873 
Q 3191 2616 2906 2266 
Q 2828 2175 2409 1742 
Q 1991 1309 1228 531 
z
" transform="scale(0.015625)"/>
       </defs>
       <use xlink:href="#DejaVuSans-32"/>
       <use xlink:href="#DejaVuSans-30" x="63.623047"/>
       <use xlink:href="#DejaVuSans-30" x="127.246094"/>
       <use xlink:href="#DejaVuSans-30" x="190.869141"/>
      </g>
     </g>
    </g>
    <g id="xtick_6">
     <g id="line2d_6">
      <g>
       <use xlink:href="#md25857e1a9" x="293.253209" y="307.584" style="stroke: #000000; stroke-width: 0.8"/>
      </g>
     </g>
     <g id="text_6">
      <!-- 2500 -->
      <g transform="translate(280.528209 322.182437) scale(0.1 -0.1)">
       <use xlink:href="#DejaVuSans-32"/>
       <use xlink:href="#DejaVuSans-35" x="63.623047"/>
       <use xlink:href="#DejaVuSans-30" x="127.246094"/>
       <use xlink:href="#DejaVuSans-30" x="190.869141"/>
      </g>
     </g>
    </g>
    <g id="xtick_7">
     <g id="line2d_7">
      <g>
       <use xlink:href="#md25857e1a9" x="337.137306" y="307.584" style="stroke: #000000; stroke-width: 0.8"/>
      </g>
     </g>
     <g id="text_7">
      <!-- 3000 -->
      <g transform="translate(324.412306 322.182437) scale(0.1 -0.1)">
       <defs>
        <path id="DejaVuSans-33" d="M 2597 2516 
Q 3050 2419 3304 2112 
Q 3559 1806 3559 1356 
Q 3559 666 3084 287 
Q 2609 -91 1734 -91 
Q 1441 -91 1130 -33 
Q 819 25 488 141 
L 488 750 
Q 750 597 1062 519 
Q 1375 441 1716 441 
Q 2309 441 2620 675 
Q 2931 909 2931 1356 
Q 2931 1769 2642 2001 
Q 2353 2234 1838 2234 
L 1294 2234 
L 1294 2753 
L 1863 2753 
Q 2328 2753 2575 2939 
Q 2822 3125 2822 3475 
Q 2822 3834 2567 4026 
Q 2313 4219 1838 4219 
Q 1578 4219 1281 4162 
Q 984 4106 628 3988 
L 628 4550 
Q 988 4650 1302 4700 
Q 1616 4750 1894 4750 
Q 2613 4750 3031 4423 
Q 3450 4097 3450 3541 
Q 3450 3153 3228 2886 
Q 3006 2619 2597 2516 
z
" transform="scale(0.015625)"/>
       </defs>
       <use xlink:href="#DejaVuSans-33"/>
       <use xlink:href="#DejaVuSans-30" x="63.623047"/>
       <use xlink:href="#DejaVuSans-30" x="127.246094"/>
       <use xlink:href="#DejaVuSans-30" x="190.869141"/>
      </g>
     </g>
    </g>
    <g id="xtick_8">
     <g id="line2d_8">
      <g>
       <use xlink:href="#md25857e1a9" x="381.021402" y="307.584" style="stroke: #000000; stroke-width: 0.8"/>
      </g>
     </g>
     <g id="text_8">
      <!-- 3500 -->
      <g transform="translate(368.296402 322.182437) scale(0.1 -0.1)">
       <use xlink:href="#DejaVuSans-33"/>
       <use xlink:href="#DejaVuSans-35" x="63.623047"/>
       <use xlink:href="#DejaVuSans-30" x="127.246094"/>
       <use xlink:href="#DejaVuSans-30" x="190.869141"/>
      </g>
     </g>
    </g>
    <g id="text_9">
     <!-- iteration -->
     <g transform="translate(215.037344 335.860562) scale(0.1 -0.1)">
      <defs>
       <path id="DejaVuSans-69" d="M 603 3500 
L 1178 3500 
L 1178 0 
L 603 0 
L 603 3500 
z
M 603 4863 
L 1178 4863 
L 1178 4134 
L 603 4134 
L 603 4863 
z
" transform="scale(0.015625)"/>
       <path id="DejaVuSans-74" d="M 1172 4494 
L 1172 3500 
L 2356 3500 
L 2356 3053 
L 1172 3053 
L 1172 1153 
Q 1172 725 1289 603 
Q 1406 481 1766 481 
L 2356 481 
L 2356 0 
L 1766 0 
Q 1100 0 847 248 
Q 594 497 594 1153 
L 594 3053 
L 172 3053 
L 172 3500 
L 594 3500 
L 594 4494 
L 1172 4494 
z
" transform="scale(0.015625)"/>
       <path id="DejaVuSans-65" d="M 3597 1894 
L 3597 1613 
L 953 1613 
Q 991 1019 1311 708 
Q 1631 397 2203 397 
Q 2534 397 2845 478 
Q 3156 559 3463 722 
L 3463 178 
Q 3153 47 2828 -22 
Q 2503 -91 2169 -91 
Q 1331 -91 842 396 
Q 353 884 353 1716 
Q 353 2575 817 3079 
Q 1281 3584 2069 3584 
Q 2775 3584 3186 3129 
Q 3597 2675 3597 1894 
z
M 3022 2063 
Q 3016 2534 2758 2815 
Q 2500 3097 2075 3097 
Q 1594 3097 1305 2825 
Q 1016 2553 972 2059 
L 3022 2063 
z
" transform="scale(0.015625)"/>
       <path id="DejaVuSans-72" d="M 2631 2963 
Q 2534 3019 2420 3045 
Q 2306 3072 2169 3072 
Q 1681 3072 1420 2755 
Q 1159 2438 1159 1844 
L 1159 0 
L 581 0 
L 581 3500 
L 1159 3500 
L 1159 2956 
Q 1341 3275 1631 3429 
Q 1922 3584 2338 3584 
Q 2397 3584 2469 3576 
Q 2541 3569 2628 3553 
L 2631 2963 
z
" transform="scale(0.015625)"/>
       <path id="DejaVuSans-61" d="M 2194 1759 
Q 1497 1759 1228 1600 
Q 959 1441 959 1056 
Q 959 750 1161 570 
Q 1363 391 1709 391 
Q 2188 391 2477 730 
Q 2766 1069 2766 1631 
L 2766 1759 
L 2194 1759 
z
M 3341 1997 
L 3341 0 
L 2766 0 
L 2766 531 
Q 2569 213 2275 61 
Q 1981 -91 1556 -91 
Q 1019 -91 701 211 
Q 384 513 384 1019 
Q 384 1609 779 1909 
Q 1175 2209 1959 2209 
L 2766 2209 
L 2766 2266 
Q 2766 2663 2505 2880 
Q 2244 3097 1772 3097 
Q 1472 3097 1187 3025 
Q 903 2953 641 2809 
L 641 3341 
Q 956 3463 1253 3523 
Q 1550 3584 1831 3584 
Q 2591 3584 2966 3190 
Q 3341 2797 3341 1997 
z
" transform="scale(0.015625)"/>
       <path id="DejaVuSans-6f" d="M 1959 3097 
Q 1497 3097 1228 2736 
Q 959 2375 959 1747 
Q 959 1119 1226 758 
Q 1494 397 1959 397 
Q 2419 397 2687 759 
Q 2956 1122 2956 1747 
Q 2956 2369 2687 2733 
Q 2419 3097 1959 3097 
z
M 1959 3584 
Q 2709 3584 3137 3096 
Q 3566 2609 3566 1747 
Q 3566 888 3137 398 
Q 2709 -91 1959 -91 
Q 1206 -91 779 398 
Q 353 888 353 1747 
Q 353 2609 779 3096 
Q 1206 3584 1959 3584 
z
" transform="scale(0.015625)"/>
       <path id="DejaVuSans-6e" d="M 3513 2113 
L 3513 0 
L 2938 0 
L 2938 2094 
Q 2938 2591 2744 2837 
Q 2550 3084 2163 3084 
Q 1697 3084 1428 2787 
Q 1159 2491 1159 1978 
L 1159 0 
L 581 0 
L 581 3500 
L 1159 3500 
L 1159 2956 
Q 1366 3272 1645 3428 
Q 1925 3584 2291 3584 
Q 2894 3584 3203 3211 
Q 3513 2838 3513 2113 
z
" transform="scale(0.015625)"/>
      </defs>
      <use xlink:href="#DejaVuSans-69"/>
      <use xlink:href="#DejaVuSans-74" x="27.783203"/>
      <use xlink:href="#DejaVuSans-65" x="66.992188"/>
      <use xlink:href="#DejaVuSans-72" x="128.515625"/>
      <use xlink:href="#DejaVuSans-61" x="169.628906"/>
      <use xlink:href="#DejaVuSans-74" x="230.908203"/>
      <use xlink:href="#DejaVuSans-69" x="270.117188"/>
      <use xlink:href="#DejaVuSans-6f" x="297.900391"/>
      <use xlink:href="#DejaVuSans-6e" x="359.082031"/>
     </g>
    </g>
   </g>
   <g id="matplotlib.axis_2">
    <g id="ytick_1">
     <g id="line2d_9">
      <defs>
       <path id="m86d53bbbc6" d="M 0 0 
L -3.5 0 
" style="stroke: #000000; stroke-width: 0.8"/>
      </defs>
      <g>
       <use xlink:href="#m86d53bbbc6" x="57.6" y="286.250526" style="stroke: #000000; stroke-width: 0.8"/>
      </g>
     </g>
     <g id="text_10">
      <!-- 500 -->
      <g transform="translate(31.5125 290.049744) scale(0.1 -0.1)">
       <use xlink:href="#DejaVuSans-35"/>
       <use xlink:href="#DejaVuSans-30" x="63.623047"/>
       <use xlink:href="#DejaVuSans-30" x="127.246094"/>
      </g>
     </g>
    </g>
    <g id="ytick_2">
     <g id="line2d_10">
      <g>
       <use xlink:href="#m86d53bbbc6" x="57.6" y="249.882516" style="stroke: #000000; stroke-width: 0.8"/>
      </g>
     </g>
     <g id="text_11">
      <!-- 1000 -->
      <g transform="translate(25.15 253.681735) scale(0.1 -0.1)">
       <use xlink:href="#DejaVuSans-31"/>
       <use xlink:href="#DejaVuSans-30" x="63.623047"/>
       <use xlink:href="#DejaVuSans-30" x="127.246094"/>
       <use xlink:href="#DejaVuSans-30" x="190.869141"/>
      </g>
     </g>
    </g>
    <g id="ytick_3">
     <g id="line2d_11">
      <g>
       <use xlink:href="#m86d53bbbc6" x="57.6" y="213.514506" style="stroke: #000000; stroke-width: 0.8"/>
      </g>
     </g>
     <g id="text_12">
      <!-- 1500 -->
      <g transform="translate(25.15 217.313725) scale(0.1 -0.1)">
       <use xlink:href="#DejaVuSans-31"/>
       <use xlink:href="#DejaVuSans-35" x="63.623047"/>
       <use xlink:href="#DejaVuSans-30" x="127.246094"/>
       <use xlink:href="#DejaVuSans-30" x="190.869141"/>
      </g>
     </g>
    </g>
    <g id="ytick_4">
     <g id="line2d_12">
      <g>
       <use xlink:href="#m86d53bbbc6" x="57.6" y="177.146497" style="stroke: #000000; stroke-width: 0.8"/>
      </g>
     </g>
     <g id="text_13">
      <!-- 2000 -->
      <g transform="translate(25.15 180.945715) scale(0.1 -0.1)">
       <use xlink:href="#DejaVuSans-32"/>
       <use xlink:href="#DejaVuSans-30" x="63.623047"/>
       <use xlink:href="#DejaVuSans-30" x="127.246094"/>
       <use xlink:href="#DejaVuSans-30" x="190.869141"/>
      </g>
     </g>
    </g>
    <g id="ytick_5">
     <g id="line2d_13">
      <g>
       <use xlink:href="#m86d53bbbc6" x="57.6" y="140.778487" style="stroke: #000000; stroke-width: 0.8"/>
      </g>
     </g>
     <g id="text_14">
      <!-- 2500 -->
      <g transform="translate(25.15 144.577706) scale(0.1 -0.1)">
       <use xlink:href="#DejaVuSans-32"/>
       <use xlink:href="#DejaVuSans-35" x="63.623047"/>
       <use xlink:href="#DejaVuSans-30" x="127.246094"/>
       <use xlink:href="#DejaVuSans-30" x="190.869141"/>
      </g>
     </g>
    </g>
    <g id="ytick_6">
     <g id="line2d_14">
      <g>
       <use xlink:href="#m86d53bbbc6" x="57.6" y="104.410477" style="stroke: #000000; stroke-width: 0.8"/>
      </g>
     </g>
     <g id="text_15">
      <!-- 3000 -->
      <g transform="translate(25.15 108.209696) scale(0.1 -0.1)">
       <use xlink:href="#DejaVuSans-33"/>
       <use xlink:href="#DejaVuSans-30" x="63.623047"/>
       <use xlink:href="#DejaVuSans-30" x="127.246094"/>
       <use xlink:href="#DejaVuSans-30" x="190.869141"/>
      </g>
     </g>
    </g>
    <g id="ytick_7">
     <g id="line2d_15">
      <g>
       <use xlink:href="#m86d53bbbc6" x="57.6" y="68.042468" style="stroke: #000000; stroke-width: 0.8"/>
      </g>
     </g>
     <g id="text_16">
      <!-- 3500 -->
      <g transform="translate(25.15 71.841687) scale(0.1 -0.1)">
       <use xlink:href="#DejaVuSans-33"/>
       <use xlink:href="#DejaVuSans-35" x="63.623047"/>
       <use xlink:href="#DejaVuSans-30" x="127.246094"/>
       <use xlink:href="#DejaVuSans-30" x="190.869141"/>
      </g>
     </g>
    </g>
    <g id="text_17">
     <!-- best fitness of swarm -->
     <g transform="translate(19.070312 228.0905) rotate(-90) scale(0.1 -0.1)">
      <defs>
       <path id="DejaVuSans-62" d="M 3116 1747 
Q 3116 2381 2855 2742 
Q 2594 3103 2138 3103 
Q 1681 3103 1420 2742 
Q 1159 2381 1159 1747 
Q 1159 1113 1420 752 
Q 1681 391 2138 391 
Q 2594 391 2855 752 
Q 3116 1113 3116 1747 
z
M 1159 2969 
Q 1341 3281 1617 3432 
Q 1894 3584 2278 3584 
Q 2916 3584 3314 3078 
Q 3713 2572 3713 1747 
Q 3713 922 3314 415 
Q 2916 -91 2278 -91 
Q 1894 -91 1617 61 
Q 1341 213 1159 525 
L 1159 0 
L 581 0 
L 581 4863 
L 1159 4863 
L 1159 2969 
z
" transform="scale(0.015625)"/>
       <path id="DejaVuSans-73" d="M 2834 3397 
L 2834 2853 
Q 2591 2978 2328 3040 
Q 2066 3103 1784 3103 
Q 1356 3103 1142 2972 
Q 928 2841 928 2578 
Q 928 2378 1081 2264 
Q 1234 2150 1697 2047 
L 1894 2003 
Q 2506 1872 2764 1633 
Q 3022 1394 3022 966 
Q 3022 478 2636 193 
Q 2250 -91 1575 -91 
Q 1294 -91 989 -36 
Q 684 19 347 128 
L 347 722 
Q 666 556 975 473 
Q 1284 391 1588 391 
Q 1994 391 2212 530 
Q 2431 669 2431 922 
Q 2431 1156 2273 1281 
Q 2116 1406 1581 1522 
L 1381 1569 
Q 847 1681 609 1914 
Q 372 2147 372 2553 
Q 372 3047 722 3315 
Q 1072 3584 1716 3584 
Q 2034 3584 2315 3537 
Q 2597 3491 2834 3397 
z
" transform="scale(0.015625)"/>
       <path id="DejaVuSans-20" transform="scale(0.015625)"/>
       <path id="DejaVuSans-66" d="M 2375 4863 
L 2375 4384 
L 1825 4384 
Q 1516 4384 1395 4259 
Q 1275 4134 1275 3809 
L 1275 3500 
L 2222 3500 
L 2222 3053 
L 1275 3053 
L 1275 0 
L 697 0 
L 697 3053 
L 147 3053 
L 147 3500 
L 697 3500 
L 697 3744 
Q 697 4328 969 4595 
Q 1241 4863 1831 4863 
L 2375 4863 
z
" transform="scale(0.015625)"/>
       <path id="DejaVuSans-77" d="M 269 3500 
L 844 3500 
L 1563 769 
L 2278 3500 
L 2956 3500 
L 3675 769 
L 4391 3500 
L 4966 3500 
L 4050 0 
L 3372 0 
L 2619 2869 
L 1863 0 
L 1184 0 
L 269 3500 
z
" transform="scale(0.015625)"/>
       <path id="DejaVuSans-6d" d="M 3328 2828 
Q 3544 3216 3844 3400 
Q 4144 3584 4550 3584 
Q 5097 3584 5394 3201 
Q 5691 2819 5691 2113 
L 5691 0 
L 5113 0 
L 5113 2094 
Q 5113 2597 4934 2840 
Q 4756 3084 4391 3084 
Q 3944 3084 3684 2787 
Q 3425 2491 3425 1978 
L 3425 0 
L 2847 0 
L 2847 2094 
Q 2847 2600 2669 2842 
Q 2491 3084 2119 3084 
Q 1678 3084 1418 2786 
Q 1159 2488 1159 1978 
L 1159 0 
L 581 0 
L 581 3500 
L 1159 3500 
L 1159 2956 
Q 1356 3278 1631 3431 
Q 1906 3584 2284 3584 
Q 2666 3584 2933 3390 
Q 3200 3197 3328 2828 
z
" transform="scale(0.015625)"/>
      </defs>
      <use xlink:href="#DejaVuSans-62"/>
      <use xlink:href="#DejaVuSans-65" x="63.476562"/>
      <use xlink:href="#DejaVuSans-73" x="125"/>
      <use xlink:href="#DejaVuSans-74" x="177.099609"/>
      <use xlink:href="#DejaVuSans-20" x="216.308594"/>
      <use xlink:href="#DejaVuSans-66" x="248.095703"/>
      <use xlink:href="#DejaVuSans-69" x="283.300781"/>
      <use xlink:href="#DejaVuSans-74" x="311.083984"/>
      <use xlink:href="#DejaVuSans-6e" x="350.292969"/>
      <use xlink:href="#DejaVuSans-65" x="413.671875"/>
      <use xlink:href="#DejaVuSans-73" x="475.195312"/>
      <use xlink:href="#DejaVuSans-73" x="527.294922"/>
      <use xlink:href="#DejaVuSans-20" x="579.394531"/>
      <use xlink:href="#DejaVuSans-6f" x="611.181641"/>
      <use xlink:href="#DejaVuSans-66" x="672.363281"/>
      <use xlink:href="#DejaVuSans-20" x="707.568359"/>
      <use xlink:href="#DejaVuSans-73" x="739.355469"/>
      <use xlink:href="#DejaVuSans-77" x="791.455078"/>
      <use xlink:href="#DejaVuSans-61" x="873.242188"/>
      <use xlink:href="#DejaVuSans-72" x="934.521484"/>
      <use xlink:href="#DejaVuSans-6d" x="973.884766"/>
     </g>
    </g>
   </g>
   <g id="line2d_16">
    <path d="M 73.832727 295.488 
L 73.920495 294.469696 
L 74.096032 292.142143 
L 74.1838 292.142143 
L 74.359336 286.395998 
L 74.447105 286.032317 
L 74.534873 281.9591 
L 74.622641 282.250044 
L 74.798177 281.59542 
L 74.885946 281.59542 
L 75.061482 275.049179 
L 75.14925 275.049179 
L 75.237018 274.612762 
L 75.412555 272.576154 
L 75.675859 272.067002 
L 75.851396 266.175384 
L 76.1147 263.629624 
L 76.378005 251.409972 
L 76.553541 251.2645 
L 76.729078 250.609876 
L 76.816846 250.609876 
L 76.992382 247.409491 
L 77.08015 248.136851 
L 77.60676 231.043887 
L 77.694528 231.262095 
L 77.870064 231.262095 
L 78.045601 228.06171 
L 78.221137 227.479822 
L 78.308905 227.843502 
L 78.484441 221.079052 
L 78.659978 222.170093 
L 78.835514 221.224524 
L 79.186587 219.406124 
L 79.713196 212.205258 
L 79.800964 212.132522 
L 79.888733 211.405162 
L 79.976501 209.368553 
L 80.064269 210.605066 
L 80.152037 210.241385 
L 80.239805 210.53233 
L 80.327574 210.314121 
L 80.50311 211.62337 
L 80.678646 211.25969 
L 80.854183 211.186954 
L 81.029719 208.859401 
L 81.205255 208.932137 
L 81.293024 208.932137 
L 81.380792 208.641193 
L 81.556328 205.804488 
L 81.644096 205.877224 
L 81.819633 207.841097 
L 81.907401 207.841097 
L 81.995169 207.404681 
L 82.346242 202.749575 
L 82.521778 201.294855 
L 82.697315 199.694663 
L 82.960619 192.275589 
L 83.136156 193.512101 
L 83.223924 192.712005 
L 83.311692 195.766918 
L 83.39946 195.694182 
L 83.487228 195.694182 
L 83.662765 193.803045 
L 83.750533 196.057862 
L 83.926069 194.093989 
L 84.277142 191.911909 
L 84.36491 191.766437 
L 84.715983 182.310754 
L 84.803751 182.310754 
L 84.979288 185.001987 
L 85.154824 182.01981 
L 85.242592 182.01981 
L 85.330361 179.110369 
L 85.418129 179.183105 
L 85.681433 179.183105 
L 85.85697 175.837248 
L 85.944738 175.691776 
L 86.120274 178.164801 
L 86.295811 178.746689 
L 86.471347 171.400351 
L 86.646883 175.764512 
L 86.734652 175.764512 
L 86.997956 169.072799 
L 87.085724 169.000063 
L 87.261261 167.618078 
L 87.524565 161.362781 
L 87.612334 162.017405 
L 87.78787 159.689852 
L 87.963406 159.617116 
L 88.138943 160.344476 
L 88.226711 160.344476 
L 88.314479 160.63542 
L 88.577784 156.853147 
L 88.665552 156.780411 
L 88.75332 157.289563 
L 88.928856 151.979834 
L 89.016625 151.979834 
L 89.455466 151.32521 
L 89.543234 155.543899 
L 89.631002 151.979834 
L 89.71877 152.270778 
L 89.806538 152.270778 
L 90.245379 154.889275 
L 90.333148 151.834362 
L 90.508684 154.161915 
L 90.596452 154.161915 
L 90.68422 156.634939 
L 90.859757 153.50729 
L 91.035293 152.343514 
L 91.123061 152.125306 
L 91.210829 152.198042 
L 91.386366 146.670105 
L 91.474134 146.451897 
L 91.737439 142.014999 
L 91.912975 142.305943 
L 92.000743 141.724055 
L 92.17628 137.79631 
L 92.351816 136.923478 
L 92.439584 136.923478 
L 92.527352 137.06895 
L 92.615121 133.650357 
L 92.702889 133.941301 
L 92.790657 133.650357 
L 92.878425 135.468758 
L 92.966193 135.25055 
L 93.053962 133.359413 
L 93.14173 133.504885 
L 93.229498 132.559317 
L 93.405034 126.376755 
L 93.756107 126.885907 
L 94.019412 124.994771 
L 94.194948 126.522227 
L 94.370484 127.249587 
L 94.458253 127.976948 
L 94.546021 127.904212 
L 94.633789 127.39506 
L 94.721557 129.868084 
L 94.809325 129.358932 
L 94.984862 129.94082 
L 95.07263 133.359413 
L 95.248166 131.468277 
L 95.423703 131.613749 
L 95.511471 131.468277 
L 95.599239 133.432149 
L 95.687007 132.922997 
L 95.774775 132.922997 
L 95.862544 133.504885 
L 96.389153 125.794867 
L 96.476921 125.285715 
L 96.652457 123.249106 
L 96.827994 123.249106 
L 97.091298 129.722612 
L 97.266835 130.231764 
L 97.617908 136.559798 
L 97.793444 136.487062 
L 97.96898 142.305943 
L 98.232285 142.378679 
L 98.320053 142.451416 
L 98.583358 131.686485 
L 98.671126 133.941301 
L 98.758894 133.868565 
L 98.846662 130.740916 
L 98.93443 130.886388 
L 99.109967 131.03186 
L 99.197735 131.03186 
L 99.285503 129.868084 
L 99.46104 130.3045 
L 99.548808 130.159028 
L 99.636576 136.632534 
L 99.812112 134.595925 
L 99.899881 134.159509 
L 99.987649 131.468277 
L 100.075417 131.759221 
L 100.163185 130.886388 
L 100.338722 121.648914 
L 100.42649 121.648914 
L 100.514258 123.612787 
L 100.602026 121.648914 
L 100.689794 121.72165 
L 100.865331 121.72165 
L 100.953099 123.467314 
L 101.128635 128.049684 
L 101.216403 126.231283 
L 101.304172 127.904212 
L 101.39194 125.212979 
L 101.479708 125.576659 
L 101.655244 124.340147 
L 101.830781 124.049203 
L 101.918549 128.340628 
L 102.006317 128.049684 
L 102.094085 128.631572 
L 102.181854 132.704789 
L 102.269622 131.613749 
L 102.35739 135.759702 
L 102.620695 133.068469 
L 102.708463 133.650357 
L 103.059536 131.977429 
L 103.235072 127.176851 
L 103.32284 127.540532 
L 103.410608 132.122901 
L 103.498376 131.759221 
L 103.761681 131.759221 
L 103.849449 130.3045 
L 104.024986 131.322805 
L 104.112754 131.468277 
L 104.200522 127.613268 
L 104.28829 127.686004 
L 104.376058 130.159028 
L 104.551595 123.030898 
L 104.639363 122.376274 
L 104.814899 123.467314 
L 104.902668 123.030898 
L 105.078204 121.285234 
L 105.25374 122.303538 
L 105.517045 123.249106 
L 105.604813 121.503442 
L 105.692581 122.81269 
L 105.780349 116.921073 
L 105.868118 116.993809 
L 106.043654 120.921554 
L 106.131422 120.048722 
L 106.306959 120.776082 
L 106.482495 120.412402 
L 106.570263 120.412402 
L 106.7458 124.340147 
L 106.921336 124.340147 
L 107.096872 125.794867 
L 107.184641 125.794867 
L 107.360177 124.994771 
L 107.447945 124.776563 
L 107.535713 124.994771 
L 107.71125 122.08533 
L 107.799018 121.72165 
L 107.886786 122.158066 
L 107.974554 125.867603 
L 108.062322 116.266449 
L 108.150091 121.139762 
L 108.325627 113.938896 
L 108.413395 113.86616 
L 108.588932 111.684079 
L 108.852236 119.466833 
L 109.027773 119.321361 
L 109.115541 119.685041 
L 109.291077 121.503442 
L 109.378845 121.503442 
L 109.466614 121.212498 
L 109.554382 123.249106 
L 109.64215 121.285234 
L 109.729918 122.08533 
L 109.817686 115.175408 
L 110.256527 128.704308 
L 110.519832 128.558836 
L 110.6076 128.558836 
L 110.783136 129.140724 
L 110.958673 129.140724 
L 111.134209 127.831476 
L 111.221977 126.885907 
L 111.309746 127.104115 
L 111.397514 132.850261 
L 111.485282 132.559317 
L 111.57305 123.17637 
L 111.660818 123.612787 
L 111.836355 123.540051 
L 111.924123 123.540051 
L 112.099659 124.194675 
L 112.275196 119.394097 
L 112.362964 119.394097 
L 112.5385 122.44901 
L 112.626269 123.17637 
L 112.714037 123.103634 
L 113.065109 121.939858 
L 113.240646 136.414326 
L 113.328414 136.559798 
L 113.50395 136.050646 
L 113.591719 136.050646 
L 113.767255 131.686485 
L 114.03056 139.323767 
L 114.118328 139.251031 
L 114.293864 139.323767 
L 114.557169 135.396022 
L 114.644937 135.396022 
L 114.820473 128.340628 
L 114.908242 128.12242 
L 114.99601 128.995252 
L 115.083778 127.249587 
L 115.259314 132.704789 
L 115.347083 132.704789 
L 115.522619 129.57714 
L 115.610387 130.886388 
L 115.698155 130.159028 
L 115.785923 132.777525 
L 115.873692 132.704789 
L 116.136996 126.231283 
L 116.224764 117.939377 
L 116.400301 120.485138 
L 116.488069 120.194194 
L 116.663605 114.448048 
L 116.751374 114.811728 
L 116.92691 114.738992 
L 117.014678 117.430225 
L 117.102446 116.775601 
L 117.277983 113.066064 
L 117.365751 111.393135 
L 117.453519 111.684079 
L 117.541287 112.047759 
L 117.716824 111.829551 
L 117.89236 111.829551 
L 118.067896 109.865679 
L 118.155665 109.283791 
L 118.331201 110.229359 
L 118.506737 107.538126 
L 118.594506 107.683598 
L 118.770042 107.174446 
L 118.85781 101.719245 
L 118.945578 102.519341 
L 119.033347 102.519341 
L 119.121115 102.228397 
L 119.296651 99.828108 
L 119.472188 99.900844 
L 119.647724 99.828108 
L 119.82326 99.100748 
L 119.911029 99.100748 
L 119.998797 99.391692 
L 120.174333 97.282348 
L 120.349869 95.682155 
L 120.525406 97.42782 
L 120.613174 97.7915 
L 120.876479 99.755372 
L 121.052015 99.828108 
L 121.139783 100.409996 
L 121.227551 97.500556 
L 121.31532 97.7915 
L 121.490856 97.7915 
L 121.578624 96.482251 
L 121.666392 96.918667 
L 121.754161 98.082444 
L 121.929697 97.209612 
L 122.017465 99.755372 
L 122.105233 99.464428 
L 122.193002 99.318956 
L 122.28077 100.773676 
L 122.456306 98.737068 
L 122.544074 99.24622 
L 122.631843 99.100748 
L 122.719611 99.828108 
L 122.895147 99.6099 
L 123.070683 103.246701 
L 123.24622 97.42782 
L 123.509524 99.464428 
L 123.597293 107.392654 
L 123.860597 97.355084 
L 123.948365 97.282348 
L 124.21167 95.682155 
L 124.299438 95.682155 
L 124.387206 92.84545 
L 124.474975 92.990922 
L 124.562743 93.354603 
L 124.738279 93.063658 
L 124.913816 93.136394 
L 125.089352 89.135913 
L 125.17712 83.680712 
L 125.352656 86.153737 
L 125.440425 83.826184 
L 125.791497 90.372426 
L 125.879266 90.445162 
L 126.054802 93.20913 
L 126.14257 92.772714 
L 126.230338 89.863274 
L 126.405875 94.009227 
L 126.493643 93.718283 
L 126.581411 88.263081 
L 126.844716 94.736587 
L 127.020252 84.917224 
L 127.195789 89.499594 
L 127.283557 89.499594 
L 127.546861 94.736587 
L 127.63463 94.518379 
L 127.810166 101.791981 
L 127.897934 96.482251 
L 128.07347 82.298728 
L 128.161239 82.298728 
L 128.249007 79.098343 
L 128.336775 79.898439 
L 128.512311 77.570886 
L 128.60008 79.752967 
L 128.687848 79.607495 
L 128.775616 79.607495 
L 128.951152 75.897958 
L 129.038921 75.897958 
L 129.389993 83.389768 
L 129.477762 83.389768 
L 129.653298 90.954314 
L 129.828834 84.480808 
L 129.916603 85.862793 
L 130.004371 84.62628 
L 130.179907 81.062215 
L 130.355443 83.971656 
L 130.443212 83.680712 
L 130.618748 85.935529 
L 130.706516 85.935529 
L 130.882053 84.98996 
L 130.969821 85.35364 
L 131.145357 84.480808 
L 131.233125 89.863274 
L 131.408662 87.390249 
L 131.49643 87.899401 
L 131.584198 87.753929 
L 131.759735 84.117128 
L 131.847503 84.117128 
L 131.935271 84.335336 
L 132.110807 85.935529 
L 132.286344 80.625799 
L 132.46188 79.171079 
L 132.637417 79.171079 
L 132.812953 78.516455 
L 132.900721 76.04343 
L 132.988489 79.171079 
L 133.164026 78.080038 
L 133.339562 77.643622 
L 133.602867 71.170117 
L 133.690635 72.042949 
L 133.866171 76.04343 
L 134.041708 75.461542 
L 134.129476 75.752486 
L 134.217244 75.388806 
L 134.480549 72.697573 
L 134.656085 77.207206 
L 134.743853 76.988998 
L 134.831621 74.95239 
L 135.007158 77.49815 
L 135.182694 78.880135 
L 135.270462 78.880135 
L 135.35823 83.244296 
L 135.445999 82.880616 
L 135.533767 83.462504 
L 135.621535 82.662408 
L 135.797071 86.226473 
L 136.060376 76.40711 
L 136.148144 76.261638 
L 136.235912 79.243815 
L 136.323681 76.188902 
L 136.411449 79.752967 
L 136.499217 76.261638 
L 136.674753 79.316551 
L 136.762522 79.607495 
L 136.85029 79.389287 
L 136.938058 82.371464 
L 137.025826 82.298728 
L 137.113594 82.298728 
L 137.289131 88.263081 
L 137.376899 88.408553 
L 137.552435 95.245739 
L 137.727972 94.081963 
L 137.81574 94.081963 
L 137.903508 95.391211 
L 137.991276 95.100267 
L 138.166813 95.100267 
L 138.342349 93.063658 
L 138.517885 99.464428 
L 138.605654 97.718764 
L 138.693422 98.300652 
L 138.868958 91.317994 
L 138.956726 87.608457 
L 139.044495 88.117609 
L 139.132263 87.317513 
L 139.395567 94.809323 
L 139.571104 92.772714 
L 139.658872 97.718764 
L 139.74664 97.646028 
L 139.834408 97.646028 
L 139.922177 97.136876 
L 140.097713 91.899882 
L 140.185481 91.681674 
L 140.273249 92.11809 
L 140.361017 93.136394 
L 140.536554 92.699978 
L 140.624322 92.699978 
L 140.799858 91.827146 
L 140.887627 91.972618 
L 141.063163 91.899882 
L 141.150931 91.899882 
L 141.326468 85.862793 
L 141.502004 85.426376 
L 141.589772 85.426376 
L 141.67754 84.62628 
L 141.765309 82.371464 
L 141.853077 84.553544 
L 141.940845 80.916743 
L 142.028613 81.062215 
L 142.116381 80.553063 
L 142.379686 87.608457 
L 142.555222 80.334855 
L 142.730759 80.334855 
L 142.906295 83.026088 
L 142.994063 83.026088 
L 143.1696 87.244777 
L 143.345136 83.607976 
L 143.520672 85.426376 
L 143.608441 85.426376 
L 143.783977 85.644584 
L 143.959513 85.062696 
L 144.047282 85.062696 
L 144.310586 84.553544 
L 144.573891 86.444681 
L 144.661659 86.371945 
L 144.837195 86.953833 
L 144.924964 85.935529 
L 145.012732 86.008265 
L 145.1005 86.153737 
L 145.188268 89.645066 
L 145.363804 88.117609 
L 145.451573 93.645547 
L 145.539341 93.500075 
L 145.714877 93.645547 
L 145.890414 91.39073 
L 145.978182 91.39073 
L 146.153718 86.881097 
L 146.241486 86.517417 
L 146.329255 83.607976 
L 146.504791 86.226473 
L 146.592559 86.299209 
L 146.680327 87.026569 
L 146.855864 91.827146 
L 147.0314 92.045354 
L 147.119168 92.045354 
L 147.294705 92.336298 
L 147.382473 93.20913 
L 147.470241 93.063658 
L 147.558009 92.627242 
L 147.645777 93.281867 
L 147.909082 92.48177 
L 147.99685 92.336298 
L 148.084618 92.627242 
L 148.172387 90.226954 
L 148.347923 95.609419 
L 148.435691 95.463947 
L 148.523459 94.372907 
L 148.611228 94.445643 
L 148.874532 94.081963 
L 148.9623 94.081963 
L 149.050069 94.663851 
L 149.137837 94.372907 
L 149.225605 94.736587 
L 149.48891 90.736106 
L 149.664446 92.84545 
L 150.278823 82.662408 
L 150.45436 92.990922 
L 150.629896 89.717802 
L 150.980969 89.645066 
L 151.068737 84.189864 
L 151.156505 85.862793 
L 151.244273 83.753448 
L 151.332042 83.971656 
L 151.770883 85.499112 
L 151.946419 85.499112 
L 152.034187 86.444681 
L 152.297492 79.607495 
L 152.473028 81.498631 
L 152.560796 81.353159 
L 152.648564 79.607495 
L 152.824101 83.317032 
L 152.999637 83.317032 
L 153.087405 83.53524 
L 153.262942 83.317032 
L 153.526246 84.044392 
L 153.614015 83.753448 
L 153.965087 75.534278 
L 154.052856 75.825222 
L 154.140624 82.662408 
L 154.228392 81.789575 
L 154.579465 93.136394 
L 154.667233 93.572811 
L 154.755001 97.282348 
L 154.842769 96.773195 
L 154.930537 90.081482 
L 155.018306 92.263562 
L 155.106074 91.972618 
L 155.193842 90.517898 
L 155.28161 91.172522 
L 155.369378 89.57233 
L 155.544915 96.627723 
L 155.632683 93.136394 
L 155.720451 93.936491 
L 155.808219 94.518379 
L 155.983756 91.39073 
L 156.071524 91.39073 
L 156.422597 82.153256 
L 156.598133 85.280904 
L 156.685901 85.499112 
L 156.77367 85.280904 
L 156.861438 88.044873 
L 156.949206 87.317513 
L 157.036974 87.317513 
L 157.124742 83.971656 
L 157.212511 84.699016 
L 157.300279 84.553544 
L 157.475815 81.862311 
L 157.563583 82.007784 
L 157.651351 84.480808 
L 157.73912 84.408072 
L 157.914656 80.916743 
L 158.002424 79.607495 
L 158.090192 80.334855 
L 158.177961 80.262119 
L 158.353497 77.425414 
L 158.529033 77.49815 
L 158.616802 77.49815 
L 158.792338 78.007302 
L 158.880106 76.843526 
L 159.055643 77.352678 
L 159.318947 74.95239 
L 159.406715 75.097862 
L 159.494484 75.243334 
L 159.67002 77.789094 
L 159.757788 77.570886 
L 159.845556 77.643622 
L 160.108861 79.316551 
L 160.196629 77.279942 
L 160.284397 77.570886 
L 160.459934 77.49815 
L 160.547702 73.206725 
L 160.723238 77.49815 
L 160.811006 77.49815 
L 160.898775 78.007302 
L 161.162079 77.352678 
L 161.337616 77.279942 
L 161.425384 72.188421 
L 161.513152 72.261157 
L 161.60092 71.897477 
L 161.688688 72.406629 
L 161.776457 72.261157 
L 162.039761 73.352197 
L 162.215298 73.352197 
L 162.303066 73.861349 
L 162.478602 73.643141 
L 162.56637 73.788613 
L 162.654138 72.042949 
L 162.829675 76.988998 
L 163.092979 72.261157 
L 163.180748 72.406629 
L 163.268516 73.715877 
L 163.444052 69.788132 
L 163.53182 69.351716 
L 163.707357 70.079076 
L 163.795125 68.9153 
L 163.970661 70.297284 
L 164.05843 70.224548 
L 164.146198 70.660965 
L 164.321734 70.515492 
L 164.497271 72.188421 
L 164.672807 73.352197 
L 164.760575 73.788613 
L 164.848343 77.352678 
L 164.936111 77.061734 
L 165.111648 77.13447 
L 165.199416 76.334374 
L 165.287184 76.625318 
L 165.462721 73.570405 
L 165.638257 75.170598 
L 165.98933 74.297765 
L 166.077098 74.734182 
L 166.164866 74.443238 
L 166.340403 74.58871 
L 166.603707 73.643141 
L 166.779244 75.607014 
L 166.867012 69.424452 
L 166.95478 70.224548 
L 167.042548 70.515492 
L 167.130316 70.297284 
L 167.305853 71.824741 
L 167.832462 71.824741 
L 167.92023 61.05981 
L 168.007998 62.369058 
L 168.095766 59.750562 
L 168.271303 61.132546 
L 168.359071 61.496226 
L 168.622376 57.204801 
L 168.797912 64.405667 
L 168.88568 64.405667 
L 168.973448 64.260195 
L 169.061217 64.332931 
L 169.236753 62.005378 
L 169.412289 61.714434 
L 169.500058 62.223586 
L 169.675594 58.295841 
L 169.763362 61.859906 
L 169.85113 61.78717 
L 169.938898 61.714434 
L 170.114435 63.314627 
L 170.289971 57.495745 
L 170.377739 57.641217 
L 170.641044 61.350754 
L 170.728812 57.204801 
L 170.904349 62.87821 
L 171.079885 62.805474 
L 171.167653 63.678307 
L 171.255421 63.532835 
L 171.34319 62.078114 
L 171.518726 62.587266 
L 171.694262 62.587266 
L 171.782031 66.951428 
L 171.869799 65.351235 
L 172.133103 72.770309 
L 172.484176 60.768866 
L 172.571944 61.05981 
L 172.659712 61.05981 
L 172.747481 59.459618 
L 173.098553 79.316551 
L 173.625163 71.533797 
L 173.888467 70.079076 
L 174.064004 70.224548 
L 174.151772 70.00634 
L 174.23954 69.424452 
L 174.502845 75.388806 
L 174.678381 76.988998 
L 174.766149 76.988998 
L 174.853917 80.407591 
L 174.941685 78.952871 
L 175.029454 79.243815 
L 175.20499 79.098343 
L 175.380526 80.844007 
L 175.468295 80.844007 
L 175.556063 74.95239 
L 175.643831 75.534278 
L 175.731599 74.95239 
L 175.819367 77.934566 
L 175.907136 84.844488 
L 176.082672 81.789575 
L 176.258208 81.280423 
L 176.609281 63.678307 
L 176.784818 63.678307 
L 177.574731 78.661927 
L 177.750268 78.589191 
L 177.838036 75.752486 
L 178.013572 77.352678 
L 178.189109 78.225511 
L 178.540181 73.133989 
L 178.715718 71.461061 
L 178.803486 71.606533 
L 178.891254 72.261157 
L 178.979022 74.879654 
L 179.066791 74.297765 
L 179.242327 74.515974 
L 179.505631 73.570405 
L 179.5934 73.570405 
L 179.681168 74.079557 
L 179.768936 73.424933 
L 179.856704 74.297765 
L 179.944472 73.061253 
L 180.032241 73.934085 
L 180.120009 76.116166 
L 180.207777 75.970694 
L 180.295545 71.970213 
L 180.383313 74.006821 
L 180.471082 73.788613 
L 180.646618 76.261638 
L 180.734386 76.188902 
L 180.997691 76.116166 
L 181.173227 72.843045 
L 181.348764 78.516455 
L 181.436532 77.86183 
L 181.5243 76.479846 
L 181.787605 66.878692 
L 181.875373 66.805956 
L 182.050909 67.024164 
L 182.226445 69.424452 
L 182.314214 67.751524 
L 182.401982 68.042468 
L 182.577518 68.406148 
L 182.665286 67.751524 
L 182.753055 67.969732 
L 182.840823 69.64266 
L 183.104127 62.805474 
L 183.191896 62.950946 
L 183.542968 63.969251 
L 183.718505 65.496707 
L 183.894041 63.314627 
L 183.981809 64.041987 
L 184.069578 64.041987 
L 184.245114 64.914819 
L 184.508418 65.860387 
L 184.596187 65.933123 
L 184.683955 65.787651 
L 185.035028 77.570886 
L 185.122796 75.607014 
L 185.298332 78.589191 
L 185.473869 76.334374 
L 185.561637 78.225511 
L 185.649405 83.680712 
L 185.737173 83.244296 
L 185.91271 86.153737 
L 186.088246 87.172041 
L 186.176014 86.299209 
L 186.351551 86.735625 
L 186.527087 85.280904 
L 186.614855 86.881097 
L 186.702623 86.662889 
L 186.87816 87.244777 
L 187.053696 86.662889 
L 187.141464 86.953833 
L 187.229232 86.808361 
L 187.404769 85.35364 
L 187.492537 85.35364 
L 187.755842 95.973099 
L 187.931378 95.900363 
L 188.019146 92.918186 
L 188.106914 93.500075 
L 188.370219 95.973099 
L 188.545755 99.682636 
L 188.633524 99.537164 
L 188.721292 100.264524 
L 188.80906 98.446124 
L 188.896828 98.955276 
L 188.984596 98.809804 
L 189.072365 99.682636 
L 189.160133 98.88254 
L 189.247901 99.24622 
L 189.335669 89.790538 
L 189.423437 90.008746 
L 189.511205 89.93601 
L 189.598974 93.427339 
L 189.686742 92.84545 
L 189.862278 93.20913 
L 189.950046 97.718764 
L 190.037815 97.573292 
L 190.125583 98.15518 
L 190.213351 97.864236 
L 190.301119 93.791019 
L 190.388887 96.773195 
L 190.476656 96.554987 
L 190.564424 94.954795 
L 190.652192 95.318475 
L 190.827728 95.682155 
L 190.915497 95.536683 
L 191.266569 94.518379 
L 191.442106 95.027531 
L 191.529874 90.808842 
L 191.617642 95.245739 
L 191.70541 93.427339 
L 191.793179 93.572811 
L 191.968715 92.627242 
L 192.232019 92.627242 
L 192.319788 95.609419 
L 192.407556 93.281867 
L 192.583092 97.136876 
L 192.758629 96.700459 
L 192.846397 96.773195 
L 192.934165 96.991403 
L 193.021933 91.827146 
L 193.109701 91.972618 
L 193.285238 93.645547 
L 193.373006 93.645547 
L 193.460774 93.281867 
L 193.636311 89.281385 
L 193.724079 89.281385 
L 193.899615 91.172522 
L 194.075152 90.154218 
L 194.16292 90.808842 
L 194.338456 90.29969 
L 194.513992 90.29969 
L 194.777297 87.026569 
L 194.865065 86.735625 
L 194.952833 85.280904 
L 195.040602 85.499112 
L 195.12837 85.717321 
L 195.216138 87.317513 
L 195.567211 80.916743 
L 195.742747 80.480327 
L 196.006052 75.825222 
L 196.09382 78.443719 
L 196.357125 75.461542 
L 196.444893 76.04343 
L 196.532661 89.135913 
L 196.620429 88.990441 
L 196.708197 85.571848 
L 196.795965 88.190345 
L 196.971502 86.153737 
L 197.147038 87.826665 
L 197.234806 87.826665 
L 197.410343 86.662889 
L 197.498111 86.735625 
L 197.673647 87.826665 
L 197.849184 86.517417 
L 197.936952 86.808361 
L 198.112488 86.444681 
L 198.288025 80.698535 
L 198.463561 80.407591 
L 198.551329 80.407591 
L 198.639098 80.262119 
L 198.814634 80.844007 
L 199.077939 79.171079 
L 199.165707 79.171079 
L 199.341243 89.645066 
L 199.604548 93.718283 
L 199.780084 89.499594 
L 199.867852 89.57233 
L 200.131157 95.391211 
L 200.218925 94.591115 
L 200.394461 97.718764 
L 200.48223 98.082444 
L 200.657766 94.154699 
L 200.921071 90.808842 
L 201.008839 90.808842 
L 201.096607 91.172522 
L 201.184375 97.136876 
L 201.272143 96.627723 
L 201.359912 98.009708 
L 201.44768 96.773195 
L 201.623216 101.573773 
L 201.974289 94.154699 
L 202.062057 93.20913 
L 202.237593 94.591115 
L 202.325362 94.081963 
L 202.41313 94.954795 
L 202.588666 90.808842 
L 202.676434 90.081482 
L 202.764203 84.553544 
L 202.851971 85.062696 
L 202.939739 85.062696 
L 203.115275 83.89892 
L 203.466348 83.971656 
L 203.641885 80.480327 
L 203.729653 80.989479 
L 203.817421 80.916743 
L 203.905189 80.916743 
L 204.080726 77.061734 
L 204.168494 77.13447 
L 204.34403 80.698535 
L 204.431798 79.025607 
L 204.607335 81.425895 
L 204.695103 81.425895 
L 204.782871 77.425414 
L 204.870639 77.49815 
L 205.046176 79.752967 
L 205.133944 79.752967 
L 205.221712 79.898439 
L 205.30948 79.025607 
L 205.485017 75.170598 
L 205.572785 75.825222 
L 205.748321 79.825703 
L 205.836089 79.680231 
L 206.011626 79.825703 
L 206.187162 79.898439 
L 206.362699 84.62628 
L 206.626003 77.86183 
L 206.801539 77.86183 
L 206.977076 79.171079 
L 207.064844 79.171079 
L 207.152612 80.334855 
L 207.24038 84.62628 
L 207.328149 82.4442 
L 207.503685 86.081001 
L 207.591453 86.226473 
L 207.679221 85.499112 
L 207.854758 82.007784 
L 207.942526 86.081001 
L 208.030294 85.862793 
L 208.293599 88.917705 
L 208.381367 88.917705 
L 208.469135 87.317513 
L 208.556903 87.462985 
L 208.644672 87.026569 
L 208.820208 83.53524 
L 208.907976 83.53524 
L 208.995744 83.389768 
L 209.171281 79.752967 
L 209.434585 79.752967 
L 209.610122 77.207206 
L 209.69789 78.443719 
L 209.785658 73.279461 
L 209.873426 73.352197 
L 209.961194 73.352197 
L 210.136731 72.915781 
L 210.312267 66.224067 
L 210.487804 68.478884 
L 210.66334 65.569443 
L 210.926645 75.025126 
L 211.014413 75.025126 
L 211.189949 72.915781 
L 211.365486 73.352197 
L 211.453254 71.606533 
L 211.62879 72.261157 
L 211.804326 72.261157 
L 211.892095 72.406629 
L 212.067631 74.879654 
L 212.155399 73.206725 
L 212.330936 74.95239 
L 212.418704 74.879654 
L 212.59424 82.007784 
L 212.682008 82.007784 
L 212.769777 81.644103 
L 212.857545 81.862311 
L 213.033081 81.716839 
L 213.208618 77.352678 
L 213.471922 81.498631 
L 213.55969 81.498631 
L 213.735227 78.661927 
L 213.822995 78.952871 
L 214.174068 70.588229 
L 214.261836 70.588229 
L 214.349604 70.37002 
L 214.52514 71.170117 
L 214.700677 71.170117 
L 214.788445 71.315589 
L 214.963981 72.624837 
L 215.05175 72.770309 
L 215.227286 71.461061 
L 215.315054 71.388325 
L 215.841663 61.278018 
L 215.929432 63.023683 
L 216.104968 67.533316 
L 216.192736 63.532835 
L 216.368273 65.133027 
L 216.456041 64.769347 
L 216.719345 71.388325 
L 216.807113 74.152293 
L 216.894882 73.788613 
L 217.070418 75.970694 
L 217.158186 77.352678 
L 217.245954 77.207206 
L 217.333723 77.13447 
L 217.421491 76.698054 
L 217.597027 74.734182 
L 217.772564 81.207687 
L 217.860332 81.789575 
L 218.035868 78.880135 
L 218.123636 78.880135 
L 218.211405 79.243815 
L 218.386941 82.225992 
L 218.474709 82.589672 
L 218.650246 82.4442 
L 219.001318 73.061253 
L 219.264623 78.225511 
L 219.352391 78.080038 
L 219.527927 79.098343 
L 219.615696 78.661927 
L 219.703464 79.316551 
L 219.879 70.733701 
L 219.966768 73.643141 
L 220.054537 83.098824 
L 220.142305 82.153256 
L 220.230073 84.189864 
L 220.405609 83.317032 
L 220.493378 86.517417 
L 220.581146 86.371945 
L 220.668914 87.099305 
L 220.756682 84.699016 
L 220.84445 85.135432 
L 220.932219 84.117128 
L 221.019987 84.844488 
L 221.195523 80.916743 
L 221.37106 80.844007 
L 221.546596 77.13447 
L 221.634364 76.479846 
L 221.722132 73.352197 
L 221.8099 78.007302 
L 221.897669 77.716358 
L 221.985437 77.570886 
L 222.160973 77.934566 
L 222.248741 75.607014 
L 222.33651 76.334374 
L 222.424278 75.897958 
L 222.512046 77.13447 
L 222.599814 76.843526 
L 222.687582 76.625318 
L 222.863119 78.734663 
L 223.038655 78.880135 
L 223.214192 80.480327 
L 223.30196 81.134951 
L 223.389728 80.916743 
L 223.565264 85.571848 
L 223.653033 82.4442 
L 223.740801 82.880616 
L 223.828569 82.880616 
L 223.916337 83.244296 
L 224.004105 81.498631 
L 224.091873 90.29969 
L 224.179642 89.93601 
L 224.26741 87.681193 
L 224.442946 90.226954 
L 224.706251 91.899882 
L 224.794019 91.608938 
L 224.881787 92.045354 
L 225.057324 90.008746 
L 225.145092 90.154218 
L 225.23286 91.02705 
L 225.408396 84.699016 
L 225.496165 87.390249 
L 225.671701 84.553544 
L 225.759469 84.553544 
L 225.935006 83.026088 
L 226.022774 83.607976 
L 226.110542 85.35364 
L 226.19831 85.280904 
L 226.286078 85.208168 
L 226.373846 86.881097 
L 226.461615 85.135432 
L 226.549383 85.208168 
L 226.724919 85.208168 
L 226.900456 84.844488 
L 226.988224 87.462985 
L 227.16376 79.752967 
L 227.251528 79.752967 
L 227.514833 72.115685 
L 227.690369 72.843045 
L 227.778138 72.843045 
L 227.865906 72.624837 
L 227.953674 73.570405 
L 228.041442 71.824741 
L 228.216979 72.697573 
L 228.304747 72.697573 
L 228.480283 71.752005 
L 228.568051 68.697092 
L 228.65582 69.206244 
L 228.743588 69.351716 
L 228.919124 72.770309 
L 229.09466 73.497669 
L 229.357965 72.042949 
L 229.445733 72.042949 
L 229.533501 70.660965 
L 229.709038 71.679269 
L 229.796806 66.733219 
L 229.972342 74.297765 
L 230.060111 74.225029 
L 230.235647 74.806918 
L 230.323415 74.515974 
L 230.411183 69.569924 
L 230.498952 71.242853 
L 230.58672 70.879173 
L 230.762256 71.752005 
L 230.850024 70.733701 
L 230.937793 73.279461 
L 231.113329 71.024645 
L 231.201097 74.370502 
L 231.376633 73.206725 
L 231.464402 68.988036 
L 231.55217 69.206244 
L 231.639938 69.569924 
L 231.727706 67.82426 
L 231.815474 60.405186 
L 231.903243 61.78717 
L 232.078779 64.405667 
L 232.254315 61.205282 
L 232.342084 61.205282 
L 232.429852 59.823298 
L 232.51762 59.96877 
L 232.693156 59.96877 
L 232.780925 60.186978 
L 233.307534 70.442756 
L 233.395302 68.842564 
L 233.48307 62.51453 
L 233.570838 62.587266 
L 233.658607 61.278018 
L 233.746375 62.660002 
L 233.834143 62.369058 
L 234.097447 63.314627 
L 234.185216 61.278018 
L 234.272984 61.641698 
L 234.360752 61.641698 
L 234.44852 61.859906 
L 234.624057 59.24141 
L 234.799593 60.259714 
L 234.887361 58.950465 
L 234.975129 59.677826 
L 235.150666 56.986593 
L 235.41397 54.513568 
L 235.501739 54.513568 
L 235.589507 55.095456 
L 235.677275 62.441794 
L 235.765043 62.15085 
L 235.94058 63.314627 
L 236.116116 63.314627 
L 236.203884 62.369058 
L 236.37942 65.642179 
L 236.554957 65.860387 
L 236.642725 61.132546 
L 236.90603 70.079076 
L 236.993798 71.024645 
L 237.081566 70.951909 
L 237.257102 70.37002 
L 237.344871 70.660965 
L 237.608175 66.442275 
L 237.695943 67.387844 
L 237.783712 69.933604 
L 237.87148 69.788132 
L 237.959248 69.351716 
L 238.047016 73.424933 
L 238.134784 73.206725 
L 238.398089 66.587747 
L 238.573625 66.951428 
L 238.924698 72.770309 
L 239.100234 73.570405 
L 239.188003 73.861349 
L 239.275771 73.061253 
L 239.363539 73.133989 
L 239.451307 72.843045 
L 239.626844 71.897477 
L 239.714612 71.897477 
L 239.80238 70.297284 
L 239.890148 70.37002 
L 239.977916 70.297284 
L 240.065685 69.860868 
L 240.416757 77.279942 
L 240.504526 77.061734 
L 240.680062 74.079557 
L 240.76783 74.370502 
L 241.031135 65.714915 
L 241.206671 68.042468 
L 241.294439 68.042468 
L 241.469976 69.715396 
L 241.73328 60.550658 
L 241.996585 57.132065 
L 242.084353 57.423009 
L 242.259889 60.623394 
L 242.435426 60.623394 
L 242.523194 58.586785 
L 242.610962 59.750562 
L 242.69873 59.60509 
L 242.786499 59.60509 
L 242.962035 61.496226 
L 243.137571 59.24141 
L 243.313108 62.005378 
L 243.488644 62.51453 
L 243.576412 63.678307 
L 243.66418 63.532835 
L 243.751949 63.314627 
L 243.839717 65.496707 
L 243.927485 65.133027 
L 244.015253 65.133027 
L 244.19079 63.605571 
L 244.278558 63.460099 
L 244.366326 63.605571 
L 244.454094 63.387363 
L 244.541862 63.605571 
L 244.629631 61.05981 
L 244.717399 63.387363 
L 244.805167 63.314627 
L 245.15624 56.186497 
L 245.244008 55.968289 
L 245.331776 55.3864 
L 245.419544 55.459137 
L 245.507313 55.531873 
L 245.595081 56.113761 
L 245.682849 54.804512 
L 245.946154 56.186497 
L 246.033922 55.459137 
L 246.209458 53.568 
L 246.297226 54.077152 
L 246.384994 55.677345 
L 246.560531 54.368096 
L 246.736067 60.114242 
L 246.823835 60.405186 
L 246.999372 64.551139 
L 247.08714 64.551139 
L 247.262676 64.187459 
L 247.438213 63.823779 
L 247.525981 63.605571 
L 247.789286 69.569924 
L 247.877054 68.988036 
L 248.140358 68.988036 
L 248.403663 62.950946 
L 248.491431 63.387363 
L 248.579199 62.805474 
L 248.842504 68.55162 
L 248.930272 68.042468 
L 249.193577 63.169155 
L 249.281345 63.387363 
L 249.544649 61.932642 
L 249.632418 62.15085 
L 249.807954 60.33245 
L 249.895722 60.477922 
L 250.159027 59.314146 
L 250.422331 65.351235 
L 250.5101 65.351235 
L 250.773404 72.261157 
L 250.861172 72.188421 
L 250.94894 66.951428 
L 251.036709 69.206244 
L 251.124477 67.315108 
L 251.212245 73.715877 
L 251.387781 70.37002 
L 251.563318 70.151812 
L 251.651086 70.588229 
L 251.826622 68.478884 
L 251.914391 68.115204 
L 252.002159 65.278499 
L 252.089927 71.170117 
L 252.177695 70.806437 
L 252.265463 70.806437 
L 252.353232 67.46058 
L 252.441 68.18794 
L 252.528768 67.387844 
L 252.616536 67.46058 
L 252.704304 67.46058 
L 252.792073 67.315108 
L 252.879841 69.27898 
L 252.967609 64.114723 
L 253.143145 67.533316 
L 253.230914 58.586785 
L 253.318682 58.659521 
L 253.40645 58.659521 
L 253.494218 57.495745 
L 253.581986 57.568481 
L 253.669754 59.095937 
L 253.757523 64.987555 
L 253.845291 60.405186 
L 253.933059 60.69613 
L 254.020827 60.550658 
L 254.108595 57.495745 
L 254.196364 57.568481 
L 254.3719 57.277537 
L 254.459668 55.895553 
L 254.635205 56.404705 
L 254.810741 56.550177 
L 254.986277 60.259714 
L 255.161814 59.532354 
L 255.249582 59.532354 
L 255.425118 56.768385 
L 255.512887 59.24141 
L 255.600655 59.023201 
L 255.688423 59.023201 
L 255.776191 58.586785 
L 256.039496 70.951909 
L 256.127264 70.879173 
L 256.3028 70.879173 
L 256.390568 71.897477 
L 256.566105 68.55162 
L 256.741641 68.55162 
L 256.829409 72.552101 
L 256.917178 71.606533 
L 257.004946 71.097381 
L 257.180482 69.933604 
L 257.356019 70.079076 
L 257.443787 69.497188 
L 257.707091 75.461542 
L 257.79486 73.643141 
L 257.882628 75.097862 
L 258.058164 78.589191 
L 258.321469 78.516455 
L 258.497005 78.807399 
L 258.584773 78.661927 
L 258.848078 80.771271 
L 258.935846 84.2626 
L 259.023614 83.89892 
L 259.199151 83.17156 
L 259.286919 84.553544 
L 259.374687 81.935048 
L 259.550223 86.735625 
L 259.72576 86.590153 
L 259.813528 86.590153 
L 259.989064 92.918186 
L 260.076833 89.645066 
L 260.252369 91.536202 
L 260.427905 91.536202 
L 260.515674 90.808842 
L 260.603442 87.608457 
L 260.778978 91.972618 
L 260.866746 91.972618 
L 260.954514 88.190345 
L 261.130051 93.354603 
L 261.217819 92.918186 
L 261.393355 85.935529 
L 261.481124 88.190345 
L 261.65666 86.735625 
L 261.832196 80.043911 
L 261.919965 79.389287 
L 262.007733 79.462023 
L 262.183269 79.462023 
L 262.271037 75.097862 
L 262.358806 78.589191 
L 262.534342 74.734182 
L 262.709878 80.116647 
L 262.885415 80.480327 
L 263.060951 75.67975 
L 263.324256 85.790057 
L 263.499792 79.607495 
L 263.675328 78.516455 
L 263.938633 78.516455 
L 264.026401 78.080038 
L 264.201938 79.607495 
L 264.289706 79.462023 
L 264.377474 79.752967 
L 264.465242 79.389287 
L 264.55301 79.607495 
L 264.728547 81.207687 
L 264.816315 81.353159 
L 264.991851 81.862311 
L 265.07962 82.225992 
L 265.518461 73.934085 
L 265.693997 73.934085 
L 265.869533 73.424933 
L 265.957301 73.424933 
L 266.132838 69.060772 
L 266.220606 71.315589 
L 266.396142 70.37002 
L 266.483911 70.37002 
L 266.571679 65.860387 
L 266.747215 72.552101 
L 266.834983 72.624837 
L 267.01052 78.807399 
L 267.186056 71.388325 
L 267.273824 71.388325 
L 267.361593 71.824741 
L 267.449361 69.933604 
L 267.537129 70.297284 
L 267.624897 70.297284 
L 267.712665 67.315108 
L 267.888202 70.37002 
L 267.97597 71.097381 
L 268.151506 74.443238 
L 268.239274 76.698054 
L 268.327043 76.261638 
L 268.414811 76.261638 
L 268.502579 76.698054 
L 268.678115 75.897958 
L 268.765884 76.698054 
L 268.853652 76.479846 
L 269.116956 75.67975 
L 269.292493 77.279942 
L 269.468029 75.243334 
L 269.643566 75.31607 
L 269.731334 75.31607 
L 269.819102 76.188902 
L 269.90687 71.533797 
L 269.994638 71.752005 
L 270.170175 74.079557 
L 270.345711 74.079557 
L 270.433479 73.861349 
L 270.609016 74.006821 
L 270.696784 74.006821 
L 270.784552 73.497669 
L 271.047857 73.934085 
L 271.135625 76.188902 
L 271.311161 75.31607 
L 271.398929 74.806918 
L 271.486698 72.988517 
L 271.662234 75.461542 
L 271.750002 75.31607 
L 271.925539 83.607976 
L 272.013307 83.53524 
L 272.188843 77.643622 
L 272.539916 83.53524 
L 272.627684 83.317032 
L 272.803221 85.135432 
L 272.890989 83.607976 
L 272.978757 90.517898 
L 273.066525 90.226954 
L 273.154293 90.226954 
L 273.242061 94.300171 
L 273.32983 94.227435 
L 273.417598 93.936491 
L 273.505366 97.42782 
L 273.593134 96.482251 
L 273.768671 97.209612 
L 273.944207 101.282829 
L 274.207512 100.70094 
L 274.383048 103.755853 
L 274.558584 104.483213 
L 274.646353 104.483213 
L 274.821889 101.210093 
L 274.909657 101.573773 
L 274.997425 101.282829 
L 275.172962 90.590634 
L 275.26073 90.590634 
L 275.611803 94.009227 
L 275.699571 90.881578 
L 275.875107 81.935048 
L 275.962875 82.225992 
L 276.050644 80.189383 
L 276.138412 71.097381 
L 276.401716 79.971175 
L 276.489485 79.898439 
L 276.577253 80.043911 
L 276.752789 84.335336 
L 276.928326 84.844488 
L 277.103862 93.500075 
L 277.454935 86.735625 
L 277.718239 86.735625 
L 277.806008 86.953833 
L 277.893776 81.571367 
L 277.981544 82.371464 
L 278.332617 91.099786 
L 278.508153 90.881578 
L 278.595921 87.753929 
L 278.683689 88.117609 
L 278.771458 88.626761 
L 278.946994 87.972137 
L 279.034762 87.899401 
L 279.210299 86.444681 
L 279.298067 86.444681 
L 279.473603 83.971656 
L 279.561371 83.971656 
L 279.64914 85.426376 
L 279.736908 85.35364 
L 279.824676 83.753448 
L 279.912444 84.117128 
L 280.000212 83.244296 
L 280.175749 87.172041 
L 280.263517 87.172041 
L 280.526821 81.280423 
L 280.61459 81.207687 
L 280.877894 87.681193 
L 281.053431 92.48177 
L 281.141199 92.336298 
L 281.228967 92.699978 
L 281.316735 90.517898 
L 281.404503 92.84545 
L 281.58004 92.190826 
L 281.755576 89.281385 
L 281.843344 90.372426 
L 282.106649 95.173003 
L 282.194417 95.245739 
L 282.369954 95.682155 
L 282.457722 95.536683 
L 282.721026 87.026569 
L 282.896563 90.226954 
L 282.984331 90.226954 
L 283.072099 89.93601 
L 283.159867 87.317513 
L 283.247635 88.554025 
L 283.423172 91.75441 
L 283.51094 92.554506 
L 283.598708 92.045354 
L 283.686476 92.772714 
L 283.862013 89.863274 
L 283.949781 89.790538 
L 284.125317 87.390249 
L 284.300854 87.462985 
L 284.388622 87.608457 
L 284.47639 87.462985 
L 284.564158 93.427339 
L 284.651927 90.881578 
L 284.739695 91.536202 
L 284.827463 91.536202 
L 284.915231 89.499594 
L 285.002999 91.972618 
L 285.178536 87.099305 
L 285.354072 82.007784 
L 285.44184 85.35364 
L 285.617377 81.062215 
L 285.792913 78.589191 
L 285.968449 78.589191 
L 286.143986 75.31607 
L 286.319522 77.789094 
L 286.582827 77.425414 
L 286.758363 79.316551 
L 286.846131 86.371945 
L 286.9339 86.226473 
L 287.109436 88.990441 
L 287.197204 88.990441 
L 287.460509 88.117609 
L 287.723813 88.044873 
L 287.89935 89.208649 
L 287.987118 89.208649 
L 288.074886 88.772233 
L 288.162654 84.917224 
L 288.250422 86.081001 
L 288.425959 81.134951 
L 288.513727 81.134951 
L 288.689263 81.571367 
L 288.777032 81.425895 
L 289.040336 79.971175 
L 289.128104 77.86183 
L 289.303641 86.371945 
L 289.391409 87.026569 
L 289.479177 86.881097 
L 289.566945 89.426857 
L 289.742482 86.444681 
L 289.918018 87.172041 
L 290.005786 86.808361 
L 290.093555 87.099305 
L 290.181323 86.590153 
L 290.269091 86.881097 
L 290.444627 85.935529 
L 290.620164 91.972618 
L 290.707932 94.081963 
L 290.883468 92.336298 
L 291.059005 93.281867 
L 291.146773 93.645547 
L 291.322309 99.24622 
L 291.410077 99.028012 
L 291.585614 99.97358 
L 291.673382 99.828108 
L 291.848918 97.282348 
L 292.024455 105.356046 
L 292.112223 105.137838 
L 292.463296 94.009227 
L 292.638832 96.554987 
L 292.7266 96.409515 
L 292.902137 95.027531 
L 292.989905 95.318475 
L 293.165441 97.500556 
L 293.253209 96.700459 
L 293.428746 92.627242 
L 293.516514 92.627242 
L 293.69205 92.336298 
L 293.779819 93.791019 
L 293.955355 98.300652 
L 294.130891 96.991403 
L 294.21866 97.136876 
L 294.306428 96.336779 
L 294.394196 96.773195 
L 294.569732 95.609419 
L 294.745269 90.29969 
L 294.833037 90.29969 
L 295.008573 87.172041 
L 295.096342 87.172041 
L 295.18411 88.117609 
L 295.271878 84.771752 
L 295.359646 84.917224 
L 295.447414 83.53524 
L 295.535182 83.680712 
L 295.798487 83.753448 
L 295.886255 83.462504 
L 296.14956 91.463466 
L 296.237328 87.608457 
L 296.325096 87.753929 
L 296.588401 86.371945 
L 296.939474 89.717802 
L 297.027242 89.717802 
L 297.11501 90.081482 
L 297.290546 89.717802 
L 297.466083 87.462985 
L 297.641619 78.516455 
L 297.817155 75.970694 
L 297.904924 76.334374 
L 298.168228 76.04343 
L 298.519301 73.934085 
L 298.607069 70.079076 
L 298.694837 70.151812 
L 298.782606 70.951909 
L 298.870374 70.442756 
L 298.958142 70.588229 
L 299.133678 70.515492 
L 299.309215 69.860868 
L 299.396983 74.443238 
L 299.484751 72.261157 
L 299.572519 72.552101 
L 299.748056 73.279461 
L 299.835824 72.624837 
L 300.01136 73.279461 
L 300.186897 75.825222 
L 300.450201 75.825222 
L 300.801274 79.825703 
L 301.152347 80.771271 
L 301.327883 75.67975 
L 301.415651 75.097862 
L 301.591188 76.552582 
L 301.766724 68.55162 
L 301.854492 70.151812 
L 301.942261 69.933604 
L 302.117797 68.406148 
L 302.205565 68.9153 
L 302.293333 71.824741 
L 302.381102 71.752005 
L 302.46887 67.315108 
L 302.556638 67.46058 
L 302.644406 69.133508 
L 302.732174 68.9153 
L 302.819942 69.060772 
L 302.907711 71.388325 
L 303.171015 68.333412 
L 303.43432 70.879173 
L 303.522088 70.879173 
L 303.697624 69.860868 
L 303.785393 69.060772 
L 303.873161 69.715396 
L 303.960929 69.351716 
L 304.048697 69.569924 
L 304.136465 72.333893 
L 304.224234 70.588229 
L 304.487538 77.279942 
L 304.663075 76.698054 
L 305.101916 75.897958 
L 305.36522 77.86183 
L 305.452988 78.007302 
L 305.540756 77.643622 
L 305.628525 78.589191 
L 305.716293 78.516455 
L 305.804061 78.516455 
L 305.979597 75.243334 
L 306.067366 75.31607 
L 306.33067 77.86183 
L 306.506207 80.480327 
L 306.593975 80.043911 
L 306.769511 86.371945 
L 306.857279 86.299209 
L 307.032816 79.825703 
L 307.29612 84.408072 
L 307.383889 82.298728 
L 307.559425 85.426376 
L 307.647193 85.790057 
L 307.822729 85.571848 
L 307.998266 82.80788 
L 308.086034 82.80788 
L 308.26157 82.007784 
L 308.437107 79.243815 
L 308.524875 79.462023 
L 308.700411 81.862311 
L 308.78818 81.353159 
L 308.963716 81.425895 
L 309.139252 82.80788 
L 309.314789 81.789575 
L 309.402557 81.789575 
L 309.578093 84.044392 
L 309.665862 83.971656 
L 309.75363 89.208649 
L 309.929166 86.226473 
L 310.104702 90.881578 
L 310.280239 94.300171 
L 310.368007 94.300171 
L 310.455775 89.863274 
L 310.543543 90.081482 
L 310.631312 90.736106 
L 310.806848 86.444681 
L 310.894616 88.699497 
L 310.982384 88.408553 
L 311.157921 84.117128 
L 311.333457 84.553544 
L 311.421225 85.280904 
L 311.596762 83.17156 
L 311.772298 82.735144 
L 311.860066 83.971656 
L 311.947835 88.117609 
L 312.035603 80.916743 
L 312.123371 81.062215 
L 312.386676 74.515974 
L 312.562212 76.04343 
L 312.64998 75.970694 
L 312.737748 76.334374 
L 312.913285 76.188902 
L 313.001053 76.188902 
L 313.088821 75.825222 
L 313.176589 76.552582 
L 313.264357 75.243334 
L 313.352126 75.607014 
L 313.439894 82.880616 
L 313.527662 82.4442 
L 313.703198 80.625799 
L 313.878735 80.771271 
L 313.966503 81.862311 
L 314.054271 80.553063 
L 314.142039 80.771271 
L 314.229808 84.62628 
L 314.317576 79.243815 
L 314.405344 80.043911 
L 314.58088 75.825222 
L 314.756417 76.188902 
L 314.844185 76.188902 
L 315.019721 74.225029 
L 315.107489 74.152293 
L 315.283026 68.55162 
L 315.54633 68.55162 
L 315.721867 68.697092 
L 315.809635 69.64266 
L 315.897403 69.351716 
L 315.985171 70.151812 
L 316.07294 73.133989 
L 316.248476 72.261157 
L 316.424012 71.970213 
L 316.599549 71.970213 
L 316.687317 71.388325 
L 316.862853 79.462023 
L 316.950622 80.262119 
L 317.126158 84.117128 
L 317.213926 83.462504 
L 317.301694 86.808361 
L 317.389463 85.935529 
L 317.564999 85.499112 
L 317.828303 76.116166 
L 318.00384 84.553544 
L 318.091608 84.98996 
L 318.179376 82.153256 
L 318.267144 84.335336 
L 318.354913 84.117128 
L 318.442681 84.189864 
L 318.618217 83.607976 
L 318.705985 83.607976 
L 318.881522 83.971656 
L 318.96929 83.89892 
L 319.232595 82.80788 
L 319.320363 86.444681 
L 319.408131 86.153737 
L 319.495899 86.808361 
L 319.671436 85.644584 
L 319.759204 85.062696 
L 319.846972 76.116166 
L 319.93474 82.08052 
L 320.110276 79.389287 
L 320.285813 79.825703 
L 320.461349 79.825703 
L 320.549117 69.933604 
L 320.636886 70.515492 
L 320.724654 71.170117 
L 320.90019 69.788132 
L 321.075727 74.879654 
L 321.163495 74.58871 
L 321.251263 74.58871 
L 321.514568 75.67975 
L 321.690104 75.534278 
L 321.86564 74.225029 
L 321.953409 74.734182 
L 322.041177 74.443238 
L 322.128945 75.825222 
L 322.216713 75.752486 
L 322.304481 76.261638 
L 322.39225 78.080038 
L 322.567786 74.370502 
L 322.655554 74.370502 
L 322.83109 76.843526 
L 323.006627 79.025607 
L 323.094395 79.025607 
L 323.182163 79.607495 
L 323.3577 87.244777 
L 323.533236 87.462985 
L 323.708772 86.153737 
L 324.147613 84.2626 
L 324.235382 84.335336 
L 324.32315 83.17156 
L 324.586454 73.934085 
L 324.761991 74.661446 
L 324.849759 75.025126 
L 325.025295 71.388325 
L 325.113063 71.606533 
L 325.464136 86.081001 
L 325.551904 85.935529 
L 325.639673 86.008265 
L 325.727441 87.390249 
L 325.902977 86.881097 
L 326.166282 76.04343 
L 326.341818 75.607014 
L 326.429586 75.31607 
L 326.692891 77.352678 
L 326.868427 76.261638 
L 326.956196 76.261638 
L 327.043964 76.698054 
L 327.2195 78.080038 
L 327.307268 78.080038 
L 327.395036 81.280423 
L 327.482805 80.989479 
L 327.570573 81.571367 
L 327.746109 81.062215 
L 327.833877 81.062215 
L 327.921646 80.916743 
L 328.097182 76.04343 
L 328.360487 75.67975 
L 328.448255 76.04343 
L 328.536023 81.207687 
L 328.711559 74.95239 
L 328.799328 74.879654 
L 329.062632 71.170117 
L 329.1504 70.951909 
L 329.325937 74.734182 
L 329.501473 73.934085 
L 329.589241 73.934085 
L 329.67701 75.970694 
L 329.764778 74.152293 
L 329.852546 74.225029 
L 329.940314 74.661446 
L 330.11585 73.934085 
L 330.203619 74.079557 
L 330.291387 77.570886 
L 330.379155 77.425414 
L 330.554691 78.007302 
L 330.64246 77.49815 
L 330.730228 78.880135 
L 330.817996 78.807399 
L 330.905764 78.661927 
L 331.081301 79.389287 
L 331.256837 82.371464 
L 331.344605 82.880616 
L 331.695678 91.681674 
L 331.783446 88.335817 
L 331.871214 91.463466 
L 331.958983 90.954314 
L 332.134519 92.263562 
L 332.222287 93.718283 
L 332.397823 86.881097 
L 332.485592 87.172041 
L 332.661128 80.043911 
L 332.836664 77.279942 
L 332.924433 76.843526 
L 333.012201 75.534278 
L 333.187737 76.552582 
L 333.363274 70.442756 
L 333.451042 70.879173 
L 333.626578 73.061253 
L 333.802115 69.497188 
L 333.889883 69.569924 
L 334.065419 74.515974 
L 334.153187 74.297765 
L 334.240956 74.806918 
L 334.328724 74.734182 
L 334.416492 74.806918 
L 334.679797 75.31607 
L 334.767565 75.31607 
L 334.943101 68.842564 
L 335.030869 68.260676 
L 335.206406 69.060772 
L 335.294174 69.060772 
L 335.381942 68.624356 
L 335.46971 65.642179 
L 335.645247 67.0969 
L 335.733015 67.0969 
L 335.908551 69.206244 
L 335.996319 69.569924 
L 336.084088 68.624356 
L 336.171856 74.734182 
L 336.259624 73.570405 
L 336.347392 73.570405 
L 336.43516 73.206725 
L 336.610697 76.188902 
L 336.698465 76.552582 
L 336.874001 72.988517 
L 336.96177 72.988517 
L 337.049538 73.715877 
L 337.225074 71.024645 
L 337.312842 71.024645 
L 337.488379 71.170117 
L 337.663915 71.897477 
L 337.839451 66.878692 
L 337.92722 71.824741 
L 338.014988 70.951909 
L 338.102756 71.024645 
L 338.278292 73.934085 
L 338.453829 74.879654 
L 338.717133 83.17156 
L 339.068206 84.189864 
L 339.331511 74.661446 
L 339.419279 74.661446 
L 339.85812 69.788132 
L 340.033656 72.333893 
L 340.209193 72.479365 
L 340.296961 71.824741 
L 340.472497 77.49815 
L 340.560265 77.49815 
L 340.82357 76.552582 
L 340.999106 73.788613 
L 341.086875 73.715877 
L 341.174643 73.497669 
L 341.350179 76.698054 
L 341.437947 76.77079 
L 341.525716 77.279942 
L 341.613484 77.207206 
L 341.78902 75.752486 
L 341.964557 76.698054 
L 342.052325 76.04343 
L 342.227861 76.479846 
L 342.403397 78.734663 
L 342.491166 76.188902 
L 342.578934 76.625318 
L 342.666702 76.625318 
L 342.75447 76.843526 
L 342.842238 76.77079 
L 343.017775 77.716358 
L 343.193311 76.116166 
L 343.281079 76.334374 
L 343.368848 75.825222 
L 343.456616 72.770309 
L 343.71992 81.425895 
L 343.807689 80.480327 
L 343.895457 81.280423 
L 344.158761 79.534759 
L 344.24653 72.479365 
L 344.334298 72.843045 
L 344.422066 72.843045 
L 344.509834 70.733701 
L 344.68537 71.824741 
L 344.860907 70.660965 
L 344.948675 70.442756 
L 345.124211 66.733219 
L 345.21198 66.587747 
L 345.299748 66.660483 
L 345.475284 64.478403 
L 345.563052 63.751043 
L 345.738589 68.697092 
L 346.001893 67.751524 
L 346.089662 67.751524 
L 346.17743 67.606052 
L 346.265198 67.0969 
L 346.440734 70.660965 
L 346.528503 71.097381 
L 346.616271 78.080038 
L 346.791807 73.279461 
L 346.879575 73.279461 
L 347.055112 73.643141 
L 347.230648 69.788132 
L 347.406184 68.042468 
L 347.757257 68.115204 
L 347.932794 68.18794 
L 348.020562 70.588229 
L 348.10833 70.37002 
L 348.196098 64.551139 
L 348.283866 64.696611 
L 348.371635 64.696611 
L 348.459403 66.078595 
L 348.634939 73.424933 
L 348.810476 65.933123 
L 348.986012 74.58871 
L 349.249317 75.752486 
L 349.337085 75.752486 
L 349.512621 75.388806 
L 349.775926 75.388806 
L 350.03923 69.788132 
L 350.214767 66.951428 
L 350.302535 66.951428 
L 350.390303 69.715396 
L 350.478071 69.27898 
L 350.653608 68.988036 
L 350.829144 74.95239 
L 351.00468 74.734182 
L 351.092449 74.734182 
L 351.267985 73.934085 
L 351.355753 74.734182 
L 351.53129 70.00634 
L 351.706826 70.00634 
L 351.882362 67.0969 
L 351.970131 67.169636 
L 352.057899 67.024164 
L 352.145667 67.242372 
L 352.321203 60.259714 
L 352.408971 60.259714 
L 352.49674 59.095937 
L 352.584508 64.041987 
L 352.760044 61.714434 
L 352.847812 65.423971 
L 352.935581 59.60509 
L 353.023349 59.677826 
L 353.198885 59.750562 
L 353.286653 59.532354 
L 353.549958 67.678788 
L 353.637726 67.678788 
L 353.725494 71.679269 
L 353.901031 69.788132 
L 353.988799 69.788132 
L 354.076567 70.442756 
L 354.164335 67.0969 
L 354.252104 67.533316 
L 354.339872 67.0969 
L 354.515408 68.9153 
L 354.778713 58.586785 
L 354.866481 59.023201 
L 354.954249 59.023201 
L 355.042017 58.586785 
L 355.39309 66.805956 
L 355.480858 66.224067 
L 355.656395 66.224067 
L 355.831931 78.080038 
L 355.919699 80.334855 
L 356.095236 78.516455 
L 356.446308 70.37002 
L 356.534077 71.897477 
L 356.709613 68.55162 
L 356.885149 68.769828 
L 356.972917 65.060291 
L 357.060686 66.005859 
L 357.148454 66.005859 
L 357.236222 65.714915 
L 357.411758 66.442275 
L 357.587295 66.587747 
L 357.675063 66.587747 
L 357.762831 67.751524 
L 357.850599 67.606052 
L 357.938368 67.533316 
L 358.113904 67.969732 
L 358.201672 66.515011 
L 358.28944 66.733219 
L 358.377209 66.733219 
L 358.464977 67.315108 
L 358.640513 69.497188 
L 358.728281 69.424452 
L 358.81605 68.406148 
L 358.903818 68.55162 
L 358.991586 69.715396 
L 359.079354 69.351716 
L 359.167122 75.825222 
L 359.254891 74.370502 
L 359.430427 73.570405 
L 359.605963 75.67975 
L 359.7815 70.224548 
L 359.957036 70.879173 
L 360.044804 70.806437 
L 360.132572 67.751524 
L 360.220341 68.042468 
L 360.483645 71.315589 
L 360.659182 68.697092 
L 360.74695 68.842564 
L 360.834718 68.769828 
L 360.922486 67.315108 
L 361.098023 72.624837 
L 361.273559 72.624837 
L 361.449095 75.534278 
L 361.7124 73.279461 
L 361.887936 76.188902 
L 362.063473 76.625318 
L 362.239009 76.625318 
L 362.502314 73.643141 
L 362.590082 74.152293 
L 362.765618 75.31607 
L 362.853386 74.806918 
L 362.941155 74.879654 
L 363.028923 74.879654 
L 363.292227 67.606052 
L 363.379996 67.606052 
L 363.467764 72.479365 
L 363.555532 71.461061 
L 363.6433 71.679269 
L 363.818837 74.006821 
L 363.906605 74.806918 
L 363.994373 74.58871 
L 364.082141 74.58871 
L 364.169909 68.9153 
L 364.345446 72.770309 
L 364.60875 68.333412 
L 364.696518 68.769828 
L 364.784287 66.442275 
L 364.872055 66.878692 
L 365.135359 69.569924 
L 365.310896 75.097862 
L 365.486432 73.133989 
L 365.5742 72.988517 
L 365.749737 74.95239 
L 365.925273 72.115685 
L 366.013041 72.115685 
L 366.10081 72.988517 
L 366.188578 72.770309 
L 366.364114 72.624837 
L 366.451882 76.116166 
L 366.539651 75.607014 
L 366.715187 74.225029 
L 366.802955 74.079557 
L 367.06626 70.151812 
L 367.241796 70.806437 
L 367.417332 69.569924 
L 367.680637 72.479365 
L 367.856173 77.13447 
L 367.943942 77.13447 
L 368.03171 77.279942 
L 368.207246 73.861349 
L 368.382783 73.061253 
L 368.470551 73.279461 
L 368.821624 72.770309 
L 368.909392 72.915781 
L 368.99716 69.933604 
L 369.084928 70.00634 
L 369.172696 70.00634 
L 369.611537 70.879173 
L 369.787074 72.770309 
L 369.96261 68.988036 
L 370.050378 69.351716 
L 370.138146 69.206244 
L 370.313683 72.188421 
L 370.401451 68.55162 
L 370.489219 68.9153 
L 370.752524 70.151812 
L 370.92806 69.64266 
L 371.015828 69.715396 
L 371.103597 72.115685 
L 371.191365 71.970213 
L 371.366901 68.988036 
L 371.454669 69.133508 
L 371.630206 69.715396 
L 371.805742 77.279942 
L 371.89351 76.698054 
L 372.069047 80.698535 
L 372.420119 79.462023 
L 372.683424 83.389768 
L 372.771192 83.026088 
L 372.946729 78.734663 
L 373.034497 79.025607 
L 373.38557 83.607976 
L 373.561106 83.53524 
L 373.736642 84.408072 
L 373.824411 84.335336 
L 373.912179 84.2626 
L 374.175483 80.189383 
L 374.263251 80.043911 
L 374.35102 80.334855 
L 374.526556 81.207687 
L 374.614324 81.207687 
L 374.789861 80.989479 
L 374.877629 81.280423 
L 375.053165 79.389287 
L 375.140933 80.407591 
L 375.31647 79.098343 
L 375.404238 79.752967 
L 375.579774 78.952871 
L 375.755311 78.952871 
L 375.843079 76.843526 
L 375.930847 78.443719 
L 376.018615 77.13447 
L 376.106384 77.789094 
L 376.194152 80.771271 
L 376.28192 80.043911 
L 376.457456 80.043911 
L 376.632993 80.480327 
L 376.720761 79.025607 
L 376.808529 79.171079 
L 376.984065 79.971175 
L 377.071834 79.971175 
L 377.159602 80.916743 
L 377.335138 77.352678 
L 377.422906 77.13447 
L 377.510675 81.353159 
L 377.686211 79.825703 
L 377.773979 81.134951 
L 377.861747 80.989479 
L 377.949516 79.025607 
L 378.037284 79.098343 
L 378.125052 79.098343 
L 378.300588 81.353159 
L 378.476125 76.116166 
L 378.651661 76.04343 
L 378.914966 76.04343 
L 379.002734 76.77079 
L 379.090502 74.370502 
L 379.17827 77.352678 
L 379.266038 77.279942 
L 379.529343 71.752005 
L 379.617111 71.752005 
L 379.704879 71.024645 
L 379.880416 68.769828 
L 379.968184 69.64266 
L 380.055952 69.206244 
L 380.231489 71.897477 
L 380.319257 72.406629 
L 380.494793 71.970213 
L 380.582561 72.697573 
L 380.758098 77.570886 
L 380.845866 77.425414 
L 381.196939 82.007784 
L 381.372475 79.898439 
L 381.723548 86.299209 
L 381.899084 86.371945 
L 382.074621 85.426376 
L 382.250157 85.499112 
L 382.337925 87.753929 
L 382.425693 87.681193 
L 382.513462 87.826665 
L 382.60123 88.772233 
L 382.776766 85.862793 
L 383.040071 87.390249 
L 383.215607 84.480808 
L 383.478912 84.553544 
L 383.742216 83.826184 
L 384.093289 83.826184 
L 384.181057 84.117128 
L 384.356594 83.971656 
L 384.619898 83.971656 
L 384.795435 81.644103 
L 384.970971 81.644103 
L 385.058739 78.007302 
L 385.322044 85.571848 
L 385.409812 81.498631 
L 385.49758 84.699016 
L 385.585348 84.335336 
L 385.848653 83.026088 
L 385.936421 83.026088 
L 386.111958 80.116647 
L 386.199726 84.917224 
L 386.287494 84.117128 
L 386.375262 88.335817 
L 386.46303 87.172041 
L 386.638567 88.917705 
L 386.726335 89.281385 
L 386.814103 87.317513 
L 386.901871 87.390249 
L 386.989639 87.390249 
L 387.165176 87.535721 
L 387.340712 82.225992 
L 387.604017 84.844488 
L 387.691785 84.844488 
L 387.779553 83.026088 
L 387.867321 83.17156 
L 387.95509 83.244296 
L 388.042858 87.535721 
L 388.130626 86.735625 
L 388.306162 88.044873 
L 388.481699 93.645547 
L 388.569467 94.009227 
L 388.745003 92.336298 
L 388.832772 92.409034 
L 388.92054 92.990922 
L 389.008308 81.425895 
L 389.096076 81.571367 
L 389.183844 81.644103 
L 389.271612 81.280423 
L 389.359381 81.425895 
L 389.534917 86.153737 
L 389.622685 86.081001 
L 389.710453 89.790538 
L 389.88599 85.280904 
L 389.973758 85.426376 
L 390.061526 85.426376 
L 390.149294 85.135432 
L 390.324831 85.717321 
L 390.412599 85.790057 
L 390.500367 89.063177 
L 390.588135 88.699497 
L 390.675904 88.117609 
L 390.763672 92.84545 
L 390.85144 92.627242 
L 391.026976 84.771752 
L 391.202513 79.607495 
L 391.290281 79.534759 
L 391.378049 79.607495 
L 391.465817 76.188902 
L 391.729122 84.480808 
L 391.904658 82.735144 
L 391.992426 82.589672 
L 392.167963 81.498631 
L 392.343499 72.843045 
L 392.431267 70.951909 
L 392.519036 71.097381 
L 392.694572 71.024645 
L 392.78234 71.315589 
L 392.870108 73.424933 
L 392.957877 72.915781 
L 393.045645 70.442756 
L 393.308949 72.988517 
L 393.396718 73.934085 
L 393.484486 76.698054 
L 393.572254 73.352197 
L 393.660022 78.807399 
L 393.74779 78.080038 
L 393.835559 75.461542 
L 393.923327 76.916262 
L 394.011095 76.334374 
L 394.186631 71.242853 
L 394.362168 71.752005 
L 394.537704 69.788132 
L 394.625472 70.37002 
L 394.71324 67.0969 
L 395.152081 80.116647 
L 395.23985 78.807399 
L 395.415386 83.607976 
L 395.590922 82.153256 
L 395.766459 83.026088 
L 395.941995 83.026088 
L 396.117532 85.862793 
L 396.293068 88.844969 
L 396.556372 84.771752 
L 396.731909 83.389768 
L 396.907445 86.008265 
L 397.082982 84.480808 
L 397.258518 80.334855 
L 397.434054 85.426376 
L 397.609591 81.571367 
L 397.697359 81.644103 
L 397.785127 81.134951 
L 397.872895 79.898439 
L 397.960664 80.698535 
L 398.1362 83.026088 
L 398.223968 83.026088 
L 398.399505 78.080038 
L 398.487273 76.916262 
L 398.487273 76.916262 
" clip-path="url(#p6d6c15ade4)" style="fill: none; stroke: #1f77b4; stroke-width: 1.5; stroke-linecap: square"/>
   </g>
   <g id="patch_3">
    <path d="M 57.6 307.584 
L 57.6 41.472 
" style="fill: none; stroke: #000000; stroke-width: 0.8; stroke-linejoin: miter; stroke-linecap: square"/>
   </g>
   <g id="patch_4">
    <path d="M 414.72 307.584 
L 414.72 41.472 
" style="fill: none; stroke: #000000; stroke-width: 0.8; stroke-linejoin: miter; stroke-linecap: square"/>
   </g>
   <g id="patch_5">
    <path d="M 57.6 307.584 
L 414.72 307.584 
" style="fill: none; stroke: #000000; stroke-width: 0.8; stroke-linejoin: miter; stroke-linecap: square"/>
   </g>
   <g id="patch_6">
    <path d="M 57.6 41.472 
L 414.72 41.472 
" style="fill: none; stroke: #000000; stroke-width: 0.8; stroke-linejoin: miter; stroke-linecap: square"/>
   </g>
   <g id="text_18">
    <!-- comp16 -->
    <g transform="translate(211.90125 35.472) scale(0.12 -0.12)">
     <defs>
      <path id="DejaVuSans-63" d="M 3122 3366 
L 3122 2828 
Q 2878 2963 2633 3030 
Q 2388 3097 2138 3097 
Q 1578 3097 1268 2742 
Q 959 2388 959 1747 
Q 959 1106 1268 751 
Q 1578 397 2138 397 
Q 2388 397 2633 464 
Q 2878 531 3122 666 
L 3122 134 
Q 2881 22 2623 -34 
Q 2366 -91 2075 -91 
Q 1284 -91 818 406 
Q 353 903 353 1747 
Q 353 2603 823 3093 
Q 1294 3584 2113 3584 
Q 2378 3584 2631 3529 
Q 2884 3475 3122 3366 
z
" transform="scale(0.015625)"/>
      <path id="DejaVuSans-70" d="M 1159 525 
L 1159 -1331 
L 581 -1331 
L 581 3500 
L 1159 3500 
L 1159 2969 
Q 1341 3281 1617 3432 
Q 1894 3584 2278 3584 
Q 2916 3584 3314 3078 
Q 3713 2572 3713 1747 
Q 3713 922 3314 415 
Q 2916 -91 2278 -91 
Q 1894 -91 1617 61 
Q 1341 213 1159 525 
z
M 3116 1747 
Q 3116 2381 2855 2742 
Q 2594 3103 2138 3103 
Q 1681 3103 1420 2742 
Q 1159 2381 1159 1747 
Q 1159 1113 1420 752 
Q 1681 391 2138 391 
Q 2594 391 2855 752 
Q 3116 1113 3116 1747 
z
" transform="scale(0.015625)"/>
      <path id="DejaVuSans-36" d="M 2113 2584 
Q 1688 2584 1439 2293 
Q 1191 2003 1191 1497 
Q 1191 994 1439 701 
Q 1688 409 2113 409 
Q 2538 409 2786 701 
Q 3034 994 3034 1497 
Q 3034 2003 2786 2293 
Q 2538 2584 2113 2584 
z
M 3366 4563 
L 3366 3988 
Q 3128 4100 2886 4159 
Q 2644 4219 2406 4219 
Q 1781 4219 1451 3797 
Q 1122 3375 1075 2522 
Q 1259 2794 1537 2939 
Q 1816 3084 2150 3084 
Q 2853 3084 3261 2657 
Q 3669 2231 3669 1497 
Q 3669 778 3244 343 
Q 2819 -91 2113 -91 
Q 1303 -91 875 529 
Q 447 1150 447 2328 
Q 447 3434 972 4092 
Q 1497 4750 2381 4750 
Q 2619 4750 2861 4703 
Q 3103 4656 3366 4563 
z
" transform="scale(0.015625)"/>
     </defs>
     <use xlink:href="#DejaVuSans-63"/>
     <use xlink:href="#DejaVuSans-6f" x="54.980469"/>
     <use xlink:href="#DejaVuSans-6d" x="116.162109"/>
     <use xlink:href="#DejaVuSans-70" x="213.574219"/>
     <use xlink:href="#DejaVuSans-31" x="277.050781"/>
     <use xlink:href="#DejaVuSans-36" x="340.673828"/>
    </g>
   </g>
  </g>
 </g>
 <defs>
  <clipPath id="p6d6c15ade4">
   <rect x="57.6" y="41.472" width="357.12" height="266.112"/>
  </clipPath>
 </defs>
</svg>
