<?xml version="1.0" encoding="utf-8" standalone="no"?>
<!DOCTYPE svg PUBLIC "-//W3C//DTD SVG 1.1//EN"
  "http://www.w3.org/Graphics/SVG/1.1/DTD/svg11.dtd">
<svg xmlns:xlink="http://www.w3.org/1999/xlink" width="460.8pt" height="345.6pt" viewBox="0 0 460.8 345.6" xmlns="http://www.w3.org/2000/svg" version="1.1">
 <metadata>
  <rdf:RDF xmlns:dc="http://purl.org/dc/elements/1.1/" xmlns:cc="http://creativecommons.org/ns#" xmlns:rdf="http://www.w3.org/1999/02/22-rdf-syntax-ns#">
   <cc:Work>
    <dc:type rdf:resource="http://purl.org/dc/dcmitype/StillImage"/>
    <dc:date>2023-12-03T18:15:53.664403</dc:date>
    <dc:format>image/svg+xml</dc:format>
    <dc:creator>
     <cc:Agent>
      <dc:title>Matplotlib v3.7.1, https://matplotlib.org/</dc:title>
     </cc:Agent>
    </dc:creator>
   </cc:Work>
  </rdf:RDF>
 </metadata>
 <defs>
  <style type="text/css">*{stroke-linejoin: round; stroke-linecap: butt}</style>
 </defs>
 <g id="figure_1">
  <g id="patch_1">
   <path d="M 0 345.6 
L 460.8 345.6 
L 460.8 0 
L 0 0 
z
" style="fill: #ffffff"/>
  </g>
  <g id="axes_1">
   <g id="patch_2">
    <path d="M 57.6 307.584 
L 414.72 307.584 
L 414.72 41.472 
L 57.6 41.472 
z
" style="fill: #ffffff"/>
   </g>
   <g id="matplotlib.axis_1">
    <g id="xtick_1">
     <g id="line2d_1">
      <defs>
       <path id="m04ba44b1c3" d="M 0 0 
L 0 3.5 
" style="stroke: #000000; stroke-width: 0.8"/>
      </defs>
      <g>
       <use xlink:href="#m04ba44b1c3" x="73.832727" y="307.584" style="stroke: #000000; stroke-width: 0.8"/>
      </g>
     </g>
     <g id="text_1">
      <!-- 0 -->
      <g transform="translate(70.651477 322.182437) scale(0.1 -0.1)">
       <defs>
        <path id="DejaVuSans-30" d="M 2034 4250 
Q 1547 4250 1301 3770 
Q 1056 3291 1056 2328 
Q 1056 1369 1301 889 
Q 1547 409 2034 409 
Q 2525 409 2770 889 
Q 3016 1369 3016 2328 
Q 3016 3291 2770 3770 
Q 2525 4250 2034 4250 
z
M 2034 4750 
Q 2819 4750 3233 4129 
Q 3647 3509 3647 2328 
Q 3647 1150 3233 529 
Q 2819 -91 2034 -91 
Q 1250 -91 836 529 
Q 422 1150 422 2328 
Q 422 3509 836 4129 
Q 1250 4750 2034 4750 
z
" transform="scale(0.015625)"/>
       </defs>
       <use xlink:href="#DejaVuSans-30"/>
      </g>
     </g>
    </g>
    <g id="xtick_2">
     <g id="line2d_2">
      <g>
       <use xlink:href="#m04ba44b1c3" x="113.59933" y="307.584" style="stroke: #000000; stroke-width: 0.8"/>
      </g>
     </g>
     <g id="text_2">
      <!-- 500 -->
      <g transform="translate(104.05558 322.182437) scale(0.1 -0.1)">
       <defs>
        <path id="DejaVuSans-35" d="M 691 4666 
L 3169 4666 
L 3169 4134 
L 1269 4134 
L 1269 2991 
Q 1406 3038 1543 3061 
Q 1681 3084 1819 3084 
Q 2600 3084 3056 2656 
Q 3513 2228 3513 1497 
Q 3513 744 3044 326 
Q 2575 -91 1722 -91 
Q 1428 -91 1123 -41 
Q 819 9 494 109 
L 494 744 
Q 775 591 1075 516 
Q 1375 441 1709 441 
Q 2250 441 2565 725 
Q 2881 1009 2881 1497 
Q 2881 1984 2565 2268 
Q 2250 2553 1709 2553 
Q 1456 2553 1204 2497 
Q 953 2441 691 2322 
L 691 4666 
z
" transform="scale(0.015625)"/>
       </defs>
       <use xlink:href="#DejaVuSans-35"/>
       <use xlink:href="#DejaVuSans-30" x="63.623047"/>
       <use xlink:href="#DejaVuSans-30" x="127.246094"/>
      </g>
     </g>
    </g>
    <g id="xtick_3">
     <g id="line2d_3">
      <g>
       <use xlink:href="#m04ba44b1c3" x="153.365933" y="307.584" style="stroke: #000000; stroke-width: 0.8"/>
      </g>
     </g>
     <g id="text_3">
      <!-- 1000 -->
      <g transform="translate(140.640933 322.182437) scale(0.1 -0.1)">
       <defs>
        <path id="DejaVuSans-31" d="M 794 531 
L 1825 531 
L 1825 4091 
L 703 3866 
L 703 4441 
L 1819 4666 
L 2450 4666 
L 2450 531 
L 3481 531 
L 3481 0 
L 794 0 
L 794 531 
z
" transform="scale(0.015625)"/>
       </defs>
       <use xlink:href="#DejaVuSans-31"/>
       <use xlink:href="#DejaVuSans-30" x="63.623047"/>
       <use xlink:href="#DejaVuSans-30" x="127.246094"/>
       <use xlink:href="#DejaVuSans-30" x="190.869141"/>
      </g>
     </g>
    </g>
    <g id="xtick_4">
     <g id="line2d_4">
      <g>
       <use xlink:href="#m04ba44b1c3" x="193.132536" y="307.584" style="stroke: #000000; stroke-width: 0.8"/>
      </g>
     </g>
     <g id="text_4">
      <!-- 1500 -->
      <g transform="translate(180.407536 322.182437) scale(0.1 -0.1)">
       <use xlink:href="#DejaVuSans-31"/>
       <use xlink:href="#DejaVuSans-35" x="63.623047"/>
       <use xlink:href="#DejaVuSans-30" x="127.246094"/>
       <use xlink:href="#DejaVuSans-30" x="190.869141"/>
      </g>
     </g>
    </g>
    <g id="xtick_5">
     <g id="line2d_5">
      <g>
       <use xlink:href="#m04ba44b1c3" x="232.899139" y="307.584" style="stroke: #000000; stroke-width: 0.8"/>
      </g>
     </g>
     <g id="text_5">
      <!-- 2000 -->
      <g transform="translate(220.174139 322.182437) scale(0.1 -0.1)">
       <defs>
        <path id="DejaVuSans-32" d="M 1228 531 
L 3431 531 
L 3431 0 
L 469 0 
L 469 531 
Q 828 903 1448 1529 
Q 2069 2156 2228 2338 
Q 2531 2678 2651 2914 
Q 2772 3150 2772 3378 
Q 2772 3750 2511 3984 
Q 2250 4219 1831 4219 
Q 1534 4219 1204 4116 
Q 875 4013 500 3803 
L 500 4441 
Q 881 4594 1212 4672 
Q 1544 4750 1819 4750 
Q 2544 4750 2975 4387 
Q 3406 4025 3406 3419 
Q 3406 3131 3298 2873 
Q 3191 2616 2906 2266 
Q 2828 2175 2409 1742 
Q 1991 1309 1228 531 
z
" transform="scale(0.015625)"/>
       </defs>
       <use xlink:href="#DejaVuSans-32"/>
       <use xlink:href="#DejaVuSans-30" x="63.623047"/>
       <use xlink:href="#DejaVuSans-30" x="127.246094"/>
       <use xlink:href="#DejaVuSans-30" x="190.869141"/>
      </g>
     </g>
    </g>
    <g id="xtick_6">
     <g id="line2d_6">
      <g>
       <use xlink:href="#m04ba44b1c3" x="272.665741" y="307.584" style="stroke: #000000; stroke-width: 0.8"/>
      </g>
     </g>
     <g id="text_6">
      <!-- 2500 -->
      <g transform="translate(259.940741 322.182437) scale(0.1 -0.1)">
       <use xlink:href="#DejaVuSans-32"/>
       <use xlink:href="#DejaVuSans-35" x="63.623047"/>
       <use xlink:href="#DejaVuSans-30" x="127.246094"/>
       <use xlink:href="#DejaVuSans-30" x="190.869141"/>
      </g>
     </g>
    </g>
    <g id="xtick_7">
     <g id="line2d_7">
      <g>
       <use xlink:href="#m04ba44b1c3" x="312.432344" y="307.584" style="stroke: #000000; stroke-width: 0.8"/>
      </g>
     </g>
     <g id="text_7">
      <!-- 3000 -->
      <g transform="translate(299.707344 322.182437) scale(0.1 -0.1)">
       <defs>
        <path id="DejaVuSans-33" d="M 2597 2516 
Q 3050 2419 3304 2112 
Q 3559 1806 3559 1356 
Q 3559 666 3084 287 
Q 2609 -91 1734 -91 
Q 1441 -91 1130 -33 
Q 819 25 488 141 
L 488 750 
Q 750 597 1062 519 
Q 1375 441 1716 441 
Q 2309 441 2620 675 
Q 2931 909 2931 1356 
Q 2931 1769 2642 2001 
Q 2353 2234 1838 2234 
L 1294 2234 
L 1294 2753 
L 1863 2753 
Q 2328 2753 2575 2939 
Q 2822 3125 2822 3475 
Q 2822 3834 2567 4026 
Q 2313 4219 1838 4219 
Q 1578 4219 1281 4162 
Q 984 4106 628 3988 
L 628 4550 
Q 988 4650 1302 4700 
Q 1616 4750 1894 4750 
Q 2613 4750 3031 4423 
Q 3450 4097 3450 3541 
Q 3450 3153 3228 2886 
Q 3006 2619 2597 2516 
z
" transform="scale(0.015625)"/>
       </defs>
       <use xlink:href="#DejaVuSans-33"/>
       <use xlink:href="#DejaVuSans-30" x="63.623047"/>
       <use xlink:href="#DejaVuSans-30" x="127.246094"/>
       <use xlink:href="#DejaVuSans-30" x="190.869141"/>
      </g>
     </g>
    </g>
    <g id="xtick_8">
     <g id="line2d_8">
      <g>
       <use xlink:href="#m04ba44b1c3" x="352.198947" y="307.584" style="stroke: #000000; stroke-width: 0.8"/>
      </g>
     </g>
     <g id="text_8">
      <!-- 3500 -->
      <g transform="translate(339.473947 322.182437) scale(0.1 -0.1)">
       <use xlink:href="#DejaVuSans-33"/>
       <use xlink:href="#DejaVuSans-35" x="63.623047"/>
       <use xlink:href="#DejaVuSans-30" x="127.246094"/>
       <use xlink:href="#DejaVuSans-30" x="190.869141"/>
      </g>
     </g>
    </g>
    <g id="xtick_9">
     <g id="line2d_9">
      <g>
       <use xlink:href="#m04ba44b1c3" x="391.96555" y="307.584" style="stroke: #000000; stroke-width: 0.8"/>
      </g>
     </g>
     <g id="text_9">
      <!-- 4000 -->
      <g transform="translate(379.24055 322.182437) scale(0.1 -0.1)">
       <defs>
        <path id="DejaVuSans-34" d="M 2419 4116 
L 825 1625 
L 2419 1625 
L 2419 4116 
z
M 2253 4666 
L 3047 4666 
L 3047 1625 
L 3713 1625 
L 3713 1100 
L 3047 1100 
L 3047 0 
L 2419 0 
L 2419 1100 
L 313 1100 
L 313 1709 
L 2253 4666 
z
" transform="scale(0.015625)"/>
       </defs>
       <use xlink:href="#DejaVuSans-34"/>
       <use xlink:href="#DejaVuSans-30" x="63.623047"/>
       <use xlink:href="#DejaVuSans-30" x="127.246094"/>
       <use xlink:href="#DejaVuSans-30" x="190.869141"/>
      </g>
     </g>
    </g>
    <g id="text_10">
     <!-- iteration -->
     <g transform="translate(215.037344 335.860562) scale(0.1 -0.1)">
      <defs>
       <path id="DejaVuSans-69" d="M 603 3500 
L 1178 3500 
L 1178 0 
L 603 0 
L 603 3500 
z
M 603 4863 
L 1178 4863 
L 1178 4134 
L 603 4134 
L 603 4863 
z
" transform="scale(0.015625)"/>
       <path id="DejaVuSans-74" d="M 1172 4494 
L 1172 3500 
L 2356 3500 
L 2356 3053 
L 1172 3053 
L 1172 1153 
Q 1172 725 1289 603 
Q 1406 481 1766 481 
L 2356 481 
L 2356 0 
L 1766 0 
Q 1100 0 847 248 
Q 594 497 594 1153 
L 594 3053 
L 172 3053 
L 172 3500 
L 594 3500 
L 594 4494 
L 1172 4494 
z
" transform="scale(0.015625)"/>
       <path id="DejaVuSans-65" d="M 3597 1894 
L 3597 1613 
L 953 1613 
Q 991 1019 1311 708 
Q 1631 397 2203 397 
Q 2534 397 2845 478 
Q 3156 559 3463 722 
L 3463 178 
Q 3153 47 2828 -22 
Q 2503 -91 2169 -91 
Q 1331 -91 842 396 
Q 353 884 353 1716 
Q 353 2575 817 3079 
Q 1281 3584 2069 3584 
Q 2775 3584 3186 3129 
Q 3597 2675 3597 1894 
z
M 3022 2063 
Q 3016 2534 2758 2815 
Q 2500 3097 2075 3097 
Q 1594 3097 1305 2825 
Q 1016 2553 972 2059 
L 3022 2063 
z
" transform="scale(0.015625)"/>
       <path id="DejaVuSans-72" d="M 2631 2963 
Q 2534 3019 2420 3045 
Q 2306 3072 2169 3072 
Q 1681 3072 1420 2755 
Q 1159 2438 1159 1844 
L 1159 0 
L 581 0 
L 581 3500 
L 1159 3500 
L 1159 2956 
Q 1341 3275 1631 3429 
Q 1922 3584 2338 3584 
Q 2397 3584 2469 3576 
Q 2541 3569 2628 3553 
L 2631 2963 
z
" transform="scale(0.015625)"/>
       <path id="DejaVuSans-61" d="M 2194 1759 
Q 1497 1759 1228 1600 
Q 959 1441 959 1056 
Q 959 750 1161 570 
Q 1363 391 1709 391 
Q 2188 391 2477 730 
Q 2766 1069 2766 1631 
L 2766 1759 
L 2194 1759 
z
M 3341 1997 
L 3341 0 
L 2766 0 
L 2766 531 
Q 2569 213 2275 61 
Q 1981 -91 1556 -91 
Q 1019 -91 701 211 
Q 384 513 384 1019 
Q 384 1609 779 1909 
Q 1175 2209 1959 2209 
L 2766 2209 
L 2766 2266 
Q 2766 2663 2505 2880 
Q 2244 3097 1772 3097 
Q 1472 3097 1187 3025 
Q 903 2953 641 2809 
L 641 3341 
Q 956 3463 1253 3523 
Q 1550 3584 1831 3584 
Q 2591 3584 2966 3190 
Q 3341 2797 3341 1997 
z
" transform="scale(0.015625)"/>
       <path id="DejaVuSans-6f" d="M 1959 3097 
Q 1497 3097 1228 2736 
Q 959 2375 959 1747 
Q 959 1119 1226 758 
Q 1494 397 1959 397 
Q 2419 397 2687 759 
Q 2956 1122 2956 1747 
Q 2956 2369 2687 2733 
Q 2419 3097 1959 3097 
z
M 1959 3584 
Q 2709 3584 3137 3096 
Q 3566 2609 3566 1747 
Q 3566 888 3137 398 
Q 2709 -91 1959 -91 
Q 1206 -91 779 398 
Q 353 888 353 1747 
Q 353 2609 779 3096 
Q 1206 3584 1959 3584 
z
" transform="scale(0.015625)"/>
       <path id="DejaVuSans-6e" d="M 3513 2113 
L 3513 0 
L 2938 0 
L 2938 2094 
Q 2938 2591 2744 2837 
Q 2550 3084 2163 3084 
Q 1697 3084 1428 2787 
Q 1159 2491 1159 1978 
L 1159 0 
L 581 0 
L 581 3500 
L 1159 3500 
L 1159 2956 
Q 1366 3272 1645 3428 
Q 1925 3584 2291 3584 
Q 2894 3584 3203 3211 
Q 3513 2838 3513 2113 
z
" transform="scale(0.015625)"/>
      </defs>
      <use xlink:href="#DejaVuSans-69"/>
      <use xlink:href="#DejaVuSans-74" x="27.783203"/>
      <use xlink:href="#DejaVuSans-65" x="66.992188"/>
      <use xlink:href="#DejaVuSans-72" x="128.515625"/>
      <use xlink:href="#DejaVuSans-61" x="169.628906"/>
      <use xlink:href="#DejaVuSans-74" x="230.908203"/>
      <use xlink:href="#DejaVuSans-69" x="270.117188"/>
      <use xlink:href="#DejaVuSans-6f" x="297.900391"/>
      <use xlink:href="#DejaVuSans-6e" x="359.082031"/>
     </g>
    </g>
   </g>
   <g id="matplotlib.axis_2">
    <g id="ytick_1">
     <g id="line2d_10">
      <defs>
       <path id="mb6876e2c5a" d="M 0 0 
L -3.5 0 
" style="stroke: #000000; stroke-width: 0.8"/>
      </defs>
      <g>
       <use xlink:href="#mb6876e2c5a" x="57.6" y="285.376257" style="stroke: #000000; stroke-width: 0.8"/>
      </g>
     </g>
     <g id="text_11">
      <!-- 500 -->
      <g transform="translate(31.5125 289.175475) scale(0.1 -0.1)">
       <use xlink:href="#DejaVuSans-35"/>
       <use xlink:href="#DejaVuSans-30" x="63.623047"/>
       <use xlink:href="#DejaVuSans-30" x="127.246094"/>
      </g>
     </g>
    </g>
    <g id="ytick_2">
     <g id="line2d_11">
      <g>
       <use xlink:href="#mb6876e2c5a" x="57.6" y="250.746998" style="stroke: #000000; stroke-width: 0.8"/>
      </g>
     </g>
     <g id="text_12">
      <!-- 1000 -->
      <g transform="translate(25.15 254.546217) scale(0.1 -0.1)">
       <use xlink:href="#DejaVuSans-31"/>
       <use xlink:href="#DejaVuSans-30" x="63.623047"/>
       <use xlink:href="#DejaVuSans-30" x="127.246094"/>
       <use xlink:href="#DejaVuSans-30" x="190.869141"/>
      </g>
     </g>
    </g>
    <g id="ytick_3">
     <g id="line2d_12">
      <g>
       <use xlink:href="#mb6876e2c5a" x="57.6" y="216.117739" style="stroke: #000000; stroke-width: 0.8"/>
      </g>
     </g>
     <g id="text_13">
      <!-- 1500 -->
      <g transform="translate(25.15 219.916958) scale(0.1 -0.1)">
       <use xlink:href="#DejaVuSans-31"/>
       <use xlink:href="#DejaVuSans-35" x="63.623047"/>
       <use xlink:href="#DejaVuSans-30" x="127.246094"/>
       <use xlink:href="#DejaVuSans-30" x="190.869141"/>
      </g>
     </g>
    </g>
    <g id="ytick_4">
     <g id="line2d_13">
      <g>
       <use xlink:href="#mb6876e2c5a" x="57.6" y="181.488481" style="stroke: #000000; stroke-width: 0.8"/>
      </g>
     </g>
     <g id="text_14">
      <!-- 2000 -->
      <g transform="translate(25.15 185.2877) scale(0.1 -0.1)">
       <use xlink:href="#DejaVuSans-32"/>
       <use xlink:href="#DejaVuSans-30" x="63.623047"/>
       <use xlink:href="#DejaVuSans-30" x="127.246094"/>
       <use xlink:href="#DejaVuSans-30" x="190.869141"/>
      </g>
     </g>
    </g>
    <g id="ytick_5">
     <g id="line2d_14">
      <g>
       <use xlink:href="#mb6876e2c5a" x="57.6" y="146.859222" style="stroke: #000000; stroke-width: 0.8"/>
      </g>
     </g>
     <g id="text_15">
      <!-- 2500 -->
      <g transform="translate(25.15 150.658441) scale(0.1 -0.1)">
       <use xlink:href="#DejaVuSans-32"/>
       <use xlink:href="#DejaVuSans-35" x="63.623047"/>
       <use xlink:href="#DejaVuSans-30" x="127.246094"/>
       <use xlink:href="#DejaVuSans-30" x="190.869141"/>
      </g>
     </g>
    </g>
    <g id="ytick_6">
     <g id="line2d_15">
      <g>
       <use xlink:href="#mb6876e2c5a" x="57.6" y="112.229964" style="stroke: #000000; stroke-width: 0.8"/>
      </g>
     </g>
     <g id="text_16">
      <!-- 3000 -->
      <g transform="translate(25.15 116.029183) scale(0.1 -0.1)">
       <use xlink:href="#DejaVuSans-33"/>
       <use xlink:href="#DejaVuSans-30" x="63.623047"/>
       <use xlink:href="#DejaVuSans-30" x="127.246094"/>
       <use xlink:href="#DejaVuSans-30" x="190.869141"/>
      </g>
     </g>
    </g>
    <g id="ytick_7">
     <g id="line2d_16">
      <g>
       <use xlink:href="#mb6876e2c5a" x="57.6" y="77.600705" style="stroke: #000000; stroke-width: 0.8"/>
      </g>
     </g>
     <g id="text_17">
      <!-- 3500 -->
      <g transform="translate(25.15 81.399924) scale(0.1 -0.1)">
       <use xlink:href="#DejaVuSans-33"/>
       <use xlink:href="#DejaVuSans-35" x="63.623047"/>
       <use xlink:href="#DejaVuSans-30" x="127.246094"/>
       <use xlink:href="#DejaVuSans-30" x="190.869141"/>
      </g>
     </g>
    </g>
    <g id="ytick_8">
     <g id="line2d_17">
      <g>
       <use xlink:href="#mb6876e2c5a" x="57.6" y="42.971447" style="stroke: #000000; stroke-width: 0.8"/>
      </g>
     </g>
     <g id="text_18">
      <!-- 4000 -->
      <g transform="translate(25.15 46.770666) scale(0.1 -0.1)">
       <use xlink:href="#DejaVuSans-34"/>
       <use xlink:href="#DejaVuSans-30" x="63.623047"/>
       <use xlink:href="#DejaVuSans-30" x="127.246094"/>
       <use xlink:href="#DejaVuSans-30" x="190.869141"/>
      </g>
     </g>
    </g>
    <g id="text_19">
     <!-- best fitness of swarm -->
     <g transform="translate(19.070312 228.0905) rotate(-90) scale(0.1 -0.1)">
      <defs>
       <path id="DejaVuSans-62" d="M 3116 1747 
Q 3116 2381 2855 2742 
Q 2594 3103 2138 3103 
Q 1681 3103 1420 2742 
Q 1159 2381 1159 1747 
Q 1159 1113 1420 752 
Q 1681 391 2138 391 
Q 2594 391 2855 752 
Q 3116 1113 3116 1747 
z
M 1159 2969 
Q 1341 3281 1617 3432 
Q 1894 3584 2278 3584 
Q 2916 3584 3314 3078 
Q 3713 2572 3713 1747 
Q 3713 922 3314 415 
Q 2916 -91 2278 -91 
Q 1894 -91 1617 61 
Q 1341 213 1159 525 
L 1159 0 
L 581 0 
L 581 4863 
L 1159 4863 
L 1159 2969 
z
" transform="scale(0.015625)"/>
       <path id="DejaVuSans-73" d="M 2834 3397 
L 2834 2853 
Q 2591 2978 2328 3040 
Q 2066 3103 1784 3103 
Q 1356 3103 1142 2972 
Q 928 2841 928 2578 
Q 928 2378 1081 2264 
Q 1234 2150 1697 2047 
L 1894 2003 
Q 2506 1872 2764 1633 
Q 3022 1394 3022 966 
Q 3022 478 2636 193 
Q 2250 -91 1575 -91 
Q 1294 -91 989 -36 
Q 684 19 347 128 
L 347 722 
Q 666 556 975 473 
Q 1284 391 1588 391 
Q 1994 391 2212 530 
Q 2431 669 2431 922 
Q 2431 1156 2273 1281 
Q 2116 1406 1581 1522 
L 1381 1569 
Q 847 1681 609 1914 
Q 372 2147 372 2553 
Q 372 3047 722 3315 
Q 1072 3584 1716 3584 
Q 2034 3584 2315 3537 
Q 2597 3491 2834 3397 
z
" transform="scale(0.015625)"/>
       <path id="DejaVuSans-20" transform="scale(0.015625)"/>
       <path id="DejaVuSans-66" d="M 2375 4863 
L 2375 4384 
L 1825 4384 
Q 1516 4384 1395 4259 
Q 1275 4134 1275 3809 
L 1275 3500 
L 2222 3500 
L 2222 3053 
L 1275 3053 
L 1275 0 
L 697 0 
L 697 3053 
L 147 3053 
L 147 3500 
L 697 3500 
L 697 3744 
Q 697 4328 969 4595 
Q 1241 4863 1831 4863 
L 2375 4863 
z
" transform="scale(0.015625)"/>
       <path id="DejaVuSans-77" d="M 269 3500 
L 844 3500 
L 1563 769 
L 2278 3500 
L 2956 3500 
L 3675 769 
L 4391 3500 
L 4966 3500 
L 4050 0 
L 3372 0 
L 2619 2869 
L 1863 0 
L 1184 0 
L 269 3500 
z
" transform="scale(0.015625)"/>
       <path id="DejaVuSans-6d" d="M 3328 2828 
Q 3544 3216 3844 3400 
Q 4144 3584 4550 3584 
Q 5097 3584 5394 3201 
Q 5691 2819 5691 2113 
L 5691 0 
L 5113 0 
L 5113 2094 
Q 5113 2597 4934 2840 
Q 4756 3084 4391 3084 
Q 3944 3084 3684 2787 
Q 3425 2491 3425 1978 
L 3425 0 
L 2847 0 
L 2847 2094 
Q 2847 2600 2669 2842 
Q 2491 3084 2119 3084 
Q 1678 3084 1418 2786 
Q 1159 2488 1159 1978 
L 1159 0 
L 581 0 
L 581 3500 
L 1159 3500 
L 1159 2956 
Q 1356 3278 1631 3431 
Q 1906 3584 2284 3584 
Q 2666 3584 2933 3390 
Q 3200 3197 3328 2828 
z
" transform="scale(0.015625)"/>
      </defs>
      <use xlink:href="#DejaVuSans-62"/>
      <use xlink:href="#DejaVuSans-65" x="63.476562"/>
      <use xlink:href="#DejaVuSans-73" x="125"/>
      <use xlink:href="#DejaVuSans-74" x="177.099609"/>
      <use xlink:href="#DejaVuSans-20" x="216.308594"/>
      <use xlink:href="#DejaVuSans-66" x="248.095703"/>
      <use xlink:href="#DejaVuSans-69" x="283.300781"/>
      <use xlink:href="#DejaVuSans-74" x="311.083984"/>
      <use xlink:href="#DejaVuSans-6e" x="350.292969"/>
      <use xlink:href="#DejaVuSans-65" x="413.671875"/>
      <use xlink:href="#DejaVuSans-73" x="475.195312"/>
      <use xlink:href="#DejaVuSans-73" x="527.294922"/>
      <use xlink:href="#DejaVuSans-20" x="579.394531"/>
      <use xlink:href="#DejaVuSans-6f" x="611.181641"/>
      <use xlink:href="#DejaVuSans-66" x="672.363281"/>
      <use xlink:href="#DejaVuSans-20" x="707.568359"/>
      <use xlink:href="#DejaVuSans-73" x="739.355469"/>
      <use xlink:href="#DejaVuSans-77" x="791.455078"/>
      <use xlink:href="#DejaVuSans-61" x="873.242188"/>
      <use xlink:href="#DejaVuSans-72" x="934.521484"/>
      <use xlink:href="#DejaVuSans-6d" x="973.884766"/>
     </g>
    </g>
   </g>
   <g id="line2d_18">
    <path d="M 73.832727 295.488 
L 73.991794 293.271727 
L 74.071327 293.202469 
L 74.38946 287.038461 
L 74.468993 287.038461 
L 74.628059 280.043351 
L 74.707593 279.420024 
L 74.866659 274.987479 
L 74.946192 274.987479 
L 75.264325 268.269403 
L 75.502925 267.784593 
L 75.661991 267.299784 
L 75.741524 267.230525 
L 75.821057 263.075014 
L 75.900591 267.576818 
L 75.980124 266.122389 
L 76.059657 266.122389 
L 76.218723 263.906116 
L 76.37779 264.390926 
L 76.616389 264.390926 
L 76.695923 265.983872 
L 76.854989 259.958381 
L 76.934522 259.958381 
L 77.014055 259.819864 
L 77.093589 260.166156 
L 77.173122 260.096898 
L 77.252655 259.889122 
L 77.332188 255.664353 
L 77.411722 265.776096 
L 77.491255 265.706838 
L 77.729854 256.70323 
L 77.888921 256.911006 
L 78.12752 244.652248 
L 78.286587 244.860024 
L 78.36612 244.860024 
L 78.684253 243.821146 
L 78.843319 241.466357 
L 78.922852 241.466357 
L 79.002386 241.050806 
L 79.161452 233.917178 
L 79.479585 233.84792 
L 79.638651 232.254974 
L 79.718184 231.770164 
L 79.877251 230.246477 
L 79.956784 229.900184 
L 80.036317 232.670525 
L 80.195384 231.354613 
L 80.274917 231.146838 
L 80.433983 230.59277 
L 80.59305 230.59277 
L 80.752116 227.683912 
L 80.831649 227.683912 
L 80.990716 224.636537 
L 81.149782 224.705796 
L 81.388382 221.173611 
L 81.547448 221.24287 
L 81.706515 221.24287 
L 81.786048 221.104353 
L 81.945114 219.303631 
L 82.183714 219.234373 
L 82.34278 216.602549 
L 82.58138 215.078862 
L 82.740446 215.078862 
L 82.81998 215.425154 
L 82.899513 215.286637 
L 82.979046 215.286637 
L 83.058579 216.879583 
L 83.138112 216.810325 
L 83.297179 215.563671 
L 83.376712 215.078862 
L 83.615312 215.840705 
L 83.774378 215.771447 
L 83.933444 216.948842 
L 84.012978 216.879583 
L 84.172044 214.24776 
L 84.33111 214.24776 
L 84.410644 213.970725 
L 84.490177 213.001106 
L 84.56971 213.070365 
L 84.728776 212.585555 
L 84.80831 212.654814 
L 84.967376 211.615936 
L 85.126442 212.170004 
L 85.444575 212.100745 
L 85.524109 213.27814 
L 85.683175 206.560064 
L 85.762708 203.720465 
L 85.921775 205.244152 
L 86.001308 202.889363 
L 86.160374 205.036377 
L 86.319441 205.036377 
L 86.478507 204.759343 
L 86.55804 204.759343 
L 86.717107 204.274533 
L 86.876173 204.967118 
L 87.194306 204.967118 
L 87.512439 200.742349 
L 87.830571 185.436216 
L 87.989638 186.544353 
L 88.228237 185.436216 
L 88.387304 185.159182 
L 88.466837 185.990285 
L 88.864503 182.042549 
L 89.103103 180.934413 
L 89.262169 180.934413 
L 89.341702 181.280705 
L 89.500769 184.535856 
L 89.659835 184.466597 
L 89.739368 183.496978 
L 89.898435 173.454493 
L 90.057501 177.125194 
L 90.137034 177.125194 
L 90.296101 173.939303 
L 90.614234 173.939303 
L 90.852833 165.905315 
L 90.932366 165.905315 
L 91.0119 163.204232 
L 91.091433 164.104593 
L 91.250499 163.689042 
L 91.330033 160.018341 
L 91.409566 160.156858 
L 91.727699 160.226116 
L 91.886765 157.594293 
L 91.966298 157.594293 
L 92.125365 154.823952 
L 92.284431 154.754693 
L 92.363964 158.009844 
L 92.443497 156.693932 
L 92.523031 156.76319 
L 92.602564 156.76319 
L 92.682097 158.910204 
L 92.76163 158.356136 
L 92.841163 157.73281 
L 93.00023 153.577299 
L 93.079763 153.577299 
L 93.238829 151.63806 
L 93.556962 151.63806 
L 93.636495 151.776577 
L 93.716029 155.239503 
L 94.193228 142.426677 
L 94.431828 142.28816 
L 94.511361 141.457058 
L 94.590894 142.218902 
L 94.670427 141.941868 
L 94.74996 140.972248 
L 94.829494 141.041507 
L 94.98856 141.249283 
L 95.068093 141.249283 
L 95.22716 141.941868 
L 95.306693 141.941868 
L 95.386226 141.734092 
L 95.545292 148.38291 
L 95.624826 152.192128 
L 95.704359 151.984353 
L 95.783892 151.707319 
L 95.863425 151.845836 
L 96.022492 147.205515 
L 96.261091 147.136257 
L 96.340624 147.274774 
L 96.420158 146.997739 
L 96.658757 142.495936 
L 96.73829 142.980745 
L 96.817824 143.119263 
L 96.97689 142.77297 
L 97.21549 142.77297 
L 97.295023 142.426677 
L 97.374556 140.764473 
L 97.533623 143.188521 
L 97.613156 143.881106 
L 97.692689 142.911487 
L 97.851755 134.046397 
L 98.010822 136.539703 
L 98.090355 136.608962 
L 98.328955 127.605355 
L 98.408488 127.81313 
L 98.567554 127.051287 
L 98.726621 124.142429 
L 98.885687 133.561587 
L 99.044753 129.475335 
L 99.124287 129.821627 
L 99.283353 128.159423 
L 99.362886 128.782749 
L 99.521953 128.367198 
L 99.601486 128.367198 
L 99.840086 134.115655 
L 99.919619 134.115655 
L 100.078685 134.461948 
L 100.158218 134.80824 
L 100.237752 134.738982 
L 100.555884 134.738982 
L 100.635418 135.639343 
L 100.794484 131.276056 
L 100.874017 131.760866 
L 101.112617 130.860505 
L 101.19215 130.860505 
L 101.351216 126.358701 
L 101.510283 126.289443 
L 101.589816 125.735375 
L 101.748882 126.635735 
L 101.907949 125.666116 
L 101.987482 125.666116 
L 102.305615 118.047679 
L 102.623748 118.46323 
L 102.782814 117.839904 
L 102.862347 116.316216 
L 102.941881 119.086557 
L 103.100947 133.007519 
L 103.18048 133.838621 
L 103.260013 135.916377 
L 103.339547 135.570084 
L 103.41908 135.708601 
L 103.657679 134.738982 
L 103.816746 138.894493 
L 104.055345 142.28816 
L 104.134879 140.90299 
L 104.293945 141.664834 
L 104.453011 141.664834 
L 104.532545 142.565194 
L 104.771144 137.301547 
L 104.850677 141.180024 
L 104.930211 133.42307 
L 105.009744 133.561587 
L 105.16881 134.184914 
L 105.248344 134.254172 
L 105.486943 131.830124 
L 105.566476 131.760866 
L 105.725543 125.389082 
L 105.805076 125.389082 
L 105.964142 124.003912 
L 106.123209 123.796136 
L 106.282275 122.757259 
L 106.361808 122.757259 
L 106.441342 122.410966 
L 106.600408 115.277339 
L 106.679941 117.978421 
L 106.759474 114.238461 
L 106.839008 114.446236 
L 106.998074 112.091447 
L 107.15714 112.091447 
L 107.39574 123.449844 
L 107.475273 123.449844 
L 107.63434 129.129042 
L 107.713873 129.129042 
L 107.793406 127.605355 
L 107.872939 128.020906 
L 108.032006 127.743872 
L 108.111539 127.743872 
L 108.191072 128.090164 
L 108.350139 122.133932 
L 108.588738 122.133932 
L 108.827338 116.246958 
L 108.986404 116.246958 
L 109.145471 117.424353 
L 109.225004 117.355094 
L 109.304537 117.493611 
L 109.463603 121.510605 
L 109.62267 121.372088 
L 109.702203 120.125435 
L 109.861269 123.519102 
L 110.099869 121.441347 
L 110.258935 111.814413 
L 110.338469 111.675896 
L 110.497535 110.637018 
L 110.577068 110.637018 
L 110.736135 109.182589 
L 110.815668 108.69778 
L 110.974734 111.398862 
L 111.054268 111.46812 
L 111.213334 114.654012 
L 111.292867 113.130325 
L 111.3724 117.632128 
L 111.451934 117.56287 
L 111.531467 118.255455 
L 111.690533 120.263952 
L 111.770066 120.194693 
L 111.8496 121.649122 
L 111.929133 121.510605 
L 112.088199 131.483832 
L 112.167732 131.345315 
L 112.247266 131.483832 
L 112.406332 131.345315 
L 112.485865 131.483832 
L 112.565398 130.929764 
L 112.644932 131.55309 
L 112.724465 131.206798 
L 112.963064 129.129042 
L 113.122131 129.129042 
L 113.201664 135.223792 
L 113.281197 135.154533 
L 113.36073 135.639343 
L 113.440264 134.738982 
L 113.519797 135.085275 
L 113.678863 134.80824 
L 113.758397 132.730485 
L 113.83793 132.869002 
L 113.917463 134.115655 
L 113.996996 134.046397 
L 114.076529 134.046397 
L 114.156063 133.700104 
L 114.235596 129.475335 
L 114.394662 131.622349 
L 114.474195 131.760866 
L 114.553729 131.276056 
L 114.712795 132.245675 
L 114.792328 132.245675 
L 114.951395 135.847118 
L 115.110461 136.124152 
L 115.189994 134.115655 
L 115.428594 137.924874 
L 115.508127 139.379303 
L 115.667193 136.054894 
L 115.82626 135.500826 
L 115.985326 138.755976 
L 116.064859 138.755976 
L 116.223926 133.630846 
L 116.303459 134.184914 
L 116.462525 133.838621 
L 116.542059 133.769363 
L 116.621592 131.483832 
L 116.780658 136.885996 
L 116.860192 134.046397 
L 116.939725 135.708601 
L 117.019258 135.570084 
L 117.098791 135.77786 
L 117.178324 138.617459 
L 117.257858 138.201908 
L 117.337391 138.132649 
L 117.496457 137.578581 
L 117.655524 132.0379 
L 117.735057 132.522709 
L 117.81459 131.691607 
L 118.05319 125.250565 
L 118.212256 125.458341 
L 118.291789 127.120545 
L 118.371322 125.596858 
L 118.450856 125.735375 
L 118.530389 125.735375 
L 118.609922 125.596858 
L 118.768988 125.112048 
L 118.848522 125.319824 
L 119.007588 117.355094 
L 119.087121 117.978421 
L 119.166654 117.493611 
L 119.246188 117.978421 
L 119.325721 116.177699 
L 119.564321 124.419463 
L 119.643854 126.220184 
L 119.723387 124.211687 
L 119.80292 126.843511 
L 119.961987 124.55798 
L 120.121053 124.55798 
L 120.200586 124.07317 
L 120.439186 127.189804 
L 120.598252 124.55798 
L 120.677785 125.181307 
L 120.757319 123.242068 
L 120.836852 123.588361 
L 120.916385 123.796136 
L 121.075451 123.311327 
L 121.234518 122.965034 
L 121.473117 114.723271 
L 121.632184 117.56287 
L 121.711717 113.753651 
L 121.79125 113.82291 
L 121.870783 113.82291 
L 122.188916 115.346597 
L 122.347983 114.861788 
L 122.507049 117.147319 
L 122.586582 117.147319 
L 122.745649 117.632128 
L 123.063782 117.701387 
L 123.143315 117.355094 
L 123.381914 118.878782 
L 123.461448 118.809523 
L 123.540981 118.740265 
L 124.01818 115.346597 
L 124.177246 116.593251 
L 124.25678 116.593251 
L 124.415846 117.216577 
L 124.495379 116.939543 
L 124.574912 117.355094 
L 124.733979 113.407359 
L 124.893045 113.130325 
L 124.972579 109.736657 
L 125.608844 124.280946 
L 125.688377 124.142429 
L 125.847444 122.826517 
L 126.086043 115.000305 
L 126.165577 114.931046 
L 126.24511 115.69289 
L 126.324643 115.20808 
L 126.404176 118.393972 
L 126.483709 118.047679 
L 126.642776 118.324713 
L 126.722309 118.324713 
L 126.881375 121.30283 
L 126.960909 121.025796 
L 127.119975 122.826517 
L 127.199508 122.826517 
L 127.358575 122.410966 
L 127.517641 118.809523 
L 127.676707 120.610244 
L 127.756241 119.571367 
L 127.835774 120.748762 
L 127.99484 112.506998 
L 128.074374 114.099944 
L 128.153907 113.199583 
L 128.312973 105.719663 
L 128.47204 104.611527 
L 128.551573 104.611527 
L 128.790172 105.581146 
L 129.028772 100.802309 
L 129.108305 100.73305 
L 129.187838 101.079343 
L 129.346905 99.34788 
L 129.505971 108.005194 
L 129.585504 108.005194 
L 129.665038 105.373371 
L 129.744571 105.442629 
L 129.98317 105.442629 
L 130.142237 100.040465 
L 130.301303 100.040465 
L 130.46037 100.73305 
L 130.619436 101.910445 
L 130.778503 101.702669 
L 130.858036 96.923832 
L 130.937569 98.170485 
L 131.176169 98.447519 
L 131.255702 98.378261 
L 131.335235 99.209363 
L 131.414768 99.140104 
L 131.494301 99.140104 
L 131.573835 98.516778 
L 131.653368 88.751327 
L 131.732901 91.106116 
L 131.812434 91.729443 
L 131.971501 95.400144 
L 132.051034 95.538661 
L 132.130567 92.075735 
L 132.2101 92.214253 
L 132.369167 92.075735 
L 132.528233 92.075735 
L 132.607766 91.313892 
L 132.766833 88.197259 
L 132.846366 88.058741 
L 132.925899 92.422028 
L 133.005432 92.075735 
L 133.164499 91.660184 
L 133.244032 96.785315 
L 133.323565 94.153491 
L 133.403098 95.261627 
L 133.562165 92.491287 
L 133.641698 92.422028 
L 133.721231 91.452409 
L 133.880298 93.807198 
L 134.039364 90.898341 
L 134.118897 88.61281 
L 134.19843 88.820585 
L 134.357497 88.543551 
L 134.43703 88.543551 
L 134.596096 89.028361 
L 134.67563 88.474293 
L 134.755163 88.61281 
L 134.834696 86.465796 
L 134.914229 97.408641 
L 134.993762 96.923832 
L 135.152829 96.716056 
L 135.391428 99.624914 
L 135.550495 98.239743 
L 135.709561 98.031968 
L 135.789094 98.031968 
L 135.868628 106.966317 
L 135.948161 99.278621 
L 136.027694 100.040465 
L 136.186761 102.810806 
L 136.345827 103.434132 
L 136.42536 92.214253 
L 136.504893 95.60792 
L 136.743493 84.87285 
L 136.823026 84.665074 
L 136.902559 83.418421 
L 137.061626 84.526557 
L 137.141159 84.249523 
L 137.220692 80.024754 
L 137.300225 82.448802 
L 137.379759 78.085515 
L 137.459292 78.985876 
L 137.538825 79.470685 
L 137.618358 76.561828 
L 137.697891 77.185154 
L 137.777425 76.838862 
L 137.856958 79.539944 
L 137.936491 78.639583 
L 138.254624 73.237419 
L 138.334157 74.484072 
L 138.41369 73.375936 
L 138.493223 81.202148 
L 138.572757 80.786597 
L 138.65229 80.855856 
L 138.890889 85.911727 
L 138.970423 86.050244 
L 139.049956 82.933611 
L 139.129489 83.556938 
L 139.368089 81.063631 
L 139.527155 81.063631 
L 139.606688 80.855856 
L 139.686222 82.933611 
L 139.845288 73.029643 
L 139.924821 75.661467 
L 140.004354 74.13778 
L 140.163421 75.384433 
L 140.322487 75.384433 
L 140.561087 81.340665 
L 140.64062 79.678461 
L 140.720153 81.271407 
L 140.958753 77.808481 
L 141.117819 82.033251 
L 141.276886 81.825475 
L 141.515485 82.033251 
L 141.595018 81.894733 
L 141.674552 81.13289 
L 141.833618 83.072128 
L 141.992685 81.686958 
L 142.072218 81.686958 
L 142.151751 82.033251 
L 142.310817 79.124393 
L 142.62895 79.193651 
L 142.788017 81.548441 
L 142.86755 81.548441 
L 142.947083 81.409924 
L 143.026616 81.825475 
L 143.185683 85.565435 
L 143.344749 83.141387 
L 143.503815 86.327279 
L 143.583349 87.712449 
L 143.742415 91.798701 
L 143.901481 91.452409 
L 144.060548 89.374653 
L 144.140081 90.067238 
L 144.219614 89.99798 
L 144.458214 90.690565 
L 144.537747 82.171768 
L 144.61728 82.241026 
L 144.776347 82.241026 
L 145.014946 84.318782 
L 145.174013 87.64319 
L 145.333079 86.673571 
L 145.492146 87.296898 
L 145.571679 87.158381 
L 145.651212 84.111006 
L 145.810278 88.128 
L 145.889812 87.366156 
L 145.969345 89.790204 
L 146.048878 87.850966 
L 146.128411 88.197259 
L 146.287478 91.106116 
L 146.60561 82.102509 
L 146.685144 81.963992 
L 146.764677 83.072128 
L 146.84421 82.51806 
L 147.08281 84.041747 
L 147.162343 84.041747 
L 147.241876 84.526557 
L 147.321409 84.457299 
L 147.400942 82.379543 
L 147.560009 86.881347 
L 147.639542 86.881347 
L 147.798609 85.703952 
L 147.878142 85.634693 
L 148.196275 80.301788 
L 148.434874 80.578822 
L 148.514407 86.812088 
L 148.673474 84.180265 
L 148.83254 89.305395 
L 148.912073 89.305395 
L 148.991607 89.51317 
L 149.150673 88.474293 
L 149.230206 83.210645 
L 149.309739 86.881347 
L 149.468806 82.171768 
L 149.627872 82.725836 
L 149.707405 81.756216 
L 149.786939 81.963992 
L 149.866472 82.033251 
L 149.946005 80.440305 
L 150.184605 84.38804 
L 150.343671 84.111006 
L 150.423204 84.111006 
L 150.502738 84.526557 
L 150.582271 84.457299 
L 150.741337 81.409924 
L 150.82087 80.64808 
L 150.900404 78.708842 
L 150.979937 79.193651 
L 151.139003 80.371046 
L 151.218536 80.232529 
L 151.29807 83.349162 
L 151.377603 78.016257 
L 151.457136 85.911727 
L 151.695736 76.838862 
L 151.775269 76.838862 
L 151.934335 76.977379 
L 152.013868 76.977379 
L 152.093402 77.462188 
L 152.411534 86.74283 
L 152.570601 86.604313 
L 152.650134 85.911727 
L 152.8092 83.833972 
L 152.968267 87.019864 
L 153.127333 87.989483 
L 153.2864 86.812088 
L 153.524999 85.77321 
L 153.684066 94.499784 
L 153.843132 94.361267 
L 153.922665 95.469403 
L 154.002199 95.330886 
L 154.081732 95.330886 
L 154.240798 100.663792 
L 154.320331 101.010084 
L 154.479398 98.586036 
L 154.558931 98.031968 
L 154.797531 88.197259 
L 154.877064 88.751327 
L 154.956597 88.682068 
L 155.03613 88.543551 
L 155.115663 89.097619 
L 155.354263 95.60792 
L 155.433796 93.945715 
L 155.513329 89.651687 
L 155.592863 97.616417 
L 155.672396 96.231246 
L 155.751929 96.231246 
L 155.831462 95.677178 
L 155.910996 101.771928 
L 155.990529 101.564152 
L 156.149595 101.356377 
L 156.308662 98.239743 
L 156.388195 97.962709 
L 156.467728 98.239743 
L 156.626794 103.9882 
L 156.785861 104.888561 
L 156.944927 100.802309 
L 157.02446 100.802309 
L 157.103994 102.256737 
L 157.183527 99.763431 
L 157.422126 105.788922 
L 157.50166 105.788922 
L 157.581193 106.620024 
L 157.740259 112.022188 
L 157.819792 111.537379 
L 157.978859 115.000305 
L 158.137925 114.931046 
L 158.296992 110.56776 
L 158.376525 109.390365 
L 158.535591 109.875174 
L 158.615124 109.805916 
L 158.694658 110.08295 
L 158.774191 108.905555 
L 158.853724 109.321106 
L 159.012791 109.528882 
L 159.25139 108.351487 
L 159.330923 103.434132 
L 159.410457 103.503391 
L 159.569523 107.035575 
L 159.649056 106.620024 
L 159.808123 108.074453 
L 159.887656 108.143711 
L 160.126255 104.750044 
L 160.205789 105.85818 
L 160.285322 105.373371 
L 160.364855 109.805916 
L 160.444388 109.667399 
L 160.762521 108.767038 
L 161.160187 120.956537 
L 161.319253 117.147319 
L 161.398787 117.07806 
L 161.47832 116.039182 
L 161.557853 116.246958 
L 161.637386 116.246958 
L 161.796453 117.07806 
L 161.955519 116.108441 
L 162.114586 115.900665 
L 162.194119 115.900665 
L 162.353185 121.995415 
L 162.512252 122.064673 
L 162.591785 121.926156 
L 162.671318 120.125435 
L 162.750851 120.679503 
L 162.909918 120.956537 
L 163.068984 117.56287 
L 163.148517 117.424353 
L 163.22805 120.263952 
L 163.307584 120.125435 
L 163.46665 115.969924 
L 164.102916 103.157098 
L 164.182449 103.157098 
L 164.261982 104.126717 
L 164.341515 98.378261 
L 164.421049 98.724553 
L 164.580115 98.309002 
L 164.818715 103.9882 
L 165.057314 104.750044 
L 165.136847 104.750044 
L 165.295914 103.503391 
L 165.375447 103.503391 
L 165.534513 103.226357 
L 165.614047 103.226357 
L 165.773113 100.663792 
L 165.932179 100.73305 
L 166.329845 98.724553 
L 166.488912 101.425635 
L 166.568445 101.494894 
L 166.647978 102.395255 
L 166.727511 101.702669 
L 166.886578 98.793812 
L 166.966111 98.793812 
L 167.045644 96.646798 
L 167.125177 98.101226 
L 167.204711 97.824192 
L 167.284244 98.031968 
L 167.522844 105.85818 
L 168.159109 98.378261 
L 168.318176 99.832689 
L 168.715842 97.339383 
L 168.795375 97.339383 
L 168.954441 97.962709 
L 169.113508 91.937218 
L 169.193041 94.014974 
L 169.272574 91.106116 
L 169.511174 95.192369 
L 169.749773 94.915335 
L 169.829306 95.60792 
L 169.90884 99.971206 
L 170.226973 93.045355 
L 170.306506 93.114613 
L 170.386039 93.876457 
L 170.465572 96.508281 
L 170.545105 96.092729 
L 170.624639 95.677178 
L 170.704172 96.99309 
L 170.783705 105.511888 
L 170.863238 105.373371 
L 170.942771 105.719663 
L 171.101838 105.234854 
L 171.181371 105.234854 
L 171.260904 104.057459 
L 171.419971 105.373371 
L 171.738103 105.373371 
L 171.817637 104.888561 
L 171.89717 105.027078 
L 171.976703 104.95782 
L 172.135769 113.476617 
L 172.215303 113.476617 
L 172.294836 113.3381 
L 172.374369 112.645515 
L 172.453902 112.853291 
L 172.612969 112.922549 
L 172.692502 115.623631 
L 172.851568 114.030685 
L 173.010635 114.030685 
L 173.169701 113.476617 
L 173.328768 108.836297 
L 173.408301 109.182589 
L 173.487834 107.658902 
L 173.567367 108.005194 
L 173.726434 108.559263 
L 173.8855 108.559263 
L 173.965033 117.56287 
L 174.044566 117.008802 
L 174.203633 117.839904 
L 174.283166 117.839904 
L 174.362699 120.402469 
L 174.521766 114.931046 
L 174.680832 113.684393 
L 174.760365 116.177699 
L 174.998965 106.204473 
L 175.078498 106.204473 
L 175.237564 106.966317 
L 175.317098 106.8278 
L 175.555697 105.581146 
L 175.714764 108.69778 
L 176.032897 107.381868 
L 176.191963 107.243351 
L 176.271496 107.72816 
L 176.351029 109.044072 
L 176.430563 108.767038 
L 176.510096 109.251848 
L 176.669162 108.628521 
L 176.907762 104.95782 
L 176.987295 104.95782 
L 177.066828 105.442629 
L 177.146361 105.373371 
L 177.305428 96.161988 
L 177.384961 97.062349 
L 177.623561 96.439022 
L 177.782627 89.236136 
L 177.86216 90.067238 
L 177.941693 90.067238 
L 178.10076 90.552048 
L 178.180293 87.781707 
L 178.259826 87.850966 
L 178.339359 87.850966 
L 178.418893 88.197259 
L 178.498426 88.128 
L 178.657492 86.812088 
L 178.816559 86.812088 
L 178.896092 86.465796 
L 179.055158 93.183872 
L 179.134692 93.322389 
L 179.293758 94.915335 
L 179.452824 90.898341 
L 179.532358 90.690565 
L 179.611891 90.898341 
L 179.770957 92.35277 
L 179.930024 92.629804 
L 180.009557 92.629804 
L 180.08909 92.768321 
L 180.168623 92.699062 
L 180.248156 102.256737 
L 180.32769 101.633411 
L 180.407223 101.633411 
L 180.486756 103.08784 
L 180.645822 98.239743 
L 180.804889 97.893451 
L 180.884422 97.962709 
L 181.202555 86.812088 
L 181.361621 88.128 
L 181.441155 88.058741 
L 181.600221 87.296898 
L 181.679754 87.089122 
L 181.838821 80.717339 
L 181.918354 80.855856 
L 182.07742 80.786597 
L 182.156953 81.202148 
L 182.236487 79.678461 
L 182.31602 79.955495 
L 182.395553 79.816978 
L 182.554619 81.271407 
L 182.713686 81.271407 
L 182.872752 84.803591 
L 182.952285 84.734333 
L 183.111352 84.457299 
L 183.190885 77.323671 
L 183.270418 77.877739 
L 183.349951 78.016257 
L 183.509018 77.323671 
L 183.588551 81.409924 
L 183.668084 81.271407 
L 183.747617 81.271407 
L 183.906684 81.756216 
L 183.986217 78.985876 
L 184.224817 91.729443 
L 184.30435 91.38315 
L 184.383883 94.222749 
L 184.54295 87.920224 
L 184.622483 87.920224 
L 184.861082 92.768321 
L 184.940616 92.35277 
L 185.020149 96.923832 
L 185.099682 96.854573 
L 185.258748 96.854573 
L 185.338282 95.469403 
L 185.497348 85.634693 
L 185.656414 88.335776 
L 185.735948 88.682068 
L 185.815481 88.474293 
L 185.974547 91.590926 
L 186.05408 89.928721 
L 186.133614 94.846076 
L 186.213147 94.707559 
L 186.29268 94.707559 
L 186.53128 96.300505 
L 186.610813 96.300505 
L 186.690346 99.140104 
L 186.769879 98.932329 
L 186.928946 98.586036 
L 187.088012 99.140104 
L 187.167545 103.9882 
L 187.247079 103.641908 
L 187.326612 103.226357 
L 187.565211 98.932329 
L 187.644745 100.040465 
L 187.803811 99.417138 
L 187.883344 99.763431 
L 187.962877 99.140104 
L 188.042411 99.209363 
L 188.28101 99.140104 
L 188.360543 99.417138 
L 188.440077 99.140104 
L 188.599143 89.582429 
L 188.678676 89.928721 
L 188.837743 90.205756 
L 189.076342 78.501066 
L 189.235409 84.318782 
L 189.314942 84.180265 
L 189.394475 84.595816 
L 189.553541 87.435415 
L 189.712608 86.812088 
L 189.871674 84.803591 
L 190.110274 84.734333 
L 190.26934 84.249523 
L 190.50794 84.180265 
L 190.667006 78.362549 
L 190.74654 78.501066 
L 190.826073 78.293291 
L 190.905606 78.362549 
L 190.985139 77.185154 
L 191.064672 77.600705 
L 191.144206 77.462188 
L 191.303272 82.725836 
L 191.462338 76.077018 
L 191.621405 73.375936 
L 191.780471 72.752609 
L 191.860004 72.752609 
L 191.939538 70.882629 
L 192.098604 74.276297 
L 192.25767 74.345555 
L 192.337204 80.371046 
L 192.416737 78.154774 
L 192.655337 78.154774 
L 192.73487 78.639583 
L 192.814403 76.146277 
L 192.973469 79.816978 
L 193.053003 80.094012 
L 193.212069 82.51806 
L 193.291602 81.202148 
L 193.371135 81.686958 
L 193.450669 81.340665 
L 193.530202 81.825475 
L 193.609735 81.756216 
L 193.689268 81.340665 
L 193.848335 78.501066 
L 193.927868 78.708842 
L 194.086934 88.474293 
L 194.166467 88.474293 
L 194.246001 88.751327 
L 194.325534 87.296898 
L 194.405067 87.435415 
L 194.564133 86.465796 
L 194.7232 83.210645 
L 195.200399 83.279904 
L 195.518532 83.418421 
L 195.677598 83.072128 
L 195.757132 83.072128 
L 195.916198 81.271407 
L 196.075264 80.717339 
L 196.234331 77.185154 
L 196.313864 77.531447 
L 196.393397 79.332168 
L 196.47293 84.318782 
L 196.552464 84.180265 
L 196.631997 84.180265 
L 196.71153 83.141387 
L 196.870596 93.114613 
L 196.95013 92.976096 
L 197.029663 93.668681 
L 197.188729 86.535054 
L 197.347796 87.296898 
L 197.506862 87.227639 
L 197.665928 86.74283 
L 197.745462 85.426918 
L 197.904528 88.266517 
L 197.984061 88.682068 
L 198.143128 96.508281 
L 198.302194 95.60792 
L 198.461261 98.447519 
L 198.540794 98.447519 
L 198.620327 97.616417 
L 198.858927 106.065956 
L 199.017993 106.412248 
L 199.256593 99.486397 
L 199.415659 103.018581 
L 199.574725 103.018581 
L 199.654259 100.594533 
L 199.733792 101.425635 
L 199.972391 101.979703 
L 200.290524 96.231246 
L 200.370057 96.716056 
L 200.449591 100.940826 
L 200.608657 95.954212 
L 200.68819 95.954212 
L 200.847257 94.707559 
L 200.92679 94.915335 
L 201.085856 98.170485 
L 201.16539 98.170485 
L 201.244923 97.270124 
L 201.403989 102.464513 
L 201.483522 101.21786 
L 201.563056 96.231246 
L 201.642589 102.187479 
L 201.722122 100.386758 
L 201.881188 100.663792 
L 202.040255 100.040465 
L 202.119788 100.040465 
L 202.199321 100.386758 
L 202.278854 100.040465 
L 202.437921 105.165595 
L 202.596987 101.079343 
L 202.91512 99.417138 
L 203.074186 97.339383 
L 203.233253 98.309002 
L 203.312786 95.053852 
L 203.392319 96.99309 
L 203.551386 92.075735 
L 203.630919 92.075735 
L 203.789985 92.768321 
L 203.869519 92.214253 
L 204.187651 97.547158 
L 204.346718 103.434132 
L 204.505784 103.434132 
L 204.585317 103.018581 
L 204.823917 106.34299 
L 205.14205 98.86307 
L 205.301116 101.148601 
L 205.460183 98.86307 
L 205.619249 103.434132 
L 205.698782 103.364874 
L 205.778315 101.702669 
L 205.937382 92.699062 
L 206.096448 92.699062 
L 206.175981 92.422028 
L 206.255515 95.400144 
L 206.335048 95.12311 
L 206.414581 95.884954 
L 206.494114 94.084232 
L 206.573647 94.430525 
L 206.653181 94.153491 
L 206.812247 94.776818 
L 206.89178 91.244633 
L 206.971314 91.313892 
L 207.050847 91.313892 
L 207.209913 87.366156 
L 207.289446 87.019864 
L 207.36898 87.366156 
L 207.448513 87.089122 
L 207.607579 87.573932 
L 207.687112 86.881347 
L 207.846179 94.499784 
L 208.005245 94.499784 
L 208.084778 95.400144 
L 208.164312 94.846076 
L 208.243845 92.906838 
L 208.402911 94.014974 
L 208.482444 94.014974 
L 208.561978 95.677178 
L 208.641511 94.222749 
L 208.721044 94.361267 
L 208.88011 94.361267 
L 209.11871 93.73794 
L 209.198243 93.807198 
L 209.277776 94.153491 
L 209.436843 93.876457 
L 209.595909 100.663792 
L 209.754976 100.663792 
L 209.914042 103.9882 
L 209.993575 104.265234 
L 210.073109 96.508281 
L 210.152642 97.408641 
L 210.311708 93.668681 
L 210.470775 92.214253 
L 210.550308 92.768321 
L 210.709374 95.954212 
L 210.947974 91.590926 
L 211.10704 93.322389 
L 211.34564 93.322389 
L 211.504706 92.906838 
L 212.140972 110.290725 
L 212.300038 100.73305 
L 212.459105 101.21786 
L 212.538638 101.010084 
L 212.618171 101.356377 
L 212.697704 105.511888 
L 212.777238 105.304112 
L 212.936304 103.641908 
L 213.015837 110.429242 
L 213.09537 110.08295 
L 213.174904 109.944433 
L 213.254437 110.221467 
L 213.57257 106.758541 
L 213.652103 106.620024 
L 213.731636 105.650405 
L 213.890702 95.677178 
L 213.970236 95.677178 
L 214.129302 98.516778 
L 214.208835 100.109723 
L 214.367902 94.499784 
L 214.526968 93.945715 
L 214.606501 95.192369 
L 214.765568 94.361267 
L 214.845101 94.292008 
L 215.004167 94.776818 
L 215.163234 96.99309 
L 215.242767 94.292008 
L 215.481367 101.564152 
L 215.5609 101.841186 
L 215.640433 95.192369 
L 215.719966 96.577539 
L 215.879033 97.339383 
L 215.958566 95.330886 
L 216.038099 96.023471 
L 216.117632 96.092729 
L 216.197165 96.577539 
L 216.276699 95.884954 
L 216.435765 91.313892 
L 216.515298 99.624914 
L 216.594831 99.278621 
L 216.753898 101.21786 
L 216.912964 97.408641 
L 217.072031 97.408641 
L 217.151564 97.200866 
L 217.31063 97.547158 
L 217.628763 87.435415 
L 217.787829 87.089122 
L 218.105962 96.785315 
L 218.185496 96.785315 
L 218.265029 96.508281 
L 218.344562 99.070846 
L 218.503628 95.330886 
L 218.583162 95.261627 
L 218.662695 94.846076 
L 218.742228 94.915335 
L 218.901294 107.381868 
L 218.980828 110.706277 
L 219.060361 109.944433 
L 219.139894 109.875174 
L 219.219427 100.594533 
L 219.29896 102.325996 
L 219.458027 101.21786 
L 219.617093 104.126717 
L 219.696626 104.057459 
L 219.77616 104.126717 
L 219.855693 104.819303 
L 219.935226 100.802309 
L 220.014759 100.940826 
L 220.173826 101.148601 
L 220.253359 96.646798 
L 220.332892 96.854573 
L 220.412425 95.677178 
L 220.491958 92.075735 
L 220.651025 95.677178 
L 220.730558 95.746437 
L 221.128224 80.925114 
L 221.207757 81.409924 
L 221.366824 77.185154 
L 221.52589 82.51806 
L 221.684957 77.046637 
L 221.76449 74.761106 
L 221.844023 78.570325 
L 221.923556 77.323671 
L 222.003089 77.323671 
L 222.082623 76.90812 
L 222.241689 73.306677 
L 222.321222 73.306677 
L 222.400755 73.029643 
L 222.559822 73.860745 
L 222.718888 73.860745 
L 222.877955 71.159663 
L 222.957488 70.951888 
L 223.037021 72.198541 
L 223.116554 78.154774 
L 223.196087 73.930004 
L 223.275621 75.661467 
L 223.355154 75.384433 
L 223.51422 73.375936 
L 223.673287 73.375936 
L 223.911886 71.436697 
L 224.070953 71.436697 
L 224.150486 71.713731 
L 224.230019 71.644473 
L 224.309552 76.769603 
L 224.468619 62.43309 
L 224.548152 62.43309 
L 224.627685 62.571607 
L 224.707218 65.134172 
L 224.786752 64.164553 
L 224.866285 64.649363 
L 224.945818 66.934894 
L 225.025351 66.865635 
L 225.104884 66.865635 
L 225.184418 66.519343 
L 225.423017 63.056417 
L 225.50255 63.264192 
L 225.582084 63.610485 
L 225.661617 75.176657 
L 225.74115 75.03814 
L 225.820683 75.03814 
L 225.900216 75.384433 
L 225.97975 76.284794 
L 226.059283 76.215535 
L 226.218349 74.276297 
L 226.297882 74.622589 
L 226.456949 75.938501 
L 226.536482 74.276297 
L 226.695549 77.046637 
L 226.775082 77.046637 
L 226.934148 80.994373 
L 227.093215 69.635976 
L 227.172748 67.835255 
L 227.252281 68.181547 
L 227.411347 73.029643 
L 227.490881 71.852248 
L 227.649947 73.029643 
L 227.72948 73.029643 
L 227.888547 76.492569 
L 227.96808 78.431808 
L 228.127146 77.531447 
L 228.206679 77.531447 
L 228.286213 77.877739 
L 228.365746 77.39293 
L 228.445279 77.462188 
L 228.604345 73.098902 
L 228.683879 72.960385 
L 228.842945 74.068521 
L 228.922478 71.29818 
L 229.002011 73.583711 
L 229.161078 69.4282 
L 229.240611 73.029643 
L 229.320144 71.990766 
L 229.399678 71.713731 
L 229.558744 76.077018 
L 229.638277 76.00776 
L 229.876877 76.700345 
L 229.95641 77.39293 
L 230.035943 79.747719 
L 230.115476 79.678461 
L 230.19501 79.470685 
L 230.274543 83.072128 
L 230.433609 78.7781 
L 230.513142 80.371046 
L 230.672209 67.904513 
L 230.831275 77.462188 
L 230.910808 76.631086 
L 231.069875 72.544834 
L 231.228941 73.237419 
L 231.308474 73.16816 
L 231.547074 73.237419 
L 231.70614 74.068521 
L 231.865207 74.345555 
L 232.024273 74.207038 
L 232.103807 74.484072 
L 232.18334 72.198541 
L 232.262873 72.891126 
L 232.421939 70.951888 
L 232.501473 70.882629 
L 232.581006 72.060024 
L 232.740072 75.52295 
L 232.819605 75.592208 
L 232.899139 71.990766 
L 232.978672 76.561828 
L 233.058205 76.077018 
L 233.217271 77.39293 
L 233.296805 77.39293 
L 233.455871 77.946998 
L 233.535404 78.224032 
L 233.614937 77.946998 
L 233.774004 80.509563 
L 233.93307 79.609202 
L 234.012603 80.024754 
L 234.17167 82.310285 
L 234.251203 82.033251 
L 234.330736 80.717339 
L 234.489803 74.622589 
L 234.648869 74.13778 
L 234.728402 75.245916 
L 234.807936 73.930004 
L 234.887469 74.345555 
L 235.046535 73.375936 
L 235.205602 78.293291 
L 235.364668 78.293291 
L 235.444201 78.639583 
L 235.523734 76.561828 
L 235.682801 83.00287 
L 235.9214 72.2678 
L 236.000934 72.614092 
L 236.319066 66.727118 
L 236.478133 65.480465 
L 236.557666 65.549723 
L 236.716732 60.978661 
L 236.875799 61.879022 
L 236.955332 61.809764 
L 237.114398 62.294573 
L 237.193932 59.593491 
L 237.273465 60.078301 
L 237.432531 64.095295 
L 237.512064 63.956778 
L 237.591598 62.640866 
L 237.671131 62.848641 
L 237.750664 62.571607 
L 237.989264 60.978661 
L 238.068797 61.186437 
L 238.38693 64.30307 
L 238.466463 63.818261 
L 238.545996 63.610485 
L 238.625529 65.68824 
L 238.705063 65.618982 
L 238.784596 65.618982 
L 238.943662 66.103792 
L 239.102729 69.705234 
L 239.182262 69.705234 
L 239.341328 72.475575 
L 239.500395 69.982269 
L 239.659461 70.882629 
L 239.738994 71.29818 
L 239.818527 67.904513 
L 239.898061 69.012649 
L 239.977594 68.735615 
L 240.057127 68.943391 
L 240.13666 67.073411 
L 240.216193 67.281186 
L 240.295727 67.281186 
L 240.454793 65.549723 
L 240.534326 68.735615 
L 240.61386 68.666357 
L 240.693393 68.666357 
L 240.852459 68.874132 
L 241.011526 72.752609 
L 241.091059 72.752609 
L 241.170592 71.505956 
L 241.329658 76.631086 
L 241.488725 74.691848 
L 241.568258 74.484072 
L 241.727324 72.544834 
L 241.965924 72.544834 
L 242.045457 72.683351 
L 242.204524 72.060024 
L 242.36359 76.077018 
L 242.443123 75.799984 
L 242.522656 75.869242 
L 242.60219 75.869242 
L 242.840789 76.631086 
L 242.999856 71.852248 
L 243.158922 77.115896 
L 243.238455 77.115896 
L 243.317989 74.276297 
L 243.477055 78.501066 
L 243.636121 76.423311 
L 243.715655 75.661467 
L 243.795188 80.301788 
L 243.874721 79.816978 
L 243.954254 79.886236 
L 244.272387 74.761106 
L 244.431453 79.193651 
L 244.510987 78.985876 
L 244.670053 82.864353 
L 244.749586 78.154774 
L 244.829119 81.409924 
L 244.908653 81.271407 
L 244.988186 81.202148 
L 245.067719 81.686958 
L 245.147252 81.409924 
L 245.306319 83.487679 
L 245.385852 83.487679 
L 245.624451 84.526557 
L 245.783518 84.526557 
L 245.863051 83.349162 
L 245.942584 85.011367 
L 246.022118 84.318782 
L 246.181184 80.232529 
L 246.260717 80.094012 
L 246.499317 84.041747 
L 246.57885 83.279904 
L 247.056049 98.655295 
L 247.135582 98.655295 
L 247.215116 98.447519 
L 247.294649 95.12311 
L 247.374182 96.923832 
L 247.612782 92.768321 
L 247.930914 93.807198 
L 248.089981 91.452409 
L 248.169514 91.452409 
L 248.249047 91.244633 
L 248.56718 91.590926 
L 248.646713 90.967599 
L 248.726246 85.288401 
L 248.80578 85.77321 
L 248.964846 84.041747 
L 249.044379 84.041747 
L 249.123913 84.318782 
L 249.282979 76.977379 
L 249.362512 78.639583 
L 249.442045 78.570325 
L 249.521579 78.570325 
L 249.680645 79.055134 
L 249.760178 77.39293 
L 249.839711 79.886236 
L 249.919245 79.816978 
L 249.998778 79.816978 
L 250.157844 79.332168 
L 250.237377 79.26291 
L 250.396444 78.362549 
L 250.475977 79.401427 
L 250.55551 77.462188 
L 250.635043 77.808481 
L 250.714577 77.808481 
L 250.873643 80.717339 
L 251.032709 76.215535 
L 251.191776 77.115896 
L 251.350842 76.423311 
L 251.509909 82.587319 
L 251.589442 85.219142 
L 251.748508 81.894733 
L 251.828042 82.379543 
L 251.987108 78.085515 
L 252.066641 78.708842 
L 252.225708 80.024754 
L 252.305241 79.955495 
L 252.384774 75.799984 
L 252.464307 76.700345 
L 252.623374 80.301788 
L 252.861973 79.609202 
L 252.941506 80.371046 
L 253.02104 80.163271 
L 253.100573 80.301788 
L 253.259639 71.713731 
L 253.339172 72.198541 
L 253.418706 76.631086 
L 253.498239 76.561828 
L 253.577772 74.484072 
L 253.657305 74.761106 
L 253.736838 74.414814 
L 253.816372 76.284794 
L 253.895905 75.730725 
L 253.975438 75.730725 
L 254.134504 73.65297 
L 254.214038 73.583711 
L 254.373104 74.13778 
L 254.532171 74.207038 
L 254.611704 80.024754 
L 254.691237 79.401427 
L 254.850303 85.080625 
L 254.929837 84.041747 
L 255.00937 85.357659 
L 255.088903 84.803591 
L 255.168436 84.87285 
L 255.327503 85.565435 
L 255.407036 85.565435 
L 255.486569 86.25802 
L 255.566102 81.340665 
L 255.645635 83.141387 
L 255.725169 83.00287 
L 255.884235 78.7781 
L 256.043301 79.055134 
L 256.202368 77.669964 
L 256.361434 81.063631 
L 256.440967 78.985876 
L 256.520501 79.124393 
L 256.679567 82.102509 
L 256.7591 82.102509 
L 256.838633 79.955495 
L 256.918167 80.163271 
L 256.9977 80.163271 
L 257.156766 79.816978 
L 257.236299 79.816978 
L 257.395366 80.509563 
L 257.554432 77.462188 
L 257.633966 77.462188 
L 257.952098 69.4282 
L 258.031632 70.259303 
L 258.190698 79.955495 
L 258.270231 77.323671 
L 258.349764 77.462188 
L 258.508831 77.946998 
L 258.588364 77.531447 
L 258.667897 80.578822 
L 258.74743 80.440305 
L 258.826964 80.440305 
L 258.906497 80.786597 
L 258.98603 80.371046 
L 259.065563 75.869242 
L 259.145096 76.146277 
L 259.22463 76.146277 
L 259.383696 71.436697 
L 259.940428 65.826758 
L 260.099495 65.826758 
L 260.258561 75.730725 
L 260.417628 75.315174 
L 260.497161 76.423311 
L 260.656227 72.198541 
L 260.735761 72.129283 
L 260.97436 73.306677 
L 261.053893 71.505956 
L 261.133427 71.713731 
L 261.292493 72.337058 
L 261.451559 75.52295 
L 261.610626 69.4282 
L 261.769692 70.190044 
L 261.928759 68.666357 
L 262.087825 68.181547 
L 262.167358 67.904513 
L 262.246891 67.973772 
L 262.405958 61.671246 
L 262.565024 61.324954 
L 262.803624 61.740505 
L 263.042224 68.735615 
L 263.121757 68.735615 
L 263.280823 66.65786 
L 263.519423 54.95317 
L 263.598956 55.368721 
L 263.678489 55.299463 
L 263.837556 55.299463 
L 263.917089 53.568 
L 264.155688 58.970164 
L 264.235222 59.870525 
L 264.314755 59.524232 
L 264.394288 59.593491 
L 264.473821 59.17794 
L 264.553354 60.355335 
L 264.632888 60.009042 
L 264.712421 60.286076 
L 264.791954 63.402709 
L 264.871487 63.333451 
L 265.030554 61.740505 
L 265.110087 61.740505 
L 265.18962 67.211928 
L 265.269153 66.65786 
L 265.42822 69.774493 
L 265.507753 66.034533 
L 265.587286 66.242309 
L 265.666819 66.242309 
L 265.746353 66.65786 
L 265.905419 64.095295 
L 265.984952 63.610485 
L 266.064485 64.30307 
L 266.144019 72.544834 
L 266.223552 70.605595 
L 266.382618 74.899623 
L 266.541685 74.207038 
L 266.780284 82.725836 
L 266.859817 82.241026 
L 267.018884 83.141387 
L 267.098417 83.210645 
L 267.257483 85.011367 
L 267.41655 85.011367 
L 267.496083 84.180265 
L 267.575616 84.38804 
L 267.655149 85.842469 
L 267.814216 79.539944 
L 267.973282 84.665074 
L 268.052815 84.665074 
L 268.132349 89.859463 
L 268.291415 86.604313 
L 268.370948 86.396537 
L 268.450481 86.74283 
L 268.689081 85.911727 
L 268.768614 84.457299 
L 268.848148 84.665074 
L 269.007214 84.457299 
L 269.086747 91.106116 
L 269.16628 89.097619 
L 269.245814 89.374653 
L 269.40488 81.894733 
L 269.484413 81.894733 
L 269.563946 82.171768 
L 269.802546 81.202148 
L 269.882079 78.085515 
L 270.200212 84.38804 
L 270.518345 84.38804 
L 270.597878 84.180265 
L 270.677411 83.556938 
L 270.756944 83.695455 
L 270.995544 78.985876 
L 271.075077 79.193651 
L 271.15461 80.232529 
L 271.313677 79.332168 
L 271.472743 79.401427 
L 271.552277 71.29818 
L 271.63181 71.921507 
L 271.711343 71.78299 
L 271.870409 75.799984 
L 272.029476 75.453691 
L 272.109009 75.453691 
L 272.268075 78.293291 
L 272.347609 79.609202 
L 272.427142 78.224032 
L 272.506675 78.708842 
L 272.586208 80.578822 
L 272.665741 80.440305 
L 272.824808 80.509563 
L 272.983874 74.276297 
L 273.142941 73.999263 
L 273.38154 76.00776 
L 273.461073 75.384433 
L 273.699673 85.496176 
L 273.779206 85.149884 
L 273.858739 83.210645 
L 273.938273 83.349162 
L 274.017806 83.487679 
L 274.097339 87.64319 
L 274.176872 86.74283 
L 274.335939 86.604313 
L 274.415472 86.604313 
L 274.574538 91.590926 
L 274.654072 91.590926 
L 274.813138 93.25313 
L 274.892671 93.25313 
L 275.131271 96.439022 
L 275.290337 95.538661 
L 275.449404 95.954212 
L 275.60847 95.884954 
L 275.688003 97.893451 
L 275.767536 97.824192 
L 275.926603 96.023471 
L 276.085669 95.815695 
L 276.244736 96.231246 
L 276.324269 94.153491 
L 276.403802 95.677178 
L 276.562868 95.053852 
L 276.642402 95.053852 
L 276.881001 101.148601 
L 277.119601 91.937218 
L 277.278667 92.629804 
L 277.437734 92.422028 
L 277.676333 105.511888 
L 277.755867 100.802309 
L 277.8354 101.079343 
L 277.994466 99.624914 
L 278.233066 99.555655 
L 278.392132 99.140104 
L 278.551199 99.140104 
L 278.630732 102.256737 
L 278.710265 101.010084 
L 278.789798 101.287118 
L 278.869331 101.702669 
L 278.948865 101.148601 
L 279.028398 99.763431 
L 279.107931 99.901948 
L 279.266997 99.34788 
L 279.346531 99.971206 
L 279.426064 99.763431 
L 279.505597 100.109723 
L 279.58513 99.971206 
L 279.744197 102.741547 
L 279.903263 102.672289 
L 280.300929 82.587319 
L 280.539529 82.51806 
L 280.619062 82.51806 
L 280.698595 79.470685 
L 280.778128 79.747719 
L 280.857662 83.00287 
L 280.937195 82.725836 
L 281.096261 78.916617 
L 281.414394 80.855856 
L 281.493927 77.946998 
L 281.57346 78.085515 
L 281.652994 77.946998 
L 281.732527 77.39293 
L 281.891593 79.124393 
L 281.971126 79.124393 
L 282.05066 78.985876 
L 282.130193 79.193651 
L 282.209726 76.284794 
L 282.368792 79.609202 
L 282.448326 79.539944 
L 282.607392 72.752609 
L 282.686925 72.752609 
L 282.766459 71.29818 
L 282.845992 71.436697 
L 283.005058 76.838862 
L 283.084591 76.838862 
L 283.243658 78.985876 
L 283.323191 78.985876 
L 283.482257 82.102509 
L 283.641324 84.457299 
L 283.959457 86.188762 
L 284.198056 86.25802 
L 284.357123 86.950605 
L 284.516189 90.413531 
L 284.675255 91.036858 
L 284.754789 90.898341 
L 284.834322 90.413531 
L 285.072921 99.763431 
L 285.231988 103.157098 
L 285.391054 102.464513 
L 285.470588 102.949323 
L 285.550121 102.741547 
L 285.709187 103.503391 
L 285.78872 102.949323 
L 286.02732 105.650405 
L 286.186386 110.152208 
L 286.345453 108.074453 
L 286.504519 107.797419 
L 286.663586 105.442629 
L 286.743119 106.204473 
L 286.902185 105.165595 
L 286.981718 105.027078 
L 287.061252 104.334493 
L 287.140785 104.611527 
L 287.299851 105.511888 
L 287.379384 105.096337 
L 287.458918 107.381868 
L 287.538451 107.035575 
L 287.617984 106.689283 
L 287.697517 109.875174 
L 287.77705 105.511888 
L 287.856584 105.581146 
L 288.01565 106.8278 
L 288.25425 106.550766 
L 288.333783 106.550766 
L 288.492849 106.273731 
L 288.651916 109.667399 
L 288.731449 109.667399 
L 288.890515 111.398862 
L 289.129115 110.56776 
L 289.288181 110.844794 
L 289.367715 110.844794 
L 289.447248 110.498501 
L 289.606314 109.321106 
L 289.924447 108.69778 
L 290.00398 108.767038 
L 290.083513 108.767038 
L 290.163047 109.321106 
L 290.481179 98.101226 
L 290.640246 96.99309 
L 290.719779 96.99309 
L 291.117445 96.300505 
L 291.196978 97.062349 
L 291.356045 89.097619 
L 291.515111 88.405034 
L 291.594644 88.543551 
L 291.674178 89.028361 
L 291.753711 92.560545 
L 291.833244 92.422028 
L 291.99231 92.906838 
L 292.151377 88.058741 
L 292.310443 92.422028 
L 292.46951 94.361267 
L 292.628576 89.028361 
L 292.787642 88.820585 
L 292.867176 89.097619 
L 292.946709 88.889844 
L 293.026242 85.634693 
L 293.105775 86.74283 
L 293.344375 86.25802 
L 293.423908 87.781707 
L 293.503441 87.712449 
L 293.662508 82.310285 
L 293.821574 85.703952 
L 293.980641 85.911727 
L 294.060174 82.587319 
L 294.139707 82.656577 
L 294.21924 82.033251 
L 294.298773 88.543551 
L 294.378307 88.197259 
L 294.696439 83.418421 
L 294.775973 83.487679 
L 294.935039 82.310285 
L 295.094105 86.25802 
L 295.173639 86.396537 
L 295.253172 88.543551 
L 295.332705 88.405034 
L 295.412238 88.61281 
L 295.491771 88.474293 
L 295.571305 87.573932 
L 295.730371 85.288401 
L 295.809904 84.041747 
L 295.889437 88.682068 
L 295.968971 88.474293 
L 296.128037 90.344273 
L 296.287103 85.219142 
L 296.525703 85.288401 
L 296.684769 85.565435 
L 296.764303 86.74283 
L 296.923369 85.011367 
L 297.002902 85.149884 
L 297.082436 84.38804 
L 297.161969 84.526557 
L 297.321035 90.829082 
L 297.400568 90.621307 
L 297.480102 92.560545 
L 297.559635 97.4779 
L 297.639168 96.716056 
L 297.718701 96.716056 
L 297.877768 102.11822 
L 298.036834 96.785315 
L 298.116367 96.785315 
L 298.275434 97.685675 
L 298.4345 104.057459 
L 298.514033 104.057459 
L 298.593566 103.08784 
L 298.6731 108.628521 
L 298.832166 104.542269 
L 298.911699 104.542269 
L 298.991232 104.195976 
L 299.070766 101.564152 
L 299.388898 108.490004 
L 299.468432 108.974814 
L 299.547965 108.005194 
L 299.707031 108.628521 
L 299.866098 112.576257 
L 299.945631 108.282228 
L 300.025164 109.528882 
L 300.104697 110.013691 
L 300.42283 105.650405 
L 300.502363 105.650405 
L 300.66143 105.442629 
L 300.740963 107.381868 
L 300.820496 107.312609 
L 300.979563 106.897058 
L 301.059096 109.182589 
L 301.218162 107.935936 
L 301.297695 107.658902 
L 301.377229 108.559263 
L 301.536295 107.243351 
L 301.695361 106.8278 
L 301.774895 99.001587 
L 301.854428 100.594533 
L 302.013494 100.802309 
L 302.172561 96.092729 
L 302.331627 95.400144 
L 302.41116 95.400144 
L 302.490694 95.60792 
L 302.570227 96.161988 
L 302.729293 105.234854 
L 302.808826 105.234854 
L 302.967893 101.21786 
L 303.047426 101.21786 
L 303.126959 103.780425 
L 303.286026 101.841186 
L 303.365559 101.841186 
L 303.604158 99.832689 
L 303.683692 100.24824 
L 303.763225 100.109723 
L 303.842758 100.109723 
L 303.922291 101.910445 
L 304.081358 107.658902 
L 304.160891 107.797419 
L 304.319957 115.623631 
L 304.558557 115.623631 
L 304.63809 115.900665 
L 304.797156 114.376978 
L 304.956223 114.099944 
L 305.194823 114.099944 
L 305.274356 115.69289 
L 305.353889 115.554373 
L 305.433422 115.831407 
L 305.512955 119.363591 
L 305.592489 119.086557 
L 305.672022 120.81802 
L 305.831088 117.355094 
L 305.910621 117.216577 
L 306.069688 117.424353 
L 306.308287 116.523992 
L 306.387821 122.341707 
L 306.546887 111.675896 
L 306.705953 111.675896 
L 306.86502 116.108441 
L 307.024086 115.762148 
L 307.103619 119.086557 
L 307.183153 118.46323 
L 307.262686 116.870285 
L 307.342219 117.216577 
L 307.501285 117.216577 
L 307.819418 129.267559 
L 307.898951 129.198301 
L 308.058018 122.965034 
L 308.137551 123.103551 
L 308.217084 124.003912 
L 308.296618 123.934653 
L 308.376151 124.07317 
L 308.455684 123.588361 
L 308.535217 129.406076 
L 308.694284 125.458341 
L 308.85335 127.120545 
L 309.012416 127.189804 
L 309.171483 128.505715 
L 309.410082 126.42796 
L 309.569149 126.566477 
L 309.648682 126.497218 
L 309.807748 124.07317 
L 309.887282 124.07317 
L 310.125881 127.051287 
L 310.205414 127.051287 
L 310.284948 126.497218 
L 310.364481 124.696497 
L 310.444014 125.112048 
L 310.523547 125.250565 
L 310.60308 125.04279 
L 311.000747 114.792529 
L 311.159813 116.454733 
L 311.398413 116.385475 
L 311.637012 116.316216 
L 311.716545 116.316216 
L 311.796079 117.008802 
L 311.875612 116.801026 
L 312.034678 120.887279 
L 312.114211 120.887279 
L 312.273278 122.965034 
L 312.432344 120.610244 
L 312.511877 119.779142 
L 312.591411 120.056176 
L 312.750477 121.441347 
L 312.909543 121.441347 
L 313.06861 121.025796 
L 313.307209 117.355094 
L 313.386743 117.355094 
L 313.704876 118.809523 
L 313.784409 118.740265 
L 314.023008 125.389082 
L 314.182075 124.904273 
L 314.341141 126.843511 
L 314.420674 123.865395 
L 314.500208 123.934653 
L 314.579741 125.112048 
L 314.659274 124.973531 
L 314.738807 122.064673 
L 314.81834 122.341707 
L 314.897874 128.436457 
L 314.977407 128.020906 
L 315.05694 127.882389 
L 315.216006 130.583471 
L 315.375073 131.414573 
L 315.454606 131.414573 
L 315.613672 130.791246 
L 315.693206 130.929764 
L 315.772739 130.721988 
L 315.852272 130.929764 
L 315.931805 130.237178 
L 316.011338 130.375695 
L 316.090872 130.444954 
L 316.329471 134.254172 
L 316.409004 134.254172 
L 316.488538 135.985635 
L 316.647604 132.730485 
L 316.806671 132.730485 
L 316.886204 132.453451 
L 316.965737 133.838621 
L 317.04527 133.769363 
L 317.124803 132.591968 
L 317.204337 124.55798 
L 317.363403 128.782749 
L 317.442936 128.921267 
L 317.522469 125.94315 
L 317.602003 126.566477 
L 317.761069 128.921267 
L 317.920135 128.29794 
L 317.999669 128.29794 
L 318.079202 126.358701 
L 318.238268 130.791246 
L 318.397335 130.652729 
L 318.476868 130.652729 
L 318.635934 131.276056 
L 318.795001 131.206798 
L 318.874534 127.120545 
L 318.954067 127.259062 
L 319.113133 127.120545 
L 319.431266 140.002629 
L 319.590333 139.933371 
L 319.749399 141.595575 
L 319.828932 141.110766 
L 319.908466 139.51782 
L 319.987999 139.656337 
L 320.147065 139.656337 
L 320.306132 139.448561 
L 320.465198 140.210405 
L 320.544731 139.864112 
L 320.703798 137.301547 
L 320.862864 137.232289 
L 320.942397 133.076778 
L 321.101464 135.29305 
L 321.26053 136.67822 
L 321.49913 129.68311 
L 321.658196 129.059784 
L 321.976329 128.990525 
L 322.135395 129.613852 
L 322.294462 129.960144 
L 322.373995 129.752369 
L 322.533061 124.835014 
L 322.612595 124.835014 
L 322.692128 126.42796 
L 322.851194 123.796136 
L 322.930727 123.865395 
L 323.089794 124.211687 
L 323.169327 124.280946 
L 323.24886 123.865395 
L 323.328393 123.934653 
L 323.407927 123.934653 
L 323.646526 123.449844 
L 323.726059 123.519102 
L 323.885126 116.731768 
L 323.964659 116.731768 
L 324.044192 122.20319 
L 324.123725 120.33321 
L 324.203259 120.33321 
L 324.282792 117.909162 
L 324.441858 120.610244 
L 324.998591 117.701387 
L 325.157657 115.485114 
L 325.23719 115.415856 
L 325.316724 115.762148 
L 325.47579 112.091447 
L 325.555323 111.95293 
L 325.71439 112.368481 
L 325.952989 112.368481 
L 326.112056 112.714774 
L 326.191589 112.784032 
L 326.430188 118.878782 
L 326.589255 117.147319 
L 326.748321 116.731768 
L 326.986921 116.523992 
L 327.145987 119.086557 
L 327.22552 118.324713 
L 327.305054 118.532489 
L 327.384587 117.978421 
L 327.46412 107.312609 
L 327.543653 107.451126 
L 327.623186 107.451126 
L 327.861786 90.48279 
L 327.941319 90.690565 
L 328.100386 91.452409 
L 328.259452 90.48279 
L 328.338985 90.413531 
L 328.498052 99.417138 
L 328.577585 99.555655 
L 328.736651 100.594533 
L 328.816185 100.871567 
L 328.895718 100.802309 
L 328.975251 100.802309 
L 329.134317 100.940826 
L 329.213851 100.594533 
L 329.293384 98.101226 
L 329.372917 98.309002 
L 329.45245 98.309002 
L 329.611517 101.702669 
L 329.850116 105.096337 
L 329.929649 105.096337 
L 330.088716 105.304112 
L 330.247782 109.044072 
L 330.406849 108.143711 
L 330.565915 104.403752 
L 330.804515 104.403752 
L 330.963581 105.85818 
L 331.043114 105.788922 
L 331.202181 106.412248 
L 331.281714 106.550766 
L 331.361247 103.434132 
L 331.44078 103.503391 
L 331.67938 106.620024 
L 331.758913 109.044072 
L 332.077046 99.278621 
L 332.156579 99.34788 
L 332.236112 104.126717 
L 332.315646 103.572649 
L 332.474712 103.572649 
L 332.554245 103.364874 
L 332.633778 105.304112 
L 332.713312 102.256737 
L 332.872378 103.9882 
L 332.951911 102.533772 
L 333.190511 94.638301 
L 333.270044 94.222749 
L 333.429111 97.4779 
L 333.508644 96.785315 
L 333.66771 103.641908 
L 333.826777 100.802309 
L 333.90631 103.295615 
L 333.985843 103.157098 
L 334.065376 103.157098 
L 334.224443 104.265234 
L 334.303976 103.641908 
L 334.463042 111.260345 
L 334.622109 110.56776 
L 334.781175 110.498501 
L 335.019775 106.620024 
L 335.099308 106.620024 
L 335.178841 106.481507 
L 335.417441 101.010084 
L 335.576507 100.871567 
L 335.65604 101.079343 
L 335.815107 100.871567 
L 335.974173 102.533772 
L 336.133239 92.006477 
L 336.212773 93.25313 
L 336.371839 91.86796 
L 336.451372 92.075735 
L 336.530906 93.668681 
L 336.689972 86.881347 
L 336.769505 87.435415 
L 337.008105 86.465796 
L 337.087638 87.989483 
L 337.246704 85.703952 
L 337.326238 85.219142 
L 337.405771 85.565435 
L 337.485304 85.496176 
L 337.564837 85.357659 
L 337.723904 84.249523 
L 337.803437 84.526557 
L 338.042036 96.577539 
L 338.12157 92.214253 
L 338.280636 97.962709 
L 338.439702 97.893451 
L 338.598769 98.86307 
L 338.678302 99.001587 
L 338.757835 98.932329 
L 338.996435 111.191086 
L 339.155501 109.944433 
L 339.394101 109.875174 
L 339.473634 110.498501 
L 339.712234 109.805916 
L 339.791767 104.95782 
L 339.8713 105.581146 
L 340.030367 105.581146 
L 340.1099 95.60792 
L 340.189433 95.815695 
L 340.348499 95.815695 
L 340.507566 90.829082 
L 340.666632 91.38315 
L 340.746165 95.400144 
L 340.825699 95.12311 
L 340.984765 94.430525 
L 341.064298 100.109723 
L 341.143831 99.486397 
L 341.223365 100.456016 
L 341.302898 100.040465 
L 341.382431 100.178982 
L 341.541497 100.178982 
L 341.780097 96.646798 
L 341.939164 99.278621 
L 342.09823 99.34788 
L 342.257296 99.555655 
L 342.416363 92.629804 
L 342.575429 92.491287 
L 342.654962 93.045355 
L 342.734496 87.227639 
L 342.814029 87.64319 
L 342.893562 85.496176 
L 342.973095 86.119503 
L 343.052628 88.197259 
L 343.211695 84.457299 
L 343.370761 84.595816 
L 343.450294 84.457299 
L 343.529828 89.305395 
L 343.768427 82.241026 
L 343.84796 82.795094 
L 343.927494 82.795094 
L 344.166093 95.815695 
L 344.245626 93.945715 
L 344.404693 96.785315 
L 344.563759 95.677178 
L 344.722826 96.99309 
L 344.881892 83.626196 
L 344.961425 84.249523 
L 345.200025 88.405034 
L 345.279558 88.405034 
L 345.438625 87.989483 
L 345.597691 85.219142 
L 345.756757 85.357659 
L 345.995357 93.945715 
L 346.154423 94.084232 
L 346.233957 95.12311 
L 346.472556 101.148601 
L 346.631623 98.586036 
L 346.790689 98.586036 
L 346.870222 94.707559 
L 346.949755 95.192369 
L 347.029289 98.170485 
L 347.108822 97.616417 
L 347.188355 97.754934 
L 347.347421 95.815695 
L 347.426955 95.815695 
L 347.586021 96.092729 
L 347.745088 93.73794 
L 347.824621 94.915335 
L 347.983687 92.491287 
L 348.06322 94.084232 
L 348.142754 93.876457 
L 348.54042 93.045355 
L 348.699486 93.045355 
L 348.938086 81.340665 
L 349.017619 81.340665 
L 349.256218 77.185154 
L 349.335752 77.39293 
L 349.415285 80.440305 
L 349.494818 77.669964 
L 349.653884 88.197259 
L 349.812951 90.136497 
L 349.892484 88.61281 
L 350.05155 94.014974 
L 350.210617 94.569042 
L 350.29015 98.378261 
L 350.369683 97.131607 
L 350.449217 97.270124 
L 350.52875 97.131607 
L 350.608283 97.200866 
L 350.687816 96.300505 
L 350.767349 98.378261 
L 350.846883 97.893451 
L 350.926416 97.893451 
L 351.165015 96.300505 
L 351.324082 89.99798 
L 351.403615 90.275014 
L 351.642215 97.200866 
L 351.801281 97.200866 
L 351.880814 93.876457 
L 351.960347 93.945715 
L 352.039881 94.361267 
L 352.198947 104.334493 
L 352.437547 94.430525 
L 352.51708 94.430525 
L 352.676146 95.053852 
L 352.755679 95.261627 
L 352.835213 95.053852 
L 352.914746 95.12311 
L 352.994279 94.984593 
L 353.153346 102.464513 
L 353.232879 101.564152 
L 353.391945 102.256737 
L 353.471478 102.11822 
L 353.630545 102.533772 
L 353.789611 108.21297 
L 353.869144 108.282228 
L 354.107744 99.694172 
L 354.425877 98.101226 
L 354.584943 101.21786 
L 354.74401 101.148601 
L 354.903076 101.425635 
L 354.982609 101.425635 
L 355.141676 102.533772 
L 355.380275 102.60303 
L 355.618875 103.08784 
L 355.698408 103.08784 
L 355.777941 101.979703 
L 355.857475 103.849683 
L 356.016541 100.73305 
L 356.175607 105.442629 
L 356.414207 102.60303 
L 356.49374 102.60303 
L 356.652807 99.901948 
L 356.811873 101.564152 
L 356.891406 101.494894 
L 356.970939 101.21786 
L 357.050473 102.533772 
L 357.209539 100.386758 
L 357.289072 100.386758 
L 357.527672 105.581146 
L 357.607205 101.356377 
L 357.686738 102.11822 
L 357.766271 102.256737 
L 357.845805 102.949323 
L 357.925338 100.871567 
L 358.004871 101.979703 
L 358.163937 99.070846 
L 358.243471 98.586036 
L 358.323004 98.655295 
L 358.402537 100.178982 
L 358.48207 98.932329 
L 358.72067 103.9882 
L 358.879736 103.711166 
L 358.95927 103.780425 
L 359.118336 102.810806 
L 359.197869 102.880064 
L 359.356936 97.131607 
L 359.516002 104.47301 
L 359.595535 104.126717 
L 359.675068 104.265234 
L 359.754602 104.265234 
L 359.913668 104.542269 
L 359.993201 103.364874 
L 360.072734 105.927439 
L 360.311334 103.711166 
L 360.4704 107.035575 
L 360.629467 104.334493 
L 360.709 103.780425 
L 360.9476 98.031968 
L 361.106666 97.754934 
L 361.186199 96.508281 
L 361.265732 97.062349 
L 361.424799 96.369764 
L 361.583865 102.880064 
L 361.663399 101.979703 
L 361.742932 107.035575 
L 361.822465 106.897058 
L 362.220131 100.594533 
L 362.379197 102.048962 
L 362.458731 102.048962 
L 362.538264 90.898341 
L 362.617797 91.106116 
L 362.69733 91.521667 
L 362.776863 90.552048 
L 362.93593 91.38315 
L 363.015463 91.313892 
L 363.094996 91.521667 
L 363.174529 90.48279 
L 363.254063 92.075735 
L 363.333596 91.660184 
L 363.492662 92.283511 
L 363.572195 92.006477 
L 363.731262 91.175375 
L 363.890328 94.084232 
L 364.049395 94.084232 
L 364.208461 93.530164 
L 364.287994 93.599423 
L 364.367528 94.361267 
L 364.447061 94.222749 
L 364.606127 94.430525 
L 364.68566 94.430525 
L 364.844727 96.300505 
L 365.003793 89.236136 
L 365.16286 92.006477 
L 365.480992 92.768321 
L 365.560526 92.560545 
L 365.640059 92.283511 
L 365.799125 98.932329 
L 365.958192 101.287118 
L 366.037725 97.062349 
L 366.117258 97.200866 
L 366.196791 96.99309 
L 366.276324 100.040465 
L 366.355858 99.486397 
L 366.514924 99.001587 
L 366.594457 97.339383 
L 366.67399 97.547158 
L 366.833057 108.974814 
L 366.992123 108.69778 
L 367.15119 113.545876 
L 367.310256 115.485114 
L 367.389789 115.346597 
L 367.469323 114.446236 
L 367.548856 114.792529 
L 367.628389 114.515495 
L 367.787455 113.061066 
L 367.866989 117.493611 
L 367.946522 116.662509 
L 368.026055 115.831407 
L 368.105588 117.701387 
L 368.90092 101.287118 
L 369.059987 101.21786 
L 369.219053 105.234854 
L 369.378119 103.918942 
L 369.537186 103.918942 
L 369.616719 106.273731 
L 369.696252 106.065956 
L 369.775785 106.065956 
L 370.093918 113.545876 
L 370.173452 112.160705 
L 370.412051 121.995415 
L 370.491584 121.995415 
L 370.571118 119.640625 
L 370.650651 124.003912 
L 370.730184 122.826517 
L 370.809717 122.826517 
L 370.968784 122.20319 
L 371.048317 119.848401 
L 371.207383 122.20319 
L 371.286916 123.311327 
L 371.36645 119.986918 
L 371.445983 121.025796 
L 371.525516 121.164313 
L 371.684582 126.220184 
L 371.764116 126.566477 
L 372.002715 118.809523 
L 372.161782 118.809523 
L 372.241315 120.81802 
L 372.320848 117.147319 
L 372.400381 117.493611 
L 372.559448 118.740265 
L 372.638981 118.809523 
L 372.798047 123.726878 
L 372.877581 123.726878 
L 373.036647 113.615134 
L 373.11618 108.143711 
L 373.195713 108.490004 
L 373.35478 108.490004 
L 373.752446 107.381868 
L 373.911512 103.918942 
L 374.070579 104.750044 
L 374.229645 104.334493 
L 374.309178 105.165595 
L 374.468245 104.611527 
L 374.706844 111.191086 
L 374.786377 111.191086 
L 374.865911 111.052569 
L 374.945444 111.329603 
L 375.024977 108.005194 
L 375.184043 113.199583 
L 375.263577 113.199583 
L 375.502176 110.152208 
L 375.661243 103.364874 
L 375.740776 103.157098 
L 375.820309 104.126717 
L 375.899842 109.59814 
L 375.979376 108.490004 
L 376.058909 108.074453 
L 376.138442 108.282228 
L 376.217975 108.074453 
L 376.456575 105.996697 
L 376.536108 107.72816 
L 376.615641 107.381868 
L 376.774708 107.174092 
L 376.854241 107.174092 
L 376.933774 103.226357 
L 377.013307 103.641908 
L 377.172374 105.788922 
L 377.410973 104.750044 
L 377.490506 104.819303 
L 377.57004 104.819303 
L 377.729106 104.680786 
L 377.967706 106.204473 
L 378.047239 106.204473 
L 378.444905 102.325996 
L 378.603971 106.897058 
L 378.683505 106.897058 
L 378.763038 106.550766 
L 379.081171 111.675896 
L 379.478837 111.606637 
L 379.55837 111.398862 
L 379.637903 112.022188 
L 379.717436 111.675896 
L 379.796969 112.160705 
L 379.956036 106.273731 
L 380.035569 106.135214 
L 380.194635 109.528882 
L 380.274169 107.658902 
L 380.433235 112.160705 
L 380.592301 110.359984 
L 380.671835 110.56776 
L 380.910434 110.498501 
L 380.989967 110.498501 
L 381.069501 110.152208 
L 381.228567 108.420745 
L 381.387634 109.528882 
L 381.5467 104.126717 
L 381.626233 104.680786 
L 381.7853 106.204473 
L 381.864833 106.550766 
L 382.023899 103.918942 
L 382.103432 103.364874 
L 382.182966 104.334493 
L 382.262499 104.126717 
L 382.342032 104.195976 
L 382.501098 105.927439 
L 382.580632 105.304112 
L 382.660165 105.511888 
L 382.739698 105.511888 
L 382.819231 104.750044 
L 382.898764 104.888561 
L 383.375964 109.805916 
L 383.455497 106.34299 
L 383.53503 106.8278 
L 383.614563 106.897058 
L 383.694096 106.620024 
L 383.853163 103.9882 
L 383.932696 104.542269 
L 384.012229 104.403752 
L 384.171296 103.918942 
L 384.330362 101.425635 
L 384.409895 101.910445 
L 384.489429 105.304112 
L 384.648495 100.178982 
L 384.728028 100.24824 
L 384.887095 97.4779 
L 385.046161 97.4779 
L 385.125694 99.624914 
L 385.205227 99.417138 
L 385.364294 99.486397 
L 385.443827 99.417138 
L 385.602893 104.195976 
L 385.841493 104.195976 
L 385.921026 104.057459 
L 386.080093 103.503391 
L 386.159626 106.412248 
L 386.239159 106.065956 
L 386.318692 106.966317 
L 386.477759 102.187479 
L 386.557292 102.187479 
L 386.636825 101.21786 
L 386.716358 98.793812 
L 386.875425 100.871567 
L 387.114024 101.910445 
L 387.352624 102.810806 
L 387.432157 103.018581 
L 387.51169 102.949323 
L 387.670757 102.672289 
L 387.829823 102.672289 
L 387.98889 101.979703 
L 388.147956 97.131607 
L 388.227489 97.131607 
L 388.386556 93.876457 
L 388.466089 93.322389 
L 388.545622 95.538661 
L 388.704688 103.364874 
L 388.863755 99.624914 
L 389.340954 99.901948 
L 389.50002 103.9882 
L 389.818153 104.057459 
L 389.897687 103.572649 
L 390.056753 108.559263 
L 390.136286 108.559263 
L 390.295353 99.001587 
L 390.374886 99.278621 
L 390.533952 98.86307 
L 390.693019 101.702669 
L 390.852085 102.048962 
L 390.931618 102.11822 
L 391.011151 100.871567 
L 391.249751 93.045355 
L 391.329284 96.577539 
L 391.488351 92.214253 
L 391.72695 93.945715 
L 391.806483 83.556938 
L 391.886017 85.357659 
L 391.96555 83.141387 
L 392.045083 83.487679 
L 392.124616 83.556938 
L 392.204149 82.102509 
L 392.363216 84.87285 
L 392.442749 80.578822 
L 392.522282 80.717339 
L 392.681349 87.64319 
L 392.760882 83.349162 
L 392.919948 87.850966 
L 393.079015 83.487679 
L 393.158548 83.418421 
L 393.317614 79.886236 
L 393.397148 81.340665 
L 393.476681 81.271407 
L 393.635747 81.202148 
L 393.71528 80.371046 
L 393.794814 83.210645 
L 393.874347 78.016257 
L 393.95388 78.501066 
L 394.033413 78.639583 
L 394.272013 80.855856 
L 394.510612 80.855856 
L 394.669679 77.115896 
L 394.828745 76.492569 
L 394.987812 76.423311 
L 395.146878 71.367439 
L 395.305945 70.674854 
L 395.385478 71.090405 
L 395.465011 72.821868 
L 395.544544 72.752609 
L 395.624077 72.752609 
L 395.783144 74.068521 
L 395.862677 74.068521 
L 395.94221 74.968882 
L 396.021743 74.622589 
L 396.18081 76.215535 
L 396.339876 64.857138 
L 396.419409 77.39293 
L 396.498943 77.323671 
L 396.578476 77.323671 
L 396.658009 75.315174 
L 396.737542 78.501066 
L 396.896609 90.621307 
L 397.055675 90.275014 
L 397.135208 88.335776 
L 397.214741 88.61281 
L 397.373808 88.405034 
L 397.453341 88.474293 
L 397.532874 92.976096 
L 397.612407 90.898341 
L 397.691941 91.036858 
L 397.851007 91.38315 
L 397.93054 100.109723 
L 398.010073 99.971206 
L 398.16914 100.802309 
L 398.248673 100.456016 
L 398.328206 100.663792 
L 398.40774 100.594533 
L 398.487273 98.932329 
L 398.487273 98.932329 
" clip-path="url(#p0e46989e0c)" style="fill: none; stroke: #1f77b4; stroke-width: 1.5; stroke-linecap: square"/>
   </g>
   <g id="patch_3">
    <path d="M 57.6 307.584 
L 57.6 41.472 
" style="fill: none; stroke: #000000; stroke-width: 0.8; stroke-linejoin: miter; stroke-linecap: square"/>
   </g>
   <g id="patch_4">
    <path d="M 414.72 307.584 
L 414.72 41.472 
" style="fill: none; stroke: #000000; stroke-width: 0.8; stroke-linejoin: miter; stroke-linecap: square"/>
   </g>
   <g id="patch_5">
    <path d="M 57.6 307.584 
L 414.72 307.584 
" style="fill: none; stroke: #000000; stroke-width: 0.8; stroke-linejoin: miter; stroke-linecap: square"/>
   </g>
   <g id="patch_6">
    <path d="M 57.6 41.472 
L 414.72 41.472 
" style="fill: none; stroke: #000000; stroke-width: 0.8; stroke-linejoin: miter; stroke-linecap: square"/>
   </g>
   <g id="text_20">
    <!-- comp10 -->
    <g transform="translate(211.90125 35.472) scale(0.12 -0.12)">
     <defs>
      <path id="DejaVuSans-63" d="M 3122 3366 
L 3122 2828 
Q 2878 2963 2633 3030 
Q 2388 3097 2138 3097 
Q 1578 3097 1268 2742 
Q 959 2388 959 1747 
Q 959 1106 1268 751 
Q 1578 397 2138 397 
Q 2388 397 2633 464 
Q 2878 531 3122 666 
L 3122 134 
Q 2881 22 2623 -34 
Q 2366 -91 2075 -91 
Q 1284 -91 818 406 
Q 353 903 353 1747 
Q 353 2603 823 3093 
Q 1294 3584 2113 3584 
Q 2378 3584 2631 3529 
Q 2884 3475 3122 3366 
z
" transform="scale(0.015625)"/>
      <path id="DejaVuSans-70" d="M 1159 525 
L 1159 -1331 
L 581 -1331 
L 581 3500 
L 1159 3500 
L 1159 2969 
Q 1341 3281 1617 3432 
Q 1894 3584 2278 3584 
Q 2916 3584 3314 3078 
Q 3713 2572 3713 1747 
Q 3713 922 3314 415 
Q 2916 -91 2278 -91 
Q 1894 -91 1617 61 
Q 1341 213 1159 525 
z
M 3116 1747 
Q 3116 2381 2855 2742 
Q 2594 3103 2138 3103 
Q 1681 3103 1420 2742 
Q 1159 2381 1159 1747 
Q 1159 1113 1420 752 
Q 1681 391 2138 391 
Q 2594 391 2855 752 
Q 3116 1113 3116 1747 
z
" transform="scale(0.015625)"/>
     </defs>
     <use xlink:href="#DejaVuSans-63"/>
     <use xlink:href="#DejaVuSans-6f" x="54.980469"/>
     <use xlink:href="#DejaVuSans-6d" x="116.162109"/>
     <use xlink:href="#DejaVuSans-70" x="213.574219"/>
     <use xlink:href="#DejaVuSans-31" x="277.050781"/>
     <use xlink:href="#DejaVuSans-30" x="340.673828"/>
    </g>
   </g>
  </g>
 </g>
 <defs>
  <clipPath id="p0e46989e0c">
   <rect x="57.6" y="41.472" width="357.12" height="266.112"/>
  </clipPath>
 </defs>
</svg>
