<?xml version="1.0" encoding="utf-8" standalone="no"?>
<!DOCTYPE svg PUBLIC "-//W3C//DTD SVG 1.1//EN"
  "http://www.w3.org/Graphics/SVG/1.1/DTD/svg11.dtd">
<svg xmlns:xlink="http://www.w3.org/1999/xlink" width="460.8pt" height="345.6pt" viewBox="0 0 460.8 345.6" xmlns="http://www.w3.org/2000/svg" version="1.1">
 <metadata>
  <rdf:RDF xmlns:dc="http://purl.org/dc/elements/1.1/" xmlns:cc="http://creativecommons.org/ns#" xmlns:rdf="http://www.w3.org/1999/02/22-rdf-syntax-ns#">
   <cc:Work>
    <dc:type rdf:resource="http://purl.org/dc/dcmitype/StillImage"/>
    <dc:date>2023-12-03T18:15:55.452012</dc:date>
    <dc:format>image/svg+xml</dc:format>
    <dc:creator>
     <cc:Agent>
      <dc:title>Matplotlib v3.7.1, https://matplotlib.org/</dc:title>
     </cc:Agent>
    </dc:creator>
   </cc:Work>
  </rdf:RDF>
 </metadata>
 <defs>
  <style type="text/css">*{stroke-linejoin: round; stroke-linecap: butt}</style>
 </defs>
 <g id="figure_1">
  <g id="patch_1">
   <path d="M 0 345.6 
L 460.8 345.6 
L 460.8 0 
L 0 0 
z
" style="fill: #ffffff"/>
  </g>
  <g id="axes_1">
   <g id="patch_2">
    <path d="M 57.6 307.584 
L 414.72 307.584 
L 414.72 41.472 
L 57.6 41.472 
z
" style="fill: #ffffff"/>
   </g>
   <g id="matplotlib.axis_1">
    <g id="xtick_1">
     <g id="line2d_1">
      <defs>
       <path id="me48d685f84" d="M 0 0 
L 0 3.5 
" style="stroke: #000000; stroke-width: 0.8"/>
      </defs>
      <g>
       <use xlink:href="#me48d685f84" x="73.832727" y="307.584" style="stroke: #000000; stroke-width: 0.8"/>
      </g>
     </g>
     <g id="text_1">
      <!-- 0 -->
      <g transform="translate(70.651477 322.182437) scale(0.1 -0.1)">
       <defs>
        <path id="DejaVuSans-30" d="M 2034 4250 
Q 1547 4250 1301 3770 
Q 1056 3291 1056 2328 
Q 1056 1369 1301 889 
Q 1547 409 2034 409 
Q 2525 409 2770 889 
Q 3016 1369 3016 2328 
Q 3016 3291 2770 3770 
Q 2525 4250 2034 4250 
z
M 2034 4750 
Q 2819 4750 3233 4129 
Q 3647 3509 3647 2328 
Q 3647 1150 3233 529 
Q 2819 -91 2034 -91 
Q 1250 -91 836 529 
Q 422 1150 422 2328 
Q 422 3509 836 4129 
Q 1250 4750 2034 4750 
z
" transform="scale(0.015625)"/>
       </defs>
       <use xlink:href="#DejaVuSans-30"/>
      </g>
     </g>
    </g>
    <g id="xtick_2">
     <g id="line2d_2">
      <g>
       <use xlink:href="#me48d685f84" x="121.213718" y="307.584" style="stroke: #000000; stroke-width: 0.8"/>
      </g>
     </g>
     <g id="text_2">
      <!-- 500 -->
      <g transform="translate(111.669968 322.182437) scale(0.1 -0.1)">
       <defs>
        <path id="DejaVuSans-35" d="M 691 4666 
L 3169 4666 
L 3169 4134 
L 1269 4134 
L 1269 2991 
Q 1406 3038 1543 3061 
Q 1681 3084 1819 3084 
Q 2600 3084 3056 2656 
Q 3513 2228 3513 1497 
Q 3513 744 3044 326 
Q 2575 -91 1722 -91 
Q 1428 -91 1123 -41 
Q 819 9 494 109 
L 494 744 
Q 775 591 1075 516 
Q 1375 441 1709 441 
Q 2250 441 2565 725 
Q 2881 1009 2881 1497 
Q 2881 1984 2565 2268 
Q 2250 2553 1709 2553 
Q 1456 2553 1204 2497 
Q 953 2441 691 2322 
L 691 4666 
z
" transform="scale(0.015625)"/>
       </defs>
       <use xlink:href="#DejaVuSans-35"/>
       <use xlink:href="#DejaVuSans-30" x="63.623047"/>
       <use xlink:href="#DejaVuSans-30" x="127.246094"/>
      </g>
     </g>
    </g>
    <g id="xtick_3">
     <g id="line2d_3">
      <g>
       <use xlink:href="#me48d685f84" x="168.594708" y="307.584" style="stroke: #000000; stroke-width: 0.8"/>
      </g>
     </g>
     <g id="text_3">
      <!-- 1000 -->
      <g transform="translate(155.869708 322.182437) scale(0.1 -0.1)">
       <defs>
        <path id="DejaVuSans-31" d="M 794 531 
L 1825 531 
L 1825 4091 
L 703 3866 
L 703 4441 
L 1819 4666 
L 2450 4666 
L 2450 531 
L 3481 531 
L 3481 0 
L 794 0 
L 794 531 
z
" transform="scale(0.015625)"/>
       </defs>
       <use xlink:href="#DejaVuSans-31"/>
       <use xlink:href="#DejaVuSans-30" x="63.623047"/>
       <use xlink:href="#DejaVuSans-30" x="127.246094"/>
       <use xlink:href="#DejaVuSans-30" x="190.869141"/>
      </g>
     </g>
    </g>
    <g id="xtick_4">
     <g id="line2d_4">
      <g>
       <use xlink:href="#me48d685f84" x="215.975698" y="307.584" style="stroke: #000000; stroke-width: 0.8"/>
      </g>
     </g>
     <g id="text_4">
      <!-- 1500 -->
      <g transform="translate(203.250698 322.182437) scale(0.1 -0.1)">
       <use xlink:href="#DejaVuSans-31"/>
       <use xlink:href="#DejaVuSans-35" x="63.623047"/>
       <use xlink:href="#DejaVuSans-30" x="127.246094"/>
       <use xlink:href="#DejaVuSans-30" x="190.869141"/>
      </g>
     </g>
    </g>
    <g id="xtick_5">
     <g id="line2d_5">
      <g>
       <use xlink:href="#me48d685f84" x="263.356688" y="307.584" style="stroke: #000000; stroke-width: 0.8"/>
      </g>
     </g>
     <g id="text_5">
      <!-- 2000 -->
      <g transform="translate(250.631688 322.182437) scale(0.1 -0.1)">
       <defs>
        <path id="DejaVuSans-32" d="M 1228 531 
L 3431 531 
L 3431 0 
L 469 0 
L 469 531 
Q 828 903 1448 1529 
Q 2069 2156 2228 2338 
Q 2531 2678 2651 2914 
Q 2772 3150 2772 3378 
Q 2772 3750 2511 3984 
Q 2250 4219 1831 4219 
Q 1534 4219 1204 4116 
Q 875 4013 500 3803 
L 500 4441 
Q 881 4594 1212 4672 
Q 1544 4750 1819 4750 
Q 2544 4750 2975 4387 
Q 3406 4025 3406 3419 
Q 3406 3131 3298 2873 
Q 3191 2616 2906 2266 
Q 2828 2175 2409 1742 
Q 1991 1309 1228 531 
z
" transform="scale(0.015625)"/>
       </defs>
       <use xlink:href="#DejaVuSans-32"/>
       <use xlink:href="#DejaVuSans-30" x="63.623047"/>
       <use xlink:href="#DejaVuSans-30" x="127.246094"/>
       <use xlink:href="#DejaVuSans-30" x="190.869141"/>
      </g>
     </g>
    </g>
    <g id="xtick_6">
     <g id="line2d_6">
      <g>
       <use xlink:href="#me48d685f84" x="310.737679" y="307.584" style="stroke: #000000; stroke-width: 0.8"/>
      </g>
     </g>
     <g id="text_6">
      <!-- 2500 -->
      <g transform="translate(298.012679 322.182437) scale(0.1 -0.1)">
       <use xlink:href="#DejaVuSans-32"/>
       <use xlink:href="#DejaVuSans-35" x="63.623047"/>
       <use xlink:href="#DejaVuSans-30" x="127.246094"/>
       <use xlink:href="#DejaVuSans-30" x="190.869141"/>
      </g>
     </g>
    </g>
    <g id="xtick_7">
     <g id="line2d_7">
      <g>
       <use xlink:href="#me48d685f84" x="358.118669" y="307.584" style="stroke: #000000; stroke-width: 0.8"/>
      </g>
     </g>
     <g id="text_7">
      <!-- 3000 -->
      <g transform="translate(345.393669 322.182437) scale(0.1 -0.1)">
       <defs>
        <path id="DejaVuSans-33" d="M 2597 2516 
Q 3050 2419 3304 2112 
Q 3559 1806 3559 1356 
Q 3559 666 3084 287 
Q 2609 -91 1734 -91 
Q 1441 -91 1130 -33 
Q 819 25 488 141 
L 488 750 
Q 750 597 1062 519 
Q 1375 441 1716 441 
Q 2309 441 2620 675 
Q 2931 909 2931 1356 
Q 2931 1769 2642 2001 
Q 2353 2234 1838 2234 
L 1294 2234 
L 1294 2753 
L 1863 2753 
Q 2328 2753 2575 2939 
Q 2822 3125 2822 3475 
Q 2822 3834 2567 4026 
Q 2313 4219 1838 4219 
Q 1578 4219 1281 4162 
Q 984 4106 628 3988 
L 628 4550 
Q 988 4650 1302 4700 
Q 1616 4750 1894 4750 
Q 2613 4750 3031 4423 
Q 3450 4097 3450 3541 
Q 3450 3153 3228 2886 
Q 3006 2619 2597 2516 
z
" transform="scale(0.015625)"/>
       </defs>
       <use xlink:href="#DejaVuSans-33"/>
       <use xlink:href="#DejaVuSans-30" x="63.623047"/>
       <use xlink:href="#DejaVuSans-30" x="127.246094"/>
       <use xlink:href="#DejaVuSans-30" x="190.869141"/>
      </g>
     </g>
    </g>
    <g id="xtick_8">
     <g id="line2d_8">
      <g>
       <use xlink:href="#me48d685f84" x="405.499659" y="307.584" style="stroke: #000000; stroke-width: 0.8"/>
      </g>
     </g>
     <g id="text_8">
      <!-- 3500 -->
      <g transform="translate(392.774659 322.182437) scale(0.1 -0.1)">
       <use xlink:href="#DejaVuSans-33"/>
       <use xlink:href="#DejaVuSans-35" x="63.623047"/>
       <use xlink:href="#DejaVuSans-30" x="127.246094"/>
       <use xlink:href="#DejaVuSans-30" x="190.869141"/>
      </g>
     </g>
    </g>
    <g id="text_9">
     <!-- iteration -->
     <g transform="translate(215.037344 335.860562) scale(0.1 -0.1)">
      <defs>
       <path id="DejaVuSans-69" d="M 603 3500 
L 1178 3500 
L 1178 0 
L 603 0 
L 603 3500 
z
M 603 4863 
L 1178 4863 
L 1178 4134 
L 603 4134 
L 603 4863 
z
" transform="scale(0.015625)"/>
       <path id="DejaVuSans-74" d="M 1172 4494 
L 1172 3500 
L 2356 3500 
L 2356 3053 
L 1172 3053 
L 1172 1153 
Q 1172 725 1289 603 
Q 1406 481 1766 481 
L 2356 481 
L 2356 0 
L 1766 0 
Q 1100 0 847 248 
Q 594 497 594 1153 
L 594 3053 
L 172 3053 
L 172 3500 
L 594 3500 
L 594 4494 
L 1172 4494 
z
" transform="scale(0.015625)"/>
       <path id="DejaVuSans-65" d="M 3597 1894 
L 3597 1613 
L 953 1613 
Q 991 1019 1311 708 
Q 1631 397 2203 397 
Q 2534 397 2845 478 
Q 3156 559 3463 722 
L 3463 178 
Q 3153 47 2828 -22 
Q 2503 -91 2169 -91 
Q 1331 -91 842 396 
Q 353 884 353 1716 
Q 353 2575 817 3079 
Q 1281 3584 2069 3584 
Q 2775 3584 3186 3129 
Q 3597 2675 3597 1894 
z
M 3022 2063 
Q 3016 2534 2758 2815 
Q 2500 3097 2075 3097 
Q 1594 3097 1305 2825 
Q 1016 2553 972 2059 
L 3022 2063 
z
" transform="scale(0.015625)"/>
       <path id="DejaVuSans-72" d="M 2631 2963 
Q 2534 3019 2420 3045 
Q 2306 3072 2169 3072 
Q 1681 3072 1420 2755 
Q 1159 2438 1159 1844 
L 1159 0 
L 581 0 
L 581 3500 
L 1159 3500 
L 1159 2956 
Q 1341 3275 1631 3429 
Q 1922 3584 2338 3584 
Q 2397 3584 2469 3576 
Q 2541 3569 2628 3553 
L 2631 2963 
z
" transform="scale(0.015625)"/>
       <path id="DejaVuSans-61" d="M 2194 1759 
Q 1497 1759 1228 1600 
Q 959 1441 959 1056 
Q 959 750 1161 570 
Q 1363 391 1709 391 
Q 2188 391 2477 730 
Q 2766 1069 2766 1631 
L 2766 1759 
L 2194 1759 
z
M 3341 1997 
L 3341 0 
L 2766 0 
L 2766 531 
Q 2569 213 2275 61 
Q 1981 -91 1556 -91 
Q 1019 -91 701 211 
Q 384 513 384 1019 
Q 384 1609 779 1909 
Q 1175 2209 1959 2209 
L 2766 2209 
L 2766 2266 
Q 2766 2663 2505 2880 
Q 2244 3097 1772 3097 
Q 1472 3097 1187 3025 
Q 903 2953 641 2809 
L 641 3341 
Q 956 3463 1253 3523 
Q 1550 3584 1831 3584 
Q 2591 3584 2966 3190 
Q 3341 2797 3341 1997 
z
" transform="scale(0.015625)"/>
       <path id="DejaVuSans-6f" d="M 1959 3097 
Q 1497 3097 1228 2736 
Q 959 2375 959 1747 
Q 959 1119 1226 758 
Q 1494 397 1959 397 
Q 2419 397 2687 759 
Q 2956 1122 2956 1747 
Q 2956 2369 2687 2733 
Q 2419 3097 1959 3097 
z
M 1959 3584 
Q 2709 3584 3137 3096 
Q 3566 2609 3566 1747 
Q 3566 888 3137 398 
Q 2709 -91 1959 -91 
Q 1206 -91 779 398 
Q 353 888 353 1747 
Q 353 2609 779 3096 
Q 1206 3584 1959 3584 
z
" transform="scale(0.015625)"/>
       <path id="DejaVuSans-6e" d="M 3513 2113 
L 3513 0 
L 2938 0 
L 2938 2094 
Q 2938 2591 2744 2837 
Q 2550 3084 2163 3084 
Q 1697 3084 1428 2787 
Q 1159 2491 1159 1978 
L 1159 0 
L 581 0 
L 581 3500 
L 1159 3500 
L 1159 2956 
Q 1366 3272 1645 3428 
Q 1925 3584 2291 3584 
Q 2894 3584 3203 3211 
Q 3513 2838 3513 2113 
z
" transform="scale(0.015625)"/>
      </defs>
      <use xlink:href="#DejaVuSans-69"/>
      <use xlink:href="#DejaVuSans-74" x="27.783203"/>
      <use xlink:href="#DejaVuSans-65" x="66.992188"/>
      <use xlink:href="#DejaVuSans-72" x="128.515625"/>
      <use xlink:href="#DejaVuSans-61" x="169.628906"/>
      <use xlink:href="#DejaVuSans-74" x="230.908203"/>
      <use xlink:href="#DejaVuSans-69" x="270.117188"/>
      <use xlink:href="#DejaVuSans-6f" x="297.900391"/>
      <use xlink:href="#DejaVuSans-6e" x="359.082031"/>
     </g>
    </g>
   </g>
   <g id="matplotlib.axis_2">
    <g id="ytick_1">
     <g id="line2d_9">
      <defs>
       <path id="mf718577f17" d="M 0 0 
L -3.5 0 
" style="stroke: #000000; stroke-width: 0.8"/>
      </defs>
      <g>
       <use xlink:href="#mf718577f17" x="57.6" y="302.621149" style="stroke: #000000; stroke-width: 0.8"/>
      </g>
     </g>
     <g id="text_10">
      <!-- 1000 -->
      <g transform="translate(25.15 306.420368) scale(0.1 -0.1)">
       <use xlink:href="#DejaVuSans-31"/>
       <use xlink:href="#DejaVuSans-30" x="63.623047"/>
       <use xlink:href="#DejaVuSans-30" x="127.246094"/>
       <use xlink:href="#DejaVuSans-30" x="190.869141"/>
      </g>
     </g>
    </g>
    <g id="ytick_2">
     <g id="line2d_10">
      <g>
       <use xlink:href="#mf718577f17" x="57.6" y="264.678866" style="stroke: #000000; stroke-width: 0.8"/>
      </g>
     </g>
     <g id="text_11">
      <!-- 1500 -->
      <g transform="translate(25.15 268.478084) scale(0.1 -0.1)">
       <use xlink:href="#DejaVuSans-31"/>
       <use xlink:href="#DejaVuSans-35" x="63.623047"/>
       <use xlink:href="#DejaVuSans-30" x="127.246094"/>
       <use xlink:href="#DejaVuSans-30" x="190.869141"/>
      </g>
     </g>
    </g>
    <g id="ytick_3">
     <g id="line2d_11">
      <g>
       <use xlink:href="#mf718577f17" x="57.6" y="226.736582" style="stroke: #000000; stroke-width: 0.8"/>
      </g>
     </g>
     <g id="text_12">
      <!-- 2000 -->
      <g transform="translate(25.15 230.535801) scale(0.1 -0.1)">
       <use xlink:href="#DejaVuSans-32"/>
       <use xlink:href="#DejaVuSans-30" x="63.623047"/>
       <use xlink:href="#DejaVuSans-30" x="127.246094"/>
       <use xlink:href="#DejaVuSans-30" x="190.869141"/>
      </g>
     </g>
    </g>
    <g id="ytick_4">
     <g id="line2d_12">
      <g>
       <use xlink:href="#mf718577f17" x="57.6" y="188.794299" style="stroke: #000000; stroke-width: 0.8"/>
      </g>
     </g>
     <g id="text_13">
      <!-- 2500 -->
      <g transform="translate(25.15 192.593517) scale(0.1 -0.1)">
       <use xlink:href="#DejaVuSans-32"/>
       <use xlink:href="#DejaVuSans-35" x="63.623047"/>
       <use xlink:href="#DejaVuSans-30" x="127.246094"/>
       <use xlink:href="#DejaVuSans-30" x="190.869141"/>
      </g>
     </g>
    </g>
    <g id="ytick_5">
     <g id="line2d_13">
      <g>
       <use xlink:href="#mf718577f17" x="57.6" y="150.852015" style="stroke: #000000; stroke-width: 0.8"/>
      </g>
     </g>
     <g id="text_14">
      <!-- 3000 -->
      <g transform="translate(25.15 154.651234) scale(0.1 -0.1)">
       <use xlink:href="#DejaVuSans-33"/>
       <use xlink:href="#DejaVuSans-30" x="63.623047"/>
       <use xlink:href="#DejaVuSans-30" x="127.246094"/>
       <use xlink:href="#DejaVuSans-30" x="190.869141"/>
      </g>
     </g>
    </g>
    <g id="ytick_6">
     <g id="line2d_14">
      <g>
       <use xlink:href="#mf718577f17" x="57.6" y="112.909731" style="stroke: #000000; stroke-width: 0.8"/>
      </g>
     </g>
     <g id="text_15">
      <!-- 3500 -->
      <g transform="translate(25.15 116.70895) scale(0.1 -0.1)">
       <use xlink:href="#DejaVuSans-33"/>
       <use xlink:href="#DejaVuSans-35" x="63.623047"/>
       <use xlink:href="#DejaVuSans-30" x="127.246094"/>
       <use xlink:href="#DejaVuSans-30" x="190.869141"/>
      </g>
     </g>
    </g>
    <g id="ytick_7">
     <g id="line2d_15">
      <g>
       <use xlink:href="#mf718577f17" x="57.6" y="74.967448" style="stroke: #000000; stroke-width: 0.8"/>
      </g>
     </g>
     <g id="text_16">
      <!-- 4000 -->
      <g transform="translate(25.15 78.766667) scale(0.1 -0.1)">
       <defs>
        <path id="DejaVuSans-34" d="M 2419 4116 
L 825 1625 
L 2419 1625 
L 2419 4116 
z
M 2253 4666 
L 3047 4666 
L 3047 1625 
L 3713 1625 
L 3713 1100 
L 3047 1100 
L 3047 0 
L 2419 0 
L 2419 1100 
L 313 1100 
L 313 1709 
L 2253 4666 
z
" transform="scale(0.015625)"/>
       </defs>
       <use xlink:href="#DejaVuSans-34"/>
       <use xlink:href="#DejaVuSans-30" x="63.623047"/>
       <use xlink:href="#DejaVuSans-30" x="127.246094"/>
       <use xlink:href="#DejaVuSans-30" x="190.869141"/>
      </g>
     </g>
    </g>
    <g id="text_17">
     <!-- best fitness of swarm -->
     <g transform="translate(19.070312 228.0905) rotate(-90) scale(0.1 -0.1)">
      <defs>
       <path id="DejaVuSans-62" d="M 3116 1747 
Q 3116 2381 2855 2742 
Q 2594 3103 2138 3103 
Q 1681 3103 1420 2742 
Q 1159 2381 1159 1747 
Q 1159 1113 1420 752 
Q 1681 391 2138 391 
Q 2594 391 2855 752 
Q 3116 1113 3116 1747 
z
M 1159 2969 
Q 1341 3281 1617 3432 
Q 1894 3584 2278 3584 
Q 2916 3584 3314 3078 
Q 3713 2572 3713 1747 
Q 3713 922 3314 415 
Q 2916 -91 2278 -91 
Q 1894 -91 1617 61 
Q 1341 213 1159 525 
L 1159 0 
L 581 0 
L 581 4863 
L 1159 4863 
L 1159 2969 
z
" transform="scale(0.015625)"/>
       <path id="DejaVuSans-73" d="M 2834 3397 
L 2834 2853 
Q 2591 2978 2328 3040 
Q 2066 3103 1784 3103 
Q 1356 3103 1142 2972 
Q 928 2841 928 2578 
Q 928 2378 1081 2264 
Q 1234 2150 1697 2047 
L 1894 2003 
Q 2506 1872 2764 1633 
Q 3022 1394 3022 966 
Q 3022 478 2636 193 
Q 2250 -91 1575 -91 
Q 1294 -91 989 -36 
Q 684 19 347 128 
L 347 722 
Q 666 556 975 473 
Q 1284 391 1588 391 
Q 1994 391 2212 530 
Q 2431 669 2431 922 
Q 2431 1156 2273 1281 
Q 2116 1406 1581 1522 
L 1381 1569 
Q 847 1681 609 1914 
Q 372 2147 372 2553 
Q 372 3047 722 3315 
Q 1072 3584 1716 3584 
Q 2034 3584 2315 3537 
Q 2597 3491 2834 3397 
z
" transform="scale(0.015625)"/>
       <path id="DejaVuSans-20" transform="scale(0.015625)"/>
       <path id="DejaVuSans-66" d="M 2375 4863 
L 2375 4384 
L 1825 4384 
Q 1516 4384 1395 4259 
Q 1275 4134 1275 3809 
L 1275 3500 
L 2222 3500 
L 2222 3053 
L 1275 3053 
L 1275 0 
L 697 0 
L 697 3053 
L 147 3053 
L 147 3500 
L 697 3500 
L 697 3744 
Q 697 4328 969 4595 
Q 1241 4863 1831 4863 
L 2375 4863 
z
" transform="scale(0.015625)"/>
       <path id="DejaVuSans-77" d="M 269 3500 
L 844 3500 
L 1563 769 
L 2278 3500 
L 2956 3500 
L 3675 769 
L 4391 3500 
L 4966 3500 
L 4050 0 
L 3372 0 
L 2619 2869 
L 1863 0 
L 1184 0 
L 269 3500 
z
" transform="scale(0.015625)"/>
       <path id="DejaVuSans-6d" d="M 3328 2828 
Q 3544 3216 3844 3400 
Q 4144 3584 4550 3584 
Q 5097 3584 5394 3201 
Q 5691 2819 5691 2113 
L 5691 0 
L 5113 0 
L 5113 2094 
Q 5113 2597 4934 2840 
Q 4756 3084 4391 3084 
Q 3944 3084 3684 2787 
Q 3425 2491 3425 1978 
L 3425 0 
L 2847 0 
L 2847 2094 
Q 2847 2600 2669 2842 
Q 2491 3084 2119 3084 
Q 1678 3084 1418 2786 
Q 1159 2488 1159 1978 
L 1159 0 
L 581 0 
L 581 3500 
L 1159 3500 
L 1159 2956 
Q 1356 3278 1631 3431 
Q 1906 3584 2284 3584 
Q 2666 3584 2933 3390 
Q 3200 3197 3328 2828 
z
" transform="scale(0.015625)"/>
      </defs>
      <use xlink:href="#DejaVuSans-62"/>
      <use xlink:href="#DejaVuSans-65" x="63.476562"/>
      <use xlink:href="#DejaVuSans-73" x="125"/>
      <use xlink:href="#DejaVuSans-74" x="177.099609"/>
      <use xlink:href="#DejaVuSans-20" x="216.308594"/>
      <use xlink:href="#DejaVuSans-66" x="248.095703"/>
      <use xlink:href="#DejaVuSans-69" x="283.300781"/>
      <use xlink:href="#DejaVuSans-74" x="311.083984"/>
      <use xlink:href="#DejaVuSans-6e" x="350.292969"/>
      <use xlink:href="#DejaVuSans-65" x="413.671875"/>
      <use xlink:href="#DejaVuSans-73" x="475.195312"/>
      <use xlink:href="#DejaVuSans-73" x="527.294922"/>
      <use xlink:href="#DejaVuSans-20" x="579.394531"/>
      <use xlink:href="#DejaVuSans-6f" x="611.181641"/>
      <use xlink:href="#DejaVuSans-66" x="672.363281"/>
      <use xlink:href="#DejaVuSans-20" x="707.568359"/>
      <use xlink:href="#DejaVuSans-73" x="739.355469"/>
      <use xlink:href="#DejaVuSans-77" x="791.455078"/>
      <use xlink:href="#DejaVuSans-61" x="873.242188"/>
      <use xlink:href="#DejaVuSans-72" x="934.521484"/>
      <use xlink:href="#DejaVuSans-6d" x="973.884766"/>
     </g>
    </g>
   </g>
   <g id="line2d_16">
    <path d="M 73.832727 295.488 
L 74.022251 294.577385 
L 74.401299 294.65327 
L 74.685585 290.555503 
L 74.875109 290.403734 
L 75.064633 290.327849 
L 75.254157 289.113696 
L 75.348919 289.113696 
L 75.633205 284.105315 
L 75.917491 283.953546 
L 76.201777 283.877661 
L 76.486063 275.302705 
L 76.675587 275.302705 
L 76.770349 275.075051 
L 76.865111 275.150936 
L 77.054635 269.763132 
L 77.433683 263.616482 
L 77.528445 263.540597 
L 77.623206 263.692366 
L 77.717968 265.817134 
L 78.002254 264.75475 
L 78.191778 259.822253 
L 78.381302 259.822253 
L 78.855112 248.591338 
L 78.949874 248.287799 
L 79.044636 247.225415 
L 79.23416 244.493571 
L 79.328922 244.417686 
L 79.423684 244.190033 
L 79.518446 242.97588 
L 79.70797 238.802228 
L 80.087018 237.512191 
L 80.18178 237.512191 
L 80.371304 236.601576 
L 80.466066 236.525691 
L 80.750352 232.200271 
L 80.939876 231.289656 
L 81.1294 232.883232 
L 81.318924 232.427925 
L 81.413686 232.427925 
L 81.60321 233.262655 
L 81.792734 227.419543 
L 81.982258 227.343659 
L 82.171782 227.343659 
L 82.361306 226.508928 
L 82.550829 228.178389 
L 82.645591 228.709581 
L 82.835115 227.267774 
L 82.929877 227.267774 
L 83.119401 219.679317 
L 83.403687 219.679317 
L 83.593211 218.009857 
L 83.782735 217.858088 
L 84.067021 217.858088 
L 84.161783 214.367398 
L 84.256545 221.04524 
L 84.351307 220.362279 
L 84.540831 220.286394 
L 84.635593 220.589932 
L 84.730355 218.465164 
L 84.825117 218.844587 
L 84.919879 218.768703 
L 85.204165 217.782203 
L 85.298927 218.085742 
L 85.488451 213.836206 
L 85.677975 208.220748 
L 85.772737 208.220748 
L 86.057023 207.082479 
L 86.246547 206.475403 
L 86.436071 206.247749 
L 86.625595 207.841325 
L 86.720357 207.841325 
L 86.909881 205.792442 
L 87.099405 204.502404 
L 87.288929 202.149982 
L 87.38369 204.122981 
L 87.573214 198.886946 
L 87.667976 198.962831 
L 87.762738 199.266369 
L 87.952262 194.030334 
L 88.047024 190.843182 
L 88.236548 198.659292 
L 88.33131 198.659292 
L 88.426072 197.141601 
L 88.520834 202.681174 
L 88.615596 202.529405 
L 88.710358 202.529405 
L 88.899882 194.940949 
L 88.994644 194.940949 
L 89.184168 196.382755 
L 89.468454 190.539644 
L 89.657978 190.539644 
L 89.75274 190.387875 
L 89.847502 186.365992 
L 90.037026 190.767297 
L 90.131788 188.338991 
L 90.321312 183.027072 
L 90.416074 181.50938 
L 90.510836 181.585265 
L 90.605598 180.446996 
L 90.70036 180.522881 
L 90.795122 179.915804 
L 90.984646 176.652768 
L 91.079408 176.652768 
L 91.17417 176.500999 
L 91.363694 171.568502 
L 91.458456 171.264964 
L 91.553218 173.237962 
L 91.742742 169.140196 
L 92.027028 171.87204 
L 92.216552 170.278464 
L 92.311313 173.313847 
L 92.595599 167.243082 
L 92.690361 167.243082 
L 92.879885 169.974926 
L 93.069409 165.801275 
L 93.353695 165.801275 
L 93.827505 157.302203 
L 93.922267 159.199317 
L 94.017029 159.123433 
L 94.206553 159.275202 
L 94.396077 154.798013 
L 94.585601 154.722128 
L 94.680363 154.646243 
L 94.775125 154.722128 
L 94.964649 152.749129 
L 95.154173 158.440472 
L 95.533221 157.07455 
L 95.627983 160.413471 
L 95.722745 160.337586 
L 95.817507 162.993546 
L 95.912269 162.917661 
L 96.007031 163.06943 
L 96.196555 158.819895 
L 96.291317 158.668125 
L 96.386079 162.841777 
L 96.575603 159.57874 
L 96.859889 159.426971 
L 97.049413 159.882279 
L 97.144174 159.806394 
L 97.238936 160.261701 
L 97.42846 158.061049 
L 97.617984 156.92278 
L 97.712746 156.619242 
L 97.997032 149.10667 
L 98.091794 148.879016 
L 98.186556 148.347824 
L 98.281318 148.499593 
L 98.37608 148.347824 
L 98.565604 149.9414 
L 98.660366 147.740748 
L 98.755128 148.120171 
L 98.84989 146.906018 
L 98.944652 146.981902 
L 99.039414 142.732366 
L 99.134176 143.263558 
L 99.228938 143.263558 
L 99.418462 142.808251 
L 99.513224 145.61598 
L 99.892272 140.607598 
L 99.987034 140.228176 
L 100.176558 135.902755 
L 100.27132 136.661601 
L 100.366082 134.081526 
L 100.460844 134.309179 
L 100.650368 140.30406 
L 100.74513 140.000522 
L 100.839892 141.442329 
L 100.934654 141.366444 
L 101.124178 141.214675 
L 101.408464 133.170911 
L 101.597988 132.184412 
L 101.69275 132.336181 
L 101.787512 132.260296 
L 101.882274 131.65322 
L 101.977036 131.956758 
L 102.166559 131.729104 
L 102.261321 131.577335 
L 102.356083 129.528452 
L 102.545607 132.336181 
L 102.735131 133.550334 
L 102.924655 133.550334 
L 103.114179 134.385064 
L 103.208941 134.764487 
L 103.303703 139.241676 
L 103.398465 139.014023 
L 103.587989 138.482831 
L 103.682751 138.482831 
L 103.777513 141.745867 
L 103.872275 141.669982 
L 103.967037 141.442329 
L 104.156561 139.241676 
L 104.346085 138.255177 
L 104.440847 138.406946 
L 104.535609 138.331061 
L 104.725133 139.089907 
L 104.819895 138.786369 
L 105.009419 138.862253 
L 105.104181 141.897636 
L 105.198943 140.911137 
L 105.293705 141.062906 
L 105.388467 143.035905 
L 105.577991 136.433947 
L 105.862277 136.282178 
L 106.051801 130.66672 
L 106.146563 130.66672 
L 106.241325 129.907875 
L 106.336087 129.983759 
L 106.525611 126.265415 
L 106.620373 126.265415 
L 106.809897 127.555453 
L 106.904658 127.479568 
L 106.99942 127.783107 
L 107.188944 122.85061 
L 107.47323 122.926494 
L 107.567992 122.01588 
L 107.94704 109.570811 
L 108.136564 108.129004 
L 108.231326 111.39204 
L 108.42085 105.624813 
L 108.610374 105.548928 
L 108.705136 105.548928 
L 108.799898 108.73608 
L 108.89466 107.825465 
L 109.084184 111.164386 
L 109.178946 111.088502 
L 109.273708 112.530309 
L 109.36847 111.847348 
L 109.463232 112.075001 
L 109.557994 111.695578 
L 109.747518 108.280773 
L 109.84228 108.73608 
L 110.031804 112.833847 
L 110.410852 124.064763 
L 110.600376 120.877611 
L 110.695138 120.877611 
L 110.7899 121.02938 
L 110.979424 123.761225 
L 111.074186 119.435804 
L 111.26371 120.270535 
L 111.453234 119.208151 
L 111.547996 119.208151 
L 111.73752 117.766344 
L 111.832281 114.199769 
L 112.021805 118.904612 
L 112.211329 114.427423 
L 112.306091 114.655077 
L 112.495615 112.530309 
L 112.590377 112.22677 
L 112.685139 112.302655 
L 112.779901 112.682078 
L 112.969425 110.633194 
L 113.158949 111.164386 
L 113.253711 111.240271 
L 113.443235 110.633194 
L 113.632759 112.150886 
L 113.822283 111.771463 
L 114.011807 107.749581 
L 114.106569 107.825465 
L 114.296093 108.811965 
L 114.390855 101.451162 
L 114.485617 101.830585 
L 114.675141 99.629932 
L 114.769903 99.326394 
L 114.864665 100.91997 
L 115.054189 100.388778 
L 115.148951 100.388778 
L 115.338475 103.196507 
L 115.433237 103.120622 
L 115.527999 103.272391 
L 115.717523 100.844085 
L 116.001809 98.26401 
L 116.191333 100.237009 
L 116.286095 100.237009 
L 116.475619 99.326394 
L 116.570381 99.629932 
L 117.04419 97.125742 
L 117.138952 97.125742 
L 117.328476 94.469782 
L 117.423238 93.559167 
L 117.612762 99.705817 
L 117.707524 96.063358 
L 117.897048 97.884587 
L 117.99181 97.505164 
L 118.181334 98.036356 
L 118.276096 98.036356 
L 118.370858 97.656934 
L 118.46562 98.26401 
L 118.560382 94.166243 
L 118.749906 97.808703 
L 119.034192 92.11736 
L 119.223716 96.215127 
L 119.508002 93.635051 
L 119.602764 92.041476 
L 119.792288 92.420898 
L 119.88705 90.4479 
L 120.076574 96.746319 
L 120.266098 96.746319 
L 120.36086 98.112241 
L 120.455622 95.076858 
L 120.550384 95.456281 
L 120.739908 95.532166 
L 120.83467 95.987473 
L 120.929432 95.911588 
L 121.024194 95.911588 
L 121.213718 94.621551 
L 121.30848 94.849205 
L 121.403242 93.862705 
L 121.498004 94.469782 
L 121.687527 94.090359 
L 121.877051 94.166243 
L 122.066575 89.613169 
L 122.256099 89.537285 
L 122.350861 89.309631 
L 122.540385 89.992592 
L 122.635147 89.309631 
L 122.824671 92.193245 
L 122.919433 92.193245 
L 123.014195 86.653671 
L 123.108957 87.336632 
L 123.203719 87.260748 
L 123.298481 87.033094 
L 123.488005 89.764939 
L 123.582767 91.28263 
L 123.677529 86.122479 
L 123.772291 86.198364 
L 123.867053 87.108979 
L 123.961815 86.95721 
L 124.056577 86.80544 
L 124.151339 87.943709 
L 124.340863 87.564286 
L 124.435625 87.564286 
L 124.814673 96.291011 
L 124.909435 96.063358 
L 125.004197 93.635051 
L 125.098959 94.697435 
L 125.193721 94.393897 
L 125.288483 96.59455 
L 125.478007 90.675553 
L 125.667531 91.510284 
L 125.762293 91.28263 
L 125.857055 90.599669 
L 126.046579 93.483282 
L 126.141341 93.407398 
L 126.236103 93.93859 
L 126.425626 99.857586 
L 126.61515 98.415779 
L 126.804674 98.415779 
L 126.899436 102.210008 
L 126.994198 101.451162 
L 127.08896 104.183006 
L 127.278484 98.871087 
L 127.373246 98.871087 
L 127.468008 99.022856 
L 127.56277 98.946971 
L 127.752294 105.169506 
L 127.941818 102.134123 
L 128.03658 102.134123 
L 128.320866 98.112241 
L 128.415628 98.339895 
L 128.605152 103.272391 
L 128.699914 101.7547 
L 128.794676 101.830585 
L 128.889438 104.638314 
L 128.9842 104.183006 
L 129.078962 103.955353 
L 129.173724 99.629932 
L 129.268486 99.705817 
L 129.363248 100.312893 
L 129.552772 97.732818 
L 129.647534 98.112241 
L 129.742296 98.112241 
L 129.93182 99.554048 
L 130.121344 102.513546 
L 130.310868 102.210008 
L 130.500392 99.554048 
L 130.689916 99.554048 
L 130.784678 99.022856 
L 131.163726 93.483282 
L 131.258488 93.483282 
L 131.542773 96.670434 
L 131.637535 96.670434 
L 131.827059 101.299393 
L 131.921821 103.651814 
L 132.016583 103.424161 
L 132.395631 104.258891 
L 132.490393 104.258891 
L 132.585155 105.093621 
L 132.774679 101.602931 
L 132.964203 101.071739 
L 133.153727 103.57593 
L 133.343251 101.7547 
L 133.532775 104.941852 
L 133.627537 104.941852 
L 133.817061 106.23189 
L 133.911823 110.177887 
L 134.006585 108.129004 
L 134.101347 108.204888 
L 134.385633 108.129004 
L 134.764681 106.838966 
L 134.954205 112.682078 
L 135.048967 112.530309 
L 135.143729 113.289154 
L 135.238491 106.459543 
L 135.428015 110.177887 
L 135.522777 110.329656 
L 135.712301 109.419041 
L 135.807063 109.267272 
L 135.996587 111.316156 
L 136.091349 111.316156 
L 136.280872 115.945114 
L 136.470396 114.123885 
L 136.565158 112.454424 
L 136.65992 113.896231 
L 136.849444 120.19465 
L 137.038968 122.926494 
L 137.13373 123.078263 
L 137.228492 122.395302 
L 137.323254 120.422304 
L 137.512778 125.051262 
L 137.702302 123.457686 
L 137.891826 123.457686 
L 137.986588 122.395302 
L 138.176112 122.85061 
L 138.365636 121.02938 
L 138.460398 121.02938 
L 138.649922 119.891112 
L 138.744684 119.966996 
L 138.839446 118.904612 
L 139.02897 119.587573 
L 139.218494 117.690459 
L 139.313256 116.400422 
L 139.50278 117.007498 
L 139.597542 116.855729 
L 139.692304 116.324537 
L 139.881828 114.503307 
L 140.071352 116.855729 
L 140.260876 116.552191 
L 140.4504 116.628075 
L 140.734686 108.887849 
L 140.92421 109.874349 
L 141.018972 110.177887 
L 141.113733 109.72258 
L 141.303257 111.771463 
L 141.492781 118.752843 
L 141.682305 118.145767 
L 141.777067 117.766344 
L 141.871829 119.056381 
L 142.156115 118.069882 
L 142.250877 118.069882 
L 142.345639 118.525189 
L 142.440401 118.449305 
L 142.535163 115.110384 
L 142.629925 115.641576 
L 142.724687 115.71746 
L 142.819449 122.926494 
L 142.914211 122.01588 
L 143.103735 121.86411 
L 143.198497 122.01588 
L 143.388021 124.444186 
L 143.482783 124.064763 
L 143.577545 122.167649 
L 143.672307 122.85061 
L 143.767069 126.113646 
L 143.956593 121.332918 
L 144.051355 121.332918 
L 144.430403 129.149029 
L 144.525165 129.073144 
L 144.619927 127.707222 
L 144.809451 128.01076 
L 144.904213 129.528452 
L 145.093737 134.536833 
L 145.188499 132.715604 
L 145.283261 132.867373 
L 145.472785 133.170911 
L 145.567547 133.095026 
L 145.946594 135.068025 
L 146.136118 140.228176 
L 146.325642 136.81337 
L 146.515166 134.688602 
L 146.609928 133.550334 
L 146.70469 135.675102 
L 146.799452 134.764487 
L 146.988976 135.447448 
L 147.1785 135.447448 
L 147.462786 129.907875 
L 147.557548 129.756105 
L 147.65231 130.135528 
L 147.841834 122.698841 
L 147.936596 123.078263 
L 148.12612 119.284035 
L 148.220882 119.284035 
L 148.315644 121.788226 
L 148.410406 121.712341 
L 148.505168 121.712341 
L 148.694692 124.216532 
L 148.978978 124.292417 
L 149.07374 124.899493 
L 149.358026 117.842228 
L 149.452788 117.53869 
L 149.642312 121.788226 
L 149.737074 118.752843 
L 149.926598 121.332918 
L 150.116122 121.105265 
L 150.305646 121.939995 
L 150.400408 121.560572 
L 150.49517 120.649957 
L 150.589932 120.877611 
L 150.779456 120.118765 
L 150.874217 120.270535 
L 151.063741 115.034499 
L 151.158503 115.034499 
L 151.348027 115.71746 
L 151.537551 115.338038 
L 151.632313 115.489807 
L 151.821837 108.129004 
L 151.916599 118.449305 
L 152.011361 118.297536 
L 152.200885 118.297536 
L 152.295647 118.752843 
L 152.485171 116.172768 
L 152.579933 114.503307 
L 152.674695 115.110384 
L 152.864219 113.668577 
L 153.053743 116.628075 
L 153.243267 117.614575 
L 153.527553 111.39204 
L 153.622315 115.641576 
L 153.717077 111.695578 
L 153.811839 111.847348 
L 153.906601 111.847348 
L 154.001363 112.150886 
L 154.096125 112.075001 
L 154.190887 112.22677 
L 154.475173 109.267272 
L 154.569935 112.22677 
L 154.664697 112.075001 
L 154.759459 110.177887 
L 154.948983 113.896231 
L 155.043745 113.896231 
L 155.233269 111.088502 
L 155.328031 111.088502 
L 155.517555 112.606193 
L 155.707078 111.619694 
L 155.80184 111.619694 
L 155.896602 112.22677 
L 156.086126 110.860848 
L 156.370412 110.102003 
L 156.559936 110.026118 
L 156.654698 109.191388 
L 156.844222 106.383659 
L 157.033746 106.307774 
L 157.22327 106.687197 
L 157.318032 106.687197 
L 157.507556 108.053119 
L 157.602318 107.977235 
L 157.791842 116.779844 
L 157.886604 120.118765 
L 157.981366 119.587573 
L 158.076128 119.587573 
L 158.17089 118.221651 
L 158.265652 120.801726 
L 158.6447 114.199769 
L 158.739462 114.199769 
L 158.834224 116.324537 
L 159.11851 115.565691 
L 159.308034 115.034499 
L 159.497558 119.663458 
L 159.59232 119.511689 
L 159.687082 119.891112 
L 159.781844 118.601074 
L 160.06613 112.150886 
L 160.160892 112.302655 
L 160.255654 112.985616 
L 160.350416 112.909731 
L 160.445178 111.088502 
L 160.634701 111.999117 
L 160.729463 111.999117 
L 160.824225 109.72258 
L 160.918987 109.798464 
L 161.013749 109.72258 
L 161.298035 104.714198 
L 161.392797 104.941852 
L 161.487559 104.714198 
L 161.582321 102.513546 
L 161.677083 102.817084 
L 161.866607 102.741199 
L 161.961369 103.348276 
L 162.150893 106.08012 
L 162.245655 105.321275 
L 162.340417 105.700698 
L 162.529941 102.513546 
L 162.624703 101.830585 
L 162.719465 97.505164 
L 162.814227 97.581049 
L 163.003751 96.898088 
L 163.098513 96.746319 
L 163.193275 100.312893 
L 163.477561 94.621551 
L 163.667085 94.77332 
L 163.856609 92.193245 
L 164.046133 92.11736 
L 164.140895 92.11736 
L 164.330419 91.054976 
L 164.425181 91.054976 
L 164.519943 91.510284 
L 164.709467 90.068477 
L 164.804229 90.827322 
L 165.088515 79.672291 
L 165.183277 79.899945 
L 165.372801 79.444637 
L 165.467562 79.975829 
L 165.562324 79.899945 
L 165.657086 79.899945 
L 165.84661 75.49864 
L 165.941372 75.650409 
L 166.130896 69.427875 
L 166.415182 76.864562 
L 166.509944 76.864562 
L 166.699468 76.105716 
L 166.888992 76.257486 
L 167.078516 76.257486 
L 167.173278 79.520522 
L 167.26804 79.141099 
L 167.457564 76.561024 
L 167.552326 77.395754 
L 167.74185 75.953947 
L 167.931374 76.940447 
L 168.120898 74.967448 
L 168.21566 79.216984 
L 168.405184 89.309631 
L 168.499946 89.309631 
L 168.68947 89.840823 
L 168.784232 89.992592 
L 168.973756 84.680673 
L 169.068518 84.680673 
L 169.16328 85.743056 
L 169.258042 88.247247 
L 169.447566 83.542404 
L 169.63709 83.542404 
L 169.731852 85.211864 
L 169.826614 84.908326 
L 169.921376 81.569405 
L 170.016138 81.64529 
L 170.205662 81.64529 
L 170.395185 78.230484 
L 170.584709 81.797059 
L 170.774233 84.680673 
L 170.963757 84.225365 
L 171.248043 80.203483 
L 171.437567 84.377134 
L 171.532329 84.377134 
L 171.721853 83.087097 
L 171.816615 86.350133 
L 171.911377 86.122479 
L 172.006139 86.122479 
L 172.100901 86.501902 
L 172.385187 85.211864 
L 172.574711 87.79194 
L 172.669473 87.564286 
L 172.858997 85.439518 
L 172.953759 85.515403 
L 173.048521 86.122479 
L 173.238045 87.867824 
L 173.332807 88.019593 
L 173.522331 87.488402 
L 173.711855 90.675553 
L 173.901379 86.80544 
L 173.996141 86.881325 
L 174.090903 86.577787 
L 174.280427 87.033094 
L 174.375189 85.211864 
L 174.469951 85.363634 
L 174.564713 85.13598 
L 174.659475 85.515403 
L 174.754237 85.439518 
L 174.943761 90.068477 
L 175.228046 93.862705 
L 175.322808 92.95209 
L 175.41757 93.331513 
L 175.607094 84.756557 
L 175.701856 85.287749 
L 175.89138 85.743056 
L 176.080904 90.599669 
L 176.175666 90.599669 
L 176.270428 90.903207 
L 176.36519 89.916708 
L 176.459952 90.903207 
L 176.649476 90.372015 
L 177.123286 90.29613 
L 177.31281 87.108979 
L 177.502334 86.501902 
L 177.691858 89.613169 
L 177.881382 89.613169 
L 178.070906 89.157862 
L 178.165668 89.157862 
L 178.26043 91.662053 
L 178.449954 89.537285 
L 178.544716 89.537285 
L 178.639478 85.287749 
L 178.829002 95.60805 
L 178.923764 95.60805 
L 179.113288 93.710936 
L 179.20805 93.255629 
L 179.397574 93.635051 
L 179.492336 93.635051 
L 179.587098 93.483282 
L 179.776622 94.090359 
L 179.966146 93.103859 
L 180.155669 93.103859 
L 180.345193 93.93859 
L 180.534717 94.014474 
L 180.629479 91.28263 
L 180.724241 92.193245 
L 180.819003 88.323132 
L 180.913765 88.474901 
L 181.008527 88.62667 
L 181.103289 87.640171 
L 181.671861 96.670434 
L 181.861385 93.93859 
L 181.956147 93.862705 
L 182.240433 92.724437 
L 182.335195 92.724437 
L 182.524719 93.635051 
L 182.619481 95.911588 
L 182.714243 95.456281 
L 182.809005 95.987473 
L 182.903767 95.835704 
L 182.998529 95.911588 
L 183.282815 93.255629 
L 183.377577 93.786821 
L 183.567101 93.255629 
L 183.661863 93.331513 
L 183.756625 96.822203 
L 183.851387 94.393897 
L 184.040911 100.464662 
L 184.135673 100.312893 
L 184.230435 100.464662 
L 184.325197 98.415779 
L 184.419959 98.491664 
L 184.514721 99.781701 
L 184.704245 99.402279 
L 184.893769 99.554048 
L 185.46234 94.090359 
L 185.651864 94.849205 
L 185.841388 94.925089 
L 186.030912 94.621551 
L 186.220436 93.179744 
L 186.315198 92.11736 
L 186.40996 92.345014 
L 186.599484 96.898088 
L 186.694246 96.898088 
L 186.789008 97.732818 
L 186.978532 92.11736 
L 187.168056 92.11736 
L 187.262818 92.345014 
L 187.452342 90.599669 
L 187.547104 90.751438 
L 187.736628 90.29613 
L 187.926152 85.287749 
L 188.020914 85.287749 
L 188.115676 86.350133 
L 188.210438 90.903207 
L 188.3052 90.372015 
L 188.494724 90.29613 
L 188.684248 91.586168 
L 188.873772 91.586168 
L 189.063296 88.247247 
L 189.25282 88.171363 
L 189.347582 88.171363 
L 189.72663 89.081977 
L 189.916153 92.648552 
L 190.105677 92.420898 
L 190.295201 90.144361 
L 190.389963 93.93859 
L 190.484725 93.862705 
L 190.579487 93.93859 
L 190.674249 93.559167 
L 190.769011 93.635051 
L 190.958535 96.215127 
L 191.053297 95.835704 
L 191.148059 94.621551 
L 191.242821 95.152743 
L 191.337583 91.889706 
L 191.432345 91.965591 
L 191.621869 92.648552 
L 191.716631 93.255629 
L 191.811393 93.179744 
L 191.906155 93.027975 
L 192.000917 93.710936 
L 192.190441 89.006093 
L 192.285203 89.992592 
L 192.379965 97.353395 
L 192.474727 90.523784 
L 192.664251 93.103859 
L 192.759013 93.483282 
L 192.853775 90.675553 
L 192.948537 91.737937 
L 193.138061 90.523784 
L 193.232823 92.193245 
L 193.327585 92.041476 
L 193.517109 92.193245 
L 193.611871 92.193245 
L 193.801395 93.862705 
L 193.896157 90.29613 
L 193.990919 90.4479 
L 194.180443 90.29613 
L 194.275205 90.523784 
L 194.464729 91.28263 
L 194.559491 91.434399 
L 194.654253 91.28263 
L 194.843776 90.372015 
L 194.938538 90.29613 
L 195.0333 90.4479 
L 195.222824 83.466519 
L 195.317586 84.908326 
L 195.412348 84.528903 
L 195.696634 79.141099 
L 195.98092 79.596407 
L 196.170444 80.734675 
L 196.265206 80.65879 
L 196.359968 80.127598 
L 196.549492 83.390635 
L 196.644254 83.390635 
L 196.833778 79.596407 
L 196.92854 79.82406 
L 197.118064 77.31987 
L 197.307588 77.092216 
L 197.40235 79.975829 
L 197.497112 78.609907 
L 197.591874 80.65879 
L 197.781398 80.051714 
L 197.87616 81.341752 
L 198.065684 87.108979 
L 198.255208 87.260748 
L 198.34997 89.309631 
L 198.539494 86.881325 
L 198.729018 87.79194 
L 198.82378 87.79194 
L 198.918542 88.171363 
L 199.108066 86.350133 
L 199.202828 87.867824 
L 199.29759 95.380396 
L 199.392352 95.228627 
L 199.487114 94.849205 
L 199.581875 94.925089 
L 199.771399 90.979092 
L 199.866161 89.840823 
L 200.055685 97.049857 
L 200.245209 96.973972 
L 200.434733 96.746319 
L 200.719019 97.42928 
L 200.813781 97.732818 
L 200.908543 97.125742 
L 201.192829 87.943709 
L 201.287591 87.943709 
L 201.477115 88.778439 
L 201.761401 85.515403 
L 201.856163 85.515403 
L 201.950925 85.818941 
L 202.045687 80.051714 
L 202.140449 82.404136 
L 202.235211 82.176482 
L 202.424735 78.230484 
L 202.614259 77.699292 
L 202.898545 84.756557 
L 203.088069 84.984211 
L 203.182831 84.984211 
L 203.277593 87.108979 
L 203.372355 86.80544 
L 203.561879 84.453019 
L 203.656641 84.453019 
L 203.846165 85.363634 
L 203.940927 80.582906 
L 204.035689 80.81056 
L 204.225213 82.48002 
L 204.509498 81.265867 
L 204.793784 82.404136 
L 204.888546 82.100597 
L 205.07807 81.114098 
L 205.172832 81.872944 
L 205.362356 79.292868 
L 205.55188 79.368753 
L 205.646642 82.252366 
L 205.741404 82.024713 
L 205.836166 82.024713 
L 205.930928 82.404136 
L 206.02569 79.520522 
L 206.120452 79.748176 
L 206.215214 83.087097 
L 206.309976 82.935327 
L 206.404738 81.114098 
L 206.4995 81.797059 
L 206.689024 80.507021 
L 206.878548 84.756557 
L 206.97331 84.528903 
L 207.068072 88.930208 
L 207.636644 74.056833 
L 207.731406 72.00795 
L 207.92093 75.422755 
L 208.015692 73.070334 
L 208.110454 73.525641 
L 208.205216 73.297987 
L 208.299978 73.829179 
L 208.489502 73.070334 
L 208.584264 73.222103 
L 208.679026 72.994449 
L 209.058074 78.458138 
L 209.342359 71.628527 
L 209.437121 71.476758 
L 209.721407 72.690911 
L 209.910931 71.17322 
L 210.100455 70.414374 
L 210.195217 68.820798 
L 210.289979 74.360371 
L 210.384741 74.208602 
L 210.479503 74.132718 
L 210.574265 69.807297 
L 210.669027 71.249104 
L 210.763789 70.945566 
L 210.858551 71.249104 
L 210.953313 71.02145 
L 211.142837 67.303107 
L 211.332361 69.731413 
L 211.521885 69.503759 
L 211.616647 68.896683 
L 211.711409 69.048452 
L 211.995695 62.446494 
L 212.374743 62.446494 
L 212.564267 63.508878 
L 212.659029 60.625265 
L 212.848553 69.427875 
L 212.943315 67.606645 
L 213.038077 67.682529 
L 213.132839 66.164838 
L 213.227601 61.991187 
L 213.417125 64.647147 
L 213.796173 64.723031 
L 213.890935 61.991187 
L 214.080459 66.316607 
L 214.269982 64.343609 
L 214.459506 63.888301 
L 214.554268 64.04007 
L 214.64903 63.20534 
L 214.838554 65.405992 
L 214.933316 65.254223 
L 215.028078 65.633646 
L 215.217602 64.950685 
L 215.312364 65.557762 
L 215.407126 65.254223 
L 215.786174 76.788678 
L 215.880936 76.636908 
L 215.975698 76.864562 
L 216.165222 75.574524 
L 216.259984 75.574524 
L 216.449508 75.195102 
L 216.54427 75.195102 
L 216.733794 78.306369 
L 216.923318 78.306369 
L 217.207604 78.002831 
L 217.302366 84.149481 
L 217.49189 81.189982 
L 217.776176 77.31987 
L 217.9657 78.837561 
L 218.155224 78.382253 
L 218.249986 78.382253 
L 218.344748 81.64529 
L 218.43951 78.230484 
L 218.534272 78.458138 
L 218.629034 78.685792 
L 218.723796 80.582906 
L 218.818558 79.899945 
L 218.91332 77.851061 
L 219.102843 83.238866 
L 219.292367 82.48002 
L 219.481891 81.948828 
L 219.671415 82.176482 
L 219.766177 78.002831 
L 219.860939 78.306369 
L 220.050463 79.292868 
L 220.145225 80.051714 
L 220.239987 83.845942 
L 220.334749 83.542404 
L 220.429511 83.694173 
L 220.619035 76.940447 
L 220.808559 77.016331 
L 220.998083 75.195102 
L 221.377131 80.962329 
L 221.566655 79.520522 
L 221.661417 80.051714 
L 221.850941 84.30125 
L 221.945703 84.30125 
L 222.135227 87.79194 
L 222.324751 88.323132 
L 222.703799 94.925089 
L 222.798561 95.228627 
L 222.988085 96.822203 
L 223.082847 95.683935 
L 223.177609 87.640171 
L 223.367133 93.93859 
L 223.556657 91.813822 
L 223.651419 91.889706 
L 223.935705 91.662053 
L 224.125228 91.965591 
L 224.21999 95.076858 
L 224.314752 94.849205 
L 224.504276 95.683935 
L 224.6938 95.683935 
L 224.883324 91.813822 
L 225.072848 91.889706 
L 225.262372 96.139242 
L 225.357134 94.77332 
L 225.546658 84.832442 
L 225.64142 84.680673 
L 225.736182 85.743056 
L 225.830944 84.377134 
L 225.925706 84.680673 
L 226.11523 83.921827 
L 226.304754 79.444637 
L 226.494278 79.368753 
L 226.683802 77.092216 
L 226.778564 77.31987 
L 226.968088 77.016331 
L 227.06285 79.292868 
L 227.157612 79.141099 
L 227.347136 79.520522 
L 227.441898 75.574524 
L 227.631422 80.355252 
L 227.726184 79.975829 
L 227.820946 81.569405 
L 228.105232 78.609907 
L 228.199994 82.252366 
L 228.389518 79.596407 
L 228.579042 83.845942 
L 228.673804 82.631789 
L 228.863327 84.680673 
L 228.958089 84.680673 
L 229.052851 84.832442 
L 229.147613 84.756557 
L 229.242375 84.908326 
L 229.337137 82.783558 
L 229.431899 83.162981 
L 229.526661 82.783558 
L 229.716185 83.162981 
L 229.810947 83.31475 
L 230.000471 87.640171 
L 230.095233 87.488402 
L 230.189995 86.881325 
L 230.379519 83.694173 
L 230.474281 83.845942 
L 230.569043 86.95721 
L 230.663805 86.577787 
L 230.758567 87.943709 
L 231.042853 83.618289 
L 231.232377 83.162981 
L 231.327139 84.225365 
L 231.421901 84.149481 
L 231.611425 84.149481 
L 231.706187 80.051714 
L 231.895711 81.189982 
L 232.085235 81.417636 
L 232.179997 80.203483 
L 232.369521 87.033094 
L 232.559045 83.31475 
L 232.653807 83.997711 
L 232.748569 83.845942 
L 232.938093 84.908326 
L 233.317141 77.547523 
L 233.506665 79.141099 
L 233.601427 78.98933 
L 233.696189 80.279368 
L 233.79095 79.975829 
L 233.885712 80.127598 
L 234.075236 79.292868 
L 234.26476 80.431137 
L 234.359522 80.431137 
L 234.454284 79.216984 
L 234.549046 79.672291 
L 234.73857 78.534023 
L 234.833332 78.230484 
L 234.928094 78.761676 
L 235.21238 83.466519 
L 235.307142 83.011212 
L 235.496666 83.466519 
L 235.591428 85.211864 
L 235.68619 84.832442 
L 235.780952 86.198364 
L 235.875714 83.31475 
L 235.970476 83.390635 
L 236.16 83.011212 
L 236.349524 83.011212 
L 236.539048 82.48002 
L 236.63381 82.404136 
L 236.823334 80.127598 
L 237.012858 79.748176 
L 237.10762 79.748176 
L 237.297144 72.994449 
L 237.486668 68.289606 
L 237.58143 67.606645 
L 237.770954 76.181601 
L 237.865716 75.726294 
L 238.05524 76.788678 
L 238.244764 76.788678 
L 238.339526 83.618289 
L 238.434288 82.707674 
L 238.52905 82.935327 
L 238.718573 84.528903 
L 238.813335 83.162981 
L 238.908097 83.390635 
L 239.097621 77.547523 
L 239.287145 77.851061 
L 239.381907 77.851061 
L 239.476669 75.195102 
L 239.571431 75.49864 
L 239.666193 75.49864 
L 239.760955 70.262605 
L 239.855717 70.566143 
L 239.950479 70.717912 
L 240.140003 69.807297 
L 240.234765 69.579644 
L 240.424289 69.959066 
L 240.519051 69.959066 
L 240.708575 71.324989 
L 240.803337 72.615026 
L 240.898099 68.51726 
L 240.992861 71.17322 
L 241.277147 63.281225 
L 241.466671 62.977686 
L 241.561433 61.915302 
L 241.656195 62.294725 
L 241.750957 62.142956 
L 241.845719 60.852918 
L 242.035243 61.839418 
L 242.130005 61.38411 
L 242.319529 62.977686 
L 242.509053 62.825917 
L 242.603815 62.977686 
L 242.793339 57.513997 
L 242.888101 57.513997 
L 243.077625 62.446494 
L 243.172387 63.20534 
L 243.267149 62.977686 
L 243.361911 63.053571 
L 243.551434 63.508878 
L 243.646196 63.736532 
L 243.930482 61.915302 
L 244.120006 61.687649 
L 244.214768 63.812417 
L 244.30953 63.508878 
L 244.404292 65.254223 
L 244.972864 55.313345 
L 245.25715 59.031689 
L 245.351912 63.736532 
L 245.446674 63.053571 
L 245.541436 67.454876 
L 245.636198 67.378991 
L 245.825722 70.945566 
L 246.015246 71.097335 
L 246.110008 71.097335 
L 246.20477 71.324989 
L 246.299532 71.02145 
L 246.489056 71.400873 
L 246.583818 71.324989 
L 246.67858 71.097335 
L 246.868104 71.17322 
L 247.057628 71.628527 
L 247.247152 73.070334 
L 247.436676 73.67741 
L 247.6262 83.921827 
L 247.720962 83.845942 
L 247.910486 87.184863 
L 248.005248 87.108979 
L 248.10001 87.867824 
L 248.384295 97.884587 
L 248.668581 91.206745 
L 248.763343 91.206745 
L 248.858105 91.434399 
L 249.047629 88.930208 
L 249.237153 93.786821 
L 249.426677 89.992592 
L 249.521439 90.220246 
L 249.710963 92.193245 
L 249.900487 91.889706 
L 249.995249 91.889706 
L 250.184773 91.586168 
L 250.374297 94.77332 
L 250.469059 94.925089 
L 250.658583 95.456281 
L 250.753345 93.862705 
L 250.848107 93.93859 
L 251.132393 93.331513 
L 251.416679 101.602931 
L 251.511441 101.451162 
L 251.700965 101.527046 
L 251.795727 101.527046 
L 251.985251 100.844085 
L 252.080013 100.844085 
L 252.269537 100.616432 
L 252.459061 100.616432 
L 252.553823 100.768201 
L 252.743347 97.732818 
L 252.932871 97.732818 
L 253.122395 96.44278 
L 253.217157 96.898088 
L 253.311918 96.822203 
L 253.40668 96.822203 
L 253.596204 90.144361 
L 253.785728 90.372015 
L 253.88049 91.434399 
L 253.975252 91.054976 
L 254.070014 91.586168 
L 254.259538 95.987473 
L 254.3543 95.456281 
L 254.543824 99.857586 
L 254.733348 97.049857 
L 254.82811 98.036356 
L 254.922872 95.835704 
L 255.017634 96.215127 
L 255.112396 96.215127 
L 255.396682 100.768201 
L 255.77573 97.201626 
L 255.965254 106.838966 
L 256.060016 106.838966 
L 256.154778 106.004236 
L 256.344302 99.022856 
L 256.533826 99.554048 
L 256.628588 99.554048 
L 257.007636 93.710936 
L 257.102398 92.572668 
L 257.291922 93.255629 
L 257.386684 93.179744 
L 257.860494 84.528903 
L 257.955256 83.770058 
L 258.334303 74.815679 
L 258.429065 75.270986 
L 258.618589 71.552642 
L 258.808113 71.552642 
L 258.997637 69.503759 
L 259.092399 69.503759 
L 259.187161 70.566143 
L 259.376685 74.284487 
L 259.566209 74.284487 
L 259.660971 68.441375 
L 259.850495 71.856181 
L 259.945257 72.690911 
L 260.134781 75.49864 
L 260.229543 75.802178 
L 260.513829 68.896683 
L 260.703353 67.910183 
L 260.892877 67.53076 
L 261.177163 80.886444 
L 261.366687 79.216984 
L 261.461449 78.837561 
L 261.556211 78.913445 
L 261.650973 78.913445 
L 261.840497 79.520522 
L 262.030021 78.534023 
L 262.124783 78.534023 
L 262.219545 78.913445 
L 262.409069 78.230484 
L 262.693355 80.582906 
L 262.882879 84.528903 
L 263.072402 84.30125 
L 263.167164 84.30125 
L 263.356688 83.162981 
L 263.546212 83.162981 
L 263.735736 76.33337 
L 263.830498 78.534023 
L 264.020022 78.002831 
L 264.114784 78.382253 
L 264.493832 72.690911 
L 264.683356 73.753295 
L 264.778118 73.753295 
L 264.87288 70.869681 
L 264.967642 73.525641 
L 265.062404 68.896683 
L 265.251928 70.869681 
L 265.34669 71.856181 
L 265.441452 71.476758 
L 265.630976 75.346871 
L 265.725738 74.891563 
L 265.8205 70.869681 
L 265.915262 72.00795 
L 266.010024 70.793797 
L 266.199548 65.330108 
L 266.29431 64.950685 
L 266.389072 63.357109 
L 266.483834 63.584763 
L 266.673358 64.495378 
L 266.76812 62.067072 
L 266.862882 64.874801 
L 266.957644 59.259343 
L 267.052406 60.397611 
L 267.147168 60.018188 
L 267.336692 64.419493 
L 267.526216 64.571262 
L 267.620978 55.540999 
L 267.71574 56.22396 
L 267.810502 56.527498 
L 268.094787 57.969305 
L 268.189549 58.424612 
L 268.379073 61.839418 
L 268.473835 61.687649 
L 268.663359 60.397611 
L 268.758121 63.660647 
L 268.947645 59.638765 
L 269.042407 62.294725 
L 269.231931 72.159719 
L 269.421455 72.311488 
L 269.610979 74.208602 
L 269.705741 74.208602 
L 269.895265 67.682529 
L 270.084789 68.213721 
L 270.274313 68.061952 
L 270.558599 61.080572 
L 270.653361 59.411112 
L 270.748123 60.777034 
L 271.032409 56.755152 
L 271.221933 63.812417 
L 271.411457 63.888301 
L 271.506219 63.964186 
L 271.600981 65.481877 
L 271.695743 65.178339 
L 271.790505 67.53076 
L 271.885267 65.405992 
L 271.980029 65.557762 
L 272.074791 65.557762 
L 272.169553 66.013069 
L 272.359077 61.687649 
L 272.548601 61.459995 
L 272.643363 61.459995 
L 272.832886 58.728151 
L 272.927648 58.728151 
L 273.117172 59.411112 
L 273.211934 59.486996 
L 273.401458 59.335227 
L 273.49622 53.568 
L 273.590982 54.175077 
L 273.780506 54.478615 
L 274.064792 67.378991 
L 274.159554 66.847799 
L 274.349078 66.771915 
L 274.538602 72.539142 
L 274.633364 75.726294 
L 274.728126 75.195102 
L 274.822888 75.422755 
L 274.91765 75.953947 
L 275.012412 78.458138 
L 275.107174 78.1546 
L 275.296698 76.485139 
L 275.39146 76.485139 
L 275.486222 75.043332 
L 275.675746 77.547523 
L 275.770508 77.1681 
L 275.960032 74.436256 
L 276.054794 80.582906 
L 276.149556 77.31987 
L 276.244318 77.547523 
L 276.33908 81.189982 
L 276.528604 75.422755 
L 276.623366 74.056833 
L 276.81289 75.119217 
L 276.907652 75.119217 
L 277.002414 75.422755 
L 277.191938 75.195102 
L 277.2867 74.588025 
L 277.476224 77.547523 
L 277.570986 77.699292 
L 277.760509 75.270986 
L 277.950033 75.270986 
L 278.139557 73.297987 
L 278.329081 72.083834 
L 278.423843 72.083834 
L 278.613367 80.051714 
L 278.708129 79.899945 
L 278.897653 86.122479 
L 278.992415 81.189982 
L 279.181939 85.894826 
L 279.371463 87.488402 
L 279.466225 86.274248 
L 279.655749 88.323132 
L 279.750511 88.171363 
L 280.129559 91.813822 
L 280.224321 88.399016 
L 280.319083 89.233747 
L 280.508607 95.380396 
L 280.603369 92.876206 
L 280.698131 94.014474 
L 280.792893 93.635051 
L 280.982417 99.09874 
L 281.077179 103.196507 
L 281.171941 102.968853 
L 281.266703 97.581049 
L 281.361465 98.415779 
L 281.550989 98.491664 
L 281.835275 96.063358 
L 281.930037 95.683935 
L 282.024799 93.710936 
L 282.119561 94.697435 
L 282.309085 92.193245 
L 282.403847 91.737937 
L 282.498609 92.269129 
L 282.688132 89.689054 
L 282.782894 89.840823 
L 282.972418 89.613169 
L 283.161942 86.501902 
L 283.446228 82.935327 
L 283.54099 83.466519 
L 283.635752 82.935327 
L 283.730514 83.011212 
L 283.825276 85.97071 
L 283.920038 85.818941 
L 284.204324 87.564286 
L 284.299086 87.564286 
L 284.393848 92.800321 
L 284.48861 88.702555 
L 284.583372 89.233747 
L 284.678134 89.157862 
L 284.772896 89.537285 
L 284.867658 91.586168 
L 285.057182 86.95721 
L 285.246706 86.95721 
L 285.341468 86.046595 
L 285.43623 83.390635 
L 285.530992 85.894826 
L 285.625754 84.908326 
L 285.815278 81.797059 
L 285.91004 82.100597 
L 286.194326 80.734675 
L 286.289088 84.680673 
L 286.38385 84.073596 
L 286.762898 97.656934 
L 286.85766 98.112241 
L 287.047184 102.210008 
L 287.141946 102.210008 
L 287.236708 102.741199 
L 287.33147 106.383659 
L 287.426231 105.776582 
L 287.520993 105.093621 
L 287.710517 96.44278 
L 287.805279 96.291011 
L 287.900041 97.049857 
L 288.089565 92.269129 
L 288.184327 91.434399 
L 288.279089 91.662053 
L 288.468613 92.572668 
L 288.658137 92.496783 
L 288.847661 97.125742 
L 289.037185 97.277511 
L 289.131947 97.277511 
L 289.226709 98.871087 
L 289.321471 96.973972 
L 289.416233 109.72258 
L 289.700519 103.57593 
L 289.890043 104.183006 
L 289.984805 104.258891 
L 290.079567 104.714198 
L 290.363853 95.304512 
L 290.458615 95.683935 
L 290.648139 95.304512 
L 290.742901 89.992592 
L 290.837663 90.29613 
L 290.932425 90.675553 
L 291.027187 90.599669 
L 291.216711 90.903207 
L 291.406235 95.683935 
L 291.500997 95.228627 
L 291.595759 95.152743 
L 291.785283 94.090359 
L 291.880045 94.393897 
L 292.069569 94.242128 
L 292.259093 89.537285 
L 292.353854 89.992592 
L 292.448616 89.613169 
L 292.63814 80.127598 
L 293.017188 78.609907 
L 293.206712 79.065215 
L 293.301474 78.1546 
L 293.490998 83.162981 
L 293.58576 82.783558 
L 293.775284 84.225365 
L 293.964808 83.845942 
L 294.05957 83.845942 
L 294.154332 83.694173 
L 294.249094 83.921827 
L 294.343856 83.390635 
L 294.438618 83.770058 
L 294.53338 81.417636 
L 294.628142 81.797059 
L 294.722904 81.797059 
L 294.817666 80.81056 
L 295.00719 82.48002 
L 295.101952 90.372015 
L 295.196714 88.550785 
L 295.481 90.4479 
L 295.575762 92.724437 
L 295.670524 91.054976 
L 295.765286 95.60805 
L 295.95481 91.965591 
L 296.144334 88.474901 
L 296.239096 89.309631 
L 296.333858 82.555905 
L 296.523382 89.385516 
L 296.618144 89.764939 
L 296.712906 89.689054 
L 296.807668 87.564286 
L 296.997192 89.233747 
L 297.186715 90.068477 
L 297.281477 90.523784 
L 297.376239 87.716055 
L 297.565763 90.144361 
L 297.755287 90.675553 
L 297.944811 90.068477 
L 298.039573 90.144361 
L 298.134335 88.702555 
L 298.229097 89.385516 
L 298.418621 88.702555 
L 298.608145 88.702555 
L 298.797669 88.550785 
L 298.892431 88.702555 
L 299.081955 87.564286 
L 299.176717 87.184863 
L 299.271479 87.260748 
L 299.366241 87.260748 
L 299.650527 83.997711 
L 299.745289 79.292868 
L 299.840051 79.596407 
L 300.029575 83.31475 
L 300.124337 82.404136 
L 300.219099 82.555905 
L 300.692909 82.555905 
L 300.787671 78.230484 
L 300.882433 78.837561 
L 301.166719 87.943709 
L 301.261481 87.640171 
L 301.451005 87.79194 
L 301.545767 87.79194 
L 301.735291 88.702555 
L 301.830053 88.702555 
L 301.924815 88.930208 
L 302.114338 92.496783 
L 302.2091 92.041476 
L 302.303862 84.528903 
L 302.398624 84.908326 
L 302.493386 84.680673 
L 302.777672 85.818941 
L 302.872434 85.818941 
L 303.061958 82.328251 
L 303.15672 82.328251 
L 303.251482 83.542404 
L 303.346244 91.434399 
L 303.441006 90.827322 
L 303.535768 94.014474 
L 303.63053 93.786821 
L 303.725292 93.786821 
L 303.820054 95.380396 
L 303.914816 95.304512 
L 304.009578 95.532166 
L 304.10434 96.139242 
L 304.293864 94.77332 
L 304.388626 92.269129 
L 304.483388 92.648552 
L 304.672912 93.027975 
L 304.767674 93.179744 
L 304.862436 94.318013 
L 305.146722 91.737937 
L 305.241484 89.157862 
L 305.336246 92.724437 
L 305.52577 85.211864 
L 305.620532 86.274248 
L 305.810056 85.743056 
L 305.99958 85.363634 
L 306.189104 86.122479 
L 306.283866 86.274248 
L 306.378628 88.778439 
L 306.47339 88.62667 
L 306.662914 83.997711 
L 306.852438 85.894826 
L 306.947199 86.046595 
L 307.041961 87.943709 
L 307.231485 98.112241 
L 307.326247 98.188125 
L 307.421009 97.808703 
L 307.515771 96.746319 
L 307.705295 98.415779 
L 307.894819 96.518665 
L 308.084343 98.26401 
L 308.179105 98.26401 
L 308.368629 97.732818 
L 308.558153 100.08524 
L 308.652915 100.08524 
L 308.937201 91.889706 
L 309.126725 97.581049 
L 309.221487 98.036356 
L 309.411011 95.304512 
L 309.505773 94.621551 
L 309.600535 99.781701 
L 309.695297 99.326394 
L 309.790059 100.161124 
L 309.979583 98.036356 
L 310.169107 103.348276 
L 310.263869 103.500045 
L 310.453393 102.817084 
L 310.548155 103.500045 
L 310.832441 90.220246 
L 310.927203 90.144361 
L 311.021965 90.675553 
L 311.116727 88.399016 
L 311.211489 89.309631 
L 311.495775 81.341752 
L 311.685299 80.203483 
L 312.064346 80.203483 
L 312.159108 79.975829 
L 312.25387 79.292868 
L 312.443394 90.523784 
L 312.538156 90.599669 
L 312.72768 89.916708 
L 312.822442 90.675553 
L 312.917204 90.144361 
L 313.106728 91.586168 
L 313.20149 91.737937 
L 313.296252 91.662053 
L 313.391014 92.800321 
L 313.485776 91.434399 
L 313.6753 83.770058 
L 313.770062 83.845942 
L 313.959586 90.751438 
L 314.243872 86.80544 
L 314.433396 87.867824 
L 314.528158 86.198364 
L 314.717682 88.247247 
L 314.907206 85.97071 
L 315.09673 85.97071 
L 315.286254 86.198364 
L 315.381016 86.198364 
L 315.57054 84.149481 
L 315.665302 84.149481 
L 315.760064 84.680673 
L 315.854826 91.130861 
L 315.949588 90.751438 
L 316.04435 90.675553 
L 316.233874 84.680673 
L 316.423398 86.198364 
L 316.612922 86.577787 
L 316.707683 89.992592 
L 316.897207 87.488402 
L 316.991969 87.79194 
L 317.181493 88.171363 
L 317.276255 88.171363 
L 317.465779 89.006093 
L 317.655303 88.247247 
L 317.844827 91.206745 
L 317.939589 91.358514 
L 318.034351 91.889706 
L 318.318637 88.778439 
L 318.508161 91.206745 
L 318.697685 91.28263 
L 318.792447 88.474901 
L 318.981971 95.228627 
L 319.171495 94.242128 
L 319.361019 99.857586 
L 319.550543 97.581049 
L 319.645305 97.353395 
L 319.740067 101.982354 
L 319.834829 101.906469 
L 320.024353 102.210008 
L 320.119115 102.285892 
L 320.308639 105.548928 
L 320.403401 105.624813 
L 320.498163 105.017737 
L 320.687687 109.874349 
L 320.782449 109.570811 
L 320.877211 109.646695 
L 321.066735 109.950233 
L 321.161497 109.950233 
L 321.256259 110.936733 
L 321.445783 110.633194 
L 321.730068 106.307774 
L 321.82483 107.825465 
L 322.109116 96.366896 
L 322.393402 92.496783 
L 322.582926 92.95209 
L 322.77245 94.318013 
L 322.867212 94.697435 
L 322.961974 95.835704 
L 323.056736 95.152743 
L 323.435784 99.022856 
L 323.530546 98.567548 
L 323.72007 99.174625 
L 323.814832 99.022856 
L 323.909594 98.26401 
L 324.004356 95.304512 
L 324.099118 95.380396 
L 324.383404 95.380396 
L 324.478166 95.000974 
L 324.66769 96.746319 
L 324.762452 96.746319 
L 324.951976 101.906469 
L 325.046738 100.08524 
L 325.425786 106.23189 
L 325.520548 107.370158 
L 325.61531 107.218389 
L 325.710072 106.990735 
L 325.994358 107.673696 
L 326.08912 107.673696 
L 326.278644 107.294274 
L 326.373406 107.294274 
L 326.562929 105.776582 
L 326.752453 104.41066 
L 326.847215 104.486545 
L 327.036739 103.879468 
L 327.131501 103.879468 
L 327.321025 104.107122 
L 327.700073 108.887849 
L 327.889597 108.963734 
L 327.984359 108.963734 
L 328.173883 106.156005 
L 328.268645 96.973972 
L 328.363407 102.058238 
L 328.458169 101.982354 
L 328.552931 101.982354 
L 328.647693 102.665315 
L 328.931979 100.91997 
L 329.026741 95.532166 
L 329.121503 102.741199 
L 329.311027 95.380396 
L 329.405789 95.456281 
L 329.595313 94.090359 
L 329.690075 92.269129 
L 329.879599 94.242128 
L 329.974361 94.242128 
L 330.069123 94.469782 
L 330.163885 94.318013 
L 330.353409 98.415779 
L 330.448171 98.112241 
L 330.542933 96.518665 
L 330.637695 96.59455 
L 330.827219 96.59455 
L 330.921981 96.215127 
L 331.016743 95.304512 
L 331.111505 92.95209 
L 331.206267 94.469782 
L 331.301028 94.166243 
L 331.39579 94.849205 
L 331.585314 100.312893 
L 331.680076 99.933471 
L 331.8696 98.567548 
L 332.059124 88.019593 
L 332.34341 81.64529 
L 332.532934 80.81056 
L 332.627696 80.81056 
L 332.722458 81.341752 
L 332.81722 80.051714 
L 332.911982 80.507021 
L 333.006744 83.087097 
L 333.101506 82.328251 
L 333.29103 82.707674 
L 333.385792 82.707674 
L 333.480554 90.675553 
L 333.575316 89.537285 
L 333.670078 82.100597 
L 333.76484 82.631789 
L 333.954364 83.31475 
L 334.049126 82.859443 
L 334.23865 86.046595 
L 334.333412 83.238866 
L 334.428174 83.845942 
L 334.522936 83.087097 
L 334.71246 83.542404 
L 334.901984 82.328251 
L 335.091508 83.238866 
L 335.281032 83.238866 
L 335.375794 83.087097 
L 335.565318 83.162981 
L 335.66008 84.149481 
L 335.849604 80.355252 
L 335.944366 80.355252 
L 336.039128 79.444637 
L 336.13389 81.721174 
L 336.418175 80.431137 
L 336.512937 82.252366 
L 336.607699 80.203483 
L 336.702461 80.734675 
L 336.891985 80.051714 
L 336.986747 81.417636 
L 337.081509 74.132718 
L 337.271033 75.574524 
L 337.365795 75.270986 
L 337.555319 78.382253 
L 337.650081 78.609907 
L 337.744843 76.485139 
L 337.934367 77.31987 
L 338.029129 73.525641 
L 338.218653 74.588025 
L 338.313415 74.208602 
L 338.502939 76.636908 
L 338.597701 76.636908 
L 338.692463 78.1546 
L 338.881987 76.257486 
L 339.071511 79.368753 
L 339.261035 78.913445 
L 339.355797 79.975829 
L 339.450559 83.390635 
L 339.545321 82.935327 
L 339.734845 83.466519 
L 339.924369 82.024713 
L 340.113893 77.092216 
L 340.398179 82.024713 
L 340.492941 81.948828 
L 340.587703 82.252366 
L 340.777227 77.926946 
L 340.871989 77.926946 
L 340.966751 77.623408 
L 341.061512 76.940447 
L 341.251036 83.087097 
L 341.345798 83.238866 
L 341.535322 86.046595 
L 341.724846 85.667172 
L 341.819608 85.667172 
L 342.009132 86.426018 
L 342.482942 86.426018 
L 342.672466 90.827322 
L 342.86199 91.054976 
L 343.051514 89.4614 
L 343.146276 88.702555 
L 343.241038 88.778439 
L 343.430562 88.247247 
L 343.525324 88.399016 
L 343.620086 94.242128 
L 343.80961 92.648552 
L 343.904372 92.648552 
L 343.999134 93.179744 
L 344.093896 89.081977 
L 344.188658 89.309631 
L 344.28342 92.345014 
L 344.378182 85.818941 
L 344.472944 85.97071 
L 344.567706 85.287749 
L 344.946754 92.648552 
L 345.041516 92.648552 
L 345.136278 89.840823 
L 345.515326 102.361777 
L 345.799612 103.272391 
L 345.989135 96.670434 
L 346.083897 96.670434 
L 346.368183 95.380396 
L 346.557707 95.683935 
L 346.652469 99.174625 
L 346.841993 94.393897 
L 347.031517 91.206745 
L 347.315803 95.759819 
L 347.410565 95.683935 
L 347.505327 94.77332 
L 347.600089 87.564286 
L 347.694851 89.992592 
L 347.884375 83.390635 
L 347.979137 83.618289 
L 348.168661 84.30125 
L 348.358185 89.689054 
L 348.452947 89.689054 
L 348.547709 87.564286 
L 348.737233 78.913445 
L 348.831995 77.926946 
L 348.926757 78.685792 
L 349.021519 78.002831 
L 349.211043 74.512141 
L 349.305805 75.574524 
L 349.495329 74.056833 
L 349.590091 74.056833 
L 349.779615 71.628527 
L 349.969139 71.097335 
L 350.063901 70.793797 
L 350.253425 72.615026 
L 350.348187 72.690911 
L 350.442949 72.387373 
L 350.537711 72.690911 
L 350.632473 69.276105 
L 350.727235 69.427875 
L 350.916758 68.972567 
L 351.01152 69.276105 
L 351.201044 74.436256 
L 351.390568 75.953947 
L 351.580092 73.373872 
L 351.864378 85.743056 
L 351.95914 85.439518 
L 352.148664 94.925089 
L 352.243426 94.77332 
L 352.43295 93.710936 
L 352.527712 93.786821 
L 352.622474 93.027975 
L 352.717236 93.255629 
L 352.811998 95.911588 
L 353.001522 94.925089 
L 353.191046 95.076858 
L 353.285808 95.076858 
L 353.38057 95.228627 
L 353.475332 90.979092 
L 353.570094 93.407398 
L 353.664856 93.255629 
L 353.949142 95.60805 
L 354.043904 95.60805 
L 354.138666 95.759819 
L 354.32819 95.076858 
L 354.517714 91.889706 
L 354.707238 91.737937 
L 354.896762 94.77332 
L 354.991524 94.697435 
L 355.181048 92.193245 
L 355.27581 92.496783 
L 355.465334 97.125742 
L 355.654858 97.125742 
L 355.844381 97.884587 
L 356.128667 97.808703 
L 356.223429 96.822203 
L 356.412953 90.523784 
L 356.507715 90.675553 
L 356.602477 90.144361 
L 356.886763 91.206745 
L 356.981525 90.979092 
L 357.171049 86.501902 
L 357.265811 86.501902 
L 357.360573 85.818941 
L 357.550097 83.997711 
L 357.739621 83.694173 
L 357.834383 83.921827 
L 357.929145 77.775177 
L 358.023907 77.851061 
L 358.118669 76.788678 
L 358.213431 77.775177 
L 358.402955 76.788678 
L 358.497717 77.092216 
L 358.592479 76.712793 
L 358.876765 81.948828 
L 359.255813 87.033094 
L 359.350575 86.426018 
L 359.445337 88.930208 
L 359.540099 88.854324 
L 359.634861 88.854324 
L 359.824385 84.832442 
L 359.919147 84.908326 
L 360.108671 87.943709 
L 360.203433 87.564286 
L 360.392957 86.046595 
L 360.487719 85.97071 
L 360.677242 84.453019 
L 360.961528 89.157862 
L 361.05629 86.577787 
L 361.151052 86.729556 
L 361.340576 85.060095 
L 361.435338 85.060095 
L 361.624862 79.672291 
L 361.719624 78.761676 
L 361.814386 81.189982 
L 362.193434 75.650409 
L 362.288196 76.181601 
L 362.382958 75.878063 
L 362.572482 79.748176 
L 362.667244 79.82406 
L 362.856768 84.756557 
L 362.95153 84.756557 
L 363.330578 79.065215 
L 363.42534 83.238866 
L 363.520102 83.162981 
L 363.614864 83.162981 
L 363.804388 88.702555 
L 363.89915 87.108979 
L 363.993912 87.184863 
L 364.183436 91.206745 
L 364.657246 89.4614 
L 364.752008 89.689054 
L 364.84677 89.537285 
L 365.036294 84.832442 
L 365.131056 85.211864 
L 365.415342 76.029832 
L 365.699627 67.378991 
L 365.889151 69.200221 
L 366.078675 64.571262 
L 366.268199 71.476758 
L 366.457723 70.110836 
L 366.647247 72.690911 
L 366.836771 72.615026 
L 367.026295 73.222103 
L 367.215819 77.547523 
L 367.310581 77.471639 
L 367.500105 74.815679 
L 367.594867 74.739794 
L 367.689629 73.601526 
L 367.784391 73.905064 
L 367.973915 72.690911 
L 368.068677 72.994449 
L 368.258201 75.953947 
L 368.352963 75.953947 
L 368.447725 78.078715 
L 368.542487 78.002831 
L 368.732011 70.566143 
L 368.921535 70.034951 
L 369.111059 70.642028 
L 369.205821 70.338489 
L 369.300583 70.490258 
L 369.395345 70.338489 
L 369.490107 69.655528 
L 369.774393 63.736532 
L 369.869155 61.763533 
L 370.058679 62.446494 
L 370.153441 59.335227 
L 370.248203 59.638765 
L 370.437726 60.094073 
L 370.62725 58.955804 
L 370.816774 58.955804 
L 371.006298 59.259343 
L 371.195822 58.196959 
L 371.480108 63.281225 
L 371.669632 59.638765 
L 371.859156 59.71465 
L 371.953918 60.321726 
L 372.238204 64.571262 
L 372.332966 64.419493 
L 372.427728 63.281225 
L 372.52249 65.557762 
L 372.712014 64.647147 
L 372.806776 64.647147 
L 372.901538 59.790535 
L 372.9963 60.094073 
L 373.185824 60.54938 
L 373.280586 59.638765 
L 373.47011 60.397611 
L 373.564872 65.405992 
L 373.754396 63.736532 
L 373.849158 63.432994 
L 373.94392 63.508878 
L 374.038682 66.544261 
L 374.133444 65.8613 
L 374.228206 66.013069 
L 374.41773 63.432994 
L 374.702016 68.213721 
L 374.89154 74.436256 
L 375.081064 73.980949 
L 375.175826 74.208602 
L 375.270587 76.409255 
L 375.460111 69.276105 
L 375.649635 68.820798 
L 375.744397 69.276105 
L 375.839159 69.200221 
L 376.123445 69.655528 
L 376.312969 68.669029 
L 376.407731 68.896683 
L 376.597255 70.414374 
L 376.692017 69.731413 
L 376.976303 76.181601 
L 377.071065 75.574524 
L 377.165827 75.802178 
L 377.260589 75.650409 
L 377.355351 73.373872 
L 377.450113 73.980949 
L 377.639637 71.704412 
L 377.734399 72.235604 
L 377.829161 70.338489 
L 377.923923 71.704412 
L 378.018685 69.959066 
L 378.113447 75.726294 
L 378.302971 71.476758 
L 378.397733 71.628527 
L 378.587257 70.110836 
L 378.776781 75.346871 
L 379.061067 72.84268 
L 379.345353 73.373872 
L 379.440115 75.878063 
L 379.534877 73.905064 
L 379.629639 74.360371 
L 379.724401 73.449757 
L 379.819163 68.593144 
L 379.913925 69.048452 
L 380.103448 70.869681 
L 380.19821 71.17322 
L 380.387734 76.864562 
L 380.577258 77.016331 
L 380.766782 77.016331 
L 380.861544 76.636908 
L 380.956306 76.712793 
L 381.051068 74.815679 
L 381.14583 77.471639 
L 381.240592 76.712793 
L 381.335354 74.360371 
L 381.430116 74.588025 
L 381.524878 76.181601 
L 381.61964 76.105716 
L 381.714402 76.105716 
L 381.903926 78.458138 
L 381.998688 78.306369 
L 382.188212 81.64529 
L 382.377736 81.721174 
L 382.472498 81.721174 
L 382.56726 81.872944 
L 382.756784 82.631789 
L 382.946308 82.555905 
L 383.135832 82.328251 
L 383.325356 83.390635 
L 383.893928 75.726294 
L 383.98869 75.726294 
L 384.272976 71.17322 
L 384.557262 69.276105 
L 384.652024 69.35199 
L 384.841548 70.110836 
L 385.031071 70.110836 
L 385.125833 70.338489 
L 385.220595 68.213721 
L 385.410119 70.262605 
L 385.599643 67.378991 
L 385.694405 67.378991 
L 385.789167 71.932065 
L 385.883929 71.856181 
L 386.168215 72.00795 
L 386.262977 72.00795 
L 386.357739 72.539142 
L 386.547263 76.257486 
L 386.642025 73.601526 
L 386.831549 76.788678 
L 386.926311 67.682529 
L 387.021073 68.137837 
L 387.210597 62.218841 
L 387.305359 66.999568 
L 387.400121 66.240723 
L 387.589645 66.164838 
L 387.684407 66.164838 
L 387.779169 70.262605 
L 387.873931 69.883182 
L 388.252979 69.959066 
L 388.347741 70.034951 
L 388.537265 76.940447 
L 388.632027 77.016331 
L 388.821551 80.962329 
L 388.916313 79.292868 
L 389.011075 81.189982 
L 389.105837 77.016331 
L 389.200599 79.748176 
L 389.295361 79.672291 
L 389.579647 80.886444 
L 389.674409 70.642028 
L 389.769171 71.02145 
L 389.958694 74.588025 
L 390.053456 75.422755 
L 390.24298 78.230484 
L 390.337742 78.230484 
L 390.432504 79.065215 
L 390.622028 77.699292 
L 390.71679 77.395754 
L 390.906314 85.818941 
L 391.001076 85.818941 
L 391.095838 85.13598 
L 391.1906 85.591287 
L 391.380124 84.984211 
L 391.569648 85.060095 
L 391.759172 79.520522 
L 392.043458 87.336632 
L 392.13822 85.894826 
L 392.232982 86.653671 
L 392.422506 84.680673 
L 392.61203 84.453019 
L 392.706792 84.604788 
L 392.801554 82.48002 
L 392.991078 84.756557 
L 393.180602 84.832442 
L 393.275364 88.550785 
L 393.654412 79.975829 
L 393.843936 80.962329 
L 394.03346 80.507021 
L 394.128222 81.038213 
L 394.222984 79.82406 
L 394.317746 80.203483 
L 394.412508 83.238866 
L 394.602032 81.948828 
L 394.886317 85.818941 
L 394.981079 84.149481 
L 395.075841 85.287749 
L 395.170603 84.756557 
L 395.265365 85.060095 
L 395.360127 78.306369 
L 395.454889 78.382253 
L 395.644413 80.507021 
L 395.833937 84.908326 
L 396.023461 84.680673 
L 396.212985 85.211864 
L 396.402509 85.439518 
L 396.686795 82.859443 
L 396.781557 82.935327 
L 396.876319 81.64529 
L 396.971081 82.100597 
L 397.160605 86.350133 
L 397.350129 86.350133 
L 397.444891 86.046595 
L 397.634415 87.412517 
L 397.729177 92.269129 
L 397.918701 90.751438 
L 398.013463 91.662053 
L 398.108225 86.881325 
L 398.297749 92.876206 
L 398.392511 92.800321 
L 398.487273 93.103859 
L 398.487273 93.103859 
" clip-path="url(#p1545a424d6)" style="fill: none; stroke: #1f77b4; stroke-width: 1.5; stroke-linecap: square"/>
   </g>
   <g id="patch_3">
    <path d="M 57.6 307.584 
L 57.6 41.472 
" style="fill: none; stroke: #000000; stroke-width: 0.8; stroke-linejoin: miter; stroke-linecap: square"/>
   </g>
   <g id="patch_4">
    <path d="M 414.72 307.584 
L 414.72 41.472 
" style="fill: none; stroke: #000000; stroke-width: 0.8; stroke-linejoin: miter; stroke-linecap: square"/>
   </g>
   <g id="patch_5">
    <path d="M 57.6 307.584 
L 414.72 307.584 
" style="fill: none; stroke: #000000; stroke-width: 0.8; stroke-linejoin: miter; stroke-linecap: square"/>
   </g>
   <g id="patch_6">
    <path d="M 57.6 41.472 
L 414.72 41.472 
" style="fill: none; stroke: #000000; stroke-width: 0.8; stroke-linejoin: miter; stroke-linecap: square"/>
   </g>
   <g id="text_18">
    <!-- comp07 -->
    <g transform="translate(211.90125 35.472) scale(0.12 -0.12)">
     <defs>
      <path id="DejaVuSans-63" d="M 3122 3366 
L 3122 2828 
Q 2878 2963 2633 3030 
Q 2388 3097 2138 3097 
Q 1578 3097 1268 2742 
Q 959 2388 959 1747 
Q 959 1106 1268 751 
Q 1578 397 2138 397 
Q 2388 397 2633 464 
Q 2878 531 3122 666 
L 3122 134 
Q 2881 22 2623 -34 
Q 2366 -91 2075 -91 
Q 1284 -91 818 406 
Q 353 903 353 1747 
Q 353 2603 823 3093 
Q 1294 3584 2113 3584 
Q 2378 3584 2631 3529 
Q 2884 3475 3122 3366 
z
" transform="scale(0.015625)"/>
      <path id="DejaVuSans-70" d="M 1159 525 
L 1159 -1331 
L 581 -1331 
L 581 3500 
L 1159 3500 
L 1159 2969 
Q 1341 3281 1617 3432 
Q 1894 3584 2278 3584 
Q 2916 3584 3314 3078 
Q 3713 2572 3713 1747 
Q 3713 922 3314 415 
Q 2916 -91 2278 -91 
Q 1894 -91 1617 61 
Q 1341 213 1159 525 
z
M 3116 1747 
Q 3116 2381 2855 2742 
Q 2594 3103 2138 3103 
Q 1681 3103 1420 2742 
Q 1159 2381 1159 1747 
Q 1159 1113 1420 752 
Q 1681 391 2138 391 
Q 2594 391 2855 752 
Q 3116 1113 3116 1747 
z
" transform="scale(0.015625)"/>
      <path id="DejaVuSans-37" d="M 525 4666 
L 3525 4666 
L 3525 4397 
L 1831 0 
L 1172 0 
L 2766 4134 
L 525 4134 
L 525 4666 
z
" transform="scale(0.015625)"/>
     </defs>
     <use xlink:href="#DejaVuSans-63"/>
     <use xlink:href="#DejaVuSans-6f" x="54.980469"/>
     <use xlink:href="#DejaVuSans-6d" x="116.162109"/>
     <use xlink:href="#DejaVuSans-70" x="213.574219"/>
     <use xlink:href="#DejaVuSans-30" x="277.050781"/>
     <use xlink:href="#DejaVuSans-37" x="340.673828"/>
    </g>
   </g>
  </g>
 </g>
 <defs>
  <clipPath id="p1545a424d6">
   <rect x="57.6" y="41.472" width="357.12" height="266.112"/>
  </clipPath>
 </defs>
</svg>
