<?xml version="1.0" encoding="utf-8" standalone="no"?>
<!DOCTYPE svg PUBLIC "-//W3C//DTD SVG 1.1//EN"
  "http://www.w3.org/Graphics/SVG/1.1/DTD/svg11.dtd">
<svg xmlns:xlink="http://www.w3.org/1999/xlink" width="460.8pt" height="345.6pt" viewBox="0 0 460.8 345.6" xmlns="http://www.w3.org/2000/svg" version="1.1">
 <metadata>
  <rdf:RDF xmlns:dc="http://purl.org/dc/elements/1.1/" xmlns:cc="http://creativecommons.org/ns#" xmlns:rdf="http://www.w3.org/1999/02/22-rdf-syntax-ns#">
   <cc:Work>
    <dc:type rdf:resource="http://purl.org/dc/dcmitype/StillImage"/>
    <dc:date>2023-12-03T18:15:54.666475</dc:date>
    <dc:format>image/svg+xml</dc:format>
    <dc:creator>
     <cc:Agent>
      <dc:title>Matplotlib v3.7.1, https://matplotlib.org/</dc:title>
     </cc:Agent>
    </dc:creator>
   </cc:Work>
  </rdf:RDF>
 </metadata>
 <defs>
  <style type="text/css">*{stroke-linejoin: round; stroke-linecap: butt}</style>
 </defs>
 <g id="figure_1">
  <g id="patch_1">
   <path d="M 0 345.6 
L 460.8 345.6 
L 460.8 0 
L 0 0 
z
" style="fill: #ffffff"/>
  </g>
  <g id="axes_1">
   <g id="patch_2">
    <path d="M 57.6 307.584 
L 414.72 307.584 
L 414.72 41.472 
L 57.6 41.472 
z
" style="fill: #ffffff"/>
   </g>
   <g id="matplotlib.axis_1">
    <g id="xtick_1">
     <g id="line2d_1">
      <defs>
       <path id="md18af01014" d="M 0 0 
L 0 3.5 
" style="stroke: #000000; stroke-width: 0.8"/>
      </defs>
      <g>
       <use xlink:href="#md18af01014" x="73.832727" y="307.584" style="stroke: #000000; stroke-width: 0.8"/>
      </g>
     </g>
     <g id="text_1">
      <!-- 0 -->
      <g transform="translate(70.651477 322.182437) scale(0.1 -0.1)">
       <defs>
        <path id="DejaVuSans-30" d="M 2034 4250 
Q 1547 4250 1301 3770 
Q 1056 3291 1056 2328 
Q 1056 1369 1301 889 
Q 1547 409 2034 409 
Q 2525 409 2770 889 
Q 3016 1369 3016 2328 
Q 3016 3291 2770 3770 
Q 2525 4250 2034 4250 
z
M 2034 4750 
Q 2819 4750 3233 4129 
Q 3647 3509 3647 2328 
Q 3647 1150 3233 529 
Q 2819 -91 2034 -91 
Q 1250 -91 836 529 
Q 422 1150 422 2328 
Q 422 3509 836 4129 
Q 1250 4750 2034 4750 
z
" transform="scale(0.015625)"/>
       </defs>
       <use xlink:href="#DejaVuSans-30"/>
      </g>
     </g>
    </g>
    <g id="xtick_2">
     <g id="line2d_2">
      <g>
       <use xlink:href="#md18af01014" x="139.16872" y="307.584" style="stroke: #000000; stroke-width: 0.8"/>
      </g>
     </g>
     <g id="text_2">
      <!-- 1000 -->
      <g transform="translate(126.44372 322.182437) scale(0.1 -0.1)">
       <defs>
        <path id="DejaVuSans-31" d="M 794 531 
L 1825 531 
L 1825 4091 
L 703 3866 
L 703 4441 
L 1819 4666 
L 2450 4666 
L 2450 531 
L 3481 531 
L 3481 0 
L 794 0 
L 794 531 
z
" transform="scale(0.015625)"/>
       </defs>
       <use xlink:href="#DejaVuSans-31"/>
       <use xlink:href="#DejaVuSans-30" x="63.623047"/>
       <use xlink:href="#DejaVuSans-30" x="127.246094"/>
       <use xlink:href="#DejaVuSans-30" x="190.869141"/>
      </g>
     </g>
    </g>
    <g id="xtick_3">
     <g id="line2d_3">
      <g>
       <use xlink:href="#md18af01014" x="204.504712" y="307.584" style="stroke: #000000; stroke-width: 0.8"/>
      </g>
     </g>
     <g id="text_3">
      <!-- 2000 -->
      <g transform="translate(191.779712 322.182437) scale(0.1 -0.1)">
       <defs>
        <path id="DejaVuSans-32" d="M 1228 531 
L 3431 531 
L 3431 0 
L 469 0 
L 469 531 
Q 828 903 1448 1529 
Q 2069 2156 2228 2338 
Q 2531 2678 2651 2914 
Q 2772 3150 2772 3378 
Q 2772 3750 2511 3984 
Q 2250 4219 1831 4219 
Q 1534 4219 1204 4116 
Q 875 4013 500 3803 
L 500 4441 
Q 881 4594 1212 4672 
Q 1544 4750 1819 4750 
Q 2544 4750 2975 4387 
Q 3406 4025 3406 3419 
Q 3406 3131 3298 2873 
Q 3191 2616 2906 2266 
Q 2828 2175 2409 1742 
Q 1991 1309 1228 531 
z
" transform="scale(0.015625)"/>
       </defs>
       <use xlink:href="#DejaVuSans-32"/>
       <use xlink:href="#DejaVuSans-30" x="63.623047"/>
       <use xlink:href="#DejaVuSans-30" x="127.246094"/>
       <use xlink:href="#DejaVuSans-30" x="190.869141"/>
      </g>
     </g>
    </g>
    <g id="xtick_4">
     <g id="line2d_4">
      <g>
       <use xlink:href="#md18af01014" x="269.840704" y="307.584" style="stroke: #000000; stroke-width: 0.8"/>
      </g>
     </g>
     <g id="text_4">
      <!-- 3000 -->
      <g transform="translate(257.115704 322.182437) scale(0.1 -0.1)">
       <defs>
        <path id="DejaVuSans-33" d="M 2597 2516 
Q 3050 2419 3304 2112 
Q 3559 1806 3559 1356 
Q 3559 666 3084 287 
Q 2609 -91 1734 -91 
Q 1441 -91 1130 -33 
Q 819 25 488 141 
L 488 750 
Q 750 597 1062 519 
Q 1375 441 1716 441 
Q 2309 441 2620 675 
Q 2931 909 2931 1356 
Q 2931 1769 2642 2001 
Q 2353 2234 1838 2234 
L 1294 2234 
L 1294 2753 
L 1863 2753 
Q 2328 2753 2575 2939 
Q 2822 3125 2822 3475 
Q 2822 3834 2567 4026 
Q 2313 4219 1838 4219 
Q 1578 4219 1281 4162 
Q 984 4106 628 3988 
L 628 4550 
Q 988 4650 1302 4700 
Q 1616 4750 1894 4750 
Q 2613 4750 3031 4423 
Q 3450 4097 3450 3541 
Q 3450 3153 3228 2886 
Q 3006 2619 2597 2516 
z
" transform="scale(0.015625)"/>
       </defs>
       <use xlink:href="#DejaVuSans-33"/>
       <use xlink:href="#DejaVuSans-30" x="63.623047"/>
       <use xlink:href="#DejaVuSans-30" x="127.246094"/>
       <use xlink:href="#DejaVuSans-30" x="190.869141"/>
      </g>
     </g>
    </g>
    <g id="xtick_5">
     <g id="line2d_5">
      <g>
       <use xlink:href="#md18af01014" x="335.176696" y="307.584" style="stroke: #000000; stroke-width: 0.8"/>
      </g>
     </g>
     <g id="text_5">
      <!-- 4000 -->
      <g transform="translate(322.451696 322.182437) scale(0.1 -0.1)">
       <defs>
        <path id="DejaVuSans-34" d="M 2419 4116 
L 825 1625 
L 2419 1625 
L 2419 4116 
z
M 2253 4666 
L 3047 4666 
L 3047 1625 
L 3713 1625 
L 3713 1100 
L 3047 1100 
L 3047 0 
L 2419 0 
L 2419 1100 
L 313 1100 
L 313 1709 
L 2253 4666 
z
" transform="scale(0.015625)"/>
       </defs>
       <use xlink:href="#DejaVuSans-34"/>
       <use xlink:href="#DejaVuSans-30" x="63.623047"/>
       <use xlink:href="#DejaVuSans-30" x="127.246094"/>
       <use xlink:href="#DejaVuSans-30" x="190.869141"/>
      </g>
     </g>
    </g>
    <g id="xtick_6">
     <g id="line2d_6">
      <g>
       <use xlink:href="#md18af01014" x="400.512688" y="307.584" style="stroke: #000000; stroke-width: 0.8"/>
      </g>
     </g>
     <g id="text_6">
      <!-- 5000 -->
      <g transform="translate(387.787688 322.182437) scale(0.1 -0.1)">
       <defs>
        <path id="DejaVuSans-35" d="M 691 4666 
L 3169 4666 
L 3169 4134 
L 1269 4134 
L 1269 2991 
Q 1406 3038 1543 3061 
Q 1681 3084 1819 3084 
Q 2600 3084 3056 2656 
Q 3513 2228 3513 1497 
Q 3513 744 3044 326 
Q 2575 -91 1722 -91 
Q 1428 -91 1123 -41 
Q 819 9 494 109 
L 494 744 
Q 775 591 1075 516 
Q 1375 441 1709 441 
Q 2250 441 2565 725 
Q 2881 1009 2881 1497 
Q 2881 1984 2565 2268 
Q 2250 2553 1709 2553 
Q 1456 2553 1204 2497 
Q 953 2441 691 2322 
L 691 4666 
z
" transform="scale(0.015625)"/>
       </defs>
       <use xlink:href="#DejaVuSans-35"/>
       <use xlink:href="#DejaVuSans-30" x="63.623047"/>
       <use xlink:href="#DejaVuSans-30" x="127.246094"/>
       <use xlink:href="#DejaVuSans-30" x="190.869141"/>
      </g>
     </g>
    </g>
    <g id="text_7">
     <!-- iteration -->
     <g transform="translate(215.037344 335.860562) scale(0.1 -0.1)">
      <defs>
       <path id="DejaVuSans-69" d="M 603 3500 
L 1178 3500 
L 1178 0 
L 603 0 
L 603 3500 
z
M 603 4863 
L 1178 4863 
L 1178 4134 
L 603 4134 
L 603 4863 
z
" transform="scale(0.015625)"/>
       <path id="DejaVuSans-74" d="M 1172 4494 
L 1172 3500 
L 2356 3500 
L 2356 3053 
L 1172 3053 
L 1172 1153 
Q 1172 725 1289 603 
Q 1406 481 1766 481 
L 2356 481 
L 2356 0 
L 1766 0 
Q 1100 0 847 248 
Q 594 497 594 1153 
L 594 3053 
L 172 3053 
L 172 3500 
L 594 3500 
L 594 4494 
L 1172 4494 
z
" transform="scale(0.015625)"/>
       <path id="DejaVuSans-65" d="M 3597 1894 
L 3597 1613 
L 953 1613 
Q 991 1019 1311 708 
Q 1631 397 2203 397 
Q 2534 397 2845 478 
Q 3156 559 3463 722 
L 3463 178 
Q 3153 47 2828 -22 
Q 2503 -91 2169 -91 
Q 1331 -91 842 396 
Q 353 884 353 1716 
Q 353 2575 817 3079 
Q 1281 3584 2069 3584 
Q 2775 3584 3186 3129 
Q 3597 2675 3597 1894 
z
M 3022 2063 
Q 3016 2534 2758 2815 
Q 2500 3097 2075 3097 
Q 1594 3097 1305 2825 
Q 1016 2553 972 2059 
L 3022 2063 
z
" transform="scale(0.015625)"/>
       <path id="DejaVuSans-72" d="M 2631 2963 
Q 2534 3019 2420 3045 
Q 2306 3072 2169 3072 
Q 1681 3072 1420 2755 
Q 1159 2438 1159 1844 
L 1159 0 
L 581 0 
L 581 3500 
L 1159 3500 
L 1159 2956 
Q 1341 3275 1631 3429 
Q 1922 3584 2338 3584 
Q 2397 3584 2469 3576 
Q 2541 3569 2628 3553 
L 2631 2963 
z
" transform="scale(0.015625)"/>
       <path id="DejaVuSans-61" d="M 2194 1759 
Q 1497 1759 1228 1600 
Q 959 1441 959 1056 
Q 959 750 1161 570 
Q 1363 391 1709 391 
Q 2188 391 2477 730 
Q 2766 1069 2766 1631 
L 2766 1759 
L 2194 1759 
z
M 3341 1997 
L 3341 0 
L 2766 0 
L 2766 531 
Q 2569 213 2275 61 
Q 1981 -91 1556 -91 
Q 1019 -91 701 211 
Q 384 513 384 1019 
Q 384 1609 779 1909 
Q 1175 2209 1959 2209 
L 2766 2209 
L 2766 2266 
Q 2766 2663 2505 2880 
Q 2244 3097 1772 3097 
Q 1472 3097 1187 3025 
Q 903 2953 641 2809 
L 641 3341 
Q 956 3463 1253 3523 
Q 1550 3584 1831 3584 
Q 2591 3584 2966 3190 
Q 3341 2797 3341 1997 
z
" transform="scale(0.015625)"/>
       <path id="DejaVuSans-6f" d="M 1959 3097 
Q 1497 3097 1228 2736 
Q 959 2375 959 1747 
Q 959 1119 1226 758 
Q 1494 397 1959 397 
Q 2419 397 2687 759 
Q 2956 1122 2956 1747 
Q 2956 2369 2687 2733 
Q 2419 3097 1959 3097 
z
M 1959 3584 
Q 2709 3584 3137 3096 
Q 3566 2609 3566 1747 
Q 3566 888 3137 398 
Q 2709 -91 1959 -91 
Q 1206 -91 779 398 
Q 353 888 353 1747 
Q 353 2609 779 3096 
Q 1206 3584 1959 3584 
z
" transform="scale(0.015625)"/>
       <path id="DejaVuSans-6e" d="M 3513 2113 
L 3513 0 
L 2938 0 
L 2938 2094 
Q 2938 2591 2744 2837 
Q 2550 3084 2163 3084 
Q 1697 3084 1428 2787 
Q 1159 2491 1159 1978 
L 1159 0 
L 581 0 
L 581 3500 
L 1159 3500 
L 1159 2956 
Q 1366 3272 1645 3428 
Q 1925 3584 2291 3584 
Q 2894 3584 3203 3211 
Q 3513 2838 3513 2113 
z
" transform="scale(0.015625)"/>
      </defs>
      <use xlink:href="#DejaVuSans-69"/>
      <use xlink:href="#DejaVuSans-74" x="27.783203"/>
      <use xlink:href="#DejaVuSans-65" x="66.992188"/>
      <use xlink:href="#DejaVuSans-72" x="128.515625"/>
      <use xlink:href="#DejaVuSans-61" x="169.628906"/>
      <use xlink:href="#DejaVuSans-74" x="230.908203"/>
      <use xlink:href="#DejaVuSans-69" x="270.117188"/>
      <use xlink:href="#DejaVuSans-6f" x="297.900391"/>
      <use xlink:href="#DejaVuSans-6e" x="359.082031"/>
     </g>
    </g>
   </g>
   <g id="matplotlib.axis_2">
    <g id="ytick_1">
     <g id="line2d_7">
      <defs>
       <path id="mb797ec0fc9" d="M 0 0 
L -3.5 0 
" style="stroke: #000000; stroke-width: 0.8"/>
      </defs>
      <g>
       <use xlink:href="#mb797ec0fc9" x="57.6" y="280.87004" style="stroke: #000000; stroke-width: 0.8"/>
      </g>
     </g>
     <g id="text_8">
      <!-- 500 -->
      <g transform="translate(31.5125 284.669259) scale(0.1 -0.1)">
       <use xlink:href="#DejaVuSans-35"/>
       <use xlink:href="#DejaVuSans-30" x="63.623047"/>
       <use xlink:href="#DejaVuSans-30" x="127.246094"/>
      </g>
     </g>
    </g>
    <g id="ytick_2">
     <g id="line2d_8">
      <g>
       <use xlink:href="#mb797ec0fc9" x="57.6" y="244.686971" style="stroke: #000000; stroke-width: 0.8"/>
      </g>
     </g>
     <g id="text_9">
      <!-- 1000 -->
      <g transform="translate(25.15 248.48619) scale(0.1 -0.1)">
       <use xlink:href="#DejaVuSans-31"/>
       <use xlink:href="#DejaVuSans-30" x="63.623047"/>
       <use xlink:href="#DejaVuSans-30" x="127.246094"/>
       <use xlink:href="#DejaVuSans-30" x="190.869141"/>
      </g>
     </g>
    </g>
    <g id="ytick_3">
     <g id="line2d_9">
      <g>
       <use xlink:href="#mb797ec0fc9" x="57.6" y="208.503902" style="stroke: #000000; stroke-width: 0.8"/>
      </g>
     </g>
     <g id="text_10">
      <!-- 1500 -->
      <g transform="translate(25.15 212.303121) scale(0.1 -0.1)">
       <use xlink:href="#DejaVuSans-31"/>
       <use xlink:href="#DejaVuSans-35" x="63.623047"/>
       <use xlink:href="#DejaVuSans-30" x="127.246094"/>
       <use xlink:href="#DejaVuSans-30" x="190.869141"/>
      </g>
     </g>
    </g>
    <g id="ytick_4">
     <g id="line2d_10">
      <g>
       <use xlink:href="#mb797ec0fc9" x="57.6" y="172.320833" style="stroke: #000000; stroke-width: 0.8"/>
      </g>
     </g>
     <g id="text_11">
      <!-- 2000 -->
      <g transform="translate(25.15 176.120052) scale(0.1 -0.1)">
       <use xlink:href="#DejaVuSans-32"/>
       <use xlink:href="#DejaVuSans-30" x="63.623047"/>
       <use xlink:href="#DejaVuSans-30" x="127.246094"/>
       <use xlink:href="#DejaVuSans-30" x="190.869141"/>
      </g>
     </g>
    </g>
    <g id="ytick_5">
     <g id="line2d_11">
      <g>
       <use xlink:href="#mb797ec0fc9" x="57.6" y="136.137764" style="stroke: #000000; stroke-width: 0.8"/>
      </g>
     </g>
     <g id="text_12">
      <!-- 2500 -->
      <g transform="translate(25.15 139.936982) scale(0.1 -0.1)">
       <use xlink:href="#DejaVuSans-32"/>
       <use xlink:href="#DejaVuSans-35" x="63.623047"/>
       <use xlink:href="#DejaVuSans-30" x="127.246094"/>
       <use xlink:href="#DejaVuSans-30" x="190.869141"/>
      </g>
     </g>
    </g>
    <g id="ytick_6">
     <g id="line2d_12">
      <g>
       <use xlink:href="#mb797ec0fc9" x="57.6" y="99.954695" style="stroke: #000000; stroke-width: 0.8"/>
      </g>
     </g>
     <g id="text_13">
      <!-- 3000 -->
      <g transform="translate(25.15 103.753913) scale(0.1 -0.1)">
       <use xlink:href="#DejaVuSans-33"/>
       <use xlink:href="#DejaVuSans-30" x="63.623047"/>
       <use xlink:href="#DejaVuSans-30" x="127.246094"/>
       <use xlink:href="#DejaVuSans-30" x="190.869141"/>
      </g>
     </g>
    </g>
    <g id="ytick_7">
     <g id="line2d_13">
      <g>
       <use xlink:href="#mb797ec0fc9" x="57.6" y="63.771625" style="stroke: #000000; stroke-width: 0.8"/>
      </g>
     </g>
     <g id="text_14">
      <!-- 3500 -->
      <g transform="translate(25.15 67.570844) scale(0.1 -0.1)">
       <use xlink:href="#DejaVuSans-33"/>
       <use xlink:href="#DejaVuSans-35" x="63.623047"/>
       <use xlink:href="#DejaVuSans-30" x="127.246094"/>
       <use xlink:href="#DejaVuSans-30" x="190.869141"/>
      </g>
     </g>
    </g>
    <g id="text_15">
     <!-- best fitness of swarm -->
     <g transform="translate(19.070312 228.0905) rotate(-90) scale(0.1 -0.1)">
      <defs>
       <path id="DejaVuSans-62" d="M 3116 1747 
Q 3116 2381 2855 2742 
Q 2594 3103 2138 3103 
Q 1681 3103 1420 2742 
Q 1159 2381 1159 1747 
Q 1159 1113 1420 752 
Q 1681 391 2138 391 
Q 2594 391 2855 752 
Q 3116 1113 3116 1747 
z
M 1159 2969 
Q 1341 3281 1617 3432 
Q 1894 3584 2278 3584 
Q 2916 3584 3314 3078 
Q 3713 2572 3713 1747 
Q 3713 922 3314 415 
Q 2916 -91 2278 -91 
Q 1894 -91 1617 61 
Q 1341 213 1159 525 
L 1159 0 
L 581 0 
L 581 4863 
L 1159 4863 
L 1159 2969 
z
" transform="scale(0.015625)"/>
       <path id="DejaVuSans-73" d="M 2834 3397 
L 2834 2853 
Q 2591 2978 2328 3040 
Q 2066 3103 1784 3103 
Q 1356 3103 1142 2972 
Q 928 2841 928 2578 
Q 928 2378 1081 2264 
Q 1234 2150 1697 2047 
L 1894 2003 
Q 2506 1872 2764 1633 
Q 3022 1394 3022 966 
Q 3022 478 2636 193 
Q 2250 -91 1575 -91 
Q 1294 -91 989 -36 
Q 684 19 347 128 
L 347 722 
Q 666 556 975 473 
Q 1284 391 1588 391 
Q 1994 391 2212 530 
Q 2431 669 2431 922 
Q 2431 1156 2273 1281 
Q 2116 1406 1581 1522 
L 1381 1569 
Q 847 1681 609 1914 
Q 372 2147 372 2553 
Q 372 3047 722 3315 
Q 1072 3584 1716 3584 
Q 2034 3584 2315 3537 
Q 2597 3491 2834 3397 
z
" transform="scale(0.015625)"/>
       <path id="DejaVuSans-20" transform="scale(0.015625)"/>
       <path id="DejaVuSans-66" d="M 2375 4863 
L 2375 4384 
L 1825 4384 
Q 1516 4384 1395 4259 
Q 1275 4134 1275 3809 
L 1275 3500 
L 2222 3500 
L 2222 3053 
L 1275 3053 
L 1275 0 
L 697 0 
L 697 3053 
L 147 3053 
L 147 3500 
L 697 3500 
L 697 3744 
Q 697 4328 969 4595 
Q 1241 4863 1831 4863 
L 2375 4863 
z
" transform="scale(0.015625)"/>
       <path id="DejaVuSans-77" d="M 269 3500 
L 844 3500 
L 1563 769 
L 2278 3500 
L 2956 3500 
L 3675 769 
L 4391 3500 
L 4966 3500 
L 4050 0 
L 3372 0 
L 2619 2869 
L 1863 0 
L 1184 0 
L 269 3500 
z
" transform="scale(0.015625)"/>
       <path id="DejaVuSans-6d" d="M 3328 2828 
Q 3544 3216 3844 3400 
Q 4144 3584 4550 3584 
Q 5097 3584 5394 3201 
Q 5691 2819 5691 2113 
L 5691 0 
L 5113 0 
L 5113 2094 
Q 5113 2597 4934 2840 
Q 4756 3084 4391 3084 
Q 3944 3084 3684 2787 
Q 3425 2491 3425 1978 
L 3425 0 
L 2847 0 
L 2847 2094 
Q 2847 2600 2669 2842 
Q 2491 3084 2119 3084 
Q 1678 3084 1418 2786 
Q 1159 2488 1159 1978 
L 1159 0 
L 581 0 
L 581 3500 
L 1159 3500 
L 1159 2956 
Q 1356 3278 1631 3431 
Q 1906 3584 2284 3584 
Q 2666 3584 2933 3390 
Q 3200 3197 3328 2828 
z
" transform="scale(0.015625)"/>
      </defs>
      <use xlink:href="#DejaVuSans-62"/>
      <use xlink:href="#DejaVuSans-65" x="63.476562"/>
      <use xlink:href="#DejaVuSans-73" x="125"/>
      <use xlink:href="#DejaVuSans-74" x="177.099609"/>
      <use xlink:href="#DejaVuSans-20" x="216.308594"/>
      <use xlink:href="#DejaVuSans-66" x="248.095703"/>
      <use xlink:href="#DejaVuSans-69" x="283.300781"/>
      <use xlink:href="#DejaVuSans-74" x="311.083984"/>
      <use xlink:href="#DejaVuSans-6e" x="350.292969"/>
      <use xlink:href="#DejaVuSans-65" x="413.671875"/>
      <use xlink:href="#DejaVuSans-73" x="475.195312"/>
      <use xlink:href="#DejaVuSans-73" x="527.294922"/>
      <use xlink:href="#DejaVuSans-20" x="579.394531"/>
      <use xlink:href="#DejaVuSans-6f" x="611.181641"/>
      <use xlink:href="#DejaVuSans-66" x="672.363281"/>
      <use xlink:href="#DejaVuSans-20" x="707.568359"/>
      <use xlink:href="#DejaVuSans-73" x="739.355469"/>
      <use xlink:href="#DejaVuSans-77" x="791.455078"/>
      <use xlink:href="#DejaVuSans-61" x="873.242188"/>
      <use xlink:href="#DejaVuSans-72" x="934.521484"/>
      <use xlink:href="#DejaVuSans-6d" x="973.884766"/>
     </g>
    </g>
   </g>
   <g id="line2d_14">
    <path d="M 73.832727 295.488 
L 73.898063 295.343268 
L 74.094071 291.218398 
L 74.159407 291.146032 
L 74.224743 291.218398 
L 74.486087 283.258123 
L 74.616759 282.968658 
L 74.812767 271.245344 
L 75.400791 265.890249 
L 75.531463 262.706139 
L 75.792807 262.706139 
L 75.988815 259.087832 
L 76.119487 259.015466 
L 76.184823 258.219439 
L 76.315495 259.304931 
L 76.446167 258.508903 
L 76.576839 258.436537 
L 76.642175 257.133947 
L 76.707511 252.502514 
L 76.772847 252.719612 
L 76.838183 252.719612 
L 76.903519 252.57488 
L 76.968855 252.791978 
L 77.034191 252.647246 
L 77.360871 245.844829 
L 77.426207 245.700097 
L 77.556879 242.660719 
L 77.883559 242.660719 
L 78.014231 235.279373 
L 78.079567 238.318751 
L 78.340911 238.318751 
L 78.471583 244.035676 
L 78.602255 244.035676 
L 78.667591 243.818577 
L 78.732927 242.009424 
L 78.863599 233.687318 
L 78.928935 234.483345 
L 78.994271 234.410979 
L 79.124943 234.410979 
L 79.255615 233.83205 
L 79.712967 233.759684 
L 79.908975 231.154503 
L 79.974311 231.226869 
L 80.104983 231.805798 
L 80.235655 231.733432 
L 80.366326 225.003381 
L 80.496998 225.003381 
L 80.62767 223.194228 
L 80.693006 223.556059 
L 80.758342 222.904763 
L 80.889014 224.569185 
L 81.019686 216.102346 
L 81.085022 216.102346 
L 81.28103 216.608909 
L 81.346366 216.608909 
L 81.411702 215.957614 
L 81.542374 212.411673 
L 81.803718 210.313055 
L 81.93439 203.655371 
L 82.065062 203.800103 
L 82.130398 203.800103 
L 82.26107 203.944835 
L 82.391742 203.944835 
L 82.457078 204.668497 
L 82.58775 201.918583 
L 82.653086 201.918583 
L 82.91443 191.208395 
L 83.371782 191.136029 
L 83.502454 196.201658 
L 83.56779 196.201658 
L 83.633126 195.767462 
L 83.829134 199.313402 
L 83.89447 199.313402 
L 84.025142 199.892331 
L 84.090478 203.438272 
L 84.155814 203.365906 
L 84.286486 203.583004 
L 84.417158 202.859343 
L 84.54783 199.892331 
L 84.613166 199.892331 
L 84.678502 199.458135 
L 84.809174 194.175407 
L 84.87451 194.175407 
L 84.939846 194.464871 
L 85.070518 189.254509 
L 85.20119 189.182143 
L 85.331862 192.149155 
L 85.462534 191.85969 
L 85.52787 191.85969 
L 85.658542 192.004422 
L 85.789214 176.445703 
L 85.985222 164.143459 
L 86.115894 167.761766 
L 86.18123 167.544668 
L 86.246566 167.834132 
L 86.311902 169.281455 
L 86.442574 163.56453 
L 86.50791 163.56453 
L 86.573246 162.840869 
L 86.638582 163.057967 
L 86.899926 162.985601 
L 86.965262 162.62377 
L 87.095934 165.880246 
L 87.226606 162.189573 
L 87.357278 161.972475 
L 87.48795 154.518763 
L 87.553286 154.518763 
L 87.618622 153.578003 
L 87.749294 150.755724 
L 87.81463 150.972822 
L 87.879966 150.900456 
L 88.010638 147.933444 
L 88.206646 161.538278 
L 88.271982 160.669885 
L 88.337318 169.788018 
L 88.402654 168.99199 
L 88.533326 165.952613 
L 88.663998 165.952613 
L 88.794669 156.110818 
L 88.860005 156.110818 
L 89.056013 143.446744 
L 89.121349 135.124638 
L 89.186685 138.308748 
L 89.382693 138.308748 
L 89.513365 138.45348 
L 89.578701 138.45348 
L 89.644037 138.019283 
L 89.774709 138.525846 
L 89.905381 144.966433 
L 90.101389 144.315137 
L 90.166725 144.966433 
L 90.232061 144.894066 
L 90.362733 144.8217 
L 90.428069 141.131027 
L 90.493405 141.203393 
L 90.558741 141.203393 
L 90.624077 140.624464 
L 90.754749 133.749681 
L 90.820085 133.677315 
L 90.950757 134.835173 
L 91.081429 144.098039 
L 91.146765 142.505984 
L 91.212101 136.716693 
L 91.408109 147.282149 
L 91.473445 147.282149 
L 91.538781 151.262287 
L 91.604117 145.328263 
L 91.734789 149.742598 
L 91.865461 141.565224 
L 92.061469 141.565224 
L 92.126805 144.749334 
L 92.192141 143.302011 
L 92.322813 142.288885 
L 92.453485 135.920665 
L 92.518821 135.124638 
L 92.649493 136.716693 
L 92.780165 136.571961 
L 92.976173 137.223256 
L 93.106845 142.216519 
L 93.302853 142.144153 
L 93.498861 151.985948 
L 93.629533 148.078176 
L 93.694869 148.150543 
L 93.890877 138.236382 
L 93.956213 136.789059 
L 94.086885 127.236729 
L 94.217557 127.164363 
L 94.282893 126.802532 
L 94.413565 124.848646 
L 94.478901 124.993378 
L 94.609573 124.921012 
L 94.674909 125.355209 
L 94.740245 133.02602 
L 94.805581 132.808921 
L 95.001589 135.775933 
L 95.066925 135.775933 
L 95.132261 135.26937 
L 95.262933 135.920665 
L 95.328269 135.486468 
L 95.393605 135.848299 
L 95.524277 126.223603 
L 95.654949 126.006504 
L 95.785621 133.098386 
L 95.850957 133.460217 
L 95.916293 132.881287 
L 95.981629 132.953654 
L 96.112301 132.953654 
L 96.569653 117.250202 
L 96.700325 118.625158 
L 96.830997 117.973863 
L 96.896333 117.973863 
L 97.027005 118.625158 
L 97.157677 118.625158 
L 97.223012 118.842257 
L 97.41902 136.644327 
L 97.615028 136.716693 
L 97.7457 136.354862 
L 97.811036 136.354862 
L 97.876372 141.565224 
L 98.137716 132.012894 
L 98.203052 132.012894 
L 98.268388 141.348126 
L 98.333724 140.624464 
L 98.39906 140.624464 
L 98.464396 140.913929 
L 98.529732 140.841563 
L 98.660404 135.414102 
L 98.72574 135.414102 
L 98.791076 136.499594 
L 98.856412 134.473343 
L 98.921748 134.979905 
L 98.987084 135.631201 
L 99.183092 145.834826 
L 99.313764 143.229645 
L 99.444436 136.137764 
L 99.575108 135.486468 
L 99.70578 137.946917 
L 99.901788 137.946917 
L 100.03246 138.742945 
L 100.163132 142.940181 
L 100.293804 142.940181 
L 100.555148 153.722735 
L 100.68582 153.722735 
L 100.751156 154.084566 
L 100.816492 154.0122 
L 101.0125 153.867468 
L 101.143172 151.334653 
L 101.273844 150.82809 
L 101.33918 150.755724 
L 101.469852 150.466259 
L 101.535188 148.584739 
L 101.600524 148.657106 
L 101.796532 151.262287 
L 101.861868 151.045188 
L 101.99254 152.058314 
L 102.057876 152.13068 
L 102.188548 151.913582 
L 102.31922 152.058314 
L 102.449892 149.88733 
L 102.580564 150.538625 
L 102.711236 149.959696 
L 102.97258 149.959696 
L 103.103252 155.31479 
L 103.233924 155.242424 
L 103.29926 155.170058 
L 103.364596 154.374031 
L 103.495268 149.742598 
L 103.62594 154.084566 
L 103.756612 153.939834 
L 103.95262 154.663495 
L 104.017956 160.163322 
L 104.083292 159.077829 
L 104.148628 159.077829 
L 104.2793 165.156585 
L 104.344636 165.663148 
L 104.475308 161.176448 
L 104.540644 160.742251 
L 104.60598 161.538278 
L 104.671316 164.722388 
L 104.736652 164.432924 
L 104.93266 164.360558 
L 105.063332 160.38042 
L 105.128668 160.38042 
L 105.25934 155.242424 
L 105.324676 155.242424 
L 105.390012 154.518763 
L 105.58602 132.953654 
L 105.651355 132.953654 
L 105.716691 132.736555 
L 105.782027 129.480079 
L 105.847363 133.822047 
L 105.912699 133.38785 
L 106.108707 110.809615 
L 106.174043 110.809615 
L 106.239379 111.388544 
L 106.304715 116.598906 
L 106.370051 116.309442 
L 106.435387 116.381808 
L 106.500723 115.947611 
L 106.631395 113.052966 
L 106.696731 113.052966 
L 106.827403 112.474036 
L 106.892739 112.474036 
L 107.023411 112.184572 
L 107.088747 112.184572 
L 107.219419 116.743639 
L 107.284755 116.888371 
L 107.350091 127.670926 
L 107.415427 127.309095 
L 107.611435 127.309095 
L 107.676771 126.874898 
L 107.872779 128.032756 
L 107.938115 123.328957 
L 108.003451 126.006504 
L 108.134123 123.47369 
L 108.460803 122.605296 
L 108.656811 112.40167 
L 108.787483 127.309095 
L 108.852819 127.164363 
L 108.983491 128.177488 
L 109.048827 127.888024 
L 109.179499 115.58578 
L 109.244835 115.58578 
L 109.375507 116.671273 
L 109.506179 116.309442 
L 109.636851 116.381808 
L 109.767523 113.125332 
L 109.898195 113.559529 
L 109.963531 111.678009 
L 110.028867 111.750375 
L 110.159539 117.539666 
L 110.224875 115.006851 
L 110.420883 114.645021 
L 110.551555 110.954348 
L 110.616891 124.124985 
L 110.682227 123.83552 
L 110.812899 123.546056 
L 110.943571 121.157973 
L 111.074243 120.506678 
L 111.139579 120.796142 
L 111.204915 117.250202 
L 111.270251 117.394934 
L 111.335587 117.756765 
L 111.466259 115.730513 
L 111.531595 115.730513 
L 111.596931 116.816005 
L 111.727603 114.210824 
L 111.792939 114.210824 
L 111.923611 105.237423 
L 112.054283 105.309789 
L 112.184955 113.993725 
L 112.446299 102.632242 
L 112.576971 101.90858 
L 112.642307 101.90858 
L 112.772979 106.757112 
L 112.838315 106.757112 
L 112.903651 107.263675 
L 113.034323 106.250549 
L 113.164995 106.757112 
L 113.295667 106.540013 
L 113.361003 106.540013 
L 113.426339 106.03345 
L 113.491675 106.467647 
L 113.557011 107.842604 
L 113.622347 105.020324 
L 113.687683 105.237423 
L 113.949027 107.263675 
L 114.014363 110.737249 
L 114.079698 109.145194 
L 114.145034 107.770238 
L 114.275706 109.362293 
L 114.341042 109.362293 
L 114.53705 110.15832 
L 114.602386 110.15832 
L 114.733058 113.631895 
L 114.929066 111.09908 
L 114.994402 111.171446 
L 115.059738 114.717387 
L 115.125074 109.724123 
L 115.255746 116.092343 
L 115.321082 116.888371 
L 115.386418 116.816005 
L 115.451754 116.454174 
L 115.51709 115.22395 
L 115.582426 115.296316 
L 115.647762 115.58578 
L 115.778434 118.552792 
L 115.84377 118.552792 
L 115.974442 118.046229 
L 116.301122 117.973863 
L 116.366458 117.901497 
L 116.49713 113.631895 
L 116.562466 113.704261 
L 116.627802 112.691135 
L 116.758474 114.138458 
L 117.019818 114.28319 
L 117.085154 114.28319 
L 117.15049 114.645021 
L 117.281162 112.40167 
L 117.47717 112.40167 
L 117.607842 112.184572 
L 117.738514 113.270064 
L 117.80385 113.197698 
L 117.999858 105.888718 
L 118.261202 105.888718 
L 118.326538 106.03345 
L 118.45721 105.454521 
L 118.522546 108.2768 
L 118.587882 107.842604 
L 118.718554 104.947958 
L 118.78389 106.829478 
L 118.849226 106.322915 
L 118.914562 106.322915 
L 118.979898 102.270411 
L 119.045234 102.921706 
L 119.11057 102.776974 
L 119.241242 103.066439 
L 119.306578 97.566612 
L 119.371914 101.836214 
L 119.43725 101.329651 
L 119.633258 102.776974 
L 119.76393 102.053313 
L 119.894602 102.125679 
L 119.959938 101.402017 
L 120.025274 101.619116 
L 120.09061 109.289926 
L 120.155946 109.21756 
L 120.221282 109.21756 
L 120.482626 109.796489 
L 120.613298 110.592517 
L 120.678634 110.303052 
L 120.809306 108.2768 
L 120.874642 108.2768 
L 120.939978 108.493899 
L 121.005314 109.362293 
L 121.07065 109.145194 
L 121.135986 109.072828 
L 121.266658 109.507025 
L 121.331994 109.434659 
L 121.528002 112.329304 
L 121.593338 112.329304 
L 121.658674 115.22395 
L 121.854682 110.085954 
L 122.05069 113.052966 
L 122.116026 113.052966 
L 122.181362 113.270064 
L 122.246698 112.618769 
L 122.312034 112.763501 
L 122.442706 112.835867 
L 122.573377 109.072828 
L 122.704049 109.724123 
L 123.030729 109.724123 
L 123.096065 109.434659 
L 123.161401 109.579391 
L 123.226737 109.579391 
L 123.292073 109.434659 
L 123.488081 110.375418 
L 123.553417 110.375418 
L 123.618753 109.21756 
L 123.749425 104.441395 
L 123.880097 118.914623 
L 123.945433 118.842257 
L 124.010769 118.480426 
L 124.076105 116.237076 
L 124.141441 116.743639 
L 124.337449 117.033103 
L 124.402785 116.16471 
L 124.468121 124.848646 
L 124.533457 124.342083 
L 124.664129 124.269717 
L 124.860137 125.499941 
L 124.990809 124.559182 
L 125.121481 113.34243 
L 125.252153 115.730513 
L 125.317489 115.513414 
L 125.513497 121.085607 
L 125.644169 117.973863 
L 125.774841 117.973863 
L 125.840177 109.651757 
L 125.905513 110.664883 
L 125.970849 110.664883 
L 126.101521 110.230686 
L 126.232193 103.138805 
L 126.362865 103.862466 
L 126.493537 107.191308 
L 126.624209 108.493899 
L 126.689545 109.072828 
L 126.754881 112.03984 
L 126.820217 111.09908 
L 126.885553 111.09908 
L 126.950889 110.954348 
L 127.081561 109.21756 
L 127.146897 109.21756 
L 127.212233 106.395281 
L 127.277569 106.467647 
L 127.342905 106.467647 
L 127.473577 105.237423 
L 127.538913 105.237423 
L 127.669585 107.842604 
L 127.734921 107.842604 
L 127.800257 108.2768 
L 127.930929 102.704608 
L 127.996265 106.540013 
L 128.061601 106.467647 
L 128.192273 107.046576 
L 128.257609 107.046576 
L 128.453617 105.67162 
L 128.584289 105.743986 
L 128.780297 91.849687 
L 128.845633 95.250896 
L 128.910969 95.106163 
L 129.041641 95.323262 
L 129.237649 95.395628 
L 129.433657 99.520498 
L 129.564329 96.046923 
L 129.891009 101.257285 
L 129.956345 100.388891 
L 130.087017 107.625505 
L 130.217689 105.599253 
L 130.348361 106.03345 
L 130.479033 106.03345 
L 130.544369 103.573001 
L 130.609705 104.875592 
L 130.740377 104.875592 
L 130.805713 103.138805 
L 130.871049 103.934832 
L 131.00172 104.007198 
L 131.067056 103.645368 
L 131.263064 98.217907 
L 131.3284 98.217907 
L 131.589744 97.204781 
L 131.65508 91.05366 
L 131.720416 91.487856 
L 131.98176 91.560223 
L 132.047096 92.862813 
L 132.112432 96.842951 
L 132.177768 96.698218 
L 132.243104 96.698218 
L 132.30844 96.915317 
L 132.439112 96.625852 
L 132.569784 96.625852 
L 132.700456 96.119289 
L 132.831128 96.191655 
L 132.896464 96.625852 
L 132.9618 99.231033 
L 133.027136 98.579738 
L 133.092472 95.395628 
L 133.157808 95.685092 
L 133.223144 95.757459 
L 133.28848 97.928443 
L 133.353816 97.856077 
L 133.484488 97.856077 
L 133.745832 89.027408 
L 134.007176 89.027408 
L 134.137848 85.626199 
L 134.26852 85.98803 
L 134.333856 85.915664 
L 134.399192 89.17214 
L 134.464528 88.665577 
L 134.529864 88.882675 
L 134.660536 94.527234 
L 134.725872 94.165404 
L 134.791208 94.310136 
L 134.92188 90.47473 
L 134.987216 90.402364 
L 135.052552 95.974557 
L 135.117888 95.250896 
L 135.24856 95.178529 
L 135.379232 89.244506 
L 135.509904 93.079911 
L 135.640576 93.731207 
L 135.771248 93.731207 
L 135.836584 93.369376 
L 135.967256 97.132415 
L 136.032592 97.132415 
L 136.2286 87.073522 
L 136.293936 88.665577 
L 136.55528 109.21756 
L 136.620616 110.085954 
L 136.751288 107.842604 
L 136.816624 107.842604 
L 136.88196 114.645021 
L 136.947296 113.993725 
L 137.012632 113.993725 
L 137.143304 117.973863 
L 137.20864 116.52654 
L 137.273976 116.598906 
L 137.339312 116.598906 
L 137.469984 117.322568 
L 137.53532 117.322568 
L 137.665992 123.690788 
L 137.796664 123.690788 
L 137.862 113.704261 
L 137.927336 114.138458 
L 138.058008 113.125332 
L 138.18868 108.493899 
L 138.254016 108.493899 
L 138.319352 108.349167 
L 138.450024 111.605643 
L 138.51536 111.605643 
L 138.776704 110.447785 
L 138.972712 120.072481 
L 139.038048 119.276453 
L 139.16872 115.730513 
L 139.299392 117.539666 
L 139.430063 117.394934 
L 139.495399 116.888371 
L 139.626071 117.539666 
L 139.756743 117.539666 
L 139.952751 114.862119 
L 140.148759 115.22395 
L 140.214095 115.006851 
L 140.410103 108.638631 
L 140.540775 108.783363 
L 140.671447 108.783363 
L 140.802119 99.882328 
L 140.932791 108.710997 
L 141.128799 99.375765 
L 141.194135 99.375765 
L 141.324807 96.046923 
L 141.520815 95.974557 
L 141.586151 95.974557 
L 141.651487 96.264022 
L 141.782159 94.889065 
L 141.978167 98.145541 
L 142.043503 98.435006 
L 142.239511 101.112553 
L 142.304847 106.467647 
L 142.370183 106.178182 
L 142.500855 106.250549 
L 142.631527 107.770238 
L 142.696863 107.770238 
L 142.762199 106.540013 
L 142.892871 96.915317 
L 142.958207 96.915317 
L 143.219551 87.797183 
L 143.284887 87.507719 
L 143.611567 92.718081 
L 143.676903 91.05366 
L 143.742239 91.270758 
L 143.807575 91.777321 
L 143.938247 91.343124 
L 144.068919 94.5996 
L 144.134255 94.5996 
L 144.330263 86.349861 
L 144.460935 87.29062 
L 144.526271 81.646062 
L 144.591607 83.889412 
L 144.722279 82.080258 
L 144.787615 82.080258 
L 144.852951 81.356597 
L 144.918287 81.501329 
L 145.048959 88.014282 
L 145.179631 87.580085 
L 145.375639 84.613073 
L 145.440975 84.974904 
L 145.506311 84.830172 
L 145.571647 84.757806 
L 145.636983 82.586821 
L 145.702319 84.251243 
L 145.832991 82.297357 
L 145.963663 84.902538 
L 146.028999 85.409101 
L 146.159671 84.395975 
L 146.290343 84.974904 
L 146.421015 77.304093 
L 146.486351 77.304093 
L 146.551687 77.159361 
L 146.617023 77.73829 
L 146.682359 77.376459 
L 146.878367 74.698912 
L 147.009039 76.652798 
L 147.074375 76.79753 
L 147.205047 68.475424 
L 147.270383 68.475424 
L 147.335719 69.12672 
L 147.466391 80.9224 
L 147.531727 80.632936 
L 147.662399 80.850034 
L 147.79307 75.205475 
L 147.858406 75.205475 
L 147.923742 76.869897 
L 148.054414 71.152972 
L 148.250422 84.468341 
L 148.315758 84.251243 
L 148.381094 84.685439 
L 148.511766 75.784404 
L 148.577102 76.79753 
L 148.77311 85.626199 
L 148.903782 83.961778 
L 149.034454 80.271105 
L 149.361134 92.428616 
L 149.42647 91.560223 
L 149.491806 91.777321 
L 149.622478 100.533624 
L 149.75315 100.461258 
L 149.818486 103.717734 
L 149.883822 100.60599 
L 149.949158 90.908927 
L 150.014494 93.007545 
L 150.07983 93.007545 
L 150.145166 97.856077 
L 150.210502 96.553486 
L 150.275838 98.073175 
L 150.341174 97.277147 
L 150.40651 97.277147 
L 150.471846 97.494246 
L 150.73319 106.901844 
L 150.798526 106.901844 
L 150.929198 107.263675 
L 150.994534 104.658494 
L 151.05987 104.947958 
L 151.190542 104.947958 
L 151.255878 103.7901 
L 151.38655 105.454521 
L 151.451886 105.382155 
L 151.582558 102.632242 
L 151.647894 103.355903 
L 151.71323 103.211171 
L 151.843902 100.750722 
L 151.909238 100.678356 
L 152.105246 86.349861 
L 152.235918 91.05366 
L 152.36659 91.126026 
L 152.497262 94.310136 
L 152.627934 94.165404 
L 152.758606 88.014282 
L 152.889278 88.159014 
L 153.01995 87.86955 
L 153.085286 87.86955 
L 153.215958 97.42188 
L 153.34663 97.78371 
L 153.477302 100.533624 
L 153.542638 100.533624 
L 153.607974 101.257285 
L 153.738646 97.42188 
L 153.803982 97.856077 
L 153.869318 93.369376 
L 153.934654 97.277147 
L 154.195998 85.481467 
L 154.261334 85.98803 
L 154.392006 94.816699 
L 154.457342 95.178529 
L 154.522678 96.915317 
L 154.65335 107.046576 
L 154.718686 106.540013 
L 154.784022 107.263675 
L 154.914694 100.027061 
L 155.045366 100.027061 
L 155.110702 100.388891 
L 155.241374 94.527234 
L 155.30671 98.217907 
L 155.372046 97.856077 
L 155.437382 98.073175 
L 155.502718 98.000809 
L 155.568054 98.000809 
L 155.63339 94.671966 
L 155.698726 96.553486 
L 155.764062 96.625852 
L 156.025406 108.204434 
L 156.221413 108.132068 
L 156.352085 106.250549 
L 156.482757 106.178182 
L 156.678765 108.059702 
L 156.809437 98.796836 
L 157.070781 98.72447 
L 157.201453 99.086301 
L 157.332125 103.138805 
L 157.528133 101.329651 
L 157.593469 101.619116 
L 157.724141 99.882328 
L 157.854813 105.599253 
L 157.920149 98.579738 
L 157.985485 98.796836 
L 158.050821 99.013935 
L 158.116157 99.66523 
L 158.181493 105.961084 
L 158.246829 105.454521 
L 158.377501 105.526887 
L 158.442837 105.599253 
L 158.573509 105.020324 
L 158.638845 106.540013 
L 158.704181 106.395281 
L 158.769517 99.086301 
L 158.834853 99.231033 
L 158.900189 98.507372 
L 158.965525 99.520498 
L 159.030861 99.013935 
L 159.096197 99.013935 
L 159.161533 99.448132 
L 159.226869 99.303399 
L 159.292205 99.448132 
L 159.357541 90.908927 
L 159.553549 102.704608 
L 159.618885 104.079564 
L 159.684221 102.270411 
L 159.749557 102.776974 
L 160.010901 103.573001 
L 160.076237 103.283537 
L 160.206909 101.619116 
L 160.402917 101.619116 
L 160.468253 104.875592 
L 160.533589 103.355903 
L 160.729597 102.415143 
L 160.860269 102.415143 
L 160.990941 110.013588 
L 161.121613 110.15832 
L 161.252285 113.776627 
L 161.382957 113.776627 
L 161.513629 114.28319 
L 161.644301 116.671273 
L 161.709637 116.381808 
L 161.905645 117.105469 
L 162.036317 123.546056 
L 162.166989 123.907886 
L 162.232325 122.967127 
L 162.297661 118.263328 
L 162.362997 124.486815 
L 162.493669 117.684398 
L 162.624341 118.480426 
L 162.689677 118.480426 
L 162.755013 109.651757 
L 162.820349 110.447785 
L 162.951021 110.447785 
L 163.081693 98.796836 
L 163.147029 98.796836 
L 163.277701 98.435006 
L 163.343037 98.507372 
L 163.473709 101.040187 
L 163.539045 91.41549 
L 163.604381 93.731207 
L 163.669717 93.731207 
L 163.800389 95.106163 
L 163.865725 95.106163 
L 164.192405 97.277147 
L 164.257741 97.132415 
L 164.388413 100.388891 
L 164.453749 100.316525 
L 164.58442 91.632589 
L 164.649756 91.632589 
L 164.780428 98.217907 
L 165.041772 97.494246 
L 165.172444 95.467994 
L 165.303116 95.395628 
L 165.368452 96.046923 
L 165.433788 97.856077 
L 165.499124 97.494246 
L 165.629796 97.711344 
L 165.89114 97.638978 
L 165.956476 97.856077 
L 166.087148 95.757459 
L 166.152484 95.757459 
L 166.21782 95.323262 
L 166.283156 95.54036 
L 166.348492 95.54036 
L 166.479164 95.757459 
L 166.609836 104.224297 
L 166.805844 104.224297 
L 166.936516 105.09269 
L 167.067188 96.408754 
L 167.132524 96.408754 
L 167.19786 97.928443 
L 167.263196 97.856077 
L 167.328532 97.856077 
L 167.393868 98.217907 
L 167.52454 95.467994 
L 167.589876 95.467994 
L 167.720548 95.612726 
L 167.916556 86.639325 
L 167.981892 86.566959 
L 168.047228 83.455215 
L 168.112564 86.422227 
L 168.1779 85.698565 
L 168.243236 85.770931 
L 168.308572 78.100121 
L 168.373908 80.850034 
L 168.50458 80.9224 
L 168.569916 83.310483 
L 168.635252 83.093384 
L 168.700588 83.093384 
L 168.765924 93.875939 
L 168.83126 93.803573 
L 168.961932 94.23777 
L 169.027268 94.23777 
L 169.092604 94.527234 
L 169.419284 91.704955 
L 169.549956 93.948305 
L 169.615292 91.560223 
L 169.8113 101.836214 
L 169.876636 101.691482 
L 169.941972 101.691482 
L 170.007308 100.388891 
L 170.072644 100.533624 
L 170.13798 100.533624 
L 170.268652 101.980946 
L 170.399324 99.158667 
L 170.46466 99.158667 
L 170.529996 89.751069 
L 170.595332 89.823435 
L 170.79134 89.533971 
L 170.856676 89.533971 
L 170.987348 89.244506 
L 171.11802 89.316872 
L 171.183356 102.921706 
L 171.248692 102.776974 
L 171.314028 103.283537 
L 171.4447 106.540013 
L 171.575372 106.467647 
L 171.640708 106.829478 
L 171.706044 95.106163 
L 171.77138 95.323262 
L 171.967388 95.250896 
L 172.163396 94.165404 
L 172.228732 94.165404 
L 172.294068 96.48112 
L 172.359404 96.408754 
L 172.490076 91.126026 
L 172.620748 90.257632 
L 172.686084 86.205128 
L 172.75142 86.349861 
L 172.882092 86.349861 
L 173.012763 83.74468 
L 173.078099 83.74468 
L 173.143435 81.067133 
L 173.208771 82.080258 
L 173.339443 82.224991 
L 173.404779 83.74468 
L 173.470115 83.382849 
L 173.600787 82.948652 
L 173.666123 82.948652 
L 173.796795 85.843298 
L 173.862131 85.698565 
L 173.992803 85.770931 
L 174.123475 85.119636 
L 174.254147 85.04727 
L 174.580827 84.395975 
L 174.646163 87.652451 
L 174.711499 86.422227 
L 174.842171 86.566959 
L 174.907507 81.646062 
L 174.972843 82.007892 
L 175.168851 82.007892 
L 175.299523 79.257979 
L 175.430195 79.257979 
L 175.495531 79.113247 
L 175.560867 81.067133 
L 175.691539 87.797183 
L 175.756875 83.165751 
L 175.822211 84.685439 
L 175.887547 84.685439 
L 175.952883 85.04727 
L 176.018219 86.856424 
L 176.083555 86.566959 
L 176.148891 86.566959 
L 176.214227 98.000809 
L 176.279563 96.48112 
L 176.344899 90.257632 
L 176.410235 90.547097 
L 176.475571 90.547097 
L 176.606243 94.310136 
L 176.736915 94.23777 
L 176.802251 94.744333 
L 176.998259 86.132762 
L 177.194267 86.132762 
L 177.259603 95.395628 
L 177.324939 91.922053 
L 177.455611 92.573348 
L 177.520947 91.849687 
L 177.586283 94.165404 
L 177.651619 92.718081 
L 177.782291 92.645715 
L 177.912963 93.152278 
L 177.978299 93.007545 
L 178.043635 93.441742 
L 178.174307 84.974904 
L 178.239643 84.468341 
L 178.304979 82.586821 
L 178.435651 84.10651 
L 178.631659 84.178876 
L 178.762331 77.955389 
L 178.827667 78.172487 
L 178.958339 79.185613 
L 179.023675 79.185613 
L 179.154347 84.468341 
L 179.285019 83.961778 
L 179.415691 84.974904 
L 179.546363 91.126026 
L 179.611699 91.05366 
L 179.677035 90.619463 
L 179.807707 87.145888 
L 179.938379 86.784057 
L 180.003715 86.784057 
L 180.069051 86.132762 
L 180.134387 87.797183 
L 180.199723 95.902191 
L 180.265059 95.250896 
L 180.395731 95.467994 
L 180.461067 95.467994 
L 180.591739 101.836214 
L 180.657075 102.053313 
L 180.787747 104.658494 
L 180.918419 101.257285 
L 181.049091 101.257285 
L 181.114427 98.941569 
L 181.245099 106.901844 
L 181.310435 102.632242 
L 181.375771 104.224297 
L 181.441106 104.224297 
L 181.506442 104.441395 
L 181.637114 107.697871 
L 181.833122 94.5996 
L 181.898458 94.5996 
L 181.963794 95.395628 
L 182.02913 95.178529 
L 182.159802 95.54036 
L 182.225138 93.152278 
L 182.290474 93.586474 
L 182.35581 93.224644 
L 182.486482 88.737943 
L 182.551818 89.099774 
L 182.617154 89.099774 
L 182.68249 91.994419 
L 182.747826 91.632589 
L 182.878498 88.303746 
L 182.943834 89.244506 
L 183.074506 92.718081 
L 183.139842 92.645715 
L 183.205178 96.987683 
L 183.270514 89.968168 
L 183.33585 92.428616 
L 183.531858 92.35625 
L 183.597194 92.935179 
L 183.66253 92.862813 
L 183.727866 92.790447 
L 183.858538 95.902191 
L 183.923874 97.349514 
L 183.98921 94.454868 
L 184.054546 95.467994 
L 184.250554 102.994072 
L 184.446562 86.711691 
L 184.577234 86.639325 
L 184.64257 87.218254 
L 184.903914 98.36264 
L 185.034586 98.36264 
L 185.099922 101.980946 
L 185.165258 101.836214 
L 185.426602 101.763848 
L 185.491938 101.184919 
L 185.62261 102.559876 
L 185.753282 102.198045 
L 185.883954 106.395281 
L 185.94929 104.369029 
L 186.014626 104.658494 
L 186.079962 104.658494 
L 186.210634 95.178529 
L 186.341306 92.645715 
L 186.471978 92.645715 
L 186.60265 91.198392 
L 186.798658 91.777321 
L 186.92933 91.777321 
L 187.060002 110.375418 
L 187.386682 109.289926 
L 187.452018 109.145194 
L 187.517354 109.579391 
L 187.58269 109.507025 
L 187.648026 109.507025 
L 187.778698 109.145194 
L 187.90937 105.454521 
L 188.040042 111.388544 
L 188.105378 111.388544 
L 188.23605 110.085954 
L 188.366722 111.171446 
L 188.432058 110.809615 
L 188.497394 109.434659 
L 188.628066 100.388891 
L 188.693402 100.244159 
L 188.824074 97.349514 
L 188.88941 97.42188 
L 188.954746 98.000809 
L 189.020082 95.467994 
L 189.085418 96.119289 
L 189.150754 96.046923 
L 189.21609 96.987683 
L 189.281426 95.033797 
L 189.346762 95.757459 
L 189.412098 95.757459 
L 189.477434 99.448132 
L 189.54277 99.231033 
L 189.738778 97.78371 
L 189.804114 97.78371 
L 189.934785 107.553139 
L 190.000121 107.553139 
L 190.130793 110.230686 
L 190.392137 110.303052 
L 190.522809 110.013588 
L 190.653481 111.678009 
L 190.718817 111.678009 
L 190.784153 111.533277 
L 190.849489 119.855383 
L 190.914825 119.34882 
L 190.980161 119.34882 
L 191.045497 113.414796 
L 191.110833 115.006851 
L 191.241505 118.118595 
L 191.372177 118.118595 
L 191.502849 118.625158 
L 191.568185 118.625158 
L 191.698857 118.842257 
L 191.829529 111.316178 
L 192.090873 111.243812 
L 192.156209 111.533277 
L 192.286881 111.243812 
L 192.417553 109.289926 
L 192.548225 109.289926 
L 192.613561 108.638631 
L 192.678897 113.993725 
L 192.744233 113.848993 
L 192.809569 114.427922 
L 192.874905 118.046229 
L 193.005577 106.684745 
L 193.136249 105.454521 
L 193.201585 105.67162 
L 193.266921 105.67162 
L 193.397593 105.526887 
L 193.593601 105.526887 
L 193.724273 102.921706 
L 193.789609 102.921706 
L 193.920281 118.190961 
L 193.985617 113.197698 
L 194.116289 118.769891 
L 194.246961 120.361946 
L 194.312297 108.204434 
L 194.377633 111.822741 
L 194.508305 112.184572 
L 194.573641 102.125679 
L 194.638977 102.487509 
L 194.769649 101.402017 
L 194.965657 106.03345 
L 195.096329 105.526887 
L 195.357673 100.678356 
L 195.553681 100.60599 
L 195.684353 89.533971 
L 195.749689 89.533971 
L 195.815025 90.185266 
L 195.880361 90.040534 
L 195.945697 93.079911 
L 196.011033 92.790447 
L 196.141705 89.751069 
L 196.207041 89.751069 
L 196.272377 89.895801 
L 196.337713 92.066786 
L 196.468385 84.830172 
L 196.729729 84.830172 
L 196.860401 87.145888 
L 196.925737 87.145888 
L 197.121745 112.329304 
L 197.252417 112.835867 
L 197.383089 112.835867 
L 197.513761 111.967474 
L 197.579097 104.079564 
L 197.644433 104.151931 
L 197.709769 104.151931 
L 197.775105 103.7901 
L 197.840441 104.513761 
L 197.905777 104.224297 
L 198.036449 103.717734 
L 198.101785 103.934832 
L 198.167121 103.645368 
L 198.232457 103.717734 
L 198.363128 103.717734 
L 198.559136 103.066439 
L 198.689808 103.066439 
L 198.951152 103.573001 
L 199.081824 100.895454 
L 199.408504 100.171793 
L 199.539176 100.027061 
L 199.604512 100.027061 
L 199.80052 105.309789 
L 199.931192 102.270411 
L 199.996528 102.270411 
L 200.1272 106.97421 
L 200.257872 106.829478 
L 200.388544 114.934485 
L 200.584552 115.006851 
L 200.649888 117.756765 
L 200.715224 114.789753 
L 200.845896 120.289579 
L 200.911232 112.40167 
L 200.976568 113.487162 
L 201.237912 108.85573 
L 201.43392 99.448132 
L 201.564592 102.994072 
L 201.695264 103.500635 
L 201.7606 103.500635 
L 201.891272 103.283537 
L 201.956608 103.355903 
L 202.217952 95.323262 
L 202.609968 92.935179 
L 202.805976 93.152278 
L 202.936648 86.060396 
L 203.001984 86.060396 
L 203.197992 87.362987 
L 203.263328 86.205128 
L 203.328664 86.349861 
L 203.394 86.856424 
L 203.72068 95.829825 
L 203.786016 95.685092 
L 203.916688 95.467994 
L 203.982024 99.737596 
L 204.04736 94.889065 
L 204.112696 94.961431 
L 204.243368 94.454868 
L 204.308704 94.454868 
L 204.439376 94.020671 
L 204.766056 93.731207 
L 204.896728 96.046923 
L 204.962064 96.046923 
L 205.0274 96.191655 
L 205.158072 100.388891 
L 205.223408 100.388891 
L 205.288744 102.342777 
L 205.35408 101.54675 
L 205.419416 101.54675 
L 205.550088 100.895454 
L 205.68076 98.652104 
L 205.811432 98.652104 
L 205.876768 99.158667 
L 206.00744 96.336388 
L 206.203448 94.816699 
L 206.268784 95.250896 
L 206.399456 99.520498 
L 206.530128 99.448132 
L 206.595464 113.993725 
L 206.6608 108.132068 
L 206.726135 108.132068 
L 206.922143 108.421533 
L 206.987479 106.97421 
L 207.118151 91.560223 
L 207.183487 91.41549 
L 207.510167 104.586127 
L 207.575503 101.619116 
L 207.640839 105.382155 
L 207.706175 105.237423 
L 207.836847 105.237423 
L 207.967519 104.151931 
L 208.032855 104.007198 
L 208.098191 104.513761 
L 208.294199 119.565918 
L 208.555543 119.493552 
L 208.620879 119.131721 
L 209.012895 133.749681 
L 209.143567 132.664189 
L 209.274239 132.664189 
L 209.339575 133.098386 
L 209.470247 132.664189 
L 209.535583 130.565571 
L 209.666255 122.677662 
L 209.731591 122.677662 
L 209.862263 119.927749 
L 209.927599 119.927749 
L 209.992935 120.072481 
L 210.123607 120.506678 
L 210.188943 120.506678 
L 210.254279 119.855383 
L 210.319615 116.52654 
L 210.384951 117.105469 
L 210.515623 116.16471 
L 210.646295 111.895107 
L 210.776967 98.72447 
L 210.907639 98.72447 
L 210.972975 98.869203 
L 211.103647 97.638978 
L 211.168983 97.638978 
L 211.234319 90.764195 
L 211.299655 90.836561 
L 211.430327 90.981293 
L 211.495663 90.981293 
L 211.626335 91.487856 
L 211.757007 85.04727 
L 211.887679 91.560223 
L 211.953015 91.41549 
L 212.018351 91.777321 
L 212.149023 89.678703 
L 212.279695 89.678703 
L 212.475703 90.47473 
L 212.606375 89.751069 
L 212.671711 94.816699 
L 212.737047 94.310136 
L 212.933055 95.54036 
L 213.129063 94.744333 
L 213.259735 94.744333 
L 213.455743 93.224644 
L 213.521079 93.514108 
L 213.651751 95.974557 
L 213.782423 96.046923 
L 213.847759 95.829825 
L 213.913095 95.974557 
L 214.043767 96.915317 
L 214.174439 105.382155 
L 214.305111 104.73086 
L 214.370447 104.875592 
L 214.435783 104.803226 
L 214.566455 104.803226 
L 214.697127 98.869203 
L 214.958471 98.869203 
L 215.089143 98.145541 
L 215.219814 99.013935 
L 215.350486 92.35625 
L 215.481158 98.796836 
L 215.61183 99.013935 
L 215.677166 98.941569 
L 215.807838 98.073175 
L 216.003846 107.118942 
L 216.134518 107.118942 
L 216.26519 106.901844 
L 216.395862 110.592517 
L 216.526534 105.382155 
L 216.657206 112.474036 
L 216.722542 112.474036 
L 216.91855 111.09908 
L 216.983886 110.954348 
L 217.049222 111.171446 
L 217.114558 109.434659 
L 217.179894 110.230686 
L 217.24523 110.085954 
L 217.310566 104.441395 
L 217.375902 105.237423 
L 217.441238 104.73086 
L 217.506574 105.454521 
L 217.702582 112.329304 
L 217.767918 112.184572 
L 217.89859 111.460911 
L 217.963926 111.460911 
L 218.029262 112.03984 
L 218.159934 107.987336 
L 218.22527 107.987336 
L 218.290606 108.421533 
L 218.421278 104.803226 
L 218.486614 105.09269 
L 218.617286 109.796489 
L 218.813294 107.987336 
L 218.87863 109.289926 
L 218.943966 108.638631 
L 219.009302 108.638631 
L 219.139974 109.362293 
L 219.20531 109.362293 
L 219.335982 110.375418 
L 219.401318 110.303052 
L 219.466654 110.303052 
L 219.597326 114.789753 
L 219.727998 114.789753 
L 219.793334 115.441048 
L 219.85867 115.296316 
L 219.989342 110.737249 
L 220.054678 118.263328 
L 220.120014 118.046229 
L 220.18535 118.046229 
L 220.250686 117.901497 
L 220.381358 113.197698 
L 220.446694 113.197698 
L 220.577366 113.559529 
L 220.708038 100.244159 
L 220.773374 101.54675 
L 220.83871 101.474383 
L 220.969382 101.474383 
L 221.034718 101.619116 
L 221.100054 104.441395 
L 221.16539 103.573001 
L 221.296062 100.388891 
L 221.361398 100.388891 
L 221.49207 101.402017 
L 221.557406 100.895454 
L 221.81875 108.783363 
L 221.949422 108.132068 
L 222.080094 102.342777 
L 222.210766 109.941222 
L 222.406774 110.013588 
L 222.668118 110.881981 
L 222.733454 111.09908 
L 222.929462 116.888371 
L 222.994798 116.888371 
L 223.12547 115.441048 
L 223.256142 122.53293 
L 223.321478 122.53293 
L 223.45215 129.045882 
L 223.582821 128.90115 
L 223.778829 127.888024 
L 223.844165 128.394587 
L 224.040173 111.316178 
L 224.236181 116.816005 
L 224.301517 116.52654 
L 224.432189 119.34882 
L 224.562861 119.34882 
L 224.693533 119.565918 
L 224.758869 123.907886 
L 224.954877 116.960737 
L 225.085549 118.480426 
L 225.346893 109.362293 
L 225.412229 109.362293 
L 225.673573 110.375418 
L 225.804245 99.66523 
L 225.869581 107.770238 
L 225.934917 106.97421 
L 226.065589 102.487509 
L 226.196261 105.888718 
L 226.261597 105.888718 
L 226.326933 109.941222 
L 226.392269 109.724123 
L 226.522941 109.724123 
L 226.653613 109.507025 
L 226.784285 114.934485 
L 226.849621 114.934485 
L 226.980293 117.612032 
L 227.176301 117.684398 
L 227.241637 117.901497 
L 227.306973 117.177835 
L 227.372309 117.250202 
L 227.502981 110.447785 
L 227.568317 110.013588 
L 227.633653 110.809615 
L 227.764325 109.724123 
L 227.829661 118.118595 
L 227.894997 117.105469 
L 227.960333 115.079217 
L 228.025669 115.58578 
L 228.156341 103.934832 
L 228.352349 96.046923 
L 228.417685 96.770585 
L 228.548357 97.132415 
L 228.679029 97.060049 
L 228.809701 106.757112 
L 229.071045 95.829825 
L 229.136381 96.119289 
L 229.267053 95.757459 
L 229.463061 95.757459 
L 229.593733 98.073175 
L 229.659069 98.000809 
L 229.724405 98.000809 
L 229.789741 98.435006 
L 229.920413 95.685092 
L 229.985749 95.685092 
L 230.116421 101.54675 
L 230.247093 101.54675 
L 230.312429 101.329651 
L 230.377765 101.691482 
L 230.443101 101.54675 
L 230.704445 109.796489 
L 230.900453 109.724123 
L 231.031125 109.507025 
L 231.096461 109.507025 
L 231.161797 109.868856 
L 231.227133 109.651757 
L 231.292469 109.651757 
L 231.423141 109.434659 
L 231.488477 109.434659 
L 231.619149 106.540013 
L 231.749821 107.191308 
L 231.815157 106.901844 
L 232.011164 102.487509 
L 232.0765 100.171793 
L 232.141836 100.244159 
L 232.272508 103.862466 
L 232.337844 100.967821 
L 232.40318 101.763848 
L 232.468516 101.980946 
L 232.664524 96.625852 
L 232.795196 96.625852 
L 232.860532 92.935179 
L 232.925868 96.336388 
L 232.991204 96.191655 
L 233.121876 96.191655 
L 233.187212 91.270758 
L 233.252548 93.948305 
L 233.38322 94.093037 
L 233.644564 92.428616 
L 233.775236 89.027408 
L 233.840572 89.389238 
L 233.971244 87.507719 
L 234.03658 94.5996 
L 234.101916 93.079911 
L 234.232588 93.152278 
L 234.36326 93.007545 
L 234.624604 93.007545 
L 234.755276 91.849687 
L 234.885948 94.889065 
L 234.951284 94.961431 
L 235.01662 94.889065 
L 235.081956 103.283537 
L 235.147292 103.138805 
L 235.212628 102.994072 
L 235.3433 109.724123 
L 235.408636 107.336041 
L 235.539308 113.559529 
L 235.66998 115.006851 
L 235.800652 114.645021 
L 235.931324 114.789753 
L 236.061996 110.809615 
L 236.192668 110.013588 
L 236.32334 110.954348 
L 236.454012 110.954348 
L 236.519348 117.105469 
L 236.584684 116.52654 
L 236.65002 116.52654 
L 236.846028 127.526193 
L 236.9767 127.453827 
L 237.172708 128.466953 
L 237.434052 123.546056 
L 237.63006 122.171099 
L 237.891404 108.638631 
L 238.022076 113.197698 
L 238.087412 113.414796 
L 238.28342 100.099427 
L 238.414092 100.171793 
L 238.479428 100.388891 
L 238.6101 102.704608 
L 238.675436 102.559876 
L 238.740772 102.559876 
L 238.871444 90.402364 
L 239.002116 90.908927 
L 239.067452 91.05366 
L 239.198124 87.941916 
L 239.26346 87.941916 
L 239.328796 87.652451 
L 239.459468 88.159014 
L 239.655476 88.159014 
L 239.786148 81.935526 
L 239.982156 87.073522 
L 240.047492 74.771278 
L 240.112828 75.133109 
L 240.2435 75.133109 
L 240.374171 74.916011 
L 240.439507 74.916011 
L 240.504843 70.574042 
L 240.700851 83.527581 
L 240.766187 81.139499 
L 240.831523 81.211865 
L 240.962195 84.830172 
L 241.092867 84.540707 
L 241.223539 84.974904 
L 241.354211 76.942263 
L 241.550219 76.942263 
L 241.680891 76.001503 
L 241.811563 71.804267 
L 241.876899 71.804267 
L 242.007571 72.093731 
L 242.072907 72.093731 
L 242.203579 72.527928 
L 242.334251 74.916011 
L 242.595595 72.166098 
L 242.660931 72.31083 
L 242.791603 67.968862 
L 242.922275 72.600294 
L 243.118283 73.034491 
L 243.248955 73.034491 
L 243.379627 64.133456 
L 243.575635 65.436047 
L 243.640971 69.778015 
L 243.706307 69.416184 
L 243.771643 62.903232 
L 243.836979 62.975598 
L 244.163659 63.843992 
L 244.294331 58.271799 
L 244.359667 58.271799 
L 244.490339 59.067827 
L 244.686347 66.666271 
L 244.882355 67.2452 
L 245.013027 66.955736 
L 245.143699 64.422921 
L 245.339707 70.139846 
L 245.470379 70.718775 
L 245.535715 70.356944 
L 245.666387 78.317219 
L 245.731723 78.244853 
L 245.797059 78.389585 
L 245.993067 67.389932 
L 246.123739 73.468688 
L 246.189075 73.323956 
L 246.254411 72.455562 
L 246.319747 72.600294 
L 246.385083 76.363334 
L 246.450419 72.889759 
L 246.515755 73.034491 
L 246.646427 71.37007 
L 246.711763 62.830866 
L 246.777099 63.265063 
L 246.907771 68.041228 
L 247.038443 68.041228 
L 247.103779 68.18596 
L 247.234451 66.811003 
L 247.299787 67.028102 
L 247.365123 69.271452 
L 247.430459 67.534665 
L 247.495795 68.475424 
L 247.561131 68.475424 
L 247.757139 68.113594 
L 247.887811 68.403058 
L 247.953147 68.403058 
L 248.018483 68.258326 
L 248.279827 80.343471 
L 248.410499 71.731901 
L 248.541171 72.817393 
L 248.671843 72.817393 
L 248.737179 75.567306 
L 248.802514 75.205475 
L 248.86785 75.133109 
L 248.933186 75.277841 
L 249.063858 67.896495 
L 249.129194 74.843645 
L 249.259866 67.679397 
L 249.390538 69.995113 
L 249.455874 76.363334 
L 249.52121 75.856771 
L 249.586546 76.218601 
L 249.651882 76.073869 
L 249.717218 74.55418 
L 249.84789 70.42931 
L 249.978562 90.547097 
L 250.239906 90.547097 
L 250.305242 86.711691 
L 250.370578 86.856424 
L 250.50125 92.645715 
L 250.566586 92.645715 
L 250.82793 93.007545 
L 250.893266 85.192002 
L 250.958602 86.494593 
L 251.023938 86.494593 
L 251.089274 86.784057 
L 251.15461 86.639325 
L 251.415954 86.566959 
L 251.611962 84.540707 
L 251.80797 89.461605 
L 252.13465 91.126026 
L 252.199986 90.836561 
L 252.265322 94.5996 
L 252.330658 105.309789 
L 252.395994 105.237423 
L 252.526666 104.079564 
L 252.592002 103.934832 
L 252.853346 104.875592 
L 252.984018 110.592517 
L 253.049354 106.757112 
L 253.310698 118.625158 
L 253.44137 114.717387 
L 253.506706 114.28319 
L 253.637378 115.079217 
L 253.702714 114.862119 
L 253.964058 110.230686 
L 254.09473 108.928096 
L 254.225402 108.928096 
L 254.290738 116.888371 
L 254.356074 116.816005 
L 254.42141 116.743639 
L 254.486746 116.816005 
L 254.552082 108.2768 
L 254.617418 108.349167 
L 254.74809 108.2768 
L 254.813426 100.027061 
L 254.878762 104.586127 
L 254.944098 104.658494 
L 255.07477 106.178182 
L 255.205442 102.704608 
L 255.270778 102.921706 
L 255.40145 102.559876 
L 255.466786 102.559876 
L 255.597458 102.704608 
L 255.662794 102.704608 
L 255.72813 94.889065 
L 255.793466 96.119289 
L 255.924138 94.744333 
L 256.05481 99.013935 
L 256.185482 99.013935 
L 256.316154 98.796836 
L 256.512162 98.796836 
L 256.642834 86.205128 
L 256.773506 84.540707 
L 256.838842 84.685439 
L 256.904178 84.540707 
L 257.230857 62.17957 
L 257.296193 62.541401 
L 257.361529 62.541401 
L 257.492201 76.001503 
L 257.557537 76.4357 
L 257.818881 72.166098 
L 257.884217 72.166098 
L 258.014889 71.225338 
L 258.145561 71.080605 
L 258.210897 71.080605 
L 258.341569 70.935873 
L 258.406905 71.008239 
L 258.537577 71.442436 
L 258.602913 71.442436 
L 258.733585 71.731901 
L 258.929593 70.284578 
L 258.994929 70.284578 
L 259.190937 69.416184 
L 259.256273 69.416184 
L 259.386945 71.731901 
L 259.452281 71.080605 
L 259.648289 64.857118 
L 259.713625 66.014976 
L 259.778961 67.028102 
L 259.844297 63.988724 
L 259.909633 71.804267 
L 259.974969 71.297704 
L 260.040305 71.297704 
L 260.170977 72.527928 
L 260.366985 65.291314 
L 260.432321 65.291314 
L 260.562993 64.133456 
L 260.628329 64.133456 
L 260.693665 61.81774 
L 260.824337 71.442436 
L 260.955009 69.850381 
L 261.085681 72.962125 
L 261.216353 70.646409 
L 261.347025 72.238464 
L 261.412361 71.152972 
L 261.477697 71.37007 
L 261.543033 71.948999 
L 261.608369 71.659535 
L 261.804377 71.37007 
L 261.869713 68.981987 
L 261.935049 72.238464 
L 262.000385 70.284578 
L 262.065721 69.922747 
L 262.196393 66.883369 
L 262.261729 67.534665 
L 262.392401 67.534665 
L 262.523073 67.751763 
L 262.653745 75.49494 
L 262.784417 74.988377 
L 262.849753 74.988377 
L 262.980425 77.955389 
L 263.111097 77.73829 
L 263.307105 83.817046 
L 263.568449 91.343124 
L 263.699121 75.49494 
L 263.764457 75.133109 
L 263.829793 75.277841 
L 263.895129 75.277841 
L 264.025801 75.712038 
L 264.156473 74.55418 
L 264.221809 74.55418 
L 264.287145 77.810656 
L 264.417817 88.737943 
L 264.548489 88.086648 
L 264.679161 88.086648 
L 264.875169 88.737943 
L 264.940505 93.079911 
L 265.071177 87.073522 
L 265.201849 87.145888 
L 265.267185 88.520845 
L 265.332521 88.159014 
L 265.397857 83.599947 
L 265.463193 84.902538 
L 265.593865 85.264369 
L 265.724536 85.119636 
L 265.789872 85.264369 
L 265.855208 85.192002 
L 265.98588 100.60599 
L 266.116552 95.467994 
L 266.181888 95.467994 
L 266.443232 77.159361 
L 266.573904 77.521192 
L 266.63924 78.317219 
L 266.769912 76.725164 
L 266.835248 76.725164 
L 267.031256 65.797877 
L 267.096592 65.870243 
L 267.161928 65.870243 
L 267.357936 71.152972 
L 267.423272 66.811003 
L 267.488608 67.028102 
L 267.61928 67.317566 
L 267.684616 66.883369 
L 267.749952 67.824129 
L 267.815288 67.2452 
L 267.880624 67.317566 
L 267.94596 63.554527 
L 268.076632 76.508066 
L 268.141968 76.508066 
L 268.27264 83.672313 
L 268.337976 83.672313 
L 268.403312 83.817046 
L 268.468648 83.599947 
L 268.59932 90.257632 
L 268.926 90.257632 
L 268.991336 89.968168 
L 269.122008 91.198392 
L 269.25268 82.586821 
L 269.448688 81.573695 
L 269.514024 82.224991 
L 269.57936 82.007892 
L 269.644696 81.284231 
L 269.840704 84.540707 
L 270.036712 84.613073 
L 270.167384 87.580085 
L 270.23272 87.580085 
L 270.298056 88.159014 
L 270.363392 90.47473 
L 270.428728 87.145888 
L 270.494064 89.389238 
L 270.5594 89.751069 
L 270.624736 89.678703 
L 271.016752 87.797183 
L 271.147424 87.941916 
L 271.343432 88.014282 
L 271.408768 88.086648 
L 271.474104 85.192002 
L 271.53944 88.086648 
L 271.604776 86.494593 
L 271.670112 86.422227 
L 271.800784 98.941569 
L 271.86612 98.941569 
L 271.996792 102.632242 
L 272.127464 101.980946 
L 272.258136 101.90858 
L 272.454144 88.810309 
L 272.51948 89.316872 
L 272.584816 92.573348 
L 272.715488 88.810309 
L 272.780824 88.882675 
L 272.911496 93.079911 
L 272.976832 93.152278 
L 273.042168 92.935179 
L 273.107504 93.514108 
L 273.17284 92.935179 
L 273.303512 93.514108 
L 273.368848 90.402364 
L 273.49952 93.514108 
L 273.630192 92.718081 
L 273.695528 95.106163 
L 273.760864 91.849687 
L 273.8262 82.659188 
L 273.891536 83.165751 
L 273.956872 83.165751 
L 274.022208 83.889412 
L 274.218215 76.290967 
L 274.348887 81.211865 
L 274.414223 77.231727 
L 274.479559 77.376459 
L 274.610231 87.941916 
L 274.740903 87.507719 
L 274.871575 87.652451 
L 274.936911 87.652451 
L 275.067583 77.086995 
L 275.132919 78.461952 
L 275.198255 78.461952 
L 275.328927 85.698565 
L 275.394263 85.843298 
L 275.524935 85.698565 
L 275.655607 94.816699 
L 275.786279 94.310136 
L 276.047623 94.310136 
L 276.112959 93.948305 
L 276.243631 94.961431 
L 276.439639 93.875939 
L 276.504975 96.553486 
L 276.570311 96.191655 
L 276.635647 95.829825 
L 276.766319 99.954695 
L 276.831655 100.099427 
L 276.962327 99.448132 
L 277.027663 99.448132 
L 277.158335 98.941569 
L 277.223671 96.698218 
L 277.419679 101.257285 
L 277.550351 101.691482 
L 277.681023 101.691482 
L 277.811695 113.704261 
L 277.942367 112.908233 
L 278.007703 112.908233 
L 278.073039 109.579391 
L 278.138375 110.15832 
L 278.269047 110.15832 
L 278.334383 110.013588 
L 278.399719 110.664883 
L 278.661063 94.165404 
L 278.922407 105.526887 
L 278.987743 102.198045 
L 279.053079 102.632242 
L 279.183751 102.632242 
L 279.445095 129.986642 
L 279.510431 129.986642 
L 279.575767 130.131374 
L 279.641103 130.059008 
L 279.706439 130.059008 
L 279.837111 127.309095 
L 280.033119 126.006504 
L 280.294463 136.789059 
L 280.425135 127.236729 
L 280.490471 127.236729 
L 280.555807 127.091996 
L 280.686479 139.321874 
L 280.751815 139.321874 
L 280.817151 143.446744 
L 280.882487 142.795448 
L 281.013159 142.795448 
L 281.078495 140.769197 
L 281.143831 141.058661 
L 281.209167 141.058661 
L 281.601183 137.367988 
L 281.862527 138.164016 
L 282.058535 142.867815 
L 282.189207 140.986295 
L 282.254543 140.986295 
L 282.450551 139.177141 
L 282.581222 139.177141 
L 282.646558 135.848299 
L 282.711894 135.920665 
L 282.77723 135.920665 
L 282.907902 136.282496 
L 282.973238 134.690441 
L 283.038574 134.907539 
L 283.10391 134.979905 
L 283.169246 139.104775 
L 283.299918 127.526193 
L 283.365254 127.01963 
L 283.43059 119.059355 
L 283.495926 119.276453 
L 283.691934 120.000115 
L 283.822606 119.855383 
L 283.953278 119.855383 
L 284.08395 130.927402 
L 284.149286 132.302358 
L 284.214622 132.08526 
L 284.345294 130.348473 
L 284.541302 130.276106 
L 284.606638 130.637937 
L 284.671974 130.565571 
L 284.73731 130.565571 
L 284.802646 130.927402 
L 284.998654 137.223256 
L 285.129326 132.374724 
L 285.194662 132.374724 
L 285.325334 131.506331 
L 285.39067 132.736555 
L 285.456006 132.229992 
L 285.521342 132.229992 
L 285.586678 132.736555 
L 285.71735 135.920665 
L 285.782686 135.993031 
L 285.913358 133.02602 
L 286.04403 135.052272 
L 286.174702 134.979905 
L 286.37071 136.933791 
L 286.501382 136.427228 
L 286.69739 147.354515 
L 286.762726 144.170405 
L 286.828062 142.795448 
L 286.958734 134.473343 
L 287.02407 134.039146 
L 287.089406 134.183878 
L 287.285414 134.183878 
L 287.481422 133.02602 
L 287.612094 133.170752 
L 287.67743 132.591823 
L 287.808102 124.559182 
L 288.134782 126.585433 
L 288.265454 122.89476 
L 288.33079 124.052619 
L 288.461462 127.815658 
L 288.526798 127.526193 
L 288.65747 128.322221 
L 288.722806 128.322221 
L 288.853478 129.045882 
L 289.114822 128.105122 
L 289.245494 125.934138 
L 289.376166 130.999768 
L 289.441502 128.032756 
L 289.506838 129.552445 
L 289.572174 129.697177 
L 289.63751 135.558835 
L 289.702846 135.486468 
L 289.898854 136.499594 
L 290.225534 136.499594 
L 290.486878 126.874898 
L 290.552214 126.874898 
L 290.682886 123.47369 
L 290.813558 111.895107 
L 290.878894 111.895107 
L 290.944229 112.03984 
L 291.009565 110.881981 
L 291.074901 112.03984 
L 291.205573 122.026367 
L 291.270909 121.375071 
L 291.336245 121.59217 
L 291.532253 127.670926 
L 291.597589 130.855036 
L 291.793597 115.151584 
L 291.858933 115.151584 
L 291.924269 114.789753 
L 291.989605 118.046229 
L 292.054941 116.598906 
L 292.250949 116.52654 
L 292.446957 127.01963 
L 292.512293 126.295969 
L 292.708301 126.295969 
L 292.838973 131.651063 
L 292.969645 131.1445 
L 293.034981 131.1445 
L 293.165653 131.578697 
L 293.296325 124.993378 
L 293.361661 124.993378 
L 293.426997 125.282843 
L 293.492333 125.138111 
L 293.623005 110.447785 
L 293.688341 117.684398 
L 293.753677 117.684398 
L 293.884349 118.190961 
L 294.015021 116.960737 
L 294.080357 116.960737 
L 294.211029 128.539319 
L 294.276365 129.118248 
L 294.341701 128.90115 
L 294.407037 128.684051 
L 294.472373 128.828784 
L 294.537709 129.624811 
L 294.668381 128.756418 
L 294.733717 128.756418 
L 294.799053 128.249855 
L 294.864389 132.519457 
L 294.995061 124.703914 
L 295.060397 125.065745 
L 295.125733 122.967127 
L 295.191069 130.565571 
L 295.256405 128.756418 
L 295.387077 127.743292 
L 295.517749 127.743292 
L 295.648421 128.177488 
L 295.713757 128.177488 
L 295.779093 127.96039 
L 295.844429 128.249855 
L 295.975101 127.743292 
L 296.040437 127.96039 
L 296.105773 127.815658 
L 296.171109 127.815658 
L 296.301781 129.697177 
L 296.432453 129.697177 
L 296.497789 130.348473 
L 296.563125 130.20374 
L 296.693797 130.493205 
L 296.824469 129.697177 
L 297.020477 129.407713 
L 297.085813 126.513067 
L 297.151149 126.6578 
L 297.216485 126.6578 
L 297.347157 126.513067 
L 297.412493 126.874898 
L 297.477829 130.565571 
L 297.543165 130.20374 
L 297.673837 121.157973 
L 297.739173 121.157973 
L 297.804509 121.664536 
L 297.869845 117.829131 
L 297.935181 118.263328 
L 298.000517 118.190961 
L 298.131189 115.079217 
L 298.261861 117.901497 
L 298.392533 117.973863 
L 298.523205 119.638284 
L 298.588541 119.565918 
L 298.719213 124.052619 
L 298.784549 124.631548 
L 298.915221 127.381461 
L 299.111229 126.730166 
L 299.241901 126.730166 
L 299.503244 127.96039 
L 299.89526 115.513414 
L 300.025932 115.875245 
L 300.091268 115.875245 
L 300.352612 119.493552 
L 300.483284 114.934485 
L 300.54862 114.934485 
L 300.809964 116.092343 
L 300.8753 114.934485 
L 300.940636 115.296316 
L 301.005972 115.296316 
L 301.071308 115.441048 
L 301.136644 115.368682 
L 301.267316 115.441048 
L 301.332652 113.34243 
L 301.397988 114.210824 
L 301.52866 113.631895 
L 301.790004 124.848646 
L 301.85534 121.230339 
L 301.986012 124.269717 
L 302.051348 124.486815 
L 302.18202 124.124985 
L 302.247356 124.124985 
L 302.378028 122.243465 
L 302.574036 121.302705 
L 302.639372 121.375071 
L 302.704708 122.460564 
L 302.770044 122.388197 
L 302.83538 122.388197 
L 302.900716 121.809268 
L 303.031388 124.269717 
L 303.096724 124.77628 
L 303.227396 129.335347 
L 303.292732 129.335347 
L 303.358068 132.736555 
L 303.423404 128.177488 
L 303.48874 128.466953 
L 303.554076 128.105122 
L 303.619412 128.177488 
L 303.750084 122.677662 
L 303.81542 122.605296 
L 303.946092 127.01963 
L 304.076764 126.947264 
L 304.1421 128.105122 
L 304.272772 133.02602 
L 304.403444 133.243118 
L 304.46878 133.098386 
L 304.599452 139.032409 
L 304.664788 139.032409 
L 304.730124 138.887677 
L 304.79546 139.177141 
L 304.991468 133.315484 
L 305.187476 134.979905 
L 305.252812 135.414102 
L 305.44882 139.973169 
L 305.514156 139.611338 
L 305.579492 144.098039 
L 305.644828 143.229645 
L 305.7755 143.374378 
L 305.906172 139.466606 
L 305.971508 139.466606 
L 306.036844 138.960043 
L 306.10218 139.249508 
L 306.232852 140.69683 
L 306.298188 140.552098 
L 306.363524 140.407366 
L 306.42886 137.657453 
L 306.494196 138.019283 
L 306.559532 138.019283 
L 306.690204 134.039146 
L 307.016884 133.96678 
L 307.147556 142.071787 
L 307.212892 142.144153 
L 307.278228 137.223256 
L 307.343564 145.472996 
L 307.4089 144.749334 
L 307.539572 144.749334 
L 307.604908 145.472996 
L 307.670244 145.400629 
L 307.73558 145.472996 
L 307.931587 142.57835 
L 307.996923 149.163669 
L 308.127595 131.506331 
L 308.258267 134.690441 
L 308.323603 134.690441 
L 308.454275 135.631201 
L 308.584947 120.723776 
L 308.650283 120.868509 
L 308.715619 120.868509 
L 308.976963 128.90115 
L 309.107635 118.190961 
L 309.172971 118.190961 
L 309.303643 115.441048 
L 309.434315 115.947611 
L 309.499651 115.947611 
L 309.630323 115.58578 
L 309.695659 115.730513 
L 309.760995 123.763154 
L 309.957003 113.414796 
L 310.153011 112.329304 
L 310.349019 112.546403 
L 310.479691 112.546403 
L 310.610363 114.789753 
L 310.741035 112.691135 
L 310.871707 112.474036 
L 311.002379 115.875245 
L 311.067715 116.16471 
L 311.198387 114.789753 
L 311.329059 115.296316 
L 311.655739 104.513761 
L 311.786411 107.408407 
L 311.917083 107.191308 
L 312.047755 107.191308 
L 312.113091 106.97421 
L 312.243763 107.553139 
L 312.309099 107.118942 
L 312.374435 107.408407 
L 312.505107 105.09269 
L 312.766451 115.658147 
L 312.897123 100.027061 
L 313.093131 100.099427 
L 313.223803 99.303399 
L 313.419811 99.231033 
L 313.485147 93.948305 
L 313.550483 94.744333 
L 313.615819 96.553486 
L 313.681155 96.264022 
L 313.746491 96.336388 
L 313.811827 96.264022 
L 313.877163 96.191655 
L 314.203843 102.270411 
L 314.334515 99.520498 
L 314.399851 99.448132 
L 314.465187 118.118595 
L 314.530523 118.046229 
L 314.595859 118.046229 
L 314.726531 116.743639 
L 314.791867 116.888371 
L 314.922539 116.52654 
L 315.053211 123.907886 
L 315.183883 123.256591 
L 315.314555 123.256591 
L 315.445227 122.243465 
L 315.510563 122.388197 
L 315.641235 114.138458 
L 315.706571 114.138458 
L 315.967915 99.086301 
L 316.033251 101.402017 
L 316.163923 101.402017 
L 316.294594 100.823088 
L 316.35993 100.823088 
L 316.490602 100.967821 
L 316.621274 99.592864 
L 316.68661 101.112553 
L 316.751946 100.461258 
L 316.882618 100.895454 
L 316.947954 100.895454 
L 317.01329 96.625852 
L 317.078626 97.566612 
L 317.143962 97.78371 
L 317.274634 93.369376 
L 317.405306 97.638978 
L 317.470642 97.638978 
L 317.535978 98.217907 
L 317.601314 94.816699 
L 317.66665 95.106163 
L 317.797322 93.948305 
L 317.927994 94.527234 
L 317.99333 94.527234 
L 318.189338 95.685092 
L 318.385346 96.336388 
L 318.516018 100.678356 
L 318.64669 101.329651 
L 318.777362 100.171793 
L 318.842698 100.171793 
L 318.908034 100.388891 
L 318.97337 100.171793 
L 319.038706 100.750722 
L 319.169378 104.441395 
L 319.30005 98.000809 
L 319.430722 98.000809 
L 319.496058 101.691482 
L 319.561394 101.329651 
L 319.822738 101.329651 
L 320.084082 102.559876 
L 320.214754 102.125679 
L 320.345426 102.559876 
L 320.476098 102.198045 
L 320.60677 102.704608 
L 320.737442 88.665577 
L 320.802778 90.764195 
L 320.93345 90.619463 
L 320.998786 90.619463 
L 321.129458 85.915664 
L 321.194794 85.915664 
L 321.325466 91.270758 
L 321.390802 91.922053 
L 321.456138 90.47473 
L 321.521474 91.198392 
L 321.58681 91.41549 
L 321.717482 90.908927 
L 321.848154 90.908927 
L 322.044162 90.257632 
L 322.109498 93.369376 
L 322.174834 93.224644 
L 322.436178 93.152278 
L 322.56685 92.645715 
L 322.632186 92.645715 
L 322.762858 89.606337 
L 322.89353 88.955042 
L 322.958866 89.606337 
L 323.024202 87.362987 
L 323.089538 87.652451 
L 323.22021 87.362987 
L 323.350882 91.777321 
L 323.481554 101.402017 
L 323.677562 101.402017 
L 323.742898 100.823088 
L 323.938906 106.250549 
L 324.004242 106.178182 
L 324.069578 106.03345 
L 324.20025 105.020324 
L 324.330922 105.382155 
L 324.396258 105.309789 
L 324.52693 105.526887 
L 324.592266 105.020324 
L 324.657601 105.382155 
L 324.788273 105.382155 
L 324.853609 105.816352 
L 324.918945 108.638631 
L 325.049617 105.165057 
L 325.180289 108.421533 
L 325.245625 108.421533 
L 325.310961 108.928096 
L 325.376297 105.888718 
L 325.441633 106.178182 
L 325.506969 105.599253 
L 325.637641 115.22395 
L 325.833649 114.862119 
L 326.094993 102.632242 
L 326.291001 102.415143 
L 326.487009 102.415143 
L 326.683017 97.566612 
L 326.813689 97.566612 
L 326.879025 96.842951 
L 327.009697 98.073175 
L 327.075033 92.790447 
L 327.140369 92.862813 
L 327.205705 92.428616 
L 327.336377 89.533971 
L 327.401713 89.968168 
L 327.532385 89.606337 
L 327.663057 89.678703 
L 327.728393 88.665577 
L 327.859065 89.606337 
L 327.924401 89.823435 
L 328.055073 85.481467 
L 328.120409 85.698565 
L 328.185745 85.553833 
L 328.316417 85.553833 
L 328.381753 85.915664 
L 328.447089 91.126026 
L 328.577761 79.909274 
L 328.773769 97.78371 
L 328.839105 93.586474 
L 328.904441 91.994419 
L 329.035113 101.54675 
L 329.165785 100.895454 
L 329.231121 100.895454 
L 329.296457 101.402017 
L 329.427129 109.145194 
L 329.492465 109.145194 
L 329.623137 109.507025 
L 329.688473 112.980599 
L 329.753809 111.895107 
L 329.819145 103.066439 
L 329.884481 103.211171 
L 330.015153 103.211171 
L 330.211161 97.204781 
L 330.341833 88.520845 
L 330.407169 91.41549 
L 330.537841 91.41549 
L 330.603177 90.547097 
L 330.799185 94.527234 
L 330.929857 100.099427 
L 330.995193 100.099427 
L 331.191201 100.967821 
L 331.256537 100.678356 
L 331.321873 100.823088 
L 331.517881 97.277147 
L 331.779225 91.343124 
L 331.844561 91.487856 
L 331.909897 91.487856 
L 331.975233 91.704955 
L 332.040569 103.934832 
L 332.105905 98.869203 
L 332.171241 98.869203 
L 332.236577 106.684745 
L 332.301913 106.322915 
L 332.432585 105.816352 
L 332.628593 98.36264 
L 332.759265 98.36264 
L 332.889937 93.369376 
L 333.020608 93.369376 
L 333.15128 85.98803 
L 333.216616 86.566959 
L 333.281952 86.566959 
L 333.412624 88.303746 
L 333.543296 82.948652 
L 333.608632 82.731554 
L 333.673968 83.021018 
L 333.80464 90.47473 
L 333.935312 81.356597 
L 334.13132 89.823435 
L 334.261992 89.823435 
L 334.392664 90.619463 
L 334.523336 90.257632 
L 334.654008 90.402364 
L 334.719344 90.402364 
L 334.78468 95.178529 
L 334.850016 94.093037 
L 334.915352 94.020671 
L 334.980688 94.382502 
L 335.046024 93.948305 
L 335.11136 92.500982 
L 335.242032 96.264022 
L 335.307368 94.093037 
L 335.372704 86.132762 
L 335.43804 86.205128 
L 335.568712 85.264369 
L 335.634048 85.626199 
L 335.699384 83.382849 
L 335.76472 84.178876 
L 335.895392 83.382849 
L 336.026064 83.382849 
L 336.156736 80.56057 
L 336.287408 80.488203 
L 336.352744 79.330345 
L 336.41808 79.547444 
L 336.483416 79.185613 
L 336.614088 84.034144 
L 336.679424 82.297357 
L 336.74476 82.731554 
L 336.810096 82.224991 
L 336.940768 76.580432 
L 337.006104 76.218601 
L 337.07144 81.067133 
L 337.136776 80.56057 
L 337.202112 82.007892 
L 337.332784 80.054007 
L 337.463456 81.356597 
L 337.790136 90.691829 
L 337.855472 90.691829 
L 338.05148 89.389238 
L 338.116816 82.152625 
L 338.182152 82.876286 
L 338.247488 82.876286 
L 338.37816 83.238117 
L 338.443496 83.093384 
L 338.508832 83.165751 
L 338.574168 84.902538 
L 338.639504 84.685439 
L 338.770176 85.336735 
L 338.900848 82.731554 
L 339.03152 84.034144 
L 339.096856 84.034144 
L 339.162192 81.573695 
L 339.227528 84.251243 
L 339.423536 76.652798 
L 339.554208 77.665924 
L 339.750216 88.520845 
L 339.880888 88.448479 
L 339.946224 90.547097 
L 340.01156 90.47473 
L 340.142232 90.47473 
L 340.272904 89.823435 
L 340.33824 89.823435 
L 340.403576 89.244506 
L 340.468912 89.389238 
L 340.599584 97.349514 
L 340.795592 91.487856 
L 340.9916 96.119289 
L 341.122272 96.119289 
L 341.252944 98.869203 
L 341.31828 98.869203 
L 341.448951 99.231033 
L 341.514287 95.902191 
L 341.579623 96.336388 
L 341.710295 101.980946 
L 341.775631 101.980946 
L 341.906303 101.836214 
L 341.971639 102.053313 
L 342.102311 101.474383 
L 342.167647 101.980946 
L 342.298319 96.336388 
L 342.428991 96.119289 
L 342.494327 96.48112 
L 342.624999 101.54675 
L 342.690335 101.836214 
L 342.951679 117.105469 
L 343.147687 117.394934 
L 343.278359 112.256938 
L 343.409031 117.033103 
L 343.474367 116.743639 
L 343.539703 115.58578 
L 343.605039 109.724123 
L 343.670375 112.474036 
L 343.735711 112.40167 
L 343.801047 112.03984 
L 343.931719 109.434659 
L 343.997055 109.434659 
L 344.127727 102.994072 
L 344.193063 103.355903 
L 344.389071 89.461605 
L 344.519743 87.145888 
L 344.585079 88.159014 
L 344.650415 88.086648 
L 344.781087 93.875939 
L 344.911759 91.198392 
L 344.977095 91.198392 
L 345.107767 83.672313 
L 345.173103 83.672313 
L 345.303775 83.310483 
L 345.369111 95.033797 
L 345.434447 92.718081 
L 345.499783 94.744333 
L 345.565119 94.454868 
L 345.630455 94.454868 
L 345.695791 98.869203 
L 345.761127 98.652104 
L 345.891799 97.638978 
L 346.022471 98.073175 
L 346.153143 92.428616 
L 346.283815 92.35625 
L 346.414487 92.500982 
L 346.545159 92.211518 
L 346.610495 87.362987 
L 346.675831 87.435353 
L 346.806503 87.797183 
L 346.871839 87.797183 
L 346.937175 79.98164 
L 347.002511 80.054007 
L 347.067847 80.054007 
L 347.133183 68.692523 
L 347.198519 71.587168 
L 347.263855 71.587168 
L 347.590535 67.679397 
L 347.721207 65.580779 
L 347.786543 65.580779 
L 347.851879 78.244853 
L 347.917215 77.448826 
L 348.113223 77.521192 
L 348.243895 77.521192 
L 348.309231 71.080605 
L 348.374567 71.514802 
L 348.439903 71.514802 
L 348.505239 71.37007 
L 348.701247 82.586821 
L 348.766583 82.659188 
L 348.831919 82.586821 
L 348.897255 82.586821 
L 349.093263 78.751416 
L 349.223935 79.764542 
L 349.419943 82.007892 
L 349.550615 82.007892 
L 349.681287 78.389585 
L 349.746623 78.100121 
L 349.811959 78.389585 
L 349.877294 78.172487 
L 350.007966 78.606684 
L 350.138638 78.606684 
L 350.399982 86.060396 
L 350.530654 86.060396 
L 350.59599 85.843298 
L 350.661326 86.205128 
L 350.988006 64.784751 
L 351.24935 74.119983 
L 351.380022 74.119983 
L 351.445358 74.264716 
L 351.706702 71.080605 
L 351.837374 67.317566 
L 351.90271 67.317566 
L 352.098718 66.811003 
L 352.22939 69.995113 
L 352.294726 69.48855 
L 352.490734 71.152972 
L 352.686742 81.211865 
L 352.752078 81.211865 
L 353.013422 78.606684 
L 353.144094 78.606684 
L 353.20943 77.376459 
L 353.340102 83.382849 
L 353.405438 82.224991 
L 353.53611 82.152625 
L 353.601446 82.080258 
L 353.732118 81.573695 
L 353.797454 81.573695 
L 353.928126 84.395975 
L 354.124134 76.218601 
L 354.18947 73.61342 
L 354.254806 75.784404 
L 354.320142 75.205475 
L 354.385478 75.422574 
L 354.51615 80.994766 
L 354.581486 81.501329 
L 354.646822 81.284231 
L 354.777494 84.468341 
L 354.908166 75.712038 
L 354.973502 76.001503 
L 355.16951 75.784404 
L 355.430854 76.001503 
L 355.561526 76.580432 
L 355.692198 74.843645 
L 355.82287 68.18596 
L 355.953542 67.824129 
L 356.084214 71.37007 
L 356.214886 68.258326 
L 356.280222 68.258326 
L 356.410894 68.981987 
L 356.672238 68.981987 
L 356.868246 68.330692 
L 356.933582 68.330692 
L 357.194926 68.909621 
L 357.260262 68.475424 
L 357.390934 77.521192 
L 357.586942 76.363334 
L 357.652278 76.508066 
L 357.717614 76.290967 
L 357.78295 77.086995 
L 357.978958 84.178876 
L 358.240302 83.238117 
L 358.305637 83.238117 
L 358.436309 82.224991 
L 358.501645 83.599947 
L 358.566981 88.448479 
L 358.632317 88.303746 
L 358.762989 86.639325 
L 359.024333 87.580085 
L 359.220341 89.533971 
L 359.285677 89.461605 
L 359.351013 89.461605 
L 359.416349 88.014282 
L 359.481685 88.737943 
L 359.612357 88.955042 
L 359.677693 97.856077 
L 359.743029 97.78371 
L 359.808365 97.711344 
L 359.939037 99.882328 
L 360.004373 99.737596 
L 360.135045 99.882328 
L 360.265717 99.882328 
L 360.396389 100.750722 
L 360.527061 87.724817 
L 360.592397 88.159014 
L 360.657733 87.941916 
L 360.788405 87.86955 
L 360.853741 88.159014 
L 361.049749 80.56057 
L 361.115085 80.415837 
L 361.180421 79.836908 
L 361.245757 86.639325 
L 361.311093 86.277494 
L 361.507101 87.073522 
L 361.637773 87.073522 
L 361.703109 91.632589 
L 361.768445 88.955042 
L 361.899117 87.001156 
L 362.095125 99.013935 
L 362.160461 98.869203 
L 362.356469 98.217907 
L 362.421805 98.435006 
L 362.487141 98.435006 
L 362.748485 95.106163 
L 362.879157 95.323262 
L 363.009829 95.323262 
L 363.140501 95.106163 
L 363.271173 95.323262 
L 363.336509 96.119289 
L 363.467181 107.118942 
L 363.663189 106.829478 
L 363.793861 106.105816 
L 364.120541 107.263675 
L 364.185877 106.395281 
L 364.251213 107.191308 
L 364.316549 106.757112 
L 364.447221 107.336041 
L 364.512557 110.303052 
L 364.577893 110.230686 
L 364.643229 110.303052 
L 364.773901 109.724123 
L 364.969909 101.763848 
L 365.035245 98.72447 
L 365.100581 101.619116 
L 365.165917 101.257285 
L 365.231253 99.448132 
L 365.296589 99.520498 
L 365.492597 101.184919 
L 365.557933 101.112553 
L 365.623269 106.03345 
L 365.753941 101.54675 
L 365.819277 101.54675 
L 365.949949 90.329998 
L 366.015285 93.875939 
L 366.145957 93.875939 
L 366.276629 94.382502 
L 366.341965 94.454868 
L 366.472637 94.744333 
L 366.603309 94.744333 
L 366.73398 91.41549 
L 366.864652 91.849687 
L 366.929988 91.849687 
L 366.995324 91.126026 
L 367.06066 91.270758 
L 367.191332 91.270758 
L 367.256668 91.704955 
L 367.583348 84.395975 
L 367.71402 89.823435 
L 367.779356 90.329998 
L 367.844692 89.823435 
L 368.0407 84.540707 
L 368.106036 84.468341 
L 368.171372 84.830172 
L 368.236708 84.468341 
L 368.302044 84.540707 
L 368.36738 84.468341 
L 368.432716 84.974904 
L 368.563388 87.652451 
L 368.628724 83.165751 
L 368.69406 84.034144 
L 368.759396 84.034144 
L 368.890068 74.843645 
L 368.955404 74.55418 
L 369.086076 76.580432 
L 369.151412 74.916011 
L 369.34742 87.580085 
L 369.412756 87.507719 
L 369.543428 84.395975 
L 369.804772 73.323956 
L 369.870108 73.323956 
L 369.935444 71.297704 
L 370.00078 74.119983 
L 370.066116 73.902885 
L 370.131452 73.902885 
L 370.32746 75.784404 
L 370.458132 76.001503 
L 370.719476 83.238117 
L 370.850148 80.705302 
L 370.98082 80.705302 
L 371.111492 80.126373 
L 371.176828 83.238117 
L 371.242164 82.948652 
L 371.438172 78.317219 
L 371.503508 78.317219 
L 371.568844 77.304093 
L 371.63418 78.606684 
L 371.699516 74.264716 
L 371.764852 74.771278 
L 371.895524 74.698912 
L 372.026196 79.764542 
L 372.091532 80.054007 
L 372.222204 81.428963 
L 372.483548 81.428963 
L 372.548884 81.573695 
L 372.61422 81.501329 
L 372.679556 81.501329 
L 372.744892 80.850034 
L 372.810228 80.9224 
L 372.875564 77.304093 
L 372.9409 79.257979 
L 373.006236 79.257979 
L 373.136908 58.923094 
L 373.202244 63.771625 
L 373.463588 63.843992 
L 373.528924 64.133456 
L 373.59426 58.63363 
L 373.855604 74.481814 
L 373.92094 71.514802 
L 373.986276 77.376459 
L 374.051612 77.014629 
L 374.116948 76.508066 
L 374.312956 62.396669 
L 374.443628 66.376806 
L 374.508964 66.811003 
L 374.704972 65.725511 
L 374.835644 68.258326 
L 374.966316 67.968862 
L 375.031652 67.968862 
L 375.096988 72.817393 
L 375.162323 71.948999 
L 375.292995 72.67266 
L 375.358331 72.67266 
L 375.489003 78.461952 
L 375.554339 78.461952 
L 375.685011 79.98164 
L 375.750347 77.014629 
L 375.815683 77.159361 
L 375.881019 77.159361 
L 376.011691 80.994766 
L 376.077027 77.304093 
L 376.142363 82.948652 
L 376.207699 82.224991 
L 376.273035 82.297357 
L 376.403707 91.41549 
L 376.534379 91.41549 
L 376.665051 83.672313 
L 376.730387 83.599947 
L 376.861059 72.962125 
L 376.926395 73.034491 
L 376.991731 72.889759 
L 377.122403 71.152972 
L 377.187739 71.442436 
L 377.383747 80.054007 
L 377.449083 78.968515 
L 377.579755 82.080258 
L 377.775763 82.152625 
L 377.906435 81.935526 
L 377.971771 81.935526 
L 378.102443 87.652451 
L 378.233115 87.435353 
L 378.363787 92.862813 
L 378.429123 92.862813 
L 378.625131 80.632936 
L 378.690467 80.705302 
L 378.821139 80.415837 
L 378.886475 81.501329 
L 379.082483 89.606337 
L 379.147819 82.948652 
L 379.213155 83.093384 
L 379.409163 77.159361 
L 379.539835 72.745027 
L 379.670507 73.61342 
L 379.801179 72.962125 
L 379.866515 73.034491 
L 379.931851 72.962125 
L 380.193195 80.994766 
L 380.258531 79.330345 
L 380.323867 79.330345 
L 380.519875 85.481467 
L 380.650547 85.481467 
L 380.715883 85.843298 
L 380.846555 89.099774 
L 380.911891 89.027408 
L 380.977227 89.099774 
L 381.107899 88.955042 
L 381.238571 86.711691 
L 381.369243 92.428616 
L 381.499915 91.560223 
L 381.630587 95.974557 
L 381.695923 96.119289 
L 381.891931 95.757459 
L 381.957267 102.270411 
L 382.022603 102.053313 
L 382.153275 102.704608 
L 382.283947 102.704608 
L 382.414619 102.198045 
L 382.479955 107.191308 
L 382.545291 106.250549 
L 382.741299 107.408407 
L 382.871971 101.90858 
L 383.002643 101.980946 
L 383.067979 100.316525 
L 383.198651 110.303052 
L 383.263987 109.651757 
L 383.459995 109.651757 
L 383.590666 109.289926 
L 383.721338 109.289926 
L 383.786674 113.631895 
L 383.85201 108.204434 
L 383.917346 109.434659 
L 384.17869 109.434659 
L 384.309362 109.651757 
L 384.374698 108.566265 
L 384.50537 98.941569 
L 384.636042 98.941569 
L 384.701378 98.507372 
L 384.766714 94.744333 
L 384.83205 96.698218 
L 385.028058 89.678703 
L 385.093394 90.1129 
L 385.15873 90.040534 
L 385.289402 96.264022 
L 385.354738 96.046923 
L 385.420074 92.35625 
L 385.550746 96.264022 
L 385.616082 96.264022 
L 385.681418 84.613073 
L 385.746754 87.435353 
L 385.877426 81.284231 
L 386.008098 89.461605 
L 386.13877 89.461605 
L 386.204106 92.862813 
L 386.269442 92.645715 
L 386.46545 72.67266 
L 386.530786 73.685786 
L 386.596122 73.61342 
L 386.661458 71.225338 
L 386.726794 71.37007 
L 386.922802 71.37007 
L 387.053474 77.665924 
L 387.11881 77.665924 
L 387.184146 78.172487 
L 387.249482 77.810656 
L 387.44549 70.06748 
L 387.510826 74.55418 
L 387.576162 73.975251 
L 387.706834 70.356944 
L 387.837506 78.100121 
L 387.968178 75.856771 
L 388.033514 77.665924 
L 388.09885 77.448826 
L 388.229522 77.448826 
L 388.490866 76.942263 
L 388.556202 77.448826 
L 388.686874 76.942263 
L 388.817546 72.962125 
L 388.882882 72.962125 
L 388.948218 76.290967 
L 389.013554 75.929137 
L 389.07889 76.001503 
L 389.209562 81.356597 
L 389.340234 81.356597 
L 389.470906 77.159361 
L 389.536242 76.869897 
L 389.666914 78.100121 
L 389.928258 66.449173 
L 390.05893 66.593905 
L 390.189602 72.962125 
L 390.254938 73.323956 
L 390.320274 73.25159 
L 390.516282 72.455562 
L 390.581618 72.455562 
L 390.973634 61.745374 
L 391.169642 62.324303 
L 391.234978 64.857118 
L 391.300314 64.784751 
L 391.496322 63.916358 
L 391.626994 63.916358 
L 391.757666 63.409795 
L 391.823002 66.666271 
L 391.888338 66.593905 
L 392.084345 65.580779 
L 392.149681 65.580779 
L 392.280353 57.548138 
L 392.345689 57.837602 
L 392.411025 57.837602 
L 392.541697 54.87059 
L 392.607033 54.725858 
L 392.672369 55.015323 
L 392.803041 53.568 
L 392.868377 55.160055 
L 392.933713 67.317566 
L 392.999049 66.811003 
L 393.195057 58.488897 
L 393.260393 61.311177 
L 393.325729 61.311177 
L 393.521737 59.791488 
L 393.587073 67.028102 
L 393.652409 66.593905 
L 393.717745 65.797877 
L 393.783081 65.870243 
L 393.848417 66.232074 
L 393.913753 62.7585 
L 394.044425 76.001503 
L 394.109761 74.988377 
L 394.240433 81.790794 
L 394.371105 81.428963 
L 394.436441 75.422574 
L 394.501777 75.856771 
L 394.567113 74.337082 
L 394.632449 63.192696 
L 394.697785 69.12672 
L 394.828457 69.12672 
L 394.893793 66.883369 
L 395.089801 77.521192 
L 395.220473 76.218601 
L 395.285809 69.054354 
L 395.351145 72.67266 
L 395.416481 72.67266 
L 395.677825 77.73829 
L 395.743161 69.271452 
L 395.873833 78.027755 
L 396.004505 78.606684 
L 396.135177 78.751416 
L 396.265849 78.461952 
L 396.331185 76.942263 
L 396.396521 77.521192 
L 396.461857 77.521192 
L 396.527193 77.231727 
L 396.592529 77.448826 
L 396.723201 69.343818 
L 396.853873 76.073869 
L 396.984545 76.073869 
L 397.115217 76.290967 
L 397.180553 76.290967 
L 397.245889 76.652798 
L 397.376561 75.639672 
L 397.507233 76.942263 
L 397.572569 76.942263 
L 397.703241 77.304093 
L 397.833913 76.942263 
L 397.964585 76.869897 
L 398.095257 79.98164 
L 398.160593 79.61981 
L 398.225929 76.942263 
L 398.291265 77.014629 
L 398.356601 77.376459 
L 398.421937 77.159361 
L 398.487273 77.376459 
L 398.487273 77.376459 
" clip-path="url(#pbf671e5894)" style="fill: none; stroke: #1f77b4; stroke-width: 1.5; stroke-linecap: square"/>
   </g>
   <g id="patch_3">
    <path d="M 57.6 307.584 
L 57.6 41.472 
" style="fill: none; stroke: #000000; stroke-width: 0.8; stroke-linejoin: miter; stroke-linecap: square"/>
   </g>
   <g id="patch_4">
    <path d="M 414.72 307.584 
L 414.72 41.472 
" style="fill: none; stroke: #000000; stroke-width: 0.8; stroke-linejoin: miter; stroke-linecap: square"/>
   </g>
   <g id="patch_5">
    <path d="M 57.6 307.584 
L 414.72 307.584 
" style="fill: none; stroke: #000000; stroke-width: 0.8; stroke-linejoin: miter; stroke-linecap: square"/>
   </g>
   <g id="patch_6">
    <path d="M 57.6 41.472 
L 414.72 41.472 
" style="fill: none; stroke: #000000; stroke-width: 0.8; stroke-linejoin: miter; stroke-linecap: square"/>
   </g>
   <g id="text_16">
    <!-- comp03 -->
    <g transform="translate(211.90125 35.472) scale(0.12 -0.12)">
     <defs>
      <path id="DejaVuSans-63" d="M 3122 3366 
L 3122 2828 
Q 2878 2963 2633 3030 
Q 2388 3097 2138 3097 
Q 1578 3097 1268 2742 
Q 959 2388 959 1747 
Q 959 1106 1268 751 
Q 1578 397 2138 397 
Q 2388 397 2633 464 
Q 2878 531 3122 666 
L 3122 134 
Q 2881 22 2623 -34 
Q 2366 -91 2075 -91 
Q 1284 -91 818 406 
Q 353 903 353 1747 
Q 353 2603 823 3093 
Q 1294 3584 2113 3584 
Q 2378 3584 2631 3529 
Q 2884 3475 3122 3366 
z
" transform="scale(0.015625)"/>
      <path id="DejaVuSans-70" d="M 1159 525 
L 1159 -1331 
L 581 -1331 
L 581 3500 
L 1159 3500 
L 1159 2969 
Q 1341 3281 1617 3432 
Q 1894 3584 2278 3584 
Q 2916 3584 3314 3078 
Q 3713 2572 3713 1747 
Q 3713 922 3314 415 
Q 2916 -91 2278 -91 
Q 1894 -91 1617 61 
Q 1341 213 1159 525 
z
M 3116 1747 
Q 3116 2381 2855 2742 
Q 2594 3103 2138 3103 
Q 1681 3103 1420 2742 
Q 1159 2381 1159 1747 
Q 1159 1113 1420 752 
Q 1681 391 2138 391 
Q 2594 391 2855 752 
Q 3116 1113 3116 1747 
z
" transform="scale(0.015625)"/>
     </defs>
     <use xlink:href="#DejaVuSans-63"/>
     <use xlink:href="#DejaVuSans-6f" x="54.980469"/>
     <use xlink:href="#DejaVuSans-6d" x="116.162109"/>
     <use xlink:href="#DejaVuSans-70" x="213.574219"/>
     <use xlink:href="#DejaVuSans-30" x="277.050781"/>
     <use xlink:href="#DejaVuSans-33" x="340.673828"/>
    </g>
   </g>
  </g>
 </g>
 <defs>
  <clipPath id="pbf671e5894">
   <rect x="57.6" y="41.472" width="357.12" height="266.112"/>
  </clipPath>
 </defs>
</svg>
