<?xml version="1.0" encoding="utf-8" standalone="no"?>
<!DOCTYPE svg PUBLIC "-//W3C//DTD SVG 1.1//EN"
  "http://www.w3.org/Graphics/SVG/1.1/DTD/svg11.dtd">
<svg xmlns:xlink="http://www.w3.org/1999/xlink" width="460.8pt" height="345.6pt" viewBox="0 0 460.8 345.6" xmlns="http://www.w3.org/2000/svg" version="1.1">
 <metadata>
  <rdf:RDF xmlns:dc="http://purl.org/dc/elements/1.1/" xmlns:cc="http://creativecommons.org/ns#" xmlns:rdf="http://www.w3.org/1999/02/22-rdf-syntax-ns#">
   <cc:Work>
    <dc:type rdf:resource="http://purl.org/dc/dcmitype/StillImage"/>
    <dc:date>2023-12-03T18:15:54.511303</dc:date>
    <dc:format>image/svg+xml</dc:format>
    <dc:creator>
     <cc:Agent>
      <dc:title>Matplotlib v3.7.1, https://matplotlib.org/</dc:title>
     </cc:Agent>
    </dc:creator>
   </cc:Work>
  </rdf:RDF>
 </metadata>
 <defs>
  <style type="text/css">*{stroke-linejoin: round; stroke-linecap: butt}</style>
 </defs>
 <g id="figure_1">
  <g id="patch_1">
   <path d="M 0 345.6 
L 460.8 345.6 
L 460.8 0 
L 0 0 
z
" style="fill: #ffffff"/>
  </g>
  <g id="axes_1">
   <g id="patch_2">
    <path d="M 57.6 307.584 
L 414.72 307.584 
L 414.72 41.472 
L 57.6 41.472 
z
" style="fill: #ffffff"/>
   </g>
   <g id="matplotlib.axis_1">
    <g id="xtick_1">
     <g id="line2d_1">
      <defs>
       <path id="m68e5493d33" d="M 0 0 
L 0 3.5 
" style="stroke: #000000; stroke-width: 0.8"/>
      </defs>
      <g>
       <use xlink:href="#m68e5493d33" x="73.832727" y="307.584" style="stroke: #000000; stroke-width: 0.8"/>
      </g>
     </g>
     <g id="text_1">
      <!-- 0 -->
      <g transform="translate(70.651477 322.182437) scale(0.1 -0.1)">
       <defs>
        <path id="DejaVuSans-30" d="M 2034 4250 
Q 1547 4250 1301 3770 
Q 1056 3291 1056 2328 
Q 1056 1369 1301 889 
Q 1547 409 2034 409 
Q 2525 409 2770 889 
Q 3016 1369 3016 2328 
Q 3016 3291 2770 3770 
Q 2525 4250 2034 4250 
z
M 2034 4750 
Q 2819 4750 3233 4129 
Q 3647 3509 3647 2328 
Q 3647 1150 3233 529 
Q 2819 -91 2034 -91 
Q 1250 -91 836 529 
Q 422 1150 422 2328 
Q 422 3509 836 4129 
Q 1250 4750 2034 4750 
z
" transform="scale(0.015625)"/>
       </defs>
       <use xlink:href="#DejaVuSans-30"/>
      </g>
     </g>
    </g>
    <g id="xtick_2">
     <g id="line2d_2">
      <g>
       <use xlink:href="#m68e5493d33" x="149.989083" y="307.584" style="stroke: #000000; stroke-width: 0.8"/>
      </g>
     </g>
     <g id="text_2">
      <!-- 1000 -->
      <g transform="translate(137.264083 322.182437) scale(0.1 -0.1)">
       <defs>
        <path id="DejaVuSans-31" d="M 794 531 
L 1825 531 
L 1825 4091 
L 703 3866 
L 703 4441 
L 1819 4666 
L 2450 4666 
L 2450 531 
L 3481 531 
L 3481 0 
L 794 0 
L 794 531 
z
" transform="scale(0.015625)"/>
       </defs>
       <use xlink:href="#DejaVuSans-31"/>
       <use xlink:href="#DejaVuSans-30" x="63.623047"/>
       <use xlink:href="#DejaVuSans-30" x="127.246094"/>
       <use xlink:href="#DejaVuSans-30" x="190.869141"/>
      </g>
     </g>
    </g>
    <g id="xtick_3">
     <g id="line2d_3">
      <g>
       <use xlink:href="#m68e5493d33" x="226.145439" y="307.584" style="stroke: #000000; stroke-width: 0.8"/>
      </g>
     </g>
     <g id="text_3">
      <!-- 2000 -->
      <g transform="translate(213.420439 322.182437) scale(0.1 -0.1)">
       <defs>
        <path id="DejaVuSans-32" d="M 1228 531 
L 3431 531 
L 3431 0 
L 469 0 
L 469 531 
Q 828 903 1448 1529 
Q 2069 2156 2228 2338 
Q 2531 2678 2651 2914 
Q 2772 3150 2772 3378 
Q 2772 3750 2511 3984 
Q 2250 4219 1831 4219 
Q 1534 4219 1204 4116 
Q 875 4013 500 3803 
L 500 4441 
Q 881 4594 1212 4672 
Q 1544 4750 1819 4750 
Q 2544 4750 2975 4387 
Q 3406 4025 3406 3419 
Q 3406 3131 3298 2873 
Q 3191 2616 2906 2266 
Q 2828 2175 2409 1742 
Q 1991 1309 1228 531 
z
" transform="scale(0.015625)"/>
       </defs>
       <use xlink:href="#DejaVuSans-32"/>
       <use xlink:href="#DejaVuSans-30" x="63.623047"/>
       <use xlink:href="#DejaVuSans-30" x="127.246094"/>
       <use xlink:href="#DejaVuSans-30" x="190.869141"/>
      </g>
     </g>
    </g>
    <g id="xtick_4">
     <g id="line2d_4">
      <g>
       <use xlink:href="#m68e5493d33" x="302.301795" y="307.584" style="stroke: #000000; stroke-width: 0.8"/>
      </g>
     </g>
     <g id="text_4">
      <!-- 3000 -->
      <g transform="translate(289.576795 322.182437) scale(0.1 -0.1)">
       <defs>
        <path id="DejaVuSans-33" d="M 2597 2516 
Q 3050 2419 3304 2112 
Q 3559 1806 3559 1356 
Q 3559 666 3084 287 
Q 2609 -91 1734 -91 
Q 1441 -91 1130 -33 
Q 819 25 488 141 
L 488 750 
Q 750 597 1062 519 
Q 1375 441 1716 441 
Q 2309 441 2620 675 
Q 2931 909 2931 1356 
Q 2931 1769 2642 2001 
Q 2353 2234 1838 2234 
L 1294 2234 
L 1294 2753 
L 1863 2753 
Q 2328 2753 2575 2939 
Q 2822 3125 2822 3475 
Q 2822 3834 2567 4026 
Q 2313 4219 1838 4219 
Q 1578 4219 1281 4162 
Q 984 4106 628 3988 
L 628 4550 
Q 988 4650 1302 4700 
Q 1616 4750 1894 4750 
Q 2613 4750 3031 4423 
Q 3450 4097 3450 3541 
Q 3450 3153 3228 2886 
Q 3006 2619 2597 2516 
z
" transform="scale(0.015625)"/>
       </defs>
       <use xlink:href="#DejaVuSans-33"/>
       <use xlink:href="#DejaVuSans-30" x="63.623047"/>
       <use xlink:href="#DejaVuSans-30" x="127.246094"/>
       <use xlink:href="#DejaVuSans-30" x="190.869141"/>
      </g>
     </g>
    </g>
    <g id="xtick_5">
     <g id="line2d_5">
      <g>
       <use xlink:href="#m68e5493d33" x="378.458151" y="307.584" style="stroke: #000000; stroke-width: 0.8"/>
      </g>
     </g>
     <g id="text_5">
      <!-- 4000 -->
      <g transform="translate(365.733151 322.182437) scale(0.1 -0.1)">
       <defs>
        <path id="DejaVuSans-34" d="M 2419 4116 
L 825 1625 
L 2419 1625 
L 2419 4116 
z
M 2253 4666 
L 3047 4666 
L 3047 1625 
L 3713 1625 
L 3713 1100 
L 3047 1100 
L 3047 0 
L 2419 0 
L 2419 1100 
L 313 1100 
L 313 1709 
L 2253 4666 
z
" transform="scale(0.015625)"/>
       </defs>
       <use xlink:href="#DejaVuSans-34"/>
       <use xlink:href="#DejaVuSans-30" x="63.623047"/>
       <use xlink:href="#DejaVuSans-30" x="127.246094"/>
       <use xlink:href="#DejaVuSans-30" x="190.869141"/>
      </g>
     </g>
    </g>
    <g id="text_6">
     <!-- iteration -->
     <g transform="translate(215.037344 335.860562) scale(0.1 -0.1)">
      <defs>
       <path id="DejaVuSans-69" d="M 603 3500 
L 1178 3500 
L 1178 0 
L 603 0 
L 603 3500 
z
M 603 4863 
L 1178 4863 
L 1178 4134 
L 603 4134 
L 603 4863 
z
" transform="scale(0.015625)"/>
       <path id="DejaVuSans-74" d="M 1172 4494 
L 1172 3500 
L 2356 3500 
L 2356 3053 
L 1172 3053 
L 1172 1153 
Q 1172 725 1289 603 
Q 1406 481 1766 481 
L 2356 481 
L 2356 0 
L 1766 0 
Q 1100 0 847 248 
Q 594 497 594 1153 
L 594 3053 
L 172 3053 
L 172 3500 
L 594 3500 
L 594 4494 
L 1172 4494 
z
" transform="scale(0.015625)"/>
       <path id="DejaVuSans-65" d="M 3597 1894 
L 3597 1613 
L 953 1613 
Q 991 1019 1311 708 
Q 1631 397 2203 397 
Q 2534 397 2845 478 
Q 3156 559 3463 722 
L 3463 178 
Q 3153 47 2828 -22 
Q 2503 -91 2169 -91 
Q 1331 -91 842 396 
Q 353 884 353 1716 
Q 353 2575 817 3079 
Q 1281 3584 2069 3584 
Q 2775 3584 3186 3129 
Q 3597 2675 3597 1894 
z
M 3022 2063 
Q 3016 2534 2758 2815 
Q 2500 3097 2075 3097 
Q 1594 3097 1305 2825 
Q 1016 2553 972 2059 
L 3022 2063 
z
" transform="scale(0.015625)"/>
       <path id="DejaVuSans-72" d="M 2631 2963 
Q 2534 3019 2420 3045 
Q 2306 3072 2169 3072 
Q 1681 3072 1420 2755 
Q 1159 2438 1159 1844 
L 1159 0 
L 581 0 
L 581 3500 
L 1159 3500 
L 1159 2956 
Q 1341 3275 1631 3429 
Q 1922 3584 2338 3584 
Q 2397 3584 2469 3576 
Q 2541 3569 2628 3553 
L 2631 2963 
z
" transform="scale(0.015625)"/>
       <path id="DejaVuSans-61" d="M 2194 1759 
Q 1497 1759 1228 1600 
Q 959 1441 959 1056 
Q 959 750 1161 570 
Q 1363 391 1709 391 
Q 2188 391 2477 730 
Q 2766 1069 2766 1631 
L 2766 1759 
L 2194 1759 
z
M 3341 1997 
L 3341 0 
L 2766 0 
L 2766 531 
Q 2569 213 2275 61 
Q 1981 -91 1556 -91 
Q 1019 -91 701 211 
Q 384 513 384 1019 
Q 384 1609 779 1909 
Q 1175 2209 1959 2209 
L 2766 2209 
L 2766 2266 
Q 2766 2663 2505 2880 
Q 2244 3097 1772 3097 
Q 1472 3097 1187 3025 
Q 903 2953 641 2809 
L 641 3341 
Q 956 3463 1253 3523 
Q 1550 3584 1831 3584 
Q 2591 3584 2966 3190 
Q 3341 2797 3341 1997 
z
" transform="scale(0.015625)"/>
       <path id="DejaVuSans-6f" d="M 1959 3097 
Q 1497 3097 1228 2736 
Q 959 2375 959 1747 
Q 959 1119 1226 758 
Q 1494 397 1959 397 
Q 2419 397 2687 759 
Q 2956 1122 2956 1747 
Q 2956 2369 2687 2733 
Q 2419 3097 1959 3097 
z
M 1959 3584 
Q 2709 3584 3137 3096 
Q 3566 2609 3566 1747 
Q 3566 888 3137 398 
Q 2709 -91 1959 -91 
Q 1206 -91 779 398 
Q 353 888 353 1747 
Q 353 2609 779 3096 
Q 1206 3584 1959 3584 
z
" transform="scale(0.015625)"/>
       <path id="DejaVuSans-6e" d="M 3513 2113 
L 3513 0 
L 2938 0 
L 2938 2094 
Q 2938 2591 2744 2837 
Q 2550 3084 2163 3084 
Q 1697 3084 1428 2787 
Q 1159 2491 1159 1978 
L 1159 0 
L 581 0 
L 581 3500 
L 1159 3500 
L 1159 2956 
Q 1366 3272 1645 3428 
Q 1925 3584 2291 3584 
Q 2894 3584 3203 3211 
Q 3513 2838 3513 2113 
z
" transform="scale(0.015625)"/>
      </defs>
      <use xlink:href="#DejaVuSans-69"/>
      <use xlink:href="#DejaVuSans-74" x="27.783203"/>
      <use xlink:href="#DejaVuSans-65" x="66.992188"/>
      <use xlink:href="#DejaVuSans-72" x="128.515625"/>
      <use xlink:href="#DejaVuSans-61" x="169.628906"/>
      <use xlink:href="#DejaVuSans-74" x="230.908203"/>
      <use xlink:href="#DejaVuSans-69" x="270.117188"/>
      <use xlink:href="#DejaVuSans-6f" x="297.900391"/>
      <use xlink:href="#DejaVuSans-6e" x="359.082031"/>
     </g>
    </g>
   </g>
   <g id="matplotlib.axis_2">
    <g id="ytick_1">
     <g id="line2d_6">
      <defs>
       <path id="m057acb8768" d="M 0 0 
L -3.5 0 
" style="stroke: #000000; stroke-width: 0.8"/>
      </defs>
      <g>
       <use xlink:href="#m057acb8768" x="57.6" y="284.866349" style="stroke: #000000; stroke-width: 0.8"/>
      </g>
     </g>
     <g id="text_7">
      <!-- 500 -->
      <g transform="translate(31.5125 288.665567) scale(0.1 -0.1)">
       <defs>
        <path id="DejaVuSans-35" d="M 691 4666 
L 3169 4666 
L 3169 4134 
L 1269 4134 
L 1269 2991 
Q 1406 3038 1543 3061 
Q 1681 3084 1819 3084 
Q 2600 3084 3056 2656 
Q 3513 2228 3513 1497 
Q 3513 744 3044 326 
Q 2575 -91 1722 -91 
Q 1428 -91 1123 -41 
Q 819 9 494 109 
L 494 744 
Q 775 591 1075 516 
Q 1375 441 1709 441 
Q 2250 441 2565 725 
Q 2881 1009 2881 1497 
Q 2881 1984 2565 2268 
Q 2250 2553 1709 2553 
Q 1456 2553 1204 2497 
Q 953 2441 691 2322 
L 691 4666 
z
" transform="scale(0.015625)"/>
       </defs>
       <use xlink:href="#DejaVuSans-35"/>
       <use xlink:href="#DejaVuSans-30" x="63.623047"/>
       <use xlink:href="#DejaVuSans-30" x="127.246094"/>
      </g>
     </g>
    </g>
    <g id="ytick_2">
     <g id="line2d_7">
      <g>
       <use xlink:href="#m057acb8768" x="57.6" y="245.233321" style="stroke: #000000; stroke-width: 0.8"/>
      </g>
     </g>
     <g id="text_8">
      <!-- 1000 -->
      <g transform="translate(25.15 249.03254) scale(0.1 -0.1)">
       <use xlink:href="#DejaVuSans-31"/>
       <use xlink:href="#DejaVuSans-30" x="63.623047"/>
       <use xlink:href="#DejaVuSans-30" x="127.246094"/>
       <use xlink:href="#DejaVuSans-30" x="190.869141"/>
      </g>
     </g>
    </g>
    <g id="ytick_3">
     <g id="line2d_8">
      <g>
       <use xlink:href="#m057acb8768" x="57.6" y="205.600294" style="stroke: #000000; stroke-width: 0.8"/>
      </g>
     </g>
     <g id="text_9">
      <!-- 1500 -->
      <g transform="translate(25.15 209.399512) scale(0.1 -0.1)">
       <use xlink:href="#DejaVuSans-31"/>
       <use xlink:href="#DejaVuSans-35" x="63.623047"/>
       <use xlink:href="#DejaVuSans-30" x="127.246094"/>
       <use xlink:href="#DejaVuSans-30" x="190.869141"/>
      </g>
     </g>
    </g>
    <g id="ytick_4">
     <g id="line2d_9">
      <g>
       <use xlink:href="#m057acb8768" x="57.6" y="165.967266" style="stroke: #000000; stroke-width: 0.8"/>
      </g>
     </g>
     <g id="text_10">
      <!-- 2000 -->
      <g transform="translate(25.15 169.766485) scale(0.1 -0.1)">
       <use xlink:href="#DejaVuSans-32"/>
       <use xlink:href="#DejaVuSans-30" x="63.623047"/>
       <use xlink:href="#DejaVuSans-30" x="127.246094"/>
       <use xlink:href="#DejaVuSans-30" x="190.869141"/>
      </g>
     </g>
    </g>
    <g id="ytick_5">
     <g id="line2d_10">
      <g>
       <use xlink:href="#m057acb8768" x="57.6" y="126.334239" style="stroke: #000000; stroke-width: 0.8"/>
      </g>
     </g>
     <g id="text_11">
      <!-- 2500 -->
      <g transform="translate(25.15 130.133457) scale(0.1 -0.1)">
       <use xlink:href="#DejaVuSans-32"/>
       <use xlink:href="#DejaVuSans-35" x="63.623047"/>
       <use xlink:href="#DejaVuSans-30" x="127.246094"/>
       <use xlink:href="#DejaVuSans-30" x="190.869141"/>
      </g>
     </g>
    </g>
    <g id="ytick_6">
     <g id="line2d_11">
      <g>
       <use xlink:href="#m057acb8768" x="57.6" y="86.701211" style="stroke: #000000; stroke-width: 0.8"/>
      </g>
     </g>
     <g id="text_12">
      <!-- 3000 -->
      <g transform="translate(25.15 90.50043) scale(0.1 -0.1)">
       <use xlink:href="#DejaVuSans-33"/>
       <use xlink:href="#DejaVuSans-30" x="63.623047"/>
       <use xlink:href="#DejaVuSans-30" x="127.246094"/>
       <use xlink:href="#DejaVuSans-30" x="190.869141"/>
      </g>
     </g>
    </g>
    <g id="ytick_7">
     <g id="line2d_12">
      <g>
       <use xlink:href="#m057acb8768" x="57.6" y="47.068183" style="stroke: #000000; stroke-width: 0.8"/>
      </g>
     </g>
     <g id="text_13">
      <!-- 3500 -->
      <g transform="translate(25.15 50.867402) scale(0.1 -0.1)">
       <use xlink:href="#DejaVuSans-33"/>
       <use xlink:href="#DejaVuSans-35" x="63.623047"/>
       <use xlink:href="#DejaVuSans-30" x="127.246094"/>
       <use xlink:href="#DejaVuSans-30" x="190.869141"/>
      </g>
     </g>
    </g>
    <g id="text_14">
     <!-- best fitness of swarm -->
     <g transform="translate(19.070312 228.0905) rotate(-90) scale(0.1 -0.1)">
      <defs>
       <path id="DejaVuSans-62" d="M 3116 1747 
Q 3116 2381 2855 2742 
Q 2594 3103 2138 3103 
Q 1681 3103 1420 2742 
Q 1159 2381 1159 1747 
Q 1159 1113 1420 752 
Q 1681 391 2138 391 
Q 2594 391 2855 752 
Q 3116 1113 3116 1747 
z
M 1159 2969 
Q 1341 3281 1617 3432 
Q 1894 3584 2278 3584 
Q 2916 3584 3314 3078 
Q 3713 2572 3713 1747 
Q 3713 922 3314 415 
Q 2916 -91 2278 -91 
Q 1894 -91 1617 61 
Q 1341 213 1159 525 
L 1159 0 
L 581 0 
L 581 4863 
L 1159 4863 
L 1159 2969 
z
" transform="scale(0.015625)"/>
       <path id="DejaVuSans-73" d="M 2834 3397 
L 2834 2853 
Q 2591 2978 2328 3040 
Q 2066 3103 1784 3103 
Q 1356 3103 1142 2972 
Q 928 2841 928 2578 
Q 928 2378 1081 2264 
Q 1234 2150 1697 2047 
L 1894 2003 
Q 2506 1872 2764 1633 
Q 3022 1394 3022 966 
Q 3022 478 2636 193 
Q 2250 -91 1575 -91 
Q 1294 -91 989 -36 
Q 684 19 347 128 
L 347 722 
Q 666 556 975 473 
Q 1284 391 1588 391 
Q 1994 391 2212 530 
Q 2431 669 2431 922 
Q 2431 1156 2273 1281 
Q 2116 1406 1581 1522 
L 1381 1569 
Q 847 1681 609 1914 
Q 372 2147 372 2553 
Q 372 3047 722 3315 
Q 1072 3584 1716 3584 
Q 2034 3584 2315 3537 
Q 2597 3491 2834 3397 
z
" transform="scale(0.015625)"/>
       <path id="DejaVuSans-20" transform="scale(0.015625)"/>
       <path id="DejaVuSans-66" d="M 2375 4863 
L 2375 4384 
L 1825 4384 
Q 1516 4384 1395 4259 
Q 1275 4134 1275 3809 
L 1275 3500 
L 2222 3500 
L 2222 3053 
L 1275 3053 
L 1275 0 
L 697 0 
L 697 3053 
L 147 3053 
L 147 3500 
L 697 3500 
L 697 3744 
Q 697 4328 969 4595 
Q 1241 4863 1831 4863 
L 2375 4863 
z
" transform="scale(0.015625)"/>
       <path id="DejaVuSans-77" d="M 269 3500 
L 844 3500 
L 1563 769 
L 2278 3500 
L 2956 3500 
L 3675 769 
L 4391 3500 
L 4966 3500 
L 4050 0 
L 3372 0 
L 2619 2869 
L 1863 0 
L 1184 0 
L 269 3500 
z
" transform="scale(0.015625)"/>
       <path id="DejaVuSans-6d" d="M 3328 2828 
Q 3544 3216 3844 3400 
Q 4144 3584 4550 3584 
Q 5097 3584 5394 3201 
Q 5691 2819 5691 2113 
L 5691 0 
L 5113 0 
L 5113 2094 
Q 5113 2597 4934 2840 
Q 4756 3084 4391 3084 
Q 3944 3084 3684 2787 
Q 3425 2491 3425 1978 
L 3425 0 
L 2847 0 
L 2847 2094 
Q 2847 2600 2669 2842 
Q 2491 3084 2119 3084 
Q 1678 3084 1418 2786 
Q 1159 2488 1159 1978 
L 1159 0 
L 581 0 
L 581 3500 
L 1159 3500 
L 1159 2956 
Q 1356 3278 1631 3431 
Q 1906 3584 2284 3584 
Q 2666 3584 2933 3390 
Q 3200 3197 3328 2828 
z
" transform="scale(0.015625)"/>
      </defs>
      <use xlink:href="#DejaVuSans-62"/>
      <use xlink:href="#DejaVuSans-65" x="63.476562"/>
      <use xlink:href="#DejaVuSans-73" x="125"/>
      <use xlink:href="#DejaVuSans-74" x="177.099609"/>
      <use xlink:href="#DejaVuSans-20" x="216.308594"/>
      <use xlink:href="#DejaVuSans-66" x="248.095703"/>
      <use xlink:href="#DejaVuSans-69" x="283.300781"/>
      <use xlink:href="#DejaVuSans-74" x="311.083984"/>
      <use xlink:href="#DejaVuSans-6e" x="350.292969"/>
      <use xlink:href="#DejaVuSans-65" x="413.671875"/>
      <use xlink:href="#DejaVuSans-73" x="475.195312"/>
      <use xlink:href="#DejaVuSans-73" x="527.294922"/>
      <use xlink:href="#DejaVuSans-20" x="579.394531"/>
      <use xlink:href="#DejaVuSans-6f" x="611.181641"/>
      <use xlink:href="#DejaVuSans-66" x="672.363281"/>
      <use xlink:href="#DejaVuSans-20" x="707.568359"/>
      <use xlink:href="#DejaVuSans-73" x="739.355469"/>
      <use xlink:href="#DejaVuSans-77" x="791.455078"/>
      <use xlink:href="#DejaVuSans-61" x="873.242188"/>
      <use xlink:href="#DejaVuSans-72" x="934.521484"/>
      <use xlink:href="#DejaVuSans-6d" x="973.884766"/>
     </g>
    </g>
   </g>
   <g id="line2d_13">
    <path d="M 73.832727 295.488 
L 73.908884 295.488 
L 74.061196 291.445431 
L 74.289665 291.366165 
L 74.518134 290.414972 
L 74.594291 290.494239 
L 74.670447 290.25644 
L 75.051229 283.83589 
L 75.127385 285.104147 
L 75.203542 285.024881 
L 75.279698 285.024881 
L 75.432011 284.787083 
L 75.736636 282.250569 
L 75.888949 277.256807 
L 75.965105 275.671486 
L 76.193574 266.476624 
L 76.422043 266.397358 
L 76.650512 255.617174 
L 76.802825 255.617174 
L 76.955138 253.397725 
L 77.031294 253.397725 
L 77.259763 242.379743 
L 77.412076 242.459009 
L 77.488232 242.141945 
L 77.564389 245.391853 
L 77.640545 245.233321 
L 77.792858 245.233321 
L 77.94517 242.855339 
L 78.021327 243.172404 
L 78.325952 241.03222 
L 78.402109 241.507817 
L 78.478265 241.349284 
L 78.630578 241.270018 
L 78.78289 240.556624 
L 78.859047 240.556624 
L 79.011359 237.22745 
L 79.087516 237.148183 
L 79.239829 233.422679 
L 79.315985 233.264147 
L 79.772923 226.447266 
L 79.849079 227.081394 
L 79.925236 220.819376 
L 80.001392 221.374239 
L 80.229861 219.788917 
L 80.306018 222.404697 
L 80.45833 219.709651 
L 80.534487 219.709651 
L 80.610643 226.605798 
L 80.686799 226.447266 
L 80.839112 220.264514 
L 80.991425 220.264514 
L 81.067581 218.837725 
L 81.219894 210.831853 
L 81.448363 210.356257 
L 81.600676 210.356257 
L 81.829145 203.06378 
L 81.981457 200.448 
L 82.13377 206.234422 
L 82.209926 206.07589 
L 82.362239 205.362495 
L 82.438395 205.838092 
L 82.514552 200.210202 
L 82.743021 209.722128 
L 82.819177 209.801394 
L 82.895334 204.966165 
L 82.97149 205.838092 
L 83.123803 205.838092 
L 83.276115 200.368734 
L 83.352272 200.210202 
L 83.504584 191.332404 
L 83.656897 191.332404 
L 83.80921 189.509284 
L 83.885366 191.015339 
L 83.961523 195.692037 
L 84.037679 192.996991 
L 84.113835 194.02745 
L 84.189992 193.631119 
L 84.266148 193.789651 
L 84.342304 193.789651 
L 84.570773 194.185982 
L 84.723086 194.185982 
L 84.875399 195.057908 
L 85.027712 189.747083 
L 85.180024 185.863046 
L 85.256181 185.863046 
L 85.48465 182.296073 
L 85.560806 182.296073 
L 85.713119 182.930202 
L 85.789275 181.979009 
L 85.941588 184.991119 
L 86.017744 186.18011 
L 86.170057 183.088734 
L 86.32237 183.405798 
L 86.779308 181.424147 
L 86.855464 185.625248 
L 86.93162 185.228917 
L 87.007777 185.228917 
L 87.236246 175.479193 
L 87.312402 175.479193 
L 87.464715 175.637725 
L 87.540871 175.637725 
L 87.617028 176.192587 
L 87.693184 176.113321 
L 87.845497 173.893872 
L 87.997809 172.704881 
L 88.150122 174.765798 
L 88.378591 168.345248 
L 88.60706 167.631853 
L 88.835529 170.643963 
L 88.911686 170.247633 
L 88.987842 170.326899 
L 89.140155 167.473321 
L 89.216311 167.711119 
L 89.292468 167.631853 
L 89.368624 167.631853 
L 89.520937 166.839193 
L 89.749406 167.314789 
L 89.825562 167.314789 
L 90.054031 157.723596 
L 90.206344 159.625982 
L 90.358657 160.022312 
L 90.434813 160.022312 
L 90.587126 161.924697 
L 90.663282 161.766165 
L 90.815595 162.321028 
L 90.891751 161.845431 
L 91.044064 159.705248 
L 91.12022 160.022312 
L 91.196376 159.388183 
L 91.348689 150.510385 
L 91.424845 151.62011 
L 91.577158 145.912954 
L 91.653315 145.278826 
L 91.729471 145.437358 
L 91.881784 145.437358 
L 92.110253 146.943413 
L 92.262565 151.303046 
L 92.414878 143.534972 
L 92.567191 141.156991 
L 92.643347 141.156991 
L 92.79566 141.791119 
L 92.871816 138.541211 
L 92.947973 140.126532 
L 93.024129 138.620477 
L 93.100285 138.699743 
L 93.176442 138.699743 
L 93.328754 127.364697 
L 93.404911 127.364697 
L 93.481067 127.761028 
L 93.63338 127.523229 
L 93.938005 123.956257 
L 94.014162 123.480661 
L 94.166474 123.956257 
L 94.242631 123.956257 
L 94.318787 123.718459 
L 94.394943 123.797725 
L 94.4711 123.876991 
L 94.547256 127.840294 
L 94.623412 127.523229 
L 94.775725 123.480661 
L 94.851882 123.797725 
L 94.928038 125.30378 
L 95.156507 121.340477 
L 95.232663 121.340477 
L 95.537289 119.517358 
L 95.613445 119.517358 
L 95.689601 115.316257 
L 95.765758 118.883229 
L 95.841914 118.803963 
L 95.918071 118.803963 
L 95.994227 118.169835 
L 96.14654 115.633321 
L 96.451165 113.255339 
L 96.527321 113.255339 
L 96.679634 110.163963 
L 96.75579 110.084697 
L 96.831947 110.243229 
L 96.908103 107.785982 
L 96.984259 108.895706 
L 97.136572 108.81644 
L 97.212729 109.054239 
L 97.365041 104.932404 
L 97.441198 105.725064 
L 97.517354 105.487266 
L 97.59351 105.725064 
L 97.745823 111.670018 
L 97.974292 112.145615 
L 98.050448 112.224881 
L 98.126605 111.987083 
L 98.355074 117.694239 
L 98.507387 115.236991 
L 98.583543 115.474789 
L 98.659699 113.968734 
L 98.735856 108.657908 
L 98.812012 108.737174 
L 98.888168 108.737174 
L 98.964325 108.974972 
L 99.116637 111.82855 
L 99.192794 112.145615 
L 99.26895 113.730936 
L 99.421263 112.462679 
L 99.497419 112.700477 
L 99.573576 111.03589 
L 99.649732 116.188183 
L 99.725888 114.127266 
L 99.954357 111.43222 
L 100.030514 114.523596 
L 100.10667 113.810202 
L 100.335139 113.810202 
L 100.411296 109.450569 
L 100.487452 111.749284 
L 100.563608 110.798092 
L 100.639765 111.03589 
L 101.020546 116.029651 
L 101.096703 115.633321 
L 101.249015 115.633321 
L 101.401328 114.365064 
L 101.934423 127.91956 
L 102.086735 131.407266 
L 102.162892 130.535339 
L 102.239048 130.773138 
L 102.315204 131.010936 
L 102.467517 129.742679 
L 102.543673 130.614606 
L 102.695986 129.821945 
L 102.924455 122.450202 
L 103.000612 122.846532 
L 103.152924 122.370936 
L 103.229081 122.688 
L 103.305237 122.212404 
L 103.45755 124.352587 
L 103.533706 119.517358 
L 103.609862 120.46855 
L 103.686019 120.151486 
L 103.838332 131.565798 
L 103.914488 130.693872 
L 104.066801 124.035523 
L 104.219113 127.206165 
L 104.29527 127.126899 
L 104.371426 126.175706 
L 104.447582 126.254972 
L 104.523739 126.334239 
L 104.599895 129.425615 
L 104.676051 129.346349 
L 104.752208 129.346349 
L 104.904521 128.71222 
L 105.13299 129.901211 
L 105.209146 128.632954 
L 105.361459 131.407266 
L 105.437615 131.962128 
L 105.513771 137.74855 
L 105.589928 137.669284 
L 105.74224 137.035156 
L 105.894553 137.590018 
L 106.046866 136.638826 
L 106.351491 127.443963 
L 106.427648 128.632954 
L 106.57996 125.541578 
L 106.656117 125.541578 
L 106.808429 130.139009 
L 106.960742 128.870752 
L 107.036898 128.71222 
L 107.189211 122.925798 
L 107.41768 130.614606 
L 107.493837 131.090202 
L 107.722306 117.377174 
L 107.798462 118.328367 
L 107.874618 119.517358 
L 108.026931 125.145248 
L 108.103087 125.145248 
L 108.407713 130.614606 
L 108.483869 130.614606 
L 108.560026 131.169468 
L 108.712338 130.852404 
L 109.016964 130.852404 
L 109.09312 133.54745 
L 109.245433 131.803596 
L 109.397746 139.650936 
L 109.550058 139.492404 
L 109.702371 134.419376 
L 109.778527 134.577908 
L 109.854684 136.163229 
L 110.006996 135.291303 
L 110.083153 135.212037 
L 110.235465 122.767266 
L 110.540091 126.809835 
L 110.692404 126.730569 
L 110.844716 129.10855 
L 110.920873 126.968367 
L 110.997029 128.71222 
L 111.073185 128.553688 
L 111.149342 127.761028 
L 111.225498 128.078092 
L 111.453967 131.72433 
L 111.530123 131.010936 
L 111.60628 125.858642 
L 111.682436 126.968367 
L 111.758593 126.968367 
L 111.834749 126.809835 
L 111.987062 125.70011 
L 112.139374 125.70011 
L 112.215531 124.669651 
L 112.444 134.73644 
L 112.672469 134.657174 
L 112.824782 139.413138 
L 112.900938 139.413138 
L 113.053251 141.077725 
L 113.205563 133.388917 
L 113.434032 133.388917 
L 113.662501 130.535339 
L 113.738658 130.535339 
L 113.890971 125.620844 
L 113.967127 126.413505 
L 114.11944 125.779376 
L 114.271752 127.443963 
L 114.347909 127.047633 
L 114.424065 121.261211 
L 114.500221 121.340477 
L 114.652534 121.340477 
L 114.72869 121.499009 
L 114.804847 121.419743 
L 114.957159 118.962495 
L 115.185629 127.206165 
L 115.337941 127.126899 
L 115.56641 126.492771 
L 115.642567 126.254972 
L 115.794879 125.145248 
L 115.871036 125.145248 
L 115.947192 125.462312 
L 116.099505 127.047633 
L 116.251818 131.169468 
L 116.40413 131.010936 
L 116.480287 130.059743 
L 116.556443 130.218275 
L 116.708756 132.437725 
L 116.861068 137.193688 
L 117.089537 134.34011 
L 117.165694 134.657174 
L 117.24185 134.657174 
L 117.318007 133.626716 
L 117.394163 133.94378 
L 117.470319 133.94378 
L 117.622632 139.016807 
L 117.698788 139.016807 
L 117.774945 139.333872 
L 117.927257 139.016807 
L 118.07957 139.016807 
L 118.155726 138.303413 
L 118.308039 139.730202 
L 118.460352 134.815706 
L 118.536508 134.815706 
L 118.612665 134.657174 
L 118.91729 139.333872 
L 118.993446 139.809468 
L 119.069603 135.449835 
L 119.145759 136.083963 
L 119.221915 137.590018 
L 119.374228 129.821945 
L 119.450384 129.742679 
L 119.602697 129.267083 
L 119.75501 125.541578 
L 119.831166 126.175706 
L 119.907323 131.486532 
L 119.983479 129.029284 
L 120.059635 129.187817 
L 120.135792 129.10855 
L 120.211948 128.31589 
L 120.440417 113.176073 
L 120.516573 113.176073 
L 120.59273 113.334606 
L 120.668886 116.584514 
L 120.745043 116.188183 
L 120.821199 116.425982 
L 121.049668 102.39589 
L 121.125824 104.060477 
L 121.278137 105.408 
L 121.354293 104.853138 
L 121.506606 105.962862 
L 121.582762 105.962862 
L 121.735075 106.517725 
L 121.811232 106.517725 
L 121.963544 104.456807 
L 122.039701 104.456807 
L 122.115857 104.694606 
L 122.26817 103.505615 
L 122.344326 103.505615 
L 122.420482 104.932404 
L 122.496639 104.773872 
L 122.572795 101.603229 
L 122.648951 101.682495 
L 122.725108 102.078826 
L 122.801264 106.755523 
L 122.877421 105.170202 
L 122.953577 101.682495 
L 123.029733 101.841028 
L 123.10589 101.920294 
L 123.258202 110.005431 
L 123.410515 109.846899 
L 123.562828 102.633688 
L 123.638984 103.822679 
L 123.791297 103.030018 
L 123.867453 103.030018 
L 124.019766 98.511853 
L 124.095922 99.621578 
L 124.172079 99.621578 
L 124.324391 101.286165 
L 124.400548 101.286165 
L 124.476704 101.127633 
L 124.629017 101.682495 
L 124.705173 101.841028 
L 124.781329 103.347083 
L 124.857486 102.950752 
L 125.009798 101.682495 
L 125.162111 101.841028 
L 125.314424 104.298275 
L 125.39058 104.773872 
L 125.466737 104.615339 
L 125.542893 104.536073 
L 125.619049 102.950752 
L 125.695206 103.109284 
L 125.771362 103.109284 
L 126.075987 105.090936 
L 126.2283 105.01167 
L 126.380613 106.438459 
L 126.456769 106.438459 
L 126.532926 105.725064 
L 126.685238 108.02378 
L 126.761395 107.548183 
L 126.913707 103.664147 
L 127.06602 103.426349 
L 127.142176 103.426349 
L 127.218333 108.499376 
L 127.294489 108.261578 
L 127.522958 103.981211 
L 127.751427 106.517725 
L 127.90374 109.133505 
L 128.056053 106.438459 
L 128.132209 106.438459 
L 128.208365 106.279927 
L 128.360678 97.956991 
L 128.589147 97.402128 
L 128.665304 96.926532 
L 128.74146 97.639927 
L 128.817616 94.627817 
L 128.893773 95.896073 
L 128.969929 94.944881 
L 129.046085 95.182679 
L 129.274554 94.944881 
L 129.350711 93.993688 
L 129.503023 88.365798 
L 129.57918 88.207266 
L 129.731493 88.52433 
L 129.807649 88.52433 
L 129.883805 88.207266 
L 130.036118 88.762128 
L 130.188431 88.048734 
L 130.264587 88.048734 
L 130.340743 87.335339 
L 130.4169 84.164697 
L 130.645369 90.34745 
L 130.721525 86.780477 
L 130.797682 87.414606 
L 130.873838 87.573138 
L 131.026151 89.713321 
L 131.178463 89.713321 
L 131.25462 89.475523 
L 131.330776 89.951119 
L 131.483089 97.16433 
L 131.711558 93.438826 
L 131.787714 96.133872 
L 131.863871 95.816807 
L 132.09234 97.481394 
L 132.244652 97.639927 
L 132.396965 98.353321 
L 132.473121 98.353321 
L 132.549278 98.98745 
L 132.70159 101.206899 
L 132.777747 102.078826 
L 132.853903 106.596991 
L 132.930059 106.359193 
L 133.006216 103.584881 
L 133.082372 103.981211 
L 133.158529 103.18855 
L 133.310841 100.493505 
L 133.463154 100.493505 
L 133.615467 104.853138 
L 133.691623 104.853138 
L 133.843936 102.554422 
L 133.996248 102.554422 
L 134.072405 102.237358 
L 134.224718 98.591119 
L 134.300874 100.969101 
L 134.453187 99.859376 
L 134.605499 99.859376 
L 134.681656 102.39589 
L 134.757812 102.158092 
L 134.833968 102.39589 
L 134.986281 105.090936 
L 135.290907 105.090936 
L 135.367063 106.042128 
L 135.595532 104.139743 
L 135.671688 104.536073 
L 135.747845 104.377541 
L 135.900157 103.822679 
L 135.976314 99.859376 
L 136.05247 99.938642 
L 136.204783 104.932404 
L 136.280939 104.932404 
L 136.509408 104.694606 
L 136.585565 103.822679 
L 136.737877 106.596991 
L 136.814034 105.249468 
L 136.89019 105.170202 
L 137.042503 104.773872 
L 137.118659 104.773872 
L 137.270972 104.615339 
L 137.423284 105.090936 
L 137.499441 105.090936 
L 137.651754 102.79222 
L 137.72791 103.426349 
L 137.956379 105.883596 
L 138.032535 105.962862 
L 138.108692 104.139743 
L 138.184848 105.01167 
L 138.413317 102.158092 
L 138.489473 103.109284 
L 138.56563 102.79222 
L 138.641786 101.603229 
L 138.717943 102.078826 
L 138.870255 102.078826 
L 139.098724 102.79222 
L 139.174881 102.475156 
L 139.251037 102.475156 
L 139.40335 103.981211 
L 139.555662 103.901945 
L 139.707975 106.359193 
L 139.784132 106.596991 
L 139.860288 106.438459 
L 140.012601 107.151853 
L 140.164913 106.200661 
L 140.24107 106.200661 
L 140.317226 105.962862 
L 140.469539 101.206899 
L 140.545695 99.225248 
L 140.621851 100.889835 
L 140.774164 95.420477 
L 141.07879 105.090936 
L 141.154946 102.316624 
L 141.231102 103.505615 
L 141.307259 103.981211 
L 141.383415 103.822679 
L 141.535728 101.841028 
L 141.611884 102.158092 
L 141.764197 103.109284 
L 141.840353 103.267817 
L 141.992666 102.316624 
L 142.068822 103.347083 
L 142.221135 97.877725 
L 142.373448 95.420477 
L 142.449604 95.420477 
L 142.52576 97.243596 
L 142.678073 93.518092 
L 142.754229 93.518092 
L 142.830386 98.115523 
L 142.906542 97.798459 
L 142.982698 97.798459 
L 143.135011 97.322862 
L 143.211168 97.322862 
L 143.287324 93.914422 
L 143.36348 94.390018 
L 143.668106 92.725431 
L 143.744262 92.725431 
L 143.896575 91.14011 
L 144.048887 88.445064 
L 144.2012 95.341211 
L 144.277357 95.579009 
L 144.353513 97.085064 
L 144.505826 96.37167 
L 144.581982 90.902312 
L 144.658138 91.219376 
L 144.734295 89.079193 
L 144.810451 89.237725 
L 144.962764 89.237725 
L 145.191233 85.829284 
L 145.343546 85.829284 
L 145.495858 87.890202 
L 145.572015 87.018275 
L 145.648171 87.018275 
L 145.724327 86.621945 
L 145.87664 84.164697 
L 146.028953 83.768367 
L 146.105109 85.750018 
L 146.257422 92.487633 
L 146.485891 101.206899 
L 146.562047 101.206899 
L 146.71436 99.700844 
L 146.866673 100.889835 
L 146.942829 101.127633 
L 147.018985 103.347083 
L 147.095142 102.475156 
L 147.171298 102.554422 
L 147.323611 101.206899 
L 147.399767 101.206899 
L 147.55208 100.969101 
L 147.704393 101.603229 
L 147.856705 103.18855 
L 148.085174 103.743413 
L 148.237487 103.584881 
L 148.313643 104.377541 
L 148.3898 104.139743 
L 148.618269 104.219009 
L 148.694425 102.554422 
L 148.846738 103.347083 
L 148.999051 101.682495 
L 149.075207 102.078826 
L 149.22752 101.761761 
L 149.303676 101.99956 
L 149.379832 101.920294 
L 149.455989 97.719193 
L 149.608301 102.712954 
L 149.684458 102.79222 
L 149.760614 95.816807 
L 149.836771 98.353321 
L 150.06524 94.944881 
L 150.293709 93.835156 
L 150.369865 93.518092 
L 150.446021 94.627817 
L 150.522178 94.469284 
L 150.598334 94.310752 
L 150.826803 95.024147 
L 150.979116 95.024147 
L 151.055272 95.341211 
L 151.131429 90.585248 
L 151.207585 93.042495 
L 151.283741 92.249835 
L 151.359898 92.249835 
L 151.51221 92.408367 
L 151.588367 92.012037 
L 151.664523 88.603596 
L 151.740679 89.158459 
L 151.816836 87.018275 
L 151.969148 88.365798 
L 152.045305 93.121761 
L 152.121461 90.74378 
L 152.197618 91.53644 
L 152.34993 91.53644 
L 152.426087 91.853505 
L 152.578399 88.920661 
L 152.654556 88.920661 
L 152.730712 94.627817 
L 152.806868 94.390018 
L 152.883025 94.390018 
L 153.035337 100.255706 
L 153.111494 99.78011 
L 153.18765 99.859376 
L 153.263807 97.402128 
L 153.339963 97.481394 
L 153.492276 98.036257 
L 153.720745 102.712954 
L 153.873057 101.99956 
L 153.949214 102.158092 
L 154.101526 111.03589 
L 154.177683 110.956624 
L 154.253839 113.334606 
L 154.406152 105.01167 
L 154.482308 104.060477 
L 154.634621 98.432587 
L 154.710777 98.432587 
L 154.786934 105.566532 
L 154.86309 101.127633 
L 154.939246 102.633688 
L 155.015403 102.633688 
L 155.243872 102.078826 
L 155.396185 100.572771 
L 155.548497 102.633688 
L 155.624654 101.841028 
L 155.776966 105.249468 
L 155.853123 102.79222 
L 156.005435 104.773872 
L 156.081592 104.139743 
L 156.233904 98.432587 
L 156.310061 98.511853 
L 156.386217 98.908183 
L 156.53853 93.75589 
L 156.614686 93.914422 
L 156.843155 95.341211 
L 157.071624 95.261945 
L 157.147781 96.054606 
L 157.223937 90.505982 
L 157.300093 93.35956 
L 157.452406 88.920661 
L 157.528562 88.920661 
L 157.909344 87.414606 
L 157.985501 87.335339 
L 158.137813 88.445064 
L 158.366282 88.365798 
L 158.442439 88.445064 
L 158.518595 89.316991 
L 158.975533 81.70745 
L 159.05169 81.70745 
L 159.204002 79.963596 
L 159.356315 84.164697 
L 159.508628 84.243963 
L 159.584784 83.847633 
L 159.737097 85.591486 
L 159.88941 85.274422 
L 160.041722 85.274422 
L 160.117879 86.939009 
L 160.194035 86.542679 
L 160.270191 86.304881 
L 160.346348 84.323229 
L 160.49866 87.097541 
L 160.727129 81.548917 
L 160.803286 84.243963 
L 160.879442 83.530569 
L 160.955598 83.530569 
L 161.107911 82.89644 
L 161.260224 89.158459 
L 161.33638 89.713321 
L 161.412537 92.408367 
L 161.488693 90.74378 
L 161.564849 92.487633 
L 161.641006 92.091303 
L 161.717162 92.408367 
L 161.793318 92.249835 
L 161.869475 92.249835 
L 162.021787 94.231486 
L 162.1741 93.438826 
L 162.250257 93.75589 
L 162.402569 100.17644 
L 162.554882 100.097174 
L 162.631038 100.334972 
L 162.707195 100.17644 
L 162.935664 98.115523 
L 163.087976 98.591119 
L 163.164133 100.17644 
L 163.316446 92.012037 
L 163.468758 92.012037 
L 163.621071 95.658275 
L 163.773384 94.627817 
L 163.84954 94.627817 
L 164.001853 95.420477 
L 164.078009 95.341211 
L 164.230322 94.627817 
L 164.306478 94.707083 
L 164.382635 94.627817 
L 164.458791 94.627817 
L 164.839573 95.261945 
L 164.915729 95.024147 
L 165.068042 95.816807 
L 165.144198 93.75589 
L 165.372667 98.036257 
L 165.52498 95.737541 
L 165.601136 99.463046 
L 165.677293 99.304514 
L 165.829605 100.017908 
L 165.981918 91.457174 
L 166.134231 92.566899 
L 166.3627 88.841394 
L 166.667325 72.512587 
L 166.743482 72.036991 
L 166.819638 73.225982 
L 166.971951 72.433321 
L 167.124263 72.274789 
L 167.276576 71.085798 
L 167.505045 71.085798 
L 167.733514 65.061578 
L 167.885827 65.854239 
L 167.961983 67.281028 
L 168.03814 67.043229 
L 168.114296 67.201761 
L 168.190452 67.043229 
L 168.418921 67.756624 
L 168.495078 67.598092 
L 168.571234 75.683229 
L 168.723547 70.213872 
L 168.952016 69.500477 
L 169.028172 69.500477 
L 169.180485 73.939376 
L 169.256641 73.701578 
L 169.332798 76.000294 
L 169.408954 75.683229 
L 169.48511 75.683229 
L 169.637423 77.744147 
L 169.713579 77.030752 
L 169.865892 81.311119 
L 169.942048 81.073321 
L 170.018205 79.012404 
L 170.094361 81.152587 
L 170.170518 80.756257 
L 170.32283 79.012404 
L 170.398987 79.09167 
L 170.475143 79.567266 
L 170.551299 79.408734 
L 170.703612 76.555156 
L 170.855925 76.713688 
L 171.008237 78.695339 
L 171.084394 78.853872 
L 171.16055 79.488 
L 171.236707 79.408734 
L 171.312863 78.774606 
L 171.541332 79.250202 
L 171.693645 79.250202 
L 171.769801 76.555156 
L 171.845957 76.792954 
L 172.150583 76.792954 
L 172.226739 79.170936 
L 172.302896 79.09167 
L 172.531365 82.420844 
L 172.607521 77.189284 
L 172.683677 82.024514 
L 172.759834 81.548917 
L 172.83599 80.994055 
L 172.988303 81.390385 
L 173.064459 81.390385 
L 173.216772 78.457541 
L 173.292928 78.457541 
L 173.445241 78.933138 
L 173.521397 78.853872 
L 173.597554 77.427083 
L 173.67371 77.823413 
L 173.749866 79.012404 
L 173.826023 91.457174 
L 173.978335 85.036624 
L 174.054492 85.51222 
L 174.130648 91.377908 
L 174.206804 91.298642 
L 174.282961 91.53644 
L 174.435273 88.048734 
L 174.51143 88.445064 
L 174.663743 82.658642 
L 174.816055 81.786716 
L 174.892212 82.420844 
L 174.968368 76.07956 
L 175.044524 77.030752 
L 175.120681 77.030752 
L 175.196837 77.347817 
L 175.425306 83.134239 
L 175.501462 83.054972 
L 175.577619 81.945248 
L 175.653775 82.579376 
L 175.806088 91.298642 
L 175.958401 90.823046 
L 176.110713 88.841394 
L 176.263026 88.207266 
L 176.339182 88.207266 
L 176.491495 88.048734 
L 176.643808 91.774239 
L 176.719964 91.774239 
L 176.796121 92.566899 
L 177.02459 91.060844 
L 177.100746 91.060844 
L 177.253059 92.566899 
L 177.329215 92.249835 
L 177.405371 92.487633 
L 177.557684 91.774239 
L 177.63384 93.993688 
L 178.014622 79.408734 
L 178.090779 81.70745 
L 178.166935 81.70745 
L 178.243091 82.262312 
L 178.319248 81.865982 
L 178.47156 82.89644 
L 178.547717 82.817174 
L 178.623873 82.10378 
L 178.852342 92.012037 
L 178.928498 92.091303 
L 179.004655 93.75589 
L 179.080811 93.438826 
L 179.233124 93.75589 
L 179.30928 93.597358 
L 179.613906 94.944881 
L 179.766218 94.231486 
L 179.918531 89.237725 
L 179.994687 88.286532 
L 180.070844 88.682862 
L 180.147 88.365798 
L 180.299313 88.841394 
L 180.375469 87.493872 
L 180.451626 87.652404 
L 180.527782 87.652404 
L 180.680095 88.365798 
L 180.908564 80.042862 
L 181.137033 75.921028 
L 181.213189 77.744147 
L 181.289346 77.26855 
L 181.365502 77.26855 
L 181.593971 80.042862 
L 181.746284 77.347817 
L 181.82244 82.262312 
L 181.974753 78.140477 
L 182.050909 77.506349 
L 182.203222 72.116257 
L 182.431691 72.036991 
L 182.507847 72.829651 
L 182.66016 70.055339 
L 182.736316 70.055339 
L 182.812473 68.549284 
L 182.888629 74.732037 
L 182.964785 74.414972 
L 183.040942 74.018642 
L 183.117098 74.177174 
L 183.193254 68.311486 
L 183.269411 68.787083 
L 183.421723 70.293138 
L 183.49788 68.866349 
L 183.574036 69.341945 
L 183.650193 70.927266 
L 183.726349 70.055339 
L 183.802505 74.018642 
L 183.878662 73.622312 
L 183.954818 70.45167 
L 184.107131 73.939376 
L 184.183287 73.543046 
L 184.3356 67.915156 
L 184.640225 66.805431 
L 184.716382 66.805431 
L 184.792538 67.201761 
L 184.868694 66.329835 
L 184.944851 66.488367 
L 185.021007 66.488367 
L 185.097163 67.201761 
L 185.325632 75.049101 
L 185.477945 72.195523 
L 185.554101 72.750385 
L 185.630258 72.354055 
L 185.782571 69.659009 
L 185.858727 70.45167 
L 186.01104 65.537174 
L 186.087196 65.537174 
L 186.315665 60.622679 
L 186.391821 61.415339 
L 186.696447 60.067817 
L 186.84876 64.110385 
L 187.001072 65.378642 
L 187.153385 58.244697 
L 187.229541 59.830018 
L 187.381854 64.903046 
L 187.45801 64.585982 
L 187.610323 67.756624 
L 187.762636 67.756624 
L 187.838792 67.043229 
L 187.914948 67.360294 
L 187.991105 67.360294 
L 188.067261 65.537174 
L 188.29573 73.06745 
L 188.524199 72.591853 
L 188.676512 68.707817 
L 188.752668 68.311486 
L 188.904981 65.299376 
L 188.981137 65.061578 
L 189.13345 60.384881 
L 189.209607 60.464147 
L 189.285763 58.79956 
L 189.361919 53.568 
L 189.438076 54.122862 
L 189.666545 64.585982 
L 189.742701 66.171303 
L 189.818857 65.774972 
L 189.97117 62.842128 
L 190.047326 62.842128 
L 190.275796 54.439927 
L 190.428108 57.452037 
L 190.580421 56.421578 
L 190.732734 56.659376 
L 190.80889 58.244697 
L 190.885046 58.086165 
L 190.961203 58.244697 
L 191.037359 58.79956 
L 191.113515 65.933505 
L 191.189672 65.299376 
L 191.265828 65.299376 
L 191.341985 68.866349 
L 191.494297 66.963963 
L 191.570454 66.963963 
L 191.64661 65.457908 
L 191.798923 66.646899 
L 191.875079 66.963963 
L 191.951235 66.171303 
L 192.103548 60.384881 
L 192.255861 59.275156 
L 192.408174 65.378642 
L 192.48433 65.299376 
L 192.636643 63.714055 
L 192.712799 63.793321 
L 192.865112 64.665248 
L 193.017424 62.525064 
L 193.169737 63.476257 
L 193.398206 72.591853 
L 193.550519 70.45167 
L 193.702832 72.354055 
L 193.778988 72.354055 
L 193.931301 69.976073 
L 194.15977 73.305248 
L 194.312082 70.134606 
L 194.388239 69.659009 
L 194.540551 71.640661 
L 194.845177 71.640661 
L 194.921333 71.085798 
L 194.99749 72.354055 
L 195.073646 71.402862 
L 195.225959 76.000294 
L 195.454428 77.585615 
L 195.60674 79.012404 
L 195.759053 77.347817 
L 195.987522 76.634422 
L 196.139835 77.110018 
L 196.215991 76.951486 
L 196.368304 77.26855 
L 196.44446 77.26855 
L 196.596773 76.951486 
L 196.672929 77.189284 
L 196.825242 76.87222 
L 196.901399 77.030752 
L 197.053711 74.494239 
L 197.129868 73.86011 
L 197.206024 74.097908 
L 197.358337 69.183413 
L 197.434493 69.183413 
L 197.586806 73.146716 
L 197.662962 71.878459 
L 197.815275 74.652771 
L 197.891431 74.652771 
L 197.967587 73.146716 
L 198.043744 78.616073 
L 198.1199 78.219743 
L 198.272213 78.219743 
L 198.500682 70.768734 
L 198.576838 72.036991 
L 198.652995 71.402862 
L 198.729151 76.000294 
L 198.805307 74.335706 
L 198.881464 75.207633 
L 199.109933 68.23222 
L 199.262246 70.530936 
L 199.338402 71.719927 
L 199.643027 66.012771 
L 199.79534 73.06745 
L 199.871496 72.354055 
L 199.947653 72.433321 
L 200.023809 69.976073 
L 200.176122 73.06745 
L 200.328435 71.878459 
L 200.404591 66.171303 
L 200.480747 68.787083 
L 200.63306 68.787083 
L 200.709216 68.62855 
L 200.861529 67.360294 
L 201.013842 67.122495 
L 201.166154 64.110385 
L 201.242311 69.341945 
L 201.47078 64.506716 
L 201.623093 64.903046 
L 201.699249 64.42745 
L 201.851562 69.738275 
L 201.927718 69.183413 
L 202.003874 69.738275 
L 202.080031 69.183413 
L 202.232343 74.018642 
L 202.3085 72.829651 
L 202.384656 73.225982 
L 202.460812 73.305248 
L 202.536969 74.652771 
L 202.689282 68.311486 
L 202.765438 68.311486 
L 202.917751 68.549284 
L 203.070063 70.372404 
L 203.222376 68.62855 
L 203.374689 75.683229 
L 203.527001 68.470018 
L 203.603158 74.177174 
L 203.679314 74.097908 
L 203.907783 73.701578 
L 204.060096 71.165064 
L 204.136252 71.085798 
L 204.288565 77.26855 
L 204.364721 77.26855 
L 204.440878 77.110018 
L 204.59319 79.170936 
L 204.669347 78.933138 
L 204.82166 75.207633 
L 204.973972 75.841761 
L 205.354754 87.652404 
L 205.43091 88.286532 
L 205.583223 83.847633 
L 205.735536 89.079193 
L 205.887849 88.207266 
L 205.964005 88.207266 
L 206.040161 89.554789 
L 206.192474 85.432954 
L 206.344787 85.987817 
L 206.497099 87.652404 
L 206.573256 87.969468 
L 206.877881 84.085431 
L 207.030194 78.536807 
L 207.10635 78.536807 
L 207.258663 75.128367 
L 207.334819 74.811303 
L 207.487132 72.036991 
L 207.639445 72.036991 
L 207.715601 72.274789 
L 207.791757 72.195523 
L 207.867914 74.811303 
L 207.94407 74.494239 
L 208.096383 68.866349 
L 208.172539 68.62855 
L 208.324852 66.250569 
L 208.401008 68.390752 
L 208.477165 65.061578 
L 208.629477 70.293138 
L 208.78179 70.134606 
L 208.857946 67.43956 
L 208.934103 67.83589 
L 209.010259 66.250569 
L 209.162572 67.598092 
L 209.314885 67.360294 
L 209.391041 67.518826 
L 209.543354 68.073688 
L 209.61951 70.848 
L 209.695666 81.70745 
L 209.771823 79.488 
L 209.847979 78.378275 
L 210.152604 85.195156 
L 210.228761 83.768367 
L 210.45723 85.591486 
L 210.533386 85.036624 
L 210.838012 77.189284 
L 210.914168 80.280661 
L 210.990324 88.603596 
L 211.066481 87.335339 
L 211.142637 87.335339 
L 211.371106 87.890202 
L 211.523419 87.256073 
L 211.751888 88.128 
L 211.828044 82.737908 
L 211.904201 84.798826 
L 211.980357 84.481761 
L 212.056513 84.71956 
L 212.208826 78.219743 
L 212.361139 73.06745 
L 212.437295 74.25644 
L 212.589608 81.469651 
L 212.741921 84.085431 
L 212.818077 84.085431 
L 212.97039 84.561028 
L 213.046546 84.481761 
L 213.198859 85.591486 
L 213.351171 85.51222 
L 213.503484 88.365798 
L 213.57964 88.207266 
L 213.731953 83.926899 
L 213.80811 83.134239 
L 213.884266 83.530569 
L 213.960422 77.744147 
L 214.112735 86.939009 
L 214.188891 86.859743 
L 214.341204 82.262312 
L 214.41736 82.262312 
L 214.569673 78.061211 
L 214.645829 78.933138 
L 214.798142 77.585615 
L 214.874299 79.725798 
L 215.026611 77.506349 
L 215.102768 76.951486 
L 215.178924 70.689468 
L 215.25508 70.927266 
L 215.559706 73.146716 
L 215.635862 73.146716 
L 215.788175 72.512587 
L 215.864331 73.543046 
L 215.940487 73.305248 
L 216.016644 72.908917 
L 216.0928 73.225982 
L 216.245113 76.713688 
L 216.397426 77.664881 
L 216.473582 81.311119 
L 216.625895 79.488 
L 216.702051 79.170936 
L 216.854364 77.823413 
L 217.006676 72.195523 
L 217.082833 72.591853 
L 217.235146 68.390752 
L 217.311302 68.152954 
L 217.387458 65.299376 
L 217.463615 65.933505 
L 217.539771 65.854239 
L 217.615927 60.622679 
L 217.692084 61.336073 
L 217.844396 61.256807 
L 217.920553 60.067817 
L 218.072865 64.42745 
L 218.453647 70.134606 
L 218.529804 68.707817 
L 218.682116 73.939376 
L 218.758273 73.622312 
L 218.834429 74.177174 
L 218.986742 72.274789 
L 219.215211 82.420844 
L 219.519836 71.482128 
L 219.595993 75.762495 
L 219.672149 72.671119 
L 219.748305 73.06745 
L 219.900618 75.762495 
L 220.052931 75.762495 
L 220.2814 83.292771 
L 220.509869 76.07956 
L 220.586025 76.396624 
L 220.662182 75.445431 
L 220.890651 79.250202 
L 221.042963 74.890569 
L 221.11912 75.128367 
L 221.271432 74.25644 
L 221.423745 73.384514 
L 221.499901 73.780844 
L 221.652214 76.555156 
L 221.880683 76.555156 
L 222.337621 75.366165 
L 222.489934 76.792954 
L 222.56609 81.231853 
L 222.642247 72.591853 
L 222.718403 73.146716 
L 222.79456 73.543046 
L 222.870716 78.536807 
L 222.946872 75.524697 
L 223.023029 75.683229 
L 223.099185 75.921028 
L 223.479967 84.006165 
L 223.556123 83.292771 
L 223.708436 84.481761 
L 223.860749 77.189284 
L 223.936905 77.585615 
L 224.317687 72.591853 
L 224.393843 75.128367 
L 224.546156 81.945248 
L 224.698468 76.317358 
L 224.850781 76.396624 
L 224.926937 77.902679 
L 225.003094 74.573505 
L 225.07925 75.603963 
L 225.231563 73.622312 
L 225.383876 76.238092 
L 225.460032 76.47589 
L 225.536188 79.170936 
L 225.612345 79.09167 
L 225.688501 79.170936 
L 225.764657 80.359927 
L 225.91697 78.061211 
L 226.145439 89.237725 
L 226.221596 89.237725 
L 226.297752 90.188917 
L 226.373908 95.658275 
L 226.450065 93.35956 
L 226.526221 92.329101 
L 226.678534 93.201028 
L 226.75469 91.932771 
L 226.907003 100.097174 
L 227.059315 98.353321 
L 227.135472 99.225248 
L 227.211628 98.115523 
L 227.287785 98.511853 
L 227.363941 99.304514 
L 227.516254 97.005798 
L 227.59241 98.591119 
L 227.668566 98.115523 
L 227.973192 90.505982 
L 228.049348 83.847633 
L 228.125504 84.085431 
L 228.201661 84.085431 
L 228.277817 89.158459 
L 228.353974 82.341578 
L 228.43013 83.054972 
L 228.506286 83.292771 
L 228.810912 79.646532 
L 228.887068 80.676991 
L 228.963224 80.518459 
L 229.039381 80.518459 
L 229.115537 80.756257 
L 229.26785 75.286899 
L 229.344006 74.732037 
L 229.420162 74.890569 
L 229.496319 75.603963 
L 229.648632 71.878459 
L 229.724788 73.305248 
L 229.800944 73.86011 
L 229.953257 76.555156 
L 230.029413 77.110018 
L 230.10557 76.87222 
L 230.181726 76.87222 
L 230.257882 76.396624 
L 230.486351 77.347817 
L 230.562508 77.347817 
L 230.638664 80.518459 
L 230.714821 80.280661 
L 230.790977 79.725798 
L 230.867133 80.280661 
L 231.019446 75.841761 
L 231.095602 75.683229 
L 231.247915 74.652771 
L 231.400228 67.122495 
L 231.55254 67.201761 
L 231.628697 66.012771 
L 231.78101 68.23222 
L 231.933322 63.317725 
L 232.009479 62.683596 
L 232.085635 62.921394 
L 232.39026 75.207633 
L 232.466417 74.890569 
L 232.542573 75.049101 
L 232.771042 76.87222 
L 232.923355 76.713688 
L 233.075668 72.274789 
L 233.151824 73.146716 
L 233.304137 71.561394 
L 233.380293 72.354055 
L 233.532606 70.293138 
L 233.608762 70.530936 
L 233.761075 72.354055 
L 233.837231 72.591853 
L 234.0657 74.732037 
L 234.141857 75.524697 
L 234.294169 80.122128 
L 234.370326 79.963596 
L 234.522638 83.372037 
L 234.674951 81.311119 
L 234.751107 81.311119 
L 234.90342 82.262312 
L 235.131889 77.110018 
L 235.284202 79.170936 
L 235.512671 79.170936 
L 235.893453 77.427083 
L 236.045765 72.116257 
L 236.121922 72.116257 
L 236.274235 71.640661 
L 236.350391 71.719927 
L 236.57886 71.085798 
L 236.655016 71.085798 
L 236.731173 71.24433 
L 236.807329 70.927266 
L 236.959642 81.152587 
L 237.035798 80.756257 
L 237.111954 80.756257 
L 237.188111 80.518459 
L 237.340424 79.012404 
L 237.568893 79.012404 
L 237.645049 79.329468 
L 237.797362 78.933138 
L 238.025831 75.049101 
L 238.178143 74.969835 
L 238.2543 74.573505 
L 238.330456 77.981945 
L 238.482769 73.384514 
L 238.635082 74.177174 
L 238.863551 70.610202 
L 238.939707 71.006532 
L 239.244332 81.70745 
L 239.320489 80.914789 
L 239.472801 79.488 
L 239.548958 79.488 
L 239.853583 78.140477 
L 239.92974 78.299009 
L 240.005896 77.902679 
L 240.158209 74.25644 
L 240.234365 74.25644 
L 240.386678 75.286899 
L 240.462834 75.683229 
L 240.53899 71.561394 
L 240.615147 72.354055 
L 240.76746 77.030752 
L 240.843616 77.347817 
L 240.919772 79.09167 
L 241.072085 72.988183 
L 241.37671 71.402862 
L 241.452867 71.402862 
L 241.605179 79.408734 
L 241.681336 79.09167 
L 241.833649 79.646532 
L 241.909805 79.646532 
L 242.138274 76.555156 
L 242.21443 77.902679 
L 242.442899 89.079193 
L 242.595212 85.987817 
L 242.899838 84.561028 
L 242.975994 90.426716 
L 243.05215 90.109651 
L 243.204463 80.676991 
L 243.356776 87.097541 
L 243.509088 83.609835 
L 243.585245 83.609835 
L 243.737557 82.024514 
L 243.966026 82.89644 
L 244.042183 84.561028 
L 244.194496 82.975706 
L 244.346808 82.975706 
L 244.422965 87.493872 
L 244.499121 87.335339 
L 244.575277 87.493872 
L 244.72759 84.243963 
L 244.803746 84.243963 
L 244.879903 83.530569 
L 244.956059 89.951119 
L 245.032215 88.603596 
L 245.108372 88.999927 
L 245.184528 88.286532 
L 245.336841 91.694972 
L 245.412997 90.981578 
L 245.56531 88.445064 
L 245.641466 88.445064 
L 245.793779 86.621945 
L 245.869935 86.304881 
L 246.022248 90.188917 
L 246.098404 91.060844 
L 246.250717 90.426716 
L 246.326874 90.505982 
L 246.555343 89.079193 
L 246.631499 89.951119 
L 246.707655 86.463413 
L 246.783812 87.493872 
L 246.859968 90.268183 
L 246.936124 88.207266 
L 247.088437 92.487633 
L 247.316906 92.487633 
L 247.469219 92.249835 
L 247.697688 92.804697 
L 247.773844 84.71956 
L 247.850001 84.957358 
L 248.002313 90.585248 
L 248.07847 84.402495 
L 248.154626 84.71956 
L 248.230782 83.926899 
L 248.306939 88.048734 
L 248.535408 80.994055 
L 248.611564 81.469651 
L 248.763877 83.213505 
L 248.840033 82.579376 
L 249.068502 72.591853 
L 249.220815 72.671119 
L 249.296971 77.189284 
L 249.373128 76.951486 
L 249.52544 76.713688 
L 249.601597 80.042862 
L 249.677753 79.646532 
L 249.906222 80.835523 
L 250.058535 78.933138 
L 250.134691 80.359927 
L 250.36316 74.573505 
L 250.515473 73.701578 
L 250.591629 72.433321 
L 250.667786 75.445431 
L 250.743942 75.207633 
L 250.820099 76.555156 
L 250.972411 82.817174 
L 251.124724 80.756257 
L 251.20088 80.914789 
L 251.353193 84.640294 
L 251.581662 80.280661 
L 251.733975 80.280661 
L 251.810131 80.439193 
L 251.886288 80.359927 
L 252.114757 87.018275 
L 252.343226 83.451303 
L 252.419382 83.451303 
L 252.571695 83.213505 
L 252.800164 83.292771 
L 252.952476 80.756257 
L 253.104789 84.402495 
L 253.180946 81.469651 
L 253.257102 81.865982 
L 253.561727 87.414606 
L 253.71404 86.701211 
L 253.790196 90.030385 
L 253.866353 89.871853 
L 253.942509 89.713321 
L 254.018665 89.951119 
L 254.094822 92.249835 
L 254.247135 89.396257 
L 254.475604 89.396257 
L 254.55176 88.682862 
L 254.704073 89.079193 
L 254.780229 89.079193 
L 254.932542 82.737908 
L 255.008698 82.975706 
L 255.084854 78.219743 
L 255.161011 78.378275 
L 255.237167 76.07956 
L 255.313324 76.713688 
L 255.465636 76.713688 
L 255.694105 81.311119 
L 255.770262 79.170936 
L 255.846418 83.213505 
L 255.922574 81.548917 
L 256.074887 81.548917 
L 256.2272 84.243963 
L 256.303356 84.243963 
L 256.379513 83.847633 
L 256.531825 80.042862 
L 256.607982 80.042862 
L 256.684138 77.744147 
L 256.836451 80.359927 
L 256.988763 81.945248 
L 257.141076 77.823413 
L 257.217232 78.774606 
L 257.293389 76.47589 
L 257.826483 86.542679 
L 257.90264 86.304881 
L 257.978796 85.432954 
L 258.054952 85.51222 
L 258.131109 85.51222 
L 258.207265 85.670752 
L 258.359578 80.756257 
L 258.435734 79.09167 
L 258.51189 81.70745 
L 258.588047 80.122128 
L 259.044985 98.511853 
L 259.121141 98.115523 
L 259.197298 98.670385 
L 259.34961 95.737541 
L 259.501923 95.975339 
L 259.578079 95.024147 
L 259.654236 98.98745 
L 259.730392 98.908183 
L 259.806549 96.847266 
L 259.882705 96.926532 
L 260.035018 97.560661 
L 260.111174 90.902312 
L 260.18733 91.298642 
L 260.263487 89.396257 
L 260.339643 89.554789 
L 260.491956 89.713321 
L 260.644268 84.71956 
L 260.796581 87.414606 
L 260.872738 88.207266 
L 260.948894 82.579376 
L 261.02505 87.493872 
L 261.101207 86.939009 
L 261.177363 82.341578 
L 261.253519 82.89644 
L 261.329676 84.798826 
L 261.481988 78.140477 
L 261.710457 78.140477 
L 261.86277 82.10378 
L 262.015083 76.634422 
L 262.091239 80.280661 
L 262.167396 79.88433 
L 262.243552 73.305248 
L 262.319708 73.701578 
L 262.395865 73.701578 
L 262.624334 74.414972 
L 262.70049 74.414972 
L 262.776646 72.512587 
L 262.928959 67.201761 
L 263.005115 69.104147 
L 263.157428 64.189651 
L 263.233585 66.409101 
L 263.385897 64.348183 
L 263.614366 64.982312 
L 263.690523 64.585982 
L 263.766679 66.329835 
L 263.842835 65.933505 
L 263.918992 65.854239 
L 264.071304 73.46378 
L 264.147461 73.622312 
L 264.223617 67.915156 
L 264.299774 68.311486 
L 264.452086 74.018642 
L 264.756712 76.317358 
L 264.832868 80.439193 
L 264.909024 80.280661 
L 264.985181 80.280661 
L 265.289806 84.561028 
L 265.442119 84.561028 
L 265.594432 82.658642 
L 265.670588 82.975706 
L 265.822901 78.140477 
L 265.899057 78.140477 
L 266.05137 77.902679 
L 266.127526 75.921028 
L 266.660621 86.780477 
L 266.812933 85.274422 
L 267.346028 92.408367 
L 267.422184 92.012037 
L 267.650653 92.804697 
L 267.72681 87.573138 
L 267.879122 100.097174 
L 267.955279 100.017908 
L 268.107591 99.938642 
L 268.183748 93.676624 
L 268.259904 97.877725 
L 268.33606 97.481394 
L 268.564529 97.402128 
L 268.640686 91.932771 
L 268.869155 98.670385 
L 268.945311 100.097174 
L 269.021468 99.859376 
L 269.097624 99.859376 
L 269.326093 99.066716 
L 269.478406 99.145982 
L 269.554562 100.097174 
L 269.630718 98.036257 
L 269.859188 104.219009 
L 270.0115 98.511853 
L 270.163813 98.591119 
L 270.392282 95.499743 
L 270.468438 99.700844 
L 270.544595 99.145982 
L 270.620751 99.225248 
L 270.773064 98.98745 
L 270.925376 94.231486 
L 271.001533 97.16433 
L 271.077689 96.926532 
L 271.230002 95.816807 
L 271.306158 90.34745 
L 271.382315 90.426716 
L 271.458471 90.34745 
L 271.534627 92.487633 
L 271.68694 87.493872 
L 271.763096 87.493872 
L 272.067722 82.658642 
L 272.220035 86.067083 
L 272.372347 82.262312 
L 272.52466 82.262312 
L 272.676973 86.463413 
L 272.753129 85.274422 
L 272.829285 86.939009 
L 272.905442 86.621945 
L 272.981598 86.621945 
L 273.133911 86.780477 
L 273.210067 86.780477 
L 273.286224 86.621945 
L 273.36238 81.70745 
L 273.438536 81.786716 
L 273.514693 80.359927 
L 273.590849 80.597725 
L 273.667005 80.994055 
L 273.895474 73.701578 
L 273.971631 73.622312 
L 274.047787 73.701578 
L 274.2001 71.957725 
L 274.276256 71.402862 
L 274.504725 75.524697 
L 274.580882 77.664881 
L 274.657038 75.445431 
L 274.809351 82.89644 
L 274.961663 82.658642 
L 275.03782 77.030752 
L 275.113976 77.110018 
L 275.190132 77.189284 
L 275.342445 78.299009 
L 275.494758 73.305248 
L 275.570914 73.305248 
L 275.723227 76.47589 
L 275.87554 76.47589 
L 275.951696 76.238092 
L 276.104009 77.110018 
L 276.180165 82.658642 
L 276.256321 80.122128 
L 276.408634 77.347817 
L 276.637103 76.951486 
L 276.789416 77.981945 
L 277.017885 90.74378 
L 277.094041 91.14011 
L 277.170198 86.780477 
L 277.246354 92.249835 
L 277.32251 91.932771 
L 277.474823 88.365798 
L 277.703292 87.969468 
L 277.931761 94.390018 
L 278.084074 94.469284 
L 278.16023 94.310752 
L 278.312543 96.768 
L 278.464856 96.530202 
L 278.541012 96.688734 
L 278.617168 99.145982 
L 278.921794 93.518092 
L 279.074107 94.231486 
L 279.302576 93.35956 
L 279.531045 97.085064 
L 279.683357 95.024147 
L 279.759514 94.469284 
L 279.83567 99.145982 
L 279.987983 96.213138 
L 280.216452 94.390018 
L 280.368765 94.310752 
L 280.444921 94.707083 
L 280.597234 90.188917 
L 280.67339 92.725431 
L 280.825703 88.445064 
L 280.901859 88.445064 
L 280.978015 83.213505 
L 281.054172 84.957358 
L 281.130328 84.878092 
L 281.358797 95.816807 
L 281.587266 94.627817 
L 281.739579 85.51222 
L 281.815735 89.951119 
L 281.891892 88.286532 
L 281.968048 88.286532 
L 282.044204 88.762128 
L 282.196517 95.182679 
L 282.34883 95.182679 
L 282.501143 98.353321 
L 282.577299 98.432587 
L 282.653455 97.956991 
L 282.805768 98.670385 
L 282.958081 98.908183 
L 283.034237 96.688734 
L 283.110393 96.768 
L 283.262706 98.511853 
L 283.338863 97.798459 
L 283.491175 93.121761 
L 283.567332 93.597358 
L 283.643488 93.438826 
L 283.795801 93.201028 
L 284.02427 95.896073 
L 284.100426 95.737541 
L 284.176582 95.420477 
L 284.252739 93.597358 
L 284.405052 96.768 
L 284.709677 87.73167 
L 284.785833 87.890202 
L 285.090459 89.871853 
L 285.166615 89.871853 
L 285.318928 88.920661 
L 285.395084 88.999927 
L 285.623553 88.999927 
L 285.69971 88.52433 
L 285.928179 80.994055 
L 286.156648 81.073321 
L 286.232804 80.676991 
L 286.385117 83.451303 
L 286.613586 82.737908 
L 286.765899 83.134239 
L 286.994368 81.390385 
L 287.14668 87.256073 
L 287.298993 87.176807 
L 287.451306 88.682862 
L 287.527462 88.286532 
L 287.679775 88.762128 
L 287.832088 81.311119 
L 287.9844 80.756257 
L 288.060557 80.835523 
L 288.136713 80.122128 
L 288.212869 80.280661 
L 288.365182 80.280661 
L 288.441338 80.439193 
L 288.517495 79.646532 
L 288.669807 82.89644 
L 288.82212 83.054972 
L 288.974433 83.134239 
L 289.050589 88.841394 
L 289.126746 86.225615 
L 289.202902 86.304881 
L 289.431371 81.073321 
L 289.507527 81.70745 
L 289.583684 80.914789 
L 289.65984 81.231853 
L 289.812153 81.70745 
L 289.964465 76.317358 
L 290.192935 76.87222 
L 290.269091 76.87222 
L 290.345247 76.634422 
L 290.49756 77.26855 
L 290.649873 81.152587 
L 290.726029 81.152587 
L 290.802185 81.390385 
L 290.954498 77.902679 
L 291.030654 78.140477 
L 291.106811 78.061211 
L 291.182967 79.329468 
L 291.259124 77.823413 
L 291.33528 80.597725 
L 291.411436 80.518459 
L 291.563749 80.676991 
L 291.639905 80.439193 
L 291.716062 85.750018 
L 291.792218 83.689101 
L 292.020687 78.378275 
L 292.249156 83.926899 
L 292.401469 83.847633 
L 292.553782 88.841394 
L 292.706094 88.682862 
L 292.782251 88.762128 
L 293.01072 97.877725 
L 293.086876 97.085064 
L 293.163032 99.700844 
L 293.315345 92.963229 
L 293.467658 92.566899 
L 293.619971 92.487633 
L 293.772283 93.438826 
L 293.924596 89.951119 
L 294.076909 91.377908 
L 294.153065 91.377908 
L 294.305378 86.621945 
L 294.45769 86.621945 
L 294.533847 87.493872 
L 294.68616 85.353688 
L 294.914629 87.73167 
L 294.990785 87.969468 
L 295.066941 92.408367 
L 295.143098 92.249835 
L 295.29541 93.042495 
L 295.447723 92.408367 
L 295.523879 98.432587 
L 295.600036 98.353321 
L 295.676192 98.908183 
L 295.752349 100.889835 
L 295.828505 100.572771 
L 295.904661 100.652037 
L 296.056974 100.969101 
L 296.13313 100.969101 
L 296.361599 98.115523 
L 296.513912 97.005798 
L 296.742381 103.267817 
L 296.894694 99.38378 
L 296.97085 99.225248 
L 297.123163 93.676624 
L 297.503945 93.121761 
L 297.656257 95.420477 
L 297.732414 95.420477 
L 297.884727 94.865615 
L 297.960883 94.865615 
L 298.113196 93.518092 
L 298.189352 93.835156 
L 298.341665 90.109651 
L 298.493977 88.999927 
L 298.722446 88.445064 
L 298.798603 88.445064 
L 298.874759 85.750018 
L 298.950915 86.463413 
L 299.179385 86.542679 
L 299.407854 83.054972 
L 299.48401 83.213505 
L 299.560166 85.51222 
L 299.712479 80.756257 
L 299.940948 79.88433 
L 300.550199 79.88433 
L 300.626355 79.408734 
L 300.702512 80.122128 
L 300.778668 79.725798 
L 300.854824 80.042862 
L 300.930981 79.725798 
L 301.007137 81.390385 
L 301.083293 80.994055 
L 301.235606 81.073321 
L 301.387919 80.122128 
L 301.540232 80.914789 
L 301.692544 80.439193 
L 301.768701 80.518459 
L 301.844857 80.439193 
L 301.99717 76.634422 
L 302.073326 77.189284 
L 302.301795 77.26855 
L 302.377952 77.26855 
L 302.454108 82.10378 
L 302.530264 82.024514 
L 302.682577 81.548917 
L 302.758733 81.231853 
L 302.911046 79.488 
L 303.063359 79.09167 
L 303.215671 82.420844 
L 303.291828 82.89644 
L 303.367984 81.945248 
L 303.44414 82.183046 
L 303.520297 81.786716 
L 303.67261 87.969468 
L 303.748766 84.957358 
L 303.824922 85.353688 
L 303.977235 85.353688 
L 304.053391 84.71956 
L 304.205704 88.048734 
L 304.28186 88.128 
L 304.434173 89.554789 
L 304.510329 89.554789 
L 304.586486 89.396257 
L 304.662642 87.335339 
L 304.814955 92.963229 
L 304.891111 92.170569 
L 304.967268 87.097541 
L 305.043424 91.694972 
L 305.11958 87.969468 
L 305.195737 88.841394 
L 305.348049 87.890202 
L 305.500362 87.256073 
L 305.728831 88.048734 
L 305.804988 88.207266 
L 305.881144 88.048734 
L 306.033457 82.262312 
L 306.109613 82.262312 
L 306.185769 82.024514 
L 306.338082 80.994055 
L 306.414238 80.994055 
L 306.490395 85.274422 
L 306.566551 85.195156 
L 306.642707 85.195156 
L 306.79502 92.725431 
L 306.947333 98.749651 
L 307.099646 100.097174 
L 307.175802 98.98745 
L 307.251958 99.225248 
L 307.328115 93.518092 
L 307.404271 94.786349 
L 307.556584 95.420477 
L 307.63274 95.261945 
L 307.785053 92.646165 
L 307.861209 92.646165 
L 308.013522 88.841394 
L 308.165835 88.445064 
L 308.241991 88.445064 
L 308.47046 92.487633 
L 308.622773 90.664514 
L 308.698929 94.469284 
L 308.775085 93.35956 
L 308.927398 93.75589 
L 309.003554 87.414606 
L 309.079711 87.810936 
L 309.232024 85.670752 
L 309.384336 85.750018 
L 309.536649 80.676991 
L 309.688962 85.353688 
L 309.841274 85.51222 
L 309.917431 85.353688 
L 310.069743 82.579376 
L 310.1459 85.195156 
L 310.222056 84.323229 
L 310.298213 84.243963 
L 310.374369 84.402495 
L 310.602838 96.530202 
L 310.678994 96.609468 
L 310.831307 94.707083 
L 310.907463 94.707083 
L 311.059776 88.841394 
L 311.135932 88.841394 
L 311.288245 83.292771 
L 311.364402 84.798826 
L 311.516714 89.396257 
L 311.82134 93.914422 
L 311.897496 92.804697 
L 311.973652 93.042495 
L 312.049809 93.042495 
L 312.202121 92.329101 
L 312.278278 95.579009 
L 312.354434 89.237725 
L 312.43059 90.585248 
L 312.506747 90.585248 
L 312.65906 91.219376 
L 312.735216 90.823046 
L 312.887529 88.841394 
L 313.039841 91.694972 
L 313.115998 92.170569 
L 313.192154 94.865615 
L 313.344467 88.128 
L 313.420623 89.316991 
L 313.496779 89.316991 
L 313.572936 88.999927 
L 313.649092 89.951119 
L 313.725249 89.475523 
L 313.877561 90.030385 
L 313.953718 90.030385 
L 314.10603 98.511853 
L 314.258343 98.591119 
L 314.334499 93.676624 
L 314.410656 93.993688 
L 314.486812 94.627817 
L 314.639125 89.396257 
L 314.715281 89.396257 
L 314.94375 99.621578 
L 315.096063 103.18855 
L 315.248376 100.097174 
L 315.324532 100.255706 
L 315.400688 94.231486 
L 315.476845 94.54855 
L 315.78147 94.627817 
L 315.857627 93.280294 
L 315.933783 93.676624 
L 316.009939 92.963229 
L 316.086096 93.121761 
L 316.238408 97.719193 
L 316.314565 99.145982 
L 316.466877 95.499743 
L 316.61919 95.261945 
L 316.695346 95.341211 
L 316.847659 94.54855 
L 316.923815 90.902312 
L 316.999972 91.060844 
L 317.152285 92.091303 
L 317.228441 91.853505 
L 317.304597 90.030385 
L 317.380754 90.664514 
L 317.45691 90.74378 
L 317.533066 91.060844 
L 317.685379 86.780477 
L 317.761535 86.146349 
L 317.990004 87.414606 
L 318.066161 87.493872 
L 318.370786 102.475156 
L 318.599255 102.554422 
L 318.827724 108.103046 
L 318.980037 108.02378 
L 319.208506 110.005431 
L 319.284663 108.182312 
L 319.360819 108.261578 
L 319.513132 108.737174 
L 319.665444 107.389651 
L 319.817757 110.63956 
L 319.893913 105.962862 
L 319.97007 106.042128 
L 320.122382 112.383413 
L 320.274695 108.261578 
L 320.427008 107.865248 
L 320.503164 104.773872 
L 320.655477 108.578642 
L 320.731633 107.62745 
L 321.036259 107.62745 
L 321.112415 107.785982 
L 321.264728 108.340844 
L 321.340884 108.42011 
L 321.493197 103.664147 
L 321.569353 103.664147 
L 321.721666 102.475156 
L 321.873979 102.475156 
L 322.026291 97.16433 
L 322.178604 97.085064 
L 322.25476 96.530202 
L 322.330917 96.609468 
L 322.407073 96.688734 
L 322.559386 97.243596 
L 322.711699 97.481394 
L 322.864011 97.085064 
L 322.940168 95.420477 
L 323.016324 95.499743 
L 323.09248 97.798459 
L 323.168637 95.182679 
L 323.244793 95.816807 
L 323.549418 92.170569 
L 323.854044 82.024514 
L 324.006357 87.890202 
L 324.082513 87.890202 
L 324.158669 88.128 
L 324.234826 87.018275 
L 324.310982 87.335339 
L 324.387138 87.018275 
L 324.539451 80.518459 
L 324.615607 80.994055 
L 324.691764 77.823413 
L 324.76792 78.616073 
L 324.844077 77.902679 
L 324.920233 78.299009 
L 324.996389 78.219743 
L 325.072546 74.969835 
L 325.224858 76.555156 
L 325.301015 73.305248 
L 325.453327 76.951486 
L 325.60564 78.299009 
L 325.681796 78.299009 
L 325.834109 78.695339 
L 325.910265 72.512587 
L 325.986422 72.591853 
L 326.138735 72.512587 
L 326.214891 72.274789 
L 326.291047 69.421211 
L 326.44336 73.939376 
L 326.595673 73.701578 
L 326.747985 75.841761 
L 326.900298 73.543046 
L 326.976454 74.177174 
L 327.204924 81.865982 
L 327.357236 83.847633 
L 327.433393 83.609835 
L 327.509549 81.865982 
L 327.585705 82.024514 
L 327.738018 82.10378 
L 327.814174 82.024514 
L 327.966487 84.640294 
L 328.042643 98.274055 
L 328.1188 97.877725 
L 328.194956 97.877725 
L 328.271113 95.499743 
L 328.347269 95.658275 
L 328.499582 98.511853 
L 328.651894 90.505982 
L 328.728051 92.566899 
L 328.804207 92.725431 
L 328.95652 84.71956 
L 329.108832 84.561028 
L 329.184989 84.561028 
L 329.413458 86.225615 
L 329.565771 86.225615 
L 329.946552 92.646165 
L 330.175021 82.420844 
L 330.327334 86.067083 
L 330.40349 86.304881 
L 330.479647 90.664514 
L 330.555803 90.268183 
L 330.708116 92.408367 
L 330.860429 86.304881 
L 331.012741 88.207266 
L 331.088898 87.969468 
L 331.24121 87.256073 
L 331.317367 81.786716 
L 331.393523 82.658642 
L 331.469679 82.737908 
L 331.545836 82.579376 
L 331.621992 86.304881 
L 331.850461 82.262312 
L 331.926618 82.420844 
L 332.07893 83.292771 
L 332.231243 80.676991 
L 332.459712 80.597725 
L 332.535868 80.201394 
L 332.764338 88.52433 
L 332.840494 88.52433 
L 332.91665 88.682862 
L 332.992807 81.469651 
L 333.068963 81.628183 
L 333.145119 81.628183 
L 333.221276 90.188917 
L 333.297432 89.871853 
L 333.373588 89.871853 
L 333.449745 89.713321 
L 333.525901 89.792587 
L 333.678214 89.713321 
L 333.906683 92.012037 
L 333.982839 92.012037 
L 334.058996 92.170569 
L 334.135152 92.012037 
L 334.211308 93.35956 
L 334.287465 93.042495 
L 334.363621 93.042495 
L 334.439777 92.091303 
L 334.515934 92.408367 
L 334.59209 91.932771 
L 334.744403 93.835156 
L 334.820559 93.835156 
L 334.896716 94.072954 
L 335.049028 92.091303 
L 335.125185 92.725431 
L 335.277497 90.902312 
L 335.42981 96.054606 
L 335.505966 95.737541 
L 335.582123 96.054606 
L 335.734435 95.579009 
L 335.886748 95.182679 
L 335.962904 94.310752 
L 336.039061 89.634055 
L 336.115217 90.505982 
L 336.191374 90.74378 
L 336.26753 89.951119 
L 336.343686 87.890202 
L 336.495999 92.963229 
L 336.572155 90.505982 
L 336.648312 90.585248 
L 336.724468 91.377908 
L 336.800624 95.816807 
L 336.876781 93.75589 
L 336.952937 94.15222 
L 337.10525 94.072954 
L 337.257563 94.786349 
L 337.333719 94.786349 
L 337.486032 95.261945 
L 337.562188 95.261945 
L 337.866813 94.627817 
L 337.94297 94.707083 
L 338.019126 95.024147 
L 338.095282 94.310752 
L 338.171439 90.823046 
L 338.247595 90.902312 
L 338.323752 90.981578 
L 338.399908 90.664514 
L 338.628377 86.146349 
L 338.704533 90.585248 
L 338.856846 86.859743 
L 339.009159 85.670752 
L 339.085315 85.51222 
L 339.237628 86.621945 
L 339.313784 93.201028 
L 339.389941 92.487633 
L 339.542253 87.335339 
L 339.61841 87.414606 
L 339.694566 86.701211 
L 339.770722 87.018275 
L 339.923035 89.079193 
L 339.999191 88.999927 
L 340.075348 87.176807 
L 340.151504 87.969468 
L 340.22766 87.573138 
L 340.379973 83.054972 
L 340.456129 82.341578 
L 340.532286 79.646532 
L 340.608442 81.231853 
L 340.684599 81.152587 
L 340.836911 80.676991 
L 340.913068 80.676991 
L 340.989224 80.518459 
L 341.06538 80.835523 
L 341.217693 80.122128 
L 341.370006 80.122128 
L 341.522318 82.341578 
L 341.674631 76.87222 
L 341.750788 78.061211 
L 341.9031 75.445431 
L 342.055413 75.445431 
L 342.131569 75.603963 
L 342.283882 76.238092 
L 342.360038 74.335706 
L 342.664664 90.188917 
L 342.74082 90.188917 
L 342.893133 92.566899 
L 342.969289 92.487633 
L 343.045446 91.377908 
L 343.197758 93.201028 
L 343.350071 90.981578 
L 343.426227 93.35956 
L 343.502384 88.286532 
L 343.57854 88.603596 
L 343.730853 86.384147 
L 343.807009 86.384147 
L 343.959322 88.048734 
L 344.111635 88.048734 
L 344.340104 80.359927 
L 344.492416 91.377908 
L 344.568573 90.268183 
L 344.720885 92.804697 
L 344.797042 92.804697 
L 345.025511 77.347817 
L 345.101667 77.585615 
L 345.177824 79.170936 
L 345.25398 79.012404 
L 345.330136 79.012404 
L 345.406293 79.250202 
L 345.482449 76.238092 
L 345.558605 77.110018 
L 345.634762 76.951486 
L 345.787074 77.427083 
L 345.939387 76.158826 
L 346.0917 76.000294 
L 346.244013 78.933138 
L 346.320169 79.09167 
L 346.548638 80.042862 
L 346.700951 76.555156 
L 346.853263 82.50011 
L 346.92942 82.50011 
L 347.081732 76.317358 
L 347.462514 72.512587 
L 347.538671 72.671119 
L 347.614827 71.957725 
L 347.690983 72.671119 
L 347.76714 75.921028 
L 347.843296 75.207633 
L 348.147921 74.494239 
L 348.224078 74.494239 
L 348.300234 75.683229 
L 348.376391 80.042862 
L 348.452547 78.695339 
L 348.60486 77.347817 
L 348.757172 82.341578 
L 348.909485 82.420844 
L 348.985641 78.536807 
L 349.137954 80.676991 
L 349.290267 78.853872 
L 349.442579 78.695339 
L 349.518736 81.628183 
L 349.594892 74.732037 
L 349.671049 74.969835 
L 349.823361 69.262679 
L 349.899518 74.732037 
L 349.975674 73.701578 
L 350.05183 73.543046 
L 350.508768 81.231853 
L 350.813394 75.921028 
L 350.965707 77.981945 
L 351.118019 78.061211 
L 351.270332 79.805064 
L 351.346488 79.805064 
L 351.422645 84.561028 
L 351.72727 76.317358 
L 351.879583 75.286899 
L 351.955739 75.049101 
L 352.108052 75.207633 
L 352.260365 68.945615 
L 352.336521 69.104147 
L 352.412677 72.908917 
L 352.488834 72.671119 
L 352.717303 61.415339 
L 352.869616 67.043229 
L 353.021928 67.043229 
L 353.174241 74.177174 
L 353.326554 69.421211 
L 353.40271 69.341945 
L 353.478866 68.866349 
L 353.555023 69.896807 
L 353.707335 68.390752 
L 353.783492 68.152954 
L 353.859648 69.421211 
L 353.935804 68.390752 
L 354.088117 69.738275 
L 354.24043 69.104147 
L 354.316586 70.610202 
L 354.468899 74.732037 
L 354.545055 68.945615 
L 354.621212 69.024881 
L 354.697368 69.341945 
L 354.849681 72.988183 
L 354.925837 66.963963 
L 355.001993 69.738275 
L 355.07815 69.579743 
L 355.230463 69.659009 
L 355.306619 72.274789 
L 355.382775 71.799193 
L 355.535088 71.482128 
L 355.687401 71.402862 
L 355.763557 67.598092 
L 355.839713 68.549284 
L 355.91587 69.579743 
L 356.144339 62.208 
L 356.296652 69.817541 
L 356.372808 69.817541 
L 356.525121 69.024881 
L 356.601277 70.45167 
L 356.829746 64.110385 
L 357.058215 61.970202 
L 357.134371 63.159193 
L 357.210528 62.921394 
L 357.286684 62.921394 
L 357.362841 63.079927 
L 357.438997 62.683596 
L 357.59131 60.543413 
L 357.743622 61.415339 
L 358.048248 59.830018 
L 358.124404 60.067817 
L 358.276717 68.23222 
L 358.429029 61.732404 
L 358.505186 62.921394 
L 358.657499 61.098275 
L 358.733655 61.494606 
L 358.809811 61.573872 
L 359.03828 64.348183 
L 359.114437 64.348183 
L 359.190593 64.506716 
L 359.266749 64.42745 
L 359.342906 63.872587 
L 359.419062 67.598092 
L 359.495218 67.518826 
L 359.647531 65.22011 
L 359.723688 65.537174 
L 359.876 68.073688 
L 359.952157 68.073688 
L 360.104469 68.62855 
L 360.256782 62.366532 
L 360.332938 62.683596 
L 360.409095 66.329835 
L 360.485251 66.092037 
L 360.561407 65.695706 
L 360.637564 70.213872 
L 360.71372 69.659009 
L 360.866033 67.43956 
L 360.942189 68.311486 
L 361.094502 67.360294 
L 361.246815 68.311486 
L 361.475284 65.378642 
L 361.703753 65.378642 
L 361.932222 72.671119 
L 362.008378 72.036991 
L 362.084535 77.902679 
L 362.236847 71.402862 
L 362.38916 77.585615 
L 362.541473 77.427083 
L 362.617629 82.975706 
L 362.693785 81.865982 
L 362.846098 83.768367 
L 363.074567 83.847633 
L 363.150724 87.573138 
L 363.379193 78.061211 
L 363.455349 78.378275 
L 363.531505 78.061211 
L 363.912287 100.652037 
L 364.0646 102.39589 
L 364.216913 98.98745 
L 364.369225 99.145982 
L 364.521538 105.408 
L 364.597694 104.853138 
L 364.750007 102.950752 
L 364.90232 97.798459 
L 364.978476 97.798459 
L 365.130789 95.816807 
L 365.283102 96.292404 
L 365.511571 90.188917 
L 365.587727 93.835156 
L 365.663883 92.329101 
L 365.816196 91.457174 
L 365.968509 91.615706 
L 366.044665 88.365798 
L 366.120821 89.237725 
L 366.196978 87.414606 
L 366.273134 87.573138 
L 366.425447 87.493872 
L 366.57776 93.676624 
L 366.653916 93.121761 
L 366.730072 93.201028 
L 366.882385 93.201028 
L 367.110854 91.298642 
L 367.18701 92.963229 
L 367.339323 87.73167 
L 367.491636 91.53644 
L 367.567792 91.14011 
L 367.643949 91.694972 
L 367.796261 90.74378 
L 367.872418 91.457174 
L 368.02473 81.865982 
L 368.100887 82.420844 
L 368.177043 79.170936 
L 368.253199 84.323229 
L 368.329356 84.164697 
L 368.481668 85.591486 
L 368.557825 85.591486 
L 368.786294 84.323229 
L 368.938607 85.036624 
L 369.090919 77.506349 
L 369.167076 77.506349 
L 369.243232 79.963596 
L 369.395545 77.744147 
L 369.471701 77.664881 
L 369.547857 80.201394 
L 369.624014 79.963596 
L 369.70017 80.201394 
L 369.928639 84.085431 
L 370.080952 89.792587 
L 370.157108 89.792587 
L 370.309421 90.030385 
L 370.385577 90.030385 
L 370.53789 89.713321 
L 370.766359 89.634055 
L 370.842516 89.634055 
L 370.994828 87.890202 
L 371.070985 87.890202 
L 371.299454 91.457174 
L 371.37561 90.426716 
L 371.451766 92.091303 
L 371.527923 91.694972 
L 371.680235 86.701211 
L 371.832548 92.170569 
L 371.908704 92.249835 
L 372.061017 80.994055 
L 372.137174 81.865982 
L 372.289486 81.311119 
L 372.365643 81.548917 
L 372.594112 90.188917 
L 372.746424 90.268183 
L 372.822581 90.34745 
L 372.974893 89.871853 
L 373.05105 89.871853 
L 373.203363 92.329101 
L 373.279519 91.219376 
L 373.355675 91.298642 
L 373.431832 91.615706 
L 373.660301 89.079193 
L 373.812613 89.475523 
L 373.88877 92.170569 
L 373.964926 92.012037 
L 374.041082 87.018275 
L 374.117239 87.176807 
L 374.345708 83.292771 
L 374.574177 84.164697 
L 374.72649 83.926899 
L 374.802646 86.780477 
L 374.878802 86.384147 
L 375.031115 84.085431 
L 375.107271 84.085431 
L 375.411897 100.097174 
L 375.488053 100.097174 
L 375.640366 100.334972 
L 375.868835 99.542312 
L 376.021148 97.005798 
L 376.097304 103.505615 
L 376.17346 102.633688 
L 376.249617 102.633688 
L 376.478086 93.042495 
L 376.554242 93.042495 
L 376.630399 92.804697 
L 376.706555 91.932771 
L 376.858868 87.810936 
L 376.935024 87.493872 
L 377.087337 88.207266 
L 377.239649 91.060844 
L 377.315806 91.14011 
L 377.391962 91.060844 
L 377.468118 88.762128 
L 377.620431 91.457174 
L 377.696588 86.621945 
L 377.772744 86.859743 
L 378.001213 89.871853 
L 378.077369 89.554789 
L 378.229682 95.499743 
L 378.381995 98.432587 
L 378.458151 99.145982 
L 378.534307 98.908183 
L 378.68662 89.475523 
L 378.991246 88.286532 
L 379.143558 88.365798 
L 379.219715 88.682862 
L 379.372027 88.048734 
L 379.52434 91.298642 
L 379.600496 91.377908 
L 379.752809 95.896073 
L 379.828966 95.896073 
L 379.905122 98.036257 
L 379.981278 97.005798 
L 380.057435 93.438826 
L 380.133591 93.597358 
L 380.209747 92.804697 
L 380.285904 93.121761 
L 380.438216 97.16433 
L 380.514373 97.16433 
L 380.590529 97.956991 
L 380.666685 95.816807 
L 380.818998 89.792587 
L 381.047467 100.255706 
L 381.19978 96.688734 
L 381.275936 96.926532 
L 381.580562 96.133872 
L 381.732874 89.475523 
L 381.809031 90.188917 
L 381.961343 92.329101 
L 382.0375 92.725431 
L 382.113656 92.646165 
L 382.418282 92.963229 
L 382.570594 104.932404 
L 382.722907 104.932404 
L 382.87522 105.883596 
L 382.951376 105.883596 
L 383.027532 106.042128 
L 383.103689 105.487266 
L 383.179845 109.767633 
L 383.256002 109.212771 
L 383.332158 108.657908 
L 383.408314 112.224881 
L 383.560627 110.084697 
L 383.71294 110.798092 
L 383.865252 109.926165 
L 383.941409 109.846899 
L 384.093721 109.133505 
L 384.322191 108.657908 
L 384.398347 108.895706 
L 384.474503 102.078826 
L 384.702972 107.389651 
L 384.779129 107.389651 
L 384.855285 108.02378 
L 385.083754 115.554055 
L 385.236067 115.474789 
L 385.464536 108.02378 
L 385.540692 107.706716 
L 385.616849 108.340844 
L 385.693005 112.700477 
L 385.769161 112.145615 
L 385.99763 113.572404 
L 386.226099 108.578642 
L 386.454568 106.834789 
L 386.530725 112.383413 
L 386.683038 107.468917 
L 386.83535 110.243229 
L 386.911507 110.243229 
L 387.063819 111.273688 
L 387.139976 111.194422 
L 387.292288 114.840661 
L 387.368445 114.919927 
L 387.520757 116.66378 
L 387.67307 109.450569 
L 387.825383 111.194422 
L 387.901539 111.987083 
L 387.977696 108.02378 
L 388.053852 108.657908 
L 388.206165 108.578642 
L 388.663103 107.62745 
L 388.739259 107.151853 
L 388.815416 107.389651 
L 389.043885 113.889468 
L 389.424666 95.579009 
L 389.500823 95.816807 
L 389.653135 94.310752 
L 389.729292 94.310752 
L 389.805448 88.682862 
L 389.881605 90.030385 
L 390.110074 84.402495 
L 390.414699 86.304881 
L 390.490855 86.146349 
L 390.567012 85.829284 
L 390.643168 88.445064 
L 390.719324 87.890202 
L 390.795481 87.890202 
L 390.871637 87.335339 
L 390.947793 87.573138 
L 391.02395 87.652404 
L 391.176263 87.097541 
L 391.328575 78.774606 
L 391.404732 79.408734 
L 391.480888 79.170936 
L 391.557044 79.170936 
L 391.709357 77.189284 
L 391.785513 78.061211 
L 391.937826 82.10378 
L 392.013982 82.024514 
L 392.166295 80.914789 
L 392.318608 82.579376 
L 392.394764 82.420844 
L 392.623233 86.146349 
L 392.69939 86.146349 
L 392.775546 81.152587 
L 392.851702 81.390385 
L 393.080171 76.07956 
L 393.156328 77.110018 
L 393.308641 76.238092 
L 393.460953 79.725798 
L 393.689422 80.280661 
L 393.765579 85.829284 
L 393.841735 85.274422 
L 393.917891 79.963596 
L 393.994048 81.231853 
L 394.14636 82.737908 
L 394.298673 80.439193 
L 394.37483 80.280661 
L 394.527142 79.012404 
L 394.679455 78.774606 
L 394.755611 79.963596 
L 394.907924 86.146349 
L 394.98408 86.939009 
L 395.060237 86.701211 
L 395.288706 78.140477 
L 395.364862 82.10378 
L 395.441018 81.152587 
L 395.593331 82.658642 
L 395.669488 87.256073 
L 395.745644 86.463413 
L 395.8218 86.621945 
L 395.974113 93.597358 
L 396.050269 92.170569 
L 396.126426 92.012037 
L 396.202582 92.249835 
L 396.354895 91.457174 
L 396.65952 97.322862 
L 396.887989 97.798459 
L 397.040302 102.554422 
L 397.116458 102.237358 
L 397.268771 105.328734 
L 397.421084 98.670385 
L 397.49724 102.554422 
L 397.801866 94.786349 
L 397.878022 95.579009 
L 398.030335 94.390018 
L 398.258804 95.341211 
L 398.411116 90.268183 
L 398.487273 90.268183 
L 398.487273 90.268183 
" clip-path="url(#pb816c31bd8)" style="fill: none; stroke: #1f77b4; stroke-width: 1.5; stroke-linecap: square"/>
   </g>
   <g id="patch_3">
    <path d="M 57.6 307.584 
L 57.6 41.472 
" style="fill: none; stroke: #000000; stroke-width: 0.8; stroke-linejoin: miter; stroke-linecap: square"/>
   </g>
   <g id="patch_4">
    <path d="M 414.72 307.584 
L 414.72 41.472 
" style="fill: none; stroke: #000000; stroke-width: 0.8; stroke-linejoin: miter; stroke-linecap: square"/>
   </g>
   <g id="patch_5">
    <path d="M 57.6 307.584 
L 414.72 307.584 
" style="fill: none; stroke: #000000; stroke-width: 0.8; stroke-linejoin: miter; stroke-linecap: square"/>
   </g>
   <g id="patch_6">
    <path d="M 57.6 41.472 
L 414.72 41.472 
" style="fill: none; stroke: #000000; stroke-width: 0.8; stroke-linejoin: miter; stroke-linecap: square"/>
   </g>
   <g id="text_15">
    <!-- comp04 -->
    <g transform="translate(211.90125 35.472) scale(0.12 -0.12)">
     <defs>
      <path id="DejaVuSans-63" d="M 3122 3366 
L 3122 2828 
Q 2878 2963 2633 3030 
Q 2388 3097 2138 3097 
Q 1578 3097 1268 2742 
Q 959 2388 959 1747 
Q 959 1106 1268 751 
Q 1578 397 2138 397 
Q 2388 397 2633 464 
Q 2878 531 3122 666 
L 3122 134 
Q 2881 22 2623 -34 
Q 2366 -91 2075 -91 
Q 1284 -91 818 406 
Q 353 903 353 1747 
Q 353 2603 823 3093 
Q 1294 3584 2113 3584 
Q 2378 3584 2631 3529 
Q 2884 3475 3122 3366 
z
" transform="scale(0.015625)"/>
      <path id="DejaVuSans-70" d="M 1159 525 
L 1159 -1331 
L 581 -1331 
L 581 3500 
L 1159 3500 
L 1159 2969 
Q 1341 3281 1617 3432 
Q 1894 3584 2278 3584 
Q 2916 3584 3314 3078 
Q 3713 2572 3713 1747 
Q 3713 922 3314 415 
Q 2916 -91 2278 -91 
Q 1894 -91 1617 61 
Q 1341 213 1159 525 
z
M 3116 1747 
Q 3116 2381 2855 2742 
Q 2594 3103 2138 3103 
Q 1681 3103 1420 2742 
Q 1159 2381 1159 1747 
Q 1159 1113 1420 752 
Q 1681 391 2138 391 
Q 2594 391 2855 752 
Q 3116 1113 3116 1747 
z
" transform="scale(0.015625)"/>
     </defs>
     <use xlink:href="#DejaVuSans-63"/>
     <use xlink:href="#DejaVuSans-6f" x="54.980469"/>
     <use xlink:href="#DejaVuSans-6d" x="116.162109"/>
     <use xlink:href="#DejaVuSans-70" x="213.574219"/>
     <use xlink:href="#DejaVuSans-30" x="277.050781"/>
     <use xlink:href="#DejaVuSans-34" x="340.673828"/>
    </g>
   </g>
  </g>
 </g>
 <defs>
  <clipPath id="pb816c31bd8">
   <rect x="57.6" y="41.472" width="357.12" height="266.112"/>
  </clipPath>
 </defs>
</svg>
