<?xml version="1.0" encoding="utf-8" standalone="no"?>
<!DOCTYPE svg PUBLIC "-//W3C//DTD SVG 1.1//EN"
  "http://www.w3.org/Graphics/SVG/1.1/DTD/svg11.dtd">
<svg xmlns:xlink="http://www.w3.org/1999/xlink" width="460.8pt" height="345.6pt" viewBox="0 0 460.8 345.6" xmlns="http://www.w3.org/2000/svg" version="1.1">
 <metadata>
  <rdf:RDF xmlns:dc="http://purl.org/dc/elements/1.1/" xmlns:cc="http://creativecommons.org/ns#" xmlns:rdf="http://www.w3.org/1999/02/22-rdf-syntax-ns#">
   <cc:Work>
    <dc:type rdf:resource="http://purl.org/dc/dcmitype/StillImage"/>
    <dc:date>2023-12-03T18:15:54.827994</dc:date>
    <dc:format>image/svg+xml</dc:format>
    <dc:creator>
     <cc:Agent>
      <dc:title>Matplotlib v3.7.1, https://matplotlib.org/</dc:title>
     </cc:Agent>
    </dc:creator>
   </cc:Work>
  </rdf:RDF>
 </metadata>
 <defs>
  <style type="text/css">*{stroke-linejoin: round; stroke-linecap: butt}</style>
 </defs>
 <g id="figure_1">
  <g id="patch_1">
   <path d="M 0 345.6 
L 460.8 345.6 
L 460.8 0 
L 0 0 
z
" style="fill: #ffffff"/>
  </g>
  <g id="axes_1">
   <g id="patch_2">
    <path d="M 57.6 307.584 
L 414.72 307.584 
L 414.72 41.472 
L 57.6 41.472 
z
" style="fill: #ffffff"/>
   </g>
   <g id="matplotlib.axis_1">
    <g id="xtick_1">
     <g id="line2d_1">
      <defs>
       <path id="m0200c3bccb" d="M 0 0 
L 0 3.5 
" style="stroke: #000000; stroke-width: 0.8"/>
      </defs>
      <g>
       <use xlink:href="#m0200c3bccb" x="73.832727" y="307.584" style="stroke: #000000; stroke-width: 0.8"/>
      </g>
     </g>
     <g id="text_1">
      <!-- 0 -->
      <g transform="translate(70.651477 322.182437) scale(0.1 -0.1)">
       <defs>
        <path id="DejaVuSans-30" d="M 2034 4250 
Q 1547 4250 1301 3770 
Q 1056 3291 1056 2328 
Q 1056 1369 1301 889 
Q 1547 409 2034 409 
Q 2525 409 2770 889 
Q 3016 1369 3016 2328 
Q 3016 3291 2770 3770 
Q 2525 4250 2034 4250 
z
M 2034 4750 
Q 2819 4750 3233 4129 
Q 3647 3509 3647 2328 
Q 3647 1150 3233 529 
Q 2819 -91 2034 -91 
Q 1250 -91 836 529 
Q 422 1150 422 2328 
Q 422 3509 836 4129 
Q 1250 4750 2034 4750 
z
" transform="scale(0.015625)"/>
       </defs>
       <use xlink:href="#DejaVuSans-30"/>
      </g>
     </g>
    </g>
    <g id="xtick_2">
     <g id="line2d_2">
      <g>
       <use xlink:href="#m0200c3bccb" x="118.550984" y="307.584" style="stroke: #000000; stroke-width: 0.8"/>
      </g>
     </g>
     <g id="text_2">
      <!-- 500 -->
      <g transform="translate(109.007234 322.182437) scale(0.1 -0.1)">
       <defs>
        <path id="DejaVuSans-35" d="M 691 4666 
L 3169 4666 
L 3169 4134 
L 1269 4134 
L 1269 2991 
Q 1406 3038 1543 3061 
Q 1681 3084 1819 3084 
Q 2600 3084 3056 2656 
Q 3513 2228 3513 1497 
Q 3513 744 3044 326 
Q 2575 -91 1722 -91 
Q 1428 -91 1123 -41 
Q 819 9 494 109 
L 494 744 
Q 775 591 1075 516 
Q 1375 441 1709 441 
Q 2250 441 2565 725 
Q 2881 1009 2881 1497 
Q 2881 1984 2565 2268 
Q 2250 2553 1709 2553 
Q 1456 2553 1204 2497 
Q 953 2441 691 2322 
L 691 4666 
z
" transform="scale(0.015625)"/>
       </defs>
       <use xlink:href="#DejaVuSans-35"/>
       <use xlink:href="#DejaVuSans-30" x="63.623047"/>
       <use xlink:href="#DejaVuSans-30" x="127.246094"/>
      </g>
     </g>
    </g>
    <g id="xtick_3">
     <g id="line2d_3">
      <g>
       <use xlink:href="#m0200c3bccb" x="163.269241" y="307.584" style="stroke: #000000; stroke-width: 0.8"/>
      </g>
     </g>
     <g id="text_3">
      <!-- 1000 -->
      <g transform="translate(150.544241 322.182437) scale(0.1 -0.1)">
       <defs>
        <path id="DejaVuSans-31" d="M 794 531 
L 1825 531 
L 1825 4091 
L 703 3866 
L 703 4441 
L 1819 4666 
L 2450 4666 
L 2450 531 
L 3481 531 
L 3481 0 
L 794 0 
L 794 531 
z
" transform="scale(0.015625)"/>
       </defs>
       <use xlink:href="#DejaVuSans-31"/>
       <use xlink:href="#DejaVuSans-30" x="63.623047"/>
       <use xlink:href="#DejaVuSans-30" x="127.246094"/>
       <use xlink:href="#DejaVuSans-30" x="190.869141"/>
      </g>
     </g>
    </g>
    <g id="xtick_4">
     <g id="line2d_4">
      <g>
       <use xlink:href="#m0200c3bccb" x="207.987498" y="307.584" style="stroke: #000000; stroke-width: 0.8"/>
      </g>
     </g>
     <g id="text_4">
      <!-- 1500 -->
      <g transform="translate(195.262498 322.182437) scale(0.1 -0.1)">
       <use xlink:href="#DejaVuSans-31"/>
       <use xlink:href="#DejaVuSans-35" x="63.623047"/>
       <use xlink:href="#DejaVuSans-30" x="127.246094"/>
       <use xlink:href="#DejaVuSans-30" x="190.869141"/>
      </g>
     </g>
    </g>
    <g id="xtick_5">
     <g id="line2d_5">
      <g>
       <use xlink:href="#m0200c3bccb" x="252.705755" y="307.584" style="stroke: #000000; stroke-width: 0.8"/>
      </g>
     </g>
     <g id="text_5">
      <!-- 2000 -->
      <g transform="translate(239.980755 322.182437) scale(0.1 -0.1)">
       <defs>
        <path id="DejaVuSans-32" d="M 1228 531 
L 3431 531 
L 3431 0 
L 469 0 
L 469 531 
Q 828 903 1448 1529 
Q 2069 2156 2228 2338 
Q 2531 2678 2651 2914 
Q 2772 3150 2772 3378 
Q 2772 3750 2511 3984 
Q 2250 4219 1831 4219 
Q 1534 4219 1204 4116 
Q 875 4013 500 3803 
L 500 4441 
Q 881 4594 1212 4672 
Q 1544 4750 1819 4750 
Q 2544 4750 2975 4387 
Q 3406 4025 3406 3419 
Q 3406 3131 3298 2873 
Q 3191 2616 2906 2266 
Q 2828 2175 2409 1742 
Q 1991 1309 1228 531 
z
" transform="scale(0.015625)"/>
       </defs>
       <use xlink:href="#DejaVuSans-32"/>
       <use xlink:href="#DejaVuSans-30" x="63.623047"/>
       <use xlink:href="#DejaVuSans-30" x="127.246094"/>
       <use xlink:href="#DejaVuSans-30" x="190.869141"/>
      </g>
     </g>
    </g>
    <g id="xtick_6">
     <g id="line2d_6">
      <g>
       <use xlink:href="#m0200c3bccb" x="297.424012" y="307.584" style="stroke: #000000; stroke-width: 0.8"/>
      </g>
     </g>
     <g id="text_6">
      <!-- 2500 -->
      <g transform="translate(284.699012 322.182437) scale(0.1 -0.1)">
       <use xlink:href="#DejaVuSans-32"/>
       <use xlink:href="#DejaVuSans-35" x="63.623047"/>
       <use xlink:href="#DejaVuSans-30" x="127.246094"/>
       <use xlink:href="#DejaVuSans-30" x="190.869141"/>
      </g>
     </g>
    </g>
    <g id="xtick_7">
     <g id="line2d_7">
      <g>
       <use xlink:href="#m0200c3bccb" x="342.142269" y="307.584" style="stroke: #000000; stroke-width: 0.8"/>
      </g>
     </g>
     <g id="text_7">
      <!-- 3000 -->
      <g transform="translate(329.417269 322.182437) scale(0.1 -0.1)">
       <defs>
        <path id="DejaVuSans-33" d="M 2597 2516 
Q 3050 2419 3304 2112 
Q 3559 1806 3559 1356 
Q 3559 666 3084 287 
Q 2609 -91 1734 -91 
Q 1441 -91 1130 -33 
Q 819 25 488 141 
L 488 750 
Q 750 597 1062 519 
Q 1375 441 1716 441 
Q 2309 441 2620 675 
Q 2931 909 2931 1356 
Q 2931 1769 2642 2001 
Q 2353 2234 1838 2234 
L 1294 2234 
L 1294 2753 
L 1863 2753 
Q 2328 2753 2575 2939 
Q 2822 3125 2822 3475 
Q 2822 3834 2567 4026 
Q 2313 4219 1838 4219 
Q 1578 4219 1281 4162 
Q 984 4106 628 3988 
L 628 4550 
Q 988 4650 1302 4700 
Q 1616 4750 1894 4750 
Q 2613 4750 3031 4423 
Q 3450 4097 3450 3541 
Q 3450 3153 3228 2886 
Q 3006 2619 2597 2516 
z
" transform="scale(0.015625)"/>
       </defs>
       <use xlink:href="#DejaVuSans-33"/>
       <use xlink:href="#DejaVuSans-30" x="63.623047"/>
       <use xlink:href="#DejaVuSans-30" x="127.246094"/>
       <use xlink:href="#DejaVuSans-30" x="190.869141"/>
      </g>
     </g>
    </g>
    <g id="xtick_8">
     <g id="line2d_8">
      <g>
       <use xlink:href="#m0200c3bccb" x="386.860526" y="307.584" style="stroke: #000000; stroke-width: 0.8"/>
      </g>
     </g>
     <g id="text_8">
      <!-- 3500 -->
      <g transform="translate(374.135526 322.182437) scale(0.1 -0.1)">
       <use xlink:href="#DejaVuSans-33"/>
       <use xlink:href="#DejaVuSans-35" x="63.623047"/>
       <use xlink:href="#DejaVuSans-30" x="127.246094"/>
       <use xlink:href="#DejaVuSans-30" x="190.869141"/>
      </g>
     </g>
    </g>
    <g id="text_9">
     <!-- iteration -->
     <g transform="translate(215.037344 335.860562) scale(0.1 -0.1)">
      <defs>
       <path id="DejaVuSans-69" d="M 603 3500 
L 1178 3500 
L 1178 0 
L 603 0 
L 603 3500 
z
M 603 4863 
L 1178 4863 
L 1178 4134 
L 603 4134 
L 603 4863 
z
" transform="scale(0.015625)"/>
       <path id="DejaVuSans-74" d="M 1172 4494 
L 1172 3500 
L 2356 3500 
L 2356 3053 
L 1172 3053 
L 1172 1153 
Q 1172 725 1289 603 
Q 1406 481 1766 481 
L 2356 481 
L 2356 0 
L 1766 0 
Q 1100 0 847 248 
Q 594 497 594 1153 
L 594 3053 
L 172 3053 
L 172 3500 
L 594 3500 
L 594 4494 
L 1172 4494 
z
" transform="scale(0.015625)"/>
       <path id="DejaVuSans-65" d="M 3597 1894 
L 3597 1613 
L 953 1613 
Q 991 1019 1311 708 
Q 1631 397 2203 397 
Q 2534 397 2845 478 
Q 3156 559 3463 722 
L 3463 178 
Q 3153 47 2828 -22 
Q 2503 -91 2169 -91 
Q 1331 -91 842 396 
Q 353 884 353 1716 
Q 353 2575 817 3079 
Q 1281 3584 2069 3584 
Q 2775 3584 3186 3129 
Q 3597 2675 3597 1894 
z
M 3022 2063 
Q 3016 2534 2758 2815 
Q 2500 3097 2075 3097 
Q 1594 3097 1305 2825 
Q 1016 2553 972 2059 
L 3022 2063 
z
" transform="scale(0.015625)"/>
       <path id="DejaVuSans-72" d="M 2631 2963 
Q 2534 3019 2420 3045 
Q 2306 3072 2169 3072 
Q 1681 3072 1420 2755 
Q 1159 2438 1159 1844 
L 1159 0 
L 581 0 
L 581 3500 
L 1159 3500 
L 1159 2956 
Q 1341 3275 1631 3429 
Q 1922 3584 2338 3584 
Q 2397 3584 2469 3576 
Q 2541 3569 2628 3553 
L 2631 2963 
z
" transform="scale(0.015625)"/>
       <path id="DejaVuSans-61" d="M 2194 1759 
Q 1497 1759 1228 1600 
Q 959 1441 959 1056 
Q 959 750 1161 570 
Q 1363 391 1709 391 
Q 2188 391 2477 730 
Q 2766 1069 2766 1631 
L 2766 1759 
L 2194 1759 
z
M 3341 1997 
L 3341 0 
L 2766 0 
L 2766 531 
Q 2569 213 2275 61 
Q 1981 -91 1556 -91 
Q 1019 -91 701 211 
Q 384 513 384 1019 
Q 384 1609 779 1909 
Q 1175 2209 1959 2209 
L 2766 2209 
L 2766 2266 
Q 2766 2663 2505 2880 
Q 2244 3097 1772 3097 
Q 1472 3097 1187 3025 
Q 903 2953 641 2809 
L 641 3341 
Q 956 3463 1253 3523 
Q 1550 3584 1831 3584 
Q 2591 3584 2966 3190 
Q 3341 2797 3341 1997 
z
" transform="scale(0.015625)"/>
       <path id="DejaVuSans-6f" d="M 1959 3097 
Q 1497 3097 1228 2736 
Q 959 2375 959 1747 
Q 959 1119 1226 758 
Q 1494 397 1959 397 
Q 2419 397 2687 759 
Q 2956 1122 2956 1747 
Q 2956 2369 2687 2733 
Q 2419 3097 1959 3097 
z
M 1959 3584 
Q 2709 3584 3137 3096 
Q 3566 2609 3566 1747 
Q 3566 888 3137 398 
Q 2709 -91 1959 -91 
Q 1206 -91 779 398 
Q 353 888 353 1747 
Q 353 2609 779 3096 
Q 1206 3584 1959 3584 
z
" transform="scale(0.015625)"/>
       <path id="DejaVuSans-6e" d="M 3513 2113 
L 3513 0 
L 2938 0 
L 2938 2094 
Q 2938 2591 2744 2837 
Q 2550 3084 2163 3084 
Q 1697 3084 1428 2787 
Q 1159 2491 1159 1978 
L 1159 0 
L 581 0 
L 581 3500 
L 1159 3500 
L 1159 2956 
Q 1366 3272 1645 3428 
Q 1925 3584 2291 3584 
Q 2894 3584 3203 3211 
Q 3513 2838 3513 2113 
z
" transform="scale(0.015625)"/>
      </defs>
      <use xlink:href="#DejaVuSans-69"/>
      <use xlink:href="#DejaVuSans-74" x="27.783203"/>
      <use xlink:href="#DejaVuSans-65" x="66.992188"/>
      <use xlink:href="#DejaVuSans-72" x="128.515625"/>
      <use xlink:href="#DejaVuSans-61" x="169.628906"/>
      <use xlink:href="#DejaVuSans-74" x="230.908203"/>
      <use xlink:href="#DejaVuSans-69" x="270.117188"/>
      <use xlink:href="#DejaVuSans-6f" x="297.900391"/>
      <use xlink:href="#DejaVuSans-6e" x="359.082031"/>
     </g>
    </g>
   </g>
   <g id="matplotlib.axis_2">
    <g id="ytick_1">
     <g id="line2d_9">
      <defs>
       <path id="m5fdc77f9cb" d="M 0 0 
L -3.5 0 
" style="stroke: #000000; stroke-width: 0.8"/>
      </defs>
      <g>
       <use xlink:href="#m5fdc77f9cb" x="57.6" y="288.223796" style="stroke: #000000; stroke-width: 0.8"/>
      </g>
     </g>
     <g id="text_10">
      <!-- 1000 -->
      <g transform="translate(25.15 292.023015) scale(0.1 -0.1)">
       <use xlink:href="#DejaVuSans-31"/>
       <use xlink:href="#DejaVuSans-30" x="63.623047"/>
       <use xlink:href="#DejaVuSans-30" x="127.246094"/>
       <use xlink:href="#DejaVuSans-30" x="190.869141"/>
      </g>
     </g>
    </g>
    <g id="ytick_2">
     <g id="line2d_10">
      <g>
       <use xlink:href="#m5fdc77f9cb" x="57.6" y="233.191949" style="stroke: #000000; stroke-width: 0.8"/>
      </g>
     </g>
     <g id="text_11">
      <!-- 2000 -->
      <g transform="translate(25.15 236.991168) scale(0.1 -0.1)">
       <use xlink:href="#DejaVuSans-32"/>
       <use xlink:href="#DejaVuSans-30" x="63.623047"/>
       <use xlink:href="#DejaVuSans-30" x="127.246094"/>
       <use xlink:href="#DejaVuSans-30" x="190.869141"/>
      </g>
     </g>
    </g>
    <g id="ytick_3">
     <g id="line2d_11">
      <g>
       <use xlink:href="#m5fdc77f9cb" x="57.6" y="178.160102" style="stroke: #000000; stroke-width: 0.8"/>
      </g>
     </g>
     <g id="text_12">
      <!-- 3000 -->
      <g transform="translate(25.15 181.959321) scale(0.1 -0.1)">
       <use xlink:href="#DejaVuSans-33"/>
       <use xlink:href="#DejaVuSans-30" x="63.623047"/>
       <use xlink:href="#DejaVuSans-30" x="127.246094"/>
       <use xlink:href="#DejaVuSans-30" x="190.869141"/>
      </g>
     </g>
    </g>
    <g id="ytick_4">
     <g id="line2d_12">
      <g>
       <use xlink:href="#m5fdc77f9cb" x="57.6" y="123.128255" style="stroke: #000000; stroke-width: 0.8"/>
      </g>
     </g>
     <g id="text_13">
      <!-- 4000 -->
      <g transform="translate(25.15 126.927474) scale(0.1 -0.1)">
       <defs>
        <path id="DejaVuSans-34" d="M 2419 4116 
L 825 1625 
L 2419 1625 
L 2419 4116 
z
M 2253 4666 
L 3047 4666 
L 3047 1625 
L 3713 1625 
L 3713 1100 
L 3047 1100 
L 3047 0 
L 2419 0 
L 2419 1100 
L 313 1100 
L 313 1709 
L 2253 4666 
z
" transform="scale(0.015625)"/>
       </defs>
       <use xlink:href="#DejaVuSans-34"/>
       <use xlink:href="#DejaVuSans-30" x="63.623047"/>
       <use xlink:href="#DejaVuSans-30" x="127.246094"/>
       <use xlink:href="#DejaVuSans-30" x="190.869141"/>
      </g>
     </g>
    </g>
    <g id="ytick_5">
     <g id="line2d_13">
      <g>
       <use xlink:href="#m5fdc77f9cb" x="57.6" y="68.096408" style="stroke: #000000; stroke-width: 0.8"/>
      </g>
     </g>
     <g id="text_14">
      <!-- 5000 -->
      <g transform="translate(25.15 71.895626) scale(0.1 -0.1)">
       <use xlink:href="#DejaVuSans-35"/>
       <use xlink:href="#DejaVuSans-30" x="63.623047"/>
       <use xlink:href="#DejaVuSans-30" x="127.246094"/>
       <use xlink:href="#DejaVuSans-30" x="190.869141"/>
      </g>
     </g>
    </g>
    <g id="text_15">
     <!-- best fitness of swarm -->
     <g transform="translate(19.070312 228.0905) rotate(-90) scale(0.1 -0.1)">
      <defs>
       <path id="DejaVuSans-62" d="M 3116 1747 
Q 3116 2381 2855 2742 
Q 2594 3103 2138 3103 
Q 1681 3103 1420 2742 
Q 1159 2381 1159 1747 
Q 1159 1113 1420 752 
Q 1681 391 2138 391 
Q 2594 391 2855 752 
Q 3116 1113 3116 1747 
z
M 1159 2969 
Q 1341 3281 1617 3432 
Q 1894 3584 2278 3584 
Q 2916 3584 3314 3078 
Q 3713 2572 3713 1747 
Q 3713 922 3314 415 
Q 2916 -91 2278 -91 
Q 1894 -91 1617 61 
Q 1341 213 1159 525 
L 1159 0 
L 581 0 
L 581 4863 
L 1159 4863 
L 1159 2969 
z
" transform="scale(0.015625)"/>
       <path id="DejaVuSans-73" d="M 2834 3397 
L 2834 2853 
Q 2591 2978 2328 3040 
Q 2066 3103 1784 3103 
Q 1356 3103 1142 2972 
Q 928 2841 928 2578 
Q 928 2378 1081 2264 
Q 1234 2150 1697 2047 
L 1894 2003 
Q 2506 1872 2764 1633 
Q 3022 1394 3022 966 
Q 3022 478 2636 193 
Q 2250 -91 1575 -91 
Q 1294 -91 989 -36 
Q 684 19 347 128 
L 347 722 
Q 666 556 975 473 
Q 1284 391 1588 391 
Q 1994 391 2212 530 
Q 2431 669 2431 922 
Q 2431 1156 2273 1281 
Q 2116 1406 1581 1522 
L 1381 1569 
Q 847 1681 609 1914 
Q 372 2147 372 2553 
Q 372 3047 722 3315 
Q 1072 3584 1716 3584 
Q 2034 3584 2315 3537 
Q 2597 3491 2834 3397 
z
" transform="scale(0.015625)"/>
       <path id="DejaVuSans-20" transform="scale(0.015625)"/>
       <path id="DejaVuSans-66" d="M 2375 4863 
L 2375 4384 
L 1825 4384 
Q 1516 4384 1395 4259 
Q 1275 4134 1275 3809 
L 1275 3500 
L 2222 3500 
L 2222 3053 
L 1275 3053 
L 1275 0 
L 697 0 
L 697 3053 
L 147 3053 
L 147 3500 
L 697 3500 
L 697 3744 
Q 697 4328 969 4595 
Q 1241 4863 1831 4863 
L 2375 4863 
z
" transform="scale(0.015625)"/>
       <path id="DejaVuSans-77" d="M 269 3500 
L 844 3500 
L 1563 769 
L 2278 3500 
L 2956 3500 
L 3675 769 
L 4391 3500 
L 4966 3500 
L 4050 0 
L 3372 0 
L 2619 2869 
L 1863 0 
L 1184 0 
L 269 3500 
z
" transform="scale(0.015625)"/>
       <path id="DejaVuSans-6d" d="M 3328 2828 
Q 3544 3216 3844 3400 
Q 4144 3584 4550 3584 
Q 5097 3584 5394 3201 
Q 5691 2819 5691 2113 
L 5691 0 
L 5113 0 
L 5113 2094 
Q 5113 2597 4934 2840 
Q 4756 3084 4391 3084 
Q 3944 3084 3684 2787 
Q 3425 2491 3425 1978 
L 3425 0 
L 2847 0 
L 2847 2094 
Q 2847 2600 2669 2842 
Q 2491 3084 2119 3084 
Q 1678 3084 1418 2786 
Q 1159 2488 1159 1978 
L 1159 0 
L 581 0 
L 581 3500 
L 1159 3500 
L 1159 2956 
Q 1356 3278 1631 3431 
Q 1906 3584 2284 3584 
Q 2666 3584 2933 3390 
Q 3200 3197 3328 2828 
z
" transform="scale(0.015625)"/>
      </defs>
      <use xlink:href="#DejaVuSans-62"/>
      <use xlink:href="#DejaVuSans-65" x="63.476562"/>
      <use xlink:href="#DejaVuSans-73" x="125"/>
      <use xlink:href="#DejaVuSans-74" x="177.099609"/>
      <use xlink:href="#DejaVuSans-20" x="216.308594"/>
      <use xlink:href="#DejaVuSans-66" x="248.095703"/>
      <use xlink:href="#DejaVuSans-69" x="283.300781"/>
      <use xlink:href="#DejaVuSans-74" x="311.083984"/>
      <use xlink:href="#DejaVuSans-6e" x="350.292969"/>
      <use xlink:href="#DejaVuSans-65" x="413.671875"/>
      <use xlink:href="#DejaVuSans-73" x="475.195312"/>
      <use xlink:href="#DejaVuSans-73" x="527.294922"/>
      <use xlink:href="#DejaVuSans-20" x="579.394531"/>
      <use xlink:href="#DejaVuSans-6f" x="611.181641"/>
      <use xlink:href="#DejaVuSans-66" x="672.363281"/>
      <use xlink:href="#DejaVuSans-20" x="707.568359"/>
      <use xlink:href="#DejaVuSans-73" x="739.355469"/>
      <use xlink:href="#DejaVuSans-77" x="791.455078"/>
      <use xlink:href="#DejaVuSans-61" x="873.242188"/>
      <use xlink:href="#DejaVuSans-72" x="934.521484"/>
      <use xlink:href="#DejaVuSans-6d" x="973.884766"/>
     </g>
    </g>
   </g>
   <g id="line2d_14">
    <path d="M 73.832727 295.488 
L 74.0116 295.322904 
L 74.548219 294.442395 
L 74.637656 294.442395 
L 75.084838 282.500484 
L 75.174275 282.445452 
L 75.353148 282.170293 
L 75.442585 282.005197 
L 75.621458 277.32749 
L 75.800331 276.777172 
L 76.158077 266.926471 
L 76.515823 266.926471 
L 76.784132 259.662268 
L 76.873569 259.662268 
L 77.141878 254.544306 
L 77.231315 254.544306 
L 77.410188 252.89335 
L 77.589061 251.737682 
L 77.767934 251.68265 
L 77.946807 248.270675 
L 78.12568 248.325707 
L 78.304553 247.555261 
L 78.572863 247.555261 
L 78.751736 247.280102 
L 79.288355 247.22507 
L 79.467228 243.813096 
L 79.646101 243.372841 
L 79.735537 246.014369 
L 79.824974 242.16214 
L 79.91441 242.712459 
L 80.003847 242.712459 
L 80.18272 242.107108 
L 80.540466 241.281631 
L 80.719339 239.19042 
L 80.898212 238.58507 
L 80.987648 238.58507 
L 81.166521 233.797299 
L 81.345394 233.246981 
L 81.434831 233.191949 
L 81.613704 232.201376 
L 81.70314 232.311439 
L 81.792577 231.265834 
L 81.882014 231.320866 
L 81.97145 231.265834 
L 82.150323 223.781503 
L 82.418633 223.726471 
L 82.597506 221.580229 
L 82.776379 221.470166 
L 82.865815 226.257936 
L 83.044688 220.149401 
L 83.223561 218.993732 
L 83.402434 214.426089 
L 83.581307 214.15093 
L 83.670744 208.537682 
L 83.76018 208.702777 
L 83.939053 208.702777 
L 84.117926 208.977936 
L 84.386236 208.20749 
L 84.475672 208.097427 
L 84.654545 204.245197 
L 84.743982 204.90558 
L 84.922855 203.804943 
L 85.101728 198.026599 
L 85.370038 195.054879 
L 85.727784 195.109911 
L 85.906657 192.68851 
L 85.996093 193.073732 
L 86.08553 192.743541 
L 86.174966 193.183796 
L 86.264403 193.018701 
L 86.353839 194.174369 
L 86.443276 194.119338 
L 86.622149 201.658701 
L 86.711585 201.823796 
L 87.069331 191.752968 
L 87.158768 191.973096 
L 87.337641 193.624051 
L 87.516514 189.496662 
L 87.60595 189.441631 
L 87.784823 188.23093 
L 87.87426 188.23093 
L 88.142569 187.515516 
L 88.232006 181.847236 
L 88.321443 182.947873 
L 88.679189 181.351949 
L 88.768625 181.351949 
L 88.947498 181.186854 
L 89.215808 181.131822 
L 89.305244 180.856662 
L 89.394681 180.966726 
L 89.484117 180.746599 
L 89.66299 182.56265 
L 89.752427 182.56265 
L 89.9313 182.947873 
L 90.020736 182.672713 
L 90.110173 181.021758 
L 90.199609 181.462013 
L 90.289046 181.131822 
L 90.378482 181.406981 
L 90.557355 173.92265 
L 90.646792 179.921121 
L 90.736228 179.866089 
L 91.093974 179.921121 
L 91.183411 179.700994 
L 91.272847 180.141248 
L 91.451721 179.370803 
L 91.630594 177.169529 
L 91.809467 176.949401 
L 91.898903 175.958828 
L 92.077776 177.664815 
L 92.167213 177.774879 
L 92.346086 176.178955 
L 92.524959 171.171057 
L 92.703832 169.410038 
L 92.972141 173.097172 
L 93.151014 172.711949 
L 93.329887 172.051567 
L 93.50876 172.051567 
L 93.598197 172.326726 
L 93.77707 171.226089 
L 93.866506 171.226089 
L 93.955943 168.034242 
L 94.045379 168.254369 
L 94.134816 168.254369 
L 94.224252 167.208764 
L 94.313689 168.419465 
L 94.403125 164.347108 
L 94.492562 164.732331 
L 94.581998 165.227618 
L 94.760872 164.842395 
L 94.850308 164.897427 
L 95.029181 164.457172 
L 95.118618 164.457172 
L 95.297491 164.292076 
L 95.476364 161.760611 
L 95.655237 162.806217 
L 95.744673 162.91628 
L 95.923546 157.413096 
L 96.102419 158.898955 
L 96.191856 158.238573 
L 96.370729 151.084433 
L 96.549602 153.891057 
L 96.728475 155.76214 
L 96.996784 155.707108 
L 97.086221 156.862777 
L 97.175657 156.092331 
L 97.35453 153.836025 
L 97.443967 154.606471 
L 97.533403 153.946089 
L 97.712276 148.00265 
L 97.801713 148.442904 
L 97.980586 147.617427 
L 98.070023 148.442904 
L 98.159459 145.416153 
L 98.427769 150.754242 
L 98.696078 142.444433 
L 98.785515 142.389401 
L 98.964388 142.884688 
L 99.143261 138.757299 
L 99.322134 138.757299 
L 99.41157 134.134624 
L 99.501007 134.574879 
L 99.769316 133.859465 
L 99.858753 137.601631 
L 99.948189 137.051312 
L 100.037626 139.802904 
L 100.127062 139.142522 
L 100.305935 139.252586 
L 100.574245 139.197554 
L 100.663681 138.922395 
L 100.753118 141.178701 
L 100.842554 140.903541 
L 101.021427 137.546599 
L 101.289737 149.433478 
L 101.379174 149.983796 
L 101.558047 148.718064 
L 101.73692 149.103287 
L 101.826356 149.378446 
L 102.094666 141.784051 
L 102.184102 142.169274 
L 102.273539 141.178701 
L 102.452412 146.186599 
L 102.631285 145.911439 
L 102.720721 145.966471 
L 102.810158 145.856408 
L 103.346777 140.57335 
L 103.52565 140.023032 
L 103.615086 140.408255 
L 103.972832 145.966471 
L 104.062269 145.085962 
L 104.241142 147.012076 
L 104.330579 145.746344 
L 104.420015 146.461758 
L 104.509452 145.526217 
L 104.688325 138.592204 
L 104.777761 138.867363 
L 104.956634 136.611057 
L 105.135507 136.611057 
L 105.31438 134.244688 
L 105.493253 135.78558 
L 105.672126 133.694369 
L 105.850999 135.78558 
L 106.029872 135.015134 
L 106.119309 135.015134 
L 106.298182 138.702268 
L 106.387618 138.702268 
L 106.477055 133.694369 
L 106.566491 133.969529 
L 106.745364 132.868892 
L 106.924237 133.254115 
L 107.013674 133.199083 
L 107.192547 133.694369 
L 107.460856 122.467873 
L 107.63973 122.412841 
L 107.729166 123.843669 
L 107.818603 130.557554 
L 107.908039 130.502522 
L 108.086912 130.337427 
L 108.265785 130.337427 
L 108.355222 130.502522 
L 108.534095 129.787108 
L 108.623531 131.658191 
L 108.802404 122.798064 
L 108.891841 124.063796 
L 108.981277 124.063796 
L 109.070714 123.238318 
L 109.249587 124.063796 
L 109.339023 124.228892 
L 109.517896 123.788637 
L 109.607333 123.788637 
L 109.786206 124.449019 
L 110.054515 117.900229 
L 110.143952 117.900229 
L 110.233388 113.44265 
L 110.322825 113.552713 
L 110.591134 113.277554 
L 110.680571 113.717809 
L 110.770008 113.607745 
L 110.859444 113.772841 
L 111.038317 113.497682 
L 111.21719 113.497682 
L 111.306627 113.332586 
L 111.4855 112.397045 
L 111.574936 106.343541 
L 111.664373 106.673732 
L 111.753809 107.058955 
L 111.843246 111.571567 
L 111.932682 111.296408 
L 112.200992 106.453605 
L 112.290428 106.453605 
L 112.469301 107.279083 
L 112.648174 104.857682 
L 112.916484 112.837299 
L 113.095357 110.415898 
L 113.27423 109.260229 
L 113.453103 100.510166 
L 113.631976 108.434752 
L 113.810849 101.885962 
L 113.900285 101.885962 
L 114.347468 98.363924 
L 114.436905 98.418955 
L 114.526341 97.64851 
L 114.615778 100.565197 
L 114.705214 100.179975 
L 114.884087 98.033732 
L 114.973524 96.768 
L 115.06296 99.079338 
L 115.152397 98.033732 
L 115.241833 98.308892 
L 115.33127 97.978701 
L 115.420706 98.308892 
L 115.599579 93.466089 
L 115.778452 102.43628 
L 115.957325 102.43628 
L 116.046762 107.058955 
L 116.136198 106.673732 
L 116.225635 107.664306 
L 116.315071 107.554242 
L 116.404508 107.554242 
L 116.493944 107.829401 
L 116.672817 106.89386 
L 116.762254 106.89386 
L 116.85169 109.700484 
L 116.941127 109.645452 
L 117.209437 109.260229 
L 117.298873 107.389146 
L 117.38831 107.664306 
L 117.567183 109.975643 
L 117.835492 107.169019 
L 117.924929 107.554242 
L 118.014365 108.98507 
L 118.103802 115.038573 
L 118.193238 114.708382 
L 118.372111 114.708382 
L 118.640421 115.753987 
L 118.729857 115.588892 
L 118.819294 111.681631 
L 118.90873 111.846726 
L 119.087603 111.681631 
L 119.266476 111.681631 
L 119.355913 111.07628 
L 119.624222 104.967745 
L 119.803095 103.702013 
L 119.892532 104.032204 
L 120.071405 102.271185 
L 120.250278 102.271185 
L 120.339715 104.362395 
L 120.429151 104.252331 
L 120.608024 99.629656 
L 120.697461 100.290038 
L 120.786897 100.235006 
L 120.876334 100.235006 
L 121.055207 99.299465 
L 121.23408 99.354497 
L 121.323516 100.455134 
L 121.412953 100.34507 
L 121.502389 100.455134 
L 121.681262 102.931567 
L 121.860135 110.195771 
L 121.949572 110.195771 
L 122.039008 110.580994 
L 122.128445 111.681631 
L 122.217881 111.406471 
L 122.396754 104.967745 
L 122.665064 100.730293 
L 122.933373 101.060484 
L 123.02281 100.179975 
L 123.112246 104.142268 
L 123.201683 101.115516 
L 123.291119 103.261758 
L 123.380556 99.794752 
L 123.469992 103.646981 
L 123.559429 103.536917 
L 123.648866 103.481885 
L 123.827739 103.757045 
L 124.006612 103.426854 
L 124.096048 103.426854 
L 124.185485 102.271185 
L 124.274921 102.491312 
L 124.364358 102.491312 
L 124.453794 101.005452 
L 124.543231 96.492841 
L 124.632667 97.098191 
L 124.722104 96.16265 
L 124.81154 96.217682 
L 125.07985 94.181503 
L 125.169286 94.951949 
L 125.258723 94.511694 
L 125.437596 99.024306 
L 125.527032 97.703541 
L 125.616469 98.363924 
L 125.795342 102.766471 
L 125.974215 95.006981 
L 126.063651 95.062013 
L 126.153088 95.006981 
L 126.60027 92.035261 
L 126.689707 91.980229 
L 126.779144 93.135898 
L 126.86858 91.319847 
L 126.958017 93.080866 
L 127.047453 89.668892 
L 127.13689 95.28214 
L 127.226326 95.006981 
L 127.405199 97.978701 
L 127.584072 95.832459 
L 127.673509 95.832459 
L 127.762945 95.227108 
L 127.941818 95.777427 
L 128.031255 99.409529 
L 128.120691 98.529019 
L 128.210128 98.529019 
L 128.389001 100.34507 
L 128.567874 95.006981 
L 128.836183 103.31679 
L 128.92562 100.235006 
L 129.015056 100.620229 
L 129.193929 101.500739 
L 129.283366 104.80265 
L 129.372802 104.472459 
L 129.641112 103.426854 
L 129.730548 102.546344 
L 129.909421 102.821503 
L 129.998858 102.216153 
L 130.088295 98.033732 
L 130.177731 99.904815 
L 130.267168 99.629656 
L 130.356604 99.629656 
L 130.624914 100.785325 
L 130.893223 94.291567 
L 131.072096 98.529019 
L 131.250969 97.153223 
L 131.340406 97.153223 
L 131.429842 94.841885 
L 131.519279 95.447236 
L 131.608715 94.841885 
L 131.787588 92.255389 
L 131.966461 93.245962 
L 132.145334 88.183032 
L 132.324207 87.302522 
L 132.413644 87.302522 
L 132.681953 92.475516 
L 132.77139 93.025834 
L 132.860826 92.31042 
L 132.950263 93.135898 
L 133.129136 92.695643 
L 133.308009 92.915771 
L 133.486882 89.668892 
L 133.755192 96.437809 
L 133.844628 96.492841 
L 133.934065 98.25386 
L 134.023501 97.428382 
L 134.112938 94.621758 
L 134.202374 99.904815 
L 134.291811 99.024306 
L 134.470684 96.712968 
L 134.56012 97.098191 
L 134.649557 92.530548 
L 134.738993 92.58558 
L 134.917866 93.135898 
L 135.096739 94.126471 
L 135.186176 94.126471 
L 135.365049 97.703541 
L 135.454485 97.64851 
L 135.543922 100.235006 
L 135.722795 99.134369 
L 135.901668 98.969274 
L 136.080541 102.931567 
L 136.259414 102.656408 
L 136.438287 103.536917 
L 136.61716 103.041631 
L 136.706597 104.142268 
L 136.796033 103.867108 
L 136.88547 102.106089 
L 136.974906 103.151694 
L 137.064343 101.335643 
L 137.153779 101.390675 
L 137.243216 101.775898 
L 137.332652 101.335643 
L 137.422089 96.933096 
L 137.511525 97.043159 
L 137.600962 99.794752 
L 137.779835 96.933096 
L 138.048144 99.684688 
L 138.137581 99.684688 
L 138.316454 102.326217 
L 138.40589 102.326217 
L 138.495327 101.940994 
L 138.6742 102.711439 
L 138.763636 102.711439 
L 138.853073 98.363924 
L 138.942509 98.584051 
L 139.031946 97.483414 
L 139.121382 98.25386 
L 139.300255 106.508637 
L 139.479128 105.793223 
L 139.568565 106.453605 
L 139.658002 105.408 
L 139.836875 106.178446 
L 139.926311 106.453605 
L 140.105184 107.719338 
L 140.194621 107.49921 
L 140.552367 103.096662 
L 140.641803 104.362395 
L 140.73124 101.720866 
L 140.820676 101.775898 
L 140.999549 100.840357 
L 141.267859 100.34507 
L 141.446732 101.665834 
L 141.625605 101.060484 
L 141.804478 100.455134 
L 141.893914 103.702013 
L 141.983351 101.885962 
L 142.072787 103.371822 
L 142.162224 103.261758 
L 142.25166 102.931567 
L 142.430533 97.978701 
L 142.609406 99.189401 
L 142.698843 98.969274 
L 142.788279 96.933096 
L 142.877716 97.483414 
L 142.967153 97.153223 
L 143.056589 96.382777 
L 143.146026 96.657936 
L 143.324899 95.006981 
L 143.503772 96.16265 
L 143.682645 97.043159 
L 143.861518 96.712968 
L 144.040391 94.126471 
L 144.219264 99.244433 
L 144.3087 99.464561 
L 144.487573 101.005452 
L 144.666446 100.895389 
L 144.934756 100.95042 
L 145.024192 102.106089 
L 145.113629 96.712968 
L 145.203065 97.263287 
L 145.471375 97.263287 
L 145.739684 92.365452 
L 145.829121 92.475516 
L 145.918557 92.475516 
L 146.097431 92.255389 
L 146.276304 92.420484 
L 146.455177 87.192459 
L 146.544613 88.403159 
L 146.723486 86.862268 
L 146.812923 86.807236 
L 146.991796 85.541503 
L 147.170669 85.596535 
L 147.349542 84.826089 
L 147.438978 84.826089 
L 147.528415 85.816662 
L 147.617851 84.716025 
L 147.707288 88.458191 
L 147.796724 88.403159 
L 147.975597 94.621758 
L 148.065034 94.346599 
L 148.243907 91.760102 
L 148.333343 93.521121 
L 148.42278 93.19093 
L 148.601653 91.209783 
L 148.691089 92.090293 
L 148.869962 91.650038 
L 148.959399 91.980229 
L 149.048835 91.70507 
L 149.138272 90.439338 
L 149.227708 91.09972 
L 149.317145 90.439338 
L 149.496018 87.632713 
L 149.674891 88.348127 
L 149.764328 86.366981 
L 149.853764 89.063541 
L 149.943201 88.898446 
L 150.122074 91.374879 
L 150.21151 92.145325 
L 150.390383 91.429911 
L 150.658693 91.539975 
L 150.748129 91.980229 
L 150.927002 88.017936 
L 151.016439 88.898446 
L 151.195312 93.245962 
L 151.284748 93.411057 
L 151.553058 96.492841 
L 151.642494 96.217682 
L 151.731931 96.272713 
L 151.910804 97.208255 
L 152.00024 97.208255 
L 152.089677 97.37335 
L 152.26855 96.933096 
L 152.53686 96.878064 
L 152.715733 99.134369 
L 152.984042 92.640611 
L 153.073479 92.915771 
L 153.162915 97.703541 
L 153.252352 97.263287 
L 153.341788 97.263287 
L 153.610098 90.934624 
L 153.699534 90.934624 
L 153.788971 91.154752 
L 153.878407 93.300994 
L 154.05728 92.695643 
L 154.236153 103.536917 
L 154.32559 103.371822 
L 154.415026 103.206726 
L 154.593899 100.455134 
L 154.683336 100.455134 
L 154.951645 104.692586 
L 155.219955 103.757045 
L 155.398828 102.43628 
L 155.577701 102.326217 
L 155.756574 101.335643 
L 155.846011 101.610803 
L 155.935447 101.996025 
L 156.11432 103.481885 
L 156.203757 102.986599 
L 156.293193 103.536917 
L 156.38263 102.601376 
L 156.561503 98.25386 
L 156.650939 97.758573 
L 156.829812 100.400102 
L 156.919249 100.675261 
L 157.098122 101.335643 
L 157.187558 101.335643 
L 157.366431 104.252331 
L 157.545304 101.610803 
L 157.724177 102.656408 
L 157.90305 102.711439 
L 157.992487 103.206726 
L 158.081923 103.151694 
L 158.17136 99.409529 
L 158.260796 99.904815 
L 158.350233 99.904815 
L 158.439669 99.354497 
L 158.618542 94.456662 
L 158.797415 96.382777 
L 158.976289 95.392204 
L 159.065725 95.392204 
L 159.244598 91.980229 
L 159.334035 91.870166 
L 159.423471 97.37335 
L 159.602344 91.815134 
L 159.781217 93.135898 
L 159.870654 91.595006 
L 159.96009 91.650038 
L 160.049527 91.980229 
L 160.2284 96.768 
L 160.317836 96.823032 
L 160.496709 97.758573 
L 160.586146 97.758573 
L 160.675582 93.19093 
L 160.765019 93.356025 
L 160.943892 97.483414 
L 161.033328 97.483414 
L 161.212201 100.785325 
L 161.391074 101.060484 
L 161.569947 97.813605 
L 161.659384 97.923669 
L 161.74882 97.593478 
L 161.838257 97.868637 
L 161.927693 103.096662 
L 162.106566 99.959847 
L 162.196003 99.684688 
L 162.464313 98.418955 
L 162.553749 99.904815 
L 162.643186 99.73972 
L 162.732622 97.483414 
L 162.822059 97.64851 
L 162.911495 97.64851 
L 163.000932 96.768 
L 163.269241 100.840357 
L 163.448114 99.73972 
L 163.537551 97.043159 
L 163.626987 97.208255 
L 163.716424 97.208255 
L 163.80586 91.044688 
L 163.895297 91.264815 
L 163.984733 91.209783 
L 164.07417 91.484943 
L 164.342479 93.300994 
L 164.431916 93.631185 
L 164.521352 93.19093 
L 164.610789 96.878064 
L 164.789662 92.475516 
L 164.879098 92.145325 
L 164.968535 98.639083 
L 165.057971 93.300994 
L 165.236844 96.492841 
L 165.326281 95.722395 
L 165.594591 96.768 
L 165.684027 97.758573 
L 165.8629 101.060484 
L 165.952337 98.363924 
L 166.041773 98.639083 
L 166.13121 98.308892 
L 166.310083 98.639083 
L 166.488956 93.245962 
L 166.667829 96.547873 
L 166.757265 95.777427 
L 167.025575 99.849783 
L 167.204448 96.382777 
L 167.383321 96.492841 
L 167.472757 96.107618 
L 167.562194 96.16265 
L 167.741067 96.382777 
L 167.91994 97.37335 
L 168.098813 97.538446 
L 168.277686 92.475516 
L 168.367122 94.291567 
L 168.456559 94.126471 
L 168.635432 94.236535 
L 168.814305 94.731822 
L 168.903742 94.67679 
L 168.993178 97.538446 
L 169.172051 95.832459 
L 169.261488 95.942522 
L 169.350924 93.961376 
L 169.440361 94.566726 
L 169.529797 92.530548 
L 169.619234 93.025834 
L 169.70867 92.365452 
L 169.97698 95.667363 
L 170.155853 98.639083 
L 170.334726 97.923669 
L 170.424162 98.198828 
L 170.513599 100.620229 
L 170.781908 91.70507 
L 170.871345 91.595006 
L 171.050218 93.576153 
L 171.676273 89.723924 
L 171.76571 89.889019 
L 171.944583 90.384306 
L 172.03402 90.164178 
L 172.123456 90.439338 
L 172.212893 90.164178 
L 172.391766 91.925197 
L 172.481202 91.650038 
L 172.570639 91.925197 
L 172.749512 94.236535 
L 172.838948 100.290038 
L 173.017821 96.272713 
L 173.375567 95.28214 
L 173.465004 95.832459 
L 173.912186 103.481885 
L 174.001623 103.206726 
L 174.091059 103.867108 
L 174.180496 103.646981 
L 174.269932 105.628127 
L 174.448805 103.867108 
L 174.627678 103.481885 
L 174.717115 104.307363 
L 174.895988 103.371822 
L 175.074861 102.601376 
L 175.164298 102.876535 
L 175.343171 106.563669 
L 175.432607 107.884433 
L 175.522044 107.609274 
L 175.61148 107.609274 
L 175.700917 103.92214 
L 175.87979 109.645452 
L 176.058663 113.387618 
L 176.237536 114.158064 
L 176.326972 114.158064 
L 176.416409 113.332586 
L 176.505845 113.717809 
L 176.684718 119.220994 
L 176.774155 119.220994 
L 176.863591 118.890803 
L 176.953028 119.551185 
L 177.221337 118.780739 
L 177.40021 118.23042 
L 177.579083 123.29335 
L 177.66852 123.348382 
L 177.757956 123.073223 
L 177.936829 120.376662 
L 178.026266 120.486726 
L 178.294576 114.323159 
L 178.384012 113.992968 
L 178.473449 114.983541 
L 178.652322 109.315261 
L 178.831195 109.59042 
L 179.010068 106.233478 
L 179.099504 106.233478 
L 179.188941 110.746089 
L 179.367814 107.279083 
L 179.546687 107.113987 
L 179.814996 107.994497 
L 179.904433 104.692586 
L 179.993869 105.463032 
L 180.351615 103.31679 
L 180.441052 103.096662 
L 180.709361 95.557299 
L 180.798798 95.557299 
L 180.888234 97.37335 
L 180.977671 94.071439 
L 181.067107 94.401631 
L 181.156544 94.016408 
L 181.335417 97.043159 
L 181.424853 96.16265 
L 181.693163 101.060484 
L 181.872036 101.005452 
L 181.961473 100.620229 
L 182.050909 101.170548 
L 182.229782 100.400102 
L 182.319219 100.290038 
L 182.498092 101.335643 
L 182.587528 101.335643 
L 182.676965 101.555771 
L 182.945274 100.730293 
L 183.124147 100.730293 
L 183.30302 100.124943 
L 183.392457 100.620229 
L 183.57133 100.069911 
L 183.660766 100.069911 
L 183.839639 93.300994 
L 183.929076 93.466089 
L 184.107949 94.566726 
L 184.286822 97.923669 
L 184.376258 95.997554 
L 184.555131 97.703541 
L 184.644568 96.712968 
L 184.912878 98.033732 
L 185.002314 94.951949 
L 185.091751 95.117045 
L 185.181187 95.117045 
L 185.270624 93.79628 
L 185.36006 93.851312 
L 185.449497 93.851312 
L 185.717806 98.25386 
L 185.896679 96.327745 
L 185.986116 96.327745 
L 186.075552 94.731822 
L 186.164989 95.117045 
L 186.343862 95.227108 
L 186.433298 99.409529 
L 186.522735 94.456662 
L 186.612171 94.566726 
L 186.701608 94.951949 
L 187.14879 104.582522 
L 187.238227 100.510166 
L 187.327663 101.060484 
L 187.4171 101.170548 
L 187.506536 97.483414 
L 187.685409 98.749146 
L 187.774846 97.868637 
L 187.864282 97.923669 
L 188.132592 97.208255 
L 188.311465 95.117045 
L 188.400902 95.006981 
L 188.579775 98.363924 
L 188.669211 98.363924 
L 188.758648 93.411057 
L 188.848084 94.071439 
L 189.026957 94.67679 
L 189.20583 94.621758 
L 189.47414 90.824561 
L 189.653013 91.154752 
L 189.742449 91.154752 
L 189.921322 94.786854 
L 190.010759 94.731822 
L 190.100195 94.896917 
L 190.279068 96.382777 
L 190.457941 105.408 
L 190.547378 106.123414 
L 190.726251 104.637554 
L 190.905124 101.940994 
L 191.083997 104.912713 
L 191.26287 105.187873 
L 191.53118 105.242904 
L 191.620616 105.242904 
L 191.710053 100.290038 
L 191.799489 100.895389 
L 191.888926 100.895389 
L 192.067799 100.620229 
L 192.246672 91.539975 
L 192.425545 97.428382 
L 192.514981 97.428382 
L 192.604418 97.153223 
L 192.693854 97.428382 
L 192.783291 95.88749 
L 192.872727 97.263287 
L 193.0516 91.815134 
L 193.141037 91.980229 
L 193.230473 97.428382 
L 193.31991 97.208255 
L 193.409346 98.749146 
L 193.767092 94.291567 
L 193.945965 91.760102 
L 194.035402 91.760102 
L 194.124838 94.621758 
L 194.214275 93.356025 
L 194.393148 87.357554 
L 194.572021 87.412586 
L 194.750894 91.870166 
L 194.840331 91.319847 
L 194.929767 91.154752 
L 195.019204 93.741248 
L 195.10864 89.448764 
L 195.287513 91.980229 
L 195.37695 91.595006 
L 195.466386 88.293096 
L 195.734696 91.154752 
L 195.913569 95.722395 
L 196.092442 98.749146 
L 196.181878 98.914242 
L 196.360751 97.703541 
L 196.450188 99.629656 
L 196.629061 96.712968 
L 196.718497 96.988127 
L 196.89737 90.934624 
L 196.986807 91.264815 
L 197.076243 95.722395 
L 197.16568 95.006981 
L 197.433989 92.530548 
L 197.523426 92.31042 
L 197.702299 93.79628 
L 197.970609 91.209783 
L 198.060045 91.154752 
L 198.149482 88.128 
L 198.238918 89.778955 
L 198.417791 88.678318 
L 198.686101 87.742777 
L 198.775537 86.64214 
L 198.95441 92.31042 
L 199.043847 92.31042 
L 199.22272 96.437809 
L 199.491029 96.327745 
L 199.669902 97.428382 
L 199.759339 94.016408 
L 199.848775 94.071439 
L 199.938212 91.595006 
L 200.027648 91.815134 
L 200.206521 97.318318 
L 200.385394 99.024306 
L 200.474831 101.060484 
L 200.832577 94.181503 
L 201.01145 94.731822 
L 201.100887 94.896917 
L 201.27976 95.447236 
L 201.369196 95.447236 
L 201.458633 95.832459 
L 201.548069 90.714497 
L 201.637506 91.044688 
L 201.726942 91.154752 
L 201.816379 90.274242 
L 202.084688 84.881121 
L 202.263561 81.304051 
L 202.352998 81.304051 
L 202.442434 85.431439 
L 202.621307 81.964433 
L 202.710744 82.679847 
L 202.80018 81.799338 
L 202.979053 78.167236 
L 203.06849 77.837045 
L 203.157926 76.956535 
L 203.247363 77.341758 
L 203.426236 76.791439 
L 203.605109 78.827618 
L 203.783982 79.983287 
L 203.873418 82.184561 
L 203.962855 81.634242 
L 204.052292 82.184561 
L 204.141728 79.157809 
L 204.231165 79.267873 
L 204.320601 79.267873 
L 204.499474 80.148382 
L 204.85722 73.489529 
L 205.036093 73.434497 
L 205.12553 72.994242 
L 205.214966 77.231694 
L 205.304403 76.241121 
L 205.393839 77.121631 
L 205.572712 76.571312 
L 205.662149 76.571312 
L 205.751585 76.791439 
L 205.841022 76.736408 
L 205.930458 76.406217 
L 206.109331 81.304051 
L 206.198768 78.717554 
L 206.288204 78.827618 
L 206.467077 79.267873 
L 206.735387 77.726981 
L 207.003696 79.818191 
L 207.182569 77.451822 
L 207.272006 77.451822 
L 207.450879 72.33386 
L 207.719189 74.204943 
L 207.808625 75.085452 
L 207.987498 73.709656 
L 208.076935 74.259975 
L 208.345244 74.259975 
L 208.524117 72.553987 
L 208.70299 74.920357 
L 208.792427 74.920357 
L 208.9713 69.912459 
L 209.150173 70.627873 
L 209.239609 69.582268 
L 209.329046 69.96749 
L 209.507919 69.36214 
L 209.776228 69.417172 
L 210.044538 72.994242 
L 210.312847 72.994242 
L 210.402284 73.489529 
L 210.581157 73.159338 
L 210.670594 70.682904 
L 210.849467 73.764688 
L 210.938903 73.654624 
L 211.207213 79.212841 
L 211.296649 77.561885 
L 211.386086 78.937682 
L 211.564959 75.360611 
L 211.654395 78.497427 
L 211.743832 74.42507 
L 211.833268 74.700229 
L 211.922705 74.149911 
L 212.191014 75.91093 
L 212.369887 75.635771 
L 212.459324 75.635771 
L 212.638197 77.506854 
L 212.995943 75.085452 
L 213.264252 81.414115 
L 213.353689 79.708127 
L 213.532562 80.478573 
L 213.711435 77.837045 
L 213.979745 79.377936 
L 214.069181 79.377936 
L 214.248054 80.533605 
L 214.337491 79.873223 
L 214.516364 84.000611 
L 214.695237 83.285197 
L 214.784673 84.055643 
L 214.87411 80.808764 
L 214.963546 80.863796 
L 215.142419 81.249019 
L 215.410729 86.256917 
L 215.589602 85.926726 
L 215.768475 91.319847 
L 216.036784 87.027363 
L 216.215657 88.898446 
L 216.305094 88.568255 
L 216.39453 90.439338 
L 216.66284 87.852841 
L 216.752276 87.852841 
L 216.93115 85.926726 
L 217.020586 85.761631 
L 217.110023 84.991185 
L 217.288896 85.431439 
L 217.557205 85.871694 
L 217.646642 85.431439 
L 217.736078 87.302522 
L 217.825515 87.192459 
L 218.004388 87.137427 
L 218.093824 86.201885 
L 218.183261 90.384306 
L 218.272697 89.944051 
L 218.362134 90.769529 
L 218.541007 86.091822 
L 218.809316 86.146854 
L 218.988189 84.605962 
L 219.077626 84.716025 
L 219.435372 80.038318 
L 219.524808 80.533605 
L 219.614245 80.423541 
L 219.793118 80.423541 
L 219.971991 80.038318 
L 220.061427 80.09335 
L 220.150864 82.514752 
L 220.240301 82.239592 
L 220.50861 82.239592 
L 220.598047 82.404688 
L 220.77692 82.955006 
L 220.866356 84.936153 
L 221.045229 82.45972 
L 221.224102 83.340229 
L 221.313539 88.678318 
L 221.402975 88.293096 
L 221.492412 88.072968 
L 221.760721 91.09972 
L 221.850158 89.944051 
L 222.029031 94.016408 
L 222.29734 91.870166 
L 222.386777 91.980229 
L 222.476213 91.760102 
L 222.744523 87.742777 
L 222.833959 87.742777 
L 223.012832 89.118573 
L 223.102269 89.118573 
L 223.460015 86.862268 
L 223.638888 83.560357 
L 223.907198 79.377936 
L 224.086071 80.478573 
L 224.264944 80.533605 
L 224.35438 78.442395 
L 224.533253 79.543032 
L 224.62269 79.543032 
L 224.980436 77.231694 
L 225.159309 82.679847 
L 225.338182 85.761631 
L 225.606491 85.816662 
L 225.695928 84.605962 
L 225.785364 78.387363 
L 225.964237 79.983287 
L 226.053674 81.083924 
L 226.232547 77.837045 
L 226.41142 82.844943 
L 226.500856 82.349656 
L 226.590293 77.011567 
L 226.948039 85.596535 
L 227.216349 85.486471 
L 227.305785 88.072968 
L 227.484658 82.679847 
L 227.574095 85.15628 
L 227.752968 81.909401 
L 227.931841 82.734879 
L 228.021277 82.734879 
L 228.110714 83.06507 
L 228.379023 82.074497 
L 228.46846 83.230166 
L 228.557896 81.028892 
L 228.647333 81.193987 
L 228.736769 81.414115 
L 228.826206 80.863796 
L 229.094515 82.074497 
L 229.183952 82.239592 
L 229.362825 81.634242 
L 229.452261 81.634242 
L 229.541698 81.083924 
L 229.631134 79.543032 
L 229.720571 79.653096 
L 230.167754 77.286726 
L 230.25719 77.837045 
L 230.346627 77.616917 
L 230.436063 77.726981 
L 230.614936 78.662522 
L 230.704373 78.60749 
L 230.883246 72.719083 
L 230.972682 71.618446 
L 231.062119 71.673478 
L 231.151555 71.508382 
L 231.330428 71.783541 
L 231.509301 76.571312 
L 231.688174 76.901503 
L 231.777611 76.571312 
L 231.956484 78.332331 
L 232.135357 78.112204 
L 232.31423 78.222268 
L 232.403666 78.60749 
L 232.493103 82.955006 
L 232.671976 81.57921 
L 232.761412 81.634242 
L 232.940285 76.736408 
L 233.029722 76.736408 
L 233.119159 78.00214 
L 233.208595 76.571312 
L 233.387468 76.956535 
L 233.476905 81.57921 
L 233.745214 77.341758 
L 233.834651 77.341758 
L 234.013524 76.791439 
L 234.10296 77.451822 
L 234.37127 76.626344 
L 234.460706 76.626344 
L 234.550143 77.176662 
L 234.639579 77.066599 
L 234.818452 81.028892 
L 234.997325 80.97386 
L 235.176198 77.726981 
L 235.355071 77.782013 
L 235.444508 76.296153 
L 235.712817 79.377936 
L 235.981127 75.635771 
L 236.16 77.671949 
L 236.249437 77.671949 
L 236.338873 84.771057 
L 236.42831 84.716025 
L 236.517746 84.55093 
L 236.607183 83.67042 
L 236.696619 79.543032 
L 236.786056 79.928255 
L 237.054365 80.588637 
L 237.143802 80.533605 
L 237.322675 75.580739 
L 237.501548 76.076025 
L 237.590984 72.664051 
L 237.769857 80.038318 
L 237.859294 80.038318 
L 237.94873 77.506854 
L 238.038167 78.057172 
L 238.127603 78.057172 
L 238.306476 75.415643 
L 238.395913 75.415643 
L 238.574786 80.313478 
L 238.664222 80.313478 
L 238.843095 79.873223 
L 238.932532 80.423541 
L 239.111405 79.543032 
L 239.200841 77.121631 
L 239.379715 78.332331 
L 239.469151 78.332331 
L 239.648024 77.39679 
L 239.737461 80.588637 
L 239.826897 80.258446 
L 239.916334 79.873223 
L 240.00577 76.681376 
L 240.363516 93.961376 
L 240.452953 92.750675 
L 240.542389 92.750675 
L 240.631826 91.70507 
L 240.810699 93.245962 
L 240.989572 86.64214 
L 241.168445 77.561885 
L 241.526191 77.671949 
L 241.615627 77.726981 
L 241.7945 78.332331 
L 241.973373 78.387363 
L 242.152246 75.085452 
L 242.241683 75.30558 
L 242.331119 76.020994 
L 242.420556 75.855898 
L 242.599429 75.470675 
L 242.688866 75.965962 
L 242.957175 69.142013 
L 243.046612 69.472204 
L 243.136048 67.821248 
L 243.225485 67.87628 
L 243.404358 69.692331 
L 243.493794 69.692331 
L 243.762104 74.590166 
L 243.940977 72.664051 
L 244.030413 72.388892 
L 244.11985 74.590166 
L 244.209286 74.42507 
L 244.388159 74.094879 
L 244.477596 75.140484 
L 244.656469 72.388892 
L 244.745905 72.884178 
L 244.835342 72.664051 
L 244.924778 71.838573 
L 245.103651 72.664051 
L 245.282524 75.855898 
L 245.371961 75.635771 
L 245.461397 75.140484 
L 245.550834 75.250548 
L 245.64027 75.580739 
L 245.729707 80.09335 
L 245.819144 79.488 
L 246.087453 78.772586 
L 246.17689 78.772586 
L 246.355763 79.763159 
L 246.534636 80.09335 
L 246.624072 79.983287 
L 246.802945 78.88265 
L 246.981818 78.992713 
L 247.160691 75.580739 
L 247.339564 75.800866 
L 247.518437 74.149911 
L 247.69731 74.315006 
L 247.96562 74.42507 
L 248.055056 73.654624 
L 248.233929 76.076025 
L 248.412802 76.076025 
L 248.502239 75.690803 
L 248.681112 80.918828 
L 248.770548 81.083924 
L 248.949421 79.047745 
L 249.217731 79.047745 
L 249.307168 82.349656 
L 249.396604 82.239592 
L 249.75435 82.184561 
L 249.843787 84.440866 
L 250.201533 70.682904 
L 250.290969 70.792968 
L 250.380406 70.792968 
L 250.559279 69.582268 
L 250.648715 69.582268 
L 250.917025 73.984815 
L 251.095898 73.434497 
L 251.185334 73.874752 
L 251.364207 79.267873 
L 251.453644 79.267873 
L 251.54308 78.937682 
L 251.721953 82.019465 
L 251.81139 78.992713 
L 251.900826 79.598064 
L 251.990263 79.598064 
L 252.079699 82.239592 
L 252.169136 81.689274 
L 252.258573 76.956535 
L 252.348009 77.176662 
L 252.526882 78.937682 
L 252.616319 78.552459 
L 252.884628 72.664051 
L 253.152938 74.535134 
L 253.331811 71.068127 
L 253.421247 72.719083 
L 253.60012 71.893605 
L 253.778993 71.233223 
L 253.957866 76.901503 
L 254.047303 76.626344 
L 254.405049 76.51628 
L 254.494485 77.286726 
L 254.583922 76.681376 
L 254.673358 76.791439 
L 254.762795 76.736408 
L 254.852231 76.846471 
L 254.941668 75.855898 
L 255.120541 77.231694 
L 255.209977 77.121631 
L 255.299414 76.736408 
L 255.478287 77.451822 
L 255.567724 71.838573 
L 255.65716 71.948637 
L 255.746597 71.948637 
L 255.836033 72.33386 
L 256.014906 72.168764 
L 256.104343 72.278828 
L 256.193779 68.866854 
L 256.283216 69.252076 
L 256.551525 68.976917 
L 256.730398 69.857427 
L 256.819835 74.810293 
L 256.909271 74.645197 
L 257.177581 75.965962 
L 257.267017 75.855898 
L 257.356454 74.920357 
L 257.535327 71.45335 
L 257.7142 71.508382 
L 257.893073 72.719083 
L 257.982509 71.178191 
L 258.071946 71.288255 
L 258.161382 71.288255 
L 258.250819 71.123159 
L 258.340255 73.434497 
L 258.429692 73.159338 
L 258.519128 72.829146 
L 258.608565 73.654624 
L 258.698002 71.013096 
L 258.876875 72.33386 
L 259.145184 72.223796 
L 259.234621 72.168764 
L 259.324057 71.72851 
L 259.413494 72.774115 
L 259.592367 65.840102 
L 259.681803 66.115261 
L 259.77124 66.060229 
L 259.860676 67.656153 
L 260.039549 66.280357 
L 260.128986 66.555516 
L 260.218422 67.215898 
L 260.307859 68.976917 
L 260.397295 68.866854 
L 260.576168 69.252076 
L 260.665605 71.783541 
L 260.755041 70.352713 
L 260.844478 71.178191 
L 260.933914 70.737936 
L 261.023351 71.563414 
L 261.202224 75.525707 
L 261.29166 76.351185 
L 261.470533 72.553987 
L 261.55997 72.609019 
L 261.649406 68.976917 
L 261.738843 69.802395 
L 261.828279 69.692331 
L 262.007153 69.96749 
L 262.096589 72.829146 
L 262.186026 70.848 
L 262.364899 72.829146 
L 262.454335 72.829146 
L 262.543772 74.149911 
L 262.901518 71.013096 
L 262.990954 71.123159 
L 263.080391 71.123159 
L 263.169827 71.783541 
L 263.3487 71.508382 
L 263.438137 71.783541 
L 263.527573 69.417172 
L 263.706446 77.341758 
L 263.974756 77.671949 
L 264.153629 82.624815 
L 264.421938 88.73335 
L 264.511375 88.678318 
L 264.600811 88.73335 
L 264.779684 84.330803 
L 264.869121 84.330803 
L 265.047994 86.807236 
L 265.137431 85.706599 
L 265.226867 86.972331 
L 265.316304 86.697172 
L 265.495177 86.146854 
L 265.67405 85.981758 
L 265.942359 88.458191 
L 266.210669 87.137427 
L 266.389542 87.302522 
L 266.478978 85.816662 
L 266.568415 85.926726 
L 266.657851 85.816662 
L 266.926161 91.70507 
L 267.015597 91.70507 
L 267.283907 78.552459 
L 267.373343 79.267873 
L 267.46278 79.102777 
L 267.641653 74.480102 
L 267.820526 72.609019 
L 267.909962 77.947108 
L 267.999399 74.865325 
L 268.088835 77.066599 
L 268.178272 76.846471 
L 268.267708 77.176662 
L 268.446582 81.304051 
L 268.625455 83.67042 
L 268.714891 88.458191 
L 268.804328 87.357554 
L 268.983201 88.072968 
L 269.162074 87.907873 
L 269.340947 79.432968 
L 269.51982 82.404688 
L 269.877566 87.137427 
L 270.056439 86.422013 
L 270.145875 86.146854 
L 270.235312 87.52265 
L 270.324748 87.192459 
L 270.503621 87.302522 
L 270.682494 84.55093 
L 270.861367 84.440866 
L 270.950804 84.000611 
L 271.129677 90.549401 
L 271.397986 89.558828 
L 271.666296 93.686217 
L 271.845169 92.090293 
L 271.934606 92.090293 
L 272.113479 91.374879 
L 272.292352 94.401631 
L 272.650098 95.172076 
L 272.918407 81.028892 
L 273.186717 81.028892 
L 273.276153 81.909401 
L 273.36559 81.028892 
L 273.544463 77.892076 
L 273.633899 78.332331 
L 273.812772 75.250548 
L 273.991645 75.690803 
L 274.081082 75.250548 
L 274.170518 73.159338 
L 274.438828 79.818191 
L 274.528264 79.432968 
L 274.707137 72.33386 
L 274.796574 72.884178 
L 274.975447 74.149911 
L 275.064884 74.094879 
L 275.15432 79.488 
L 275.243757 77.286726 
L 275.42263 81.799338 
L 275.512066 81.469146 
L 275.690939 78.442395 
L 275.780376 78.662522 
L 275.959249 78.662522 
L 276.048685 81.909401 
L 276.227558 80.918828 
L 276.316995 80.698701 
L 276.495868 79.377936 
L 276.585304 79.488 
L 276.764177 79.322904 
L 276.94305 74.535134 
L 277.032487 74.535134 
L 277.121923 74.039847 
L 277.390233 70.627873 
L 277.479669 70.792968 
L 277.569106 70.517809 
L 277.837415 73.214369 
L 277.926852 73.214369 
L 278.016289 72.388892 
L 278.105725 73.874752 
L 278.195162 73.324433 
L 278.374035 73.544561 
L 278.552908 76.571312 
L 278.642344 76.351185 
L 278.731781 75.800866 
L 278.910654 79.212841 
L 279.00009 81.414115 
L 279.089527 79.873223 
L 279.2684 75.690803 
L 279.536709 73.269401 
L 279.626146 75.470675 
L 279.715582 75.415643 
L 279.805019 75.525707 
L 280.162765 78.60749 
L 280.431074 78.717554 
L 280.520511 78.442395 
L 280.609947 80.643669 
L 280.699384 80.203414 
L 280.878257 78.717554 
L 280.967693 80.313478 
L 281.05713 79.983287 
L 281.146566 79.983287 
L 281.236003 82.239592 
L 281.504313 78.552459 
L 281.683186 78.552459 
L 281.772622 75.635771 
L 281.951495 84.165707 
L 282.040932 84.165707 
L 282.130368 84.771057 
L 282.219805 84.660994 
L 282.398678 84.495898 
L 282.488114 85.981758 
L 282.666987 82.844943 
L 282.935297 85.651567 
L 283.11417 83.560357 
L 283.382479 82.679847 
L 283.650789 88.458191 
L 283.740225 86.366981 
L 283.829662 86.477045 
L 283.919098 87.797809 
L 284.097971 87.192459 
L 284.187408 90.054115 
L 284.276844 89.944051 
L 284.366281 86.201885 
L 284.455718 87.027363 
L 284.634591 86.917299 
L 284.724027 86.201885 
L 284.813464 87.52265 
L 284.9029 84.385834 
L 284.992337 85.101248 
L 285.081773 85.211312 
L 285.260646 87.797809 
L 285.439519 87.577682 
L 285.528956 87.577682 
L 285.618392 87.302522 
L 285.707829 84.440866 
L 285.797265 84.495898 
L 286.065575 84.495898 
L 286.244448 84.055643 
L 286.512757 91.09972 
L 286.69163 86.697172 
L 286.781067 88.513223 
L 286.870503 88.348127 
L 286.95994 87.742777 
L 287.138813 90.989656 
L 287.317686 83.340229 
L 287.407122 81.083924 
L 287.675432 91.925197 
L 287.764869 91.484943 
L 287.854305 95.612331 
L 288.033178 91.484943 
L 288.122615 91.374879 
L 288.301488 90.054115 
L 288.480361 90.879592 
L 288.659234 86.146854 
L 288.74867 85.651567 
L 288.927543 83.06507 
L 289.01698 87.24749 
L 289.195853 82.789911 
L 289.285289 83.120102 
L 289.374726 82.569783 
L 289.553599 86.64214 
L 289.643035 87.027363 
L 289.732472 85.981758 
L 289.821908 87.24749 
L 289.911345 87.137427 
L 290.000781 85.486471 
L 290.179654 80.203414 
L 290.447964 78.167236 
L 290.626837 79.653096 
L 290.80571 80.203414 
L 290.895147 79.047745 
L 290.984583 76.131057 
L 291.163456 80.533605 
L 291.252893 80.533605 
L 291.342329 80.863796 
L 291.431766 80.808764 
L 291.610639 80.698701 
L 291.700075 80.588637 
L 291.878948 78.552459 
L 292.057821 79.432968 
L 292.147258 79.322904 
L 292.326131 84.440866 
L 292.415567 84.000611 
L 292.59444 81.799338 
L 292.683877 82.349656 
L 292.773313 82.294624 
L 292.952186 80.643669 
L 293.041623 81.138955 
L 293.131059 80.588637 
L 293.309932 78.772586 
L 293.488805 78.552459 
L 293.578242 78.60749 
L 293.757115 79.212841 
L 293.935988 83.615389 
L 294.293734 83.505325 
L 294.472607 83.285197 
L 294.562044 82.624815 
L 294.740917 82.899975 
L 295.098663 78.717554 
L 295.188099 78.717554 
L 295.456409 78.277299 
L 295.545845 78.552459 
L 295.635282 80.478573 
L 295.814155 75.195516 
L 295.903591 75.195516 
L 296.082464 68.261503 
L 296.171901 69.307108 
L 296.261337 73.269401 
L 296.44021 72.003669 
L 296.619083 73.379465 
L 296.70852 73.269401 
L 296.797956 73.049274 
L 296.976829 77.506854 
L 297.066266 77.616917 
L 297.245139 74.810293 
L 297.424012 74.480102 
L 297.513449 74.480102 
L 297.692322 75.965962 
L 297.781758 75.580739 
L 297.960631 79.873223 
L 298.050068 80.148382 
L 298.139504 81.138955 
L 298.228941 80.918828 
L 298.318377 80.918828 
L 298.49725 79.818191 
L 298.586687 80.038318 
L 298.676123 80.698701 
L 298.854996 79.653096 
L 298.944433 79.873223 
L 299.123306 77.39679 
L 299.212742 76.681376 
L 299.391615 78.497427 
L 299.570488 79.157809 
L 299.838798 79.598064 
L 300.017671 71.178191 
L 300.107107 71.72851 
L 300.196544 71.563414 
L 300.375417 73.984815 
L 300.464853 73.599592 
L 300.55429 74.094879 
L 300.733163 81.028892 
L 300.8226 81.028892 
L 300.912036 81.634242 
L 301.001473 81.359083 
L 301.090909 81.524178 
L 301.269782 80.643669 
L 301.359219 80.863796 
L 301.538092 80.643669 
L 301.895838 72.388892 
L 301.985274 72.498955 
L 302.164147 71.508382 
L 302.253584 73.544561 
L 302.34302 68.591694 
L 302.521893 73.214369 
L 302.700766 74.094879 
L 302.790203 74.975389 
L 302.969076 81.689274 
L 303.058512 81.689274 
L 303.416258 80.038318 
L 303.595131 80.148382 
L 303.684568 81.57921 
L 303.774005 81.524178 
L 303.863441 81.524178 
L 303.952878 83.505325 
L 304.042314 83.285197 
L 304.131751 83.725452 
L 304.310624 83.340229 
L 304.489497 83.560357 
L 304.578933 83.560357 
L 304.66837 86.477045 
L 304.757806 80.423541 
L 304.847243 81.249019 
L 305.026116 77.671949 
L 305.115552 78.277299 
L 305.294425 77.782013 
L 305.473298 78.717554 
L 305.562735 77.671949 
L 305.652171 77.892076 
L 305.741608 73.544561 
L 305.831044 74.204943 
L 306.009917 71.233223 
L 306.18879 74.039847 
L 306.367663 75.085452 
L 306.4571 77.39679 
L 306.546536 76.901503 
L 306.635973 76.791439 
L 307.083156 82.129529 
L 307.172592 82.239592 
L 307.262029 81.304051 
L 307.440902 82.569783 
L 307.530338 82.349656 
L 307.798648 79.432968 
L 307.888084 79.432968 
L 307.977521 75.085452 
L 308.156394 79.653096 
L 308.24583 79.653096 
L 308.603576 74.865325 
L 308.782449 70.848 
L 308.871886 71.343287 
L 309.050759 71.673478 
L 309.229632 70.572841 
L 309.319068 71.178191 
L 309.676814 67.325962 
L 309.855687 66.995771 
L 310.03456 67.821248 
L 310.123997 67.711185 
L 310.213434 68.701758 
L 310.30287 68.591694 
L 310.392307 68.591694 
L 310.57118 63.473732 
L 310.660616 65.014624 
L 310.750053 64.904561 
L 310.839489 65.17972 
L 310.928926 66.115261 
L 311.107799 68.646726 
L 311.286672 68.591694 
L 311.465545 66.995771 
L 311.554981 66.995771 
L 311.644418 64.904561 
L 311.823291 67.931312 
L 311.912727 67.931312 
L 312.002164 66.280357 
L 312.0916 66.335389 
L 312.181037 65.730038 
L 312.270473 65.895134 
L 312.538783 65.234752 
L 312.628219 68.536662 
L 312.717656 66.500484 
L 312.807092 71.233223 
L 312.985965 64.464306 
L 313.075402 64.464306 
L 313.254275 63.473732 
L 313.343711 63.913987 
L 313.433148 63.748892 
L 313.522585 63.803924 
L 313.612021 63.803924 
L 313.790894 69.307108 
L 313.880331 69.527236 
L 314.059204 71.288255 
L 314.14864 71.783541 
L 314.238077 71.288255 
L 314.327513 67.436025 
L 314.41695 68.041376 
L 314.595823 69.36214 
L 314.774696 68.536662 
L 314.864132 68.646726 
L 315.043005 68.646726 
L 315.132442 69.252076 
L 315.221878 68.75679 
L 315.400751 71.618446 
L 315.669061 70.682904 
L 315.93737 73.764688 
L 316.026807 74.755261 
L 316.20568 73.709656 
L 316.295116 71.563414 
L 316.384553 71.783541 
L 316.563426 72.93921 
L 316.742299 80.09335 
L 316.831736 81.249019 
L 317.010609 80.423541 
L 317.100045 80.423541 
L 317.368355 73.599592 
L 317.547228 74.975389 
L 317.726101 74.480102 
L 317.904974 75.580739 
L 317.99441 74.590166 
L 318.173283 74.975389 
L 318.26272 74.920357 
L 318.441593 75.30558 
L 318.531029 75.470675 
L 318.709902 76.571312 
L 318.888775 72.829146 
L 318.978212 76.076025 
L 319.157085 73.81972 
L 319.246521 74.920357 
L 319.335958 74.645197 
L 319.425394 77.451822 
L 319.514831 75.360611 
L 319.604267 77.341758 
L 319.693704 74.039847 
L 319.78314 79.047745 
L 319.872577 78.772586 
L 320.05145 85.816662 
L 320.140887 82.569783 
L 320.230323 85.596535 
L 320.31976 83.94558 
L 320.498633 85.706599 
L 320.588069 85.541503 
L 320.677506 84.495898 
L 320.766942 84.771057 
L 320.856379 84.55093 
L 320.945815 84.936153 
L 321.035252 87.632713 
L 321.214125 86.532076 
L 321.392998 86.146854 
L 321.482434 85.981758 
L 321.661307 82.294624 
L 321.750744 81.634242 
L 321.929617 79.488 
L 322.10849 82.789911 
L 322.197926 82.844943 
L 322.287363 83.175134 
L 322.376799 82.569783 
L 322.466236 77.837045 
L 322.555672 78.332331 
L 322.734545 78.717554 
L 322.823982 80.09335 
L 323.002855 84.881121 
L 323.181728 81.304051 
L 323.450038 80.038318 
L 323.628911 76.681376 
L 323.807784 76.681376 
L 323.986657 71.838573 
L 324.076093 71.893605 
L 324.16553 71.673478 
L 324.344403 69.96749 
L 324.433839 69.912459 
L 324.612712 72.223796 
L 324.702149 72.388892 
L 324.791585 77.726981 
L 324.881022 77.121631 
L 324.970458 73.214369 
L 325.059895 73.379465 
L 325.149331 73.709656 
L 325.328204 78.937682 
L 325.417641 78.88265 
L 325.507077 76.736408 
L 325.596514 76.901503 
L 325.864823 76.956535 
L 326.043696 74.370038 
L 326.312006 72.388892 
L 326.401443 72.388892 
L 326.580316 71.673478 
L 326.669752 77.066599 
L 326.759189 75.690803 
L 326.848625 75.800866 
L 327.027498 75.800866 
L 327.116935 75.415643 
L 327.295808 73.764688 
L 327.385244 73.709656 
L 327.474681 73.379465 
L 327.564117 73.709656 
L 327.74299 73.159338 
L 327.921863 75.470675 
L 328.0113 69.802395 
L 328.100736 69.912459 
L 328.190173 70.022522 
L 328.279609 67.380994 
L 328.369046 67.766217 
L 328.458482 67.87628 
L 328.547919 62.152968 
L 328.637355 64.134115 
L 328.905665 75.415643 
L 328.995101 75.635771 
L 329.084538 75.085452 
L 329.263411 65.730038 
L 329.442284 65.564943 
L 329.621157 63.913987 
L 329.710594 64.29921 
L 329.978903 67.821248 
L 330.247213 67.436025 
L 330.336649 67.325962 
L 330.604959 76.681376 
L 330.783832 69.031949 
L 330.873268 66.720611 
L 330.962705 72.498955 
L 331.052141 72.003669 
L 331.141578 71.893605 
L 331.409887 67.325962 
L 331.499324 67.436025 
L 331.678197 67.436025 
L 331.767633 64.684433 
L 331.85707 65.730038 
L 332.125379 71.508382 
L 332.304252 71.783541 
L 332.572562 69.96749 
L 332.661998 71.893605 
L 332.840872 67.601121 
L 332.930308 67.105834 
L 333.109181 71.508382 
L 333.198618 71.45335 
L 333.377491 70.352713 
L 333.556364 66.170293 
L 333.6458 65.234752 
L 333.824673 65.730038 
L 333.91411 65.509911 
L 334.092983 66.225325 
L 334.182419 66.225325 
L 334.361292 65.564943 
L 334.450729 65.950166 
L 334.808475 70.022522 
L 334.897911 67.87628 
L 335.076784 71.838573 
L 335.255657 71.783541 
L 335.345094 71.838573 
L 335.523967 73.544561 
L 335.613403 73.599592 
L 335.70284 73.324433 
L 335.792276 70.462777 
L 335.881713 70.572841 
L 335.97115 69.637299 
L 336.060586 70.848 
L 336.150023 69.747363 
L 336.239459 73.654624 
L 336.328896 73.599592 
L 336.418332 73.324433 
L 336.507769 74.204943 
L 336.686642 72.829146 
L 336.865515 78.167236 
L 337.044388 75.580739 
L 337.223261 76.736408 
L 337.312697 76.956535 
L 337.402134 74.149911 
L 337.49157 74.42507 
L 337.670443 77.947108 
L 337.849316 78.277299 
L 337.938753 75.635771 
L 338.028189 75.91093 
L 338.117626 75.91093 
L 338.207062 76.131057 
L 338.385935 79.488 
L 338.564808 79.377936 
L 338.654245 79.377936 
L 338.833118 77.837045 
L 339.011991 77.892076 
L 339.101427 73.104306 
L 339.190864 73.544561 
L 339.280301 73.324433 
L 339.369737 72.774115 
L 339.459174 69.307108 
L 339.54861 69.747363 
L 339.81692 70.352713 
L 339.906356 70.462777 
L 339.995793 72.93921 
L 340.174666 69.142013 
L 340.353539 69.307108 
L 340.532412 59.676535 
L 341.158467 72.498955 
L 341.247904 72.498955 
L 341.33734 66.66558 
L 341.60565 70.132586 
L 341.695086 70.627873 
L 341.784523 70.572841 
L 341.873959 70.462777 
L 342.052832 71.673478 
L 342.231705 77.176662 
L 342.500015 77.066599 
L 342.678888 77.341758 
L 342.768325 76.241121 
L 342.947198 76.626344 
L 343.036634 76.681376 
L 343.126071 78.387363 
L 343.215507 78.222268 
L 343.304944 78.497427 
L 343.39438 77.011567 
L 343.483817 77.121631 
L 343.573253 77.121631 
L 343.66269 76.51628 
L 343.752126 76.626344 
L 343.841563 79.377936 
L 343.930999 75.470675 
L 344.020436 75.965962 
L 344.199309 76.351185 
L 344.288745 75.415643 
L 344.467618 67.27093 
L 344.557055 66.335389 
L 344.646491 66.66558 
L 344.735928 64.849529 
L 344.914801 66.720611 
L 345.004237 65.069656 
L 345.093674 65.454879 
L 345.18311 66.610548 
L 345.272547 65.564943 
L 345.361983 65.78507 
L 345.45142 66.060229 
L 345.71973 65.289783 
L 345.898603 68.591694 
L 345.988039 68.591694 
L 346.166912 70.24265 
L 346.524658 71.893605 
L 346.792968 81.964433 
L 346.882404 81.964433 
L 346.971841 82.239592 
L 347.150714 81.359083 
L 347.24015 81.359083 
L 347.419023 76.681376 
L 347.50846 77.011567 
L 347.597896 75.195516 
L 347.687333 75.360611 
L 347.776769 75.360611 
L 348.045079 73.269401 
L 348.134515 73.874752 
L 348.313388 67.050803 
L 348.402825 66.885707 
L 348.492261 66.940739 
L 348.581698 68.096408 
L 348.671134 67.491057 
L 348.850008 59.731567 
L 349.028881 60.171822 
L 349.118317 60.171822 
L 349.207754 60.72214 
L 349.386627 57.035006 
L 349.476063 56.099465 
L 349.654936 57.805452 
L 349.744373 57.75042 
L 349.923246 58.080611 
L 350.012682 57.970548 
L 350.191555 56.759847 
L 350.370428 56.429656 
L 350.459865 56.099465 
L 350.638738 60.11679 
L 350.907047 60.997299 
L 351.08592 60.942268 
L 351.175357 60.061758 
L 351.264793 60.11679 
L 351.443666 63.363669 
L 351.533103 62.81335 
L 351.711976 62.978446 
L 351.801412 64.079083 
L 351.890849 63.969019 
L 351.980285 63.969019 
L 352.248595 65.454879 
L 352.427468 75.03042 
L 352.606341 74.094879 
L 352.695778 75.635771 
L 352.785214 73.654624 
L 352.874651 73.709656 
L 353.053524 73.379465 
L 353.14296 73.929783 
L 353.232397 73.764688 
L 353.321833 73.929783 
L 353.500706 75.470675 
L 353.679579 74.975389 
L 353.769016 73.929783 
L 353.858452 74.149911 
L 353.947889 74.094879 
L 354.037325 73.599592 
L 354.126762 75.03042 
L 354.216198 73.654624 
L 354.395071 75.470675 
L 354.484508 74.810293 
L 354.663381 75.745834 
L 354.93169 74.315006 
L 355.021127 74.315006 
L 355.289437 63.473732 
L 355.378873 62.978446 
L 355.46831 63.033478 
L 355.557746 63.253605 
L 355.826056 65.619975 
L 356.094365 64.244178 
L 356.183802 64.079083 
L 356.362675 64.29921 
L 356.541548 57.14507 
L 356.630984 56.704815 
L 356.899294 57.695389 
L 357.078167 54.17335 
L 357.25704 54.118318 
L 357.346476 55.769274 
L 357.435913 55.384051 
L 357.614786 53.953223 
L 357.704222 54.228382 
L 357.793659 53.568 
L 357.972532 59.181248 
L 358.061968 58.961121 
L 358.330278 56.209529 
L 358.509151 56.319592 
L 358.688024 58.355771 
L 358.777461 58.355771 
L 358.866897 58.520866 
L 359.135207 68.041376 
L 359.31408 67.491057 
L 359.403516 67.105834 
L 359.582389 67.546089 
L 359.850699 66.66558 
L 359.940135 67.491057 
L 360.208445 66.66558 
L 360.297881 67.656153 
L 360.387318 67.601121 
L 360.476754 68.096408 
L 360.566191 66.720611 
L 360.745064 75.30558 
L 360.8345 75.250548 
L 360.923937 75.30558 
L 361.013373 75.855898 
L 361.10281 75.470675 
L 361.192246 72.829146 
L 361.281683 73.104306 
L 361.371119 71.178191 
L 361.460556 71.72851 
L 361.549992 74.315006 
L 361.639429 73.81972 
L 361.728866 73.81972 
L 361.907739 70.792968 
L 361.997175 71.178191 
L 362.265485 71.673478 
L 362.444358 71.288255 
L 362.623231 71.783541 
L 362.980977 68.261503 
L 363.070413 68.261503 
L 363.15985 68.536662 
L 363.338723 70.903032 
L 363.428159 72.33386 
L 363.607032 71.508382 
L 363.785905 73.764688 
L 363.964778 74.149911 
L 364.054215 74.039847 
L 364.143651 72.553987 
L 364.233088 72.609019 
L 364.322524 72.058701 
L 364.411961 72.168764 
L 364.590834 72.168764 
L 364.769707 76.131057 
L 364.859144 70.24265 
L 364.94858 71.893605 
L 365.038017 71.288255 
L 365.127453 71.838573 
L 365.306326 66.225325 
L 365.485199 64.794497 
L 365.574636 64.739465 
L 365.753509 63.198573 
L 365.932382 65.014624 
L 366.111255 64.629401 
L 366.200691 64.574369 
L 366.290128 67.87628 
L 366.558437 65.619975 
L 366.73731 65.895134 
L 366.826747 65.895134 
L 366.916183 67.491057 
L 367.00562 66.610548 
L 367.273929 76.131057 
L 367.363366 74.590166 
L 367.452802 74.645197 
L 367.631675 74.259975 
L 367.810548 73.764688 
L 367.989421 69.96749 
L 368.168295 68.701758 
L 368.347168 72.003669 
L 368.526041 80.643669 
L 368.615477 80.753732 
L 368.79435 82.624815 
L 368.883787 82.514752 
L 368.973223 82.789911 
L 369.06266 87.797809 
L 369.152096 83.615389 
L 369.241533 83.67042 
L 369.330969 83.340229 
L 369.509842 83.780484 
L 369.688715 83.67042 
L 369.778152 83.340229 
L 369.867588 83.835516 
L 369.957025 83.725452 
L 370.135898 85.816662 
L 370.314771 85.101248 
L 370.493644 94.126471 
L 370.58308 94.181503 
L 370.761953 93.79628 
L 371.030263 97.538446 
L 371.119699 97.703541 
L 371.209136 97.37335 
L 371.298573 96.382777 
L 371.477446 105.297936 
L 371.566882 105.297936 
L 371.656319 105.683159 
L 372.192938 104.032204 
L 372.282374 104.032204 
L 372.461247 102.326217 
L 372.64012 104.692586 
L 372.729557 104.362395 
L 372.90843 104.197299 
L 373.087303 102.43628 
L 373.355612 101.115516 
L 373.534485 103.702013 
L 373.713358 96.602904 
L 373.802795 96.602904 
L 373.981668 93.851312 
L 374.071104 93.851312 
L 374.160541 100.840357 
L 374.249977 100.675261 
L 374.339414 99.904815 
L 374.42885 99.959847 
L 374.607724 101.335643 
L 374.69716 101.83093 
L 374.786597 101.115516 
L 374.876033 98.584051 
L 374.96547 98.694115 
L 375.144343 97.153223 
L 375.323216 96.492841 
L 375.591525 96.492841 
L 375.680962 97.868637 
L 375.770398 97.703541 
L 375.949271 98.143796 
L 376.038708 101.775898 
L 376.128144 101.665834 
L 376.217581 101.665834 
L 376.307017 97.593478 
L 376.396454 97.703541 
L 376.575327 98.749146 
L 376.664763 98.749146 
L 376.933073 100.069911 
L 377.022509 105.022777 
L 377.290819 95.722395 
L 377.380255 97.923669 
L 377.469692 92.420484 
L 377.559128 93.025834 
L 377.648565 93.080866 
L 377.827438 92.805707 
L 377.916875 92.750675 
L 378.006311 95.832459 
L 378.095748 95.172076 
L 378.274621 93.631185 
L 378.364057 93.851312 
L 378.453494 92.475516 
L 378.54293 92.695643 
L 378.721803 92.640611 
L 378.900676 91.815134 
L 378.990113 87.082395 
L 379.079549 87.797809 
L 379.168986 87.687745 
L 379.347859 88.73335 
L 379.437295 88.348127 
L 379.616168 82.679847 
L 379.705605 83.780484 
L 379.795041 83.67042 
L 379.973914 81.414115 
L 380.063351 86.03679 
L 380.242224 83.780484 
L 380.33166 83.560357 
L 380.510533 83.780484 
L 380.689406 91.429911 
L 380.778843 91.154752 
L 380.868279 89.558828 
L 381.136589 97.043159 
L 381.315462 91.760102 
L 381.404899 92.035261 
L 381.494335 91.595006 
L 381.583772 91.650038 
L 381.673208 93.025834 
L 381.762645 98.088764 
L 381.852081 96.382777 
L 382.030954 96.988127 
L 382.120391 96.988127 
L 382.209827 97.538446 
L 382.299264 94.67679 
L 382.3887 96.382777 
L 382.478137 95.997554 
L 382.567573 96.052586 
L 382.65701 95.832459 
L 382.746446 96.217682 
L 382.835883 95.722395 
L 382.925319 93.300994 
L 383.104192 95.612331 
L 383.193629 95.117045 
L 383.372502 90.879592 
L 383.551375 90.824561 
L 383.730248 92.145325 
L 384.087994 86.752204 
L 384.266867 81.854369 
L 384.44574 84.000611 
L 384.535177 84.165707 
L 384.624613 79.212841 
L 384.71405 79.488 
L 384.803486 79.102777 
L 384.982359 73.81972 
L 385.071796 73.81972 
L 385.250669 74.480102 
L 385.340105 77.892076 
L 385.429542 77.451822 
L 385.697851 76.626344 
L 385.787288 76.131057 
L 385.966161 83.285197 
L 386.055597 84.275771 
L 386.145034 87.082395 
L 386.23447 87.027363 
L 386.323907 89.173605 
L 386.413343 83.395261 
L 386.50278 83.890548 
L 386.592216 84.440866 
L 386.681653 84.275771 
L 386.771089 85.376408 
L 387.039399 74.865325 
L 387.128835 75.745834 
L 387.218272 75.745834 
L 387.397145 77.011567 
L 387.486582 76.846471 
L 387.665455 76.846471 
L 387.844328 75.580739 
L 388.023201 78.00214 
L 388.380947 77.011567 
L 388.470383 77.286726 
L 388.649256 77.176662 
L 388.738693 77.176662 
L 388.828129 77.561885 
L 389.096439 77.066599 
L 389.275312 77.782013 
L 389.364748 76.901503 
L 389.543621 78.717554 
L 389.990804 66.995771 
L 390.259113 66.885707 
L 390.34855 66.115261 
L 390.437986 66.39042 
L 390.527423 66.170293 
L 390.61686 65.619975 
L 390.706296 65.730038 
L 390.885169 66.66558 
L 391.153479 66.885707 
L 391.421788 70.077554 
L 391.690098 67.27093 
L 391.779534 66.885707 
L 391.868971 68.811822 
L 392.047844 73.489529 
L 392.13728 69.307108 
L 392.226717 69.36214 
L 392.316153 69.36214 
L 392.495026 72.719083 
L 392.584463 69.527236 
L 392.673899 69.637299 
L 392.852772 67.986344 
L 393.299955 67.436025 
L 393.389391 65.234752 
L 393.568264 65.840102 
L 393.657701 65.840102 
L 393.747137 68.921885 
L 393.836574 67.766217 
L 393.926011 68.261503 
L 394.015447 68.096408 
L 394.19432 68.976917 
L 394.46263 66.280357 
L 394.552066 65.730038 
L 394.641503 73.489529 
L 394.730939 73.324433 
L 394.820376 72.994242 
L 394.909812 71.893605 
L 394.999249 76.681376 
L 395.088685 76.241121 
L 395.178122 75.580739 
L 395.356995 76.956535 
L 395.446431 77.121631 
L 395.535868 78.222268 
L 395.714741 77.947108 
L 395.893614 80.148382 
L 395.98305 80.148382 
L 396.072487 78.497427 
L 396.25136 81.193987 
L 396.430233 81.193987 
L 396.609106 74.535134 
L 396.698542 74.535134 
L 396.787979 76.296153 
L 396.877415 75.745834 
L 397.056289 74.094879 
L 397.235162 77.39679 
L 397.414035 77.671949 
L 397.503471 77.671949 
L 397.771781 78.277299 
L 397.861217 76.901503 
L 397.950654 77.286726 
L 398.129527 74.645197 
L 398.218963 74.920357 
L 398.3084 74.700229 
L 398.397836 73.544561 
L 398.487273 75.525707 
L 398.487273 75.525707 
" clip-path="url(#p3a72888f2c)" style="fill: none; stroke: #1f77b4; stroke-width: 1.5; stroke-linecap: square"/>
   </g>
   <g id="patch_3">
    <path d="M 57.6 307.584 
L 57.6 41.472 
" style="fill: none; stroke: #000000; stroke-width: 0.8; stroke-linejoin: miter; stroke-linecap: square"/>
   </g>
   <g id="patch_4">
    <path d="M 414.72 307.584 
L 414.72 41.472 
" style="fill: none; stroke: #000000; stroke-width: 0.8; stroke-linejoin: miter; stroke-linecap: square"/>
   </g>
   <g id="patch_5">
    <path d="M 57.6 307.584 
L 414.72 307.584 
" style="fill: none; stroke: #000000; stroke-width: 0.8; stroke-linejoin: miter; stroke-linecap: square"/>
   </g>
   <g id="patch_6">
    <path d="M 57.6 41.472 
L 414.72 41.472 
" style="fill: none; stroke: #000000; stroke-width: 0.8; stroke-linejoin: miter; stroke-linecap: square"/>
   </g>
   <g id="text_16">
    <!-- comp20 -->
    <g transform="translate(211.90125 35.472) scale(0.12 -0.12)">
     <defs>
      <path id="DejaVuSans-63" d="M 3122 3366 
L 3122 2828 
Q 2878 2963 2633 3030 
Q 2388 3097 2138 3097 
Q 1578 3097 1268 2742 
Q 959 2388 959 1747 
Q 959 1106 1268 751 
Q 1578 397 2138 397 
Q 2388 397 2633 464 
Q 2878 531 3122 666 
L 3122 134 
Q 2881 22 2623 -34 
Q 2366 -91 2075 -91 
Q 1284 -91 818 406 
Q 353 903 353 1747 
Q 353 2603 823 3093 
Q 1294 3584 2113 3584 
Q 2378 3584 2631 3529 
Q 2884 3475 3122 3366 
z
" transform="scale(0.015625)"/>
      <path id="DejaVuSans-70" d="M 1159 525 
L 1159 -1331 
L 581 -1331 
L 581 3500 
L 1159 3500 
L 1159 2969 
Q 1341 3281 1617 3432 
Q 1894 3584 2278 3584 
Q 2916 3584 3314 3078 
Q 3713 2572 3713 1747 
Q 3713 922 3314 415 
Q 2916 -91 2278 -91 
Q 1894 -91 1617 61 
Q 1341 213 1159 525 
z
M 3116 1747 
Q 3116 2381 2855 2742 
Q 2594 3103 2138 3103 
Q 1681 3103 1420 2742 
Q 1159 2381 1159 1747 
Q 1159 1113 1420 752 
Q 1681 391 2138 391 
Q 2594 391 2855 752 
Q 3116 1113 3116 1747 
z
" transform="scale(0.015625)"/>
     </defs>
     <use xlink:href="#DejaVuSans-63"/>
     <use xlink:href="#DejaVuSans-6f" x="54.980469"/>
     <use xlink:href="#DejaVuSans-6d" x="116.162109"/>
     <use xlink:href="#DejaVuSans-70" x="213.574219"/>
     <use xlink:href="#DejaVuSans-32" x="277.050781"/>
     <use xlink:href="#DejaVuSans-30" x="340.673828"/>
    </g>
   </g>
  </g>
 </g>
 <defs>
  <clipPath id="p3a72888f2c">
   <rect x="57.6" y="41.472" width="357.12" height="266.112"/>
  </clipPath>
 </defs>
</svg>
