<?xml version="1.0" encoding="utf-8" standalone="no"?>
<!DOCTYPE svg PUBLIC "-//W3C//DTD SVG 1.1//EN"
  "http://www.w3.org/Graphics/SVG/1.1/DTD/svg11.dtd">
<svg xmlns:xlink="http://www.w3.org/1999/xlink" width="460.8pt" height="345.6pt" viewBox="0 0 460.8 345.6" xmlns="http://www.w3.org/2000/svg" version="1.1">
 <metadata>
  <rdf:RDF xmlns:dc="http://purl.org/dc/elements/1.1/" xmlns:cc="http://creativecommons.org/ns#" xmlns:rdf="http://www.w3.org/1999/02/22-rdf-syntax-ns#">
   <cc:Work>
    <dc:type rdf:resource="http://purl.org/dc/dcmitype/StillImage"/>
    <dc:date>2023-12-03T18:15:54.265853</dc:date>
    <dc:format>image/svg+xml</dc:format>
    <dc:creator>
     <cc:Agent>
      <dc:title>Matplotlib v3.7.1, https://matplotlib.org/</dc:title>
     </cc:Agent>
    </dc:creator>
   </cc:Work>
  </rdf:RDF>
 </metadata>
 <defs>
  <style type="text/css">*{stroke-linejoin: round; stroke-linecap: butt}</style>
 </defs>
 <g id="figure_1">
  <g id="patch_1">
   <path d="M 0 345.6 
L 460.8 345.6 
L 460.8 0 
L 0 0 
z
" style="fill: #ffffff"/>
  </g>
  <g id="axes_1">
   <g id="patch_2">
    <path d="M 57.6 307.584 
L 414.72 307.584 
L 414.72 41.472 
L 57.6 41.472 
z
" style="fill: #ffffff"/>
   </g>
   <g id="matplotlib.axis_1">
    <g id="xtick_1">
     <g id="line2d_1">
      <defs>
       <path id="m9aba041bab" d="M 0 0 
L 0 3.5 
" style="stroke: #000000; stroke-width: 0.8"/>
      </defs>
      <g>
       <use xlink:href="#m9aba041bab" x="73.832727" y="307.584" style="stroke: #000000; stroke-width: 0.8"/>
      </g>
     </g>
     <g id="text_1">
      <!-- 0 -->
      <g transform="translate(70.651477 322.182437) scale(0.1 -0.1)">
       <defs>
        <path id="DejaVuSans-30" d="M 2034 4250 
Q 1547 4250 1301 3770 
Q 1056 3291 1056 2328 
Q 1056 1369 1301 889 
Q 1547 409 2034 409 
Q 2525 409 2770 889 
Q 3016 1369 3016 2328 
Q 3016 3291 2770 3770 
Q 2525 4250 2034 4250 
z
M 2034 4750 
Q 2819 4750 3233 4129 
Q 3647 3509 3647 2328 
Q 3647 1150 3233 529 
Q 2819 -91 2034 -91 
Q 1250 -91 836 529 
Q 422 1150 422 2328 
Q 422 3509 836 4129 
Q 1250 4750 2034 4750 
z
" transform="scale(0.015625)"/>
       </defs>
       <use xlink:href="#DejaVuSans-30"/>
      </g>
     </g>
    </g>
    <g id="xtick_2">
     <g id="line2d_2">
      <g>
       <use xlink:href="#m9aba041bab" x="149.633462" y="307.584" style="stroke: #000000; stroke-width: 0.8"/>
      </g>
     </g>
     <g id="text_2">
      <!-- 1000 -->
      <g transform="translate(136.908462 322.182437) scale(0.1 -0.1)">
       <defs>
        <path id="DejaVuSans-31" d="M 794 531 
L 1825 531 
L 1825 4091 
L 703 3866 
L 703 4441 
L 1819 4666 
L 2450 4666 
L 2450 531 
L 3481 531 
L 3481 0 
L 794 0 
L 794 531 
z
" transform="scale(0.015625)"/>
       </defs>
       <use xlink:href="#DejaVuSans-31"/>
       <use xlink:href="#DejaVuSans-30" x="63.623047"/>
       <use xlink:href="#DejaVuSans-30" x="127.246094"/>
       <use xlink:href="#DejaVuSans-30" x="190.869141"/>
      </g>
     </g>
    </g>
    <g id="xtick_3">
     <g id="line2d_3">
      <g>
       <use xlink:href="#m9aba041bab" x="225.434196" y="307.584" style="stroke: #000000; stroke-width: 0.8"/>
      </g>
     </g>
     <g id="text_3">
      <!-- 2000 -->
      <g transform="translate(212.709196 322.182437) scale(0.1 -0.1)">
       <defs>
        <path id="DejaVuSans-32" d="M 1228 531 
L 3431 531 
L 3431 0 
L 469 0 
L 469 531 
Q 828 903 1448 1529 
Q 2069 2156 2228 2338 
Q 2531 2678 2651 2914 
Q 2772 3150 2772 3378 
Q 2772 3750 2511 3984 
Q 2250 4219 1831 4219 
Q 1534 4219 1204 4116 
Q 875 4013 500 3803 
L 500 4441 
Q 881 4594 1212 4672 
Q 1544 4750 1819 4750 
Q 2544 4750 2975 4387 
Q 3406 4025 3406 3419 
Q 3406 3131 3298 2873 
Q 3191 2616 2906 2266 
Q 2828 2175 2409 1742 
Q 1991 1309 1228 531 
z
" transform="scale(0.015625)"/>
       </defs>
       <use xlink:href="#DejaVuSans-32"/>
       <use xlink:href="#DejaVuSans-30" x="63.623047"/>
       <use xlink:href="#DejaVuSans-30" x="127.246094"/>
       <use xlink:href="#DejaVuSans-30" x="190.869141"/>
      </g>
     </g>
    </g>
    <g id="xtick_4">
     <g id="line2d_4">
      <g>
       <use xlink:href="#m9aba041bab" x="301.23493" y="307.584" style="stroke: #000000; stroke-width: 0.8"/>
      </g>
     </g>
     <g id="text_4">
      <!-- 3000 -->
      <g transform="translate(288.50993 322.182437) scale(0.1 -0.1)">
       <defs>
        <path id="DejaVuSans-33" d="M 2597 2516 
Q 3050 2419 3304 2112 
Q 3559 1806 3559 1356 
Q 3559 666 3084 287 
Q 2609 -91 1734 -91 
Q 1441 -91 1130 -33 
Q 819 25 488 141 
L 488 750 
Q 750 597 1062 519 
Q 1375 441 1716 441 
Q 2309 441 2620 675 
Q 2931 909 2931 1356 
Q 2931 1769 2642 2001 
Q 2353 2234 1838 2234 
L 1294 2234 
L 1294 2753 
L 1863 2753 
Q 2328 2753 2575 2939 
Q 2822 3125 2822 3475 
Q 2822 3834 2567 4026 
Q 2313 4219 1838 4219 
Q 1578 4219 1281 4162 
Q 984 4106 628 3988 
L 628 4550 
Q 988 4650 1302 4700 
Q 1616 4750 1894 4750 
Q 2613 4750 3031 4423 
Q 3450 4097 3450 3541 
Q 3450 3153 3228 2886 
Q 3006 2619 2597 2516 
z
" transform="scale(0.015625)"/>
       </defs>
       <use xlink:href="#DejaVuSans-33"/>
       <use xlink:href="#DejaVuSans-30" x="63.623047"/>
       <use xlink:href="#DejaVuSans-30" x="127.246094"/>
       <use xlink:href="#DejaVuSans-30" x="190.869141"/>
      </g>
     </g>
    </g>
    <g id="xtick_5">
     <g id="line2d_5">
      <g>
       <use xlink:href="#m9aba041bab" x="377.035665" y="307.584" style="stroke: #000000; stroke-width: 0.8"/>
      </g>
     </g>
     <g id="text_5">
      <!-- 4000 -->
      <g transform="translate(364.310665 322.182437) scale(0.1 -0.1)">
       <defs>
        <path id="DejaVuSans-34" d="M 2419 4116 
L 825 1625 
L 2419 1625 
L 2419 4116 
z
M 2253 4666 
L 3047 4666 
L 3047 1625 
L 3713 1625 
L 3713 1100 
L 3047 1100 
L 3047 0 
L 2419 0 
L 2419 1100 
L 313 1100 
L 313 1709 
L 2253 4666 
z
" transform="scale(0.015625)"/>
       </defs>
       <use xlink:href="#DejaVuSans-34"/>
       <use xlink:href="#DejaVuSans-30" x="63.623047"/>
       <use xlink:href="#DejaVuSans-30" x="127.246094"/>
       <use xlink:href="#DejaVuSans-30" x="190.869141"/>
      </g>
     </g>
    </g>
    <g id="text_6">
     <!-- iteration -->
     <g transform="translate(215.037344 335.860562) scale(0.1 -0.1)">
      <defs>
       <path id="DejaVuSans-69" d="M 603 3500 
L 1178 3500 
L 1178 0 
L 603 0 
L 603 3500 
z
M 603 4863 
L 1178 4863 
L 1178 4134 
L 603 4134 
L 603 4863 
z
" transform="scale(0.015625)"/>
       <path id="DejaVuSans-74" d="M 1172 4494 
L 1172 3500 
L 2356 3500 
L 2356 3053 
L 1172 3053 
L 1172 1153 
Q 1172 725 1289 603 
Q 1406 481 1766 481 
L 2356 481 
L 2356 0 
L 1766 0 
Q 1100 0 847 248 
Q 594 497 594 1153 
L 594 3053 
L 172 3053 
L 172 3500 
L 594 3500 
L 594 4494 
L 1172 4494 
z
" transform="scale(0.015625)"/>
       <path id="DejaVuSans-65" d="M 3597 1894 
L 3597 1613 
L 953 1613 
Q 991 1019 1311 708 
Q 1631 397 2203 397 
Q 2534 397 2845 478 
Q 3156 559 3463 722 
L 3463 178 
Q 3153 47 2828 -22 
Q 2503 -91 2169 -91 
Q 1331 -91 842 396 
Q 353 884 353 1716 
Q 353 2575 817 3079 
Q 1281 3584 2069 3584 
Q 2775 3584 3186 3129 
Q 3597 2675 3597 1894 
z
M 3022 2063 
Q 3016 2534 2758 2815 
Q 2500 3097 2075 3097 
Q 1594 3097 1305 2825 
Q 1016 2553 972 2059 
L 3022 2063 
z
" transform="scale(0.015625)"/>
       <path id="DejaVuSans-72" d="M 2631 2963 
Q 2534 3019 2420 3045 
Q 2306 3072 2169 3072 
Q 1681 3072 1420 2755 
Q 1159 2438 1159 1844 
L 1159 0 
L 581 0 
L 581 3500 
L 1159 3500 
L 1159 2956 
Q 1341 3275 1631 3429 
Q 1922 3584 2338 3584 
Q 2397 3584 2469 3576 
Q 2541 3569 2628 3553 
L 2631 2963 
z
" transform="scale(0.015625)"/>
       <path id="DejaVuSans-61" d="M 2194 1759 
Q 1497 1759 1228 1600 
Q 959 1441 959 1056 
Q 959 750 1161 570 
Q 1363 391 1709 391 
Q 2188 391 2477 730 
Q 2766 1069 2766 1631 
L 2766 1759 
L 2194 1759 
z
M 3341 1997 
L 3341 0 
L 2766 0 
L 2766 531 
Q 2569 213 2275 61 
Q 1981 -91 1556 -91 
Q 1019 -91 701 211 
Q 384 513 384 1019 
Q 384 1609 779 1909 
Q 1175 2209 1959 2209 
L 2766 2209 
L 2766 2266 
Q 2766 2663 2505 2880 
Q 2244 3097 1772 3097 
Q 1472 3097 1187 3025 
Q 903 2953 641 2809 
L 641 3341 
Q 956 3463 1253 3523 
Q 1550 3584 1831 3584 
Q 2591 3584 2966 3190 
Q 3341 2797 3341 1997 
z
" transform="scale(0.015625)"/>
       <path id="DejaVuSans-6f" d="M 1959 3097 
Q 1497 3097 1228 2736 
Q 959 2375 959 1747 
Q 959 1119 1226 758 
Q 1494 397 1959 397 
Q 2419 397 2687 759 
Q 2956 1122 2956 1747 
Q 2956 2369 2687 2733 
Q 2419 3097 1959 3097 
z
M 1959 3584 
Q 2709 3584 3137 3096 
Q 3566 2609 3566 1747 
Q 3566 888 3137 398 
Q 2709 -91 1959 -91 
Q 1206 -91 779 398 
Q 353 888 353 1747 
Q 353 2609 779 3096 
Q 1206 3584 1959 3584 
z
" transform="scale(0.015625)"/>
       <path id="DejaVuSans-6e" d="M 3513 2113 
L 3513 0 
L 2938 0 
L 2938 2094 
Q 2938 2591 2744 2837 
Q 2550 3084 2163 3084 
Q 1697 3084 1428 2787 
Q 1159 2491 1159 1978 
L 1159 0 
L 581 0 
L 581 3500 
L 1159 3500 
L 1159 2956 
Q 1366 3272 1645 3428 
Q 1925 3584 2291 3584 
Q 2894 3584 3203 3211 
Q 3513 2838 3513 2113 
z
" transform="scale(0.015625)"/>
      </defs>
      <use xlink:href="#DejaVuSans-69"/>
      <use xlink:href="#DejaVuSans-74" x="27.783203"/>
      <use xlink:href="#DejaVuSans-65" x="66.992188"/>
      <use xlink:href="#DejaVuSans-72" x="128.515625"/>
      <use xlink:href="#DejaVuSans-61" x="169.628906"/>
      <use xlink:href="#DejaVuSans-74" x="230.908203"/>
      <use xlink:href="#DejaVuSans-69" x="270.117188"/>
      <use xlink:href="#DejaVuSans-6f" x="297.900391"/>
      <use xlink:href="#DejaVuSans-6e" x="359.082031"/>
     </g>
    </g>
   </g>
   <g id="matplotlib.axis_2">
    <g id="ytick_1">
     <g id="line2d_6">
      <defs>
       <path id="m292dacddd0" d="M 0 0 
L -3.5 0 
" style="stroke: #000000; stroke-width: 0.8"/>
      </defs>
      <g>
       <use xlink:href="#m292dacddd0" x="57.6" y="281.065163" style="stroke: #000000; stroke-width: 0.8"/>
      </g>
     </g>
     <g id="text_7">
      <!-- 500 -->
      <g transform="translate(31.5125 284.864382) scale(0.1 -0.1)">
       <defs>
        <path id="DejaVuSans-35" d="M 691 4666 
L 3169 4666 
L 3169 4134 
L 1269 4134 
L 1269 2991 
Q 1406 3038 1543 3061 
Q 1681 3084 1819 3084 
Q 2600 3084 3056 2656 
Q 3513 2228 3513 1497 
Q 3513 744 3044 326 
Q 2575 -91 1722 -91 
Q 1428 -91 1123 -41 
Q 819 9 494 109 
L 494 744 
Q 775 591 1075 516 
Q 1375 441 1709 441 
Q 2250 441 2565 725 
Q 2881 1009 2881 1497 
Q 2881 1984 2565 2268 
Q 2250 2553 1709 2553 
Q 1456 2553 1204 2497 
Q 953 2441 691 2322 
L 691 4666 
z
" transform="scale(0.015625)"/>
       </defs>
       <use xlink:href="#DejaVuSans-35"/>
       <use xlink:href="#DejaVuSans-30" x="63.623047"/>
       <use xlink:href="#DejaVuSans-30" x="127.246094"/>
      </g>
     </g>
    </g>
    <g id="ytick_2">
     <g id="line2d_7">
      <g>
       <use xlink:href="#m292dacddd0" x="57.6" y="245.540934" style="stroke: #000000; stroke-width: 0.8"/>
      </g>
     </g>
     <g id="text_8">
      <!-- 1000 -->
      <g transform="translate(25.15 249.340153) scale(0.1 -0.1)">
       <use xlink:href="#DejaVuSans-31"/>
       <use xlink:href="#DejaVuSans-30" x="63.623047"/>
       <use xlink:href="#DejaVuSans-30" x="127.246094"/>
       <use xlink:href="#DejaVuSans-30" x="190.869141"/>
      </g>
     </g>
    </g>
    <g id="ytick_3">
     <g id="line2d_8">
      <g>
       <use xlink:href="#m292dacddd0" x="57.6" y="210.016705" style="stroke: #000000; stroke-width: 0.8"/>
      </g>
     </g>
     <g id="text_9">
      <!-- 1500 -->
      <g transform="translate(25.15 213.815924) scale(0.1 -0.1)">
       <use xlink:href="#DejaVuSans-31"/>
       <use xlink:href="#DejaVuSans-35" x="63.623047"/>
       <use xlink:href="#DejaVuSans-30" x="127.246094"/>
       <use xlink:href="#DejaVuSans-30" x="190.869141"/>
      </g>
     </g>
    </g>
    <g id="ytick_4">
     <g id="line2d_9">
      <g>
       <use xlink:href="#m292dacddd0" x="57.6" y="174.492476" style="stroke: #000000; stroke-width: 0.8"/>
      </g>
     </g>
     <g id="text_10">
      <!-- 2000 -->
      <g transform="translate(25.15 178.291695) scale(0.1 -0.1)">
       <use xlink:href="#DejaVuSans-32"/>
       <use xlink:href="#DejaVuSans-30" x="63.623047"/>
       <use xlink:href="#DejaVuSans-30" x="127.246094"/>
       <use xlink:href="#DejaVuSans-30" x="190.869141"/>
      </g>
     </g>
    </g>
    <g id="ytick_5">
     <g id="line2d_10">
      <g>
       <use xlink:href="#m292dacddd0" x="57.6" y="138.968247" style="stroke: #000000; stroke-width: 0.8"/>
      </g>
     </g>
     <g id="text_11">
      <!-- 2500 -->
      <g transform="translate(25.15 142.767465) scale(0.1 -0.1)">
       <use xlink:href="#DejaVuSans-32"/>
       <use xlink:href="#DejaVuSans-35" x="63.623047"/>
       <use xlink:href="#DejaVuSans-30" x="127.246094"/>
       <use xlink:href="#DejaVuSans-30" x="190.869141"/>
      </g>
     </g>
    </g>
    <g id="ytick_6">
     <g id="line2d_11">
      <g>
       <use xlink:href="#m292dacddd0" x="57.6" y="103.444018" style="stroke: #000000; stroke-width: 0.8"/>
      </g>
     </g>
     <g id="text_12">
      <!-- 3000 -->
      <g transform="translate(25.15 107.243236) scale(0.1 -0.1)">
       <use xlink:href="#DejaVuSans-33"/>
       <use xlink:href="#DejaVuSans-30" x="63.623047"/>
       <use xlink:href="#DejaVuSans-30" x="127.246094"/>
       <use xlink:href="#DejaVuSans-30" x="190.869141"/>
      </g>
     </g>
    </g>
    <g id="ytick_7">
     <g id="line2d_12">
      <g>
       <use xlink:href="#m292dacddd0" x="57.6" y="67.919789" style="stroke: #000000; stroke-width: 0.8"/>
      </g>
     </g>
     <g id="text_13">
      <!-- 3500 -->
      <g transform="translate(25.15 71.719007) scale(0.1 -0.1)">
       <use xlink:href="#DejaVuSans-33"/>
       <use xlink:href="#DejaVuSans-35" x="63.623047"/>
       <use xlink:href="#DejaVuSans-30" x="127.246094"/>
       <use xlink:href="#DejaVuSans-30" x="190.869141"/>
      </g>
     </g>
    </g>
    <g id="text_14">
     <!-- best fitness of swarm -->
     <g transform="translate(19.070312 228.0905) rotate(-90) scale(0.1 -0.1)">
      <defs>
       <path id="DejaVuSans-62" d="M 3116 1747 
Q 3116 2381 2855 2742 
Q 2594 3103 2138 3103 
Q 1681 3103 1420 2742 
Q 1159 2381 1159 1747 
Q 1159 1113 1420 752 
Q 1681 391 2138 391 
Q 2594 391 2855 752 
Q 3116 1113 3116 1747 
z
M 1159 2969 
Q 1341 3281 1617 3432 
Q 1894 3584 2278 3584 
Q 2916 3584 3314 3078 
Q 3713 2572 3713 1747 
Q 3713 922 3314 415 
Q 2916 -91 2278 -91 
Q 1894 -91 1617 61 
Q 1341 213 1159 525 
L 1159 0 
L 581 0 
L 581 4863 
L 1159 4863 
L 1159 2969 
z
" transform="scale(0.015625)"/>
       <path id="DejaVuSans-73" d="M 2834 3397 
L 2834 2853 
Q 2591 2978 2328 3040 
Q 2066 3103 1784 3103 
Q 1356 3103 1142 2972 
Q 928 2841 928 2578 
Q 928 2378 1081 2264 
Q 1234 2150 1697 2047 
L 1894 2003 
Q 2506 1872 2764 1633 
Q 3022 1394 3022 966 
Q 3022 478 2636 193 
Q 2250 -91 1575 -91 
Q 1294 -91 989 -36 
Q 684 19 347 128 
L 347 722 
Q 666 556 975 473 
Q 1284 391 1588 391 
Q 1994 391 2212 530 
Q 2431 669 2431 922 
Q 2431 1156 2273 1281 
Q 2116 1406 1581 1522 
L 1381 1569 
Q 847 1681 609 1914 
Q 372 2147 372 2553 
Q 372 3047 722 3315 
Q 1072 3584 1716 3584 
Q 2034 3584 2315 3537 
Q 2597 3491 2834 3397 
z
" transform="scale(0.015625)"/>
       <path id="DejaVuSans-20" transform="scale(0.015625)"/>
       <path id="DejaVuSans-66" d="M 2375 4863 
L 2375 4384 
L 1825 4384 
Q 1516 4384 1395 4259 
Q 1275 4134 1275 3809 
L 1275 3500 
L 2222 3500 
L 2222 3053 
L 1275 3053 
L 1275 0 
L 697 0 
L 697 3053 
L 147 3053 
L 147 3500 
L 697 3500 
L 697 3744 
Q 697 4328 969 4595 
Q 1241 4863 1831 4863 
L 2375 4863 
z
" transform="scale(0.015625)"/>
       <path id="DejaVuSans-77" d="M 269 3500 
L 844 3500 
L 1563 769 
L 2278 3500 
L 2956 3500 
L 3675 769 
L 4391 3500 
L 4966 3500 
L 4050 0 
L 3372 0 
L 2619 2869 
L 1863 0 
L 1184 0 
L 269 3500 
z
" transform="scale(0.015625)"/>
       <path id="DejaVuSans-6d" d="M 3328 2828 
Q 3544 3216 3844 3400 
Q 4144 3584 4550 3584 
Q 5097 3584 5394 3201 
Q 5691 2819 5691 2113 
L 5691 0 
L 5113 0 
L 5113 2094 
Q 5113 2597 4934 2840 
Q 4756 3084 4391 3084 
Q 3944 3084 3684 2787 
Q 3425 2491 3425 1978 
L 3425 0 
L 2847 0 
L 2847 2094 
Q 2847 2600 2669 2842 
Q 2491 3084 2119 3084 
Q 1678 3084 1418 2786 
Q 1159 2488 1159 1978 
L 1159 0 
L 581 0 
L 581 3500 
L 1159 3500 
L 1159 2956 
Q 1356 3278 1631 3431 
Q 1906 3584 2284 3584 
Q 2666 3584 2933 3390 
Q 3200 3197 3328 2828 
z
" transform="scale(0.015625)"/>
      </defs>
      <use xlink:href="#DejaVuSans-62"/>
      <use xlink:href="#DejaVuSans-65" x="63.476562"/>
      <use xlink:href="#DejaVuSans-73" x="125"/>
      <use xlink:href="#DejaVuSans-74" x="177.099609"/>
      <use xlink:href="#DejaVuSans-20" x="216.308594"/>
      <use xlink:href="#DejaVuSans-66" x="248.095703"/>
      <use xlink:href="#DejaVuSans-69" x="283.300781"/>
      <use xlink:href="#DejaVuSans-74" x="311.083984"/>
      <use xlink:href="#DejaVuSans-6e" x="350.292969"/>
      <use xlink:href="#DejaVuSans-65" x="413.671875"/>
      <use xlink:href="#DejaVuSans-73" x="475.195312"/>
      <use xlink:href="#DejaVuSans-73" x="527.294922"/>
      <use xlink:href="#DejaVuSans-20" x="579.394531"/>
      <use xlink:href="#DejaVuSans-6f" x="611.181641"/>
      <use xlink:href="#DejaVuSans-66" x="672.363281"/>
      <use xlink:href="#DejaVuSans-20" x="707.568359"/>
      <use xlink:href="#DejaVuSans-73" x="739.355469"/>
      <use xlink:href="#DejaVuSans-77" x="791.455078"/>
      <use xlink:href="#DejaVuSans-61" x="873.242188"/>
      <use xlink:href="#DejaVuSans-72" x="934.521484"/>
      <use xlink:href="#DejaVuSans-6d" x="973.884766"/>
     </g>
    </g>
   </g>
   <g id="line2d_13">
    <path d="M 73.832727 295.488 
L 73.908528 295.488 
L 74.060129 295.274855 
L 74.211731 289.02259 
L 74.287532 291.011947 
L 74.363332 290.798802 
L 74.666535 289.164687 
L 74.893938 289.164687 
L 75.12134 288.738396 
L 75.424543 282.201938 
L 75.500343 282.059841 
L 75.651945 280.780969 
L 75.727746 280.496775 
L 75.879347 278.578467 
L 75.955148 270.194749 
L 76.030949 270.905233 
L 76.18255 270.905233 
L 76.334152 268.489586 
L 76.485753 268.560634 
L 76.561554 268.205392 
L 76.637354 254.421991 
L 76.713155 254.49304 
L 77.016358 246.890855 
L 77.092159 246.890855 
L 77.24376 246.677709 
L 77.395362 245.896176 
L 77.471163 245.896176 
L 77.622764 243.906819 
L 77.698565 243.622626 
L 77.850166 240.425445 
L 78.001768 239.28867 
L 78.456572 232.82326 
L 78.608174 232.396969 
L 78.835576 232.468018 
L 78.911376 229.697128 
L 78.987177 229.768176 
L 79.138779 229.768176 
L 79.29038 226.144705 
L 79.366181 226.073656 
L 79.441982 225.43422 
L 79.593583 228.702449 
L 79.745185 228.489304 
L 80.048387 228.489304 
L 80.27579 227.068335 
L 80.503192 217.334696 
L 80.730594 203.409198 
L 80.806395 203.409198 
L 80.882196 209.235172 
L 80.957996 204.403877 
L 81.033797 204.474925 
L 81.109598 204.190731 
L 81.185399 204.545974 
L 81.261199 206.180088 
L 81.337 203.053956 
L 81.412801 205.753797 
L 81.488601 205.540652 
L 81.564402 205.540652 
L 81.716004 206.10904 
L 81.791804 206.037991 
L 81.943406 205.256458 
L 82.019207 205.256458 
L 82.095007 206.180088 
L 82.170808 206.10904 
L 82.246609 206.10904 
L 82.39821 206.393233 
L 82.549812 202.272423 
L 82.777214 201.277744 
L 82.853015 201.206696 
L 83.004616 195.238626 
L 83.080417 195.593868 
L 83.307819 201.135648 
L 83.459421 200.780405 
L 83.611022 200.709357 
L 83.838424 197.156934 
L 83.914225 192.183542 
L 83.990026 193.888705 
L 84.065826 192.609833 
L 84.217428 184.865551 
L 84.293229 184.865551 
L 84.44483 185.36289 
L 84.520631 185.433938 
L 84.596432 186.215471 
L 84.748033 182.663048 
L 84.823834 182.023612 
L 84.899634 182.449903 
L 84.975435 181.739419 
L 85.202837 175.7003 
L 85.278638 175.771348 
L 85.43024 178.613286 
L 85.581841 179.465868 
L 85.733443 171.579489 
L 85.809243 171.579489 
L 85.885044 173.497797 
L 85.960845 182.023612 
L 86.036646 181.739419 
L 86.188247 182.378855 
L 86.415649 181.028934 
L 86.870454 159.288106 
L 86.946254 159.430203 
L 87.097856 160.069639 
L 87.173657 159.430203 
L 87.249457 159.501251 
L 87.401059 159.430203 
L 87.55266 158.15133 
L 87.628461 158.15133 
L 87.780062 158.435524 
L 88.007465 150.620194 
L 88.083265 150.620194 
L 88.234867 144.79422 
L 88.386468 152.964793 
L 88.462269 154.172617 
L 88.61387 167.956018 
L 88.689671 167.742872 
L 88.841273 169.590132 
L 88.992874 169.590132 
L 89.068675 168.879648 
L 89.144476 171.934731 
L 89.220276 168.382308 
L 89.296077 169.803278 
L 89.371878 169.803278 
L 89.523479 167.316581 
L 89.59928 167.316581 
L 89.675081 166.961339 
L 89.750881 167.103436 
L 89.902483 165.256176 
L 90.054084 157.298749 
L 90.205686 154.741004 
L 90.281487 154.741004 
L 90.433088 156.730361 
L 90.508889 156.090925 
L 90.736291 149.767612 
L 90.887893 149.767612 
L 90.963693 146.215189 
L 91.039494 146.783577 
L 91.266896 146.073093 
L 91.494298 153.746326 
L 91.6459 152.893744 
L 91.797501 153.959471 
L 91.873302 157.2277 
L 92.024904 153.746326 
L 92.176505 153.604229 
L 92.252306 153.604229 
L 92.403907 143.87059 
L 92.555509 147.56511 
L 92.631309 147.991401 
L 92.782911 145.646802 
L 92.858712 145.646802 
L 92.934512 145.788899 
L 93.010313 145.433656 
L 93.161915 142.307524 
L 93.313516 142.307524 
L 93.465117 135.842115 
L 93.540918 135.842115 
L 93.616719 135.700018 
L 93.69252 135.913163 
L 93.76832 134.492194 
L 93.919922 140.957604 
L 94.071523 140.033974 
L 94.450527 141.881233 
L 94.526328 138.82615 
L 94.602128 140.17607 
L 94.75373 140.17607 
L 94.829531 137.973568 
L 95.056933 139.74978 
L 95.208534 137.334132 
L 95.435937 137.405181 
L 95.511737 137.049938 
L 95.587538 137.192035 
L 95.73914 137.263084 
L 95.81494 137.405181 
L 95.966542 138.613004 
L 96.118143 138.541956 
L 96.193944 140.815507 
L 96.421346 135.913163 
L 96.572948 138.044617 
L 96.648748 137.90252 
L 96.724549 135.060581 
L 96.876151 123.692828 
L 96.951951 123.692828 
L 97.179353 119.500969 
L 97.255154 122.413956 
L 97.406756 120.140405 
L 97.482556 119.785163 
L 97.558357 112.467172 
L 97.634158 115.30911 
L 97.709959 115.167013 
L 97.86156 115.522256 
L 97.937361 115.451207 
L 98.013162 117.653709 
L 98.088962 117.15637 
L 98.164763 117.15637 
L 98.240564 117.014273 
L 98.316364 119.500969 
L 98.467966 117.937903 
L 98.619567 118.222097 
L 98.695368 117.795806 
L 98.84697 112.53822 
L 98.92277 111.969833 
L 99.074372 113.106608 
L 99.225973 113.248705 
L 99.301774 113.248705 
L 99.377575 116.374837 
L 99.453376 116.019595 
L 99.529176 116.019595 
L 99.604977 116.516934 
L 99.756578 122.200811 
L 99.832379 121.206132 
L 99.983981 124.9717 
L 100.059781 118.293145 
L 100.135582 122.982344 
L 100.211383 122.840247 
L 100.438785 122.413956 
L 100.666187 120.069357 
L 100.817789 118.861533 
L 100.96939 111.827736 
L 101.045191 112.11193 
L 101.120992 107.067489 
L 101.196792 107.564828 
L 101.272593 108.914749 
L 101.348394 108.630555 
L 101.499995 115.167013 
L 101.575796 115.167013 
L 101.727398 120.069357 
L 101.803198 120.069357 
L 101.878999 119.92726 
L 101.9548 120.637744 
L 102.0306 120.495648 
L 102.106401 120.495648 
L 102.182202 121.348229 
L 102.258003 124.332264 
L 102.333803 124.190167 
L 102.409604 124.261216 
L 102.561206 124.54541 
L 102.712807 121.419278 
L 102.788608 121.419278 
L 102.864409 121.135084 
L 102.940209 120.282502 
L 103.01601 120.637744 
L 103.091811 120.708793 
L 103.167611 121.064035 
L 103.243412 120.992987 
L 103.774017 111.046203 
L 103.849818 110.477815 
L 104.00142 116.161692 
L 104.07722 113.46185 
L 104.153021 113.674996 
L 104.304623 113.674996 
L 104.456224 122.627101 
L 104.532025 122.627101 
L 104.607825 122.769198 
L 104.683626 122.69815 
L 104.759427 123.763877 
L 104.835228 123.62178 
L 104.986829 123.62178 
L 105.06263 121.277181 
L 105.138431 123.905974 
L 105.214231 123.550731 
L 105.290032 122.769198 
L 105.365833 120.637744 
L 105.441634 121.064035 
L 105.517434 121.135084 
L 105.669036 119.500969 
L 105.744836 119.00363 
L 105.972239 129.731947 
L 106.048039 129.874044 
L 106.12384 132.005498 
L 106.275442 123.905974 
L 106.351242 123.977022 
L 106.427043 124.474361 
L 106.578645 127.103154 
L 106.654445 126.321621 
L 106.881847 120.85089 
L 106.957648 123.408634 
L 107.10925 121.419278 
L 107.18505 121.277181 
L 107.336652 119.429921 
L 107.412453 120.140405 
L 107.639855 119.145727 
L 107.715656 119.145727 
L 107.791456 129.021463 
L 107.867257 126.463718 
L 108.094659 123.834925 
L 108.17046 126.250573 
L 108.246261 126.108476 
L 108.549464 109.127894 
L 108.625264 117.298467 
L 108.701065 114.669674 
L 108.776866 118.008952 
L 108.852667 116.019595 
L 109.004268 119.92726 
L 109.383272 127.884687 
L 109.459072 127.600493 
L 109.534873 128.026784 
L 109.610674 127.955736 
L 109.762275 126.534767 
L 109.913877 127.955736 
L 109.989678 128.026784 
L 110.065478 124.616458 
L 110.141279 125.326943 
L 110.21708 128.097833 
L 110.444482 121.490326 
L 110.596083 127.955736 
L 110.671884 127.671542 
L 110.823486 124.332264 
L 110.899286 124.190167 
L 110.975087 122.485004 
L 111.050888 123.834925 
L 111.202489 122.627101 
L 111.429892 129.731947 
L 111.505692 123.692828 
L 111.581493 124.403313 
L 111.657294 124.403313 
L 111.733094 124.54541 
L 111.808895 125.042749 
L 111.960497 117.440564 
L 112.036297 118.151048 
L 112.187899 125.326943 
L 112.3395 127.387348 
L 112.415301 126.890009 
L 112.566903 126.39267 
L 112.642703 126.321621 
L 112.718504 126.534767 
L 112.945906 135.202678 
L 113.021707 133.142273 
L 113.173308 137.192035 
L 113.249109 137.263084 
L 113.32491 136.694696 
L 113.400711 131.650256 
L 113.476511 131.934449 
L 113.552312 131.934449 
L 113.855515 134.847436 
L 114.007117 142.591718 
L 114.082917 140.318167 
L 114.158718 146.570432 
L 114.234519 146.357286 
L 114.310319 148.133498 
L 114.461921 146.215189 
L 114.537722 146.215189 
L 114.689323 142.52067 
L 114.840925 145.575753 
L 114.992526 144.936317 
L 115.219928 134.847436 
L 115.295729 136.765744 
L 115.37153 136.694696 
L 115.44733 136.836793 
L 115.523131 131.579207 
L 115.598932 134.421145 
L 115.674733 133.852758 
L 115.826334 132.289692 
L 115.977936 132.147595 
L 116.129537 126.890009 
L 116.205338 125.824282 
L 116.508541 128.23993 
L 116.660142 123.550731 
L 116.811744 123.550731 
L 116.963345 131.650256 
L 117.039146 131.650256 
L 117.49395 122.840247 
L 117.569751 124.04807 
L 117.645552 117.582661 
L 117.721352 117.937903 
L 117.948755 110.762009 
L 118.024555 111.401445 
L 118.176157 113.46185 
L 118.251958 113.603947 
L 118.47936 112.325075 
L 118.630961 112.325075 
L 118.706762 111.685639 
L 118.782563 112.040881 
L 118.934164 120.140405 
L 119.009965 120.282502 
L 119.085766 116.730079 
L 119.161566 116.872176 
L 119.237367 117.653709 
L 119.388969 117.227419 
L 119.464769 117.511612 
L 119.54057 111.472493 
L 119.616371 114.882819 
L 119.692172 114.456529 
L 119.843773 114.172335 
L 119.919574 114.314432 
L 119.995375 110.406767 
L 120.071175 110.762009 
L 120.222777 114.669674 
L 120.374378 114.669674 
L 120.60178 113.177656 
L 120.677581 111.401445 
L 120.829183 106.357004 
L 121.056585 106.996441 
L 121.132386 106.783295 
L 121.208186 98.612722 
L 121.283987 99.110062 
L 121.359788 101.383612 
L 121.435588 100.673128 
L 121.511389 100.673128 
L 121.58719 100.388934 
L 121.662991 97.191753 
L 121.814592 105.433374 
L 121.890393 106.285956 
L 121.966194 105.859665 
L 122.041994 109.269991 
L 122.193596 105.078132 
L 122.269397 105.078132 
L 122.345197 105.930714 
L 122.420998 105.717568 
L 122.496799 105.717568 
L 122.572599 100.175789 
L 122.6484 100.459982 
L 122.724201 100.602079 
L 122.875802 101.880952 
L 122.951603 98.896916 
L 123.027404 99.607401 
L 123.330607 99.678449 
L 123.406408 99.749498 
L 123.558009 96.836511 
L 123.709611 96.836511 
L 123.861212 97.262802 
L 124.012813 98.541674 
L 124.088614 96.339172 
L 124.164415 101.170467 
L 124.240216 100.957322 
L 124.316016 100.673128 
L 124.391817 95.344493 
L 124.619219 104.509744 
L 124.69502 100.531031 
L 124.770821 100.744176 
L 124.922422 100.744176 
L 125.074024 98.399577 
L 125.225625 98.470626 
L 125.377227 92.999894 
L 125.528828 100.246837 
L 125.604629 101.383612 
L 125.75623 95.344493 
L 125.907832 92.076264 
L 126.059433 94.13667 
L 126.135234 94.13667 
L 126.286835 97.262802 
L 126.438437 89.092229 
L 126.590038 95.699736 
L 126.665839 96.765463 
L 126.74164 102.520388 
L 126.817441 102.378291 
L 126.893241 100.957322 
L 126.969042 103.088775 
L 127.044843 95.628687 
L 127.120644 99.536352 
L 127.196444 99.323207 
L 127.272245 97.973286 
L 127.423846 90.513198 
L 127.499647 91.152634 
L 127.651249 89.234326 
L 127.727049 89.305374 
L 127.80285 93.070943 
L 127.954452 83.479401 
L 128.106053 87.173921 
L 128.181854 86.74763 
L 128.257655 87.102872 
L 128.333455 82.12948 
L 128.409256 84.331982 
L 128.485057 84.331982 
L 128.560858 79.926978 
L 128.636658 79.998026 
L 128.712459 80.779559 
L 128.78826 83.692546 
L 128.86406 83.408352 
L 128.939861 83.408352 
L 129.015662 80.566414 
L 129.091463 81.418996 
L 129.318865 78.00867 
L 129.394666 81.987383 
L 129.470466 81.845286 
L 129.546267 81.774238 
L 129.622068 78.790203 
L 129.697869 79.003348 
L 129.84947 79.35859 
L 129.925271 79.35859 
L 130.001071 81.987383 
L 130.152673 76.516652 
L 130.228474 84.331982 
L 130.304274 83.692546 
L 130.380075 83.692546 
L 130.455876 83.97674 
L 130.607477 76.658749 
L 130.759079 82.839965 
L 130.83488 82.982062 
L 131.062282 80.992705 
L 131.138082 81.20585 
L 131.289684 87.387066 
L 131.365485 87.316018 
L 131.441285 89.447471 
L 131.517086 82.697868 
L 131.592887 84.687225 
L 131.744488 84.758273 
L 131.820289 86.534485 
L 131.971891 85.610855 
L 132.047691 85.610855 
L 132.199293 84.90037 
L 132.275093 84.90037 
L 132.350894 85.042467 
L 132.578296 86.889727 
L 132.654097 86.889727 
L 132.729898 84.403031 
L 132.805699 88.523841 
L 132.881499 81.347947 
L 132.9573 82.484722 
L 133.033101 82.484722 
L 133.184702 87.031824 
L 133.412105 77.866573 
L 133.487905 81.418996 
L 133.563706 81.347947 
L 133.715307 83.408352 
L 133.791108 81.490044 
L 133.866909 81.561093 
L 133.94271 81.561093 
L 134.01851 82.271577 
L 134.094311 89.163278 
L 134.170112 81.561093 
L 134.245913 81.916335 
L 134.397514 82.555771 
L 134.473315 83.337304 
L 134.549116 83.266256 
L 134.776518 78.719154 
L 134.852318 78.363912 
L 134.928119 76.658749 
L 135.079721 79.85593 
L 135.155521 79.216493 
L 135.307123 75.166731 
L 135.534525 75.166731 
L 135.610326 75.593022 
L 135.686127 75.23778 
L 135.761927 77.369233 
L 135.837728 75.379877 
L 135.913529 76.019313 
L 135.989329 76.5877 
L 136.06513 74.456247 
L 136.140931 75.095683 
L 136.292532 73.887859 
L 136.444134 74.456247 
L 136.519935 74.101004 
L 136.595735 76.303507 
L 136.747337 68.346079 
L 136.823138 71.54326 
L 136.898938 71.045921 
L 136.974739 71.116969 
L 137.05054 69.482855 
L 137.126341 69.696 
L 137.202141 70.051242 
L 137.277942 64.367366 
L 137.353743 65.219947 
L 137.429543 65.219947 
L 137.505344 65.575189 
L 137.656946 72.822132 
L 137.732746 68.914467 
L 137.808547 69.411806 
L 138.11175 72.253744 
L 138.187551 72.253744 
L 138.263352 70.406485 
L 138.414953 72.182696 
L 138.642355 72.537938 
L 138.718156 71.330115 
L 138.869757 76.658749 
L 139.17296 74.172053 
L 139.324562 71.401163 
L 139.400363 71.045921 
L 139.476163 72.822132 
L 139.551964 72.111648 
L 139.627765 72.111648 
L 139.703565 68.77237 
L 139.779366 69.127612 
L 139.855167 68.77237 
L 140.006768 73.603665 
L 140.234171 73.177374 
L 140.385772 73.177374 
L 140.537374 73.035278 
L 140.688975 80.495366 
L 140.764776 80.495366 
L 140.840576 80.069075 
L 140.916377 80.211172 
L 140.992178 80.069075 
L 141.371182 74.31415 
L 141.446982 73.887859 
L 141.522783 73.958907 
L 141.598584 73.958907 
L 141.674385 73.816811 
L 141.901787 66.498819 
L 141.977588 63.585833 
L 142.129189 68.132934 
L 142.20499 68.275031 
L 142.28079 68.132934 
L 142.508193 80.850608 
L 142.659794 75.521974 
L 142.811396 75.735119 
L 142.962997 79.216493 
L 143.038798 75.806167 
L 143.114599 76.019313 
L 143.190399 78.43496 
L 143.2662 74.101004 
L 143.342001 75.877216 
L 143.493602 79.998026 
L 143.796805 79.074396 
L 143.872606 79.35859 
L 144.024207 79.003348 
L 144.175809 68.559225 
L 144.25161 73.461568 
L 144.32741 72.537938 
L 144.479012 70.974872 
L 144.554812 70.974872 
L 144.706414 64.935753 
L 144.782215 64.509463 
L 145.009617 64.864705 
L 145.085418 68.701322 
L 145.161218 68.630273 
L 145.31282 65.362044 
L 145.388621 65.433093 
L 145.540222 62.520106 
L 145.616023 62.449057 
L 145.843425 69.127612 
L 145.995026 67.138256 
L 146.070827 67.138256 
L 146.222429 61.454379 
L 146.298229 60.885991 
L 146.449831 70.122291 
L 146.601432 66.640916 
L 146.753034 70.264388 
L 146.828835 70.264388 
L 146.904635 64.935753 
L 146.980436 65.646238 
L 147.056237 65.646238 
L 147.132037 67.280352 
L 147.207838 67.067207 
L 147.35944 66.569868 
L 147.511041 64.935753 
L 147.586842 66.711965 
L 147.662643 64.083172 
L 147.738443 64.225269 
L 147.814244 64.225269 
L 148.041646 73.958907 
L 148.117447 73.319471 
L 148.193248 72.537938 
L 148.269048 79.287542 
L 148.344849 77.156088 
L 148.496451 77.156088 
L 148.572251 76.871894 
L 148.723853 81.490044 
L 149.027056 81.490044 
L 149.178657 75.379877 
L 149.254458 76.019313 
L 149.406059 82.342626 
L 149.633462 81.703189 
L 149.785063 76.729797 
L 150.012465 76.445604 
L 150.315668 77.866573 
L 150.46727 73.319471 
L 150.694672 80.992705 
L 150.846273 73.816811 
L 150.997875 74.811489 
L 151.073676 72.040599 
L 151.225277 81.490044 
L 151.301078 79.926978 
L 151.452679 79.926978 
L 151.604281 80.566414 
L 151.755882 83.692546 
L 151.831683 83.621498 
L 151.907484 91.79207 
L 151.983284 91.507877 
L 152.059085 92.999894 
L 152.134886 92.857797 
L 152.210687 92.857797 
L 152.58969 94.776106 
L 152.665491 94.56296 
L 152.741292 96.694414 
L 152.817093 95.699736 
L 152.892893 96.054978 
L 153.044495 95.699736 
L 153.120295 101.383612 
L 153.196096 101.312564 
L 153.423498 101.312564 
L 153.499299 101.454661 
L 153.726701 96.126026 
L 154.105705 94.705057 
L 154.181506 91.36578 
L 154.257306 95.770784 
L 154.333107 95.344493 
L 154.408908 95.415542 
L 154.560509 91.010537 
L 154.63631 91.010537 
L 154.787912 97.760141 
L 154.863712 98.399577 
L 155.015314 101.952 
L 155.166915 102.662485 
L 155.242716 102.87563 
L 155.318517 106.214907 
L 155.773321 97.760141 
L 155.849122 97.760141 
L 155.924923 97.475947 
L 156.000723 97.689093 
L 156.152325 88.310696 
L 156.228126 87.884405 
L 156.379727 85.468758 
L 156.455528 90.086907 
L 156.531329 86.108194 
L 156.607129 86.250291 
L 156.68293 86.463436 
L 156.758731 87.102872 
L 156.834531 90.797392 
L 156.910332 88.808035 
L 157.061934 98.044335 
L 157.213535 99.678449 
L 157.289336 99.678449 
L 157.440937 98.683771 
L 157.592539 101.667806 
L 157.66834 101.667806 
L 157.819941 102.236194 
L 157.895742 101.667806 
L 158.047343 102.378291 
L 158.123144 102.378291 
L 158.198945 106.001762 
L 158.274745 104.438696 
L 158.426347 103.728211 
L 158.653749 94.634009 
L 158.72955 94.634009 
L 158.805351 98.754819 
L 159.032753 87.955454 
L 159.184354 89.944811 
L 159.260155 89.731665 
L 159.335956 89.802714 
L 159.411756 90.015859 
L 159.487557 89.944811 
L 159.563358 90.086907 
L 159.714959 89.092229 
L 159.866561 78.861251 
L 160.018162 79.713833 
L 160.093963 81.418996 
L 160.245564 79.998026 
L 160.397166 83.408352 
L 160.472967 83.266256 
L 160.548767 82.200529 
L 160.700369 87.031824 
L 160.85197 87.031824 
L 160.927771 86.889727 
L 161.155173 93.070943 
L 161.306775 91.223683 
L 161.382576 91.223683 
L 161.534177 102.236194 
L 161.685778 102.165145 
L 161.913181 103.159824 
L 162.140583 113.532899 
L 162.216384 113.390802 
L 162.292184 114.456529 
L 162.367985 113.674996 
L 162.519587 106.925392 
L 162.671188 106.925392 
L 162.746989 107.067489 
L 162.822789 100.602079 
L 162.89859 100.673128 
L 163.050192 100.459982 
L 163.125992 100.459982 
L 163.201793 100.673128 
L 163.353395 95.699736 
L 163.808199 102.946678 
L 163.9598 103.230872 
L 164.035601 103.088775 
L 164.111402 103.586115 
L 164.263003 102.804581 
L 164.338804 104.72289 
L 164.490406 117.227419 
L 164.566206 114.882819 
L 164.642007 117.582661 
L 164.717808 117.369515 
L 164.793609 117.369515 
L 164.94521 119.429921 
L 165.096811 111.969833 
L 165.172612 111.969833 
L 165.324214 106.499101 
L 165.400014 111.827736 
L 165.475815 110.335718 
L 165.551616 110.335718 
L 165.627417 111.61459 
L 165.854819 103.301921 
L 165.93062 98.967965 
L 166.082221 102.520388 
L 166.158022 102.520388 
L 166.233823 103.230872 
L 166.385424 105.433374 
L 166.537025 118.577339 
L 166.612826 118.222097 
L 166.99183 113.035559 
L 167.143431 113.390802 
L 167.219232 104.936035 
L 167.295033 105.007084 
L 167.522435 107.422731 
L 167.598236 107.280634 
L 167.674036 103.586115 
L 167.825638 112.609269 
L 167.901439 112.254026 
L 167.977239 115.095965 
L 168.05304 111.898784 
L 168.128841 117.369515 
L 168.204642 117.227419 
L 168.280442 113.746044 
L 168.356243 113.817093 
L 168.507845 113.674996 
L 168.735247 108.062167 
L 168.886848 108.062167 
L 168.962649 105.362326 
L 169.11425 93.710379 
L 169.341653 93.710379 
L 169.417453 93.852476 
L 169.493254 93.781427 
L 169.569055 92.502555 
L 169.644856 92.7157 
L 169.720656 92.644652 
L 169.796457 90.44215 
L 169.872258 91.294731 
L 169.948058 91.507877 
L 170.023859 91.436828 
L 170.175461 82.271577 
L 170.251261 82.413674 
L 170.327062 83.905692 
L 170.402863 83.479401 
L 170.554464 83.408352 
L 170.630265 83.97674 
L 170.706066 83.763595 
L 170.781867 83.692546 
L 170.933468 81.561093 
L 171.08507 81.561093 
L 171.236671 86.534485 
L 171.464073 86.534485 
L 171.615675 84.829322 
L 171.691475 78.150767 
L 171.767276 78.292863 
L 171.994678 78.648106 
L 172.070479 78.363912 
L 172.14628 77.227137 
L 172.373682 82.911013 
L 172.525283 82.768916 
L 172.601084 82.768916 
L 172.676885 82.911013 
L 172.828486 83.834643 
L 172.980088 81.774238 
L 173.055889 81.774238 
L 173.20749 93.994573 
L 173.283291 93.994573 
L 173.434892 88.950132 
L 173.510693 89.092229 
L 173.662294 87.529163 
L 173.813896 95.98393 
L 173.889697 95.98393 
L 173.965497 96.268123 
L 174.1929 105.149181 
L 174.2687 105.149181 
L 174.420302 106.57015 
L 174.496103 106.499101 
L 174.647704 103.657163 
L 174.799305 107.067489 
L 174.875106 106.783295 
L 174.950907 111.1883 
L 175.026708 108.275313 
L 175.102508 108.41741 
L 175.25411 108.41741 
L 175.329911 107.635877 
L 175.481512 108.346361 
L 175.557313 101.170467 
L 175.633114 101.880952 
L 176.163719 80.495366 
L 176.239519 80.495366 
L 176.391121 78.9323 
L 176.542722 83.195207 
L 176.618523 83.266256 
L 176.694324 92.076264 
L 176.770125 89.447471 
L 176.845925 89.802714 
L 176.997527 95.912881 
L 177.073328 95.912881 
L 177.224929 97.120705 
L 177.30073 97.191753 
L 177.452331 96.126026 
L 177.603933 96.268123 
L 177.755534 98.470626 
L 177.907136 98.25748 
L 178.134538 98.25748 
L 178.210339 95.344493 
L 178.36194 103.941357 
L 178.513541 101.241515 
L 178.589342 101.099419 
L 178.740944 105.64652 
L 178.816744 105.362326 
L 178.892545 105.220229 
L 178.968346 105.930714 
L 179.044147 103.657163 
L 179.271549 111.969833 
L 179.34735 114.456529 
L 179.42315 114.38548 
L 179.726353 117.227419 
L 179.802154 112.609269 
L 179.877955 112.822414 
L 180.181158 112.964511 
L 180.332759 108.133216 
L 180.560161 107.564828 
L 180.635962 107.280634 
L 180.711763 105.930714 
L 180.863364 98.754819 
L 180.939165 98.754819 
L 181.090766 97.546996 
L 181.242368 105.64652 
L 181.393969 92.431507 
L 181.46977 89.731665 
L 181.621372 94.278767 
L 181.772973 90.868441 
L 181.848774 90.868441 
L 181.924575 90.300053 
L 182.000375 90.371101 
L 182.151977 89.660617 
L 182.227777 88.381744 
L 182.303578 88.523841 
L 182.379379 88.808035 
L 182.45518 91.934167 
L 182.53098 91.507877 
L 182.606781 90.868441 
L 182.682582 91.081586 
L 182.758383 92.999894 
L 182.909984 86.392388 
L 182.985785 86.392388 
L 183.061586 87.742308 
L 183.213187 84.829322 
L 183.364788 91.081586 
L 183.440589 93.070943 
L 183.51639 92.786749 
L 183.592191 91.721022 
L 183.895394 75.166731 
L 183.971194 75.166731 
L 184.122796 74.598344 
L 184.274397 76.090361 
L 184.350198 74.953586 
L 184.5018 76.729797 
L 184.5776 76.729797 
L 184.805002 86.321339 
L 184.880803 84.118837 
L 184.956604 84.403031 
L 185.184006 91.294731 
L 185.335608 96.765463 
L 185.487209 94.491912 
L 185.56301 95.0603 
L 185.866213 89.163278 
L 186.017814 91.721022 
L 186.093615 85.255612 
L 186.169416 86.676581 
L 186.245216 86.676581 
L 186.396818 90.371101 
L 186.472619 89.802714 
L 186.62422 86.108194 
L 186.700021 85.752952 
L 186.927423 90.44215 
L 187.079024 90.868441 
L 187.230626 99.607401 
L 187.533829 99.607401 
L 187.68543 104.367648 
L 187.761231 103.372969 
L 187.837032 106.712247 
L 187.988633 101.099419 
L 188.140235 100.886273 
L 188.291836 101.312564 
L 188.443438 92.786749 
L 188.519238 97.546996 
L 188.595039 97.33385 
L 188.746641 99.394256 
L 188.898242 98.470626 
L 188.974043 98.541674 
L 189.125644 98.896916 
L 189.277246 94.278767 
L 189.353047 92.28941 
L 189.428847 92.644652 
L 189.504648 93.284088 
L 189.580449 103.017727 
L 189.656249 100.815225 
L 189.883652 100.815225 
L 189.959452 95.48659 
L 190.035253 95.699736 
L 190.111054 99.039013 
L 190.186855 96.765463 
L 190.414257 105.291278 
L 190.490058 106.001762 
L 190.641659 109.696282 
L 190.869061 110.26467 
L 190.944862 109.980476 
L 191.172264 111.330396 
L 191.323866 112.254026 
L 191.399666 111.898784 
L 191.475467 111.969833 
L 191.627069 115.735401 
L 191.702869 115.735401 
L 191.77867 117.227419 
L 191.854471 116.801128 
L 191.930271 116.943225 
L 192.081873 118.932581 
L 192.157674 118.293145 
L 192.309275 125.113797 
L 192.460877 122.911295 
L 192.612478 125.46904 
L 192.688279 123.408634 
L 192.76408 123.834925 
L 192.915681 131.792352 
L 192.991482 124.119119 
L 193.067282 124.474361 
L 193.143083 123.62178 
L 193.446286 141.59704 
L 193.522087 143.4443 
L 193.597888 142.875912 
L 193.749489 143.089057 
L 193.82529 143.089057 
L 193.976891 147.280916 
L 194.128493 146.996722 
L 194.204294 147.067771 
L 194.355895 144.296881 
L 194.431696 144.296881 
L 194.583297 147.138819 
L 194.659098 147.138819 
L 194.734899 148.986079 
L 194.810699 148.48874 
L 194.8865 148.48874 
L 195.038102 149.625515 
L 195.189703 149.483419 
L 195.265504 149.483419 
L 195.492906 140.389216 
L 195.568707 140.389216 
L 195.644507 140.531313 
L 195.87191 142.378573 
L 195.94771 145.788899 
L 196.023511 145.078414 
L 196.099312 145.149463 
L 196.250913 144.296881 
L 196.402515 144.083736 
L 196.554116 140.744458 
L 196.705718 141.028652 
L 196.857319 137.405181 
L 196.93312 137.405181 
L 197.008921 136.907841 
L 197.160522 137.405181 
L 197.236323 136.836793 
L 197.312124 141.668088 
L 197.387924 139.607683 
L 197.463725 139.607683 
L 197.615327 139.110344 
L 197.99433 144.225833 
L 198.070131 143.799542 
L 198.145932 144.154784 
L 198.221732 149.767612 
L 198.373334 142.378573 
L 198.524935 139.74978 
L 198.676537 140.033974 
L 198.828138 147.849304 
L 199.282943 140.886555 
L 199.586146 140.957604 
L 199.813548 130.229286 
L 199.889349 130.726626 
L 199.965149 123.195489 
L 200.04095 123.479683 
L 200.116751 123.479683 
L 200.192552 124.54541 
L 200.268352 124.474361 
L 200.344153 124.616458 
L 200.419954 125.611137 
L 200.647356 119.500969 
L 200.723157 119.998308 
L 200.798957 118.648388 
L 200.874758 122.342907 
L 200.950559 122.271859 
L 201.10216 122.69815 
L 201.253762 121.987665 
L 201.329563 116.659031 
L 201.556965 125.46904 
L 201.632765 120.211454 
L 201.708566 120.282502 
L 201.784367 120.282502 
L 201.935968 120.069357 
L 202.011769 120.566696 
L 202.08757 117.298467 
L 202.163371 117.511612 
L 202.314972 117.582661 
L 202.390773 118.861533 
L 202.693976 109.980476 
L 202.845577 112.964511 
L 202.921378 112.751366 
L 203.224581 113.532899 
L 203.300382 110.122573 
L 203.451983 112.396123 
L 203.527784 112.396123 
L 203.679385 112.893463 
L 203.755186 114.38548 
L 203.982588 110.904106 
L 204.058389 110.904106 
L 204.20999 109.838379 
L 204.285791 115.024916 
L 204.361592 111.330396 
L 204.437393 117.369515 
L 204.513193 117.227419 
L 204.664795 117.511612 
L 204.740596 117.511612 
L 204.892197 113.674996 
L 205.043799 113.746044 
L 205.119599 113.532899 
L 205.271201 108.41741 
L 205.347001 108.772652 
L 205.498603 106.357004 
L 205.650204 106.854344 
L 205.953407 115.877498 
L 206.105009 106.001762 
L 206.18081 111.898784 
L 206.25661 111.827736 
L 206.332411 111.827736 
L 206.484012 112.53822 
L 206.711415 121.987665 
L 206.787215 122.769198 
L 206.938817 115.593304 
L 207.014618 113.746044 
L 207.090418 115.948546 
L 207.166219 115.877498 
L 207.317821 115.877498 
L 207.393621 116.445885 
L 207.545223 109.838379 
L 207.621023 109.909427 
L 207.772625 109.838379 
L 207.924226 109.198943 
L 208.151629 114.243383 
L 208.30323 120.211454 
L 208.530632 120.708793 
L 208.606433 120.708793 
L 208.682234 118.435242 
L 208.833835 131.152916 
L 208.909636 131.579207 
L 209.137038 131.010819 
L 209.28864 128.453075 
L 209.440241 128.453075 
L 209.516042 128.168881 
L 209.743444 121.987665 
L 209.819245 122.058714 
L 209.895046 122.911295 
L 209.970846 122.556053 
L 210.046647 122.982344 
L 210.122448 122.485004 
L 210.274049 124.190167 
L 210.34985 124.758555 
L 210.425651 121.419278 
L 210.501451 121.490326 
L 210.577252 121.348229 
L 210.728854 119.643066 
L 210.880455 111.969833 
L 210.956256 110.477815 
L 211.032057 110.619912 
L 211.107857 110.051524 
L 211.183658 112.893463 
L 211.259459 111.969833 
L 211.335259 112.11193 
L 211.486861 113.035559 
L 211.562662 111.969833 
L 211.790064 118.08 
L 211.865865 118.222097 
L 212.169068 114.882819 
L 212.244868 118.08 
L 212.320669 118.008952 
L 212.47227 119.572018 
L 212.699673 127.3163 
L 212.775473 127.387348 
L 212.927075 139.252441 
L 213.002876 138.257762 
L 213.078676 131.152916 
L 213.154477 131.579207 
L 213.230278 131.650256 
L 213.533481 124.829604 
L 213.609282 125.326943 
L 213.685082 125.255894 
L 213.760883 125.184846 
L 213.912484 132.289692 
L 214.139887 132.218643 
L 214.215687 119.572018 
L 214.291488 121.490326 
L 214.44309 123.977022 
L 214.594691 123.977022 
L 214.897894 110.833057 
L 214.973695 110.975154 
L 215.049495 111.401445 
L 215.125296 114.030238 
L 215.201097 113.959189 
L 215.352698 106.57015 
L 215.5043 102.165145 
L 215.580101 102.165145 
L 215.731702 100.602079 
L 215.807503 100.673128 
L 216.034905 100.673128 
L 216.262307 97.475947 
L 216.413909 97.831189 
L 216.489709 85.042467 
L 216.56551 86.037145 
L 216.792912 82.839965 
L 216.944514 82.626819 
L 217.247717 84.403031 
L 217.323518 84.189885 
L 217.475119 90.797392 
L 217.62672 86.818678 
L 217.778322 89.660617 
L 217.854123 87.955454 
L 217.929923 88.026502 
L 218.081525 92.644652 
L 218.384728 82.911013 
L 218.460529 82.911013 
L 218.61213 89.660617 
L 218.763731 89.660617 
L 219.218536 99.536352 
L 219.294337 100.033692 
L 219.445938 99.323207 
L 219.59754 97.120705 
L 219.824942 103.79926 
L 219.900742 98.896916 
L 220.052344 112.964511 
L 220.128145 109.412088 
L 220.203945 109.554185 
L 220.431348 109.554185 
L 220.582949 110.406767 
L 220.810351 104.012405 
L 220.961953 104.083454 
L 221.113554 102.520388 
L 221.265156 94.847154 
L 221.416757 92.573604 
L 221.492558 94.56296 
L 221.568359 93.994573 
L 221.71996 91.294731 
L 221.795761 91.436828 
L 221.947362 93.070943 
L 222.174765 93.141991 
L 222.250565 93.141991 
L 222.326366 93.781427 
L 222.477967 96.694414 
L 222.553768 94.989251 
L 222.70537 97.546996 
L 222.932772 98.186432 
L 223.008573 99.323207 
L 223.084373 96.623366 
L 223.235975 98.825868 
L 223.311776 93.426185 
L 223.539178 102.236194 
L 223.614978 102.165145 
L 223.918181 100.602079 
L 224.145584 106.854344 
L 224.221384 107.351683 
L 224.297185 114.456529 
L 224.372986 114.030238 
L 224.524587 113.888141 
L 224.751989 113.888141 
L 224.903591 113.248705 
L 225.055192 113.319753 
L 225.130993 114.172335 
L 225.206794 114.101286 
L 225.282595 113.177656 
L 225.358395 117.440564 
L 225.434196 116.516934 
L 225.509997 116.516934 
L 225.585798 116.730079 
L 225.737399 121.916617 
L 225.8132 122.342907 
L 226.040602 117.511612 
L 226.192203 117.298467 
L 226.343805 117.227419 
L 226.495406 117.227419 
L 226.647008 117.227419 
L 226.722809 112.396123 
L 226.798609 112.53822 
L 226.87441 112.396123 
L 226.950211 115.735401 
L 227.026012 115.664352 
L 227.101812 115.877498 
L 227.177613 121.064035 
L 227.253414 120.708793 
L 227.329214 120.353551 
L 227.405015 120.424599 
L 227.480816 120.495648 
L 227.708218 113.746044 
L 227.85982 114.172335 
L 227.93562 117.15637 
L 228.011421 116.730079 
L 228.163023 116.161692 
L 228.314624 113.035559 
L 228.390425 113.035559 
L 228.466225 112.680317 
L 228.542026 110.26467 
L 228.693628 112.396123 
L 228.845229 112.822414 
L 228.996831 108.701604 
L 229.148432 108.346361 
L 229.300034 101.383612 
L 229.451635 97.404899 
L 229.603236 97.404899 
L 229.906439 96.836511 
L 229.98224 91.507877 
L 230.133842 95.0603 
L 230.209642 95.0603 
L 230.285443 94.349815 
L 230.361244 97.049656 
L 230.588646 90.655295 
L 230.816048 91.010537 
L 230.891849 90.371101 
L 230.96765 92.928846 
L 231.04345 92.147313 
L 231.119251 92.147313 
L 231.195052 92.431507 
L 231.346653 98.399577 
L 231.422454 98.328529 
L 231.801458 96.197075 
L 232.104661 96.126026 
L 232.180461 94.491912 
L 232.332063 79.500687 
L 232.407864 79.500687 
L 232.635266 81.987383 
L 232.711067 81.987383 
L 232.786867 87.387066 
L 232.938469 84.474079 
L 233.09007 84.545128 
L 233.165871 83.97674 
L 233.241672 84.260934 
L 233.317472 93.852476 
L 233.393273 92.857797 
L 233.469074 92.502555 
L 233.620675 95.344493 
L 233.696476 95.98393 
L 233.772277 91.152634 
L 233.923878 94.989251 
L 234.227081 96.197075 
L 234.378683 82.626819 
L 234.454483 82.768916 
L 234.606085 92.147313 
L 234.681886 91.507877 
L 234.833487 89.234326 
L 234.985089 94.847154 
L 235.13669 94.847154 
L 235.212491 95.131348 
L 235.364092 93.923524 
L 235.439893 93.923524 
L 235.515694 95.770784 
L 235.591494 95.699736 
L 235.743096 95.628687 
L 235.894697 95.841833 
L 236.046299 95.415542 
L 236.1221 95.415542 
L 236.425303 94.989251 
L 236.501103 95.628687 
L 236.728506 94.918203 
L 236.804306 94.776106 
L 236.880107 94.13667 
L 237.031708 100.673128 
L 237.107509 101.596758 
L 237.259111 99.323207 
L 237.410712 99.323207 
L 237.486513 98.044335 
L 237.562314 98.115383 
L 237.789716 110.051524 
L 237.941317 110.406767 
L 238.092919 106.854344 
L 238.24452 106.499101 
L 238.320321 106.499101 
L 238.396122 106.925392 
L 238.623524 99.820546 
L 238.699325 99.820546 
L 238.775125 102.87563 
L 238.850926 102.733533 
L 238.926727 102.662485 
L 239.002528 102.378291 
L 239.154129 98.967965 
L 239.22993 98.967965 
L 239.30573 99.18111 
L 239.381531 105.291278 
L 239.457332 103.728211 
L 239.533133 103.657163 
L 239.836336 102.87563 
L 239.987937 101.454661 
L 240.063738 101.454661 
L 240.29114 91.507877 
L 240.518542 90.371101 
L 240.594343 90.726344 
L 240.670144 92.502555 
L 240.745944 101.454661 
L 240.821745 89.021181 
L 240.897546 91.578925 
L 240.973347 91.507877 
L 241.200749 92.218361 
L 241.27655 93.63933 
L 241.428151 90.797392 
L 241.655553 96.552317 
L 241.731354 96.552317 
L 241.882955 96.054978 
L 242.034557 96.623366 
L 242.110358 96.126026 
L 242.186158 96.339172 
L 242.413561 97.973286 
L 242.565162 97.546996 
L 242.716764 104.651841 
L 242.792564 107.564828 
L 242.868365 106.996441 
L 242.944166 105.930714 
L 243.171568 114.953868 
L 243.323169 110.762009 
L 243.39897 110.762009 
L 243.474771 110.26467 
L 243.550572 110.406767 
L 243.626372 110.406767 
L 243.777974 114.172335 
L 243.853775 114.740722 
L 244.005376 119.00363 
L 244.081177 119.00363 
L 244.232778 118.861533 
L 244.308579 115.451207 
L 244.46018 119.074678 
L 244.535981 115.380159 
L 244.687583 119.714115 
L 244.914985 120.211454 
L 245.066586 119.643066 
L 245.142387 119.785163 
L 245.218188 117.440564 
L 245.293988 118.008952 
L 245.44559 117.937903 
L 245.597191 116.872176 
L 245.824594 117.085322 
L 245.900394 117.085322 
L 246.051996 117.440564 
L 246.127797 117.440564 
L 246.279398 120.140405 
L 246.355199 120.140405 
L 246.5068 120.424599 
L 246.658402 125.042749 
L 246.810003 125.042749 
L 246.961605 125.184846 
L 247.037405 125.184846 
L 247.189007 124.829604 
L 247.340608 129.945093 
L 247.568011 122.69815 
L 247.643811 122.485004 
L 247.719612 122.556053 
L 247.795413 117.724758 
L 247.871213 118.932581 
L 248.098616 118.932581 
L 248.250217 110.762009 
L 248.629221 104.367648 
L 248.780822 106.641198 
L 248.932424 106.641198 
L 249.008224 103.870308 
L 249.159826 106.357004 
L 249.235627 106.357004 
L 249.311427 105.859665 
L 249.387228 105.930714 
L 249.463029 105.930714 
L 249.61463 106.499101 
L 249.842033 100.317885 
L 250.069435 100.246837 
L 250.145235 99.465304 
L 250.296837 95.131348 
L 250.372638 95.344493 
L 250.448438 95.912881 
L 250.60004 100.033692 
L 250.675841 99.962643 
L 250.827442 106.428053 
L 250.903243 106.357004 
L 251.054844 108.985797 
L 251.130645 108.488458 
L 251.206446 108.914749 
L 251.282247 105.362326 
L 251.358047 105.504423 
L 251.433848 108.985797 
L 251.509649 105.575471 
L 251.585449 105.717568 
L 251.66125 112.040881 
L 251.737051 110.477815 
L 251.888652 108.346361 
L 252.040254 103.372969 
L 252.116055 103.230872 
L 252.267656 94.491912 
L 252.419258 94.56296 
L 252.570859 93.355137 
L 252.72246 93.710379 
L 252.798261 93.710379 
L 252.949863 89.021181 
L 253.253066 89.021181 
L 253.404667 87.742308 
L 253.480468 87.813357 
L 253.632069 82.697868 
L 253.783671 87.102872 
L 253.935272 87.031824 
L 254.011073 86.179242 
L 254.162674 89.305374 
L 254.238475 89.305374 
L 254.314276 89.021181 
L 254.390077 87.529163 
L 254.465877 87.600211 
L 254.541678 87.387066 
L 254.617479 88.808035 
L 254.69328 87.102872 
L 254.76908 87.316018 
L 254.844881 87.387066 
L 255.148084 107.849022 
L 255.223885 108.275313 
L 255.299685 112.182978 
L 255.375486 111.969833 
L 255.451287 111.969833 
L 255.527088 111.827736 
L 255.678689 106.925392 
L 255.75449 107.422731 
L 255.906091 106.712247 
L 256.057693 113.603947 
L 256.133494 113.603947 
L 256.285095 106.925392 
L 256.436696 107.706925 
L 256.739899 102.662485 
L 256.8157 102.804581 
L 256.967302 103.088775 
L 257.043102 103.088775 
L 257.270505 105.220229 
L 257.346305 104.936035 
L 257.422106 104.154502 
L 257.497907 104.296599 
L 257.725309 105.078132 
L 257.87691 104.438696 
L 257.952711 104.438696 
L 258.180113 92.147313 
L 258.407516 100.602079 
L 258.483316 97.404899 
L 258.634918 102.378291 
L 258.786519 95.344493 
L 258.938121 96.054978 
L 259.089722 90.939489 
L 259.241324 90.939489 
L 259.317124 90.300053 
L 259.468726 90.726344 
L 259.544527 90.655295 
L 259.696128 88.736987 
L 259.771929 88.736987 
L 260.075132 90.229004 
L 260.226733 84.047789 
L 260.605737 98.328529 
L 260.681538 97.902238 
L 260.757338 97.973286 
L 260.90894 95.415542 
L 260.984741 95.273445 
L 261.136342 96.054978 
L 261.287943 93.426185 
L 261.363744 93.284088 
L 261.439545 93.355137 
L 261.515346 96.054978 
L 261.666947 93.141991 
L 261.742748 92.076264 
L 261.894349 100.175789 
L 261.97015 96.907559 
L 262.045951 96.907559 
L 262.121752 97.120705 
L 262.273353 103.79926 
L 262.424954 99.678449 
L 262.576556 94.634009 
L 262.652357 94.776106 
L 262.803958 100.317885 
L 262.879759 100.317885 
L 262.95556 101.667806 
L 263.107161 98.115383 
L 263.182962 98.115383 
L 263.258763 98.25748 
L 263.334563 98.115383 
L 263.410364 95.0603 
L 263.486165 97.973286 
L 263.637766 93.63933 
L 263.713567 93.63933 
L 263.865168 96.481269 
L 263.940969 96.623366 
L 264.168371 90.015859 
L 264.244172 90.086907 
L 264.319973 91.152634 
L 264.395774 91.081586 
L 264.547375 95.415542 
L 264.774777 88.239648 
L 264.926379 88.879084 
L 265.002179 88.879084 
L 265.153781 96.41022 
L 265.229582 96.126026 
L 265.456984 95.202396 
L 265.684386 96.694414 
L 265.835988 105.575471 
L 265.911788 103.444018 
L 265.987589 104.083454 
L 266.13919 101.738855 
L 266.214991 101.738855 
L 266.442393 96.41022 
L 266.518194 96.481269 
L 266.593995 96.054978 
L 266.669796 98.683771 
L 266.972999 89.589568 
L 267.200401 97.475947 
L 267.427803 97.049656 
L 267.579404 90.371101 
L 267.806807 90.300053 
L 268.034209 94.207718 
L 268.18581 90.584247 
L 268.337412 91.081586 
L 268.413212 86.74763 
L 268.489013 86.818678 
L 268.564814 86.321339 
L 268.640615 87.102872 
L 268.716415 89.873762 
L 268.792216 86.74763 
L 268.868017 86.960775 
L 269.019618 86.250291 
L 269.095419 86.250291 
L 269.17122 86.392388 
L 269.322821 80.850608 
L 269.398622 81.20585 
L 269.474423 77.227137 
L 269.550224 85.042467 
L 269.626024 84.545128 
L 269.777626 78.506009 
L 269.929227 83.834643 
L 270.005028 83.692546 
L 270.156629 87.742308 
L 270.23243 84.971419 
L 270.308231 87.244969 
L 270.384032 85.113515 
L 270.535633 90.229004 
L 270.687235 90.015859 
L 270.838836 90.015859 
L 270.990437 90.655295 
L 271.066238 90.44215 
L 271.142039 90.44215 
L 271.29364 92.28941 
L 271.445242 89.589568 
L 271.521043 89.589568 
L 271.596843 86.250291 
L 271.672644 86.321339 
L 271.824246 86.321339 
L 271.975847 88.452793 
L 272.051648 87.244969 
L 272.127448 87.600211 
L 272.27905 94.420863 
L 272.582253 94.491912 
L 272.733854 93.63933 
L 272.809655 93.710379 
L 273.037057 106.357004 
L 273.112858 106.072811 
L 273.188659 105.575471 
L 273.264459 103.870308 
L 273.416061 108.275313 
L 273.491862 108.275313 
L 273.567662 108.41741 
L 273.643463 111.543542 
L 273.719264 107.849022 
L 273.870865 111.898784 
L 274.022467 111.827736 
L 274.098268 109.76733 
L 274.249869 115.948546 
L 274.401471 109.909427 
L 274.477271 112.822414 
L 274.628873 102.591436 
L 274.856275 102.165145 
L 274.932076 99.678449 
L 275.083677 102.733533 
L 275.159478 102.378291 
L 275.311079 97.760141 
L 275.38688 96.268123 
L 275.462681 100.957322 
L 275.538482 100.388934 
L 275.690083 101.525709 
L 275.841684 101.525709 
L 275.917485 102.165145 
L 276.144887 113.746044 
L 276.220688 113.603947 
L 276.296489 112.893463 
L 276.37229 112.964511 
L 276.523891 99.962643 
L 276.599692 99.891595 
L 276.827094 101.952 
L 276.978695 95.770784 
L 277.130297 103.372969 
L 277.4335 104.438696 
L 277.585101 104.367648 
L 277.660902 104.509744 
L 277.812504 103.941357 
L 277.888304 103.941357 
L 278.039906 95.344493 
L 278.267308 90.939489 
L 278.418909 97.404899 
L 278.49471 97.404899 
L 278.646312 91.081586 
L 278.722112 91.152634 
L 278.873714 88.665938 
L 279.025315 89.092229 
L 279.176917 88.381744 
L 279.252718 88.381744 
L 279.328518 82.555771 
L 279.48012 85.895048 
L 279.55592 85.681903 
L 279.783323 92.502555 
L 280.010725 95.273445 
L 280.162326 95.344493 
L 280.465529 84.260934 
L 280.54133 85.468758 
L 280.617131 85.184564 
L 280.692931 85.255612 
L 280.844533 85.255612 
L 280.996134 84.616176 
L 281.147736 84.971419 
L 281.299337 83.479401 
L 281.375138 83.479401 
L 281.52674 83.05311 
L 281.678341 92.147313 
L 281.829942 93.710379 
L 281.905743 93.710379 
L 282.057345 87.884405 
L 282.284747 89.092229 
L 282.360548 93.497233 
L 282.436348 93.355137 
L 282.58795 89.731665 
L 282.739551 89.873762 
L 282.815352 89.376423 
L 283.042754 79.429639 
L 283.270156 78.719154 
L 283.421758 74.385198 
L 283.497559 74.456247 
L 283.573359 74.31415 
L 283.800762 67.706643 
L 283.952363 67.919789 
L 284.028164 67.990837 
L 284.179765 75.66407 
L 284.255566 75.66407 
L 284.407167 74.953586 
L 284.558769 78.577057 
L 284.63457 74.31415 
L 284.71037 74.456247 
L 284.861972 78.079718 
L 284.937773 76.445604 
L 285.013573 76.658749 
L 285.165175 82.555771 
L 285.392577 75.024634 
L 285.468378 75.024634 
L 285.544178 84.758273 
L 285.619979 84.403031 
L 285.69578 84.189885 
L 285.847381 96.197075 
L 285.923182 95.131348 
L 285.998983 99.607401 
L 286.074784 96.623366 
L 286.150584 96.978608 
L 286.302186 96.978608 
L 286.453787 95.841833 
L 286.605389 95.912881 
L 286.681189 96.339172 
L 286.832791 99.252159 
L 286.908592 97.191753 
L 286.984392 97.760141 
L 287.060193 98.044335 
L 287.135994 97.689093 
L 287.287595 93.994573 
L 287.363396 94.065621 
L 287.439197 97.049656 
L 287.590798 89.305374 
L 287.666599 89.660617 
L 287.7424 89.660617 
L 287.969802 95.628687 
L 288.121403 92.502555 
L 288.197204 92.857797 
L 288.273005 92.573604 
L 288.348806 98.683771 
L 288.424606 98.399577 
L 288.727809 98.044335 
L 288.879411 110.051524 
L 289.031012 109.76733 
L 289.106813 109.76733 
L 289.182614 110.26467 
L 289.258414 110.193621 
L 289.561617 110.122573 
L 289.637418 110.833057 
L 289.713219 110.69096 
L 289.86482 110.762009 
L 290.016422 106.925392 
L 290.395425 106.925392 
L 290.622828 106.57015 
L 290.774429 99.536352 
L 290.926031 99.536352 
L 291.001831 102.733533 
L 291.077632 102.591436 
L 291.153433 102.591436 
L 291.229234 104.438696 
L 291.305034 99.749498 
L 291.380835 102.804581 
L 291.456636 102.662485 
L 291.532436 102.591436 
L 291.684038 109.412088 
L 291.835639 105.575471 
L 291.987241 105.788617 
L 292.138842 109.909427 
L 292.669447 119.00363 
L 292.745248 119.572018 
L 292.89685 129.874044 
L 292.97265 129.874044 
L 293.048451 129.731947 
L 293.124252 134.634291 
L 293.200053 134.279048 
L 293.275853 134.776388 
L 293.427455 133.781709 
L 293.654857 121.77452 
L 293.806459 122.769198 
L 293.882259 122.769198 
L 294.033861 124.261216 
L 294.185462 123.977022 
L 294.337064 123.692828 
L 294.412864 126.534767 
L 294.488665 122.342907 
L 294.564466 122.769198 
L 294.640267 123.195489 
L 294.791868 121.490326 
L 294.867669 123.053392 
L 294.94347 122.413956 
L 295.01927 122.058714 
L 295.095071 120.353551 
L 295.246672 129.092511 
L 295.549875 129.092511 
L 295.701477 132.787031 
L 295.928879 133.142273 
L 296.00468 133.710661 
L 296.156281 131.43711 
L 296.307883 131.650256 
L 296.535285 131.152916 
L 296.611086 128.595172 
L 296.762687 134.634291 
L 296.914289 127.387348 
L 296.990089 127.3163 
L 297.141691 127.458396 
L 297.217492 127.458396 
L 297.293292 123.977022 
L 297.444894 130.797674 
L 297.596495 130.371383 
L 297.672296 130.371383 
L 297.975499 121.348229 
L 298.0513 121.348229 
L 298.202901 115.522256 
L 298.278702 115.664352 
L 298.430303 114.740722 
L 298.581905 114.740722 
L 298.809307 112.893463 
L 298.885108 104.864987 
L 299.036709 114.38548 
L 299.188311 112.751366 
L 299.264111 118.577339 
L 299.415713 115.167013 
L 299.491514 115.238062 
L 299.567314 118.08 
L 299.643115 116.019595 
L 299.718916 116.161692 
L 299.794717 116.161692 
L 299.870517 110.477815 
L 300.022119 117.014273 
L 300.097919 117.15637 
L 300.249521 122.840247 
L 300.325322 119.572018 
L 300.401122 125.611137 
L 300.476923 121.490326 
L 300.552724 121.916617 
L 300.628525 122.485004 
L 300.780126 127.529445 
L 301.23493 127.529445 
L 301.386532 127.245251 
L 301.538133 128.168881 
L 301.689735 124.687507 
L 301.765536 125.042749 
L 301.841336 119.643066 
L 301.917137 120.637744 
L 301.992938 120.779841 
L 302.068739 114.101286 
L 302.144539 114.38548 
L 302.296141 114.669674 
L 302.371942 124.261216 
L 302.447742 121.845568 
L 302.599344 112.467172 
L 302.675144 113.532899 
L 302.750945 113.603947 
L 302.902547 113.177656 
L 302.978347 119.714115 
L 303.054148 117.227419 
L 303.20575 118.861533 
L 303.28155 118.577339 
L 303.357351 111.543542 
L 303.433152 111.756687 
L 303.508953 111.756687 
L 303.584753 108.204264 
L 303.660554 108.275313 
L 303.812155 108.275313 
L 303.963757 107.92007 
L 304.191159 107.92007 
L 304.342761 114.456529 
L 304.494362 112.751366 
L 304.570163 118.506291 
L 304.645964 116.943225 
L 304.797565 117.15637 
L 304.873366 113.035559 
L 305.024967 119.358872 
L 305.100768 119.358872 
L 305.252369 119.856211 
L 305.32817 120.069357 
L 305.403971 120.779841 
L 305.555572 118.293145 
L 305.707174 125.255894 
L 305.858775 125.255894 
L 305.934576 124.758555 
L 306.086177 125.397991 
L 306.161978 125.397991 
L 306.237779 127.032106 
L 306.31358 126.890009 
L 306.465181 124.616458 
L 306.616783 124.54541 
L 306.692583 116.801128 
L 306.768384 118.932581 
L 306.919986 121.277181 
L 306.995786 121.277181 
L 307.147388 119.216775 
L 307.223189 119.500969 
L 307.298989 119.287824 
L 307.450591 121.561374 
L 307.602192 121.632423 
L 307.753794 123.195489 
L 307.981196 122.982344 
L 308.284399 127.813639 
L 308.436 133.781709 
L 308.587602 129.447753 
L 308.663402 136.126308 
L 308.739203 135.344775 
L 308.815004 135.771066 
L 308.966605 132.005498 
L 309.194008 132.005498 
L 309.345609 133.426467 
L 309.497211 132.929128 
L 309.573011 132.929128 
L 309.724613 134.989533 
L 309.800413 135.415824 
L 309.876214 132.431789 
L 309.952015 132.858079 
L 310.027816 133.071225 
L 310.103616 131.863401 
L 310.179417 124.758555 
L 310.255218 124.900652 
L 310.331019 125.255894 
L 310.48262 125.042749 
L 310.785823 124.9717 
L 310.937424 125.966379 
L 311.013225 125.89533 
L 311.164827 125.89533 
L 311.240627 122.982344 
L 311.392229 127.032106 
L 311.46803 119.856211 
L 311.54383 123.266537 
L 311.619631 118.008952 
L 311.695432 121.206132 
L 311.998635 105.220229 
L 312.074436 105.64652 
L 312.150236 105.64652 
L 312.226037 98.115383 
L 312.301838 100.673128 
L 312.453439 100.673128 
L 312.605041 108.772652 
L 312.680841 106.57015 
L 312.756642 100.957322 
L 312.832443 101.099419 
L 312.908244 100.388934 
L 312.984044 100.602079 
L 313.059845 100.815225 
L 313.211447 100.246837 
L 313.287247 97.191753 
L 313.363048 98.328529 
L 313.514649 103.728211 
L 313.666251 102.662485 
L 313.742052 104.864987 
L 313.893653 96.694414 
L 314.045255 94.847154 
L 314.121055 94.207718 
L 314.348458 85.468758 
L 314.424258 85.468758 
L 314.500059 85.326661 
L 314.57586 85.397709 
L 314.727461 79.784881 
L 314.803262 79.500687 
L 314.879063 79.85593 
L 314.954863 83.408352 
L 315.030664 82.982062 
L 315.182266 82.768916 
L 315.258066 82.271577 
L 315.485469 87.102872 
L 315.63707 88.381744 
L 315.788671 90.584247 
L 315.864472 90.939489 
L 315.940273 96.836511 
L 316.016074 95.273445 
L 316.091874 95.344493 
L 316.319277 91.223683 
L 316.470878 91.081586 
L 316.546679 91.223683 
L 316.69828 83.621498 
L 316.925683 83.195207 
L 317.001483 83.195207 
L 317.153085 82.413674 
L 317.228885 75.735119 
L 317.304686 78.648106 
L 317.380487 78.43496 
L 317.532088 67.138256 
L 317.607889 67.280352 
L 317.759491 66.214626 
L 317.986893 75.521974 
L 318.138494 71.827454 
L 318.290096 72.822132 
L 318.441697 73.319471 
L 318.593299 76.090361 
L 318.669099 76.090361 
L 318.820701 78.506009 
L 318.896502 78.150767 
L 319.351306 87.67126 
L 319.427107 87.387066 
L 319.502907 87.67126 
L 319.654509 85.610855 
L 319.80611 98.186432 
L 319.881911 98.25748 
L 320.109313 95.273445 
L 320.336716 85.752952 
L 320.412516 85.468758 
L 320.488317 85.539806 
L 320.564118 85.681903 
L 320.639918 85.610855 
L 320.715719 85.610855 
L 320.79152 85.895048 
L 320.867321 84.90037 
L 320.943121 85.255612 
L 321.018922 85.966097 
L 321.170524 83.834643 
L 321.246324 83.834643 
L 321.322125 84.047789 
L 321.397926 80.779559 
L 321.473727 82.200529 
L 321.701129 82.697868 
L 321.77693 82.626819 
L 321.85273 82.768916 
L 322.155933 82.058432 
L 322.231734 78.00867 
L 322.307535 79.145445 
L 322.459136 78.861251 
L 322.534937 78.9323 
L 322.610738 79.713833 
L 322.762339 79.074396 
L 322.913941 74.101004 
L 323.141343 73.319471 
L 323.217143 74.31415 
L 323.368745 80.069075 
L 323.520346 79.003348 
L 323.596147 73.745762 
L 323.671948 79.003348 
L 323.747749 75.450925 
L 323.89935 78.43496 
L 324.126752 77.866573 
L 324.202553 78.221815 
L 324.278354 85.113515 
L 324.354154 85.042467 
L 324.429955 85.042467 
L 324.581557 87.458115 
L 324.808959 81.490044 
L 324.88476 81.490044 
L 325.036361 80.921656 
L 325.187963 86.179242 
L 325.263763 86.179242 
L 325.339564 86.463436 
L 325.642767 84.189885 
L 325.718568 87.316018 
L 325.794368 86.960775 
L 325.870169 86.889727 
L 326.021771 90.513198 
L 326.173372 90.44215 
L 326.400774 91.436828 
L 326.476575 91.36578 
L 326.779778 89.944811 
L 326.855579 90.015859 
L 326.931379 93.284088 
L 327.082981 102.236194 
L 327.310383 92.999894 
L 327.386184 92.999894 
L 327.537785 107.351683 
L 327.765188 100.246837 
L 327.840988 100.317885 
L 327.99259 101.170467 
L 328.219992 95.415542 
L 328.295793 95.415542 
L 328.598996 91.934167 
L 328.674796 89.802714 
L 328.826398 93.497233 
L 328.902199 93.781427 
L 329.0538 98.825868 
L 329.129601 98.825868 
L 329.281202 108.346361 
L 329.432804 108.204264 
L 329.584405 105.078132 
L 329.660206 105.078132 
L 329.736007 99.536352 
L 329.811807 99.891595 
L 329.887608 102.946678 
L 330.03921 92.786749 
L 330.11501 92.644652 
L 330.190811 95.628687 
L 330.342412 104.225551 
L 330.418213 103.870308 
L 330.494014 104.296599 
L 330.797217 102.804581 
L 330.948818 102.236194 
L 331.024619 102.87563 
L 331.10042 97.191753 
L 331.176221 100.033692 
L 331.252021 99.962643 
L 331.403623 97.689093 
L 331.479424 97.689093 
L 331.555224 101.454661 
L 331.631025 101.383612 
L 331.706826 101.241515 
L 331.858427 102.804581 
L 331.934228 102.804581 
L 332.085829 99.749498 
L 332.237431 101.880952 
L 332.313232 101.880952 
L 332.540634 103.088775 
L 332.616435 100.246837 
L 332.692235 100.886273 
L 332.768036 101.525709 
L 332.843837 100.602079 
L 332.995438 101.952 
L 333.071239 101.809903 
L 333.22284 101.312564 
L 333.298641 101.454661 
L 333.450243 94.207718 
L 333.601844 103.728211 
L 333.677645 103.728211 
L 333.753446 103.230872 
L 333.829246 103.301921 
L 333.905047 103.301921 
L 334.056648 101.952 
L 334.20825 101.952 
L 334.359851 100.175789 
L 334.511453 99.962643 
L 334.663054 103.017727 
L 334.814656 99.18111 
L 334.966257 99.039013 
L 335.042058 99.039013 
L 335.117859 97.902238 
L 335.193659 98.044335 
L 335.345261 99.394256 
L 335.496862 98.683771 
L 335.648464 98.683771 
L 335.724265 98.541674 
L 335.800065 94.065621 
L 335.875866 94.207718 
L 336.027468 94.207718 
L 336.179069 99.749498 
L 336.25487 100.531031 
L 336.406471 97.404899 
L 336.482272 97.404899 
L 336.633873 107.777974 
L 336.785475 101.170467 
L 336.861276 101.170467 
L 336.937076 101.02837 
L 337.012877 94.918203 
L 337.088678 95.0603 
L 337.164479 99.18111 
L 337.240279 98.683771 
L 337.467682 98.683771 
L 337.619283 103.941357 
L 337.846685 105.362326 
L 337.998287 98.754819 
L 338.074087 98.754819 
L 338.225689 98.612722 
L 338.453091 97.33385 
L 338.528892 97.049656 
L 338.604693 103.444018 
L 338.680493 100.531031 
L 338.983696 93.781427 
L 339.059497 93.781427 
L 339.135298 94.491912 
L 339.211098 101.241515 
L 339.286899 100.815225 
L 339.438501 99.962643 
L 339.514301 100.246837 
L 339.590102 89.234326 
L 339.665903 92.147313 
L 339.817504 91.863119 
L 340.044907 89.163278 
L 340.272309 89.163278 
L 340.575512 91.010537 
L 340.878715 86.250291 
L 340.954515 86.321339 
L 341.106117 90.797392 
L 341.257718 90.300053 
L 341.333519 94.56296 
L 341.636722 86.960775 
L 341.788323 89.305374 
L 341.864124 89.305374 
L 342.015726 88.381744 
L 342.167327 88.310696 
L 342.318929 85.468758 
L 342.394729 90.229004 
L 342.47053 85.468758 
L 342.546331 88.950132 
L 342.697932 86.605533 
L 342.849534 87.600211 
L 343.001135 87.600211 
L 343.076936 88.168599 
L 343.380139 83.408352 
L 343.45594 83.408352 
L 343.53174 82.555771 
L 343.683342 77.724476 
L 343.759142 77.724476 
L 343.910744 83.124159 
L 344.062345 83.408352 
L 344.138146 78.363912 
L 344.289748 83.479401 
L 344.365548 82.982062 
L 344.592951 96.765463 
L 344.668751 96.623366 
L 344.820353 93.355137 
L 344.896154 94.491912 
L 344.971954 91.294731 
L 345.047755 91.436828 
L 345.199356 91.36578 
L 345.275157 91.721022 
L 345.426759 97.33385 
L 345.57836 96.268123 
L 345.729962 96.41022 
L 345.805762 96.41022 
L 345.957364 95.273445 
L 346.108965 97.191753 
L 346.336367 97.404899 
L 346.412168 88.879084 
L 346.487969 89.447471 
L 346.56377 87.316018 
L 346.791172 94.847154 
L 346.866973 94.847154 
L 347.018574 92.928846 
L 347.094375 92.928846 
L 347.170176 93.63933 
L 347.245976 93.141991 
L 347.852382 103.301921 
L 347.928183 103.230872 
L 348.079784 103.941357 
L 348.231386 105.433374 
L 348.382987 96.978608 
L 348.458788 97.191753 
L 348.534589 97.120705 
L 348.68619 97.262802 
L 348.837792 97.120705 
L 348.989393 94.989251 
L 349.140995 101.312564 
L 349.368397 102.165145 
L 349.444198 102.307242 
L 349.595799 104.225551 
L 349.823201 98.541674 
L 350.050603 108.346361 
L 350.126404 108.275313 
L 350.202205 108.41741 
L 350.278006 111.330396 
L 350.353806 111.259348 
L 350.429607 104.367648 
L 350.581209 107.92007 
L 350.657009 104.936035 
L 350.73281 105.220229 
L 350.808611 109.554185 
L 350.960212 107.209586 
L 351.036013 119.216775 
L 351.187614 110.833057 
L 351.263415 111.046203 
L 351.339216 110.904106 
L 351.490817 110.406767 
L 351.642419 110.904106 
L 351.79402 110.051524 
L 352.021423 110.122573 
L 352.097223 106.641198 
L 352.173024 114.314432 
L 352.324625 104.580793 
L 352.400426 105.078132 
L 352.476227 108.559507 
L 352.552028 101.170467 
L 352.627828 101.241515 
L 352.703629 101.170467 
L 352.77943 105.362326 
L 352.855231 105.291278 
L 352.931031 106.072811 
L 353.006832 105.575471 
L 353.082633 111.117251 
L 353.158434 108.985797 
L 353.385836 109.412088 
L 353.461636 108.133216 
L 353.613238 111.969833 
L 353.689039 112.040881 
L 353.764839 115.806449 
L 353.84064 114.811771 
L 353.916441 114.740722 
L 354.068042 113.106608 
L 354.143843 113.106608 
L 354.371245 113.888141 
L 354.447046 113.46185 
L 354.522847 114.101286 
L 354.598648 113.959189 
L 354.750249 105.007084 
L 354.82605 105.930714 
L 354.977651 108.630555 
L 355.053452 108.772652 
L 355.205053 108.204264 
L 355.280854 108.346361 
L 355.432456 107.92007 
L 355.508256 108.062167 
L 355.584057 102.733533 
L 355.659858 105.149181 
L 355.735659 105.220229 
L 355.811459 105.504423 
L 355.963061 103.372969 
L 356.190463 103.657163 
L 356.266264 103.870308 
L 356.417865 110.051524 
L 356.493666 109.980476 
L 356.796869 108.630555 
L 356.87267 112.893463 
L 357.024271 106.57015 
L 357.100072 106.428053 
L 357.175872 98.541674 
L 357.251673 98.825868 
L 357.479075 109.980476 
L 357.630677 112.822414 
L 357.706478 112.822414 
L 357.782278 104.083454 
L 357.858079 104.154502 
L 357.93388 104.438696 
L 358.009681 105.930714 
L 358.085481 105.504423 
L 358.237083 106.285956 
L 358.464485 92.857797 
L 358.616086 93.070943 
L 358.691887 93.070943 
L 358.919289 89.305374 
L 358.99509 91.507877 
L 359.070891 91.36578 
L 359.222492 89.873762 
L 359.298293 93.141991 
L 359.374094 92.076264 
L 359.601496 92.147313 
L 359.753097 90.513198 
L 359.828898 90.300053 
L 359.904699 90.371101 
L 360.0563 84.545128 
L 360.132101 84.545128 
L 360.207902 82.413674 
L 360.283703 82.626819 
L 360.435304 84.047789 
L 360.586906 84.260934 
L 360.662706 84.118837 
L 361.04171 92.076264 
L 361.344913 79.642784 
L 361.496514 81.418996 
L 361.572315 78.00867 
L 361.648116 79.287542 
L 361.723917 79.571736 
L 361.875518 79.074396 
L 362.027119 80.566414 
L 362.10292 81.347947 
L 362.178721 81.134802 
L 362.254522 80.779559 
L 362.330322 80.921656 
L 362.481924 80.637463 
L 362.557725 77.795524 
L 362.633525 79.003348 
L 362.709326 79.074396 
L 362.860928 75.521974 
L 362.936728 75.521974 
L 363.08833 77.582379 
L 363.239931 76.232458 
L 363.391533 73.532617 
L 363.467333 73.532617 
L 363.694736 64.509463 
L 363.770536 64.651559 
L 363.846337 64.580511 
L 363.997939 65.290996 
L 364.14954 62.30696 
L 364.225341 62.520106 
L 364.301142 62.520106 
L 364.376942 61.170185 
L 364.755946 68.914467 
L 364.983348 70.690678 
L 365.13495 69.056564 
L 365.286551 68.488176 
L 365.362352 68.701322 
L 365.513953 69.980194 
L 365.589754 69.696 
L 365.817156 63.23059 
L 365.968758 62.591154 
L 366.120359 64.651559 
L 366.271961 61.596476 
L 366.499363 68.203982 
L 366.575164 68.275031 
L 366.726765 68.061885 
L 366.802566 65.930432 
L 366.878366 66.498819 
L 367.029968 66.92511 
L 367.105769 66.92511 
L 367.181569 74.101004 
L 367.25737 73.887859 
L 367.333171 73.887859 
L 367.408972 78.363912 
L 367.484772 77.582379 
L 367.560573 74.385198 
L 367.712175 63.514784 
L 367.787975 64.935753 
L 367.939577 63.017445 
L 368.091178 75.948264 
L 368.166979 70.477533 
L 368.24278 70.548581 
L 368.394381 77.227137 
L 368.470182 77.013991 
L 368.621783 77.724476 
L 368.773385 76.516652 
L 368.924986 60.601797 
L 369.152389 59.465022 
L 369.228189 59.53607 
L 369.379791 63.941075 
L 369.531392 60.672846 
L 369.607193 60.814943 
L 369.758794 56.978326 
L 369.834595 62.164863 
L 369.910396 62.093815 
L 369.986197 62.093815 
L 370.061997 59.038731 
L 370.137798 59.393974 
L 370.213599 59.393974 
L 370.2894 60.246555 
L 370.3652 59.53607 
L 370.516802 60.03341 
L 370.668403 60.03341 
L 370.744204 56.480987 
L 370.820005 57.191471 
L 370.971606 58.328247 
L 371.123208 67.138256 
L 371.199008 67.138256 
L 371.426411 59.607119 
L 371.502211 62.449057 
L 371.578012 61.667524 
L 371.805414 59.251877 
L 371.881215 59.251877 
L 371.957016 55.628405 
L 372.032816 56.054696 
L 372.260219 53.568 
L 372.487621 55.699454 
L 372.715023 56.552035 
L 372.790824 57.830907 
L 372.866624 54.349533 
L 373.094027 67.209304 
L 373.169827 66.92511 
L 373.321429 63.017445 
L 373.47303 63.514784 
L 373.548831 63.514784 
L 373.624632 64.367366 
L 373.700433 63.23059 
L 373.927835 72.964229 
L 374.155237 79.216493 
L 374.382639 78.292863 
L 374.45844 78.221815 
L 374.610041 77.369233 
L 374.685842 75.521974 
L 374.837444 82.484722 
L 374.989045 82.413674 
L 375.064846 79.074396 
L 375.140647 79.85593 
L 375.292248 79.85593 
L 375.368049 74.669392 
L 375.443849 75.166731 
L 375.595451 72.46689 
L 375.671252 72.751084 
L 375.747052 78.221815 
L 375.898654 74.953586 
L 375.974455 76.445604 
L 376.126056 71.685357 
L 376.277658 72.893181 
L 376.429259 72.893181 
L 376.58086 74.101004 
L 376.884063 70.974872 
L 377.035665 67.493498 
L 377.187266 65.788335 
L 377.263067 65.788335 
L 377.338868 64.651559 
L 377.56627 78.506009 
L 377.642071 78.506009 
L 377.793672 81.916335 
L 377.945274 80.921656 
L 378.096875 80.992705 
L 378.248477 80.850608 
L 378.324277 80.850608 
L 378.475879 81.134802 
L 378.55168 81.134802 
L 378.62748 80.495366 
L 378.779082 74.385198 
L 378.930683 77.937621 
L 379.158085 78.577057 
L 379.385488 76.729797 
L 379.461288 76.729797 
L 379.61289 71.045921 
L 379.840292 71.045921 
L 379.991894 79.003348 
L 380.219296 79.003348 
L 380.370897 77.369233 
L 380.522499 77.227137 
L 380.598299 80.566414 
L 380.6741 78.43496 
L 380.749901 79.074396 
L 380.901502 79.003348 
L 380.977303 79.074396 
L 381.053104 79.998026 
L 381.128905 79.926978 
L 381.204705 79.926978 
L 381.280506 75.024634 
L 381.356307 76.232458 
L 381.432107 75.450925 
L 381.507908 75.735119 
L 381.583709 75.735119 
L 381.65951 75.877216 
L 381.73531 80.140123 
L 381.811111 79.998026 
L 381.962713 79.998026 
L 382.038513 80.353269 
L 382.114314 80.28222 
L 382.265916 80.211172 
L 382.417517 83.692546 
L 382.493318 79.784881 
L 382.569119 81.063753 
L 382.644919 79.500687 
L 382.72072 79.784881 
L 382.796521 79.784881 
L 382.872321 79.642784 
L 382.948122 79.216493 
L 383.099724 84.474079 
L 383.251325 80.921656 
L 383.327126 80.921656 
L 383.630329 68.488176 
L 383.70613 68.488176 
L 383.857731 68.346079 
L 383.933532 68.346079 
L 384.009332 68.132934 
L 384.085133 72.680035 
L 384.312535 68.203982 
L 384.464137 65.575189 
L 384.539938 65.433093 
L 384.691539 62.733251 
L 384.918941 61.667524 
L 385.146343 62.378009 
L 385.297945 59.53607 
L 385.449546 68.203982 
L 385.525347 68.203982 
L 385.676949 69.340758 
L 385.752749 68.630273 
L 385.82855 64.438414 
L 385.904351 65.717286 
L 385.980152 67.067207 
L 386.055952 66.854062 
L 386.359155 66.854062 
L 386.434956 66.498819 
L 386.510757 67.280352 
L 386.586557 62.022767 
L 386.662358 65.788335 
L 386.738159 64.864705 
L 386.81396 64.651559 
L 386.965561 73.319471 
L 387.117163 62.093815 
L 387.268764 67.635595 
L 387.344565 69.767048 
L 387.420366 66.143577 
L 387.496166 66.427771 
L 387.647768 66.640916 
L 387.723568 66.640916 
L 387.87517 71.614308 
L 388.026771 67.635595 
L 388.178373 70.903824 
L 388.254174 69.624952 
L 388.557377 78.577057 
L 388.633177 78.363912 
L 388.860579 73.887859 
L 389.012181 73.887859 
L 389.163782 77.440282 
L 389.391185 77.582379 
L 389.466985 78.292863 
L 389.694388 72.608987 
L 389.845989 73.532617 
L 389.92179 73.532617 
L 389.99759 70.193339 
L 390.073391 73.39052 
L 390.224993 69.767048 
L 390.452395 68.77237 
L 390.603996 69.127612 
L 390.679797 67.84874 
L 390.755598 64.296317 
L 390.831399 64.367366 
L 390.907199 66.92511 
L 390.983 66.854062 
L 391.058801 66.92511 
L 391.134601 68.559225 
L 391.286203 67.280352 
L 391.437804 73.958907 
L 391.589406 73.887859 
L 391.816808 66.285674 
L 391.96841 66.640916 
L 392.120011 70.193339 
L 392.195812 70.193339 
L 392.347413 69.909145 
L 392.574815 71.259066 
L 392.802218 71.330115 
L 392.878018 71.045921 
L 392.953819 69.127612 
L 393.02962 69.624952 
L 393.105421 69.624952 
L 393.181221 69.767048 
L 393.257022 69.269709 
L 393.332823 69.411806 
L 393.484424 80.211172 
L 393.560225 80.211172 
L 393.636026 80.069075 
L 393.787627 79.287542 
L 393.863428 80.069075 
L 393.939229 87.031824 
L 394.015029 85.966097 
L 394.09083 85.966097 
L 394.545635 72.537938 
L 394.773037 72.537938 
L 395.000439 71.827454 
L 395.07624 72.608987 
L 395.379443 81.845286 
L 395.455243 81.845286 
L 395.531044 82.626819 
L 395.606845 85.468758 
L 395.758446 82.768916 
L 395.910048 84.047789 
L 395.985848 84.047789 
L 396.13745 84.545128 
L 396.213251 79.35859 
L 396.289051 79.85593 
L 396.364852 79.85593 
L 397.047059 95.628687 
L 397.19866 95.628687 
L 397.274461 95.557639 
L 397.426062 98.683771 
L 397.501863 99.394256 
L 397.653465 97.475947 
L 397.805066 102.236194 
L 397.880867 102.378291 
L 398.032468 99.039013 
L 398.108269 99.039013 
L 398.18407 101.525709 
L 398.259871 98.115383 
L 398.411472 106.499101 
L 398.487273 103.586115 
L 398.487273 103.586115 
" clip-path="url(#p34fd426887)" style="fill: none; stroke: #1f77b4; stroke-width: 1.5; stroke-linecap: square"/>
   </g>
   <g id="patch_3">
    <path d="M 57.6 307.584 
L 57.6 41.472 
" style="fill: none; stroke: #000000; stroke-width: 0.8; stroke-linejoin: miter; stroke-linecap: square"/>
   </g>
   <g id="patch_4">
    <path d="M 414.72 307.584 
L 414.72 41.472 
" style="fill: none; stroke: #000000; stroke-width: 0.8; stroke-linejoin: miter; stroke-linecap: square"/>
   </g>
   <g id="patch_5">
    <path d="M 57.6 307.584 
L 414.72 307.584 
" style="fill: none; stroke: #000000; stroke-width: 0.8; stroke-linejoin: miter; stroke-linecap: square"/>
   </g>
   <g id="patch_6">
    <path d="M 57.6 41.472 
L 414.72 41.472 
" style="fill: none; stroke: #000000; stroke-width: 0.8; stroke-linejoin: miter; stroke-linecap: square"/>
   </g>
   <g id="text_15">
    <!-- comp21 -->
    <g transform="translate(211.90125 35.472) scale(0.12 -0.12)">
     <defs>
      <path id="DejaVuSans-63" d="M 3122 3366 
L 3122 2828 
Q 2878 2963 2633 3030 
Q 2388 3097 2138 3097 
Q 1578 3097 1268 2742 
Q 959 2388 959 1747 
Q 959 1106 1268 751 
Q 1578 397 2138 397 
Q 2388 397 2633 464 
Q 2878 531 3122 666 
L 3122 134 
Q 2881 22 2623 -34 
Q 2366 -91 2075 -91 
Q 1284 -91 818 406 
Q 353 903 353 1747 
Q 353 2603 823 3093 
Q 1294 3584 2113 3584 
Q 2378 3584 2631 3529 
Q 2884 3475 3122 3366 
z
" transform="scale(0.015625)"/>
      <path id="DejaVuSans-70" d="M 1159 525 
L 1159 -1331 
L 581 -1331 
L 581 3500 
L 1159 3500 
L 1159 2969 
Q 1341 3281 1617 3432 
Q 1894 3584 2278 3584 
Q 2916 3584 3314 3078 
Q 3713 2572 3713 1747 
Q 3713 922 3314 415 
Q 2916 -91 2278 -91 
Q 1894 -91 1617 61 
Q 1341 213 1159 525 
z
M 3116 1747 
Q 3116 2381 2855 2742 
Q 2594 3103 2138 3103 
Q 1681 3103 1420 2742 
Q 1159 2381 1159 1747 
Q 1159 1113 1420 752 
Q 1681 391 2138 391 
Q 2594 391 2855 752 
Q 3116 1113 3116 1747 
z
" transform="scale(0.015625)"/>
     </defs>
     <use xlink:href="#DejaVuSans-63"/>
     <use xlink:href="#DejaVuSans-6f" x="54.980469"/>
     <use xlink:href="#DejaVuSans-6d" x="116.162109"/>
     <use xlink:href="#DejaVuSans-70" x="213.574219"/>
     <use xlink:href="#DejaVuSans-32" x="277.050781"/>
     <use xlink:href="#DejaVuSans-31" x="340.673828"/>
    </g>
   </g>
  </g>
 </g>
 <defs>
  <clipPath id="p34fd426887">
   <rect x="57.6" y="41.472" width="357.12" height="266.112"/>
  </clipPath>
 </defs>
</svg>
