<?xml version="1.0" encoding="utf-8" standalone="no"?>
<!DOCTYPE svg PUBLIC "-//W3C//DTD SVG 1.1//EN"
  "http://www.w3.org/Graphics/SVG/1.1/DTD/svg11.dtd">
<svg xmlns:xlink="http://www.w3.org/1999/xlink" width="460.8pt" height="345.6pt" viewBox="0 0 460.8 345.6" xmlns="http://www.w3.org/2000/svg" version="1.1">
 <metadata>
  <rdf:RDF xmlns:dc="http://purl.org/dc/elements/1.1/" xmlns:cc="http://creativecommons.org/ns#" xmlns:rdf="http://www.w3.org/1999/02/22-rdf-syntax-ns#">
   <cc:Work>
    <dc:type rdf:resource="http://purl.org/dc/dcmitype/StillImage"/>
    <dc:date>2023-12-03T18:15:54.108253</dc:date>
    <dc:format>image/svg+xml</dc:format>
    <dc:creator>
     <cc:Agent>
      <dc:title>Matplotlib v3.7.1, https://matplotlib.org/</dc:title>
     </cc:Agent>
    </dc:creator>
   </cc:Work>
  </rdf:RDF>
 </metadata>
 <defs>
  <style type="text/css">*{stroke-linejoin: round; stroke-linecap: butt}</style>
 </defs>
 <g id="figure_1">
  <g id="patch_1">
   <path d="M 0 345.6 
L 460.8 345.6 
L 460.8 0 
L 0 0 
z
" style="fill: #ffffff"/>
  </g>
  <g id="axes_1">
   <g id="patch_2">
    <path d="M 57.6 307.584 
L 414.72 307.584 
L 414.72 41.472 
L 57.6 41.472 
z
" style="fill: #ffffff"/>
   </g>
   <g id="matplotlib.axis_1">
    <g id="xtick_1">
     <g id="line2d_1">
      <defs>
       <path id="m3acdc6a35f" d="M 0 0 
L 0 3.5 
" style="stroke: #000000; stroke-width: 0.8"/>
      </defs>
      <g>
       <use xlink:href="#m3acdc6a35f" x="73.832727" y="307.584" style="stroke: #000000; stroke-width: 0.8"/>
      </g>
     </g>
     <g id="text_1">
      <!-- 0 -->
      <g transform="translate(70.651477 322.182437) scale(0.1 -0.1)">
       <defs>
        <path id="DejaVuSans-30" d="M 2034 4250 
Q 1547 4250 1301 3770 
Q 1056 3291 1056 2328 
Q 1056 1369 1301 889 
Q 1547 409 2034 409 
Q 2525 409 2770 889 
Q 3016 1369 3016 2328 
Q 3016 3291 2770 3770 
Q 2525 4250 2034 4250 
z
M 2034 4750 
Q 2819 4750 3233 4129 
Q 3647 3509 3647 2328 
Q 3647 1150 3233 529 
Q 2819 -91 2034 -91 
Q 1250 -91 836 529 
Q 422 1150 422 2328 
Q 422 3509 836 4129 
Q 1250 4750 2034 4750 
z
" transform="scale(0.015625)"/>
       </defs>
       <use xlink:href="#DejaVuSans-30"/>
      </g>
     </g>
    </g>
    <g id="xtick_2">
     <g id="line2d_2">
      <g>
       <use xlink:href="#m3acdc6a35f" x="131.900076" y="307.584" style="stroke: #000000; stroke-width: 0.8"/>
      </g>
     </g>
     <g id="text_2">
      <!-- 1000 -->
      <g transform="translate(119.175076 322.182437) scale(0.1 -0.1)">
       <defs>
        <path id="DejaVuSans-31" d="M 794 531 
L 1825 531 
L 1825 4091 
L 703 3866 
L 703 4441 
L 1819 4666 
L 2450 4666 
L 2450 531 
L 3481 531 
L 3481 0 
L 794 0 
L 794 531 
z
" transform="scale(0.015625)"/>
       </defs>
       <use xlink:href="#DejaVuSans-31"/>
       <use xlink:href="#DejaVuSans-30" x="63.623047"/>
       <use xlink:href="#DejaVuSans-30" x="127.246094"/>
       <use xlink:href="#DejaVuSans-30" x="190.869141"/>
      </g>
     </g>
    </g>
    <g id="xtick_3">
     <g id="line2d_3">
      <g>
       <use xlink:href="#m3acdc6a35f" x="189.967424" y="307.584" style="stroke: #000000; stroke-width: 0.8"/>
      </g>
     </g>
     <g id="text_3">
      <!-- 2000 -->
      <g transform="translate(177.242424 322.182437) scale(0.1 -0.1)">
       <defs>
        <path id="DejaVuSans-32" d="M 1228 531 
L 3431 531 
L 3431 0 
L 469 0 
L 469 531 
Q 828 903 1448 1529 
Q 2069 2156 2228 2338 
Q 2531 2678 2651 2914 
Q 2772 3150 2772 3378 
Q 2772 3750 2511 3984 
Q 2250 4219 1831 4219 
Q 1534 4219 1204 4116 
Q 875 4013 500 3803 
L 500 4441 
Q 881 4594 1212 4672 
Q 1544 4750 1819 4750 
Q 2544 4750 2975 4387 
Q 3406 4025 3406 3419 
Q 3406 3131 3298 2873 
Q 3191 2616 2906 2266 
Q 2828 2175 2409 1742 
Q 1991 1309 1228 531 
z
" transform="scale(0.015625)"/>
       </defs>
       <use xlink:href="#DejaVuSans-32"/>
       <use xlink:href="#DejaVuSans-30" x="63.623047"/>
       <use xlink:href="#DejaVuSans-30" x="127.246094"/>
       <use xlink:href="#DejaVuSans-30" x="190.869141"/>
      </g>
     </g>
    </g>
    <g id="xtick_4">
     <g id="line2d_4">
      <g>
       <use xlink:href="#m3acdc6a35f" x="248.034773" y="307.584" style="stroke: #000000; stroke-width: 0.8"/>
      </g>
     </g>
     <g id="text_4">
      <!-- 3000 -->
      <g transform="translate(235.309773 322.182437) scale(0.1 -0.1)">
       <defs>
        <path id="DejaVuSans-33" d="M 2597 2516 
Q 3050 2419 3304 2112 
Q 3559 1806 3559 1356 
Q 3559 666 3084 287 
Q 2609 -91 1734 -91 
Q 1441 -91 1130 -33 
Q 819 25 488 141 
L 488 750 
Q 750 597 1062 519 
Q 1375 441 1716 441 
Q 2309 441 2620 675 
Q 2931 909 2931 1356 
Q 2931 1769 2642 2001 
Q 2353 2234 1838 2234 
L 1294 2234 
L 1294 2753 
L 1863 2753 
Q 2328 2753 2575 2939 
Q 2822 3125 2822 3475 
Q 2822 3834 2567 4026 
Q 2313 4219 1838 4219 
Q 1578 4219 1281 4162 
Q 984 4106 628 3988 
L 628 4550 
Q 988 4650 1302 4700 
Q 1616 4750 1894 4750 
Q 2613 4750 3031 4423 
Q 3450 4097 3450 3541 
Q 3450 3153 3228 2886 
Q 3006 2619 2597 2516 
z
" transform="scale(0.015625)"/>
       </defs>
       <use xlink:href="#DejaVuSans-33"/>
       <use xlink:href="#DejaVuSans-30" x="63.623047"/>
       <use xlink:href="#DejaVuSans-30" x="127.246094"/>
       <use xlink:href="#DejaVuSans-30" x="190.869141"/>
      </g>
     </g>
    </g>
    <g id="xtick_5">
     <g id="line2d_5">
      <g>
       <use xlink:href="#m3acdc6a35f" x="306.102121" y="307.584" style="stroke: #000000; stroke-width: 0.8"/>
      </g>
     </g>
     <g id="text_5">
      <!-- 4000 -->
      <g transform="translate(293.377121 322.182437) scale(0.1 -0.1)">
       <defs>
        <path id="DejaVuSans-34" d="M 2419 4116 
L 825 1625 
L 2419 1625 
L 2419 4116 
z
M 2253 4666 
L 3047 4666 
L 3047 1625 
L 3713 1625 
L 3713 1100 
L 3047 1100 
L 3047 0 
L 2419 0 
L 2419 1100 
L 313 1100 
L 313 1709 
L 2253 4666 
z
" transform="scale(0.015625)"/>
       </defs>
       <use xlink:href="#DejaVuSans-34"/>
       <use xlink:href="#DejaVuSans-30" x="63.623047"/>
       <use xlink:href="#DejaVuSans-30" x="127.246094"/>
       <use xlink:href="#DejaVuSans-30" x="190.869141"/>
      </g>
     </g>
    </g>
    <g id="xtick_6">
     <g id="line2d_6">
      <g>
       <use xlink:href="#m3acdc6a35f" x="364.16947" y="307.584" style="stroke: #000000; stroke-width: 0.8"/>
      </g>
     </g>
     <g id="text_6">
      <!-- 5000 -->
      <g transform="translate(351.44447 322.182437) scale(0.1 -0.1)">
       <defs>
        <path id="DejaVuSans-35" d="M 691 4666 
L 3169 4666 
L 3169 4134 
L 1269 4134 
L 1269 2991 
Q 1406 3038 1543 3061 
Q 1681 3084 1819 3084 
Q 2600 3084 3056 2656 
Q 3513 2228 3513 1497 
Q 3513 744 3044 326 
Q 2575 -91 1722 -91 
Q 1428 -91 1123 -41 
Q 819 9 494 109 
L 494 744 
Q 775 591 1075 516 
Q 1375 441 1709 441 
Q 2250 441 2565 725 
Q 2881 1009 2881 1497 
Q 2881 1984 2565 2268 
Q 2250 2553 1709 2553 
Q 1456 2553 1204 2497 
Q 953 2441 691 2322 
L 691 4666 
z
" transform="scale(0.015625)"/>
       </defs>
       <use xlink:href="#DejaVuSans-35"/>
       <use xlink:href="#DejaVuSans-30" x="63.623047"/>
       <use xlink:href="#DejaVuSans-30" x="127.246094"/>
       <use xlink:href="#DejaVuSans-30" x="190.869141"/>
      </g>
     </g>
    </g>
    <g id="text_7">
     <!-- iteration -->
     <g transform="translate(215.037344 335.860562) scale(0.1 -0.1)">
      <defs>
       <path id="DejaVuSans-69" d="M 603 3500 
L 1178 3500 
L 1178 0 
L 603 0 
L 603 3500 
z
M 603 4863 
L 1178 4863 
L 1178 4134 
L 603 4134 
L 603 4863 
z
" transform="scale(0.015625)"/>
       <path id="DejaVuSans-74" d="M 1172 4494 
L 1172 3500 
L 2356 3500 
L 2356 3053 
L 1172 3053 
L 1172 1153 
Q 1172 725 1289 603 
Q 1406 481 1766 481 
L 2356 481 
L 2356 0 
L 1766 0 
Q 1100 0 847 248 
Q 594 497 594 1153 
L 594 3053 
L 172 3053 
L 172 3500 
L 594 3500 
L 594 4494 
L 1172 4494 
z
" transform="scale(0.015625)"/>
       <path id="DejaVuSans-65" d="M 3597 1894 
L 3597 1613 
L 953 1613 
Q 991 1019 1311 708 
Q 1631 397 2203 397 
Q 2534 397 2845 478 
Q 3156 559 3463 722 
L 3463 178 
Q 3153 47 2828 -22 
Q 2503 -91 2169 -91 
Q 1331 -91 842 396 
Q 353 884 353 1716 
Q 353 2575 817 3079 
Q 1281 3584 2069 3584 
Q 2775 3584 3186 3129 
Q 3597 2675 3597 1894 
z
M 3022 2063 
Q 3016 2534 2758 2815 
Q 2500 3097 2075 3097 
Q 1594 3097 1305 2825 
Q 1016 2553 972 2059 
L 3022 2063 
z
" transform="scale(0.015625)"/>
       <path id="DejaVuSans-72" d="M 2631 2963 
Q 2534 3019 2420 3045 
Q 2306 3072 2169 3072 
Q 1681 3072 1420 2755 
Q 1159 2438 1159 1844 
L 1159 0 
L 581 0 
L 581 3500 
L 1159 3500 
L 1159 2956 
Q 1341 3275 1631 3429 
Q 1922 3584 2338 3584 
Q 2397 3584 2469 3576 
Q 2541 3569 2628 3553 
L 2631 2963 
z
" transform="scale(0.015625)"/>
       <path id="DejaVuSans-61" d="M 2194 1759 
Q 1497 1759 1228 1600 
Q 959 1441 959 1056 
Q 959 750 1161 570 
Q 1363 391 1709 391 
Q 2188 391 2477 730 
Q 2766 1069 2766 1631 
L 2766 1759 
L 2194 1759 
z
M 3341 1997 
L 3341 0 
L 2766 0 
L 2766 531 
Q 2569 213 2275 61 
Q 1981 -91 1556 -91 
Q 1019 -91 701 211 
Q 384 513 384 1019 
Q 384 1609 779 1909 
Q 1175 2209 1959 2209 
L 2766 2209 
L 2766 2266 
Q 2766 2663 2505 2880 
Q 2244 3097 1772 3097 
Q 1472 3097 1187 3025 
Q 903 2953 641 2809 
L 641 3341 
Q 956 3463 1253 3523 
Q 1550 3584 1831 3584 
Q 2591 3584 2966 3190 
Q 3341 2797 3341 1997 
z
" transform="scale(0.015625)"/>
       <path id="DejaVuSans-6f" d="M 1959 3097 
Q 1497 3097 1228 2736 
Q 959 2375 959 1747 
Q 959 1119 1226 758 
Q 1494 397 1959 397 
Q 2419 397 2687 759 
Q 2956 1122 2956 1747 
Q 2956 2369 2687 2733 
Q 2419 3097 1959 3097 
z
M 1959 3584 
Q 2709 3584 3137 3096 
Q 3566 2609 3566 1747 
Q 3566 888 3137 398 
Q 2709 -91 1959 -91 
Q 1206 -91 779 398 
Q 353 888 353 1747 
Q 353 2609 779 3096 
Q 1206 3584 1959 3584 
z
" transform="scale(0.015625)"/>
       <path id="DejaVuSans-6e" d="M 3513 2113 
L 3513 0 
L 2938 0 
L 2938 2094 
Q 2938 2591 2744 2837 
Q 2550 3084 2163 3084 
Q 1697 3084 1428 2787 
Q 1159 2491 1159 1978 
L 1159 0 
L 581 0 
L 581 3500 
L 1159 3500 
L 1159 2956 
Q 1366 3272 1645 3428 
Q 1925 3584 2291 3584 
Q 2894 3584 3203 3211 
Q 3513 2838 3513 2113 
z
" transform="scale(0.015625)"/>
      </defs>
      <use xlink:href="#DejaVuSans-69"/>
      <use xlink:href="#DejaVuSans-74" x="27.783203"/>
      <use xlink:href="#DejaVuSans-65" x="66.992188"/>
      <use xlink:href="#DejaVuSans-72" x="128.515625"/>
      <use xlink:href="#DejaVuSans-61" x="169.628906"/>
      <use xlink:href="#DejaVuSans-74" x="230.908203"/>
      <use xlink:href="#DejaVuSans-69" x="270.117188"/>
      <use xlink:href="#DejaVuSans-6f" x="297.900391"/>
      <use xlink:href="#DejaVuSans-6e" x="359.082031"/>
     </g>
    </g>
   </g>
   <g id="matplotlib.axis_2">
    <g id="ytick_1">
     <g id="line2d_7">
      <defs>
       <path id="me98d56a294" d="M 0 0 
L -3.5 0 
" style="stroke: #000000; stroke-width: 0.8"/>
      </defs>
      <g>
       <use xlink:href="#me98d56a294" x="57.6" y="258.780781" style="stroke: #000000; stroke-width: 0.8"/>
      </g>
     </g>
     <g id="text_8">
      <!-- 1000 -->
      <g transform="translate(25.15 262.58) scale(0.1 -0.1)">
       <use xlink:href="#DejaVuSans-31"/>
       <use xlink:href="#DejaVuSans-30" x="63.623047"/>
       <use xlink:href="#DejaVuSans-30" x="127.246094"/>
       <use xlink:href="#DejaVuSans-30" x="190.869141"/>
      </g>
     </g>
    </g>
    <g id="ytick_2">
     <g id="line2d_8">
      <g>
       <use xlink:href="#me98d56a294" x="57.6" y="207.656521" style="stroke: #000000; stroke-width: 0.8"/>
      </g>
     </g>
     <g id="text_9">
      <!-- 2000 -->
      <g transform="translate(25.15 211.455739) scale(0.1 -0.1)">
       <use xlink:href="#DejaVuSans-32"/>
       <use xlink:href="#DejaVuSans-30" x="63.623047"/>
       <use xlink:href="#DejaVuSans-30" x="127.246094"/>
       <use xlink:href="#DejaVuSans-30" x="190.869141"/>
      </g>
     </g>
    </g>
    <g id="ytick_3">
     <g id="line2d_9">
      <g>
       <use xlink:href="#me98d56a294" x="57.6" y="156.53226" style="stroke: #000000; stroke-width: 0.8"/>
      </g>
     </g>
     <g id="text_10">
      <!-- 3000 -->
      <g transform="translate(25.15 160.331479) scale(0.1 -0.1)">
       <use xlink:href="#DejaVuSans-33"/>
       <use xlink:href="#DejaVuSans-30" x="63.623047"/>
       <use xlink:href="#DejaVuSans-30" x="127.246094"/>
       <use xlink:href="#DejaVuSans-30" x="190.869141"/>
      </g>
     </g>
    </g>
    <g id="ytick_4">
     <g id="line2d_10">
      <g>
       <use xlink:href="#me98d56a294" x="57.6" y="105.408" style="stroke: #000000; stroke-width: 0.8"/>
      </g>
     </g>
     <g id="text_11">
      <!-- 4000 -->
      <g transform="translate(25.15 109.207219) scale(0.1 -0.1)">
       <use xlink:href="#DejaVuSans-34"/>
       <use xlink:href="#DejaVuSans-30" x="63.623047"/>
       <use xlink:href="#DejaVuSans-30" x="127.246094"/>
       <use xlink:href="#DejaVuSans-30" x="190.869141"/>
      </g>
     </g>
    </g>
    <g id="ytick_5">
     <g id="line2d_11">
      <g>
       <use xlink:href="#me98d56a294" x="57.6" y="54.28374" style="stroke: #000000; stroke-width: 0.8"/>
      </g>
     </g>
     <g id="text_12">
      <!-- 5000 -->
      <g transform="translate(25.15 58.082958) scale(0.1 -0.1)">
       <use xlink:href="#DejaVuSans-35"/>
       <use xlink:href="#DejaVuSans-30" x="63.623047"/>
       <use xlink:href="#DejaVuSans-30" x="127.246094"/>
       <use xlink:href="#DejaVuSans-30" x="190.869141"/>
      </g>
     </g>
    </g>
    <g id="text_13">
     <!-- best fitness of swarm -->
     <g transform="translate(19.070312 228.0905) rotate(-90) scale(0.1 -0.1)">
      <defs>
       <path id="DejaVuSans-62" d="M 3116 1747 
Q 3116 2381 2855 2742 
Q 2594 3103 2138 3103 
Q 1681 3103 1420 2742 
Q 1159 2381 1159 1747 
Q 1159 1113 1420 752 
Q 1681 391 2138 391 
Q 2594 391 2855 752 
Q 3116 1113 3116 1747 
z
M 1159 2969 
Q 1341 3281 1617 3432 
Q 1894 3584 2278 3584 
Q 2916 3584 3314 3078 
Q 3713 2572 3713 1747 
Q 3713 922 3314 415 
Q 2916 -91 2278 -91 
Q 1894 -91 1617 61 
Q 1341 213 1159 525 
L 1159 0 
L 581 0 
L 581 4863 
L 1159 4863 
L 1159 2969 
z
" transform="scale(0.015625)"/>
       <path id="DejaVuSans-73" d="M 2834 3397 
L 2834 2853 
Q 2591 2978 2328 3040 
Q 2066 3103 1784 3103 
Q 1356 3103 1142 2972 
Q 928 2841 928 2578 
Q 928 2378 1081 2264 
Q 1234 2150 1697 2047 
L 1894 2003 
Q 2506 1872 2764 1633 
Q 3022 1394 3022 966 
Q 3022 478 2636 193 
Q 2250 -91 1575 -91 
Q 1294 -91 989 -36 
Q 684 19 347 128 
L 347 722 
Q 666 556 975 473 
Q 1284 391 1588 391 
Q 1994 391 2212 530 
Q 2431 669 2431 922 
Q 2431 1156 2273 1281 
Q 2116 1406 1581 1522 
L 1381 1569 
Q 847 1681 609 1914 
Q 372 2147 372 2553 
Q 372 3047 722 3315 
Q 1072 3584 1716 3584 
Q 2034 3584 2315 3537 
Q 2597 3491 2834 3397 
z
" transform="scale(0.015625)"/>
       <path id="DejaVuSans-20" transform="scale(0.015625)"/>
       <path id="DejaVuSans-66" d="M 2375 4863 
L 2375 4384 
L 1825 4384 
Q 1516 4384 1395 4259 
Q 1275 4134 1275 3809 
L 1275 3500 
L 2222 3500 
L 2222 3053 
L 1275 3053 
L 1275 0 
L 697 0 
L 697 3053 
L 147 3053 
L 147 3500 
L 697 3500 
L 697 3744 
Q 697 4328 969 4595 
Q 1241 4863 1831 4863 
L 2375 4863 
z
" transform="scale(0.015625)"/>
       <path id="DejaVuSans-77" d="M 269 3500 
L 844 3500 
L 1563 769 
L 2278 3500 
L 2956 3500 
L 3675 769 
L 4391 3500 
L 4966 3500 
L 4050 0 
L 3372 0 
L 2619 2869 
L 1863 0 
L 1184 0 
L 269 3500 
z
" transform="scale(0.015625)"/>
       <path id="DejaVuSans-6d" d="M 3328 2828 
Q 3544 3216 3844 3400 
Q 4144 3584 4550 3584 
Q 5097 3584 5394 3201 
Q 5691 2819 5691 2113 
L 5691 0 
L 5113 0 
L 5113 2094 
Q 5113 2597 4934 2840 
Q 4756 3084 4391 3084 
Q 3944 3084 3684 2787 
Q 3425 2491 3425 1978 
L 3425 0 
L 2847 0 
L 2847 2094 
Q 2847 2600 2669 2842 
Q 2491 3084 2119 3084 
Q 1678 3084 1418 2786 
Q 1159 2488 1159 1978 
L 1159 0 
L 581 0 
L 581 3500 
L 1159 3500 
L 1159 2956 
Q 1356 3278 1631 3431 
Q 1906 3584 2284 3584 
Q 2666 3584 2933 3390 
Q 3200 3197 3328 2828 
z
" transform="scale(0.015625)"/>
      </defs>
      <use xlink:href="#DejaVuSans-62"/>
      <use xlink:href="#DejaVuSans-65" x="63.476562"/>
      <use xlink:href="#DejaVuSans-73" x="125"/>
      <use xlink:href="#DejaVuSans-74" x="177.099609"/>
      <use xlink:href="#DejaVuSans-20" x="216.308594"/>
      <use xlink:href="#DejaVuSans-66" x="248.095703"/>
      <use xlink:href="#DejaVuSans-69" x="283.300781"/>
      <use xlink:href="#DejaVuSans-74" x="311.083984"/>
      <use xlink:href="#DejaVuSans-6e" x="350.292969"/>
      <use xlink:href="#DejaVuSans-65" x="413.671875"/>
      <use xlink:href="#DejaVuSans-73" x="475.195312"/>
      <use xlink:href="#DejaVuSans-73" x="527.294922"/>
      <use xlink:href="#DejaVuSans-20" x="579.394531"/>
      <use xlink:href="#DejaVuSans-6f" x="611.181641"/>
      <use xlink:href="#DejaVuSans-66" x="672.363281"/>
      <use xlink:href="#DejaVuSans-20" x="707.568359"/>
      <use xlink:href="#DejaVuSans-73" x="739.355469"/>
      <use xlink:href="#DejaVuSans-77" x="791.455078"/>
      <use xlink:href="#DejaVuSans-61" x="873.242188"/>
      <use xlink:href="#DejaVuSans-72" x="934.521484"/>
      <use xlink:href="#DejaVuSans-6d" x="973.884766"/>
     </g>
    </g>
   </g>
   <g id="line2d_12">
    <path d="M 73.832727 295.488 
L 73.890795 295.488 
L 74.064997 293.034036 
L 74.181131 292.982911 
L 74.355333 293.034036 
L 74.471468 292.931787 
L 74.64567 292.72729 
L 74.819872 288.688473 
L 74.87794 288.688473 
L 75.052142 283.780544 
L 75.168276 281.68445 
L 75.226344 281.68445 
L 75.342478 278.668118 
L 75.400546 279.128237 
L 75.51668 275.242793 
L 75.574748 275.242793 
L 75.690882 274.680426 
L 75.74895 274.73155 
L 75.807017 275.038296 
L 75.865084 274.884923 
L 76.097354 267.318533 
L 76.213489 267.267408 
L 76.445758 257.758296 
L 76.61996 256.531314 
L 76.678027 256.582438 
L 76.736095 257.042556 
L 76.968364 251.776757 
L 77.142566 251.776757 
L 77.200633 249.373917 
L 77.258701 251.57226 
L 77.316768 251.521136 
L 77.665172 250.294154 
L 77.781307 250.447527 
L 77.955509 250.294154 
L 78.013576 250.294154 
L 78.129711 248.351432 
L 78.187778 248.351432 
L 78.303913 249.322793 
L 78.420048 248.913799 
L 78.59425 249.425041 
L 78.710385 245.488473 
L 78.768452 245.335101 
L 78.942654 237.104095 
L 79.000721 237.05297 
L 79.174923 232.400663 
L 79.291058 232.400663 
L 79.349125 232.196166 
L 79.407193 233.218651 
L 79.46526 215.734154 
L 79.523327 215.785278 
L 79.581395 216.603266 
L 79.639462 216.449893 
L 79.697529 216.398769 
L 79.813664 216.552142 
L 79.871732 213.433562 
L 80.045934 221.408947 
L 80.104001 219.006107 
L 80.220136 221.20445 
L 80.394338 221.051077 
L 80.452405 221.408947 
L 80.510472 221.357822 
L 80.56854 221.357822 
L 80.684674 220.999953 
L 80.742742 221.306698 
L 80.800809 224.783148 
L 80.916944 219.415101 
L 81.091146 219.261728 
L 81.207281 216.347645 
L 81.265348 216.347645 
L 81.43955 215.785278 
L 81.497617 216.858888 
L 81.613752 220.795456 
L 81.787954 210.110485 
L 81.846021 210.110485 
L 81.962156 214.200426 
L 82.136358 213.842556 
L 82.194425 205.509302 
L 82.252493 205.61155 
L 82.426695 205.560426 
L 82.54283 205.560426 
L 82.658964 204.026698 
L 82.717032 204.589065 
L 82.775099 204.231195 
L 83.123503 204.128947 
L 83.239638 204.486817 
L 83.529974 204.486817 
L 83.646109 204.28232 
L 83.878379 204.589065 
L 84.052581 201.674982 
L 84.110648 201.674982 
L 84.168715 201.828355 
L 84.28485 201.521609 
L 84.342917 198.147408 
L 84.459052 203.259834 
L 84.633254 203.771077 
L 84.691321 203.771077 
L 84.749389 213.331314 
L 84.807456 213.177941 
L 84.981658 213.126817 
L 85.039726 214.762793 
L 85.097793 214.353799 
L 85.213928 214.353799 
L 85.330062 214.507172 
L 85.446197 214.404923 
L 85.562332 214.456047 
L 85.678466 213.944805 
L 85.968803 186.797822 
L 86.084938 186.797822 
L 86.25914 186.030959 
L 86.375275 180.04942 
L 86.433342 180.04942 
L 86.491409 173.556639 
L 86.549477 173.863385 
L 86.781746 178.771314 
L 86.897881 174.988118 
L 87.072083 174.936994 
L 87.13015 174.936994 
L 87.246285 174.119006 
L 87.304352 172.892024 
L 87.362419 173.249893 
L 87.420487 173.198769 
L 87.594689 172.585278 
L 87.652756 172.585278 
L 87.710824 172.380781 
L 87.768891 172.48303 
L 87.885026 168.495337 
L 87.943093 169.00658 
L 88.00116 168.904331 
L 88.349564 169.00658 
L 88.465699 164.047527 
L 88.523766 163.945278 
L 88.581834 163.996402 
L 88.697968 163.996402 
L 88.814103 177.186462 
L 88.988305 177.237586 
L 89.10444 164.303148 
L 89.278642 164.354272 
L 89.336709 164.354272 
L 89.452844 164.098651 
L 89.627046 164.303148 
L 89.685113 157.861491 
L 89.743181 158.168237 
L 89.859315 158.372734 
L 89.97545 158.117112 
L 90.033518 158.117112 
L 90.091585 158.372734 
L 90.20772 158.014864 
L 90.323854 158.065988 
L 90.498056 157.656994 
L 90.614191 159.446343 
L 90.84646 154.896284 
L 90.962595 154.896284 
L 91.020662 152.800189 
L 91.07873 153.106935 
L 91.136797 152.902438 
L 91.252932 156.021018 
L 91.369067 155.969893 
L 91.427134 152.186698 
L 91.485201 152.44232 
L 91.543269 152.08445 
L 91.659403 156.276639 
L 92.065875 156.174391 
L 92.182009 155.918769 
L 92.298144 156.021018 
L 92.472346 146.511905 
L 92.530413 146.869775 
L 92.588481 146.869775 
L 92.762683 150.908592 
L 92.82075 143.342201 
L 92.878818 144.160189 
L 92.936885 145.898414 
L 92.994952 145.540544 
L 93.05302 145.898414 
L 93.227222 155.867645 
L 93.285289 155.867645 
L 93.575626 144.364686 
L 93.633693 144.569183 
L 93.69176 144.620308 
L 93.749828 144.211314 
L 93.865963 140.019124 
L 93.982097 149.783858 
L 94.040165 147.790012 
L 94.098232 149.32374 
L 94.446636 149.425988 
L 94.504703 150.039479 
L 94.678905 137.105041 
L 94.79504 136.900544 
L 94.969242 132.606107 
L 95.027309 129.692024 
L 95.085377 130.663385 
L 95.143444 130.663385 
L 95.201512 128.874036 
L 95.317646 135.724686 
L 95.549916 135.622438 
L 95.607983 135.417941 
L 95.66605 134.651077 
L 95.724118 135.622438 
L 95.782185 133.935337 
L 95.840252 133.986462 
L 95.89832 134.037586 
L 95.956387 134.242083 
L 96.072522 138.229775 
L 96.130589 138.229775 
L 96.246724 144.722556 
L 96.362858 144.518059 
L 96.420926 144.518059 
L 96.478993 144.927053 
L 96.595128 146.665278 
L 96.653195 146.665278 
L 96.711263 146.102911 
L 96.76933 146.20516 
L 96.885465 146.20516 
L 97.117734 145.745041 
L 97.233869 153.924923 
L 97.350003 147.994509 
L 97.466138 148.199006 
L 97.524205 148.199006 
L 97.698408 147.125396 
L 97.814542 147.125396 
L 97.930677 143.035456 
L 98.046812 143.035456 
L 98.162946 138.996639 
L 98.279081 138.843266 
L 98.337148 139.201136 
L 98.395216 139.150012 
L 98.51135 139.150012 
L 98.74362 134.497704 
L 98.801687 134.855574 
L 98.917822 137.20729 
L 99.033957 137.002793 
L 99.208159 114.048 
L 99.266226 120.438533 
L 99.324293 120.182911 
L 99.440428 119.92729 
L 99.61463 119.92729 
L 99.730765 123.301491 
L 99.788832 123.301491 
L 99.846899 126.726817 
L 99.904967 126.471195 
L 100.021101 121.563266 
L 100.195303 124.323976 
L 100.253371 124.323976 
L 100.311438 123.863858 
L 100.369506 122.176757 
L 100.427573 125.09084 
L 100.48564 122.125633 
L 100.543708 128.822911 
L 100.601775 128.516166 
L 100.71791 128.618414 
L 100.950179 128.004923 
L 101.066314 131.072379 
L 101.124381 130.97013 
L 101.182448 134.293207 
L 101.240516 134.08871 
L 101.298583 131.68587 
L 101.35665 132.094864 
L 101.530853 136.696047 
L 101.646987 136.798296 
L 101.705055 136.644923 
L 101.763122 136.696047 
L 101.879257 135.980308 
L 101.937324 135.980308 
L 101.995391 135.673562 
L 102.111526 132.094864 
L 102.343795 132.759479 
L 102.401863 132.861728 
L 102.45993 133.270722 
L 102.576065 129.896521 
L 102.808334 129.896521 
L 102.866402 130.305515 
L 102.924469 132.094864 
L 102.982536 132.04374 
L 103.040604 131.839243 
L 103.214806 121.307645 
L 103.389008 120.234036 
L 103.447075 120.234036 
L 103.56321 119.92729 
L 103.679344 123.148118 
L 103.737412 122.739124 
L 103.853546 126.880189 
L 103.911614 126.880189 
L 103.969681 127.902675 
L 104.027748 127.85155 
L 104.260018 127.85155 
L 104.376153 127.340308 
L 104.666489 127.442556 
L 104.782624 125.653207 
L 104.840691 125.653207 
L 105.014893 137.871905 
L 105.072961 137.871905 
L 105.131028 138.076402 
L 105.30523 135.366817 
L 105.421365 137.462911 
L 105.479432 135.724686 
L 105.595567 137.871905 
L 105.769769 137.92303 
L 105.827836 128.92516 
L 105.885904 129.334154 
L 105.943971 129.28303 
L 106.060106 120.847527 
L 106.40851 129.385278 
L 106.524644 129.947645 
L 106.582712 135.980308 
L 106.640779 135.878059 
L 106.698847 135.878059 
L 106.931116 127.647053 
L 107.047251 126.113325 
L 107.105318 126.011077 
L 107.27952 122.227882 
L 107.337587 121.103148 
L 107.395655 121.870012 
L 107.453722 127.238059 
L 107.511789 127.186935 
L 107.744059 126.624568 
L 107.860193 119.109302 
L 107.976328 125.346462 
L 108.034396 125.346462 
L 108.092463 124.835219 
L 108.15053 125.141964 
L 108.3828 115.939598 
L 108.557002 115.939598 
L 108.615069 124.375101 
L 108.673136 122.074509 
L 108.731204 122.023385 
L 108.789271 121.512142 
L 108.905406 119.467172 
L 108.963473 119.467172 
L 109.02154 121.818888 
L 109.079608 121.205396 
L 109.25381 121.256521 
L 109.428012 121.665515 
L 109.544147 120.234036 
L 109.602214 120.234036 
L 109.718349 126.471195 
L 109.776416 126.471195 
L 109.950618 128.976284 
L 110.008685 128.822911 
L 110.066753 134.80445 
L 110.12482 134.702201 
L 110.182887 134.957822 
L 110.299022 135.878059 
L 110.357089 135.878059 
L 110.531292 138.485396 
L 110.647426 138.587645 
L 110.763561 127.340308 
L 110.821628 130.816757 
L 110.879696 130.663385 
L 110.937763 130.561136 
L 111.111965 141.246107 
L 111.170032 141.450604 
L 111.286167 143.495574 
L 111.402302 139.456757 
L 111.460369 139.456757 
L 111.518436 141.655101 
L 111.634571 138.178651 
L 111.750706 139.763503 
L 111.808773 139.712379 
L 111.866841 139.712379 
L 111.924908 141.859598 
L 111.982975 141.757349 
L 112.041043 141.757349 
L 112.215245 139.405633 
L 112.273312 139.405633 
L 112.331379 139.25226 
L 112.447514 140.32587 
L 112.563649 140.223621 
L 112.737851 145.642793 
L 112.853985 141.092734 
L 112.97012 141.092734 
L 113.086255 143.44445 
L 113.20239 143.495574 
L 113.260457 142.830959 
L 113.318524 143.393325 
L 113.492726 145.84729 
L 113.608861 146.154036 
L 113.783063 144.978178 
L 113.899198 145.693917 
L 113.957265 145.642793 
L 114.0734 146.409657 
L 114.189534 146.460781 
L 114.363737 146.358533 
L 114.537939 146.358533 
L 114.654073 145.642793 
L 114.712141 138.025278 
L 114.770208 144.109065 
L 114.828275 154.691787 
L 114.886343 153.209183 
L 115.176679 135.775811 
L 115.234747 135.775811 
L 115.350881 135.571314 
L 115.408949 135.622438 
L 115.525083 132.861728 
L 115.583151 132.861728 
L 115.699286 126.726817 
L 115.81542 126.931314 
L 115.873488 126.829065 
L 115.989622 127.084686 
L 116.04769 123.863858 
L 116.163824 129.231905 
L 116.221892 129.231905 
L 116.279959 128.20942 
L 116.338026 128.260544 
L 116.454161 129.794272 
L 116.512228 129.794272 
L 116.628363 129.640899 
L 116.744498 123.761609 
L 116.802565 123.966107 
L 116.976767 127.49368 
L 117.034835 127.135811 
L 117.092902 127.544805 
L 117.150969 124.426225 
L 117.209037 124.528473 
L 117.325171 129.129657 
L 117.615508 129.231905 
L 117.78971 124.170604 
L 117.905845 124.170604 
L 117.963912 124.017231 
L 118.080047 121.716639 
L 118.138114 121.716639 
L 118.196182 121.461018 
L 118.312316 124.119479 
L 118.486518 104.641136 
L 118.66072 104.641136 
L 118.718788 98.148355 
L 118.776855 98.81297 
L 118.89299 98.864095 
L 118.951057 98.301728 
L 119.009124 98.659598 
L 119.125259 98.915219 
L 119.183326 102.136047 
L 119.299461 95.592142 
L 119.357528 96.05226 
L 119.473663 95.592142 
L 119.589798 95.592142 
L 119.764 99.375337 
L 120.112404 99.375337 
L 120.228539 101.420308 
L 120.460808 101.113562 
L 120.518875 101.266935 
L 120.576943 101.266935 
L 120.751145 98.761846 
L 120.86728 98.710722 
L 121.041482 99.324213 
L 121.099549 92.93368 
L 121.157616 93.035929 
L 121.273751 96.103385 
L 121.447953 93.342675 
L 121.680222 93.29155 
L 121.796357 105.919243 
L 121.854424 114.150249 
L 121.912492 112.00303 
L 122.028627 112.00303 
L 122.144761 109.753562 
L 122.318963 109.804686 
L 122.377031 105.919243 
L 122.435098 105.970367 
L 122.493165 105.76587 
L 122.551233 105.919243 
L 122.667367 106.021491 
L 122.783502 105.612497 
L 122.841569 103.567527 
L 122.899637 103.772024 
L 123.015771 103.669775 
L 123.131906 106.788355 
L 123.189973 106.788355 
L 123.248041 107.095101 
L 123.306108 101.522556 
L 123.364176 102.136047 
L 123.422243 102.442793 
L 123.596445 95.234272 
L 123.71258 95.387645 
L 124.002916 94.72303 
L 124.119051 94.72303 
L 124.177118 92.831432 
L 124.293253 100.295574 
L 124.409388 100.193325 
L 124.58359 99.579834 
L 124.641657 99.579834 
L 124.757792 101.829302 
L 124.873927 101.880426 
L 124.931994 102.238296 
L 124.990061 102.033799 
L 125.280398 101.93155 
L 125.396533 101.727053 
L 125.4546 101.727053 
L 125.628802 102.340544 
L 125.744937 102.084923 
L 125.861072 102.084923 
L 125.919139 101.062438 
L 125.977206 102.749538 
L 126.035274 102.391669 
L 126.093341 102.391669 
L 126.267543 99.375337 
L 126.383678 99.52871 
L 126.441745 96.05226 
L 126.499812 96.461254 
L 126.55788 96.768 
L 126.732082 91.297704 
L 126.790149 88.434746 
L 126.848216 88.48587 
L 126.906284 88.48587 
L 126.964351 90.17297 
L 127.022418 95.694391 
L 127.080486 95.541018 
L 127.196621 95.541018 
L 127.312755 96.001136 
L 127.42889 96.001136 
L 127.661159 96.461254 
L 127.777294 95.796639 
L 128.125698 109.651314 
L 128.241833 109.293444 
L 128.2999 109.293444 
L 128.416035 107.248473 
L 128.53217 107.197349 
L 128.648304 102.800663 
L 128.706372 104.845633 
L 128.764439 104.69226 
L 128.880574 104.69226 
L 128.996708 106.021491 
L 129.112843 106.12374 
L 129.17091 106.174864 
L 129.287045 103.056284 
L 129.40318 102.954036 
L 129.461247 103.516402 
L 129.519314 103.209657 
L 129.635449 103.209657 
L 129.693517 99.17084 
L 129.809651 112.463148 
L 129.925786 110.264805 
L 129.983853 110.264805 
L 130.099988 110.673799 
L 130.27419 102.136047 
L 130.332257 102.187172 
L 130.506459 108.52658 
L 130.622594 108.731077 
L 130.680661 104.999006 
L 130.738729 106.890604 
L 130.854863 106.12374 
L 130.912931 106.430485 
L 131.087133 105.714746 
L 131.319402 106.072615 
L 131.435537 108.322083 
L 131.493604 108.322083 
L 131.551672 108.628828 
L 131.725874 107.861964 
L 131.958143 107.504095 
L 132.01621 107.504095 
L 132.074278 106.532734 
L 132.132345 106.788355 
L 132.190413 106.634982 
L 132.24848 100.857941 
L 132.306547 101.675929 
L 132.422682 104.436639 
L 132.713019 104.436639 
L 132.771086 104.896757 
L 132.945288 104.078769 
L 133.003355 104.027645 
L 133.235625 104.538888 
L 133.293692 105.152379 
L 133.351759 104.794509 
L 133.409827 108.117586 
L 133.467894 108.015337 
L 133.525962 108.015337 
L 133.642096 106.430485 
L 133.758231 106.328237 
L 133.874366 106.481609 
L 133.932433 106.379361 
L 134.048568 99.630959 
L 134.106635 100.704568 
L 134.22277 95.438769 
L 134.280837 95.438769 
L 134.513106 91.297704 
L 134.571174 91.348828 
L 134.687308 85.520663 
L 134.861511 85.827408 
L 134.977645 85.827408 
L 135.09378 86.492024 
L 135.267982 97.12587 
L 135.384117 91.502201 
L 135.442184 91.502201 
L 135.558319 104.538888 
L 135.616386 104.538888 
L 135.674453 104.69226 
L 135.790588 101.778178 
L 135.848655 101.778178 
L 135.96479 99.733207 
L 136.19706 103.516402 
L 136.429329 104.385515 
L 136.603531 99.784331 
L 136.719666 100.24445 
L 136.777733 99.88658 
L 136.951935 100.397822 
L 137.126137 100.397822 
L 137.242272 103.874272 
L 137.416474 103.874272 
L 137.474541 102.698414 
L 137.590676 98.81297 
L 137.764878 98.81297 
L 137.881013 96.665751 
L 137.93908 96.665751 
L 138.055215 97.074746 
L 138.113282 97.023621 
L 138.229417 96.768 
L 138.287484 96.870249 
L 138.461686 96.359006 
L 138.577821 96.41013 
L 138.693956 96.307882 
L 138.752023 104.283266 
L 138.81009 104.078769 
L 138.926225 100.857941 
L 138.984292 100.857941 
L 139.04236 101.522556 
L 139.100427 101.471432 
L 139.274629 101.522556 
L 139.332696 108.015337 
L 139.390764 102.442793 
L 139.448831 101.778178 
L 139.623033 104.590012 
L 139.739168 104.129893 
L 139.797235 112.769893 
L 139.91337 102.442793 
L 139.971437 103.056284 
L 140.029505 106.225988 
L 140.087572 96.665751 
L 140.145639 100.142201 
L 140.203707 100.142201 
L 140.319841 99.733207 
L 140.435976 105.356876 
L 140.494043 105.356876 
L 140.610178 113.33226 
L 140.668245 112.872142 
L 140.842447 116.910959 
L 140.900515 118.955929 
L 140.958582 118.802556 
L 141.016649 118.802556 
L 141.074717 119.262675 
L 141.132784 119.109302 
L 141.190852 119.160426 
L 141.365054 111.185041 
L 141.423121 111.133917 
L 141.481188 112.718769 
L 141.539256 112.463148 
L 141.713458 112.565396 
L 141.771525 112.463148 
L 141.88766 112.105278 
L 141.945727 116.144095 
L 142.003794 115.683976 
L 142.061862 115.070485 
L 142.119929 115.223858 
L 142.526401 115.223858 
L 142.642535 109.906935 
L 142.700603 109.906935 
L 142.75867 112.923266 
L 142.816737 112.872142 
L 142.990939 112.923266 
L 143.107074 103.516402 
L 143.281276 103.516402 
L 143.397411 103.772024 
L 143.513545 100.295574 
L 143.571613 100.295574 
L 143.62968 92.217941 
L 143.687748 92.729183 
L 143.745815 92.780308 
L 143.803882 93.035929 
L 143.86195 90.735337 
L 143.920017 91.144331 
L 144.036152 96.921373 
L 144.094219 97.074746 
L 144.210354 95.387645 
L 144.268421 97.534864 
L 144.326488 97.074746 
L 144.384556 97.023621 
L 144.442623 97.739361 
L 144.50069 97.585988 
L 144.558758 97.585988 
L 144.674892 91.553325 
L 144.73296 91.655574 
L 144.791027 91.60445 
L 144.907162 96.359006 
L 144.965229 96.307882 
L 145.023297 99.733207 
L 145.081364 99.52871 
L 145.371701 89.712852 
L 145.487835 92.984805 
L 145.662037 92.831432 
L 145.720105 90.428592 
L 145.778172 90.88871 
L 145.836239 90.88871 
L 145.952374 93.64942 
L 146.126576 93.905041 
L 146.184644 93.905041 
L 146.242711 93.547172 
L 146.300778 93.64942 
L 146.416913 90.990959 
L 146.47498 90.990959 
L 146.591115 100.909065 
L 146.649182 100.653444 
L 146.765317 104.845633 
L 147.055654 103.823148 
L 147.113721 103.823148 
L 147.171788 103.516402 
L 147.229856 103.720899 
L 147.34599 114.712615 
L 147.520193 114.712615 
L 147.694395 114.456994 
L 147.926664 119.109302 
L 147.984731 119.109302 
L 148.100866 118.598059 
L 148.158933 118.649183 
L 148.217001 118.649183 
L 148.275068 116.80871 
L 148.333135 117.319953 
L 148.391203 117.319953 
L 148.507337 117.473325 
L 148.565405 114.201373 
L 148.623472 115.479479 
L 148.739607 115.479479 
L 148.855742 108.577704 
L 148.971876 108.577704 
L 149.088011 108.16871 
L 149.204146 108.270959 
L 149.378348 108.117586 
L 149.436415 99.068592 
L 149.494482 99.119716 
L 149.610617 99.52871 
L 149.726752 102.851787 
L 149.784819 103.00516 
L 149.900954 106.839479 
L 149.959021 103.465278 
L 150.133223 111.031669 
L 150.307425 111.133917 
L 150.365493 111.133917 
L 150.481627 110.92942 
L 150.655829 110.92942 
L 150.771964 106.430485 
L 150.830031 106.430485 
L 150.946166 101.829302 
L 151.004233 101.778178 
L 151.178435 100.909065 
L 151.236503 101.164686 
L 151.410705 101.164686 
L 151.468772 99.017467 
L 151.584907 101.113562 
L 151.701042 100.857941 
L 151.817176 100.857941 
L 151.875244 92.473562 
L 151.933311 93.853917 
L 151.991378 93.905041 
L 152.049446 99.937704 
L 152.107513 94.467408 
L 152.281715 94.467408 
L 152.39785 89.968473 
L 152.513984 90.019598 
L 152.688187 101.011314 
L 152.862389 101.471432 
L 152.920456 101.522556 
L 152.978523 98.608473 
L 153.036591 98.761846 
L 153.26886 97.739361 
L 153.326927 97.739361 
L 153.443062 104.181018 
L 153.501129 104.181018 
L 153.559197 106.072615 
L 153.617264 105.663621 
L 153.675331 105.408 
L 153.733399 105.510249 
L 153.907601 105.305751 
L 154.023736 105.510249 
L 154.197938 99.273089 
L 154.430207 99.221964 
L 154.546342 98.761846 
L 154.720544 102.851787 
L 154.778611 102.749538 
L 154.894746 101.93155 
L 154.952813 101.93155 
L 155.068948 101.675929 
L 155.185083 101.675929 
L 155.24315 102.033799 
L 155.417352 100.091077 
L 155.591554 100.039953 
L 155.649621 100.448947 
L 155.765756 95.080899 
L 155.823823 95.183148 
L 155.998025 100.397822 
L 156.056093 99.88658 
L 156.172227 99.733207 
L 156.230295 111.542911 
L 156.288362 109.958059 
L 156.520632 106.737231 
L 156.636766 106.737231 
L 156.752901 105.612497 
L 156.869036 105.663621 
L 156.927103 109.191195 
L 157.043238 100.755692 
L 157.21744 100.857941 
L 157.275507 100.346698 
L 157.333574 100.397822 
L 157.391642 100.397822 
L 157.507776 97.841609 
L 157.740046 97.790485 
L 157.856181 92.166817 
L 157.972315 92.217941 
L 158.08845 89.763976 
L 158.146517 89.712852 
L 158.262652 88.536994 
L 158.320719 90.326343 
L 158.436854 83.731314 
L 158.669123 83.680189 
L 158.727191 89.048237 
L 158.785258 87.105515 
L 159.017528 87.361136 
L 159.075595 83.833562 
L 159.19173 89.457231 
L 159.249797 88.894864 
L 159.307864 92.013444 
L 159.482066 80.714982 
L 159.656268 81.481846 
L 159.83047 76.522793 
L 160.004672 86.747645 
L 160.178874 83.117822 
L 160.236942 83.117822 
L 160.353077 83.271195 
L 160.411144 85.111669 
L 160.469211 84.395929 
L 160.527279 83.168947 
L 160.585346 83.220071 
L 160.701481 83.271195 
L 160.759548 83.526817 
L 160.875683 76.931787 
L 161.049885 77.391905 
L 161.224087 83.424568 
L 161.340221 83.424568 
L 161.398289 79.539124 
L 161.456356 80.152615 
L 161.514424 80.20374 
L 161.572491 80.050367 
L 161.688626 78.107645 
L 161.746693 78.158769 
L 161.80476 78.414391 
L 161.920895 74.477822 
L 162.03703 74.528947 
L 162.269299 79.13013 
L 162.327366 78.056521 
L 162.385434 78.465515 
L 162.617703 78.414391 
L 162.733838 78.261018 
L 162.791905 79.283503 
L 162.849973 78.77226 
L 163.024175 77.954272 
L 163.140309 75.398059 
L 163.198377 75.398059 
L 163.256444 74.886817 
L 163.314511 76.318296 
L 163.372579 75.346935 
L 163.430646 75.346935 
L 163.546781 77.136284 
L 163.720983 72.535101 
L 163.77905 72.535101 
L 163.837117 72.841846 
L 163.953252 72.432852 
L 164.069387 72.432852 
L 164.243589 72.995219 
L 164.359724 72.995219 
L 164.475858 72.535101 
L 164.591993 72.995219 
L 164.65006 72.995219 
L 164.88233 72.126107 
L 164.940397 72.535101 
L 165.056532 76.420544 
L 165.172666 76.36942 
L 165.346869 77.136284 
L 165.404936 77.136284 
L 165.521071 80.919479 
L 165.579138 80.970604 
L 165.695273 78.158769 
L 165.985609 78.874509 
L 166.043677 80.20374 
L 166.101744 79.794746 
L 166.159811 79.794746 
L 166.217879 81.788592 
L 166.275946 81.686343 
L 166.392081 81.686343 
L 166.450148 83.168947 
L 166.62435 74.32445 
L 166.85662 74.222201 
L 166.972754 74.068828 
L 167.088889 71.001373 
L 167.146956 73.813207 
L 167.205024 72.330604 
L 167.321158 72.228355 
L 167.437293 73.915456 
L 167.553428 73.915456 
L 167.611495 77.596402 
L 167.669562 77.340781 
L 167.72763 77.187408 
L 167.901832 77.698651 
L 167.959899 63.997349 
L 168.017967 65.173207 
L 168.076034 65.173207 
L 168.192169 65.479953 
L 168.366371 59.754036 
L 168.482505 58.73155 
L 168.714775 58.629302 
L 168.772842 58.884923 
L 168.888977 55.817467 
L 169.005111 55.868592 
L 169.121246 56.073089 
L 169.179314 56.073089 
L 169.237381 55.510722 
L 169.295448 55.766343 
L 169.353516 55.715219 
L 169.411583 53.568 
L 169.46965 53.670249 
L 169.643852 55.817467 
L 169.70192 56.277586 
L 169.759987 56.124213 
L 169.818054 60.572024 
L 169.876122 59.958533 
L 169.992256 60.009657 
L 170.050324 73.301964 
L 170.108391 73.199716 
L 170.224526 73.097467 
L 170.282593 70.796876 
L 170.34066 81.226225 
L 170.398728 80.612734 
L 170.456795 79.027882 
L 170.514863 79.181254 
L 170.630997 79.488 
L 170.689065 79.488 
L 170.747132 79.232379 
L 170.805199 79.590249 
L 170.921334 81.737467 
L 170.979401 79.283503 
L 171.037469 79.334627 
L 171.095536 79.488 
L 171.211671 82.453207 
L 171.327805 82.402083 
L 171.44394 81.993089 
L 171.560075 74.886817 
L 171.734277 74.273325 
L 171.792344 74.273325 
L 171.850412 72.637349 
L 171.908479 72.995219 
L 172.024614 73.404213 
L 172.082681 73.148592 
L 172.140748 73.199716 
L 172.256883 71.154746 
L 172.31495 71.308118 
L 172.373018 68.598533 
L 172.431085 59.907408 
L 172.489152 59.958533 
L 172.605287 59.600663 
L 172.663354 59.907408 
L 172.721422 57.04445 
L 172.779489 57.300071 
L 172.895624 57.04445 
L 173.011759 57.04445 
L 173.244028 66.655811 
L 173.302095 66.502438 
L 173.360163 66.604686 
L 173.41823 68.240663 
L 173.476297 68.036166 
L 173.592432 67.627172 
L 173.650499 69.263148 
L 173.708567 67.473799 
L 173.766634 67.831669 
L 173.882769 67.831669 
L 173.998903 67.218178 
L 174.056971 67.422675 
L 174.115038 68.342911 
L 174.173105 68.138414 
L 174.347308 63.383858 
L 174.463442 66.246817 
L 174.52151 66.246817 
L 174.637644 67.72942 
L 174.695712 67.72942 
L 174.811846 68.547408 
L 174.869914 68.240663 
L 175.044116 71.308118 
L 175.102183 71.717112 
L 175.16025 71.56374 
L 175.276385 71.052497 
L 175.334452 77.289657 
L 175.39252 74.426698 
L 175.566722 74.528947 
L 175.740924 73.455337 
L 175.857059 73.455337 
L 175.973193 77.44303 
L 176.147395 76.164923 
L 176.205463 76.36942 
L 176.321597 67.72942 
L 176.495799 68.649657 
L 176.553867 68.240663 
L 176.611934 68.496284 
L 176.728069 71.308118 
L 176.786136 71.20587 
L 176.844204 68.394036 
L 176.902271 78.618888 
L 176.960338 77.391905 
L 177.018406 77.238533 
L 177.192608 74.631195 
L 177.250675 74.631195 
L 177.482944 69.058651 
L 177.599079 68.80303 
L 177.657146 68.80303 
L 177.889416 64.457467 
L 177.947483 70.643503 
L 178.00555 63.230485 
L 178.063618 63.332734 
L 178.121685 63.332734 
L 178.23782 62.770367 
L 178.295887 63.025988 
L 178.470089 65.479953 
L 178.528157 65.479953 
L 178.586224 67.01368 
L 178.644291 66.911432 
L 178.702359 66.911432 
L 178.760426 67.218178 
L 178.818493 67.064805 
L 178.876561 67.064805 
L 178.934628 65.633325 
L 178.992695 65.68445 
L 179.224965 65.582201 
L 179.283032 65.582201 
L 179.399167 64.96871 
L 179.457234 64.96871 
L 179.573369 62.56587 
L 179.689504 64.508592 
L 179.747571 64.508592 
L 179.97984 73.762083 
L 180.037908 73.96658 
L 180.21211 72.586225 
L 180.270177 66.706935 
L 180.328244 69.058651 
L 180.386312 75.704805 
L 180.444379 75.65368 
L 180.502446 75.193562 
L 180.676649 81.379598 
L 180.734716 81.379598 
L 180.850851 83.935811 
L 180.966985 83.935811 
L 181.025053 84.498178 
L 181.141187 86.798769 
L 181.257322 86.798769 
L 181.373457 87.361136 
L 181.431524 87.310012 
L 181.547659 87.310012 
L 181.663793 87.667882 
L 181.721861 87.667882 
L 181.896063 88.128 
L 181.95413 88.128 
L 182.070265 81.635219 
L 182.128332 81.328473 
L 182.244467 81.686343 
L 182.418669 81.53297 
L 182.534804 82.24871 
L 182.592871 82.299834 
L 182.767073 74.937941 
L 182.883208 74.937941 
L 182.941275 79.488 
L 182.999342 79.232379 
L 183.05741 79.488 
L 183.173544 85.36729 
L 183.289679 85.36729 
L 183.405814 82.146462 
L 183.521949 82.350959 
L 183.580016 78.567763 
L 183.812285 89.559479 
L 183.92842 89.559479 
L 184.044555 92.831432 
L 184.102622 91.655574 
L 184.160689 91.860071 
L 184.276824 91.860071 
L 184.451026 92.217941 
L 184.509094 90.428592 
L 184.741363 100.653444 
L 185.089767 100.60232 
L 185.147834 100.500071 
L 185.205902 103.823148 
L 185.263969 101.062438 
L 185.322036 101.011314 
L 185.380104 101.420308 
L 185.438171 101.266935 
L 185.554306 95.029775 
L 185.67044 95.029775 
L 185.786575 93.240426 
L 185.844643 93.138178 
L 186.018845 95.387645 
L 186.076912 95.387645 
L 186.134979 95.080899 
L 186.193047 89.457231 
L 186.251114 89.508355 
L 186.309181 89.559479 
L 186.483383 89.099361 
L 186.541451 87.156639 
L 186.599518 87.207763 
L 186.657585 87.361136 
L 186.77372 89.457231 
L 186.889855 89.406107 
L 186.947922 89.508355 
L 187.064057 89.252734 
L 187.180192 100.039953 
L 187.354394 100.193325 
L 187.412461 95.950012 
L 187.470528 96.256757 
L 187.528596 96.819124 
L 187.586663 96.461254 
L 187.760865 114.76374 
L 187.818932 112.923266 
L 187.877 113.025515 
L 187.935067 113.025515 
L 187.993134 112.667645 
L 188.051202 112.718769 
L 188.225404 112.616521 
L 188.399606 106.583858 
L 188.515741 106.583858 
L 188.689943 98.352852 
L 188.806077 98.352852 
L 188.922212 102.698414 
L 188.980279 102.442793 
L 189.038347 107.964213 
L 189.096414 107.861964 
L 189.154481 107.81084 
L 189.328683 107.913089 
L 189.560953 107.861964 
L 189.61902 108.322083 
L 189.677088 111.440663 
L 189.735155 111.185041 
L 189.793222 111.236166 
L 189.909357 106.890604 
L 190.025492 106.788355 
L 190.199694 107.759716 
L 190.315828 106.328237 
L 190.49003 117.626698 
L 190.548098 117.626698 
L 190.7223 116.348592 
L 190.780367 116.604213 
L 190.954569 116.655337 
L 191.070704 117.064331 
L 191.186839 116.655337 
L 191.244906 116.706462 
L 191.302973 116.45084 
L 191.361041 117.319953 
L 191.477175 115.888473 
L 191.999781 115.837349 
L 192.173984 116.297467 
L 192.232051 116.246343 
L 192.348186 117.52445 
L 192.406253 111.185041 
L 192.522388 120.796402 
L 192.638522 119.876166 
L 192.812724 120.694154 
L 193.044994 119.467172 
L 193.33533 119.467172 
L 193.393398 119.007053 
L 193.451465 119.160426 
L 193.509533 119.160426 
L 193.625667 122.994746 
L 193.741802 119.058178 
L 193.799869 119.160426 
L 193.857937 119.160426 
L 193.974071 118.751432 
L 194.090206 118.802556 
L 194.206341 123.812734 
L 194.264408 121.000899 
L 194.322475 121.358769 
L 194.43861 121.358769 
L 194.612812 120.796402 
L 194.728947 120.796402 
L 194.903149 123.454864 
L 194.961216 123.914982 
L 195.019284 121.358769 
L 195.077351 123.301491 
L 195.135418 123.301491 
L 195.251553 123.812734 
L 195.483822 117.371077 
L 195.54189 119.671669 
L 195.599957 119.56942 
L 195.716092 115.377231 
L 195.890294 115.530604 
L 196.180631 115.530604 
L 196.354833 113.434509 
L 196.645169 113.434509 
L 196.703237 113.178888 
L 196.761304 113.434509 
L 196.819371 111.542911 
L 196.877439 112.105278 
L 196.993573 112.105278 
L 197.109708 120.64303 
L 197.167775 120.64303 
L 197.28391 125.653207 
L 197.458112 125.653207 
L 197.632314 126.317822 
L 197.690382 126.266698 
L 197.864584 126.880189 
L 197.980718 130.458888 
L 198.271055 129.998769 
L 198.329122 129.998769 
L 198.445257 135.878059 
L 198.561392 135.775811 
L 198.619459 135.16232 
L 198.793661 140.632615 
L 198.909796 134.651077 
L 198.967863 134.651077 
L 199.083998 131.379124 
L 199.200133 131.174627 
L 199.2582 131.379124 
L 199.432402 130.101018 
L 199.490469 131.583621 
L 199.548537 131.481373 
L 199.606604 131.481373 
L 199.722739 131.174627 
L 199.896941 131.276876 
L 200.12921 128.516166 
L 200.187278 128.771787 
L 200.303412 128.362793 
L 200.651816 128.260544 
L 200.826018 120.949775 
L 200.942153 120.847527 
L 201.116355 115.223858 
L 201.174423 116.859834 
L 201.290557 113.076639 
L 201.406692 113.996876 
L 201.755096 113.945751 
L 201.987365 116.297467 
L 202.045433 116.297467 
L 202.277702 117.52445 
L 202.393837 114.252497 
L 202.509972 113.69013 
L 202.568039 113.843503 
L 202.626106 113.843503 
L 202.684174 113.383385 
L 202.742241 113.945751 
L 202.800308 113.843503 
L 202.916443 113.843503 
L 202.97451 113.69013 
L 203.090645 120.694154 
L 203.20678 120.694154 
L 203.322914 115.888473 
L 203.497116 115.888473 
L 203.613251 116.706462 
L 203.729386 123.40374 
L 203.787453 123.505988 
L 203.845521 126.215574 
L 203.961655 136.082556 
L 204.07779 134.497704 
L 204.193925 136.287053 
L 204.310059 141.348355 
L 204.426194 137.616284 
L 204.484261 140.837112 
L 204.542329 140.68374 
L 204.716531 140.223621 
L 204.774598 142.473089 
L 204.9488 138.689893 
L 205.064935 138.280899 
L 205.239137 140.888237 
L 205.413339 137.156166 
L 205.703676 140.939361 
L 205.761743 140.632615 
L 205.877878 144.77368 
L 206.284349 144.722556 
L 206.342417 145.080426 
L 206.400484 143.700071 
L 206.458551 143.853444 
L 206.574686 143.853444 
L 206.748888 143.700071 
L 206.806955 143.648947 
L 206.865023 145.13155 
L 206.92309 144.722556 
L 207.097292 144.620308 
L 207.213427 146.000663 
L 207.387629 146.000663 
L 207.445696 146.154036 
L 207.561831 141.246107 
L 207.619898 141.348355 
L 207.736033 138.894391 
L 207.852168 138.894391 
L 208.02637 138.229775 
L 208.142504 138.792142 
L 208.200572 138.689893 
L 208.258639 138.792142 
L 208.374774 137.667408 
L 208.432841 137.667408 
L 208.490908 140.837112 
L 208.548976 135.622438 
L 208.607043 135.673562 
L 208.723178 135.366817 
L 208.89738 135.264568 
L 209.071582 126.471195 
L 209.419986 126.471195 
L 209.478053 126.011077 
L 209.594188 126.675692 
L 209.652255 126.624568 
L 209.710323 126.624568 
L 209.826457 126.982438 
L 209.884525 126.982438 
L 210.00066 132.963976 
L 210.116794 130.458888 
L 210.290996 130.458888 
L 210.407131 124.272852 
L 210.523266 124.272852 
L 210.6394 121.154272 
L 210.755535 121.154272 
L 210.929737 121.052024 
L 210.987804 120.949775 
L 211.045872 121.103148 
L 211.103939 121.000899 
L 211.162006 121.000899 
L 211.336209 121.409893 
L 211.452343 121.154272 
L 211.510411 121.307645 
L 211.568478 121.256521 
L 211.626545 118.495811 
L 211.684613 123.710485 
L 211.74268 116.45084 
L 211.800747 116.706462 
L 211.916882 116.655337 
L 212.033017 118.291314 
L 212.207219 118.189065 
L 212.265286 118.444686 
L 212.323353 116.757586 
L 212.439488 120.182911 
L 212.555623 119.92729 
L 212.671758 119.978414 
L 212.729825 123.659361 
L 212.787892 121.512142 
L 212.84596 121.563266 
L 213.020162 120.949775 
L 213.194364 120.847527 
L 213.310498 120.489657 
L 213.426633 120.489657 
L 213.542768 120.28516 
L 213.71697 110.724923 
L 213.833105 108.270959 
L 213.949239 110.673799 
L 214.007307 110.673799 
L 214.123441 104.69226 
L 214.297643 104.69226 
L 214.355711 111.900781 
L 214.413778 108.833325 
L 214.704115 108.475456 
L 214.762182 108.117586 
L 214.878317 106.686107 
L 215.052519 106.634982 
L 215.226721 107.197349 
L 215.284788 106.532734 
L 215.400923 102.033799 
L 215.45899 108.986698 
L 215.517058 106.941728 
L 215.575125 106.839479 
L 215.633192 108.52658 
L 215.69126 108.424331 
L 215.749327 104.896757 
L 215.807394 106.328237 
L 215.923529 105.663621 
L 216.097731 109.702438 
L 216.155798 109.753562 
L 216.33 98.046107 
L 216.446135 98.301728 
L 216.504203 98.301728 
L 216.620337 94.774154 
L 216.736472 91.96232 
L 216.910674 92.780308 
L 216.968741 92.780308 
L 217.084876 92.524686 
L 217.259078 92.575811 
L 217.375213 92.575811 
L 217.43328 92.575811 
L 217.491347 92.115692 
L 217.607482 95.541018 
L 217.723617 102.033799 
L 217.955886 101.829302 
L 218.013954 101.829302 
L 218.130088 101.420308 
L 218.188156 101.471432 
L 218.246223 101.266935 
L 218.30429 101.318059 
L 218.362358 101.318059 
L 218.478492 98.659598 
L 218.594627 99.017467 
L 218.710762 102.596166 
L 218.768829 102.545041 
L 218.826896 102.698414 
L 218.884964 100.60232 
L 218.943031 101.113562 
L 219.059166 101.369183 
L 219.175301 93.342675 
L 219.291435 93.342675 
L 219.639839 91.757822 
L 219.697907 91.860071 
L 219.755974 91.60445 
L 219.814041 91.655574 
L 219.930176 91.655574 
L 220.104378 90.939834 
L 220.162445 92.626935 
L 220.220513 90.479716 
L 220.27858 90.990959 
L 220.394715 90.735337 
L 220.801186 90.735337 
L 220.859254 91.757822 
L 220.975388 82.197586 
L 221.033456 82.350959 
L 221.207658 87.821254 
L 221.265725 87.616757 
L 221.323792 87.719006 
L 221.439927 87.361136 
L 221.788331 87.258888 
L 221.904466 87.054391 
L 222.078668 86.952142 
L 222.194803 81.277349 
L 222.25287 81.737467 
L 222.310937 84.140308 
L 222.369005 83.986935 
L 222.543207 83.015574 
L 222.659341 80.817231 
L 222.717409 80.817231 
L 222.775476 82.197586 
L 222.891611 88.076876 
L 223.12388 76.164923 
L 223.240015 75.65368 
L 223.298082 76.267172 
L 223.414217 69.467645 
L 223.530352 69.774391 
L 223.646486 69.723266 
L 223.704554 74.171077 
L 223.762621 74.119953 
L 223.820688 74.222201 
L 223.936823 75.65368 
L 223.99489 75.602556 
L 224.052958 75.704805 
L 224.111025 75.500308 
L 224.22716 89.150485 
L 224.285227 88.639243 
L 224.343295 88.639243 
L 224.459429 95.285396 
L 224.517497 93.138178 
L 224.575564 90.939834 
L 224.633631 91.144331 
L 224.749766 91.144331 
L 224.865901 93.751669 
L 225.040103 73.813207 
L 225.214305 73.813207 
L 225.272372 73.659834 
L 225.388507 74.119953 
L 225.504642 80.152615 
L 225.853046 79.590249 
L 225.96918 74.886817 
L 226.085315 75.040189 
L 226.259517 76.522793 
L 226.317584 76.522793 
L 226.433719 76.216047 
L 226.665989 76.880663 
L 226.782123 73.097467 
L 226.898258 72.944095 
L 227.246662 85.111669 
L 227.304729 84.600426 
L 227.362797 84.600426 
L 227.420864 83.629065 
L 227.478931 84.191432 
L 227.595066 83.935811 
L 227.711201 84.038059 
L 227.769268 86.287527 
L 227.827335 85.213917 
L 227.94347 81.686343 
L 228.001538 81.481846 
L 228.17574 86.185278 
L 228.233807 86.185278 
L 228.291874 98.710722 
L 228.349942 90.019598 
L 228.466076 87.105515 
L 228.524144 87.514509 
L 228.698346 75.346935 
L 228.756413 75.142438 
L 228.81448 75.193562 
L 228.988682 67.167053 
L 229.162885 73.506462 
L 229.337087 73.506462 
L 229.395154 71.56374 
L 229.453221 71.614864 
L 229.511289 71.512615 
L 229.627423 70.541254 
L 229.685491 70.745751 
L 229.743558 70.694627 
L 229.801625 70.950249 
L 229.859693 70.899124 
L 230.033895 70.950249 
L 230.150029 67.524923 
L 230.266164 68.138414 
L 230.382299 68.138414 
L 230.440366 65.633325 
L 230.498434 65.837822 
L 230.614568 65.888947 
L 230.730703 59.651787 
L 230.846838 59.856284 
L 230.904905 59.856284 
L 231.02104 65.173207 
L 231.137174 64.866462 
L 231.195242 64.866462 
L 231.311376 65.173207 
L 231.427511 65.173207 
L 231.485578 63.025988 
L 231.601713 65.122083 
L 231.717848 65.070959 
L 231.833983 66.758059 
L 231.950117 66.093444 
L 232.124319 56.788828 
L 232.298521 57.04445 
L 232.414656 54.692734 
L 232.472723 54.794982 
L 232.704993 58.680426 
L 232.821127 58.680426 
L 232.879195 59.038296 
L 232.937262 58.782675 
L 233.053397 59.293917 
L 233.169532 62.463621 
L 233.227599 62.463621 
L 233.401801 77.647527 
L 233.576003 77.136284 
L 233.808272 77.238533 
L 233.86634 74.375574 
L 233.924407 75.193562 
L 234.098609 75.295811 
L 234.214744 75.398059 
L 234.272811 75.858178 
L 234.447013 81.788592 
L 234.505081 81.53297 
L 234.621215 82.350959 
L 234.679283 82.299834 
L 234.73735 82.555456 
L 234.795417 82.350959 
L 234.853485 82.095337 
L 234.911552 82.24871 
L 234.969619 82.350959 
L 235.143821 85.060544 
L 235.201889 85.00942 
L 235.318023 85.213917 
L 235.376091 82.24871 
L 235.434158 83.373444 
L 235.550293 82.146462 
L 235.724495 82.197586 
L 235.84063 81.686343 
L 236.014832 77.494154 
L 236.072899 77.545278 
L 236.130966 77.749775 
L 236.189034 77.391905 
L 236.363236 82.299834 
L 236.537438 82.913325 
L 236.653572 82.759953 
L 236.71164 82.197586 
L 236.885842 79.641373 
L 236.943909 80.152615 
L 237.001977 79.896994 
L 237.060044 79.896994 
L 237.176179 75.807053 
L 237.234246 78.312142 
L 237.292313 77.647527 
L 237.408448 77.698651 
L 237.640717 83.782438 
L 237.756852 83.782438 
L 237.814919 84.600426 
L 237.872987 84.344805 
L 237.989121 82.197586 
L 238.105256 82.350959 
L 238.221391 77.238533 
L 238.45366 87.41226 
L 238.511728 87.41226 
L 238.68593 82.350959 
L 238.802064 82.759953 
L 239.034334 93.393799 
L 239.092401 93.393799 
L 239.150468 93.189302 
L 239.32467 93.956166 
L 239.440805 93.751669 
L 239.55694 93.240426 
L 239.615007 93.240426 
L 239.673075 93.393799 
L 239.789209 92.064568 
L 239.847277 92.064568 
L 240.021479 82.044213 
L 240.079546 82.044213 
L 240.137613 85.622911 
L 240.195681 85.265041 
L 240.253748 85.265041 
L 240.486017 78.261018 
L 240.544085 78.005396 
L 240.66022 85.36729 
L 240.776354 85.111669 
L 240.892489 85.418414 
L 240.950556 85.213917 
L 241.066691 87.003266 
L 241.124758 86.798769 
L 241.182826 86.901018 
L 241.240893 87.105515 
L 241.415095 99.17084 
L 241.879634 99.273089 
L 241.995769 99.324213 
L 242.053836 99.221964 
L 242.228038 100.346698 
L 242.344173 100.346698 
L 242.460307 99.52871 
L 242.518375 99.988828 
L 242.866779 99.937704 
L 242.924846 99.784331 
L 243.040981 100.091077 
L 243.157115 100.039953 
L 243.331318 96.512379 
L 243.50552 104.436639 
L 243.563587 104.743385 
L 243.679722 103.567527 
L 243.737789 103.567527 
L 243.795856 101.062438 
L 243.853924 101.215811 
L 244.028126 101.727053 
L 244.14426 97.381491 
L 244.318462 104.794509 
L 244.550732 104.590012 
L 244.783001 108.986698 
L 244.899136 108.731077 
L 245.015271 100.806817 
L 245.073338 100.806817 
L 245.24754 99.988828 
L 245.770146 99.937704 
L 245.886281 98.506225 
L 246.002416 101.93155 
L 246.11855 100.193325 
L 246.176618 100.448947 
L 246.234685 100.346698 
L 246.408887 85.980781 
L 246.525022 85.929657 
L 246.583089 87.003266 
L 246.699224 83.731314 
L 246.815358 84.395929 
L 246.873426 84.29368 
L 246.931493 84.29368 
L 246.98956 83.986935 
L 247.047628 84.038059 
L 247.105695 84.140308 
L 247.163763 84.089183 
L 247.279897 84.089183 
L 247.396032 85.674036 
L 247.454099 85.674036 
L 247.512167 83.117822 
L 247.570234 83.373444 
L 247.628301 83.373444 
L 247.686369 83.731314 
L 247.744436 85.72516 
L 247.802503 77.749775 
L 247.860571 78.005396 
L 247.976705 80.050367 
L 248.034773 79.079006 
L 248.150907 85.980781 
L 248.267042 86.031905 
L 248.557379 92.166817 
L 248.615446 92.269065 
L 248.731581 85.520663 
L 248.789648 85.520663 
L 248.905783 86.287527 
L 249.079985 86.236402 
L 249.19612 92.064568 
L 249.254187 91.706698 
L 249.544524 90.88871 
L 249.660659 90.786462 
L 249.776793 90.326343 
L 250.009063 90.581964 
L 250.183265 90.224095 
L 250.357467 90.121846 
L 250.473601 82.350959 
L 250.589736 84.549302 
L 250.647803 84.549302 
L 250.763938 83.833562 
L 251.054275 90.377467 
L 251.17041 90.326343 
L 251.286544 92.678059 
L 251.344612 92.678059 
L 251.402679 94.00729 
L 251.460746 99.273089 
L 251.518814 98.915219 
L 251.576881 98.915219 
L 251.634948 99.068592 
L 251.751083 101.113562 
L 251.80915 101.215811 
L 251.983352 103.465278 
L 252.215622 108.52658 
L 252.273689 108.475456 
L 252.389824 108.833325 
L 252.505959 115.735101 
L 252.622093 108.731077 
L 252.796295 109.140071 
L 252.91243 110.980544 
L 253.202767 111.185041 
L 253.376969 110.469302 
L 253.493104 113.996876 
L 253.957642 114.048 
L 254.01571 114.508118 
L 254.073777 114.456994 
L 254.247979 113.894627 
L 254.364114 116.297467 
L 254.422181 116.246343 
L 254.538316 109.395692 
L 254.65445 115.786225 
L 254.828653 115.121609 
L 254.944787 114.814864 
L 255.002855 114.40587 
L 255.118989 108.219834 
L 255.351259 108.322083 
L 255.409326 107.964213 
L 255.525461 117.677822 
L 255.583528 116.910959 
L 255.641595 117.217704 
L 255.75773 116.45084 
L 255.815797 116.910959 
L 255.931932 124.426225 
L 256.106134 120.847527 
L 256.164202 126.52232 
L 256.222269 123.301491 
L 256.396471 124.221728 
L 256.454538 124.221728 
L 256.62874 131.788118 
L 256.686808 131.583621 
L 256.744875 131.583621 
L 256.86101 134.753325 
L 256.919077 134.395456 
L 257.093279 127.49368 
L 257.151346 129.538651 
L 257.267481 129.078533 
L 257.325549 129.28303 
L 257.557818 130.049893 
L 257.673953 131.788118 
L 257.906222 116.246343 
L 258.022357 116.553089 
L 258.138491 112.360899 
L 258.196559 112.463148 
L 258.370761 115.274982 
L 258.486895 114.610367 
L 258.544963 114.610367 
L 258.661098 113.536757 
L 258.777232 113.639006 
L 258.951434 103.414154 
L 259.009502 103.720899 
L 259.241771 103.823148 
L 259.415973 105.203503 
L 259.70631 105.305751 
L 259.938579 105.612497 
L 259.996647 105.612497 
L 260.054714 98.455101 
L 260.112781 102.238296 
L 260.228916 102.033799 
L 260.286983 102.136047 
L 260.345051 102.033799 
L 260.403118 102.033799 
L 260.461185 96.716876 
L 260.519253 98.761846 
L 260.57732 99.17084 
L 260.635387 100.551195 
L 260.693455 100.397822 
L 260.809589 100.397822 
L 260.925724 100.909065 
L 260.983791 100.704568 
L 261.157994 99.375337 
L 261.216061 99.426462 
L 261.274128 94.825278 
L 261.390263 105.356876 
L 261.44833 104.896757 
L 261.506398 107.146225 
L 261.564465 106.788355 
L 261.6806 106.890604 
L 261.738667 106.941728 
L 261.796734 100.295574 
L 261.854802 100.346698 
L 261.970936 100.193325 
L 262.203206 90.633089 
L 262.261273 90.633089 
L 262.31934 96.05226 
L 262.377408 96.001136 
L 262.435475 96.359006 
L 262.55161 100.142201 
L 262.725812 98.864095 
L 262.783879 99.324213 
L 262.958081 104.385515 
L 263.016149 104.794509 
L 263.132283 108.066462 
L 263.248418 104.334391 
L 263.306485 104.334391 
L 263.364553 105.714746 
L 263.42262 105.663621 
L 263.480687 105.101254 
L 263.538755 105.152379 
L 263.65489 105.101254 
L 263.712957 106.021491 
L 263.829092 104.181018 
L 263.887159 104.436639 
L 263.945226 104.487763 
L 264.061361 105.05013 
L 264.119428 104.743385 
L 264.177496 110.980544 
L 264.235563 107.606343 
L 264.29363 107.504095 
L 264.351698 108.117586 
L 264.409765 108.015337 
L 264.467832 103.823148 
L 264.5259 107.299598 
L 264.583967 107.299598 
L 264.700102 105.459124 
L 264.758169 105.459124 
L 264.874304 106.021491 
L 265.106573 106.021491 
L 265.164641 106.481609 
L 265.280775 113.178888 
L 265.687247 104.590012 
L 265.919516 104.590012 
L 266.035651 105.203503 
L 266.093718 104.999006 
L 266.209853 99.52871 
L 266.325988 100.500071 
L 266.384055 100.448947 
L 266.442122 93.64942 
L 266.50019 100.346698 
L 266.558257 100.295574 
L 266.674392 100.551195 
L 266.732459 100.500071 
L 266.790526 102.28942 
L 266.964728 93.956166 
L 267.13893 97.892734 
L 267.255065 97.892734 
L 267.3712 92.524686 
L 267.429267 94.416284 
L 267.603469 93.956166 
L 267.661537 93.956166 
L 267.777671 98.046107 
L 267.835739 98.250604 
L 267.893806 98.046107 
L 268.184143 107.861964 
L 268.24221 107.555219 
L 268.358345 103.465278 
L 268.532547 103.260781 
L 268.590614 102.136047 
L 268.648681 98.710722 
L 268.706749 98.761846 
L 268.880951 100.295574 
L 268.939018 100.295574 
L 269.055153 103.925396 
L 269.11322 102.084923 
L 269.229355 101.829302 
L 269.403557 101.880426 
L 269.519692 102.084923 
L 269.577759 102.084923 
L 269.693894 107.964213 
L 269.751961 105.868118 
L 269.868096 110.520426 
L 269.926163 110.418178 
L 270.042298 111.133917 
L 270.2165 110.162556 
L 270.274567 110.418178 
L 270.332635 109.958059 
L 270.448769 110.776047 
L 270.622971 109.191195 
L 270.681039 109.24232 
L 270.797173 108.782201 
L 270.855241 108.782201 
L 271.029443 107.81084 
L 271.08751 107.81084 
L 271.145577 108.015337 
L 271.261712 112.156402 
L 271.435914 112.156402 
L 271.610116 112.00303 
L 271.784318 111.951905 
L 271.900453 111.696284 
L 271.95852 111.696284 
L 272.074655 113.894627 
L 272.132722 113.894627 
L 272.248857 113.69013 
L 272.306924 113.69013 
L 272.423059 113.843503 
L 272.655329 111.696284 
L 272.771463 111.696284 
L 272.887598 112.156402 
L 272.945665 112.054154 
L 273.0618 112.360899 
L 273.177935 112.258651 
L 273.294069 117.831195 
L 273.410204 117.88232 
L 273.526339 115.223858 
L 273.700541 115.274982 
L 273.816676 108.88445 
L 273.93281 109.24232 
L 274.107012 109.24232 
L 274.16508 108.986698 
L 274.223147 107.708592 
L 274.281214 113.383385 
L 274.339282 113.33226 
L 274.455416 113.33226 
L 274.629618 112.463148 
L 274.745753 114.456994 
L 274.861888 114.456994 
L 274.978022 104.027645 
L 275.03609 104.181018 
L 275.152225 101.624805 
L 275.268359 101.522556 
L 275.384494 101.011314 
L 275.500629 89.099361 
L 275.616763 89.866225 
L 275.674831 89.866225 
L 275.790965 101.675929 
L 275.849033 101.318059 
L 275.9071 101.420308 
L 275.965167 101.420308 
L 276.139369 97.739361 
L 276.255504 96.972497 
L 276.313571 96.972497 
L 276.429706 95.489893 
L 276.487774 95.592142 
L 276.603908 95.285396 
L 276.720043 92.678059 
L 276.77811 92.678059 
L 276.952312 93.751669 
L 277.01038 97.892734 
L 277.068447 94.774154 
L 277.184582 94.876402 
L 277.242649 94.211787 
L 277.300716 94.262911 
L 277.358784 94.314036 
L 277.532986 82.708828 
L 277.591053 82.60658 
L 277.707188 83.220071 
L 277.765255 82.453207 
L 277.823323 88.639243 
L 277.88139 85.418414 
L 277.939457 85.520663 
L 278.055592 84.600426 
L 278.171727 84.907172 
L 278.229794 90.990959 
L 278.287861 89.815101 
L 278.345929 89.099361 
L 278.403996 89.201609 
L 278.462063 90.377467 
L 278.520131 89.610604 
L 278.578198 88.741491 
L 278.636265 93.342675 
L 278.694333 90.275219 
L 278.7524 89.661728 
L 278.810467 84.702675 
L 278.868535 86.645396 
L 278.98467 86.696521 
L 279.042737 86.798769 
L 279.100804 87.258888 
L 279.158872 90.837586 
L 279.216939 90.786462 
L 279.333074 91.042083 
L 279.449208 89.099361 
L 279.507276 89.099361 
L 279.62341 91.655574 
L 279.739545 90.326343 
L 279.85568 90.326343 
L 280.146016 89.610604 
L 280.320219 87.105515 
L 280.494421 89.457231 
L 280.610555 89.406107 
L 280.72669 89.815101 
L 280.784757 95.796639 
L 280.842825 95.489893 
L 280.900892 95.438769 
L 281.075094 103.516402 
L 281.191229 103.567527 
L 281.307363 103.823148 
L 281.365431 101.471432 
L 281.423498 104.027645 
L 281.481566 103.772024 
L 281.539633 103.669775 
L 281.655768 101.420308 
L 281.771902 104.743385 
L 281.888037 104.334391 
L 281.946104 104.641136 
L 282.004172 104.436639 
L 282.062239 113.945751 
L 282.120306 110.162556 
L 282.178374 110.21368 
L 282.294508 104.487763 
L 282.410643 104.487763 
L 282.526778 109.24232 
L 282.70098 109.293444 
L 282.759047 103.465278 
L 282.817115 103.874272 
L 282.875182 103.720899 
L 282.933249 103.772024 
L 282.991317 103.772024 
L 283.397788 115.581728 
L 283.513923 113.741254 
L 283.57199 114.559243 
L 283.630057 108.935574 
L 283.688125 109.140071 
L 283.804259 113.230012 
L 283.920394 107.45297 
L 283.978461 109.549065 
L 284.036529 109.497941 
L 284.152664 109.446817 
L 284.210731 109.753562 
L 284.326866 109.088947 
L 284.617202 108.986698 
L 284.791404 108.833325 
L 284.849472 108.833325 
L 285.023674 109.446817 
L 285.139808 108.424331 
L 285.197876 108.424331 
L 285.314011 110.264805 
L 285.430145 110.264805 
L 285.488213 112.105278 
L 285.54628 108.270959 
L 285.604347 110.21368 
L 285.720482 109.702438 
L 285.836617 115.530604 
L 285.952751 115.530604 
L 286.126953 115.377231 
L 286.185021 115.479479 
L 286.301155 114.865988 
L 286.359223 110.162556 
L 286.41729 110.520426 
L 286.475357 110.878296 
L 286.533425 110.827172 
L 286.64956 110.827172 
L 286.707627 116.348592 
L 286.765694 115.223858 
L 286.823762 115.377231 
L 286.997964 117.268828 
L 287.056031 117.319953 
L 287.172166 106.481609 
L 287.230233 109.855811 
L 287.2883 106.941728 
L 287.346368 107.299598 
L 287.462502 110.622675 
L 287.52057 101.215811 
L 287.578637 101.318059 
L 287.636704 101.522556 
L 287.694772 101.420308 
L 287.752839 101.420308 
L 287.868974 101.675929 
L 287.985109 101.675929 
L 288.101243 106.072615 
L 288.159311 106.277112 
L 288.217378 105.459124 
L 288.39158 108.52658 
L 288.449647 108.52658 
L 288.565782 114.252497 
L 288.623849 114.354746 
L 288.739984 113.843503 
L 288.914186 114.099124 
L 289.030321 114.048 
L 289.146456 113.33226 
L 289.204523 113.33226 
L 289.320658 111.389538 
L 289.378725 111.389538 
L 289.552927 115.121609 
L 289.669062 117.88232 
L 289.785196 117.780071 
L 290.017466 117.626698 
L 290.075533 117.217704 
L 290.249735 124.528473 
L 290.423937 124.579598 
L 290.482005 124.579598 
L 290.598139 124.323976 
L 290.714274 124.375101 
L 290.888476 116.859834 
L 290.946543 116.297467 
L 291.062678 125.704331 
L 291.120745 125.653207 
L 291.294947 125.193089 
L 291.469149 125.295337 
L 291.585284 124.017231 
L 291.643351 124.579598 
L 291.875621 137.20729 
L 291.933688 137.20729 
L 292.10789 137.92303 
L 292.165958 140.68374 
L 292.282092 133.781964 
L 292.34016 133.884213 
L 292.398227 138.536521 
L 292.456294 138.485396 
L 292.572429 138.434272 
L 292.688564 146.256284 
L 292.746631 145.796166 
L 292.862766 142.524213 
L 292.978901 142.421964 
L 293.095035 135.622438 
L 293.269237 135.571314 
L 293.327305 132.248237 
L 293.385372 132.350485 
L 293.443439 133.526343 
L 293.501507 130.510012 
L 293.675709 116.041846 
L 293.791843 116.501964 
L 293.966045 116.45084 
L 294.08218 124.886343 
L 294.198315 124.426225 
L 294.256382 124.835219 
L 294.31445 124.681846 
L 294.372517 124.681846 
L 294.488652 116.706462 
L 294.546719 120.898651 
L 294.604786 118.802556 
L 294.778988 119.313799 
L 294.837056 119.313799 
L 295.011258 111.798533 
L 295.069325 111.64516 
L 295.127392 109.037822 
L 295.243527 99.477586 
L 295.417729 99.375337 
L 295.475796 103.976521 
L 295.533864 103.823148 
L 295.591931 103.720899 
L 295.766133 106.481609 
L 296.05647 106.430485 
L 296.114537 106.174864 
L 296.230672 100.551195 
L 296.404874 101.522556 
L 296.462941 105.561373 
L 296.521009 105.459124 
L 296.579076 105.459124 
L 296.637143 105.305751 
L 296.811346 108.679953 
L 296.869413 107.350722 
L 296.92748 107.401846 
L 296.985548 110.520426 
L 297.043615 109.293444 
L 297.217817 100.551195 
L 297.392019 105.919243 
L 297.508154 106.532734 
L 297.566221 106.532734 
L 297.624288 103.567527 
L 297.682356 103.772024 
L 297.740423 104.283266 
L 297.79849 104.078769 
L 297.914625 99.221964 
L 298.03076 104.69226 
L 298.088827 104.487763 
L 298.204962 105.152379 
L 298.321097 105.05013 
L 298.495299 114.968237 
L 298.611433 114.712615 
L 298.669501 114.354746 
L 298.727568 114.712615 
L 298.785635 114.610367 
L 298.959837 119.160426 
L 299.250174 119.262675 
L 299.424376 120.898651 
L 299.482444 120.898651 
L 299.598578 126.011077 
L 299.656646 126.011077 
L 299.946982 120.796402 
L 300.00505 123.608237 
L 300.063117 123.557112 
L 300.121184 123.608237 
L 300.353454 125.346462 
L 300.469588 125.346462 
L 300.585723 127.442556 
L 300.643791 127.391432 
L 300.701858 128.004923 
L 300.759925 127.85155 
L 300.817993 127.289183 
L 300.87606 127.698178 
L 300.934127 127.698178 
L 300.992195 127.544805 
L 301.224464 121.870012 
L 301.340599 121.870012 
L 301.514801 118.904805 
L 301.689003 118.802556 
L 301.74707 118.802556 
L 301.863205 116.246343 
L 301.921272 116.348592 
L 302.037407 125.295337 
L 302.153542 125.193089 
L 302.327744 124.170604 
L 302.501946 124.272852 
L 302.734215 114.508118 
L 302.792282 114.508118 
L 302.966484 115.479479 
L 303.024552 114.968237 
L 303.082619 115.019361 
L 303.256821 112.565396 
L 303.372956 113.945751 
L 303.431023 113.894627 
L 303.72136 114.712615 
L 303.779427 114.712615 
L 303.837495 109.651314 
L 303.895562 114.661491 
L 303.953629 112.872142 
L 304.011697 114.917112 
L 304.185899 112.309775 
L 304.302033 112.360899 
L 304.360101 112.667645 
L 304.476236 121.154272 
L 304.534303 121.000899 
L 304.59237 121.000899 
L 304.650438 116.604213 
L 304.708505 117.575574 
L 304.940774 118.137941 
L 304.998842 118.137941 
L 305.231111 119.160426 
L 305.289178 119.160426 
L 305.46338 110.827172 
L 305.637582 110.92942 
L 305.753717 111.696284 
L 305.811785 107.708592 
L 305.927919 112.156402 
L 306.102121 112.156402 
L 306.160189 111.542911 
L 306.218256 113.587882 
L 306.450525 106.788355 
L 306.508593 107.146225 
L 306.624727 107.146225 
L 306.856997 108.015337 
L 306.915064 107.964213 
L 306.973131 105.816994 
L 307.089266 115.581728 
L 307.147334 115.581728 
L 307.205401 115.837349 
L 307.321536 115.377231 
L 307.43767 115.786225 
L 307.611872 115.377231 
L 307.66994 115.377231 
L 307.844142 115.837349 
L 307.902209 112.514272 
L 308.018344 123.301491 
L 308.134478 122.023385 
L 308.308681 121.818888 
L 308.424815 121.921136 
L 308.482883 120.131787 
L 308.54095 133.424095 
L 308.599017 128.92516 
L 308.715152 128.771787 
L 308.889354 135.775811 
L 308.947421 135.775811 
L 309.005489 135.929183 
L 309.121623 134.242083 
L 309.179691 134.139834 
L 309.295825 133.015101 
L 309.41196 133.015101 
L 309.528095 130.765633 
L 309.586162 130.919006 
L 309.64423 128.516166 
L 309.702297 130.458888 
L 309.760364 130.714509 
L 309.818432 130.510012 
L 309.992634 128.669538 
L 310.108768 130.305515 
L 310.166836 129.896521 
L 310.224903 129.998769 
L 310.28297 129.998769 
L 310.399105 129.28303 
L 310.457172 129.487527 
L 310.51524 129.334154 
L 310.631374 129.334154 
L 310.689442 129.692024 
L 310.747509 132.606107 
L 310.805576 132.350485 
L 310.921711 134.037586 
L 311.037846 129.743148 
L 311.095913 130.305515 
L 311.212048 134.497704 
L 311.328183 134.548828 
L 311.38625 134.395456 
L 311.444317 134.497704 
L 311.618519 134.497704 
L 311.734654 138.434272 
L 311.908856 128.771787 
L 312.083058 128.822911 
L 312.141126 140.172497 
L 312.199193 140.121373 
L 312.25726 140.121373 
L 312.373395 142.37084 
L 312.431462 142.319716 
L 312.48953 141.961846 
L 312.721799 150.806343 
L 312.837934 150.806343 
L 312.896001 148.812497 
L 312.954068 154.48729 
L 313.012136 154.12942 
L 313.070203 154.180544 
L 313.476675 152.697941 
L 313.534742 152.697941 
L 313.650877 157.299124 
L 313.708944 157.299124 
L 313.825079 157.043503 
L 313.941213 155.049657 
L 314.173483 155.100781 
L 314.23155 154.84516 
L 314.289617 154.896284 
L 314.405752 149.988355 
L 314.463819 149.988355 
L 314.521887 153.976047 
L 314.696089 145.233799 
L 314.754156 145.233799 
L 314.812224 147.483266 
L 314.870291 147.125396 
L 314.986426 147.074272 
L 315.160628 137.002793 
L 315.276762 135.264568 
L 315.33483 135.520189 
L 315.392897 135.622438 
L 315.450964 137.053917 
L 315.509032 136.644923 
L 315.567099 136.593799 
L 315.683234 137.053917 
L 315.741301 139.150012 
L 315.857436 126.675692 
L 315.973571 128.20942 
L 316.031638 124.630722 
L 316.089705 126.215574 
L 316.263907 126.215574 
L 316.380042 122.636876 
L 316.496177 122.636876 
L 316.554244 120.336284 
L 316.612311 120.387408 
L 316.670379 120.387408 
L 316.728446 123.914982 
L 316.786513 123.608237 
L 316.902648 119.262675 
L 316.960715 119.262675 
L 317.07685 116.604213 
L 317.134917 116.604213 
L 317.251052 124.323976 
L 317.425254 124.323976 
L 317.541389 124.579598 
L 317.657524 124.579598 
L 317.773658 120.949775 
L 317.831726 120.949775 
L 317.889793 118.546935 
L 318.005928 124.323976 
L 318.18013 115.172734 
L 318.238197 115.121609 
L 318.296264 115.581728 
L 318.412399 117.422201 
L 318.470466 117.473325 
L 318.586601 121.921136 
L 318.702736 117.677822 
L 318.876938 117.626698 
L 318.935005 117.371077 
L 318.993073 117.728947 
L 319.109207 120.182911 
L 319.167275 119.364923 
L 319.283409 133.628592 
L 319.341477 133.270722 
L 319.515679 134.037586 
L 319.573746 134.037586 
L 319.747948 134.599953 
L 319.806016 134.548828 
L 319.864083 134.651077 
L 319.980218 129.640899 
L 320.15442 139.303385 
L 320.270554 138.792142 
L 320.328622 142.677586 
L 320.386689 140.939361 
L 320.502824 135.724686 
L 320.909295 134.855574 
L 321.199632 135.724686 
L 321.257699 135.878059 
L 321.315767 135.724686 
L 321.489969 135.469065 
L 321.606103 134.242083 
L 321.722238 136.49155 
L 321.838373 127.544805 
L 321.954507 127.544805 
L 322.012575 127.902675 
L 322.070642 127.85155 
L 322.128709 127.749302 
L 322.244844 127.186935 
L 322.419046 131.072379 
L 322.535181 131.072379 
L 322.593248 130.919006 
L 322.651316 131.072379 
L 322.76745 131.174627 
L 322.883585 133.168473 
L 322.941652 133.168473 
L 323.057787 135.673562 
L 323.231989 135.673562 
L 323.348124 131.992615 
L 323.406191 131.992615 
L 323.522326 126.52232 
L 323.638461 131.992615 
L 323.696528 124.630722 
L 323.754595 127.186935 
L 323.87073 127.49368 
L 323.986865 125.704331 
L 324.044932 125.959953 
L 324.102999 121.665515 
L 324.161067 123.812734 
L 324.277201 123.761609 
L 324.393336 123.557112 
L 324.451403 126.52232 
L 324.74174 114.865988 
L 325.090144 114.968237 
L 325.148212 118.035692 
L 325.206279 115.837349 
L 325.264346 115.786225 
L 325.380481 115.888473 
L 325.438548 112.718769 
L 325.496616 112.974391 
L 325.670818 112.872142 
L 325.728885 119.313799 
L 325.786952 116.604213 
L 325.84502 116.501964 
L 325.961154 112.463148 
L 326.077289 112.565396 
L 326.135356 112.309775 
L 326.483761 107.299598 
L 326.541828 107.299598 
L 326.71603 107.45297 
L 326.832165 107.45297 
L 326.948299 107.197349 
L 327.064434 109.702438 
L 327.122501 104.590012 
L 327.180569 104.794509 
L 327.238636 104.845633 
L 327.354771 104.436639 
L 327.412838 104.436639 
L 327.470906 104.129893 
L 327.528973 110.57155 
L 327.58704 107.657467 
L 328.225781 107.657467 
L 328.341916 107.197349 
L 328.45805 100.60232 
L 328.516118 100.755692 
L 328.69032 99.733207 
L 328.806455 99.733207 
L 328.864522 100.091077 
L 329.096791 104.538888 
L 329.154859 103.618651 
L 329.270993 106.737231 
L 329.445195 106.788355 
L 329.503263 107.81084 
L 329.677465 95.387645 
L 329.735532 95.336521 
L 329.851667 95.643266 
L 329.909734 95.643266 
L 330.025869 97.585988 
L 330.083936 97.585988 
L 330.142004 95.387645 
L 330.200071 96.307882 
L 330.258138 96.307882 
L 330.43234 98.403976 
L 330.490408 95.745515 
L 330.606542 86.236402 
L 330.838812 83.935811 
L 330.896879 79.692497 
L 331.071081 94.416284 
L 331.187216 89.968473 
L 331.361418 97.074746 
L 331.477553 97.074746 
L 331.593687 97.330367 
L 331.651755 97.330367 
L 331.767889 97.074746 
L 331.942091 95.080899 
L 332.000159 95.080899 
L 332.174361 101.420308 
L 332.232428 101.318059 
L 332.348563 101.982675 
L 332.40663 101.93155 
L 332.696967 93.853917 
L 332.813102 94.416284 
L 332.987304 94.262911 
L 333.045371 94.467408 
L 333.219573 98.506225 
L 333.393775 85.111669 
L 333.50991 88.945988 
L 333.626044 88.945988 
L 333.858314 89.661728 
L 333.974449 88.741491 
L 334.148651 88.690367 
L 334.264785 88.945988 
L 334.38092 88.84374 
L 334.555122 89.508355 
L 334.613189 89.252734 
L 334.729324 91.195456 
L 334.787391 91.24658 
L 334.903526 91.144331 
L 334.961593 87.156639 
L 335.077728 93.496047 
L 335.4842 93.444923 
L 335.600334 93.802793 
L 335.658402 93.802793 
L 335.890671 94.72303 
L 335.948738 94.518533 
L 336.12294 90.275219 
L 336.181008 90.275219 
L 336.35521 85.418414 
L 336.471345 85.418414 
L 336.529412 90.786462 
L 336.645547 85.265041 
L 336.703614 85.265041 
L 336.819749 85.111669 
L 336.993951 91.60445 
L 337.052018 91.911195 
L 337.168153 97.994982 
L 337.22622 97.637112 
L 337.284287 97.790485 
L 337.458489 97.790485 
L 337.574624 92.626935 
L 337.690759 92.626935 
L 337.864961 92.269065 
L 337.923028 92.678059 
L 338.09723 90.786462 
L 338.155298 90.786462 
L 338.213365 90.326343 
L 338.3295 90.786462 
L 338.387567 90.377467 
L 338.445634 90.88871 
L 338.503702 90.837586 
L 338.677904 90.786462 
L 338.735971 85.00942 
L 338.794038 85.111669 
L 338.852106 85.111669 
L 338.968241 90.326343 
L 339.026308 90.070722 
L 339.142443 90.990959 
L 339.20051 89.917349 
L 339.258577 94.518533 
L 339.316645 90.939834 
L 339.374712 90.939834 
L 339.490847 86.747645 
L 339.606981 87.565633 
L 339.839251 105.459124 
L 339.897318 103.107408 
L 339.955385 90.070722 
L 340.013453 90.121846 
L 340.07152 91.093207 
L 340.129587 90.837586 
L 340.419924 90.735337 
L 340.477992 85.111669 
L 340.536059 85.622911 
L 340.652194 85.571787 
L 340.884463 79.641373 
L 341.000598 92.626935 
L 341.290934 81.993089 
L 341.465137 81.53297 
L 341.523204 81.584095 
L 341.581271 81.226225 
L 341.697406 75.500308 
L 341.813541 83.935811 
L 341.871608 83.935811 
L 342.161945 90.990959 
L 342.220012 90.939834 
L 342.278079 90.939834 
L 342.394214 85.674036 
L 342.568416 86.236402 
L 342.626483 86.236402 
L 342.684551 86.492024 
L 343.032955 84.344805 
L 343.265224 75.909302 
L 343.381359 75.858178 
L 343.497494 76.931787 
L 343.671696 71.001373 
L 343.729763 70.643503 
L 343.78783 72.228355 
L 343.962032 82.350959 
L 344.252369 82.402083 
L 344.426571 100.142201 
L 344.484639 100.091077 
L 344.600773 106.379361 
L 344.658841 106.686107 
L 344.716908 106.634982 
L 344.774975 106.634982 
L 345.123379 113.281136 
L 345.239514 113.33226 
L 345.355649 116.041846 
L 345.471784 112.821018 
L 345.529851 113.076639 
L 345.704053 112.207527 
L 345.76212 112.207527 
L 345.878255 112.667645 
L 346.110524 108.373207 
L 346.342794 108.322083 
L 346.458928 112.872142 
L 346.516996 113.025515 
L 346.575063 112.923266 
L 346.749265 112.974391 
L 346.807333 120.694154 
L 346.8654 120.387408 
L 347.097669 120.489657 
L 347.213804 117.16658 
L 347.388006 117.422201 
L 347.562208 116.962083 
L 347.678343 125.141964 
L 347.96868 125.141964 
L 348.026747 128.669538 
L 348.084814 128.311669 
L 348.259016 128.976284 
L 348.317084 128.976284 
L 348.433218 142.268592 
L 348.549353 143.239953 
L 348.781622 135.213444 
L 348.83969 135.213444 
L 348.897757 135.417941 
L 349.246161 128.056047 
L 349.362296 128.056047 
L 349.420363 127.595929 
L 349.478431 127.647053 
L 349.594565 128.056047 
L 349.7107 128.056047 
L 349.884902 137.92303 
L 349.942969 137.92303 
L 350.059104 137.411787 
L 350.175239 135.16232 
L 350.291373 135.520189 
L 350.465576 135.520189 
L 350.58171 138.383148 
L 350.697845 138.434272 
L 350.755912 138.127527 
L 350.872047 135.826935 
L 351.046249 135.775811 
L 351.104316 134.599953 
L 351.220451 144.415811 
L 351.278518 143.700071 
L 351.336586 144.057941 
L 351.394653 144.057941 
L 351.510788 146.614154 
L 351.68499 146.56303 
L 351.859192 148.863621 
L 352.091461 148.863621 
L 352.149529 148.710249 
L 352.207596 148.812497 
L 352.265663 151.317586 
L 352.323731 150.857467 
L 352.497933 150.243976 
L 352.614067 152.340071 
L 352.672135 152.340071 
L 352.788269 152.08445 
L 352.846337 152.08445 
L 352.904404 152.493444 
L 353.078606 155.765396 
L 353.136674 155.765396 
L 353.194741 155.305278 
L 353.252808 155.356402 
L 353.601212 155.356402 
L 353.717347 151.317586 
L 353.775414 151.317586 
L 353.891549 151.675456 
L 353.949616 151.675456 
L 354.065751 148.096757 
L 354.123818 148.096757 
L 354.181886 150.192852 
L 354.239953 150.090604 
L 354.298021 150.243976 
L 354.414155 151.01084 
L 354.472223 151.01084 
L 354.53029 151.266462 
L 354.588357 151.061964 
L 354.704492 150.295101 
L 354.762559 150.295101 
L 354.820627 149.630485 
L 354.878694 149.681609 
L 354.994829 149.579361 
L 355.110963 153.515929 
L 355.227098 145.182675 
L 355.285165 148.147882 
L 355.459367 148.147882 
L 355.575502 148.556876 
L 355.63357 148.403503 
L 355.749704 147.534391 
L 355.807772 147.534391 
L 355.865839 147.790012 
L 355.923906 147.534391 
L 355.981974 147.585515 
L 356.214243 147.483266 
L 356.330378 147.023148 
L 356.50458 147.074272 
L 356.678782 152.646817 
L 357.027186 152.646817 
L 357.085253 152.391195 
L 357.201388 151.317586 
L 357.317523 151.36871 
L 357.491725 146.20516 
L 357.665927 146.56303 
L 357.782061 145.182675 
L 357.956263 145.080426 
L 358.072398 132.554982 
L 358.2466 132.04374 
L 358.304668 132.04374 
L 358.362735 131.788118 
L 358.420802 131.890367 
L 358.536937 131.992615 
L 358.595004 131.532497 
L 358.769206 127.953799 
L 358.885341 127.85155 
L 359.001476 134.548828 
L 359.11761 133.884213 
L 359.175678 134.190959 
L 359.291812 132.861728 
L 359.34988 132.912852 
L 359.466015 128.004923 
L 359.640217 128.004923 
L 359.756351 130.049893 
L 359.814419 130.049893 
L 359.872486 130.407763 
L 359.988621 132.401609 
L 360.162823 130.407763 
L 360.22089 132.810604 
L 360.337025 129.231905 
L 360.685429 129.231905 
L 360.743496 129.027408 
L 360.801564 129.334154 
L 360.917698 131.583621 
L 361.033833 131.123503 
L 361.0919 131.276876 
L 361.149968 132.912852 
L 361.208035 132.657231 
L 361.266102 132.657231 
L 361.382237 132.401609 
L 361.440304 132.401609 
L 361.556439 132.606107 
L 361.614506 132.606107 
L 361.904843 131.890367 
L 362.137113 131.839243 
L 362.253247 132.452734 
L 362.311315 132.299361 
L 362.659719 124.988592 
L 362.775853 124.73297 
L 362.833921 124.73297 
L 362.891988 129.078533 
L 363.008123 119.262675 
L 363.240392 119.313799 
L 363.356527 121.870012 
L 363.414594 121.358769 
L 363.472662 119.058178 
L 363.646864 123.966107 
L 363.879133 123.148118 
L 364.227537 123.148118 
L 364.343672 123.966107 
L 364.459807 129.743148 
L 364.692076 129.845396 
L 364.808211 139.814627 
L 365.156615 139.763503 
L 365.272749 140.070249 
L 365.330817 140.070249 
L 365.446951 131.583621 
L 365.621153 131.583621 
L 365.737288 131.225751 
L 365.795356 131.225751 
L 365.91149 137.462911 
L 365.969558 137.462911 
L 366.027625 136.542675 
L 366.085692 136.644923 
L 366.201827 136.798296 
L 366.317962 136.389302 
L 366.434096 136.389302 
L 366.608298 136.031432 
L 366.7825 132.708355 
L 366.840568 138.383148 
L 366.898635 135.826935 
L 366.956702 135.826935 
L 367.01477 136.593799 
L 367.130905 139.303385 
L 367.188972 139.25226 
L 367.305107 137.411787 
L 367.363174 137.411787 
L 367.537376 128.771787 
L 367.653511 128.516166 
L 367.711578 126.16445 
L 367.827713 131.788118 
L 367.88578 131.532497 
L 367.943847 128.56729 
L 368.001915 128.669538 
L 368.059982 128.669538 
L 368.234184 122.739124 
L 368.350319 122.841373 
L 368.408386 116.859834 
L 368.466454 118.495811 
L 368.524521 116.962083 
L 368.582588 117.268828 
L 368.698723 116.910959 
L 368.872925 116.910959 
L 368.98906 116.348592 
L 369.105194 124.477349 
L 369.163262 124.73297 
L 369.279396 124.272852 
L 369.453598 113.741254 
L 369.569733 113.741254 
L 369.685868 114.610367 
L 369.802003 114.610367 
L 369.976205 114.76374 
L 370.034272 114.76374 
L 370.208474 114.968237 
L 370.266541 114.968237 
L 370.324609 115.326107 
L 370.440743 105.76587 
L 370.498811 105.76587 
L 370.614945 108.322083 
L 370.73108 107.913089 
L 370.847215 108.270959 
L 370.96335 108.270959 
L 371.137552 113.945751 
L 371.195619 113.945751 
L 371.311754 114.201373 
L 371.485956 114.099124 
L 371.60209 113.281136 
L 371.660158 113.383385 
L 371.776292 110.827172 
L 371.892427 121.052024 
L 372.008562 121.052024 
L 372.066629 120.182911 
L 372.473101 104.027645 
L 372.589235 104.385515 
L 372.763437 104.334391 
L 372.821505 103.976521 
L 372.995707 98.250604 
L 373.053774 98.250604 
L 373.169909 99.119716 
L 373.286043 94.620781 
L 373.344111 94.620781 
L 373.402178 94.927527 
L 373.460246 94.569657 
L 373.518313 94.825278 
L 373.634448 94.825278 
L 373.692515 95.029775 
L 373.750582 94.671905 
L 373.80865 94.774154 
L 373.866717 94.72303 
L 374.040919 94.00729 
L 374.098986 94.00729 
L 374.157054 92.780308 
L 374.215121 93.035929 
L 374.331256 93.035929 
L 374.44739 92.780308 
L 374.505458 90.684213 
L 374.563525 90.786462 
L 374.621592 91.860071 
L 374.737727 89.917349 
L 374.795795 91.808947 
L 374.911929 82.504331 
L 375.086131 82.504331 
L 375.202266 83.066698 
L 375.318401 79.590249 
L 375.492603 83.782438 
L 375.608737 86.287527 
L 375.666805 86.338651 
L 375.899074 87.003266 
L 375.957142 87.003266 
L 376.131344 86.338651 
L 376.42168 86.236402 
L 376.479748 86.134154 
L 376.595882 86.901018 
L 376.65395 86.594272 
L 376.712017 86.645396 
L 376.828152 83.373444 
L 376.886219 83.373444 
L 377.002354 88.639243 
L 377.118488 88.84374 
L 377.234623 86.849893 
L 377.292691 86.849893 
L 377.350758 87.105515 
L 377.408825 87.003266 
L 377.52496 87.003266 
L 377.583027 86.747645 
L 377.641095 86.798769 
L 377.699162 87.514509 
L 377.815297 96.614627 
L 377.931431 97.176994 
L 378.047566 96.819124 
L 378.163701 93.240426 
L 378.279835 93.444923 
L 378.39597 93.444923 
L 378.454037 93.138178 
L 378.570172 96.819124 
L 378.62824 92.678059 
L 378.686307 97.432615 
L 378.744374 96.461254 
L 378.802442 96.461254 
L 378.860509 96.665751 
L 378.918576 94.109538 
L 379.092778 98.199479 
L 379.150846 98.199479 
L 379.208913 98.557349 
L 379.325048 87.667882 
L 379.383115 87.77013 
L 379.441182 90.275219 
L 379.49925 89.917349 
L 379.615384 87.821254 
L 379.673452 88.588118 
L 379.847654 108.782201 
L 379.905721 108.731077 
L 379.963789 113.843503 
L 380.021856 113.741254 
L 380.196058 113.639006 
L 380.312193 116.195219 
L 380.428327 116.09297 
L 380.544462 115.581728 
L 380.776731 116.399716 
L 380.834799 113.894627 
L 380.892866 114.354746 
L 381.009001 114.252497 
L 381.067068 117.575574 
L 381.125136 117.319953 
L 381.299338 105.510249 
L 381.357405 104.896757 
L 381.415472 105.152379 
L 381.880011 105.254627 
L 381.938078 101.778178 
L 381.996146 101.93155 
L 382.11228 101.471432 
L 382.170348 103.772024 
L 382.286482 99.426462 
L 382.460685 99.52871 
L 382.518752 100.346698 
L 382.576819 100.24445 
L 382.692954 97.381491 
L 382.809089 101.113562 
L 382.925223 100.704568 
L 382.983291 100.704568 
L 383.099425 100.960189 
L 383.389762 99.835456 
L 383.680099 100.909065 
L 383.738166 100.755692 
L 383.796234 100.857941 
L 383.912368 95.847763 
L 383.970436 95.950012 
L 384.028503 95.950012 
L 384.144638 95.387645 
L 384.260772 95.387645 
L 384.376907 93.547172 
L 384.667244 93.547172 
L 384.725311 93.189302 
L 384.783378 91.144331 
L 384.841446 91.655574 
L 384.899513 91.655574 
L 385.015648 92.064568 
L 385.073715 90.326343 
L 385.131783 100.193325 
L 385.18985 100.091077 
L 385.364052 99.988828 
L 385.422119 101.829302 
L 385.480187 101.624805 
L 385.538254 101.624805 
L 385.770523 104.590012 
L 385.828591 104.538888 
L 385.944725 103.925396 
L 386.06086 104.385515 
L 386.118927 104.385515 
L 386.29313 105.510249 
L 386.467332 115.019361 
L 386.641534 114.917112 
L 386.699601 109.037822 
L 386.757668 109.344568 
L 386.815736 109.344568 
L 386.873803 115.837349 
L 386.93187 112.821018 
L 386.989938 112.821018 
L 387.048005 113.383385 
L 387.16414 116.348592 
L 387.338342 116.195219 
L 387.396409 116.604213 
L 387.686746 114.048 
L 387.744813 113.741254 
L 387.860948 108.679953 
L 387.919015 108.731077 
L 388.03515 114.865988 
L 388.093217 114.712615 
L 388.209352 107.606343 
L 388.267419 108.015337 
L 388.325487 108.015337 
L 388.499689 107.299598 
L 388.557756 107.504095 
L 388.673891 106.277112 
L 388.790026 97.892734 
L 388.90616 97.892734 
L 389.022295 97.585988 
L 389.13843 97.585988 
L 389.196497 97.12587 
L 389.254564 97.381491 
L 389.370699 99.88658 
L 389.486834 99.835456 
L 389.602968 99.426462 
L 389.719103 99.426462 
L 389.835238 99.17084 
L 389.893305 99.273089 
L 390.00944 103.36303 
L 390.067507 103.158533 
L 390.125575 103.158533 
L 390.241709 102.64729 
L 390.299777 102.749538 
L 390.415911 104.385515 
L 390.473979 104.436639 
L 390.590113 107.401846 
L 390.648181 107.043976 
L 390.822383 107.095101 
L 390.938517 103.209657 
L 390.996585 103.516402 
L 391.054652 103.465278 
L 391.112719 103.465278 
L 391.170787 106.277112 
L 391.228854 106.072615 
L 391.286922 104.590012 
L 391.344989 109.600189 
L 391.403056 108.373207 
L 391.461124 108.270959 
L 391.577258 96.870249 
L 391.693393 96.972497 
L 391.75146 91.808947 
L 391.809528 92.115692 
L 391.925662 92.166817 
L 392.099864 89.661728 
L 392.215999 88.997112 
L 392.332134 89.252734 
L 392.448268 89.815101 
L 392.506336 89.815101 
L 392.680538 85.00942 
L 392.796673 84.089183 
L 392.970875 84.089183 
L 393.145077 91.96232 
L 393.261211 91.96232 
L 393.377346 92.115692 
L 393.551548 104.334391 
L 393.667683 104.232142 
L 393.841885 105.356876 
L 393.899952 105.203503 
L 394.016087 108.015337 
L 394.132222 107.759716 
L 394.248356 108.066462 
L 394.306424 107.913089 
L 394.422558 102.749538 
L 394.480626 102.64729 
L 394.59676 97.585988 
L 394.712895 97.585988 
L 394.82903 98.046107 
L 395.003232 93.853917 
L 395.061299 94.262911 
L 395.177434 98.352852 
L 395.235501 97.330367 
L 395.293569 98.659598 
L 395.351636 98.506225 
L 395.467771 98.608473 
L 395.583905 101.880426 
L 395.758107 101.778178 
L 395.816175 101.266935 
L 395.932309 106.737231 
L 395.990377 106.737231 
L 396.048444 110.878296 
L 396.106511 107.45297 
L 396.222646 107.299598 
L 396.280713 103.107408 
L 396.338781 103.823148 
L 396.454916 103.823148 
L 396.57105 103.567527 
L 396.629118 106.634982 
L 396.687185 106.277112 
L 396.745252 104.334391 
L 396.861387 98.097231 
L 396.919454 98.097231 
L 397.093656 99.375337 
L 397.325926 97.381491 
L 397.44206 98.455101 
L 397.616262 98.403976 
L 397.67433 98.455101 
L 397.790465 100.60232 
L 397.964667 100.60232 
L 398.080801 104.641136 
L 398.429205 104.538888 
L 398.487273 98.199479 
L 398.487273 98.199479 
" clip-path="url(#p44e3ec1a18)" style="fill: none; stroke: #1f77b4; stroke-width: 1.5; stroke-linecap: square"/>
   </g>
   <g id="patch_3">
    <path d="M 57.6 307.584 
L 57.6 41.472 
" style="fill: none; stroke: #000000; stroke-width: 0.8; stroke-linejoin: miter; stroke-linecap: square"/>
   </g>
   <g id="patch_4">
    <path d="M 414.72 307.584 
L 414.72 41.472 
" style="fill: none; stroke: #000000; stroke-width: 0.8; stroke-linejoin: miter; stroke-linecap: square"/>
   </g>
   <g id="patch_5">
    <path d="M 57.6 307.584 
L 414.72 307.584 
" style="fill: none; stroke: #000000; stroke-width: 0.8; stroke-linejoin: miter; stroke-linecap: square"/>
   </g>
   <g id="patch_6">
    <path d="M 57.6 41.472 
L 414.72 41.472 
" style="fill: none; stroke: #000000; stroke-width: 0.8; stroke-linejoin: miter; stroke-linecap: square"/>
   </g>
   <g id="text_14">
    <!-- comp02 -->
    <g transform="translate(211.90125 35.472) scale(0.12 -0.12)">
     <defs>
      <path id="DejaVuSans-63" d="M 3122 3366 
L 3122 2828 
Q 2878 2963 2633 3030 
Q 2388 3097 2138 3097 
Q 1578 3097 1268 2742 
Q 959 2388 959 1747 
Q 959 1106 1268 751 
Q 1578 397 2138 397 
Q 2388 397 2633 464 
Q 2878 531 3122 666 
L 3122 134 
Q 2881 22 2623 -34 
Q 2366 -91 2075 -91 
Q 1284 -91 818 406 
Q 353 903 353 1747 
Q 353 2603 823 3093 
Q 1294 3584 2113 3584 
Q 2378 3584 2631 3529 
Q 2884 3475 3122 3366 
z
" transform="scale(0.015625)"/>
      <path id="DejaVuSans-70" d="M 1159 525 
L 1159 -1331 
L 581 -1331 
L 581 3500 
L 1159 3500 
L 1159 2969 
Q 1341 3281 1617 3432 
Q 1894 3584 2278 3584 
Q 2916 3584 3314 3078 
Q 3713 2572 3713 1747 
Q 3713 922 3314 415 
Q 2916 -91 2278 -91 
Q 1894 -91 1617 61 
Q 1341 213 1159 525 
z
M 3116 1747 
Q 3116 2381 2855 2742 
Q 2594 3103 2138 3103 
Q 1681 3103 1420 2742 
Q 1159 2381 1159 1747 
Q 1159 1113 1420 752 
Q 1681 391 2138 391 
Q 2594 391 2855 752 
Q 3116 1113 3116 1747 
z
" transform="scale(0.015625)"/>
     </defs>
     <use xlink:href="#DejaVuSans-63"/>
     <use xlink:href="#DejaVuSans-6f" x="54.980469"/>
     <use xlink:href="#DejaVuSans-6d" x="116.162109"/>
     <use xlink:href="#DejaVuSans-70" x="213.574219"/>
     <use xlink:href="#DejaVuSans-30" x="277.050781"/>
     <use xlink:href="#DejaVuSans-32" x="340.673828"/>
    </g>
   </g>
  </g>
 </g>
 <defs>
  <clipPath id="p44e3ec1a18">
   <rect x="57.6" y="41.472" width="357.12" height="266.112"/>
  </clipPath>
 </defs>
</svg>
