<?xml version="1.0" encoding="utf-8" standalone="no"?>
<!DOCTYPE svg PUBLIC "-//W3C//DTD SVG 1.1//EN"
  "http://www.w3.org/Graphics/SVG/1.1/DTD/svg11.dtd">
<svg xmlns:xlink="http://www.w3.org/1999/xlink" width="460.8pt" height="345.6pt" viewBox="0 0 460.8 345.6" xmlns="http://www.w3.org/2000/svg" version="1.1">
 <metadata>
  <rdf:RDF xmlns:dc="http://purl.org/dc/elements/1.1/" xmlns:cc="http://creativecommons.org/ns#" xmlns:rdf="http://www.w3.org/1999/02/22-rdf-syntax-ns#">
   <cc:Work>
    <dc:type rdf:resource="http://purl.org/dc/dcmitype/StillImage"/>
    <dc:date>2023-12-03T18:15:54.588379</dc:date>
    <dc:format>image/svg+xml</dc:format>
    <dc:creator>
     <cc:Agent>
      <dc:title>Matplotlib v3.7.1, https://matplotlib.org/</dc:title>
     </cc:Agent>
    </dc:creator>
   </cc:Work>
  </rdf:RDF>
 </metadata>
 <defs>
  <style type="text/css">*{stroke-linejoin: round; stroke-linecap: butt}</style>
 </defs>
 <g id="figure_1">
  <g id="patch_1">
   <path d="M 0 345.6 
L 460.8 345.6 
L 460.8 0 
L 0 0 
z
" style="fill: #ffffff"/>
  </g>
  <g id="axes_1">
   <g id="patch_2">
    <path d="M 57.6 307.584 
L 414.72 307.584 
L 414.72 41.472 
L 57.6 41.472 
z
" style="fill: #ffffff"/>
   </g>
   <g id="matplotlib.axis_1">
    <g id="xtick_1">
     <g id="line2d_1">
      <defs>
       <path id="m35c49ef44e" d="M 0 0 
L 0 3.5 
" style="stroke: #000000; stroke-width: 0.8"/>
      </defs>
      <g>
       <use xlink:href="#m35c49ef44e" x="73.832727" y="307.584" style="stroke: #000000; stroke-width: 0.8"/>
      </g>
     </g>
     <g id="text_1">
      <!-- 0 -->
      <g transform="translate(70.651477 322.182437) scale(0.1 -0.1)">
       <defs>
        <path id="DejaVuSans-30" d="M 2034 4250 
Q 1547 4250 1301 3770 
Q 1056 3291 1056 2328 
Q 1056 1369 1301 889 
Q 1547 409 2034 409 
Q 2525 409 2770 889 
Q 3016 1369 3016 2328 
Q 3016 3291 2770 3770 
Q 2525 4250 2034 4250 
z
M 2034 4750 
Q 2819 4750 3233 4129 
Q 3647 3509 3647 2328 
Q 3647 1150 3233 529 
Q 2819 -91 2034 -91 
Q 1250 -91 836 529 
Q 422 1150 422 2328 
Q 422 3509 836 4129 
Q 1250 4750 2034 4750 
z
" transform="scale(0.015625)"/>
       </defs>
       <use xlink:href="#DejaVuSans-30"/>
      </g>
     </g>
    </g>
    <g id="xtick_2">
     <g id="line2d_2">
      <g>
       <use xlink:href="#m35c49ef44e" x="151.223561" y="307.584" style="stroke: #000000; stroke-width: 0.8"/>
      </g>
     </g>
     <g id="text_2">
      <!-- 1000 -->
      <g transform="translate(138.498561 322.182437) scale(0.1 -0.1)">
       <defs>
        <path id="DejaVuSans-31" d="M 794 531 
L 1825 531 
L 1825 4091 
L 703 3866 
L 703 4441 
L 1819 4666 
L 2450 4666 
L 2450 531 
L 3481 531 
L 3481 0 
L 794 0 
L 794 531 
z
" transform="scale(0.015625)"/>
       </defs>
       <use xlink:href="#DejaVuSans-31"/>
       <use xlink:href="#DejaVuSans-30" x="63.623047"/>
       <use xlink:href="#DejaVuSans-30" x="127.246094"/>
       <use xlink:href="#DejaVuSans-30" x="190.869141"/>
      </g>
     </g>
    </g>
    <g id="xtick_3">
     <g id="line2d_3">
      <g>
       <use xlink:href="#m35c49ef44e" x="228.614394" y="307.584" style="stroke: #000000; stroke-width: 0.8"/>
      </g>
     </g>
     <g id="text_3">
      <!-- 2000 -->
      <g transform="translate(215.889394 322.182437) scale(0.1 -0.1)">
       <defs>
        <path id="DejaVuSans-32" d="M 1228 531 
L 3431 531 
L 3431 0 
L 469 0 
L 469 531 
Q 828 903 1448 1529 
Q 2069 2156 2228 2338 
Q 2531 2678 2651 2914 
Q 2772 3150 2772 3378 
Q 2772 3750 2511 3984 
Q 2250 4219 1831 4219 
Q 1534 4219 1204 4116 
Q 875 4013 500 3803 
L 500 4441 
Q 881 4594 1212 4672 
Q 1544 4750 1819 4750 
Q 2544 4750 2975 4387 
Q 3406 4025 3406 3419 
Q 3406 3131 3298 2873 
Q 3191 2616 2906 2266 
Q 2828 2175 2409 1742 
Q 1991 1309 1228 531 
z
" transform="scale(0.015625)"/>
       </defs>
       <use xlink:href="#DejaVuSans-32"/>
       <use xlink:href="#DejaVuSans-30" x="63.623047"/>
       <use xlink:href="#DejaVuSans-30" x="127.246094"/>
       <use xlink:href="#DejaVuSans-30" x="190.869141"/>
      </g>
     </g>
    </g>
    <g id="xtick_4">
     <g id="line2d_4">
      <g>
       <use xlink:href="#m35c49ef44e" x="306.005227" y="307.584" style="stroke: #000000; stroke-width: 0.8"/>
      </g>
     </g>
     <g id="text_4">
      <!-- 3000 -->
      <g transform="translate(293.280227 322.182437) scale(0.1 -0.1)">
       <defs>
        <path id="DejaVuSans-33" d="M 2597 2516 
Q 3050 2419 3304 2112 
Q 3559 1806 3559 1356 
Q 3559 666 3084 287 
Q 2609 -91 1734 -91 
Q 1441 -91 1130 -33 
Q 819 25 488 141 
L 488 750 
Q 750 597 1062 519 
Q 1375 441 1716 441 
Q 2309 441 2620 675 
Q 2931 909 2931 1356 
Q 2931 1769 2642 2001 
Q 2353 2234 1838 2234 
L 1294 2234 
L 1294 2753 
L 1863 2753 
Q 2328 2753 2575 2939 
Q 2822 3125 2822 3475 
Q 2822 3834 2567 4026 
Q 2313 4219 1838 4219 
Q 1578 4219 1281 4162 
Q 984 4106 628 3988 
L 628 4550 
Q 988 4650 1302 4700 
Q 1616 4750 1894 4750 
Q 2613 4750 3031 4423 
Q 3450 4097 3450 3541 
Q 3450 3153 3228 2886 
Q 3006 2619 2597 2516 
z
" transform="scale(0.015625)"/>
       </defs>
       <use xlink:href="#DejaVuSans-33"/>
       <use xlink:href="#DejaVuSans-30" x="63.623047"/>
       <use xlink:href="#DejaVuSans-30" x="127.246094"/>
       <use xlink:href="#DejaVuSans-30" x="190.869141"/>
      </g>
     </g>
    </g>
    <g id="xtick_5">
     <g id="line2d_5">
      <g>
       <use xlink:href="#m35c49ef44e" x="383.39606" y="307.584" style="stroke: #000000; stroke-width: 0.8"/>
      </g>
     </g>
     <g id="text_5">
      <!-- 4000 -->
      <g transform="translate(370.67106 322.182437) scale(0.1 -0.1)">
       <defs>
        <path id="DejaVuSans-34" d="M 2419 4116 
L 825 1625 
L 2419 1625 
L 2419 4116 
z
M 2253 4666 
L 3047 4666 
L 3047 1625 
L 3713 1625 
L 3713 1100 
L 3047 1100 
L 3047 0 
L 2419 0 
L 2419 1100 
L 313 1100 
L 313 1709 
L 2253 4666 
z
" transform="scale(0.015625)"/>
       </defs>
       <use xlink:href="#DejaVuSans-34"/>
       <use xlink:href="#DejaVuSans-30" x="63.623047"/>
       <use xlink:href="#DejaVuSans-30" x="127.246094"/>
       <use xlink:href="#DejaVuSans-30" x="190.869141"/>
      </g>
     </g>
    </g>
    <g id="text_6">
     <!-- iteration -->
     <g transform="translate(215.037344 335.860562) scale(0.1 -0.1)">
      <defs>
       <path id="DejaVuSans-69" d="M 603 3500 
L 1178 3500 
L 1178 0 
L 603 0 
L 603 3500 
z
M 603 4863 
L 1178 4863 
L 1178 4134 
L 603 4134 
L 603 4863 
z
" transform="scale(0.015625)"/>
       <path id="DejaVuSans-74" d="M 1172 4494 
L 1172 3500 
L 2356 3500 
L 2356 3053 
L 1172 3053 
L 1172 1153 
Q 1172 725 1289 603 
Q 1406 481 1766 481 
L 2356 481 
L 2356 0 
L 1766 0 
Q 1100 0 847 248 
Q 594 497 594 1153 
L 594 3053 
L 172 3053 
L 172 3500 
L 594 3500 
L 594 4494 
L 1172 4494 
z
" transform="scale(0.015625)"/>
       <path id="DejaVuSans-65" d="M 3597 1894 
L 3597 1613 
L 953 1613 
Q 991 1019 1311 708 
Q 1631 397 2203 397 
Q 2534 397 2845 478 
Q 3156 559 3463 722 
L 3463 178 
Q 3153 47 2828 -22 
Q 2503 -91 2169 -91 
Q 1331 -91 842 396 
Q 353 884 353 1716 
Q 353 2575 817 3079 
Q 1281 3584 2069 3584 
Q 2775 3584 3186 3129 
Q 3597 2675 3597 1894 
z
M 3022 2063 
Q 3016 2534 2758 2815 
Q 2500 3097 2075 3097 
Q 1594 3097 1305 2825 
Q 1016 2553 972 2059 
L 3022 2063 
z
" transform="scale(0.015625)"/>
       <path id="DejaVuSans-72" d="M 2631 2963 
Q 2534 3019 2420 3045 
Q 2306 3072 2169 3072 
Q 1681 3072 1420 2755 
Q 1159 2438 1159 1844 
L 1159 0 
L 581 0 
L 581 3500 
L 1159 3500 
L 1159 2956 
Q 1341 3275 1631 3429 
Q 1922 3584 2338 3584 
Q 2397 3584 2469 3576 
Q 2541 3569 2628 3553 
L 2631 2963 
z
" transform="scale(0.015625)"/>
       <path id="DejaVuSans-61" d="M 2194 1759 
Q 1497 1759 1228 1600 
Q 959 1441 959 1056 
Q 959 750 1161 570 
Q 1363 391 1709 391 
Q 2188 391 2477 730 
Q 2766 1069 2766 1631 
L 2766 1759 
L 2194 1759 
z
M 3341 1997 
L 3341 0 
L 2766 0 
L 2766 531 
Q 2569 213 2275 61 
Q 1981 -91 1556 -91 
Q 1019 -91 701 211 
Q 384 513 384 1019 
Q 384 1609 779 1909 
Q 1175 2209 1959 2209 
L 2766 2209 
L 2766 2266 
Q 2766 2663 2505 2880 
Q 2244 3097 1772 3097 
Q 1472 3097 1187 3025 
Q 903 2953 641 2809 
L 641 3341 
Q 956 3463 1253 3523 
Q 1550 3584 1831 3584 
Q 2591 3584 2966 3190 
Q 3341 2797 3341 1997 
z
" transform="scale(0.015625)"/>
       <path id="DejaVuSans-6f" d="M 1959 3097 
Q 1497 3097 1228 2736 
Q 959 2375 959 1747 
Q 959 1119 1226 758 
Q 1494 397 1959 397 
Q 2419 397 2687 759 
Q 2956 1122 2956 1747 
Q 2956 2369 2687 2733 
Q 2419 3097 1959 3097 
z
M 1959 3584 
Q 2709 3584 3137 3096 
Q 3566 2609 3566 1747 
Q 3566 888 3137 398 
Q 2709 -91 1959 -91 
Q 1206 -91 779 398 
Q 353 888 353 1747 
Q 353 2609 779 3096 
Q 1206 3584 1959 3584 
z
" transform="scale(0.015625)"/>
       <path id="DejaVuSans-6e" d="M 3513 2113 
L 3513 0 
L 2938 0 
L 2938 2094 
Q 2938 2591 2744 2837 
Q 2550 3084 2163 3084 
Q 1697 3084 1428 2787 
Q 1159 2491 1159 1978 
L 1159 0 
L 581 0 
L 581 3500 
L 1159 3500 
L 1159 2956 
Q 1366 3272 1645 3428 
Q 1925 3584 2291 3584 
Q 2894 3584 3203 3211 
Q 3513 2838 3513 2113 
z
" transform="scale(0.015625)"/>
      </defs>
      <use xlink:href="#DejaVuSans-69"/>
      <use xlink:href="#DejaVuSans-74" x="27.783203"/>
      <use xlink:href="#DejaVuSans-65" x="66.992188"/>
      <use xlink:href="#DejaVuSans-72" x="128.515625"/>
      <use xlink:href="#DejaVuSans-61" x="169.628906"/>
      <use xlink:href="#DejaVuSans-74" x="230.908203"/>
      <use xlink:href="#DejaVuSans-69" x="270.117188"/>
      <use xlink:href="#DejaVuSans-6f" x="297.900391"/>
      <use xlink:href="#DejaVuSans-6e" x="359.082031"/>
     </g>
    </g>
   </g>
   <g id="matplotlib.axis_2">
    <g id="ytick_1">
     <g id="line2d_6">
      <defs>
       <path id="m0852914513" d="M 0 0 
L -3.5 0 
" style="stroke: #000000; stroke-width: 0.8"/>
      </defs>
      <g>
       <use xlink:href="#m0852914513" x="57.6" y="280.679609" style="stroke: #000000; stroke-width: 0.8"/>
      </g>
     </g>
     <g id="text_7">
      <!-- 500 -->
      <g transform="translate(31.5125 284.478827) scale(0.1 -0.1)">
       <defs>
        <path id="DejaVuSans-35" d="M 691 4666 
L 3169 4666 
L 3169 4134 
L 1269 4134 
L 1269 2991 
Q 1406 3038 1543 3061 
Q 1681 3084 1819 3084 
Q 2600 3084 3056 2656 
Q 3513 2228 3513 1497 
Q 3513 744 3044 326 
Q 2575 -91 1722 -91 
Q 1428 -91 1123 -41 
Q 819 9 494 109 
L 494 744 
Q 775 591 1075 516 
Q 1375 441 1709 441 
Q 2250 441 2565 725 
Q 2881 1009 2881 1497 
Q 2881 1984 2565 2268 
Q 2250 2553 1709 2553 
Q 1456 2553 1204 2497 
Q 953 2441 691 2322 
L 691 4666 
z
" transform="scale(0.015625)"/>
       </defs>
       <use xlink:href="#DejaVuSans-35"/>
       <use xlink:href="#DejaVuSans-30" x="63.623047"/>
       <use xlink:href="#DejaVuSans-30" x="127.246094"/>
      </g>
     </g>
    </g>
    <g id="ytick_2">
     <g id="line2d_7">
      <g>
       <use xlink:href="#m0852914513" x="57.6" y="243.472596" style="stroke: #000000; stroke-width: 0.8"/>
      </g>
     </g>
     <g id="text_8">
      <!-- 1000 -->
      <g transform="translate(25.15 247.271814) scale(0.1 -0.1)">
       <use xlink:href="#DejaVuSans-31"/>
       <use xlink:href="#DejaVuSans-30" x="63.623047"/>
       <use xlink:href="#DejaVuSans-30" x="127.246094"/>
       <use xlink:href="#DejaVuSans-30" x="190.869141"/>
      </g>
     </g>
    </g>
    <g id="ytick_3">
     <g id="line2d_8">
      <g>
       <use xlink:href="#m0852914513" x="57.6" y="206.265582" style="stroke: #000000; stroke-width: 0.8"/>
      </g>
     </g>
     <g id="text_9">
      <!-- 1500 -->
      <g transform="translate(25.15 210.064801) scale(0.1 -0.1)">
       <use xlink:href="#DejaVuSans-31"/>
       <use xlink:href="#DejaVuSans-35" x="63.623047"/>
       <use xlink:href="#DejaVuSans-30" x="127.246094"/>
       <use xlink:href="#DejaVuSans-30" x="190.869141"/>
      </g>
     </g>
    </g>
    <g id="ytick_4">
     <g id="line2d_9">
      <g>
       <use xlink:href="#m0852914513" x="57.6" y="169.058569" style="stroke: #000000; stroke-width: 0.8"/>
      </g>
     </g>
     <g id="text_10">
      <!-- 2000 -->
      <g transform="translate(25.15 172.857788) scale(0.1 -0.1)">
       <use xlink:href="#DejaVuSans-32"/>
       <use xlink:href="#DejaVuSans-30" x="63.623047"/>
       <use xlink:href="#DejaVuSans-30" x="127.246094"/>
       <use xlink:href="#DejaVuSans-30" x="190.869141"/>
      </g>
     </g>
    </g>
    <g id="ytick_5">
     <g id="line2d_10">
      <g>
       <use xlink:href="#m0852914513" x="57.6" y="131.851556" style="stroke: #000000; stroke-width: 0.8"/>
      </g>
     </g>
     <g id="text_11">
      <!-- 2500 -->
      <g transform="translate(25.15 135.650775) scale(0.1 -0.1)">
       <use xlink:href="#DejaVuSans-32"/>
       <use xlink:href="#DejaVuSans-35" x="63.623047"/>
       <use xlink:href="#DejaVuSans-30" x="127.246094"/>
       <use xlink:href="#DejaVuSans-30" x="190.869141"/>
      </g>
     </g>
    </g>
    <g id="ytick_6">
     <g id="line2d_11">
      <g>
       <use xlink:href="#m0852914513" x="57.6" y="94.644543" style="stroke: #000000; stroke-width: 0.8"/>
      </g>
     </g>
     <g id="text_12">
      <!-- 3000 -->
      <g transform="translate(25.15 98.443761) scale(0.1 -0.1)">
       <use xlink:href="#DejaVuSans-33"/>
       <use xlink:href="#DejaVuSans-30" x="63.623047"/>
       <use xlink:href="#DejaVuSans-30" x="127.246094"/>
       <use xlink:href="#DejaVuSans-30" x="190.869141"/>
      </g>
     </g>
    </g>
    <g id="ytick_7">
     <g id="line2d_12">
      <g>
       <use xlink:href="#m0852914513" x="57.6" y="57.437529" style="stroke: #000000; stroke-width: 0.8"/>
      </g>
     </g>
     <g id="text_13">
      <!-- 3500 -->
      <g transform="translate(25.15 61.236748) scale(0.1 -0.1)">
       <use xlink:href="#DejaVuSans-33"/>
       <use xlink:href="#DejaVuSans-35" x="63.623047"/>
       <use xlink:href="#DejaVuSans-30" x="127.246094"/>
       <use xlink:href="#DejaVuSans-30" x="190.869141"/>
      </g>
     </g>
    </g>
    <g id="text_14">
     <!-- best fitness of swarm -->
     <g transform="translate(19.070312 228.0905) rotate(-90) scale(0.1 -0.1)">
      <defs>
       <path id="DejaVuSans-62" d="M 3116 1747 
Q 3116 2381 2855 2742 
Q 2594 3103 2138 3103 
Q 1681 3103 1420 2742 
Q 1159 2381 1159 1747 
Q 1159 1113 1420 752 
Q 1681 391 2138 391 
Q 2594 391 2855 752 
Q 3116 1113 3116 1747 
z
M 1159 2969 
Q 1341 3281 1617 3432 
Q 1894 3584 2278 3584 
Q 2916 3584 3314 3078 
Q 3713 2572 3713 1747 
Q 3713 922 3314 415 
Q 2916 -91 2278 -91 
Q 1894 -91 1617 61 
Q 1341 213 1159 525 
L 1159 0 
L 581 0 
L 581 4863 
L 1159 4863 
L 1159 2969 
z
" transform="scale(0.015625)"/>
       <path id="DejaVuSans-73" d="M 2834 3397 
L 2834 2853 
Q 2591 2978 2328 3040 
Q 2066 3103 1784 3103 
Q 1356 3103 1142 2972 
Q 928 2841 928 2578 
Q 928 2378 1081 2264 
Q 1234 2150 1697 2047 
L 1894 2003 
Q 2506 1872 2764 1633 
Q 3022 1394 3022 966 
Q 3022 478 2636 193 
Q 2250 -91 1575 -91 
Q 1294 -91 989 -36 
Q 684 19 347 128 
L 347 722 
Q 666 556 975 473 
Q 1284 391 1588 391 
Q 1994 391 2212 530 
Q 2431 669 2431 922 
Q 2431 1156 2273 1281 
Q 2116 1406 1581 1522 
L 1381 1569 
Q 847 1681 609 1914 
Q 372 2147 372 2553 
Q 372 3047 722 3315 
Q 1072 3584 1716 3584 
Q 2034 3584 2315 3537 
Q 2597 3491 2834 3397 
z
" transform="scale(0.015625)"/>
       <path id="DejaVuSans-20" transform="scale(0.015625)"/>
       <path id="DejaVuSans-66" d="M 2375 4863 
L 2375 4384 
L 1825 4384 
Q 1516 4384 1395 4259 
Q 1275 4134 1275 3809 
L 1275 3500 
L 2222 3500 
L 2222 3053 
L 1275 3053 
L 1275 0 
L 697 0 
L 697 3053 
L 147 3053 
L 147 3500 
L 697 3500 
L 697 3744 
Q 697 4328 969 4595 
Q 1241 4863 1831 4863 
L 2375 4863 
z
" transform="scale(0.015625)"/>
       <path id="DejaVuSans-77" d="M 269 3500 
L 844 3500 
L 1563 769 
L 2278 3500 
L 2956 3500 
L 3675 769 
L 4391 3500 
L 4966 3500 
L 4050 0 
L 3372 0 
L 2619 2869 
L 1863 0 
L 1184 0 
L 269 3500 
z
" transform="scale(0.015625)"/>
       <path id="DejaVuSans-6d" d="M 3328 2828 
Q 3544 3216 3844 3400 
Q 4144 3584 4550 3584 
Q 5097 3584 5394 3201 
Q 5691 2819 5691 2113 
L 5691 0 
L 5113 0 
L 5113 2094 
Q 5113 2597 4934 2840 
Q 4756 3084 4391 3084 
Q 3944 3084 3684 2787 
Q 3425 2491 3425 1978 
L 3425 0 
L 2847 0 
L 2847 2094 
Q 2847 2600 2669 2842 
Q 2491 3084 2119 3084 
Q 1678 3084 1418 2786 
Q 1159 2488 1159 1978 
L 1159 0 
L 581 0 
L 581 3500 
L 1159 3500 
L 1159 2956 
Q 1356 3278 1631 3431 
Q 1906 3584 2284 3584 
Q 2666 3584 2933 3390 
Q 3200 3197 3328 2828 
z
" transform="scale(0.015625)"/>
      </defs>
      <use xlink:href="#DejaVuSans-62"/>
      <use xlink:href="#DejaVuSans-65" x="63.476562"/>
      <use xlink:href="#DejaVuSans-73" x="125"/>
      <use xlink:href="#DejaVuSans-74" x="177.099609"/>
      <use xlink:href="#DejaVuSans-20" x="216.308594"/>
      <use xlink:href="#DejaVuSans-66" x="248.095703"/>
      <use xlink:href="#DejaVuSans-69" x="283.300781"/>
      <use xlink:href="#DejaVuSans-74" x="311.083984"/>
      <use xlink:href="#DejaVuSans-6e" x="350.292969"/>
      <use xlink:href="#DejaVuSans-65" x="413.671875"/>
      <use xlink:href="#DejaVuSans-73" x="475.195312"/>
      <use xlink:href="#DejaVuSans-73" x="527.294922"/>
      <use xlink:href="#DejaVuSans-20" x="579.394531"/>
      <use xlink:href="#DejaVuSans-6f" x="611.181641"/>
      <use xlink:href="#DejaVuSans-66" x="672.363281"/>
      <use xlink:href="#DejaVuSans-20" x="707.568359"/>
      <use xlink:href="#DejaVuSans-73" x="739.355469"/>
      <use xlink:href="#DejaVuSans-77" x="791.455078"/>
      <use xlink:href="#DejaVuSans-61" x="873.242188"/>
      <use xlink:href="#DejaVuSans-72" x="934.521484"/>
      <use xlink:href="#DejaVuSans-6d" x="973.884766"/>
     </g>
    </g>
   </g>
   <g id="line2d_13">
    <path d="M 73.832727 295.488 
L 73.910118 295.413586 
L 74.0649 294.148548 
L 74.142291 293.999719 
L 74.219681 294.074133 
L 74.297072 291.320815 
L 74.374463 291.469643 
L 74.451854 291.097572 
L 74.529245 291.841713 
L 74.606636 291.767299 
L 74.761417 287.972183 
L 74.838808 287.972183 
L 74.99359 287.600113 
L 75.070981 287.451285 
L 75.225762 285.442106 
L 75.457935 285.070036 
L 75.612716 285.070036 
L 75.767498 276.214767 
L 75.92228 275.470627 
L 75.999671 275.545041 
L 76.077061 275.396213 
L 76.154452 279.712226 
L 76.231843 279.488984 
L 76.386625 279.488984 
L 76.541406 270.261645 
L 76.773579 270.187231 
L 76.928361 277.405392 
L 77.005751 277.405392 
L 77.315315 274.875315 
L 77.392706 274.800901 
L 77.547487 273.982346 
L 77.702269 274.652073 
L 77.934441 261.629618 
L 78.011832 261.629618 
L 78.166614 259.918095 
L 78.321396 263.192313 
L 78.398786 253.741731 
L 78.476177 254.485871 
L 78.70835 254.560285 
L 78.785741 254.560285 
L 78.940522 248.607163 
L 79.095304 248.458335 
L 79.172695 248.607163 
L 79.327476 248.383921 
L 79.482258 248.383921 
L 79.559649 248.235093 
L 79.63704 242.207557 
L 79.714431 242.654041 
L 79.791821 240.942519 
L 79.946603 233.352288 
L 80.023994 233.352288 
L 80.178776 233.129046 
L 80.256166 231.343109 
L 80.333557 234.617326 
L 80.488339 230.375727 
L 80.56573 230.375727 
L 80.720511 224.124949 
L 80.797902 224.199363 
L 80.952684 225.762057 
L 81.107466 225.762057 
L 81.184856 224.273777 
L 81.339638 225.762057 
L 81.417029 225.910885 
L 81.571811 223.678464 
L 81.726592 223.678464 
L 81.803983 223.529636 
L 81.958765 215.269679 
L 82.42311 215.269679 
L 82.500501 223.306394 
L 82.577891 222.562254 
L 82.732673 216.832374 
L 82.887455 216.832374 
L 82.964846 216.311476 
L 83.119627 223.678464 
L 83.274409 223.60405 
L 83.429191 225.166745 
L 83.583972 225.166745 
L 83.661363 231.417523 
L 83.738754 230.598969 
L 83.816145 230.598969 
L 83.893536 230.301313 
L 84.048317 223.157566 
L 84.203099 223.157566 
L 84.435271 222.785496 
L 84.590053 222.934324 
L 84.744835 222.562254 
L 84.899616 223.083152 
L 85.054398 223.008738 
L 85.131789 221.520458 
L 85.20918 217.799756 
L 85.286571 217.948584 
L 85.518743 216.832374 
L 85.673525 216.832374 
L 85.828306 212.516361 
L 86.13787 212.069876 
L 86.292651 212.069876 
L 86.447433 213.260501 
L 86.524824 213.260501 
L 86.602215 213.558157 
L 86.679606 212.367532 
L 86.756996 221.148388 
L 86.911778 217.204444 
L 86.989169 217.204444 
L 87.143951 216.981202 
L 87.221341 216.981202 
L 87.453514 205.000544 
L 87.685686 205.000544 
L 87.763077 204.851716 
L 87.840468 208.349175 
L 87.917859 207.753863 
L 88.072641 207.381793 
L 88.150031 207.307379 
L 88.382204 206.637652 
L 88.769158 206.637652 
L 88.92394 205.447028 
L 89.001331 205.595856 
L 89.156112 206.488824 
L 89.310894 211.548978 
L 89.465676 212.441946 
L 89.543066 211.995462 
L 89.697848 203.586677 
L 89.775239 203.586677 
L 89.930021 197.782383 
L 90.007411 204.479646 
L 90.084802 183.718132 
L 90.162193 183.86696 
L 90.316975 178.657978 
L 90.471756 178.434736 
L 90.626538 178.583564 
L 90.78132 178.583564 
L 90.858711 179.030049 
L 91.013492 172.704856 
L 91.090883 172.704856 
L 91.245665 173.374583 
L 91.400446 168.388843 
L 91.555228 167.347046 
L 91.71001 173.821067 
L 91.787401 173.821067 
L 91.942182 171.588646 
L 92.019573 171.588646 
L 92.174355 173.597825 
L 92.6387 172.109544 
L 92.793481 163.477517 
L 92.870872 163.477517 
L 93.025654 159.235918 
L 93.103045 159.310332 
L 93.257826 159.08709 
L 93.412608 146.213463 
L 93.489999 146.213463 
L 93.644781 141.897449 
L 93.722171 141.897449 
L 93.799562 138.325576 
L 93.954344 143.832214 
L 94.031735 143.7578 
L 94.109126 144.353112 
L 94.263907 137.432608 
L 94.49608 137.507022 
L 94.650861 133.191008 
L 94.805643 133.339836 
L 94.883034 133.191008 
L 94.960425 133.339836 
L 95.115206 128.726167 
L 95.347379 124.782223 
L 95.42477 124.782223 
L 95.502161 122.103318 
L 95.656942 125.228707 
L 95.811724 123.293943 
L 95.966506 123.293943 
L 96.121287 122.549803 
L 96.35346 122.475388 
L 96.430851 135.274601 
L 96.508241 130.288861 
L 96.585632 130.288861 
L 96.663023 127.833198 
L 96.740414 128.428511 
L 96.895196 128.428511 
L 97.204759 128.874995 
L 97.359541 128.874995 
L 97.514322 129.767963 
L 97.591713 129.767963 
L 97.669104 129.395893 
L 97.746495 129.991205 
L 97.901276 129.470307 
L 97.978667 129.767963 
L 98.133449 118.829101 
L 98.288231 119.052343 
L 98.443012 121.061522 
L 98.520403 121.061522 
L 98.752576 121.284764 
L 98.829966 121.284764 
L 98.907357 120.689452 
L 98.984748 121.95449 
L 99.062139 121.880076 
L 99.13953 121.731248 
L 99.216921 121.061522 
L 99.371702 122.028904 
L 99.449093 130.586517 
L 99.526484 130.437689 
L 99.913438 130.437689 
L 99.990829 134.009563 
L 100.145611 125.005465 
L 100.300392 125.005465 
L 100.377783 124.782223 
L 100.455174 122.32656 
L 100.609956 104.169538 
L 100.687346 104.541608 
L 100.764737 104.541608 
L 100.919519 104.169538 
L 100.99691 104.169538 
L 101.074301 104.39278 
L 101.151691 101.267391 
L 101.229082 101.416219 
L 101.306473 108.187895 
L 101.383864 108.113481 
L 101.461255 108.113481 
L 101.616036 111.610941 
L 101.9256 111.908597 
L 102.080381 118.382617 
L 102.157772 118.531445 
L 102.312554 102.234773 
L 102.389945 97.621104 
L 102.544726 103.723054 
L 102.776899 103.723054 
L 102.931681 107.964653 
L 103.086462 108.262309 
L 103.241244 107.964653 
L 103.318635 103.723054 
L 103.396026 105.360162 
L 103.550807 105.360162 
L 103.705589 106.550787 
L 103.78298 104.39278 
L 103.937761 97.54669 
L 104.092543 97.54669 
L 104.247325 119.424413 
L 104.324716 120.689452 
L 104.479497 111.090042 
L 104.634279 111.090042 
L 104.71167 110.8668 
L 105.021233 113.322463 
L 105.176015 112.652737 
L 105.253406 112.355081 
L 105.408187 110.271488 
L 105.64036 110.792386 
L 105.717751 120.987108 
L 105.795141 120.912694 
L 105.949923 123.814841 
L 106.027314 123.740427 
L 106.104705 123.963669 
L 106.182096 123.666013 
L 106.259486 119.647655 
L 106.336877 120.615038 
L 106.414268 120.540624 
L 106.491659 119.424413 
L 106.646441 114.141018 
L 106.723831 114.141018 
L 107.033395 130.065619 
L 107.110786 142.864832 
L 107.420349 123.591599 
L 107.49774 124.038083 
L 107.807303 131.777142 
L 107.962085 131.702728 
L 108.116866 131.107416 
L 108.42643 132.29804 
L 108.581211 127.089058 
L 108.658602 127.089058 
L 108.890775 115.778126 
L 109.045556 122.177732 
L 109.122947 122.32656 
L 109.200338 122.028904 
L 109.277729 120.317382 
L 109.35512 120.615038 
L 109.432511 120.391796 
L 109.509901 121.061522 
L 109.664683 120.689452 
L 109.819465 120.689452 
L 109.896856 120.689452 
L 110.129028 118.084961 
L 110.28381 110.792386 
L 110.361201 116.59668 
L 110.438591 116.447852 
L 110.593373 116.447852 
L 110.748155 116.150196 
L 110.902936 123.219529 
L 110.980327 123.219529 
L 111.135109 123.442771 
L 111.2125 123.517185 
L 111.367281 123.963669 
L 111.522063 123.889255 
L 111.676845 124.261325 
L 111.754236 124.261325 
L 111.831626 130.586517 
L 111.909017 129.395893 
L 112.063799 129.470307 
L 112.218581 128.800581 
L 112.373362 129.023823 
L 112.682926 128.949409 
L 112.837707 129.321479 
L 112.915098 128.726167 
L 112.992489 126.94023 
L 113.06988 115.331642 
L 113.147271 116.819922 
L 113.224661 117.191993 
L 113.302052 116.968751 
L 113.534225 115.778126 
L 113.689006 111.685355 
L 113.766397 111.685355 
L 113.843788 111.536527 
L 113.99857 113.024807 
L 114.153351 112.057425 
L 114.230742 112.057425 
L 114.385524 107.964653 
L 114.540306 107.666997 
L 114.695087 107.890239 
L 114.772478 105.955475 
L 114.849869 106.476373 
L 115.082041 113.768947 
L 115.159432 113.768947 
L 115.236823 114.36426 
L 115.314214 114.289846 
L 115.546386 114.215432 
L 115.623777 113.694533 
L 115.701168 114.066604 
L 115.85595 111.610941 
L 115.933341 111.610941 
L 116.010731 111.090042 
L 116.088122 123.889255 
L 116.165513 122.475388 
L 116.242904 122.475388 
L 116.320295 122.103318 
L 116.397686 122.32656 
L 116.552467 127.163472 
L 116.629858 127.014644 
L 116.862031 137.65585 
L 116.939421 132.893352 
L 117.094203 141.897449 
L 117.171594 140.706825 
L 117.248985 140.781239 
L 117.403766 140.781239 
L 117.481157 133.191008 
L 117.558548 133.339836 
L 117.635939 133.339836 
L 117.868111 132.074798 
L 118.022893 127.982026 
L 118.100284 128.502925 
L 118.255066 132.074798 
L 118.409847 132.000384 
L 118.487238 133.339836 
L 118.64202 131.628314 
L 118.719411 131.628314 
L 119.028974 131.256244 
L 119.183756 127.833198 
L 119.261146 127.833198 
L 119.415928 127.461128 
L 119.57071 127.461128 
L 119.725491 120.540624 
L 119.802882 120.615038 
L 120.035055 122.177732 
L 120.112446 117.861719 
L 120.189836 118.382617 
L 120.344618 118.382617 
L 120.422009 108.63438 
L 120.4994 108.783208 
L 120.808963 108.857622 
L 120.886354 108.63438 
L 121.118526 98.29083 
L 121.273308 102.011531 
L 121.42809 98.6629 
L 121.505481 98.6629 
L 121.582871 104.913678 
L 121.737653 100.300009 
L 121.969826 102.9045 
L 122.047216 102.9045 
L 122.124607 103.127742 
L 122.279389 98.142002 
L 122.434171 97.844346 
L 122.666343 92.114466 
L 122.743734 92.93302 
L 122.898516 100.225595 
L 122.975906 102.532429 
L 123.053297 98.439658 
L 123.130688 102.309187 
L 123.208079 97.472276 
L 123.362861 103.27657 
L 123.440251 104.02071 
L 123.595033 109.229692 
L 123.672424 109.229692 
L 123.749815 112.206253 
L 123.827206 111.983011 
L 123.904596 111.536527 
L 123.981987 111.908597 
L 124.059378 111.685355 
L 124.136769 111.908597 
L 124.21416 112.652737 
L 124.291551 115.778126 
L 124.368941 123.814841 
L 124.446332 122.996287 
L 124.523723 123.145115 
L 124.601114 125.377536 
L 124.678505 124.633395 
L 124.755896 124.335739 
L 124.988068 136.018741 
L 125.14285 129.247065 
L 125.375022 127.386714 
L 125.529804 136.167569 
L 125.607195 136.018741 
L 125.761976 126.344918 
L 125.916758 128.577339 
L 126.07154 128.577339 
L 126.303712 127.609956 
L 126.381103 128.130855 
L 126.458494 115.554884 
L 126.535885 118.457031 
L 126.690666 118.457031 
L 126.845448 117.712891 
L 127.077621 117.787305 
L 127.155011 119.201171 
L 127.232402 109.825004 
L 127.309793 110.12266 
L 127.387184 110.12266 
L 127.541966 106.327545 
L 127.619356 106.253131 
L 127.696747 106.550787 
L 127.92892 121.359178 
L 128.083701 121.359178 
L 128.161092 121.58242 
L 128.238483 121.508006 
L 128.393265 120.83828 
L 128.548046 121.58242 
L 128.625437 121.58242 
L 128.780219 121.731248 
L 128.935001 121.731248 
L 129.089782 119.647655 
L 129.167173 119.573241 
L 129.321955 118.010547 
L 129.476736 118.084961 
L 129.631518 123.442771 
L 129.7863 124.261325 
L 130.018472 124.186911 
L 130.095863 124.484567 
L 130.250645 129.916791 
L 130.328036 129.916791 
L 130.405426 130.437689 
L 130.482817 133.711906 
L 130.560208 133.191008 
L 130.71499 127.535542 
L 130.869771 140.483583 
L 130.947162 140.483583 
L 131.024553 140.334755 
L 131.101944 140.409169 
L 131.256726 140.706825 
L 131.334116 142.046277 
L 131.488898 139.441787 
L 132.108025 141.153309 
L 132.262806 140.781239 
L 132.340197 140.781239 
L 132.417588 141.078895 
L 132.57237 142.939246 
L 132.804542 142.864832 
L 132.881933 142.64159 
L 133.036715 140.781239 
L 133.114106 140.781239 
L 133.191496 141.376551 
L 133.268887 146.511119 
L 133.346278 145.692565 
L 133.423669 147.924986 
L 133.50106 147.627329 
L 133.655841 147.552915 
L 133.810623 147.404087 
L 133.888014 147.404087 
L 133.965405 145.618151 
L 134.042796 137.358194 
L 134.120186 140.930067 
L 134.274968 138.102334 
L 134.507141 138.623232 
L 134.584531 138.623232 
L 134.816704 131.702728 
L 134.894095 131.5539 
L 134.971486 131.702728 
L 135.048876 132.521282 
L 135.126267 131.777142 
L 135.203658 132.074798 
L 135.35844 127.163472 
L 135.435831 127.163472 
L 135.590612 127.386714 
L 135.668003 127.386714 
L 135.745394 114.810744 
L 135.822785 114.959572 
L 136.132348 127.833198 
L 136.209739 127.833198 
L 136.28713 128.05644 
L 136.441911 134.158391 
L 136.674084 134.232805 
L 136.828866 134.158391 
L 136.906256 133.563078 
L 137.061038 124.856637 
L 137.138429 125.228707 
L 137.21582 118.977929 
L 137.293211 125.228707 
L 137.370601 125.005465 
L 137.447992 125.005465 
L 137.602774 120.912694 
L 137.757556 121.731248 
L 137.834946 117.117579 
L 137.912337 117.266407 
L 137.989728 116.22461 
L 138.299291 102.830086 
L 138.376682 103.127742 
L 138.454073 102.830086 
L 138.531464 109.527348 
L 138.608855 108.336723 
L 138.763636 107.815825 
L 138.841027 107.964653 
L 138.918418 112.131839 
L 139.0732 99.853524 
L 139.227981 99.183798 
L 139.305372 99.183798 
L 139.460154 107.369341 
L 139.614936 108.262309 
L 139.769717 100.448837 
L 140.00189 108.336723 
L 140.156671 108.336723 
L 140.234062 117.712891 
L 140.388844 112.578323 
L 140.466235 112.578323 
L 140.543626 112.875979 
L 140.698407 106.922857 
L 140.775798 110.792386 
L 140.853189 110.643558 
L 141.007971 98.886142 
L 141.085361 98.886142 
L 141.162752 98.737314 
L 141.317534 97.17462 
L 141.394925 97.17462 
L 141.549706 92.858606 
L 141.781879 100.374423 
L 141.936661 100.225595 
L 142.091442 88.989077 
L 142.323615 95.239855 
L 142.478396 87.054312 
L 142.710569 87.054312 
L 142.78796 88.542592 
L 142.942741 87.724038 
L 143.097523 81.622088 
L 143.174914 81.622088 
L 143.252305 81.919744 
L 143.407086 65.39983 
L 143.484477 64.432448 
L 143.561868 61.381473 
L 143.639259 61.827957 
L 143.71665 61.827957 
L 144.180995 77.603731 
L 144.413167 77.901387 
L 144.567949 74.478341 
L 144.722731 74.478341 
L 144.877512 64.878932 
L 145.032294 65.548658 
L 145.109685 69.194946 
L 145.264466 58.702568 
L 145.341857 58.776982 
L 145.419248 60.488504 
L 145.57403 73.510959 
L 145.728811 73.138889 
L 145.960984 72.766819 
L 146.115766 73.138889 
L 146.193156 81.324432 
L 146.270547 80.803534 
L 146.347938 76.041036 
L 146.425329 76.934004 
L 146.734892 69.046118 
L 146.812283 68.599633 
L 146.967065 69.418188 
L 147.121846 75.668966 
L 147.199237 76.264278 
L 147.276628 87.798452 
L 147.354019 87.724038 
L 147.43141 87.724038 
L 147.586191 81.994158 
L 147.740973 81.250018 
L 147.895755 76.85959 
L 148.127927 76.785176 
L 148.205318 75.668966 
L 148.282709 76.041036 
L 148.592272 87.57521 
L 148.669663 87.57521 
L 148.747054 83.259197 
L 148.901836 86.459 
L 148.979226 87.57521 
L 149.056617 85.566031 
L 149.211399 89.509975 
L 149.28879 89.509975 
L 149.366181 89.286733 
L 149.443571 80.654706 
L 149.520962 81.398846 
L 149.753135 81.398846 
L 149.830526 79.612909 
L 149.985307 90.700599 
L 150.681825 91.81681 
L 150.836606 98.29083 
L 150.913997 98.067588 
L 150.991388 98.142002 
L 151.068779 119.424413 
L 151.14617 118.233789 
L 151.300951 119.424413 
L 151.533124 117.564063 
L 151.610515 117.787305 
L 151.765296 117.861719 
L 151.997469 116.671094 
L 152.152251 110.048246 
L 152.307032 109.37852 
L 152.461814 109.304106 
L 152.616596 109.973832 
L 152.771377 110.49473 
L 152.848768 107.369341 
L 153.00355 110.345902 
L 153.158331 108.783208 
L 153.235722 108.857622 
L 153.313113 106.253131 
L 153.390504 106.327545 
L 153.545286 108.187895 
L 153.700067 108.187895 
L 153.854849 107.592583 
L 153.93224 101.862703 
L 154.009631 102.234773 
L 154.087021 100.300009 
L 154.164412 100.672079 
L 154.241803 99.258212 
L 154.396585 100.300009 
L 154.551366 100.225595 
L 154.706148 100.300009 
L 154.86093 92.337708 
L 155.015711 92.337708 
L 155.093102 92.486536 
L 155.170493 99.03497 
L 155.247884 98.6629 
L 155.402666 98.6629 
L 155.557447 96.356065 
L 155.634838 96.430479 
L 155.712229 96.802549 
L 155.867011 102.9045 
L 155.944401 97.844346 
L 156.099183 107.443755 
L 156.331356 107.518169 
L 156.408746 107.146099 
L 156.486137 103.723054 
L 156.640919 108.113481 
L 156.71831 108.708794 
L 156.795701 108.63438 
L 156.950482 108.63438 
L 157.027873 103.64864 
L 157.105264 104.095124 
L 157.182655 101.267391 
L 157.260046 101.862703 
L 157.569609 101.937117 
L 157.801781 102.532429 
L 157.956563 113.992189 
L 158.111345 108.857622 
L 158.266126 109.00645 
L 158.420908 107.146099 
L 158.498299 107.220513 
L 158.57569 106.550787 
L 158.730471 97.54669 
L 158.885253 105.062506 
L 159.117426 105.062506 
L 159.194816 105.657819 
L 159.272207 96.802549 
L 159.349598 97.993174 
L 159.50438 101.118563 
L 159.736552 101.118563 
L 159.813943 101.341805 
L 159.891334 100.895321 
L 159.968725 91.147083 
L 160.046116 91.81681 
L 160.123506 91.891224 
L 160.200897 91.667982 
L 160.278288 91.742396 
L 160.43307 92.263294 
L 160.510461 92.114466 
L 160.665242 99.258212 
L 160.820024 98.737314 
L 160.974806 99.258212 
L 161.129587 98.886142 
L 161.206978 100.002353 
L 161.36176 107.741411 
L 161.439151 107.146099 
L 161.593932 101.490633 
L 161.671323 100.820907 
L 161.748714 100.969735 
L 161.826105 101.341805 
L 161.980886 104.988092 
L 162.135668 103.350984 
L 162.29045 102.830086 
L 162.445231 114.289846 
L 162.522622 114.289846 
L 162.600013 107.815825 
L 162.754795 112.652737 
L 162.832186 112.652737 
L 162.986967 111.908597 
L 163.064358 111.759769 
L 163.21914 112.875979 
L 163.373921 111.238871 
L 163.528703 108.857622 
L 163.606094 108.857622 
L 163.993048 117.340821 
L 164.070439 117.266407 
L 164.225221 116.894337 
L 164.380002 117.266407 
L 164.534784 117.340821 
L 164.612175 117.415235 
L 164.766956 114.587502 
L 164.844347 114.587502 
L 164.921738 114.438674 
L 165.07652 115.331642 
L 165.308692 105.062506 
L 165.618255 117.340821 
L 165.927819 105.360162 
L 166.0826 105.732233 
L 166.237382 105.806647 
L 166.392164 105.50899 
L 166.469555 98.514072 
L 166.546945 102.309187 
L 166.624336 102.160359 
L 166.701727 102.160359 
L 166.779118 102.309187 
L 166.9339 104.616022 
L 167.166072 98.886142 
L 167.243463 100.448837 
L 167.475635 114.810744 
L 167.553026 114.141018 
L 167.630417 114.141018 
L 167.785199 113.322463 
L 167.86259 113.322463 
L 168.017371 114.289846 
L 168.094762 107.741411 
L 168.172153 107.815825 
L 168.481716 107.890239 
L 168.636498 108.559966 
L 168.713889 108.559966 
L 168.86867 108.783208 
L 169.023452 103.27657 
L 169.178234 106.848443 
L 169.255625 106.997271 
L 169.333015 106.848443 
L 169.410406 104.318366 
L 169.487797 120.46621 
L 169.565188 120.391796 
L 169.71997 117.340821 
L 169.79736 119.945312 
L 170.106924 105.657819 
L 170.184315 105.657819 
L 170.339096 108.113481 
L 170.416487 108.113481 
L 170.64866 113.917775 
L 170.72605 110.345902 
L 170.803441 110.49473 
L 170.880832 110.717972 
L 171.035614 119.72207 
L 171.190395 118.977929 
L 171.267786 118.680273 
L 171.422568 118.903515 
L 171.57735 113.173635 
L 171.732131 113.992189 
L 171.809522 114.215432 
L 171.886913 113.768947 
L 172.119085 114.810744 
L 172.196476 113.471291 
L 172.273867 113.992189 
L 172.428649 113.992189 
L 172.738212 111.387699 
L 172.815603 103.797468 
L 172.892994 103.946296 
L 173.047775 107.815825 
L 173.279948 98.142002 
L 173.51212 97.769932 
L 173.666902 97.844346 
L 173.899075 104.243952 
L 173.976465 104.243952 
L 174.131247 106.104303 
L 174.208638 105.732233 
L 174.286029 103.574226 
L 174.36342 104.76485 
L 174.44081 104.541608 
L 174.518201 104.616022 
L 174.595592 108.262309 
L 174.672983 104.467194 
L 174.750374 91.965638 
L 174.827765 95.835167 
L 174.982546 95.835167 
L 175.059937 95.091027 
L 175.137328 95.239855 
L 175.214719 95.760753 
L 175.446891 104.095124 
L 175.524282 103.499812 
L 175.601673 103.499812 
L 175.679064 103.350984 
L 175.756455 90.775013 
L 175.833845 91.147083 
L 175.911236 90.477357 
L 175.988627 90.849427 
L 176.143409 90.551771 
L 176.2208 85.938102 
L 176.29819 86.459 
L 176.452972 86.459 
L 176.530363 86.161344 
L 176.685145 83.184783 
L 176.839926 83.556853 
L 176.917317 83.556853 
L 176.994708 76.561934 
L 177.072099 79.092011 
L 177.14949 74.99924 
L 177.22688 75.445724 
L 177.459053 75.445724 
L 177.613835 75.296896 
L 177.691225 70.38557 
L 177.768616 71.278538 
L 177.923398 71.427366 
L 178.000789 71.427366 
L 178.232961 75.520138 
L 178.387743 83.035954 
L 178.465134 83.110369 
L 178.619915 70.459984 
L 178.697306 73.138889 
L 178.774697 72.841233 
L 179.00687 72.766819 
L 179.08426 69.194946 
L 179.161651 75.37131 
L 179.239042 69.343774 
L 179.316433 69.715844 
L 179.471215 66.962525 
L 179.625996 70.608812 
L 179.858169 70.683226 
L 179.93556 70.683226 
L 180.01295 70.311156 
L 180.322514 82.812712 
L 180.399905 79.612909 
L 180.477295 83.780095 
L 180.554686 77.678145 
L 180.632077 78.943183 
L 180.709468 78.645527 
L 180.786859 83.631267 
L 180.94164 78.794355 
L 181.019031 81.026776 
L 181.096422 76.85959 
L 181.173813 77.901387 
L 181.328595 83.110369 
L 181.405985 79.836151 
L 181.560767 86.533414 
L 181.638158 86.756656 
L 181.715549 85.938102 
L 181.79294 83.035954 
L 181.87033 83.854509 
L 181.947721 85.342789 
L 182.102503 82.291814 
L 182.179894 82.291814 
L 182.334675 81.47326 
L 182.412066 77.23166 
L 182.489457 84.449821 
L 182.566848 84.152165 
L 182.644239 84.226579 
L 182.79902 83.184783 
L 182.876411 83.184783 
L 182.953802 81.175604 
L 183.108584 90.402943 
L 183.418147 90.328529 
L 183.572929 88.096108 
L 183.65032 88.096108 
L 183.805101 90.626185 
L 183.959883 87.128726 
L 184.037274 88.617006 
L 184.114665 93.30509 
L 184.192055 93.007434 
L 184.269446 93.156262 
L 184.346837 96.132823 
L 184.501619 104.02071 
L 184.6564 104.02071 
L 184.733791 103.350984 
L 184.965964 104.02071 
L 185.120745 109.899418 
L 185.275527 110.048246 
L 185.352918 110.048246 
L 185.5077 110.345902 
L 185.739872 119.498827 
L 185.817263 119.498827 
L 185.894654 119.275585 
L 185.972045 119.573241 
L 186.126826 119.424413 
L 186.281608 120.689452 
L 186.358999 117.340821 
L 186.43639 117.415235 
L 186.591171 117.415235 
L 186.668562 118.680273 
L 186.745953 118.605859 
L 186.823344 118.605859 
L 186.900735 118.457031 
L 187.055516 122.177732 
L 187.210298 113.248049 
L 187.36508 111.015628 
L 187.519861 115.406056 
L 187.674643 115.331642 
L 187.752034 115.257228 
L 187.906815 111.238871 
L 187.984206 111.387699 
L 188.061597 112.280667 
L 188.138988 111.759769 
L 188.29377 117.936133 
L 188.37116 117.936133 
L 188.525942 118.680273 
L 188.603333 118.680273 
L 188.758115 117.936133 
L 188.912896 128.05644 
L 188.990287 128.279683 
L 189.145069 119.052343 
L 189.29985 122.624217 
L 189.377241 122.996287 
L 189.454632 122.773045 
L 189.609414 122.177732 
L 189.764195 122.32656 
L 189.918977 127.907612 
L 189.996368 127.907612 
L 190.073759 128.726167 
L 190.305931 118.233789 
L 190.383322 119.052343 
L 190.460713 118.754687 
L 190.615495 116.59668 
L 190.847667 116.522266 
L 191.002449 119.275585 
L 191.15723 119.275585 
L 191.234621 128.502925 
L 191.312012 127.833198 
L 191.466794 129.023823 
L 191.544185 137.209366 
L 191.621575 136.316397 
L 191.776357 136.316397 
L 191.853748 127.982026 
L 191.931139 128.279683 
L 192.00853 127.907612 
L 192.08592 126.642574 
L 192.318093 118.233789 
L 192.395484 117.712891 
L 192.550265 114.885158 
L 192.627656 117.340821 
L 192.782438 116.22461 
L 192.859829 116.22461 
L 193.01461 115.703712 
L 193.169392 115.703712 
L 193.246783 115.033986 
L 193.324174 115.554884 
L 193.478955 115.257228 
L 193.633737 122.32656 
L 193.711128 123.145115 
L 193.788519 122.475388 
L 193.9433 115.182814 
L 194.020691 115.182814 
L 194.175473 116.001368 
L 194.252864 116.001368 
L 194.407645 117.936133 
L 194.562427 117.936133 
L 194.639818 122.177732 
L 194.717209 120.391796 
L 194.7946 123.517185 
L 194.87199 123.442771 
L 195.026772 119.275585 
L 195.104163 119.275585 
L 195.181554 123.889255 
L 195.258945 123.666013 
L 195.413726 123.666013 
L 195.568508 122.773045 
L 195.645899 124.484567 
L 195.72329 124.410153 
L 195.80068 124.484567 
L 195.878071 122.252146 
L 195.955462 129.395893 
L 196.032853 128.428511 
L 196.110244 127.907612 
L 196.342416 123.293943 
L 196.419807 123.293943 
L 196.574589 123.666013 
L 196.72937 117.191993 
L 196.806761 117.043165 
L 196.961543 111.387699 
L 197.038934 111.387699 
L 197.116325 110.8668 
L 197.193715 104.690436 
L 197.271106 106.550787 
L 197.425888 106.625201 
L 197.58067 107.443755 
L 197.65806 107.369341 
L 197.812842 108.857622 
L 197.890233 121.656834 
L 197.967624 121.433592 
L 198.122405 122.177732 
L 198.277187 125.82402 
L 198.431969 124.633395 
L 198.58675 126.56816 
L 198.664141 126.716988 
L 199.051095 148.966782 
L 199.205877 148.966782 
L 199.360659 144.948424 
L 199.51544 145.022839 
L 199.592831 138.02792 
L 199.670222 138.176748 
L 199.825004 138.846474 
L 199.979785 134.753703 
L 200.057176 134.753703 
L 200.134567 125.749606 
L 200.211958 126.19609 
L 200.289349 120.83828 
L 200.44413 125.749606 
L 200.598912 118.308203 
L 200.676303 118.977929 
L 200.753694 117.861719 
L 200.831085 118.233789 
L 200.985866 123.442771 
L 201.063257 120.09414 
L 201.140648 122.32656 
L 201.218039 122.252146 
L 201.37282 122.252146 
L 201.527602 122.549803 
L 201.604993 122.32656 
L 201.682384 122.847459 
L 201.837165 121.656834 
L 201.914556 121.95449 
L 201.991947 129.395893 
L 202.069338 128.949409 
L 202.146729 128.502925 
L 202.22412 128.577339 
L 202.30151 128.577339 
L 202.456292 140.557997 
L 202.611074 140.409169 
L 202.688465 136.465225 
L 202.765855 136.986124 
L 202.843246 136.986124 
L 202.920637 137.432608 
L 202.998028 129.619135 
L 203.075419 129.693549 
L 203.307591 129.767963 
L 203.462373 123.591599 
L 203.539764 123.591599 
L 203.617155 123.889255 
L 203.771936 122.847459 
L 203.849327 124.410153 
L 203.926718 124.038083 
L 204.004109 124.038083 
L 204.0815 123.889255 
L 204.236281 125.377536 
L 204.391063 117.489649 
L 204.468454 117.489649 
L 204.545845 117.266407 
L 204.623235 115.85254 
L 204.700626 116.075782 
L 204.778017 116.075782 
L 204.932799 106.922857 
L 205.08758 105.583404 
L 205.319753 106.401959 
L 205.551925 102.9045 
L 205.629316 102.309187 
L 205.784098 112.578323 
L 205.861489 112.503909 
L 206.093661 113.024807 
L 206.171052 112.801565 
L 206.325834 110.569144 
L 206.480615 115.926954 
L 206.558006 115.48047 
L 206.635397 102.234773 
L 206.712788 102.755671 
L 206.86757 103.64864 
L 206.94496 103.64864 
L 207.022351 103.127742 
L 207.254524 95.611925 
L 207.331915 95.611925 
L 207.409305 95.388683 
L 207.564087 91.072669 
L 207.641478 93.528332 
L 207.718869 93.156262 
L 207.87365 105.881061 
L 207.951041 108.336723 
L 208.028432 106.997271 
L 208.105823 107.443755 
L 208.183214 107.443755 
L 208.260605 106.476373 
L 208.337995 107.741411 
L 208.492777 104.76485 
L 208.570168 104.76485 
L 208.72495 112.503909 
L 208.879731 112.057425 
L 208.957122 112.280667 
L 209.034513 120.46621 
L 209.189295 112.057425 
L 209.344076 112.578323 
L 209.421467 111.387699 
L 209.498858 113.843361 
L 209.576249 113.099221 
L 209.65364 111.164456 
L 209.808421 103.723054 
L 210.195375 112.429495 
L 210.427548 112.503909 
L 210.504939 112.503909 
L 210.65972 100.820907 
L 210.737111 110.717972 
L 210.814502 110.345902 
L 210.969284 114.73633 
L 211.124065 114.438674 
L 211.278847 116.075782 
L 211.433629 112.727151 
L 211.51102 112.429495 
L 211.58841 108.559966 
L 211.665801 108.63438 
L 211.743192 109.00645 
L 211.897974 106.625201 
L 212.052755 107.964653 
L 212.207537 105.881061 
L 212.284928 106.401959 
L 212.43971 102.830086 
L 212.5171 107.666997 
L 212.594491 104.76485 
L 212.671882 96.207237 
L 212.749273 99.258212 
L 212.904055 99.183798 
L 213.058836 98.6629 
L 213.291009 98.514072 
L 213.44579 98.142002 
L 213.600572 90.402943 
L 213.677963 90.105287 
L 213.755354 90.179701 
L 213.910135 90.551771 
L 213.987526 90.551771 
L 214.142308 90.923841 
L 214.29709 90.105287 
L 214.451871 90.477357 
L 214.529262 90.477357 
L 214.684044 102.606843 
L 214.761435 101.937117 
L 214.838825 101.937117 
L 214.993607 105.211334 
L 215.148389 105.211334 
L 215.535343 95.016613 
L 215.612734 94.942199 
L 215.767515 87.054312 
L 215.844906 86.979898 
L 215.999688 85.268375 
L 216.077079 85.491617 
L 216.15447 88.021694 
L 216.23186 87.94728 
L 216.464033 79.836151 
L 216.618815 88.840249 
L 216.696205 88.542592 
L 216.773596 86.979898 
L 216.928378 78.943183 
L 217.08316 88.914663 
L 217.16055 88.244936 
L 217.315332 88.244936 
L 217.470114 90.626185 
L 217.547505 90.626185 
L 217.702286 90.998255 
L 217.779677 90.998255 
L 218.01185 80.877948 
L 218.08924 80.877948 
L 218.166631 81.622088 
L 218.321413 81.175604 
L 218.476195 81.175604 
L 218.630976 80.133807 
L 218.708367 83.408025 
L 218.785758 83.035954 
L 218.94054 83.035954 
L 219.095321 82.366228 
L 219.559666 86.979898 
L 219.791839 85.566031 
L 220.101402 85.566031 
L 220.256184 81.919744 
L 220.333575 81.770916 
L 220.488356 83.110369 
L 220.565747 83.482439 
L 220.643138 82.068572 
L 220.79792 87.724038 
L 220.952701 87.351968 
L 221.107483 76.48752 
L 221.184874 77.529317 
L 221.262265 77.454902 
L 221.339655 77.454902 
L 221.417046 77.901387 
L 221.494437 82.887126 
L 221.571828 82.2174 
L 221.881391 83.408025 
L 222.036173 84.152165 
L 222.113564 84.152165 
L 222.268345 83.705681 
L 222.345736 83.631267 
L 222.577909 94.644543 
L 222.73269 89.584389 
L 222.810081 93.230676 
L 222.964863 90.551771 
L 223.042254 89.584389 
L 223.119645 89.733217 
L 223.274426 88.617006 
L 223.429208 85.789273 
L 223.816162 94.421301 
L 223.893553 94.272472 
L 224.125725 84.747477 
L 224.280507 84.747477 
L 224.435289 80.952362 
L 224.51268 83.928923 
L 224.59007 83.408025 
L 224.744852 83.408025 
L 224.822243 74.403927 
L 224.899634 75.445724 
L 224.977025 87.426382 
L 225.054415 87.277554 
L 225.131806 87.426382 
L 225.363979 77.23166 
L 225.51876 76.561934 
L 225.750933 76.561934 
L 225.983105 82.440642 
L 226.137887 78.347871 
L 226.292669 78.347871 
L 226.37006 77.529317 
L 226.44745 77.603731 
L 226.602232 72.097093 
L 226.757014 72.097093 
L 226.834405 63.837136 
L 226.911795 64.878932 
L 227.066577 64.953346 
L 227.221359 70.087914 
L 227.29875 69.64143 
L 227.37614 70.0135 
L 227.453531 63.985964 
L 227.530922 64.358034 
L 227.608313 64.358034 
L 227.685704 61.827957 
L 227.763095 62.795339 
L 227.917876 75.668966 
L 227.995267 76.264278 
L 228.150049 72.097093 
L 228.382221 71.948265 
L 228.537003 68.525219 
L 228.614394 72.692405 
L 228.691785 72.097093 
L 228.846566 68.599633 
L 229.15613 68.674047 
L 229.310911 69.418188 
L 229.388302 69.194946 
L 229.620475 73.957443 
L 229.697865 68.301977 
L 229.775256 70.087914 
L 230.16221 65.474244 
L 230.239601 66.367213 
L 230.626555 86.607828 
L 230.703946 86.384586 
L 230.781337 83.110369 
L 231.01351 89.063491 
L 231.0909 97.993174 
L 231.168291 97.91876 
L 231.323073 97.54669 
L 231.400464 97.54669 
L 231.555245 99.332626 
L 231.632636 98.29083 
L 231.710027 98.588486 
L 231.787418 98.588486 
L 231.864809 98.216416 
L 232.01959 91.295911 
L 232.096981 91.295911 
L 232.251763 91.519153 
L 232.329154 91.072669 
L 232.406545 88.914663 
L 232.561326 90.030873 
L 232.793499 90.030873 
L 232.94828 100.895321 
L 233.025671 100.523251 
L 233.180453 97.844346 
L 233.335235 97.472276 
L 233.490016 105.062506 
L 233.567407 106.327545 
L 233.644798 105.881061 
L 233.722189 104.690436 
L 233.79958 100.225595 
L 233.87697 100.746493 
L 234.031752 104.541608 
L 234.109143 104.839264 
L 234.263925 104.541608 
L 234.418706 106.327545 
L 234.496097 106.327545 
L 234.573488 104.169538 
L 234.650879 104.76485 
L 234.72827 104.913678 
L 234.883051 105.50899 
L 235.270005 105.50899 
L 235.424787 92.56095 
L 235.579569 92.93302 
L 235.65696 92.56095 
L 235.73435 93.081848 
L 235.811741 93.007434 
L 236.043914 102.606843 
L 236.121305 95.686339 
L 236.198695 98.588486 
L 236.276086 98.514072 
L 236.353477 98.886142 
L 236.508259 97.54669 
L 236.66304 97.769932 
L 236.740431 96.281651 
L 236.817822 96.356065 
L 236.895213 98.960556 
L 236.972604 98.588486 
L 237.049995 98.588486 
L 237.204776 98.439658 
L 237.282167 98.6629 
L 237.359558 98.29083 
L 237.51434 101.341805 
L 237.59173 101.192977 
L 237.746512 99.332626 
L 237.823903 99.332626 
L 237.901294 99.853524 
L 238.056075 107.964653 
L 238.210857 107.518169 
L 238.52042 107.294927 
L 238.597811 102.383601 
L 238.675202 104.095124 
L 238.752593 104.169538 
L 238.829984 105.657819 
L 238.907375 104.913678 
L 239.139547 105.955475 
L 239.294329 106.327545 
L 239.44911 93.974816 
L 239.526501 89.509975 
L 239.603892 93.453918 
L 239.681283 92.337708 
L 239.758674 92.040052 
L 240.068237 82.515056 
L 240.145628 76.338692 
L 240.223019 76.636348 
L 240.3778 76.636348 
L 240.532582 77.901387 
L 240.609973 76.934004 
L 240.842145 79.538495 
L 240.996927 78.347871 
L 241.074318 72.692405 
L 241.151709 72.766819 
L 241.2291 79.389667 
L 241.383881 76.11545 
L 241.461272 75.817794 
L 241.538663 81.770916 
L 241.616054 81.696502 
L 241.848226 72.766819 
L 241.925617 72.915647 
L 242.003008 71.725022 
L 242.080399 72.022679 
L 242.23518 72.022679 
L 242.312571 72.320335 
L 242.389962 79.538495 
L 242.467353 79.389667 
L 242.622135 79.389667 
L 242.699525 85.938102 
L 242.776916 85.417203 
L 242.931698 78.719941 
L 243.16387 70.162328 
L 243.241261 71.12971 
L 243.318652 70.832054 
L 243.396043 65.02776 
L 243.473434 69.715844 
L 243.550825 69.64143 
L 243.782997 76.11545 
L 243.860388 79.761737 
L 243.937779 79.538495 
L 244.01517 79.538495 
L 244.09256 78.124629 
L 244.247342 71.427366 
L 244.556905 64.878932 
L 244.634296 64.878932 
L 244.789078 68.153149 
L 245.02125 66.962525 
L 245.098641 70.162328 
L 245.176032 69.790258 
L 245.330814 53.716828 
L 245.408205 53.716828 
L 245.485595 63.985964 
L 245.562986 63.837136 
L 245.640377 63.837136 
L 245.717768 64.060378 
L 245.94994 69.343774 
L 246.104722 63.53948 
L 246.259504 64.060378 
L 246.336895 64.060378 
L 246.646458 65.7719 
L 246.87863 62.497683 
L 246.956021 67.409009 
L 247.033412 66.14397 
L 247.110803 66.14397 
L 247.265585 65.995142 
L 247.342975 65.995142 
L 247.420366 65.7719 
L 247.652539 66.590455 
L 247.80732 66.590455 
L 247.884711 67.036939 
L 248.039493 66.739283 
L 248.116884 66.739283 
L 248.194275 66.962525 
L 248.271665 64.804518 
L 248.349056 64.953346 
L 248.426447 64.953346 
L 248.503838 64.730104 
L 248.65862 63.985964 
L 248.73601 63.985964 
L 248.813401 63.465066 
L 248.968183 59.967606 
L 249.045574 60.116434 
L 249.122965 60.116434 
L 249.200355 58.330498 
L 249.277746 62.497683 
L 249.355137 62.051199 
L 249.509919 59.446708 
L 249.58731 59.446708 
L 249.6647 59.818778 
L 249.742091 61.009403 
L 249.819482 60.41409 
L 249.896873 60.488504 
L 249.974264 60.562918 
L 250.051655 59.66995 
L 250.129045 59.818778 
L 250.206436 59.818778 
L 250.283827 63.092995 
L 250.438609 60.265262 
L 250.59339 54.386554 
L 250.670781 54.386554 
L 250.825563 53.642414 
L 250.902954 53.568 
L 251.057735 62.646511 
L 251.212517 63.613894 
L 251.289908 63.613894 
L 251.44469 62.944167 
L 251.599471 62.869753 
L 251.831644 78.794355 
L 251.986425 79.240839 
L 252.295989 75.073654 
L 252.605552 77.157246 
L 252.760334 76.413106 
L 252.915115 77.157246 
L 253.069897 85.193961 
L 253.224679 86.905484 
L 253.534242 86.83107 
L 253.689024 97.472276 
L 253.843805 98.216416 
L 253.921196 98.216416 
L 254.075978 90.700599 
L 254.153369 90.849427 
L 254.30815 90.849427 
L 254.540323 89.509975 
L 254.849886 89.435561 
L 255.004668 92.784192 
L 255.082059 93.230676 
L 255.23684 89.584389 
L 255.391622 89.658803 
L 255.469013 89.137905 
L 255.546404 89.212319 
L 255.623795 81.547674 
L 255.701185 81.696502 
L 255.933358 81.175604 
L 256.08814 81.175604 
L 256.16553 80.208221 
L 256.397703 74.329513 
L 256.475094 74.478341 
L 256.707266 77.082832 
L 256.784657 77.082832 
L 256.939439 71.799436 
L 257.01683 71.799436 
L 257.171611 70.311156 
L 257.249002 72.097093 
L 257.326393 85.789273 
L 257.403784 84.077751 
L 257.481175 83.184783 
L 257.558565 83.333611 
L 257.635956 83.333611 
L 257.790738 83.631267 
L 257.94552 83.631267 
L 258.177692 81.175604 
L 258.255083 81.175604 
L 258.409865 81.324432 
L 258.564646 77.678145 
L 258.642037 77.678145 
L 258.719428 69.492602 
L 258.796819 70.162328 
L 258.9516 67.111353 
L 259.028991 68.450805 
L 259.106382 67.706665 
L 259.261164 63.91155 
L 259.338555 63.91155 
L 259.493336 63.762722 
L 259.570727 63.092995 
L 259.648118 63.613894 
L 259.725509 70.0135 
L 259.8029 68.450805 
L 259.88029 68.450805 
L 260.035072 64.730104 
L 260.112463 65.325416 
L 260.189854 69.64143 
L 260.267245 80.505878 
L 260.344635 79.836151 
L 260.422026 80.059393 
L 260.499417 83.035954 
L 260.73159 79.464081 
L 260.80898 79.464081 
L 260.963762 77.454902 
L 261.118544 85.119547 
L 261.195935 85.119547 
L 261.273325 85.268375 
L 261.505498 73.585373 
L 261.66028 73.436545 
L 261.815061 79.910565 
L 261.969843 80.877948 
L 262.124625 79.092011 
L 262.434188 80.431464 
L 262.511579 80.208221 
L 262.66636 79.166425 
L 262.821142 82.887126 
L 262.975924 84.449821 
L 263.130705 80.654706 
L 263.208096 80.505878 
L 263.285487 74.255099 
L 263.362878 74.701584 
L 263.51766 74.180685 
L 263.672441 74.180685 
L 263.827223 70.832054 
L 263.904614 70.683226 
L 263.982005 70.906468 
L 264.059395 70.832054 
L 264.214177 65.7719 
L 264.44635 65.548658 
L 264.52374 65.548658 
L 264.601131 65.39983 
L 264.678522 63.53948 
L 264.833304 54.31214 
L 264.988085 59.29788 
L 265.065476 59.29788 
L 265.142867 59.446708 
L 265.297649 70.608812 
L 265.37504 70.608812 
L 265.529821 71.278538 
L 265.607212 71.278538 
L 265.761994 70.75764 
L 265.916775 77.678145 
L 266.148948 77.752559 
L 266.30373 78.347871 
L 266.38112 77.603731 
L 266.535902 83.110369 
L 266.690684 78.050215 
L 266.768075 78.199043 
L 266.922856 82.068572 
L 267.464592 81.994158 
L 267.541983 82.440642 
L 267.696765 79.017597 
L 267.774155 79.166425 
L 267.928937 79.017597 
L 268.006328 79.017597 
L 268.16111 79.538495 
L 268.315891 79.538495 
L 268.548064 81.622088 
L 268.702845 81.47326 
L 268.935018 81.47326 
L 269.012409 81.622088 
L 269.16719 95.463097 
L 269.244581 94.04923 
L 269.321972 94.04923 
L 269.476754 97.844346 
L 269.554145 97.844346 
L 269.708926 97.54669 
L 269.941099 97.472276 
L 270.01849 97.472276 
L 270.173271 97.323448 
L 270.250662 97.323448 
L 270.405444 106.104303 
L 270.560225 106.401959 
L 270.792398 115.1084 
L 270.94718 110.643558 
L 271.101961 110.792386 
L 271.256743 105.657819 
L 271.488915 105.657819 
L 271.566306 109.452934 
L 271.643697 108.932036 
L 271.721088 108.932036 
L 271.87587 118.457031 
L 271.95326 118.457031 
L 272.030651 118.977929 
L 272.108042 118.829101 
L 272.262824 118.829101 
L 272.572387 113.843361 
L 272.649778 114.661916 
L 272.80456 118.382617 
L 272.959341 118.382617 
L 273.036732 115.406056 
L 273.114123 103.723054 
L 273.191514 107.518169 
L 273.268905 107.741411 
L 273.423686 107.592583 
L 273.578468 110.345902 
L 273.73325 110.197074 
L 273.888031 109.37852 
L 274.042813 109.37852 
L 274.120204 108.708794 
L 274.197595 108.932036 
L 274.352376 110.941214 
L 274.429767 110.941214 
L 274.584549 103.574226 
L 274.66194 104.243952 
L 274.816721 107.443755 
L 274.971503 107.369341 
L 275.048894 106.699615 
L 275.126285 103.350984 
L 275.203675 103.499812 
L 275.513239 103.499812 
L 275.66802 103.64864 
L 275.822802 103.202156 
L 276.209756 103.27657 
L 276.287147 93.379504 
L 276.364538 95.165441 
L 276.441929 97.397862 
L 276.51932 96.579307 
L 276.674101 96.579307 
L 276.751492 96.430479 
L 276.828883 92.412122 
L 276.906274 93.528332 
L 277.061055 93.156262 
L 277.138446 93.379504 
L 277.215837 93.30509 
L 277.293228 92.784192 
L 277.370619 93.007434 
L 277.5254 93.007434 
L 277.602791 93.825988 
L 277.680182 93.67716 
L 277.834964 93.751574 
L 277.989745 96.281651 
L 278.221918 87.57521 
L 278.45409 87.500796 
L 278.531481 80.133807 
L 278.608872 80.877948 
L 278.686263 80.877948 
L 278.841045 86.310172 
L 278.918435 86.310172 
L 278.995826 86.756656 
L 279.073217 86.682242 
L 279.38278 86.310172 
L 279.537562 94.346886 
L 279.692344 94.346886 
L 279.769735 100.820907 
L 279.924516 90.923841 
L 280.001907 100.374423 
L 280.079298 100.002353 
L 280.156689 95.760753 
L 280.23408 96.058409 
L 280.31147 96.058409 
L 280.388861 95.760753 
L 280.543643 97.025791 
L 280.621034 104.169538 
L 280.698425 103.797468 
L 280.930597 103.797468 
L 281.085379 100.448837 
L 281.16277 112.131839 
L 281.317551 99.109384 
L 281.394942 99.109384 
L 281.472333 98.514072 
L 281.549724 98.886142 
L 281.627115 94.198058 
L 281.704505 94.867785 
L 281.859287 94.942199 
L 282.014069 90.402943 
L 282.16885 89.361147 
L 282.246241 89.063491 
L 282.401023 89.584389 
L 282.478414 89.063491 
L 282.865368 104.243952 
L 282.942759 104.169538 
L 283.02015 104.169538 
L 283.561885 106.029889 
L 283.871449 106.029889 
L 283.94884 106.253131 
L 284.103621 105.881061 
L 284.181012 105.881061 
L 284.335794 104.318366 
L 284.413185 104.839264 
L 284.490575 107.592583 
L 284.567966 115.182814 
L 284.645357 114.885158 
L 284.722748 114.885158 
L 284.87753 112.057425 
L 284.95492 111.164456 
L 285.109702 103.27657 
L 285.187093 103.574226 
L 285.264484 103.425398 
L 285.341875 97.993174 
L 285.419265 98.216416 
L 285.496656 98.216416 
L 285.651438 99.332626 
L 285.728829 99.332626 
L 285.88361 100.300009 
L 285.961001 100.225595 
L 286.115783 99.481454 
L 286.270565 99.555868 
L 286.347955 99.332626 
L 286.425346 99.704696 
L 286.502737 96.728135 
L 286.580128 97.621104 
L 286.657519 97.621104 
L 286.8123 97.323448 
L 286.889691 97.323448 
L 287.044473 95.611925 
L 287.276645 84.003337 
L 287.431427 84.077751 
L 287.6636 84.821891 
L 287.818381 89.658803 
L 287.973163 84.449821 
L 288.127945 84.449821 
L 288.282726 79.984979 
L 288.437508 92.337708 
L 288.514899 92.337708 
L 288.66968 86.012516 
L 288.979244 86.012516 
L 289.134025 85.193961 
L 289.211416 85.193961 
L 289.288807 89.956459 
L 289.443589 83.110369 
L 289.59837 88.170522 
L 289.675761 88.170522 
L 289.830543 88.989077 
L 289.907934 88.989077 
L 289.985325 89.137905 
L 290.062715 89.063491 
L 290.140106 89.733217 
L 290.217497 80.580292 
L 290.294888 80.654706 
L 290.44967 81.770916 
L 290.604451 86.83107 
L 290.681842 86.83107 
L 290.836624 86.235758 
L 290.991405 86.682242 
L 291.146187 93.081848 
L 291.300969 91.965638 
L 291.45575 91.370325 
L 291.610532 91.295911 
L 291.920095 87.20314 
L 292.074877 87.20314 
L 292.152268 86.83107 
L 292.30705 89.658803 
L 292.461831 89.509975 
L 292.616613 85.863687 
L 292.694004 85.863687 
L 292.848785 86.979898 
L 293.003567 98.886142 
L 293.158349 99.258212 
L 293.390521 99.332626 
L 293.545303 94.570129 
L 293.700085 85.640445 
L 293.854866 85.938102 
L 293.932257 86.012516 
L 294.009648 85.863687 
L 294.16443 76.413106 
L 294.24182 76.413106 
L 294.319211 68.078735 
L 294.396602 68.450805 
L 294.706165 70.832054 
L 294.783556 69.492602 
L 294.938338 70.087914 
L 295.015729 70.087914 
L 295.17051 67.260181 
L 295.247901 67.260181 
L 295.402683 66.888111 
L 295.557465 73.138889 
L 295.634855 73.138889 
L 295.789637 68.674047 
L 295.944419 68.674047 
L 296.02181 69.492602 
L 296.253982 87.724038 
L 296.331373 87.57521 
L 296.563545 87.57521 
L 296.640936 81.47326 
L 296.795718 85.417203 
L 296.9505 86.905484 
L 297.105281 86.08693 
L 297.260063 75.37131 
L 297.414845 72.320335 
L 297.492235 72.394749 
L 297.569626 72.171507 
L 297.647017 72.245921 
L 297.801799 66.516041 
L 297.95658 67.036939 
L 298.266144 67.036939 
L 298.343535 66.367213 
L 298.420925 72.469163 
L 298.575707 68.525219 
L 298.730489 68.525219 
L 298.80788 73.064475 
L 298.88527 72.320335 
L 299.117443 72.245921 
L 299.194834 72.022679 
L 299.427006 72.766819 
L 299.504397 72.766819 
L 299.659179 80.877948 
L 299.73657 80.72912 
L 299.81396 82.291814 
L 299.968742 81.250018 
L 300.278305 92.337708 
L 300.355696 92.18888 
L 300.66526 93.156262 
L 300.820041 93.156262 
L 301.206995 91.370325 
L 301.361777 92.486536 
L 301.516559 92.263294 
L 301.748731 92.263294 
L 302.058295 86.533414 
L 302.135685 86.533414 
L 302.213076 86.682242 
L 302.367858 86.235758 
L 302.445249 86.235758 
L 302.677421 81.175604 
L 302.832203 81.324432 
L 302.986985 81.324432 
L 303.141766 84.003337 
L 303.219157 84.003337 
L 303.52872 90.626185 
L 303.606111 90.254115 
L 303.760893 88.096108 
L 303.838284 88.617006 
L 303.993065 98.216416 
L 304.147847 95.463097 
L 304.225238 94.644543 
L 304.38002 100.076767 
L 304.45741 100.076767 
L 304.612192 100.523251 
L 304.689583 100.225595 
L 304.844365 100.523251 
L 304.999146 100.448837 
L 305.076537 100.597665 
L 305.231319 96.058409 
L 305.30871 96.058409 
L 305.3861 94.793371 
L 305.463491 94.942199 
L 305.618273 94.942199 
L 305.850445 94.421301 
L 306.005227 94.867785 
L 306.082618 94.867785 
L 306.2374 89.584389 
L 306.31479 89.584389 
L 306.469572 89.435561 
L 306.624354 89.435561 
L 306.779135 101.118563 
L 307.088699 101.788289 
L 307.475653 107.592583 
L 307.553044 106.625201 
L 307.707825 102.160359 
L 307.785216 102.160359 
L 307.862607 102.458015 
L 308.017389 95.909581 
L 308.094779 92.635364 
L 308.17217 92.709778 
L 308.326952 107.964653 
L 308.559124 99.183798 
L 308.713906 98.142002 
L 309.023469 98.142002 
L 309.10086 98.29083 
L 309.255642 105.657819 
L 309.333033 105.657819 
L 309.719987 106.253131 
L 309.874769 106.253131 
L 309.952159 101.639461 
L 310.02955 101.788289 
L 310.106941 101.639461 
L 310.184332 105.955475 
L 310.339114 100.225595 
L 310.416504 100.225595 
L 310.493895 94.272472 
L 310.571286 94.346886 
L 310.648677 94.346886 
L 310.726068 97.472276 
L 310.803459 97.397862 
L 310.880849 97.397862 
L 311.035631 94.123644 
L 311.113022 93.825988 
L 311.190413 95.165441 
L 311.345194 101.118563 
L 311.499976 102.383601 
L 311.654758 101.788289 
L 311.732149 101.937117 
L 311.88693 101.490633 
L 312.041712 101.862703 
L 312.119103 101.862703 
L 312.351275 102.532429 
L 312.428666 102.532429 
L 312.506057 97.769932 
L 312.583448 97.993174 
L 312.738229 97.993174 
L 312.893011 100.523251 
L 312.970402 100.523251 
L 313.125184 100.820907 
L 313.202574 97.769932 
L 313.357356 107.294927 
L 313.512138 101.788289 
L 313.74431 101.788289 
L 313.821701 101.565047 
L 313.976483 102.978914 
L 314.053874 103.202156 
L 314.208655 102.830086 
L 314.363437 102.085945 
L 314.518219 102.085945 
L 314.595609 101.937117 
L 314.673 101.044149 
L 314.750391 101.118563 
L 314.827782 101.490633 
L 314.982564 100.895321 
L 315.059954 100.746493 
L 315.292127 101.713875 
L 315.369518 101.937117 
L 315.524299 96.951377 
L 315.679081 97.249034 
L 315.756472 88.840249 
L 315.833863 89.658803 
L 315.988644 94.793371 
L 316.375599 94.867785 
L 316.53038 89.063491 
L 316.685162 92.040052 
L 316.762553 91.147083 
L 316.917334 86.756656 
L 316.994725 91.370325 
L 317.149507 87.277554 
L 317.304289 87.277554 
L 317.381679 87.649624 
L 317.45907 91.742396 
L 317.536461 91.667982 
L 317.691243 91.593568 
L 317.846024 103.797468 
L 318.000806 104.318366 
L 318.155588 104.243952 
L 318.232979 103.797468 
L 318.310369 103.871882 
L 318.38776 103.871882 
L 318.465151 97.993174 
L 318.542542 98.142002 
L 318.619933 98.29083 
L 318.774714 99.332626 
L 319.239059 99.332626 
L 319.393841 101.416219 
L 319.626014 101.416219 
L 319.703404 101.713875 
L 319.858186 105.732233 
L 319.935577 105.285748 
L 320.090359 109.676176 
L 320.167749 109.37852 
L 320.24514 113.620119 
L 320.322531 113.396877 
L 320.399922 113.099221 
L 320.632094 113.768947 
L 320.709485 112.652737 
L 320.786876 116.001368 
L 320.864267 115.257228 
L 320.941658 115.331642 
L 321.096439 113.768947 
L 321.17383 113.843361 
L 321.251221 112.057425 
L 321.328612 112.355081 
L 321.406003 112.429495 
L 321.560784 107.592583 
L 321.638175 107.666997 
L 321.715566 113.768947 
L 321.792957 113.620119 
L 321.947739 114.066604 
L 322.10252 114.066604 
L 322.257302 119.647655 
L 322.566865 104.318366 
L 322.799038 104.318366 
L 322.876429 114.36426 
L 322.953819 113.843361 
L 323.03121 113.843361 
L 323.108601 113.396877 
L 323.185992 113.768947 
L 323.263383 106.104303 
L 323.340774 110.8668 
L 323.418164 110.792386 
L 323.495555 111.536527 
L 323.572946 111.313285 
L 323.727728 103.202156 
L 323.9599 103.202156 
L 324.114682 106.774029 
L 324.192073 106.699615 
L 324.269464 104.467194 
L 324.346854 98.142002 
L 324.424245 98.216416 
L 324.501636 98.067588 
L 324.579027 98.142002 
L 324.656418 98.142002 
L 324.733809 97.397862 
L 324.811199 97.54669 
L 324.88859 97.54669 
L 325.043372 96.281651 
L 325.198154 96.207237 
L 325.275544 90.626185 
L 325.352935 91.742396 
L 325.585108 92.93302 
L 325.662499 92.635364 
L 325.81728 90.551771 
L 325.972062 90.551771 
L 326.049453 89.882045 
L 326.126844 90.254115 
L 326.281625 87.426382 
L 326.436407 87.872866 
L 326.513798 86.235758 
L 326.668579 90.626185 
L 326.74597 91.147083 
L 326.900752 96.579307 
L 326.978143 96.579307 
L 327.132924 91.965638 
L 327.287706 91.965638 
L 327.365097 95.165441 
L 327.442488 95.016613 
L 327.597269 95.016613 
L 327.67466 92.040052 
L 327.752051 92.114466 
L 327.829442 91.891224 
L 327.906833 90.849427 
L 327.984224 91.370325 
L 328.139005 82.515056 
L 328.293787 84.077751 
L 328.448569 83.556853 
L 328.525959 84.226579 
L 328.60335 82.58947 
L 328.680741 85.045133 
L 328.758132 79.984979 
L 328.835523 80.35705 
L 328.990304 80.133807 
L 329.145086 89.212319 
L 329.299868 83.556853 
L 329.609431 84.003337 
L 329.764213 83.556853 
L 329.841604 80.580292 
L 329.996385 85.417203 
L 330.228558 86.161344 
L 330.383339 86.161344 
L 330.538121 85.863687 
L 330.692903 82.291814 
L 330.770294 82.291814 
L 330.925075 86.459 
L 331.079857 86.459 
L 331.234639 99.630282 
L 331.312029 100.820907 
L 331.466811 99.40704 
L 331.544202 95.314269 
L 331.621593 95.686339 
L 331.776374 95.686339 
L 331.853765 96.058409 
L 332.163329 86.756656 
L 332.395501 86.83107 
L 332.472892 86.459 
L 332.550283 79.910565 
L 332.627674 82.515056 
L 332.705064 82.812712 
L 332.782455 80.282635 
L 333.092019 88.096108 
L 333.2468 87.20314 
L 333.478973 87.128726 
L 333.556364 86.979898 
L 333.633754 87.128726 
L 333.711145 90.105287 
L 333.788536 89.882045 
L 333.865927 89.956459 
L 334.020709 90.402943 
L 334.098099 90.402943 
L 334.252881 89.658803 
L 334.330272 89.658803 
L 334.639835 101.118563 
L 334.717226 101.118563 
L 334.872008 106.550787 
L 335.10418 106.550787 
L 335.258962 106.401959 
L 335.413744 109.601762 
L 335.491134 109.601762 
L 335.568525 109.899418 
L 335.723307 96.430479 
L 335.878089 96.430479 
L 336.03287 96.579307 
L 336.187652 96.504893 
L 336.265043 96.579307 
L 336.497215 96.132823 
L 336.729388 97.54669 
L 336.806779 97.100205 
L 337.193733 97.993174 
L 337.271124 97.993174 
L 337.348514 97.844346 
L 337.503296 108.63438 
L 337.658078 102.532429 
L 337.812859 102.458015 
L 338.045032 110.8668 
L 338.122423 110.569144 
L 338.354595 112.727151 
L 338.431986 112.727151 
L 338.586768 112.355081 
L 338.741549 112.280667 
L 338.81894 112.578323 
L 338.973722 110.941214 
L 339.051113 110.792386 
L 339.205894 114.215432 
L 339.283285 113.545705 
L 339.438067 125.898434 
L 339.515458 126.19609 
L 339.592849 125.45195 
L 339.74763 138.77206 
L 339.902412 138.176748 
L 340.057194 132.893352 
L 340.134584 132.893352 
L 340.211975 133.563078 
L 340.366757 128.874995 
L 340.521539 129.247065 
L 340.598929 129.247065 
L 340.67632 130.735345 
L 340.831102 126.56816 
L 340.985884 139.218544 
L 341.063274 138.77206 
L 341.218056 141.227723 
L 341.372838 141.227723 
L 341.682401 140.781239 
L 341.759792 141.376551 
L 341.991964 140.706825 
L 342.069355 139.218544 
L 342.224137 130.065619 
L 342.378919 129.470307 
L 342.5337 129.470307 
L 342.688482 131.5539 
L 342.843264 131.479486 
L 342.920654 131.777142 
L 342.998045 137.65585 
L 343.075436 137.507022 
L 343.307609 136.167569 
L 343.539781 136.167569 
L 343.694563 136.390811 
L 343.849344 132.595696 
L 344.081517 132.595696 
L 344.158908 124.558981 
L 344.236299 124.856637 
L 344.39108 136.093155 
L 344.545862 136.018741 
L 344.623253 135.200187 
L 344.778034 139.962685 
L 344.855425 138.548818 
L 344.932816 139.069716 
L 345.087598 139.665029 
L 345.397161 139.665029 
L 345.474552 140.185927 
L 345.551943 141.897449 
L 345.629334 141.674207 
L 345.706724 141.674207 
L 345.784115 138.102334 
L 345.861506 139.441787 
L 345.938897 139.441787 
L 346.093679 143.01366 
L 346.24846 139.813857 
L 346.403242 139.813857 
L 346.480633 138.474404 
L 346.558024 129.544721 
L 346.635414 137.134952 
L 346.712805 135.944327 
L 346.867587 135.274601 
L 347.17715 140.930067 
L 347.331932 132.149212 
L 347.486714 136.986124 
L 347.564104 134.456047 
L 347.641495 134.604875 
L 347.718886 134.679289 
L 347.873668 135.051359 
L 347.951059 138.02792 
L 348.028449 137.507022 
L 348.183231 138.02792 
L 348.338013 135.721085 
L 348.492794 139.292958 
L 348.647576 139.590615 
L 348.802358 139.516201 
L 348.957139 137.730264 
L 349.03453 138.995302 
L 349.111921 136.465225 
L 349.189312 136.539639 
L 349.421484 136.167569 
L 349.731048 138.02792 
L 349.885829 132.074798 
L 350.118002 132.000384 
L 350.272784 135.200187 
L 350.504956 133.488664 
L 350.737129 133.41425 
L 350.89191 133.488664 
L 350.969301 121.433592 
L 351.046692 121.508006 
L 351.201474 119.72207 
L 351.356255 119.647655 
L 351.511037 119.424413 
L 351.8206 104.76485 
L 351.897991 104.839264 
L 351.975382 99.03497 
L 352.052773 99.481454 
L 352.130164 98.29083 
L 352.207554 88.542592 
L 352.362336 98.067588 
L 352.439727 98.067588 
L 352.671899 96.951377 
L 352.74929 96.951377 
L 352.904072 100.448837 
L 352.981463 100.448837 
L 353.058854 98.737314 
L 353.213635 100.151181 
L 353.368417 98.365244 
L 353.445808 98.514072 
L 353.67798 88.244936 
L 353.910153 88.244936 
L 354.064934 87.94728 
L 354.142325 89.435561 
L 354.219716 77.529317 
L 354.297107 80.505878 
L 354.374498 80.505878 
L 354.761452 93.825988 
L 354.838843 93.081848 
L 354.916234 93.30509 
L 354.993624 94.718957 
L 355.148406 100.225595 
L 355.380579 100.151181 
L 355.457969 94.718957 
L 355.53536 95.016613 
L 355.612751 95.091027 
L 356.077096 107.741411 
L 356.309269 91.147083 
L 356.386659 90.477357 
L 356.541441 95.463097 
L 356.696223 95.463097 
L 356.851004 95.314269 
L 356.928395 95.314269 
L 357.005786 97.695518 
L 357.083177 97.17462 
L 357.160568 97.17462 
L 357.315349 97.695518 
L 357.39274 105.732233 
L 357.470131 105.434576 
L 357.702304 105.50899 
L 357.779694 105.211334 
L 357.857085 105.657819 
L 357.934476 105.583404 
L 358.011867 102.681257 
L 358.166649 105.360162 
L 358.32143 105.732233 
L 358.553603 105.732233 
L 358.708384 103.053328 
L 358.863166 103.350984 
L 359.017948 102.011531 
L 359.095339 98.6629 
L 359.172729 98.960556 
L 359.25012 98.960556 
L 359.327511 103.202156 
L 359.404902 103.127742 
L 359.482293 103.053328 
L 359.637074 100.002353 
L 359.869247 105.062506 
L 360.024029 102.011531 
L 360.17881 101.937117 
L 360.333592 108.262309 
L 360.410983 107.890239 
L 360.643155 123.070701 
L 360.797937 125.749606 
L 361.1075 125.749606 
L 361.184891 120.689452 
L 361.262282 121.061522 
L 361.417064 121.284764 
L 361.494454 120.83828 
L 361.571845 115.554884 
L 361.726627 118.084961 
L 361.881409 116.373438 
L 362.03619 118.233789 
L 362.113581 118.233789 
L 362.190972 119.424413 
L 362.423144 115.257228 
L 362.500535 115.257228 
L 362.577926 115.778126 
L 362.732708 118.829101 
L 362.96488 117.712891 
L 363.119662 118.457031 
L 363.197053 124.186911 
L 363.506616 104.095124 
L 363.661398 110.717972 
L 363.738789 110.345902 
L 363.816179 111.015628 
L 363.89357 106.699615 
L 363.970961 109.825004 
L 364.048352 109.37852 
L 364.125743 109.37852 
L 364.203134 109.080864 
L 364.357915 109.304106 
L 364.512697 108.63438 
L 364.744869 108.857622 
L 364.82226 108.857622 
L 364.899651 109.080864 
L 365.286605 120.912694 
L 365.441387 118.457031 
L 365.518778 118.457031 
L 365.596169 118.084961 
L 365.673559 118.754687 
L 365.828341 117.489649 
L 365.983123 117.489649 
L 366.060514 118.308203 
L 366.215295 114.36426 
L 366.370077 114.289846 
L 366.524859 114.587502 
L 366.67964 114.066604 
L 366.834422 126.19609 
L 366.911813 126.19609 
L 366.989204 125.972848 
L 367.143985 126.642574 
L 367.298767 126.19609 
L 367.453549 119.647655 
L 367.530939 119.796484 
L 367.685721 113.396877 
L 367.763112 112.578323 
L 368.072675 121.21035 
L 368.150066 120.763866 
L 368.227457 113.099221 
L 368.304848 113.248049 
L 368.459629 113.768947 
L 368.614411 111.983011 
L 368.769193 112.950393 
L 368.923974 112.875979 
L 369.001365 111.834183 
L 369.233538 119.349999 
L 369.310929 119.126757 
L 369.388319 117.191993 
L 369.46571 117.489649 
L 369.697883 128.651753 
L 370.084837 113.322463 
L 370.162228 113.694533 
L 370.239619 104.318366 
L 370.317009 105.285748 
L 370.549182 105.285748 
L 370.703964 106.253131 
L 370.781354 106.774029 
L 371.013527 105.360162 
L 371.090918 108.187895 
L 371.168309 107.741411 
L 371.32309 107.741411 
L 371.477872 107.592583 
L 371.555263 107.592583 
L 371.632654 107.443755 
L 371.787435 114.289846 
L 371.864826 114.215432 
L 371.942217 110.941214 
L 372.019608 111.313285 
L 372.096999 109.37852 
L 372.329171 123.293943 
L 372.406562 123.219529 
L 372.561344 121.359178 
L 372.716125 120.987108 
L 372.793516 120.987108 
L 372.870907 128.651753 
L 372.948298 128.354097 
L 373.103079 127.089058 
L 373.18047 127.089058 
L 373.412643 125.82402 
L 373.567424 107.964653 
L 373.722206 108.039067 
L 373.799597 107.815825 
L 373.876988 107.890239 
L 374.186551 107.890239 
L 374.263942 106.104303 
L 374.341333 106.253131 
L 374.418724 106.178717 
L 374.496114 95.388683 
L 374.573505 100.002353 
L 374.650896 94.644543 
L 374.728287 96.132823 
L 374.805678 91.891224 
L 374.883069 92.114466 
L 375.115241 91.370325 
L 375.347414 91.295911 
L 375.502195 94.346886 
L 375.656977 95.537511 
L 375.811759 92.56095 
L 375.889149 95.686339 
L 376.121322 86.533414 
L 376.276104 86.533414 
L 376.430885 86.012516 
L 376.585667 86.08693 
L 376.663058 86.161344 
L 376.817839 85.342789 
L 376.89523 84.747477 
L 376.972621 88.542592 
L 377.050012 88.244936 
L 377.204794 88.244936 
L 377.359575 87.649624 
L 377.591748 80.803534 
L 377.746529 83.184783 
L 377.901311 93.602746 
L 377.978702 93.156262 
L 378.056093 90.254115 
L 378.133484 90.402943 
L 378.365656 90.328529 
L 378.443047 90.179701 
L 378.520438 88.989077 
L 378.597829 89.361147 
L 378.675219 89.361147 
L 378.75261 89.882045 
L 378.830001 89.658803 
L 378.907392 89.658803 
L 378.984783 89.361147 
L 379.062174 89.435561 
L 379.216955 96.653721 
L 379.294346 97.54669 
L 379.449128 94.04923 
L 379.603909 94.123644 
L 379.836082 101.639461 
L 379.990864 101.565047 
L 380.145645 101.713875 
L 380.223036 101.713875 
L 380.300427 92.635364 
L 380.455209 98.960556 
L 380.532599 98.960556 
L 380.687381 97.54669 
L 380.842163 98.216416 
L 380.996944 105.360162 
L 381.306508 105.732233 
L 381.383899 111.015628 
L 381.461289 109.601762 
L 381.53868 97.249034 
L 381.616071 102.532429 
L 381.693462 102.9045 
L 381.770853 112.280667 
L 381.848244 110.792386 
L 381.925634 115.48047 
L 382.003025 115.257228 
L 382.157807 117.191993 
L 382.544761 117.117579 
L 382.699543 117.638477 
L 382.931715 107.815825 
L 383.086497 107.815825 
L 383.163888 107.443755 
L 383.241279 107.592583 
L 383.473451 117.861719 
L 383.705624 109.899418 
L 383.937796 109.899418 
L 384.015187 108.411137 
L 384.247359 97.695518 
L 384.32475 109.00645 
L 384.402141 108.63438 
L 384.556923 108.63438 
L 384.711704 123.070701 
L 384.789095 122.475388 
L 384.943877 122.32656 
L 385.021268 122.32656 
L 385.098659 121.805662 
L 385.176049 121.880076 
L 385.25344 122.698631 
L 385.408222 116.001368 
L 385.485613 116.001368 
L 385.563004 117.191993 
L 385.717785 107.666997 
L 385.872567 107.964653 
L 386.027349 95.537511 
L 386.104739 94.793371 
L 386.18213 95.165441 
L 386.259521 94.644543 
L 386.336912 95.388683 
L 386.414303 91.593568 
L 386.491694 91.667982 
L 386.646475 95.686339 
L 386.723866 95.314269 
L 386.801257 101.192977 
L 386.878648 100.969735 
L 386.956039 100.969735 
L 387.11082 100.820907 
L 387.188211 100.820907 
L 387.342993 100.672079 
L 387.497774 100.672079 
L 387.652556 98.588486 
L 387.807338 100.076767 
L 387.962119 99.481454 
L 388.194292 99.927938 
L 388.349074 98.886142 
L 388.658637 98.886142 
L 388.736028 98.737314 
L 388.890809 99.03497 
L 389.045591 100.076767 
L 389.277764 88.914663 
L 389.355154 88.989077 
L 389.509936 93.974816 
L 389.664718 90.328529 
L 389.742109 89.956459 
L 389.819499 87.128726 
L 389.89689 87.20314 
L 389.974281 87.128726 
L 390.051672 86.533414 
L 390.438626 97.91876 
L 390.593408 97.993174 
L 390.670799 98.365244 
L 390.82558 102.532429 
L 390.902971 102.532429 
L 390.980362 107.518169 
L 391.057753 107.146099 
L 391.212534 106.848443 
L 391.289925 106.848443 
L 391.444707 105.211334 
L 391.522098 105.062506 
L 391.599489 108.559966 
L 391.676879 108.336723 
L 391.75427 108.336723 
L 391.831661 108.857622 
L 391.986443 112.131839 
L 392.063834 112.280667 
L 392.141224 111.834183 
L 392.296006 112.057425 
L 392.450788 112.057425 
L 392.605569 112.057425 
L 392.68296 112.503909 
L 392.760351 112.057425 
L 392.915133 121.21035 
L 393.069914 121.21035 
L 393.224696 117.043165 
L 393.302087 116.819922 
L 393.534259 111.908597 
L 393.689041 111.610941 
L 393.843823 111.759769 
L 393.921214 111.536527 
L 394.075995 109.452934 
L 394.385559 109.452934 
L 394.617731 110.717972 
L 394.772513 110.941214 
L 394.927294 109.452934 
L 395.004685 109.452934 
L 395.159467 109.229692 
L 395.236858 103.27657 
L 395.314249 103.64864 
L 395.391639 103.871882 
L 395.546421 96.802549 
L 395.623812 96.728135 
L 395.701203 96.876963 
L 395.933375 95.760753 
L 396.010766 95.760753 
L 396.165548 94.793371 
L 396.242939 94.718957 
L 396.39772 92.412122 
L 396.475111 92.56095 
L 396.862065 91.444739 
L 397.171629 91.444739 
L 397.249019 89.807631 
L 397.32641 81.47326 
L 397.481192 85.417203 
L 397.558583 85.119547 
L 397.635974 81.175604 
L 397.713364 81.919744 
L 397.868146 80.208221 
L 397.945537 84.003337 
L 398.022928 83.854509 
L 398.177709 81.696502 
L 398.2551 76.636348 
L 398.332491 76.934004 
L 398.409882 76.785176 
L 398.487273 81.398846 
L 398.487273 81.398846 
" clip-path="url(#p8d1c19f47d)" style="fill: none; stroke: #1f77b4; stroke-width: 1.5; stroke-linecap: square"/>
   </g>
   <g id="patch_3">
    <path d="M 57.6 307.584 
L 57.6 41.472 
" style="fill: none; stroke: #000000; stroke-width: 0.8; stroke-linejoin: miter; stroke-linecap: square"/>
   </g>
   <g id="patch_4">
    <path d="M 414.72 307.584 
L 414.72 41.472 
" style="fill: none; stroke: #000000; stroke-width: 0.8; stroke-linejoin: miter; stroke-linecap: square"/>
   </g>
   <g id="patch_5">
    <path d="M 57.6 307.584 
L 414.72 307.584 
" style="fill: none; stroke: #000000; stroke-width: 0.8; stroke-linejoin: miter; stroke-linecap: square"/>
   </g>
   <g id="patch_6">
    <path d="M 57.6 41.472 
L 414.72 41.472 
" style="fill: none; stroke: #000000; stroke-width: 0.8; stroke-linejoin: miter; stroke-linecap: square"/>
   </g>
   <g id="text_15">
    <!-- comp15 -->
    <g transform="translate(211.90125 35.472) scale(0.12 -0.12)">
     <defs>
      <path id="DejaVuSans-63" d="M 3122 3366 
L 3122 2828 
Q 2878 2963 2633 3030 
Q 2388 3097 2138 3097 
Q 1578 3097 1268 2742 
Q 959 2388 959 1747 
Q 959 1106 1268 751 
Q 1578 397 2138 397 
Q 2388 397 2633 464 
Q 2878 531 3122 666 
L 3122 134 
Q 2881 22 2623 -34 
Q 2366 -91 2075 -91 
Q 1284 -91 818 406 
Q 353 903 353 1747 
Q 353 2603 823 3093 
Q 1294 3584 2113 3584 
Q 2378 3584 2631 3529 
Q 2884 3475 3122 3366 
z
" transform="scale(0.015625)"/>
      <path id="DejaVuSans-70" d="M 1159 525 
L 1159 -1331 
L 581 -1331 
L 581 3500 
L 1159 3500 
L 1159 2969 
Q 1341 3281 1617 3432 
Q 1894 3584 2278 3584 
Q 2916 3584 3314 3078 
Q 3713 2572 3713 1747 
Q 3713 922 3314 415 
Q 2916 -91 2278 -91 
Q 1894 -91 1617 61 
Q 1341 213 1159 525 
z
M 3116 1747 
Q 3116 2381 2855 2742 
Q 2594 3103 2138 3103 
Q 1681 3103 1420 2742 
Q 1159 2381 1159 1747 
Q 1159 1113 1420 752 
Q 1681 391 2138 391 
Q 2594 391 2855 752 
Q 3116 1113 3116 1747 
z
" transform="scale(0.015625)"/>
     </defs>
     <use xlink:href="#DejaVuSans-63"/>
     <use xlink:href="#DejaVuSans-6f" x="54.980469"/>
     <use xlink:href="#DejaVuSans-6d" x="116.162109"/>
     <use xlink:href="#DejaVuSans-70" x="213.574219"/>
     <use xlink:href="#DejaVuSans-31" x="277.050781"/>
     <use xlink:href="#DejaVuSans-35" x="340.673828"/>
    </g>
   </g>
  </g>
 </g>
 <defs>
  <clipPath id="p8d1c19f47d">
   <rect x="57.6" y="41.472" width="357.12" height="266.112"/>
  </clipPath>
 </defs>
</svg>
