<?xml version="1.0" encoding="utf-8" standalone="no"?>
<!DOCTYPE svg PUBLIC "-//W3C//DTD SVG 1.1//EN"
  "http://www.w3.org/Graphics/SVG/1.1/DTD/svg11.dtd">
<svg xmlns:xlink="http://www.w3.org/1999/xlink" width="460.8pt" height="345.6pt" viewBox="0 0 460.8 345.6" xmlns="http://www.w3.org/2000/svg" version="1.1">
 <metadata>
  <rdf:RDF xmlns:dc="http://purl.org/dc/elements/1.1/" xmlns:cc="http://creativecommons.org/ns#" xmlns:rdf="http://www.w3.org/1999/02/22-rdf-syntax-ns#">
   <cc:Work>
    <dc:type rdf:resource="http://purl.org/dc/dcmitype/StillImage"/>
    <dc:date>2023-12-03T18:15:54.431653</dc:date>
    <dc:format>image/svg+xml</dc:format>
    <dc:creator>
     <cc:Agent>
      <dc:title>Matplotlib v3.7.1, https://matplotlib.org/</dc:title>
     </cc:Agent>
    </dc:creator>
   </cc:Work>
  </rdf:RDF>
 </metadata>
 <defs>
  <style type="text/css">*{stroke-linejoin: round; stroke-linecap: butt}</style>
 </defs>
 <g id="figure_1">
  <g id="patch_1">
   <path d="M 0 345.6 
L 460.8 345.6 
L 460.8 0 
L 0 0 
z
" style="fill: #ffffff"/>
  </g>
  <g id="axes_1">
   <g id="patch_2">
    <path d="M 57.6 307.584 
L 414.72 307.584 
L 414.72 41.472 
L 57.6 41.472 
z
" style="fill: #ffffff"/>
   </g>
   <g id="matplotlib.axis_1">
    <g id="xtick_1">
     <g id="line2d_1">
      <defs>
       <path id="me7a3e034d8" d="M 0 0 
L 0 3.5 
" style="stroke: #000000; stroke-width: 0.8"/>
      </defs>
      <g>
       <use xlink:href="#me7a3e034d8" x="73.832727" y="307.584" style="stroke: #000000; stroke-width: 0.8"/>
      </g>
     </g>
     <g id="text_1">
      <!-- 0 -->
      <g transform="translate(70.651477 322.182437) scale(0.1 -0.1)">
       <defs>
        <path id="DejaVuSans-30" d="M 2034 4250 
Q 1547 4250 1301 3770 
Q 1056 3291 1056 2328 
Q 1056 1369 1301 889 
Q 1547 409 2034 409 
Q 2525 409 2770 889 
Q 3016 1369 3016 2328 
Q 3016 3291 2770 3770 
Q 2525 4250 2034 4250 
z
M 2034 4750 
Q 2819 4750 3233 4129 
Q 3647 3509 3647 2328 
Q 3647 1150 3233 529 
Q 2819 -91 2034 -91 
Q 1250 -91 836 529 
Q 422 1150 422 2328 
Q 422 3509 836 4129 
Q 1250 4750 2034 4750 
z
" transform="scale(0.015625)"/>
       </defs>
       <use xlink:href="#DejaVuSans-30"/>
      </g>
     </g>
    </g>
    <g id="xtick_2">
     <g id="line2d_2">
      <g>
       <use xlink:href="#me7a3e034d8" x="142.094827" y="307.584" style="stroke: #000000; stroke-width: 0.8"/>
      </g>
     </g>
     <g id="text_2">
      <!-- 1000 -->
      <g transform="translate(129.369827 322.182437) scale(0.1 -0.1)">
       <defs>
        <path id="DejaVuSans-31" d="M 794 531 
L 1825 531 
L 1825 4091 
L 703 3866 
L 703 4441 
L 1819 4666 
L 2450 4666 
L 2450 531 
L 3481 531 
L 3481 0 
L 794 0 
L 794 531 
z
" transform="scale(0.015625)"/>
       </defs>
       <use xlink:href="#DejaVuSans-31"/>
       <use xlink:href="#DejaVuSans-30" x="63.623047"/>
       <use xlink:href="#DejaVuSans-30" x="127.246094"/>
       <use xlink:href="#DejaVuSans-30" x="190.869141"/>
      </g>
     </g>
    </g>
    <g id="xtick_3">
     <g id="line2d_3">
      <g>
       <use xlink:href="#me7a3e034d8" x="210.356926" y="307.584" style="stroke: #000000; stroke-width: 0.8"/>
      </g>
     </g>
     <g id="text_3">
      <!-- 2000 -->
      <g transform="translate(197.631926 322.182437) scale(0.1 -0.1)">
       <defs>
        <path id="DejaVuSans-32" d="M 1228 531 
L 3431 531 
L 3431 0 
L 469 0 
L 469 531 
Q 828 903 1448 1529 
Q 2069 2156 2228 2338 
Q 2531 2678 2651 2914 
Q 2772 3150 2772 3378 
Q 2772 3750 2511 3984 
Q 2250 4219 1831 4219 
Q 1534 4219 1204 4116 
Q 875 4013 500 3803 
L 500 4441 
Q 881 4594 1212 4672 
Q 1544 4750 1819 4750 
Q 2544 4750 2975 4387 
Q 3406 4025 3406 3419 
Q 3406 3131 3298 2873 
Q 3191 2616 2906 2266 
Q 2828 2175 2409 1742 
Q 1991 1309 1228 531 
z
" transform="scale(0.015625)"/>
       </defs>
       <use xlink:href="#DejaVuSans-32"/>
       <use xlink:href="#DejaVuSans-30" x="63.623047"/>
       <use xlink:href="#DejaVuSans-30" x="127.246094"/>
       <use xlink:href="#DejaVuSans-30" x="190.869141"/>
      </g>
     </g>
    </g>
    <g id="xtick_4">
     <g id="line2d_4">
      <g>
       <use xlink:href="#me7a3e034d8" x="278.619026" y="307.584" style="stroke: #000000; stroke-width: 0.8"/>
      </g>
     </g>
     <g id="text_4">
      <!-- 3000 -->
      <g transform="translate(265.894026 322.182437) scale(0.1 -0.1)">
       <defs>
        <path id="DejaVuSans-33" d="M 2597 2516 
Q 3050 2419 3304 2112 
Q 3559 1806 3559 1356 
Q 3559 666 3084 287 
Q 2609 -91 1734 -91 
Q 1441 -91 1130 -33 
Q 819 25 488 141 
L 488 750 
Q 750 597 1062 519 
Q 1375 441 1716 441 
Q 2309 441 2620 675 
Q 2931 909 2931 1356 
Q 2931 1769 2642 2001 
Q 2353 2234 1838 2234 
L 1294 2234 
L 1294 2753 
L 1863 2753 
Q 2328 2753 2575 2939 
Q 2822 3125 2822 3475 
Q 2822 3834 2567 4026 
Q 2313 4219 1838 4219 
Q 1578 4219 1281 4162 
Q 984 4106 628 3988 
L 628 4550 
Q 988 4650 1302 4700 
Q 1616 4750 1894 4750 
Q 2613 4750 3031 4423 
Q 3450 4097 3450 3541 
Q 3450 3153 3228 2886 
Q 3006 2619 2597 2516 
z
" transform="scale(0.015625)"/>
       </defs>
       <use xlink:href="#DejaVuSans-33"/>
       <use xlink:href="#DejaVuSans-30" x="63.623047"/>
       <use xlink:href="#DejaVuSans-30" x="127.246094"/>
       <use xlink:href="#DejaVuSans-30" x="190.869141"/>
      </g>
     </g>
    </g>
    <g id="xtick_5">
     <g id="line2d_5">
      <g>
       <use xlink:href="#me7a3e034d8" x="346.881125" y="307.584" style="stroke: #000000; stroke-width: 0.8"/>
      </g>
     </g>
     <g id="text_5">
      <!-- 4000 -->
      <g transform="translate(334.156125 322.182437) scale(0.1 -0.1)">
       <defs>
        <path id="DejaVuSans-34" d="M 2419 4116 
L 825 1625 
L 2419 1625 
L 2419 4116 
z
M 2253 4666 
L 3047 4666 
L 3047 1625 
L 3713 1625 
L 3713 1100 
L 3047 1100 
L 3047 0 
L 2419 0 
L 2419 1100 
L 313 1100 
L 313 1709 
L 2253 4666 
z
" transform="scale(0.015625)"/>
       </defs>
       <use xlink:href="#DejaVuSans-34"/>
       <use xlink:href="#DejaVuSans-30" x="63.623047"/>
       <use xlink:href="#DejaVuSans-30" x="127.246094"/>
       <use xlink:href="#DejaVuSans-30" x="190.869141"/>
      </g>
     </g>
    </g>
    <g id="text_6">
     <!-- iteration -->
     <g transform="translate(215.037344 335.860562) scale(0.1 -0.1)">
      <defs>
       <path id="DejaVuSans-69" d="M 603 3500 
L 1178 3500 
L 1178 0 
L 603 0 
L 603 3500 
z
M 603 4863 
L 1178 4863 
L 1178 4134 
L 603 4134 
L 603 4863 
z
" transform="scale(0.015625)"/>
       <path id="DejaVuSans-74" d="M 1172 4494 
L 1172 3500 
L 2356 3500 
L 2356 3053 
L 1172 3053 
L 1172 1153 
Q 1172 725 1289 603 
Q 1406 481 1766 481 
L 2356 481 
L 2356 0 
L 1766 0 
Q 1100 0 847 248 
Q 594 497 594 1153 
L 594 3053 
L 172 3053 
L 172 3500 
L 594 3500 
L 594 4494 
L 1172 4494 
z
" transform="scale(0.015625)"/>
       <path id="DejaVuSans-65" d="M 3597 1894 
L 3597 1613 
L 953 1613 
Q 991 1019 1311 708 
Q 1631 397 2203 397 
Q 2534 397 2845 478 
Q 3156 559 3463 722 
L 3463 178 
Q 3153 47 2828 -22 
Q 2503 -91 2169 -91 
Q 1331 -91 842 396 
Q 353 884 353 1716 
Q 353 2575 817 3079 
Q 1281 3584 2069 3584 
Q 2775 3584 3186 3129 
Q 3597 2675 3597 1894 
z
M 3022 2063 
Q 3016 2534 2758 2815 
Q 2500 3097 2075 3097 
Q 1594 3097 1305 2825 
Q 1016 2553 972 2059 
L 3022 2063 
z
" transform="scale(0.015625)"/>
       <path id="DejaVuSans-72" d="M 2631 2963 
Q 2534 3019 2420 3045 
Q 2306 3072 2169 3072 
Q 1681 3072 1420 2755 
Q 1159 2438 1159 1844 
L 1159 0 
L 581 0 
L 581 3500 
L 1159 3500 
L 1159 2956 
Q 1341 3275 1631 3429 
Q 1922 3584 2338 3584 
Q 2397 3584 2469 3576 
Q 2541 3569 2628 3553 
L 2631 2963 
z
" transform="scale(0.015625)"/>
       <path id="DejaVuSans-61" d="M 2194 1759 
Q 1497 1759 1228 1600 
Q 959 1441 959 1056 
Q 959 750 1161 570 
Q 1363 391 1709 391 
Q 2188 391 2477 730 
Q 2766 1069 2766 1631 
L 2766 1759 
L 2194 1759 
z
M 3341 1997 
L 3341 0 
L 2766 0 
L 2766 531 
Q 2569 213 2275 61 
Q 1981 -91 1556 -91 
Q 1019 -91 701 211 
Q 384 513 384 1019 
Q 384 1609 779 1909 
Q 1175 2209 1959 2209 
L 2766 2209 
L 2766 2266 
Q 2766 2663 2505 2880 
Q 2244 3097 1772 3097 
Q 1472 3097 1187 3025 
Q 903 2953 641 2809 
L 641 3341 
Q 956 3463 1253 3523 
Q 1550 3584 1831 3584 
Q 2591 3584 2966 3190 
Q 3341 2797 3341 1997 
z
" transform="scale(0.015625)"/>
       <path id="DejaVuSans-6f" d="M 1959 3097 
Q 1497 3097 1228 2736 
Q 959 2375 959 1747 
Q 959 1119 1226 758 
Q 1494 397 1959 397 
Q 2419 397 2687 759 
Q 2956 1122 2956 1747 
Q 2956 2369 2687 2733 
Q 2419 3097 1959 3097 
z
M 1959 3584 
Q 2709 3584 3137 3096 
Q 3566 2609 3566 1747 
Q 3566 888 3137 398 
Q 2709 -91 1959 -91 
Q 1206 -91 779 398 
Q 353 888 353 1747 
Q 353 2609 779 3096 
Q 1206 3584 1959 3584 
z
" transform="scale(0.015625)"/>
       <path id="DejaVuSans-6e" d="M 3513 2113 
L 3513 0 
L 2938 0 
L 2938 2094 
Q 2938 2591 2744 2837 
Q 2550 3084 2163 3084 
Q 1697 3084 1428 2787 
Q 1159 2491 1159 1978 
L 1159 0 
L 581 0 
L 581 3500 
L 1159 3500 
L 1159 2956 
Q 1366 3272 1645 3428 
Q 1925 3584 2291 3584 
Q 2894 3584 3203 3211 
Q 3513 2838 3513 2113 
z
" transform="scale(0.015625)"/>
      </defs>
      <use xlink:href="#DejaVuSans-69"/>
      <use xlink:href="#DejaVuSans-74" x="27.783203"/>
      <use xlink:href="#DejaVuSans-65" x="66.992188"/>
      <use xlink:href="#DejaVuSans-72" x="128.515625"/>
      <use xlink:href="#DejaVuSans-61" x="169.628906"/>
      <use xlink:href="#DejaVuSans-74" x="230.908203"/>
      <use xlink:href="#DejaVuSans-69" x="270.117188"/>
      <use xlink:href="#DejaVuSans-6f" x="297.900391"/>
      <use xlink:href="#DejaVuSans-6e" x="359.082031"/>
     </g>
    </g>
   </g>
   <g id="matplotlib.axis_2">
    <g id="ytick_1">
     <g id="line2d_6">
      <defs>
       <path id="m7a1e98f686" d="M 0 0 
L -3.5 0 
" style="stroke: #000000; stroke-width: 0.8"/>
      </defs>
      <g>
       <use xlink:href="#m7a1e98f686" x="57.6" y="290.548095" style="stroke: #000000; stroke-width: 0.8"/>
      </g>
     </g>
     <g id="text_7">
      <!-- 500 -->
      <g transform="translate(31.5125 294.347314) scale(0.1 -0.1)">
       <defs>
        <path id="DejaVuSans-35" d="M 691 4666 
L 3169 4666 
L 3169 4134 
L 1269 4134 
L 1269 2991 
Q 1406 3038 1543 3061 
Q 1681 3084 1819 3084 
Q 2600 3084 3056 2656 
Q 3513 2228 3513 1497 
Q 3513 744 3044 326 
Q 2575 -91 1722 -91 
Q 1428 -91 1123 -41 
Q 819 9 494 109 
L 494 744 
Q 775 591 1075 516 
Q 1375 441 1709 441 
Q 2250 441 2565 725 
Q 2881 1009 2881 1497 
Q 2881 1984 2565 2268 
Q 2250 2553 1709 2553 
Q 1456 2553 1204 2497 
Q 953 2441 691 2322 
L 691 4666 
z
" transform="scale(0.015625)"/>
       </defs>
       <use xlink:href="#DejaVuSans-35"/>
       <use xlink:href="#DejaVuSans-30" x="63.623047"/>
       <use xlink:href="#DejaVuSans-30" x="127.246094"/>
      </g>
     </g>
    </g>
    <g id="ytick_2">
     <g id="line2d_7">
      <g>
       <use xlink:href="#m7a1e98f686" x="57.6" y="256.71313" style="stroke: #000000; stroke-width: 0.8"/>
      </g>
     </g>
     <g id="text_8">
      <!-- 1000 -->
      <g transform="translate(25.15 260.512349) scale(0.1 -0.1)">
       <use xlink:href="#DejaVuSans-31"/>
       <use xlink:href="#DejaVuSans-30" x="63.623047"/>
       <use xlink:href="#DejaVuSans-30" x="127.246094"/>
       <use xlink:href="#DejaVuSans-30" x="190.869141"/>
      </g>
     </g>
    </g>
    <g id="ytick_3">
     <g id="line2d_8">
      <g>
       <use xlink:href="#m7a1e98f686" x="57.6" y="222.878165" style="stroke: #000000; stroke-width: 0.8"/>
      </g>
     </g>
     <g id="text_9">
      <!-- 1500 -->
      <g transform="translate(25.15 226.677384) scale(0.1 -0.1)">
       <use xlink:href="#DejaVuSans-31"/>
       <use xlink:href="#DejaVuSans-35" x="63.623047"/>
       <use xlink:href="#DejaVuSans-30" x="127.246094"/>
       <use xlink:href="#DejaVuSans-30" x="190.869141"/>
      </g>
     </g>
    </g>
    <g id="ytick_4">
     <g id="line2d_9">
      <g>
       <use xlink:href="#m7a1e98f686" x="57.6" y="189.0432" style="stroke: #000000; stroke-width: 0.8"/>
      </g>
     </g>
     <g id="text_10">
      <!-- 2000 -->
      <g transform="translate(25.15 192.842419) scale(0.1 -0.1)">
       <use xlink:href="#DejaVuSans-32"/>
       <use xlink:href="#DejaVuSans-30" x="63.623047"/>
       <use xlink:href="#DejaVuSans-30" x="127.246094"/>
       <use xlink:href="#DejaVuSans-30" x="190.869141"/>
      </g>
     </g>
    </g>
    <g id="ytick_5">
     <g id="line2d_10">
      <g>
       <use xlink:href="#m7a1e98f686" x="57.6" y="155.208235" style="stroke: #000000; stroke-width: 0.8"/>
      </g>
     </g>
     <g id="text_11">
      <!-- 2500 -->
      <g transform="translate(25.15 159.007454) scale(0.1 -0.1)">
       <use xlink:href="#DejaVuSans-32"/>
       <use xlink:href="#DejaVuSans-35" x="63.623047"/>
       <use xlink:href="#DejaVuSans-30" x="127.246094"/>
       <use xlink:href="#DejaVuSans-30" x="190.869141"/>
      </g>
     </g>
    </g>
    <g id="ytick_6">
     <g id="line2d_11">
      <g>
       <use xlink:href="#m7a1e98f686" x="57.6" y="121.37327" style="stroke: #000000; stroke-width: 0.8"/>
      </g>
     </g>
     <g id="text_12">
      <!-- 3000 -->
      <g transform="translate(25.15 125.172489) scale(0.1 -0.1)">
       <use xlink:href="#DejaVuSans-33"/>
       <use xlink:href="#DejaVuSans-30" x="63.623047"/>
       <use xlink:href="#DejaVuSans-30" x="127.246094"/>
       <use xlink:href="#DejaVuSans-30" x="190.869141"/>
      </g>
     </g>
    </g>
    <g id="ytick_7">
     <g id="line2d_12">
      <g>
       <use xlink:href="#m7a1e98f686" x="57.6" y="87.538305" style="stroke: #000000; stroke-width: 0.8"/>
      </g>
     </g>
     <g id="text_13">
      <!-- 3500 -->
      <g transform="translate(25.15 91.337524) scale(0.1 -0.1)">
       <use xlink:href="#DejaVuSans-33"/>
       <use xlink:href="#DejaVuSans-35" x="63.623047"/>
       <use xlink:href="#DejaVuSans-30" x="127.246094"/>
       <use xlink:href="#DejaVuSans-30" x="190.869141"/>
      </g>
     </g>
    </g>
    <g id="ytick_8">
     <g id="line2d_13">
      <g>
       <use xlink:href="#m7a1e98f686" x="57.6" y="53.70334" style="stroke: #000000; stroke-width: 0.8"/>
      </g>
     </g>
     <g id="text_14">
      <!-- 4000 -->
      <g transform="translate(25.15 57.502559) scale(0.1 -0.1)">
       <use xlink:href="#DejaVuSans-34"/>
       <use xlink:href="#DejaVuSans-30" x="63.623047"/>
       <use xlink:href="#DejaVuSans-30" x="127.246094"/>
       <use xlink:href="#DejaVuSans-30" x="190.869141"/>
      </g>
     </g>
    </g>
    <g id="text_15">
     <!-- best fitness of swarm -->
     <g transform="translate(19.070312 228.0905) rotate(-90) scale(0.1 -0.1)">
      <defs>
       <path id="DejaVuSans-62" d="M 3116 1747 
Q 3116 2381 2855 2742 
Q 2594 3103 2138 3103 
Q 1681 3103 1420 2742 
Q 1159 2381 1159 1747 
Q 1159 1113 1420 752 
Q 1681 391 2138 391 
Q 2594 391 2855 752 
Q 3116 1113 3116 1747 
z
M 1159 2969 
Q 1341 3281 1617 3432 
Q 1894 3584 2278 3584 
Q 2916 3584 3314 3078 
Q 3713 2572 3713 1747 
Q 3713 922 3314 415 
Q 2916 -91 2278 -91 
Q 1894 -91 1617 61 
Q 1341 213 1159 525 
L 1159 0 
L 581 0 
L 581 4863 
L 1159 4863 
L 1159 2969 
z
" transform="scale(0.015625)"/>
       <path id="DejaVuSans-73" d="M 2834 3397 
L 2834 2853 
Q 2591 2978 2328 3040 
Q 2066 3103 1784 3103 
Q 1356 3103 1142 2972 
Q 928 2841 928 2578 
Q 928 2378 1081 2264 
Q 1234 2150 1697 2047 
L 1894 2003 
Q 2506 1872 2764 1633 
Q 3022 1394 3022 966 
Q 3022 478 2636 193 
Q 2250 -91 1575 -91 
Q 1294 -91 989 -36 
Q 684 19 347 128 
L 347 722 
Q 666 556 975 473 
Q 1284 391 1588 391 
Q 1994 391 2212 530 
Q 2431 669 2431 922 
Q 2431 1156 2273 1281 
Q 2116 1406 1581 1522 
L 1381 1569 
Q 847 1681 609 1914 
Q 372 2147 372 2553 
Q 372 3047 722 3315 
Q 1072 3584 1716 3584 
Q 2034 3584 2315 3537 
Q 2597 3491 2834 3397 
z
" transform="scale(0.015625)"/>
       <path id="DejaVuSans-20" transform="scale(0.015625)"/>
       <path id="DejaVuSans-66" d="M 2375 4863 
L 2375 4384 
L 1825 4384 
Q 1516 4384 1395 4259 
Q 1275 4134 1275 3809 
L 1275 3500 
L 2222 3500 
L 2222 3053 
L 1275 3053 
L 1275 0 
L 697 0 
L 697 3053 
L 147 3053 
L 147 3500 
L 697 3500 
L 697 3744 
Q 697 4328 969 4595 
Q 1241 4863 1831 4863 
L 2375 4863 
z
" transform="scale(0.015625)"/>
       <path id="DejaVuSans-77" d="M 269 3500 
L 844 3500 
L 1563 769 
L 2278 3500 
L 2956 3500 
L 3675 769 
L 4391 3500 
L 4966 3500 
L 4050 0 
L 3372 0 
L 2619 2869 
L 1863 0 
L 1184 0 
L 269 3500 
z
" transform="scale(0.015625)"/>
       <path id="DejaVuSans-6d" d="M 3328 2828 
Q 3544 3216 3844 3400 
Q 4144 3584 4550 3584 
Q 5097 3584 5394 3201 
Q 5691 2819 5691 2113 
L 5691 0 
L 5113 0 
L 5113 2094 
Q 5113 2597 4934 2840 
Q 4756 3084 4391 3084 
Q 3944 3084 3684 2787 
Q 3425 2491 3425 1978 
L 3425 0 
L 2847 0 
L 2847 2094 
Q 2847 2600 2669 2842 
Q 2491 3084 2119 3084 
Q 1678 3084 1418 2786 
Q 1159 2488 1159 1978 
L 1159 0 
L 581 0 
L 581 3500 
L 1159 3500 
L 1159 2956 
Q 1356 3278 1631 3431 
Q 1906 3584 2284 3584 
Q 2666 3584 2933 3390 
Q 3200 3197 3328 2828 
z
" transform="scale(0.015625)"/>
      </defs>
      <use xlink:href="#DejaVuSans-62"/>
      <use xlink:href="#DejaVuSans-65" x="63.476562"/>
      <use xlink:href="#DejaVuSans-73" x="125"/>
      <use xlink:href="#DejaVuSans-74" x="177.099609"/>
      <use xlink:href="#DejaVuSans-20" x="216.308594"/>
      <use xlink:href="#DejaVuSans-66" x="248.095703"/>
      <use xlink:href="#DejaVuSans-69" x="283.300781"/>
      <use xlink:href="#DejaVuSans-74" x="311.083984"/>
      <use xlink:href="#DejaVuSans-6e" x="350.292969"/>
      <use xlink:href="#DejaVuSans-65" x="413.671875"/>
      <use xlink:href="#DejaVuSans-73" x="475.195312"/>
      <use xlink:href="#DejaVuSans-73" x="527.294922"/>
      <use xlink:href="#DejaVuSans-20" x="579.394531"/>
      <use xlink:href="#DejaVuSans-6f" x="611.181641"/>
      <use xlink:href="#DejaVuSans-66" x="672.363281"/>
      <use xlink:href="#DejaVuSans-20" x="707.568359"/>
      <use xlink:href="#DejaVuSans-73" x="739.355469"/>
      <use xlink:href="#DejaVuSans-77" x="791.455078"/>
      <use xlink:href="#DejaVuSans-61" x="873.242188"/>
      <use xlink:href="#DejaVuSans-72" x="934.521484"/>
      <use xlink:href="#DejaVuSans-6d" x="973.884766"/>
     </g>
    </g>
   </g>
   <g id="line2d_14">
    <path d="M 73.832727 295.488 
L 73.900989 295.488 
L 74.105776 294.946641 
L 74.310562 287.435278 
L 74.447086 286.555569 
L 74.720135 279.044207 
L 74.788397 279.044207 
L 74.924921 272.412554 
L 75.061445 271.194495 
L 75.129707 271.194495 
L 75.334493 268.149348 
L 75.402756 268.149348 
L 75.471018 267.946338 
L 75.607542 262.668084 
L 75.675804 262.600414 
L 75.88059 259.622937 
L 75.948852 259.419927 
L 76.358425 245.209242 
L 76.426687 245.141572 
L 76.494949 244.803222 
L 76.631473 249.540117 
L 76.699735 249.675457 
L 76.83626 240.878366 
L 76.972784 241.284386 
L 77.17757 239.457298 
L 77.314094 232.757975 
L 77.382356 232.690305 
L 77.518881 233.299334 
L 78.269764 213.269035 
L 78.338026 213.945734 
L 78.406288 213.945734 
L 78.611074 208.73515 
L 78.679336 209.885538 
L 78.815861 208.73515 
L 78.884123 208.73515 
L 79.088909 202.577186 
L 79.361957 198.51699 
L 79.498482 200.547088 
L 79.566744 200.547088 
L 79.703268 197.231262 
L 79.839792 197.298931 
L 80.044578 196.757572 
L 80.181103 193.441745 
L 80.249365 192.900386 
L 80.317627 193.238736 
L 80.454151 192.968056 
L 80.727199 185.389024 
L 80.795461 190.734948 
L 80.863724 184.847664 
L 80.931986 185.524364 
L 81.000248 185.524364 
L 81.136772 186.133393 
L 81.205034 187.757471 
L 81.273296 187.013102 
L 81.478082 188.501841 
L 81.614607 187.148442 
L 81.819393 185.998053 
L 81.887655 177.674652 
L 81.955917 177.742322 
L 82.024179 177.133292 
L 82.092441 177.403972 
L 82.228966 184.915334 
L 82.433752 185.050674 
L 82.570276 183.900285 
L 82.7068 179.16339 
L 82.843324 179.50174 
L 82.911587 179.56941 
L 82.979849 179.29873 
L 83.252897 183.832615 
L 83.321159 182.885236 
L 83.457683 179.16339 
L 83.66247 180.855138 
L 83.798994 179.907759 
L 83.867256 180.381449 
L 83.935518 180.313779 
L 84.00378 179.84009 
L 84.140304 174.223485 
L 84.208566 174.561835 
L 84.276829 174.155815 
L 84.413353 168.403871 
L 84.481615 168.742221 
L 84.549877 167.456492 
L 84.618139 169.55426 
L 84.754663 167.591832 
L 84.822925 169.148241 
L 84.891187 169.080571 
L 85.30076 167.930182 
L 85.437284 168.877561 
L 85.573808 167.862512 
L 85.64207 171.855038 
L 85.710333 171.652028 
L 85.915119 171.584358 
L 86.051643 171.516688 
L 86.256429 166.238434 
L 86.392954 165.629404 
L 86.529478 168.336201 
L 86.59774 168.268531 
L 86.666002 167.659502 
L 86.734264 167.794842 
L 86.802526 167.794842 
L 86.870788 165.020375 
L 86.93905 165.291055 
L 87.075575 169.28358 
L 87.143837 169.28358 
L 87.212099 174.967855 
L 87.348623 169.75727 
L 87.621671 174.088145 
L 87.689933 173.682126 
L 87.758196 170.907659 
L 87.826458 171.110669 
L 87.89472 171.110669 
L 87.962982 172.193387 
L 88.167768 157.644352 
L 88.23603 157.847362 
L 88.304292 157.712022 
L 88.440817 156.290954 
L 88.509079 148.576582 
L 88.577341 148.914931 
L 88.713865 151.689399 
L 88.918651 147.155513 
L 89.123438 147.358523 
L 89.1917 147.087843 
L 89.259962 142.283278 
L 89.328224 144.042697 
L 89.464748 144.245706 
L 89.601272 143.501337 
L 89.737796 143.433667 
L 89.806059 143.095317 
L 89.874321 144.313376 
L 90.283893 138.493762 
L 90.352155 138.561432 
L 90.420417 138.561432 
L 90.48868 142.689298 
L 90.556942 142.553958 
L 90.625204 138.629102 
L 90.693466 142.080269 
L 90.761728 141.403569 
L 90.82999 141.403569 
L 90.966514 150.06532 
L 91.034776 149.99765 
L 91.103038 149.659301 
L 91.171301 150.13299 
L 91.307825 142.824638 
L 91.376087 142.689298 
L 91.444349 145.193085 
L 91.512611 138.764442 
L 91.580873 138.899782 
L 91.717397 139.102792 
L 91.853922 138.696772 
L 91.990446 142.215608 
L 92.058708 142.147938 
L 92.12697 141.674249 
L 92.195232 148.508912 
L 92.263494 147.290853 
L 92.331756 147.290853 
L 92.46828 142.959978 
L 92.536543 143.298327 
L 92.604805 142.959978 
L 92.673067 143.433667 
L 92.741329 143.162987 
L 92.809591 143.162987 
L 92.877853 146.681824 
L 92.946115 146.546484 
L 93.014377 146.546484 
L 93.082639 147.358523 
L 93.150901 147.155513 
L 93.219164 147.155513 
L 93.42395 143.839687 
L 93.492212 150.13299 
L 93.560474 148.576582 
L 93.696998 141.809589 
L 93.833522 141.809589 
L 93.970047 142.147938 
L 94.106571 135.380945 
L 94.174833 136.531334 
L 94.243095 138.087743 
L 94.379619 131.523759 
L 94.652668 131.45609 
L 94.72093 131.997449 
L 94.857454 131.25308 
L 94.925716 131.523759 
L 95.06224 138.426092 
L 95.267027 130.305701 
L 95.540075 127.057544 
L 95.676599 122.658999 
L 95.949648 122.862008 
L 96.01791 122.388319 
L 96.086172 122.658999 
L 96.222696 122.523659 
L 96.290958 123.606378 
L 96.35922 118.260453 
L 96.427482 123.268028 
L 96.495744 121.44094 
L 96.564006 123.741717 
L 96.632269 132.741818 
L 96.700531 131.659099 
L 96.837055 135.110266 
L 96.905317 135.313276 
L 97.041841 126.448515 
L 97.110103 126.651524 
L 97.246627 124.756766 
L 97.31489 118.125113 
L 97.383152 121.64395 
L 97.451414 120.83191 
L 97.519676 120.89958 
L 97.587938 120.89958 
L 97.6562 121.17026 
L 97.792724 127.463564 
L 97.860986 127.463564 
L 97.929248 127.125214 
L 97.997511 127.463564 
L 98.134035 123.200358 
L 98.202297 123.200358 
L 98.270559 122.794338 
L 98.338821 119.410842 
L 98.407083 120.696571 
L 98.475345 119.140162 
L 98.543607 120.019871 
L 98.680132 121.71162 
L 98.816656 126.989874 
L 98.884918 126.989874 
L 99.021442 126.042495 
L 99.226228 127.328224 
L 99.29449 127.192884 
L 99.362753 127.666573 
L 99.499277 127.260554 
L 99.772325 120.155211 
L 99.840587 124.147737 
L 99.908849 123.606378 
L 99.977111 123.606378 
L 100.113636 121.57628 
L 100.181898 121.57628 
L 100.454946 121.982299 
L 100.523208 115.485986 
L 100.659732 122.117639 
L 100.727994 122.049969 
L 100.932781 120.087541 
L 101.069305 112.10249 
L 101.137567 111.76414 
L 101.274091 108.989673 
L 101.478878 112.305499 
L 101.54714 112.305499 
L 101.615402 112.10249 
L 101.683664 112.440839 
L 101.751926 108.380643 
L 101.820188 113.861908 
L 101.88845 113.794238 
L 101.956712 113.726568 
L 102.024974 107.500934 
L 102.093236 109.395692 
L 102.161499 112.305499 
L 102.229761 111.49346 
L 102.298023 111.56113 
L 102.366285 111.42579 
L 102.434547 117.313074 
L 102.502809 116.771715 
L 102.639333 116.162685 
L 102.707595 116.704045 
L 102.775857 116.230355 
L 102.912382 119.072492 
L 102.980644 119.952201 
L 103.048906 116.907055 
L 103.18543 119.478512 
L 103.253692 119.478512 
L 103.321954 116.095015 
L 103.390216 119.546182 
L 103.458478 118.801813 
L 103.526741 118.801813 
L 103.595003 119.275502 
L 103.731527 123.674048 
L 103.799789 116.095015 
L 103.868051 119.478512 
L 103.936313 119.478512 
L 104.004575 119.140162 
L 104.072837 116.095015 
L 104.141099 116.230355 
L 104.209362 116.568705 
L 104.277624 116.433365 
L 104.345886 116.162685 
L 104.414148 116.704045 
L 104.550672 113.658898 
L 104.618934 106.215206 
L 104.687196 113.320548 
L 104.755458 113.252878 
L 104.891983 112.576179 
L 105.165031 114.267927 
L 105.233293 112.576179 
L 105.369817 116.027345 
L 105.438079 114.876957 
L 105.574604 108.448313 
L 105.642866 108.245303 
L 105.711128 106.079866 
L 105.77939 106.282876 
L 106.052438 109.531032 
L 106.325487 108.312973 
L 106.393749 108.312973 
L 106.462011 108.042294 
L 106.598535 100.530931 
L 106.666797 100.801611 
L 106.939846 101.342971 
L 107.07637 104.185108 
L 107.212894 104.185108 
L 107.281156 98.162484 
L 107.41768 105.064817 
L 107.485942 105.403166 
L 107.622467 103.711418 
L 107.758991 97.621124 
L 107.827253 97.824134 
L 107.963777 94.237628 
L 108.100301 95.658697 
L 108.168563 93.763938 
L 108.305088 96.876755 
L 108.578136 96.470736 
L 108.71466 95.320347 
L 108.782922 100.463262 
L 108.851184 99.177533 
L 108.919446 99.177533 
L 108.987709 97.959474 
L 109.124233 104.117438 
L 109.192495 104.117438 
L 109.397281 92.884229 
L 109.465543 93.087239 
L 109.602067 91.192481 
L 109.67033 91.530831 
L 109.738592 90.989471 
L 109.943378 100.869281 
L 110.01164 100.395592 
L 110.079902 100.395592 
L 110.148164 94.169958 
L 110.216426 96.673745 
L 110.352951 98.365494 
L 110.421213 98.365494 
L 110.625999 94.711317 
L 110.694261 94.981997 
L 110.830785 92.74889 
L 110.967309 93.019569 
L 111.172096 93.763938 
L 111.240358 93.628599 
L 111.30862 93.628599 
L 111.376882 90.177432 
L 111.445144 91.395491 
L 111.513406 96.335396 
L 111.581668 93.831608 
L 111.64993 97.282775 
L 111.718193 97.012095 
L 111.854717 89.365393 
L 111.991241 89.027043 
L 112.059503 89.094713 
L 112.196027 94.575978 
L 112.264289 94.575978 
L 112.332551 87.944324 
L 112.400814 93.628599 
L 112.469076 91.86918 
L 112.537338 91.86918 
L 112.673862 93.087239 
L 112.878648 103.914428 
L 112.94691 103.846758 
L 113.015172 103.846758 
L 113.151697 109.125013 
L 113.288221 108.515983 
L 113.424745 110.546081 
L 113.493007 110.275401 
L 113.629531 111.76414 
L 113.697793 111.69647 
L 113.90258 104.997147 
L 113.970842 103.779088 
L 114.039104 98.027144 
L 114.107366 98.500834 
L 114.175628 98.500834 
L 114.24389 98.974523 
L 114.312152 95.861706 
L 114.380414 102.561029 
L 114.448677 102.08734 
L 114.516939 102.08734 
L 114.585201 102.899379 
L 114.721725 92.47821 
L 114.789987 92.41054 
L 114.858249 91.80151 
L 114.926511 93.290249 
L 115.063035 88.485684 
L 115.131297 89.839083 
L 115.19956 89.365393 
L 115.267822 82.26005 
L 115.336084 82.73374 
L 115.404346 81.989371 
L 115.472608 84.222478 
L 115.609132 103.440738 
L 115.677394 102.899379 
L 115.745656 103.305399 
L 115.882181 98.500834 
L 115.950443 98.433164 
L 116.018705 100.327922 
L 116.086967 98.974523 
L 116.155229 99.380543 
L 116.360015 98.906853 
L 116.496539 104.997147 
L 116.633064 101.54598 
L 116.769588 101.47831 
L 116.83785 100.733941 
L 116.906112 100.869281 
L 116.974374 96.403066 
L 117.17916 102.628699 
L 117.315685 103.034719 
L 117.452209 107.500934 
L 117.520471 107.636274 
L 117.588733 108.583653 
L 117.725257 105.673846 
L 117.861781 112.170159 
L 117.930044 108.922003 
L 118.066568 112.10249 
L 118.13483 112.643849 
L 118.612665 105.606176 
L 118.680927 105.741516 
L 118.749189 105.673846 
L 118.817451 108.515983 
L 118.885713 107.162585 
L 119.022237 106.418215 
L 119.158761 106.418215 
L 119.363548 99.854232 
L 119.500072 93.696269 
L 119.568334 95.658697 
L 119.636596 95.252677 
L 119.704858 95.252677 
L 119.841382 95.455687 
L 119.909644 95.320347 
L 120.114431 102.35802 
L 120.250955 102.35802 
L 120.387479 101.004621 
L 120.455741 103.779088 
L 120.592265 96.538406 
L 120.660528 97.959474 
L 120.72879 102.08734 
L 120.797052 101.207631 
L 120.865314 101.207631 
L 120.933576 101.072291 
L 121.138362 92.74889 
L 121.206624 93.019569 
L 121.274886 93.087239 
L 121.343149 94.440638 
L 121.479673 88.824034 
L 121.752721 90.989471 
L 121.889245 95.591027 
L 122.02577 92.951899 
L 122.230556 93.019569 
L 122.36708 91.260151 
L 122.571866 96.064716 
L 122.708391 95.929376 
L 122.776653 88.215004 
L 122.844915 88.959373 
L 122.913177 89.771413 
L 122.981439 87.402965 
L 123.049701 87.470635 
L 123.117963 96.538406 
L 123.186225 94.440638 
L 123.254487 94.034618 
L 123.322749 94.237628 
L 123.391012 94.305298 
L 123.595798 97.418115 
L 123.66406 97.215105 
L 123.732322 101.410641 
L 123.800584 99.989572 
L 123.868846 93.425589 
L 123.937108 98.094814 
L 124.00537 97.959474 
L 124.073633 96.741415 
L 124.210157 98.974523 
L 124.278419 98.974523 
L 124.346681 99.177533 
L 124.483205 102.628699 
L 124.619729 98.365494 
L 124.756254 99.312873 
L 124.892778 108.312973 
L 125.029302 101.952 
L 125.097564 103.779088 
L 125.165826 103.643748 
L 125.234088 103.779088 
L 125.30235 103.237729 
L 125.370612 103.440738 
L 125.438875 110.884431 
L 125.507137 108.922003 
L 125.575399 108.515983 
L 125.711923 110.478411 
L 125.780185 110.478411 
L 125.848447 110.613751 
L 125.984971 108.786663 
L 126.053233 102.696369 
L 126.121496 107.500934 
L 126.189758 104.929477 
L 126.25802 104.861807 
L 126.326282 105.064817 
L 126.462806 104.455787 
L 126.531068 105.200157 
L 126.59933 103.576078 
L 126.667592 104.049768 
L 126.804117 105.132487 
L 126.872379 105.132487 
L 127.077165 105.673846 
L 127.418475 98.094814 
L 127.486738 98.094814 
L 127.555 94.034618 
L 127.623262 96.132386 
L 127.691524 97.553455 
L 127.759786 97.147435 
L 127.828048 97.147435 
L 127.964572 93.628599 
L 128.101096 94.914327 
L 128.237621 90.921801 
L 128.374145 90.854131 
L 128.442407 91.463161 
L 128.578931 96.741415 
L 128.647193 98.230154 
L 128.783717 94.102288 
L 128.920242 94.102288 
L 128.988504 94.508308 
L 129.125028 91.124811 
L 129.19329 91.327821 
L 129.329814 91.057141 
L 129.466338 87.808985 
L 129.602863 89.162383 
L 129.739387 89.094713 
L 129.807649 88.418014 
L 129.944173 85.034517 
L 130.012435 85.305197 
L 130.080697 85.981897 
L 130.285484 84.763838 
L 130.353746 84.357818 
L 130.422008 80.906652 
L 130.558532 83.884129 
L 130.626794 83.884129 
L 130.83158 96.673745 
L 130.899842 96.673745 
L 131.036367 104.794137 
L 131.104629 104.658797 
L 131.172891 104.658797 
L 131.377677 105.809186 
L 131.445939 105.403166 
L 131.582463 103.034719 
L 131.650726 103.034719 
L 131.855512 93.493259 
L 131.923774 92.20753 
L 132.060298 99.989572 
L 132.12856 100.124912 
L 132.265084 95.726366 
L 132.333347 95.726366 
L 132.401609 98.568503 
L 132.674657 89.433063 
L 132.742919 89.906752 
L 132.811181 86.455586 
L 132.879443 91.057141 
L 132.947705 90.989471 
L 133.015968 91.93685 
L 133.08423 90.380442 
L 133.220754 93.019569 
L 133.357278 89.906752 
L 133.493802 98.771513 
L 133.630326 98.568503 
L 133.766851 100.666271 
L 133.835113 100.869281 
L 133.903375 100.530931 
L 133.971637 100.666271 
L 134.039899 100.666271 
L 134.108161 98.365494 
L 134.176423 98.771513 
L 134.244685 98.771513 
L 134.38121 98.906853 
L 134.517734 100.869281 
L 134.654258 102.696369 
L 134.790782 104.794137 
L 134.859044 104.794137 
L 134.927306 104.455787 
L 135.063831 105.403166 
L 135.200355 105.470836 
L 135.336879 105.267827 
L 135.473403 104.726467 
L 135.541665 105.064817 
L 135.678189 98.906853 
L 135.746452 99.042193 
L 135.814714 96.673745 
L 135.951238 98.636173 
L 136.087762 97.824134 
L 136.224286 99.583552 
L 136.292548 99.583552 
L 136.36081 98.839183 
L 136.497335 93.290249 
L 136.565597 93.290249 
L 136.770383 92.816559 
L 136.838645 98.433164 
L 136.906907 98.365494 
L 137.043431 95.591027 
L 137.384742 95.658697 
L 137.453004 95.185007 
L 137.589528 101.072291 
L 137.726052 101.072291 
L 137.862577 99.786562 
L 137.930839 99.786562 
L 137.999101 97.079765 
L 138.067363 97.147435 
L 138.135625 97.215105 
L 138.408673 95.726366 
L 138.476936 95.658697 
L 138.61346 103.102389 
L 138.749984 92.951899 
L 138.818246 95.523357 
L 138.95477 95.388017 
L 139.091294 95.049667 
L 139.159557 95.049667 
L 139.364343 94.102288 
L 139.500867 94.914327 
L 139.569129 94.914327 
L 139.705653 91.124811 
L 139.773915 90.989471 
L 139.91044 96.132386 
L 140.115226 94.508308 
L 140.25175 95.117337 
L 140.320012 94.914327 
L 140.456536 95.252677 
L 140.593061 95.252677 
L 140.729585 101.952 
L 140.797847 98.568503 
L 140.866109 98.703843 
L 140.934371 99.042193 
L 141.070895 90.651122 
L 141.139157 89.500733 
L 141.20742 95.794036 
L 141.275682 95.252677 
L 141.343944 95.388017 
L 141.480468 90.583452 
L 141.54873 90.448112 
L 141.753516 94.846657 
L 141.890041 94.981997 
L 142.026565 94.102288 
L 142.094827 96.809085 
L 142.163089 96.673745 
L 142.436137 95.455687 
L 142.504399 98.568503 
L 142.572662 98.433164 
L 142.640924 98.703843 
L 142.777448 96.944425 
L 142.913972 91.733841 
L 143.050496 92.00452 
L 143.18702 91.733841 
L 143.323545 91.80151 
L 143.528331 92.41054 
L 143.596593 90.583452 
L 143.733117 98.974523 
L 143.801379 98.771513 
L 143.937904 97.688794 
L 144.006166 97.485785 
L 144.14269 90.583452 
L 144.279214 90.583452 
L 144.347476 90.380442 
L 144.484 89.027043 
L 144.552262 90.786462 
L 144.620525 90.245102 
L 144.757049 88.079664 
L 144.825311 88.215004 
L 144.893573 88.891703 
L 145.030097 94.778987 
L 145.166621 95.049667 
L 145.234883 94.914327 
L 145.43967 98.839183 
L 145.507932 98.771513 
L 145.576194 97.553455 
L 145.78098 91.93685 
L 145.985766 94.305298 
L 146.122291 94.102288 
L 146.258815 86.996945 
L 146.395339 86.793936 
L 146.463601 91.530831 
L 146.531863 90.989471 
L 146.668387 91.530831 
L 146.804912 95.252677 
L 146.941436 95.320347 
L 147.009698 96.200056 
L 147.146222 91.86918 
L 147.351008 99.177533 
L 147.419271 98.906853 
L 147.487533 99.989572 
L 147.555795 103.846758 
L 147.624057 103.508408 
L 147.692319 103.305399 
L 147.760581 105.064817 
L 147.897105 101.952 
L 148.033629 107.636274 
L 148.306678 96.876755 
L 148.511464 105.876856 
L 148.647988 105.876856 
L 148.852775 106.282876 
L 148.989299 106.215206 
L 149.057561 103.982098 
L 149.125823 105.809186 
L 149.194085 105.470836 
L 149.262347 105.673846 
L 149.330609 105.606176 
L 149.398871 105.606176 
L 149.467134 106.079866 
L 149.603658 109.192683 
L 149.67192 108.177634 
L 149.740182 114.132587 
L 149.808444 113.929578 
L 149.944968 115.418316 
L 150.01323 115.282976 
L 150.081492 114.741617 
L 150.218017 111.22278 
L 150.354541 111.29045 
L 150.422803 111.087441 
L 150.491065 110.004722 
L 150.627589 111.49346 
L 150.695851 111.35812 
L 150.832376 104.049768 
L 150.900638 103.643748 
L 151.037162 99.854232 
L 151.105424 99.854232 
L 151.173686 103.170059 
L 151.241948 103.102389 
L 151.378472 94.846657 
L 151.583259 99.312873 
L 151.651521 99.042193 
L 151.719783 99.042193 
L 151.992831 105.741516 
L 152.197618 107.906954 
L 152.26588 107.162585 
L 152.334142 103.779088 
L 152.402404 104.455787 
L 152.675452 104.388117 
L 152.743714 102.22268 
L 152.811976 102.29035 
L 152.948501 102.42569 
L 153.085025 102.42569 
L 153.221549 101.410641 
L 153.289811 101.342971 
L 153.494597 106.621225 
L 153.699384 104.049768 
L 153.767646 104.049768 
L 153.835908 106.147536 
L 153.972432 112.643849 
L 154.245481 113.455888 
L 154.382005 110.410741 
L 154.450267 110.410741 
L 154.586791 111.019771 
L 154.655053 111.019771 
L 154.791577 107.162585 
L 154.928102 106.959575 
L 155.132888 100.395592 
L 155.337674 94.914327 
L 155.405936 95.049667 
L 155.474198 95.049667 
L 155.610723 98.974523 
L 155.678985 98.297824 
L 155.747247 95.252677 
L 155.815509 95.591027 
L 156.020295 94.846657 
L 156.088557 98.230154 
L 156.156819 98.162484 
L 156.225081 98.500834 
L 156.293344 96.606076 
L 156.361606 91.260151 
L 156.429868 91.327821 
L 156.49813 91.666171 
L 156.634654 93.222579 
L 156.771178 92.2752 
L 156.83944 92.2752 
L 156.975965 88.215004 
L 157.112489 88.147334 
L 157.249013 79.891603 
L 157.317275 80.838982 
L 157.385537 83.545779 
L 157.453799 82.86908 
L 157.522061 82.86908 
L 157.590323 83.545779 
L 157.726848 72.109561 
L 157.79511 74.342669 
L 157.863372 72.51558 
L 157.931634 75.087038 
L 157.999896 74.139659 
L 158.272944 67.846355 
L 158.341207 67.846355 
L 158.477731 67.169656 
L 158.682517 70.214803 
L 158.750779 75.154708 
L 158.819041 74.545678 
L 158.955565 74.478008 
L 159.228614 85.169857 
L 159.296876 84.696168 
L 159.4334 80.974322 
L 159.501662 80.974322 
L 159.706449 86.320246 
L 159.842973 86.455586 
L 159.979497 89.839083 
L 160.047759 89.771413 
L 160.252545 91.192481 
L 160.320807 91.192481 
L 160.38907 90.718792 
L 160.457332 91.057141 
L 160.593856 84.831508 
L 160.662118 85.914227 
L 160.73038 85.711217 
L 160.798642 80.297622 
L 160.866904 82.19238 
L 160.935166 86.049566 
L 161.003428 84.628498 
L 161.07169 84.425488 
L 161.139953 83.613449 
L 161.208215 83.816459 
L 161.276477 86.184906 
L 161.344739 83.681119 
L 161.413001 84.019469 
L 161.481263 84.222478 
L 161.549525 86.049566 
L 161.617787 85.237527 
L 161.686049 85.034517 
L 161.754311 85.575877 
L 161.890836 82.057041 
L 162.232146 88.824034 
L 162.300408 84.831508 
L 162.36867 85.034517 
L 162.505195 85.846557 
L 162.641719 78.199855 
L 162.709981 78.538204 
L 162.846505 79.485583 
L 162.914767 79.147234 
L 163.256078 81.380341 
L 163.392602 81.380341 
L 163.529126 79.620923 
L 163.597388 79.620923 
L 163.66565 76.440436 
L 163.733912 76.846456 
L 163.802174 78.199855 
L 164.006961 90.515782 
L 164.143485 90.515782 
L 164.211747 91.86918 
L 164.280009 91.260151 
L 164.348271 91.192481 
L 164.416533 90.515782 
L 164.826106 72.041891 
L 164.894368 72.78626 
L 165.030892 72.041891 
L 165.099154 72.041891 
L 165.235679 72.44791 
L 165.440465 78.538204 
L 165.576989 74.681018 
L 165.645251 74.681018 
L 165.781775 74.478008 
L 165.850037 74.478008 
L 165.986562 77.523155 
L 166.123086 76.778786 
L 166.191348 76.711116 
L 166.327872 77.117136 
L 166.464396 77.117136 
L 166.669183 79.891603 
L 166.737445 79.417913 
L 166.873969 76.643446 
L 167.010493 77.793835 
L 167.215279 76.305097 
L 167.283542 76.846456 
L 167.351804 76.575776 
L 167.693114 62.432761 
L 167.8979 67.237326 
L 168.034425 67.372666 
L 168.102687 68.117035 
L 168.239211 65.748587 
L 168.307473 65.748587 
L 168.443997 68.590724 
L 168.580521 68.455385 
L 168.785308 73.05694 
L 168.921832 73.598299 
L 168.990094 74.681018 
L 169.058356 74.478008 
L 169.126618 74.478008 
L 169.399667 64.530529 
L 169.604453 73.530629 
L 169.672715 73.868979 
L 169.740977 78.402864 
L 169.809239 78.267524 
L 169.877501 76.711116 
L 169.945763 78.470534 
L 170.014026 77.455485 
L 170.15055 73.936649 
L 170.218812 74.748688 
L 170.287074 74.139659 
L 170.423598 78.267524 
L 170.49186 79.891603 
L 170.560122 79.823933 
L 170.696647 80.162283 
L 170.833171 79.891603 
L 170.969695 83.07209 
L 171.174481 80.568302 
L 171.242743 80.635972 
L 171.311005 76.711116 
L 171.379268 78.470534 
L 171.515792 76.575776 
L 171.584054 75.628397 
L 171.720578 76.305097 
L 171.78884 76.305097 
L 171.857102 76.440436 
L 172.061889 75.628397 
L 172.130151 73.462959 
L 172.198413 74.274999 
L 172.266675 74.274999 
L 172.539723 71.365192 
L 172.607985 65.883927 
L 172.676247 66.357617 
L 172.74451 66.425287 
L 172.881034 66.019267 
L 172.949296 62.77111 
L 173.290606 84.290148 
L 173.358868 81.448011 
L 173.495393 71.500531 
L 173.563655 78.267524 
L 173.631917 77.523155 
L 173.700179 77.184806 
L 173.768441 71.771211 
L 173.836703 77.929175 
L 173.904965 77.793835 
L 173.973227 78.538204 
L 174.041489 83.816459 
L 174.109752 83.545779 
L 174.178014 83.681119 
L 174.246276 83.07209 
L 174.451062 90.718792 
L 174.519324 89.568403 
L 174.587586 92.54588 
L 174.72411 87.605975 
L 174.928897 90.651122 
L 175.065421 90.651122 
L 175.201945 89.162383 
L 175.338469 97.418115 
L 175.406731 96.741415 
L 175.474994 98.636173 
L 175.611518 92.61355 
L 175.67978 99.651222 
L 175.748042 99.380543 
L 175.884566 99.718892 
L 175.952828 99.583552 
L 176.02109 93.560929 
L 176.089352 93.628599 
L 176.225877 97.959474 
L 176.294139 98.365494 
L 176.362401 98.297824 
L 176.430663 98.094814 
L 176.567187 97.418115 
L 176.703711 103.034719 
L 176.771973 102.831709 
L 176.840235 107.974624 
L 176.908498 105.944526 
L 176.97676 105.944526 
L 177.045022 109.057343 
L 177.113284 108.989673 
L 177.181546 109.463362 
L 177.31807 104.658797 
L 177.386332 104.658797 
L 177.727643 94.575978 
L 177.864167 95.117337 
L 177.932429 94.643648 
L 178.137215 106.079866 
L 178.27374 105.876856 
L 178.478526 91.124811 
L 178.546788 88.485684 
L 178.61505 88.621024 
L 178.683312 87.538305 
L 178.751574 91.733841 
L 178.819836 91.598501 
L 178.956361 92.20753 
L 179.024623 92.07219 
L 179.092885 91.463161 
L 179.161147 91.80151 
L 179.365933 83.681119 
L 179.502457 83.681119 
L 179.707244 76.305097 
L 179.843768 77.523155 
L 179.980292 84.899178 
L 180.116816 81.109662 
L 180.25334 84.628498 
L 180.389865 77.523155 
L 180.526389 79.350243 
L 180.731175 67.846355 
L 180.867699 70.417813 
L 181.004224 69.538103 
L 181.140748 64.733538 
L 181.20901 64.733538 
L 181.277272 64.395189 
L 181.345534 66.831306 
L 181.482058 64.327519 
L 181.55032 64.056839 
L 181.618582 65.545578 
L 181.686845 69.470434 
L 181.755107 67.846355 
L 181.823369 67.643345 
L 181.891631 67.778685 
L 182.232941 81.312671 
L 182.437728 92.07219 
L 182.50599 92.07219 
L 182.574252 99.312873 
L 182.642514 99.177533 
L 182.710776 99.177533 
L 182.779038 101.952 
L 182.8473 101.68132 
L 182.983824 98.365494 
L 183.256873 97.215105 
L 183.393397 105.335497 
L 183.529921 98.568503 
L 183.666445 102.35802 
L 183.734708 102.35802 
L 184.007756 98.568503 
L 184.076018 101.275301 
L 184.14428 101.207631 
L 184.280804 101.072291 
L 184.417329 101.342971 
L 184.485591 101.207631 
L 184.622115 97.959474 
L 184.690377 97.959474 
L 184.758639 102.899379 
L 184.826901 102.831709 
L 184.895163 103.034719 
L 185.031687 107.500934 
L 185.09995 107.500934 
L 185.168212 106.553555 
L 185.236474 106.688895 
L 185.304736 106.824235 
L 185.372998 106.350545 
L 185.509522 110.072392 
L 185.577784 110.884431 
L 185.714308 109.937052 
L 185.850833 110.343071 
L 185.987357 110.478411 
L 186.192143 113.523558 
L 186.260405 114.064917 
L 186.328667 119.952201 
L 186.396929 116.095015 
L 186.465192 116.433365 
L 186.533454 116.433365 
L 186.669978 118.260453 
L 186.874764 114.267927 
L 187.011288 114.267927 
L 187.147813 115.824336 
L 187.284337 115.892006 
L 187.352599 121.10259 
L 187.420861 117.786764 
L 187.489123 117.854434 
L 187.557385 117.177734 
L 187.625647 121.77929 
L 187.762171 115.215306 
L 187.830434 115.012297 
L 187.898696 115.350646 
L 188.103482 113.252878 
L 188.240006 112.643849 
L 188.37653 110.072392 
L 188.444792 109.125013 
L 188.581317 106.485885 
L 188.717841 115.688996 
L 188.854365 109.734042 
L 188.990889 108.651323 
L 189.127413 105.876856 
L 189.400462 108.583653 
L 189.536986 107.568604 
L 189.605248 107.568604 
L 189.67351 108.245303 
L 189.810034 106.824235 
L 189.878297 106.756565 
L 189.946559 107.162585 
L 190.014821 105.538506 
L 190.083083 106.147536 
L 190.151345 106.350545 
L 190.219607 107.027245 
L 190.356131 102.08734 
L 190.424393 102.01967 
L 190.560918 102.493359 
L 190.765704 108.922003 
L 190.97049 107.839284 
L 191.038752 107.974624 
L 191.175276 104.320448 
L 191.243538 104.388117 
L 191.653111 106.824235 
L 191.721373 106.282876 
L 191.857897 102.764039 
L 191.926159 102.696369 
L 192.062684 106.756565 
L 192.130946 105.944526 
L 192.403994 112.643849 
L 192.472256 119.410842 
L 192.540518 118.937152 
L 192.745305 119.072492 
L 192.881829 119.546182 
L 193.018353 113.388218 
L 193.086615 112.982199 
L 193.154877 113.117538 
L 193.291401 119.749192 
L 193.359664 119.410842 
L 193.496188 117.922103 
L 193.632712 117.989773 
L 193.700974 117.042394 
L 193.769236 117.448414 
L 193.837498 117.448414 
L 194.042285 116.501035 
L 194.110547 114.200257 
L 194.178809 114.673947 
L 194.315333 121.71162 
L 194.588381 119.749192 
L 194.656643 119.749192 
L 194.724906 119.410842 
L 194.793168 117.583754 
L 194.86143 118.328123 
L 194.929692 118.328123 
L 194.997954 123.065018 
L 195.066216 122.794338 
L 195.134478 122.726669 
L 195.20274 122.862008 
L 195.339264 114.538607 
L 195.407527 119.681522 
L 195.544051 111.69647 
L 195.612313 115.350646 
L 195.748837 112.237829 
L 195.817099 112.237829 
L 195.885361 111.69647 
L 195.953623 111.83181 
L 196.021885 111.83181 
L 196.226672 111.42579 
L 196.294934 114.132587 
L 196.363196 113.861908 
L 196.49972 113.794238 
L 196.567982 114.741617 
L 196.636244 112.914529 
L 196.772769 115.688996 
L 196.841031 114.538607 
L 196.909293 114.606277 
L 196.977555 114.538607 
L 197.045817 114.673947 
L 197.114079 114.606277 
L 197.182341 114.606277 
L 197.45539 106.485885 
L 197.523652 105.335497 
L 197.591914 105.606176 
L 197.660176 105.673846 
L 197.728438 106.012196 
L 197.7967 105.673846 
L 197.864962 106.012196 
L 198.001486 106.959575 
L 198.138011 102.967049 
L 198.342797 119.275502 
L 198.547583 119.884531 
L 198.615845 119.884531 
L 198.820632 131.929779 
L 198.957156 126.922204 
L 199.025418 126.786864 
L 199.298466 117.313074 
L 199.366728 116.636375 
L 199.43499 118.328123 
L 199.503253 117.989773 
L 199.571515 118.057443 
L 199.639777 118.395793 
L 199.776301 117.583754 
L 200.117611 102.29035 
L 200.185874 102.29035 
L 200.322398 96.741415 
L 200.663708 115.959676 
L 200.73197 109.057343 
L 200.800232 109.125013 
L 200.868495 109.192683 
L 201.005019 99.921902 
L 201.073281 101.139961 
L 201.141543 100.530931 
L 201.209805 100.530931 
L 201.346329 101.47831 
L 201.414591 101.47831 
L 201.551116 101.342971 
L 201.619378 101.81666 
L 201.68764 101.410641 
L 201.755902 101.54598 
L 201.892426 102.08734 
L 202.02895 101.410641 
L 202.165474 106.824235 
L 202.301999 106.824235 
L 202.370261 110.410741 
L 202.438523 108.854333 
L 202.506785 108.922003 
L 202.575047 108.651323 
L 202.779833 94.237628 
L 202.848095 94.169958 
L 202.98462 94.440638 
L 203.052882 94.440638 
L 203.121144 94.102288 
L 203.257668 98.839183 
L 203.394192 99.312873 
L 203.462454 99.245203 
L 203.667241 94.102288 
L 203.803765 98.500834 
L 203.872027 98.974523 
L 203.940289 98.839183 
L 204.145075 96.335396 
L 204.2816 96.335396 
L 204.349862 96.538406 
L 204.554648 95.252677 
L 204.62291 95.252677 
L 204.691172 96.132386 
L 204.759434 95.997046 
L 204.827696 95.523357 
L 204.895958 91.733841 
L 204.964221 93.966948 
L 205.032483 93.966948 
L 205.305531 98.771513 
L 205.373793 98.703843 
L 205.510317 99.989572 
L 205.578579 98.839183 
L 205.646842 98.906853 
L 205.783366 102.01967 
L 205.851628 111.89948 
L 205.91989 111.29045 
L 206.056414 110.884431 
L 206.192938 110.952101 
L 206.2612 111.29045 
L 206.329462 110.546081 
L 206.465987 114.267927 
L 206.602511 114.267927 
L 206.670773 113.861908 
L 206.807297 111.96715 
L 206.943821 111.29045 
L 207.012083 111.29045 
L 207.148608 111.69647 
L 207.285132 105.944526 
L 207.353394 105.944526 
L 207.489918 100.666271 
L 207.626442 99.177533 
L 207.694704 100.327922 
L 207.762967 105.809186 
L 207.831229 105.673846 
L 207.967753 105.064817 
L 208.036015 105.064817 
L 208.104277 103.440738 
L 208.309063 93.560929 
L 208.445588 93.154909 
L 208.51385 93.154909 
L 208.582112 93.019569 
L 208.650374 93.154909 
L 208.718636 92.74889 
L 208.85516 98.974523 
L 208.923422 96.944425 
L 209.128209 96.876755 
L 209.264733 94.508308 
L 209.401257 95.861706 
L 209.469519 94.305298 
L 209.537781 95.861706 
L 209.606043 99.989572 
L 209.674305 99.854232 
L 209.742567 99.854232 
L 209.879092 100.530931 
L 209.947354 99.989572 
L 210.015616 100.395592 
L 210.15214 94.440638 
L 210.220402 94.034618 
L 210.356926 94.440638 
L 210.425188 94.440638 
L 210.561713 101.410641 
L 210.698237 100.936951 
L 210.766499 100.327922 
L 210.903023 102.696369 
L 211.039547 104.455787 
L 211.176072 104.861807 
L 211.244334 104.929477 
L 211.312596 104.388117 
L 211.44912 108.448313 
L 211.517382 108.448313 
L 211.653906 111.69647 
L 211.79043 111.69647 
L 211.858693 111.15511 
L 211.926955 111.83181 
L 211.995217 118.057443 
L 212.063479 117.583754 
L 212.131741 117.583754 
L 212.336527 111.22278 
L 212.404789 111.15511 
L 212.541314 103.237729 
L 212.609576 102.696369 
L 212.814362 106.079866 
L 212.882624 106.756565 
L 212.950886 106.688895 
L 213.019148 102.899379 
L 213.08741 103.170059 
L 213.223935 106.756565 
L 213.292197 106.756565 
L 213.428721 106.621225 
L 213.496983 106.621225 
L 213.701769 106.959575 
L 213.770031 106.282876 
L 213.838293 106.350545 
L 213.906556 106.282876 
L 213.974818 105.132487 
L 214.04308 107.771614 
L 214.179604 104.320448 
L 214.38439 104.252778 
L 214.452652 104.320448 
L 214.589177 101.88433 
L 214.657439 101.68132 
L 214.793963 99.921902 
L 214.862225 100.598601 
L 214.930487 96.470736 
L 214.998749 96.741415 
L 215.067011 95.726366 
L 215.135273 88.891703 
L 215.203535 90.583452 
L 215.271798 90.583452 
L 215.34006 89.230053 
L 215.408322 89.297723 
L 215.476584 89.297723 
L 215.613108 90.989471 
L 215.749632 85.981897 
L 215.886156 85.846557 
L 216.022681 85.237527 
L 216.090943 85.305197 
L 216.159205 86.049566 
L 216.227467 85.711217 
L 216.295729 85.711217 
L 216.500515 93.357919 
L 216.568777 93.357919 
L 216.63704 93.087239 
L 216.705302 93.425589 
L 216.773564 92.61355 
L 216.841826 95.388017 
L 216.97835 90.042092 
L 217.046612 90.042092 
L 217.114874 90.515782 
L 217.183136 90.380442 
L 217.251398 92.34287 
L 217.319661 92.20753 
L 217.387923 91.530831 
L 217.456185 91.93685 
L 217.524447 93.019569 
L 217.592709 92.74889 
L 217.660971 92.74889 
L 217.729233 92.61355 
L 217.865757 96.944425 
L 217.934019 96.470736 
L 218.002282 97.147435 
L 218.138806 93.087239 
L 218.207068 93.087239 
L 218.343592 88.688694 
L 218.480116 89.771413 
L 218.548378 89.771413 
L 218.684903 89.365393 
L 218.753165 93.357919 
L 218.821427 92.68122 
L 218.889689 93.019569 
L 219.026213 92.00452 
L 219.162737 92.74889 
L 219.230999 92.20753 
L 219.299261 92.884229 
L 219.367524 96.403066 
L 219.435786 95.523357 
L 219.57231 88.350344 
L 219.708834 91.86918 
L 219.777096 91.93685 
L 219.845358 91.327821 
L 220.050145 84.493158 
L 220.118407 90.380442 
L 220.254931 82.53073 
L 220.323193 82.39539 
L 220.391455 82.66607 
L 220.459717 82.5984 
L 220.664503 91.057141 
L 220.732766 87.267625 
L 220.937552 93.899278 
L 221.005814 94.034618 
L 221.074076 93.696269 
L 221.2106 94.034618 
L 221.278862 93.222579 
L 221.483649 99.786562 
L 221.620173 99.312873 
L 221.688435 100.666271 
L 221.756697 100.530931 
L 221.824959 99.921902 
L 221.893221 100.192582 
L 222.302794 103.305399 
L 222.371056 103.102389 
L 222.644104 105.132487 
L 222.712366 105.132487 
L 222.780628 106.079866 
L 222.848891 106.012196 
L 223.121939 94.237628 
L 223.190201 94.102288 
L 223.258463 94.372968 
L 223.326725 94.237628 
L 223.394987 94.034618 
L 223.463249 94.102288 
L 223.531512 94.102288 
L 223.599774 94.643648 
L 223.668036 98.094814 
L 223.736298 97.959474 
L 223.80456 97.959474 
L 223.941084 97.824134 
L 224.077608 98.974523 
L 224.14587 98.906853 
L 224.282395 101.004621 
L 224.418919 95.117337 
L 224.487181 95.861706 
L 224.555443 90.177432 
L 224.623705 90.515782 
L 224.760229 91.124811 
L 224.896754 90.854131 
L 224.965016 90.921801 
L 225.10154 92.34287 
L 225.169802 92.2752 
L 225.238064 91.80151 
L 225.306326 101.207631 
L 225.374588 99.312873 
L 225.44285 98.771513 
L 225.647637 99.854232 
L 225.715899 99.786562 
L 225.852423 99.312873 
L 225.988947 95.929376 
L 226.057209 95.861706 
L 226.193733 92.61355 
L 226.261996 91.80151 
L 226.330258 91.93685 
L 226.466782 94.711317 
L 226.535044 95.455687 
L 226.671568 99.042193 
L 226.808092 99.448213 
L 226.876354 98.974523 
L 227.217665 87.402965 
L 227.285927 90.583452 
L 227.354189 89.365393 
L 227.422451 87.944324 
L 227.490713 93.628599 
L 227.558975 90.177432 
L 227.627238 93.560929 
L 227.6955 93.425589 
L 227.763762 93.425589 
L 227.832024 93.290249 
L 227.900286 95.794036 
L 227.968548 92.951899 
L 228.03681 93.493259 
L 228.105072 94.508308 
L 228.173334 94.440638 
L 228.241596 93.831608 
L 228.378121 86.590926 
L 228.446383 88.688694 
L 228.514645 88.079664 
L 228.651169 88.079664 
L 228.719431 86.996945 
L 228.787693 89.906752 
L 228.855955 89.636073 
L 228.99248 89.027043 
L 229.060742 89.094713 
L 229.197266 91.86918 
L 229.879887 78.808884 
L 229.948149 78.741214 
L 230.016411 78.402864 
L 230.221197 86.049566 
L 230.289459 85.981897 
L 230.494246 91.530831 
L 230.63077 88.418014 
L 230.699032 88.485684 
L 230.903818 87.876655 
L 231.040343 89.094713 
L 231.108605 92.07219 
L 231.176867 84.763838 
L 231.245129 86.049566 
L 231.381653 86.929276 
L 231.518177 82.66607 
L 231.586439 82.86908 
L 231.654701 79.214903 
L 231.722964 79.417913 
L 231.791226 79.417913 
L 231.859488 81.245001 
L 231.92775 79.079564 
L 231.996012 80.297622 
L 232.064274 84.019469 
L 232.132536 83.816459 
L 232.200798 74.139659 
L 232.26906 75.696067 
L 232.337322 75.696067 
L 232.542109 81.854031 
L 232.678633 76.846456 
L 232.746895 76.914126 
L 232.815157 77.387815 
L 233.22473 72.9216 
L 233.292992 71.974221 
L 233.361254 72.109561 
L 233.56604 74.004319 
L 233.702564 81.109662 
L 233.770827 81.109662 
L 233.839089 78.876554 
L 233.907351 80.026943 
L 233.975613 84.493158 
L 234.112137 80.229952 
L 234.248661 78.470534 
L 234.316923 79.214903 
L 234.385185 76.372766 
L 234.453448 76.440436 
L 234.52171 76.508106 
L 234.589972 75.966747 
L 234.726496 71.365192 
L 234.794758 71.365192 
L 235.136069 74.884028 
L 235.272593 74.545678 
L 235.545641 74.545678 
L 235.613903 75.425387 
L 235.682165 78.132185 
L 235.955214 72.244901 
L 236.023476 72.244901 
L 236.16 66.425287 
L 236.228262 70.350143 
L 236.296524 70.214803 
L 236.364786 68.320045 
L 236.433048 69.605773 
L 236.569573 67.575676 
L 236.637835 67.575676 
L 236.774359 69.335094 
L 236.979145 66.763636 
L 237.047407 67.372666 
L 237.115669 67.440336 
L 237.320456 66.222277 
L 237.593504 73.39529 
L 237.730028 71.974221 
L 237.79829 72.041891 
L 237.866552 73.19228 
L 238.003077 77.861505 
L 238.207863 73.936649 
L 238.276125 74.139659 
L 238.412649 74.139659 
L 238.685698 83.748789 
L 238.75396 83.545779 
L 238.958746 91.260151 
L 239.027008 91.260151 
L 239.09527 96.741415 
L 239.163532 96.200056 
L 239.231794 96.200056 
L 239.300057 96.064716 
L 239.504843 90.312772 
L 239.573105 91.124811 
L 239.641367 89.906752 
L 239.777891 92.2752 
L 239.846153 92.816559 
L 239.982678 89.771413 
L 240.119202 80.771312 
L 240.187464 81.109662 
L 240.323988 79.350243 
L 240.39225 79.620923 
L 240.460512 84.493158 
L 240.528774 81.718691 
L 240.597036 82.5984 
L 240.665299 82.32772 
L 240.733561 82.39539 
L 240.938347 76.643446 
L 241.074871 77.184806 
L 241.34792 75.966747 
L 241.416182 76.169757 
L 241.484444 75.966747 
L 241.552706 76.440436 
L 241.620968 75.966747 
L 241.68923 74.274999 
L 241.757492 74.681018 
L 241.825754 74.816358 
L 241.962278 72.44791 
L 242.030541 72.51558 
L 242.303589 61.756062 
L 242.371851 57.154506 
L 242.440113 58.778585 
L 242.576637 59.996643 
L 242.713162 60.131983 
L 242.781424 58.101885 
L 242.849686 64.733538 
L 242.917948 62.568101 
L 243.054472 57.425186 
L 243.190996 65.207228 
L 243.259258 65.071888 
L 243.395783 58.846255 
L 243.464045 58.981594 
L 243.532307 57.695866 
L 243.600569 58.034215 
L 243.668831 58.575575 
L 243.873617 55.056738 
L 243.941879 57.019166 
L 244.010141 53.568 
L 244.078404 54.718389 
L 244.214928 61.553052 
L 244.28319 66.289947 
L 244.351452 66.086937 
L 244.419714 66.086937 
L 244.487976 68.184705 
L 244.556238 62.568101 
L 244.6245 62.83878 
L 244.692762 62.97412 
L 244.761025 62.568101 
L 244.897549 70.350143 
L 245.102335 73.462959 
L 245.307121 73.462959 
L 245.511908 74.748688 
L 245.716694 67.981695 
L 245.853218 65.342568 
L 245.989742 64.665869 
L 246.126267 72.65092 
L 246.194529 73.19228 
L 246.262791 76.102087 
L 246.399315 74.207329 
L 246.535839 74.274999 
L 246.604101 74.613348 
L 246.672363 73.19228 
L 246.740625 77.929175 
L 246.808888 77.590825 
L 246.87715 77.523155 
L 246.945412 79.553253 
L 247.013674 79.147234 
L 247.081936 79.147234 
L 247.150198 79.485583 
L 247.286722 77.387815 
L 247.354984 77.387815 
L 247.559771 87.944324 
L 247.764557 88.824034 
L 247.901081 89.027043 
L 248.378916 81.041992 
L 248.447178 80.974322 
L 248.583702 81.177331 
L 248.788488 78.876554 
L 248.856751 78.673544 
L 248.993275 79.823933 
L 249.129799 78.538204 
L 249.266323 72.380241 
L 249.471109 72.44791 
L 249.539372 79.891603 
L 249.607634 78.132185 
L 249.675896 77.387815 
L 249.81242 79.214903 
L 249.880682 78.876554 
L 249.948944 75.493057 
L 250.017206 80.568302 
L 250.085468 80.094613 
L 250.221993 79.214903 
L 250.290255 79.214903 
L 250.426779 79.688593 
L 250.563303 78.064515 
L 250.631565 77.793835 
L 250.768089 70.553152 
L 250.904614 76.981796 
L 250.972876 76.575776 
L 251.041138 76.914126 
L 251.177662 76.575776 
L 251.245924 75.154708 
L 251.314186 75.222378 
L 251.382448 75.628397 
L 251.45071 75.560727 
L 251.587234 72.44791 
L 251.655497 72.44791 
L 251.792021 72.041891 
L 251.928545 73.32762 
L 252.065069 73.32762 
L 252.201593 69.132084 
L 252.474642 79.959273 
L 252.542904 80.162283 
L 252.611166 79.688593 
L 252.679428 80.568302 
L 252.815952 84.560828 
L 252.884214 84.628498 
L 252.952476 82.057041 
L 253.020739 82.26005 
L 253.157263 81.312671 
L 253.225525 85.305197 
L 253.293787 81.921701 
L 253.362049 82.39539 
L 253.430311 83.816459 
L 253.498573 81.989371 
L 253.566835 82.66607 
L 253.635097 82.66607 
L 253.908146 80.906652 
L 253.976408 84.696168 
L 254.04467 84.628498 
L 254.112932 84.357818 
L 254.385981 85.034517 
L 254.590767 76.575776 
L 254.659029 76.508106 
L 254.863815 79.891603 
L 254.932077 79.688593 
L 255.068602 79.011894 
L 255.136864 79.011894 
L 255.273388 80.568302 
L 255.34165 80.432962 
L 255.409912 81.583351 
L 255.614698 88.959373 
L 255.68296 89.027043 
L 255.751223 90.109762 
L 255.887747 87.470635 
L 256.024271 87.470635 
L 256.365581 90.921801 
L 256.63863 83.207429 
L 256.775154 88.350344 
L 256.843416 88.350344 
L 256.911678 86.658596 
L 256.97994 86.793936 
L 257.116465 87.335295 
L 257.184727 90.786462 
L 257.321251 86.726266 
L 257.389513 86.387916 
L 257.457775 86.455586 
L 257.526037 86.455586 
L 257.730823 96.403066 
L 257.867348 101.81666 
L 257.93561 101.81666 
L 258.072134 102.08734 
L 258.345182 102.15501 
L 258.481707 101.61365 
L 258.549969 97.079765 
L 258.686493 103.711418 
L 259.027803 90.245102 
L 259.096065 92.34287 
L 259.164328 91.86918 
L 259.23259 92.61355 
L 259.369114 88.485684 
L 259.437376 97.959474 
L 259.505638 97.891804 
L 259.5739 101.139961 
L 259.778686 95.861706 
L 259.846949 95.861706 
L 259.983473 89.703743 
L 260.119997 89.636073 
L 260.256521 89.839083 
L 260.393045 86.049566 
L 260.461307 86.049566 
L 260.52957 86.252576 
L 260.666094 96.267726 
L 260.734356 93.154909 
L 260.87088 92.00452 
L 260.939142 92.41054 
L 261.007404 94.169958 
L 261.143928 89.839083 
L 261.280453 90.989471 
L 261.416977 89.500733 
L 261.553501 93.290249 
L 261.621763 92.20753 
L 261.758287 92.20753 
L 261.894812 90.109762 
L 261.963074 89.906752 
L 262.099598 84.493158 
L 262.16786 77.861505 
L 262.236122 80.297622 
L 262.304384 80.162283 
L 262.372646 80.297622 
L 262.440908 79.823933 
L 262.50917 77.996845 
L 262.577433 78.199855 
L 263.055267 95.455687 
L 263.123529 95.252677 
L 263.191791 92.74889 
L 263.260054 92.884229 
L 263.328316 93.019569 
L 263.396578 92.884229 
L 263.601364 93.899278 
L 263.737888 87.538305 
L 263.80615 86.726266 
L 263.874412 87.199955 
L 263.942675 87.267625 
L 264.010937 86.929276 
L 264.283985 77.184806 
L 264.420509 77.320145 
L 264.557033 84.222478 
L 264.693558 83.410439 
L 264.830082 83.410439 
L 264.898344 84.628498 
L 264.966606 84.493158 
L 265.034868 84.290148 
L 265.10313 80.026943 
L 265.171392 82.46306 
L 265.307917 80.094613 
L 265.444441 80.162283 
L 265.649227 73.25995 
L 265.717489 73.25995 
L 265.785751 70.959172 
L 265.854013 71.026842 
L 265.922275 73.801309 
L 266.0588 68.523055 
L 266.127062 74.681018 
L 266.263586 66.695966 
L 266.331848 66.763636 
L 266.604896 69.267424 
L 266.673158 69.267424 
L 266.741421 73.801309 
L 266.809683 73.598299 
L 267.014469 73.665969 
L 267.287517 72.109561 
L 267.355779 71.838881 
L 267.628828 79.485583 
L 267.833614 90.583452 
L 267.970138 91.260151 
L 268.0384 91.395491 
L 268.243187 82.53073 
L 268.311449 82.86908 
L 268.379711 84.831508 
L 268.447973 84.357818 
L 268.584497 84.357818 
L 268.721021 81.989371 
L 268.789284 82.19238 
L 268.857546 76.711116 
L 268.925808 77.590825 
L 269.062332 75.357717 
L 269.130594 75.357717 
L 269.267118 74.681018 
L 269.33538 75.222378 
L 269.403642 74.410338 
L 269.471905 68.929074 
L 269.744953 85.237527 
L 269.881477 84.357818 
L 269.949739 86.523256 
L 270.018001 85.643547 
L 270.086263 84.899178 
L 270.222788 89.027043 
L 270.29105 88.891703 
L 270.359312 89.027043 
L 270.427574 88.959373 
L 270.495836 88.824034 
L 270.700622 79.485583 
L 270.768884 79.959273 
L 270.837147 83.342769 
L 270.905409 83.139759 
L 270.973671 83.816459 
L 271.041933 88.282674 
L 271.110195 87.470635 
L 271.178457 86.184906 
L 271.383243 89.906752 
L 271.451505 86.996945 
L 271.519768 87.267625 
L 271.656292 92.41054 
L 271.792816 92.07219 
L 271.92934 99.312873 
L 272.065864 99.651222 
L 272.202389 96.673745 
L 272.270651 99.312873 
L 272.338913 99.245203 
L 272.543699 98.500834 
L 272.611961 98.433164 
L 272.816747 94.846657 
L 272.88501 95.049667 
L 272.953272 94.914327 
L 273.089796 92.07219 
L 273.22632 93.628599 
L 273.362844 98.703843 
L 273.431106 99.109863 
L 273.499368 96.606076 
L 273.635893 98.974523 
L 273.704155 98.906853 
L 273.840679 104.658797 
L 273.908941 102.628699 
L 274.045465 101.139961 
L 274.250252 103.170059 
L 274.318514 102.493359 
L 274.455038 105.064817 
L 274.591562 105.470836 
L 274.659824 104.117438 
L 274.796348 95.049667 
L 274.86461 95.049667 
L 275.069397 91.733841 
L 275.274183 94.034618 
L 275.478969 92.20753 
L 275.547231 92.20753 
L 275.615494 92.34287 
L 275.82028 93.493259 
L 275.956804 93.425589 
L 276.16159 91.666171 
L 276.229852 91.733841 
L 276.366377 94.237628 
L 276.434639 95.049667 
L 276.707687 88.011994 
L 276.775949 86.320246 
L 276.980736 90.312772 
L 277.11726 90.042092 
L 277.253784 96.606076 
L 277.45857 95.794036 
L 277.595094 97.756464 
L 277.663357 97.688794 
L 277.731619 97.350445 
L 277.799881 97.688794 
L 277.868143 102.01967 
L 277.936405 101.81666 
L 278.004667 101.275301 
L 278.141191 95.388017 
L 278.209453 95.388017 
L 278.482502 108.922003 
L 278.550764 108.042294 
L 278.619026 108.718993 
L 278.75555 111.76414 
L 278.823812 111.6288 
L 278.960336 121.50861 
L 279.028599 122.117639 
L 279.096861 121.982299 
L 279.165123 124.756766 
L 279.233385 121.37327 
L 279.301647 121.64395 
L 279.438171 122.455989 
L 279.574695 122.794338 
L 279.642957 121.982299 
L 279.71122 113.252878 
L 279.779482 113.861908 
L 279.847744 113.861908 
L 280.120792 113.185208 
L 280.257316 113.388218 
L 280.393841 112.576179 
L 280.598627 113.185208 
L 280.939937 109.937052 
L 281.008199 114.132587 
L 281.076462 113.523558 
L 281.144724 113.523558 
L 281.281248 110.478411 
L 281.34951 110.884431 
L 281.417772 110.749091 
L 281.486034 107.500934 
L 281.554296 107.568604 
L 281.69082 107.568604 
L 281.827345 118.328123 
L 281.895607 118.328123 
L 281.963869 118.057443 
L 282.032131 118.395793 
L 282.100393 118.328123 
L 282.373441 110.613751 
L 282.509966 110.613751 
L 282.578228 110.410741 
L 282.64649 113.049869 
L 282.714752 108.177634 
L 282.783014 108.515983 
L 282.919538 108.583653 
L 283.056062 104.117438 
L 283.124324 104.252778 
L 283.329111 107.230255 
L 283.465635 107.771614 
L 283.533897 107.365594 
L 283.602159 108.245303 
L 283.738683 110.816761 
L 283.875208 110.816761 
L 283.94347 112.508509 
L 284.011732 112.305499 
L 284.079994 112.305499 
L 284.148256 105.673846 
L 284.216518 109.125013 
L 284.28478 109.260352 
L 284.421304 111.35812 
L 284.489566 101.952 
L 284.557829 105.064817 
L 284.694353 110.343071 
L 284.762615 110.140062 
L 284.830877 108.651323 
L 284.899139 111.29045 
L 285.035663 102.29035 
L 285.103925 102.764039 
L 285.172187 102.35802 
L 285.308712 97.756464 
L 285.445236 100.327922 
L 285.513498 98.433164 
L 285.58176 98.771513 
L 285.650022 98.230154 
L 285.786546 104.997147 
L 285.923071 104.929477 
L 286.059595 106.688895 
L 286.127857 107.771614 
L 286.264381 105.741516 
L 286.400905 105.741516 
L 286.537429 105.470836 
L 286.605692 105.470836 
L 286.673954 105.064817 
L 286.742216 106.147536 
L 286.87874 109.801712 
L 287.015264 101.072291 
L 287.22005 101.004621 
L 287.356575 98.636173 
L 287.493099 96.673745 
L 287.561361 104.049768 
L 287.629623 103.982098 
L 287.697885 103.982098 
L 287.766147 102.831709 
L 287.834409 103.170059 
L 287.902671 102.628699 
L 288.039196 96.876755 
L 288.107458 98.162484 
L 288.17572 98.094814 
L 288.243982 98.094814 
L 288.380506 98.839183 
L 288.448768 98.636173 
L 288.585292 97.824134 
L 288.790079 102.628699 
L 288.926603 102.15501 
L 289.063127 102.628699 
L 289.131389 102.493359 
L 289.267913 103.034719 
L 289.336176 100.463262 
L 289.404438 103.034719 
L 289.4727 102.35802 
L 289.540962 102.35802 
L 289.609224 98.094814 
L 289.677486 98.162484 
L 289.81401 102.493359 
L 290.018797 103.643748 
L 290.087059 106.553555 
L 290.155321 102.561029 
L 290.223583 103.305399 
L 290.291845 103.305399 
L 290.428369 99.515883 
L 290.564893 98.906853 
L 290.76968 98.568503 
L 290.906204 96.809085 
L 291.042728 97.418115 
L 291.179252 90.042092 
L 291.247514 90.448112 
L 291.315776 88.824034 
L 291.384039 91.124811 
L 291.452301 88.418014 
L 291.588825 90.989471 
L 291.725349 91.530831 
L 291.861873 94.305298 
L 291.930135 94.305298 
L 292.06666 91.80151 
L 292.134922 91.93685 
L 292.271446 91.530831 
L 292.40797 92.07219 
L 292.476232 85.914227 
L 292.544494 90.245102 
L 292.612756 87.944324 
L 292.681018 88.011994 
L 292.749281 86.184906 
L 292.817543 86.252576 
L 293.022329 84.966848 
L 293.090591 84.763838 
L 293.158853 84.831508 
L 293.227115 79.011894 
L 293.295377 82.39539 
L 293.363639 82.46306 
L 293.431902 82.32772 
L 293.568426 85.643547 
L 293.70495 85.643547 
L 293.773212 86.117236 
L 293.841474 85.643547 
L 294.04626 86.455586 
L 294.182785 90.651122 
L 294.319309 90.651122 
L 294.387571 91.733841 
L 294.455833 90.989471 
L 294.524095 91.666171 
L 294.592357 90.854131 
L 294.728881 94.508308 
L 294.797144 94.508308 
L 294.933668 97.959474 
L 295.070192 97.215105 
L 295.138454 97.350445 
L 295.206716 97.012095 
L 295.411502 87.199955 
L 295.479765 87.199955 
L 295.548027 85.711217 
L 295.616289 85.914227 
L 295.821075 92.07219 
L 295.889337 89.771413 
L 295.957599 93.154909 
L 296.025861 87.876655 
L 296.094123 89.027043 
L 296.230648 91.192481 
L 296.29891 85.102187 
L 296.367172 88.215004 
L 296.435434 89.230053 
L 296.503696 85.372867 
L 296.571958 93.154909 
L 296.64022 92.61355 
L 296.776744 87.673645 
L 296.913269 87.335295 
L 296.981531 87.267625 
L 297.118055 85.981897 
L 297.186317 86.049566 
L 297.322841 85.846557 
L 297.391103 83.816459 
L 297.459365 84.831508 
L 297.527627 85.914227 
L 297.59589 85.508207 
L 297.664152 85.508207 
L 297.868938 87.538305 
L 297.9372 87.470635 
L 298.005462 87.673645 
L 298.210248 89.500733 
L 298.278511 89.839083 
L 298.346773 93.087239 
L 298.415035 92.68122 
L 298.483297 92.41054 
L 298.551559 100.733941 
L 298.619821 100.666271 
L 298.688083 100.666271 
L 298.756345 106.553555 
L 298.824607 105.470836 
L 298.961132 105.470836 
L 299.097656 116.771715 
L 299.165918 116.298025 
L 299.302442 115.282976 
L 299.507228 102.899379 
L 299.643753 102.899379 
L 299.712015 102.899379 
L 299.780277 102.696369 
L 299.848539 97.959474 
L 299.985063 101.74899 
L 300.258111 101.81666 
L 300.326374 102.08734 
L 300.394636 102.01967 
L 300.462898 101.410641 
L 300.53116 101.68132 
L 300.667684 101.88433 
L 300.804208 98.433164 
L 300.87247 98.568503 
L 301.008995 98.094814 
L 301.145519 98.433164 
L 301.213781 98.500834 
L 301.350305 94.914327 
L 301.418567 94.914327 
L 301.486829 97.012095 
L 301.555091 96.809085 
L 301.623353 96.809085 
L 301.964664 98.906853 
L 302.032926 98.906853 
L 302.237712 92.00452 
L 302.305974 92.07219 
L 302.374237 91.327821 
L 302.510761 92.61355 
L 302.579023 98.839183 
L 302.647285 96.741415 
L 302.783809 93.966948 
L 302.852071 93.899278 
L 302.988595 100.598601 
L 303.056858 100.598601 
L 303.193382 100.260252 
L 303.46643 100.260252 
L 303.671216 101.47831 
L 303.807741 97.621124 
L 304.012527 97.621124 
L 304.080789 95.523357 
L 304.149051 95.861706 
L 304.217313 95.320347 
L 304.490362 107.094915 
L 304.899934 105.876856 
L 305.036458 105.876856 
L 305.104721 104.794137 
L 305.172983 105.267827 
L 305.241245 105.267827 
L 305.446031 104.320448 
L 305.514293 105.064817 
L 305.650817 93.019569 
L 305.719079 93.019569 
L 305.787342 90.786462 
L 305.855604 91.057141 
L 305.923866 91.057141 
L 305.992128 93.763938 
L 306.06039 86.861606 
L 306.128652 88.282674 
L 306.4017 84.493158 
L 306.538225 93.019569 
L 306.674749 82.93675 
L 306.879535 96.741415 
L 306.947797 96.809085 
L 307.084321 101.275301 
L 307.220846 101.139961 
L 307.289108 101.61365 
L 307.35737 97.079765 
L 307.425632 98.636173 
L 307.493894 98.839183 
L 307.562156 98.365494 
L 307.630418 98.433164 
L 307.766942 105.335497 
L 307.903467 101.207631 
L 307.971729 101.207631 
L 308.039991 103.982098 
L 308.108253 103.914428 
L 308.244777 104.185108 
L 308.313039 104.185108 
L 308.586088 96.267726 
L 308.65435 96.267726 
L 308.722612 95.726366 
L 308.790874 95.794036 
L 308.859136 96.673745 
L 308.99566 83.00442 
L 309.132184 90.245102 
L 309.268709 90.177432 
L 309.336971 98.094814 
L 309.405233 94.508308 
L 309.473495 94.914327 
L 309.610019 88.350344 
L 309.678281 89.500733 
L 309.814805 93.154909 
L 309.95133 93.357919 
L 310.087854 99.583552 
L 310.156116 99.786562 
L 310.224378 100.395592 
L 310.29264 93.222579 
L 310.360902 94.034618 
L 310.497426 95.997046 
L 310.565689 96.267726 
L 310.838737 106.215206 
L 310.906999 106.079866 
L 310.975261 105.335497 
L 311.043523 107.230255 
L 311.111785 104.252778 
L 311.24831 106.418215 
L 311.384834 98.974523 
L 311.453096 100.936951 
L 311.521358 100.801611 
L 311.657882 100.801611 
L 311.726144 100.057242 
L 311.794406 100.260252 
L 311.93093 92.884229 
L 311.999193 92.74889 
L 312.203979 84.899178 
L 312.272241 85.237527 
L 312.340503 85.102187 
L 312.408765 84.560828 
L 312.545289 85.846557 
L 312.613551 89.365393 
L 312.681814 88.553354 
L 312.8866 80.906652 
L 312.954862 83.748789 
L 313.023124 83.275099 
L 313.22791 83.275099 
L 313.296172 85.914227 
L 313.364435 84.966848 
L 313.500959 78.944224 
L 313.569221 81.651021 
L 313.637483 80.974322 
L 313.705745 79.214903 
L 313.842269 81.921701 
L 313.978793 73.598299 
L 314.047056 73.936649 
L 314.115318 73.733639 
L 314.251842 77.996845 
L 314.388366 77.996845 
L 314.52489 78.335194 
L 314.593152 78.402864 
L 314.661414 78.741214 
L 314.866201 77.320145 
L 314.934463 77.049466 
L 315.002725 83.207429 
L 315.070987 82.32772 
L 315.139249 82.32772 
L 315.207511 81.786361 
L 315.275773 81.854031 
L 315.412298 86.523256 
L 315.48056 86.996945 
L 315.617084 92.20753 
L 315.753608 92.20753 
L 315.890132 92.54588 
L 315.958394 90.651122 
L 316.094919 85.440537 
L 316.231443 90.651122 
L 316.299705 84.154808 
L 316.367967 85.305197 
L 316.572753 83.545779 
L 316.709277 75.493057 
L 316.845802 82.53073 
L 316.914064 82.66607 
L 316.982326 81.786361 
L 317.11885 82.80141 
L 317.255374 87.538305 
L 317.460161 87.538305 
L 317.664947 88.621024 
L 317.801471 84.560828 
L 317.869733 88.688694 
L 317.937995 86.320246 
L 318.006257 86.929276 
L 318.074519 91.327821 
L 318.142782 91.260151 
L 318.279306 85.169857 
L 318.347568 84.899178 
L 318.41583 83.613449 
L 318.552354 86.861606 
L 318.825403 77.455485 
L 318.961927 80.703642 
L 319.030189 80.026943 
L 319.098451 84.290148 
L 319.303237 77.252476 
L 319.439761 75.493057 
L 319.508024 76.981796 
L 319.576286 76.778786 
L 319.644548 76.778786 
L 319.71281 77.184806 
L 319.781072 85.846557 
L 319.849334 85.034517 
L 319.917596 82.66607 
L 319.985858 83.07209 
L 320.395431 96.064716 
L 320.463693 94.575978 
L 320.531955 95.252677 
L 320.736741 95.252677 
L 320.805003 95.523357 
L 320.941528 91.666171 
L 321.146314 91.666171 
L 321.214576 92.41054 
L 321.3511 100.327922 
L 321.555887 101.47831 
L 321.624149 101.47831 
L 321.760673 97.756464 
L 321.828935 103.034719 
L 321.897197 101.004621 
L 322.101983 99.515883 
L 322.170245 100.124912 
L 322.238508 99.786562 
L 322.511556 102.15501 
L 322.579818 102.01967 
L 322.64808 101.342971 
L 322.852866 93.357919 
L 322.921129 93.357919 
L 322.989391 94.711317 
L 323.057653 94.372968 
L 323.125915 94.305298 
L 323.194177 89.974422 
L 323.262439 90.989471 
L 323.535487 92.34287 
L 323.60375 94.846657 
L 323.672012 94.440638 
L 323.740274 80.432962 
L 323.808536 80.703642 
L 323.876798 80.906652 
L 323.94506 80.771312 
L 324.081584 74.071989 
L 324.149846 77.252476 
L 324.218108 76.914126 
L 324.286371 76.643446 
L 324.422895 73.12461 
L 324.491157 72.65092 
L 324.627681 73.25995 
L 324.695943 71.703541 
L 324.832467 75.560727 
L 324.900729 75.696067 
L 324.968992 75.425387 
L 325.105516 78.605874 
L 325.173778 79.079564 
L 325.24204 81.109662 
L 325.515088 71.635871 
L 325.651613 71.906551 
L 325.924661 82.19238 
L 325.992923 82.19238 
L 326.061185 82.66607 
L 326.129447 85.034517 
L 326.265971 80.365292 
L 326.334234 80.974322 
L 326.470758 84.154808 
L 326.607282 80.162283 
L 326.675544 80.365292 
L 326.743806 79.891603 
L 326.812068 80.771312 
L 326.948592 80.162283 
L 327.153379 91.057141 
L 327.221641 91.057141 
L 327.358165 86.793936 
L 327.494689 85.575877 
L 327.562951 79.485583 
L 327.631213 80.094613 
L 327.904262 78.064515 
L 328.040786 79.688593 
L 328.17731 86.117236 
L 328.518621 85.575877 
L 328.586883 86.455586 
L 328.655145 89.500733 
L 328.723407 88.418014 
L 328.859931 84.154808 
L 328.928193 83.545779 
L 328.996455 85.169857 
L 329.064717 84.087138 
L 329.13298 84.357818 
L 329.269504 87.605975 
L 329.337766 87.876655 
L 329.406028 93.087239 
L 329.47429 92.2752 
L 329.610814 92.816559 
L 329.815601 79.011894 
L 329.883863 82.66607 
L 329.952125 82.057041 
L 330.156911 83.342769 
L 330.225173 79.417913 
L 330.293435 79.891603 
L 330.361697 80.297622 
L 330.429959 80.162283 
L 330.498222 78.132185 
L 330.634746 85.237527 
L 330.703008 84.493158 
L 330.77127 84.966848 
L 330.839532 84.560828 
L 330.976056 85.508207 
L 331.044318 85.508207 
L 331.11258 86.252576 
L 331.249105 97.418115 
L 331.317367 95.320347 
L 331.385629 95.049667 
L 331.522153 90.515782 
L 331.726939 90.515782 
L 331.863464 90.718792 
L 331.931726 90.583452 
L 332.06825 91.057141 
L 332.136512 92.884229 
L 332.273036 89.906752 
L 332.40956 89.974422 
L 332.614347 94.169958 
L 332.682609 93.154909 
L 332.819133 92.07219 
L 332.887395 92.07219 
L 332.955657 96.267726 
L 333.160443 84.425488 
L 333.228706 84.425488 
L 333.36523 83.681119 
L 333.433492 79.688593 
L 333.501754 80.297622 
L 333.638278 80.635972 
L 333.70654 80.635972 
L 333.774802 79.011894 
L 333.843064 82.32772 
L 333.911327 82.26005 
L 334.047851 82.26005 
L 334.116113 81.989371 
L 334.252637 87.132285 
L 334.320899 88.891703 
L 334.389161 88.215004 
L 334.593948 89.636073 
L 334.66221 93.899278 
L 334.730472 91.86918 
L 334.798734 88.079664 
L 335.071782 98.027144 
L 335.208306 100.666271 
L 335.276569 100.124912 
L 335.413093 94.169958 
L 335.481355 94.846657 
L 335.549617 94.575978 
L 335.686141 98.365494 
L 335.890927 101.207631 
L 335.95919 100.666271 
L 336.095714 102.831709 
L 336.3005 104.049768 
L 336.505286 104.049768 
L 336.710073 99.583552 
L 336.778335 100.395592 
L 336.846597 99.177533 
L 336.914859 102.967049 
L 336.983121 102.899379 
L 337.051383 102.628699 
L 337.187907 97.688794 
L 337.256169 97.147435 
L 337.529218 89.365393 
L 337.665742 91.327821 
L 337.93879 90.651122 
L 338.007053 93.290249 
L 338.143577 86.590926 
L 338.211839 86.590926 
L 338.280101 87.267625 
L 338.484887 90.380442 
L 338.621411 87.673645 
L 338.689674 87.402965 
L 338.89446 94.305298 
L 339.030984 94.305298 
L 339.099246 101.410641 
L 339.167508 99.042193 
L 339.23577 103.170059 
L 339.304032 101.342971 
L 339.372295 101.54598 
L 339.440557 108.922003 
L 339.508819 108.448313 
L 339.713605 109.598702 
L 339.850129 104.861807 
L 339.986653 104.929477 
L 340.054916 103.305399 
L 340.123178 103.711418 
L 340.19144 103.846758 
L 340.327964 104.320448 
L 340.53275 104.388117 
L 340.601012 105.064817 
L 341.010585 93.019569 
L 341.147109 95.591027 
L 341.351895 95.388017 
L 341.48842 101.275301 
L 341.556682 101.275301 
L 341.693206 101.004621 
L 341.82973 101.952 
L 341.966254 100.327922 
L 342.102778 103.779088 
L 342.239303 103.711418 
L 342.512351 92.13986 
L 342.785399 92.20753 
L 342.853662 92.74889 
L 342.990186 89.636073 
L 343.12671 89.636073 
L 343.194972 90.109762 
L 343.399758 88.215004 
L 343.604545 80.635972 
L 343.741069 82.73374 
L 343.877593 82.93675 
L 343.945855 82.80141 
L 344.014117 81.109662 
L 344.082379 81.312671 
L 344.218904 81.718691 
L 344.287166 81.448011 
L 344.42369 82.057041 
L 344.491952 81.380341 
L 344.560214 81.718691 
L 344.765 75.493057 
L 344.901525 75.493057 
L 345.106311 73.12461 
L 345.242835 72.85393 
L 345.379359 75.493057 
L 345.447621 83.07209 
L 345.515883 76.169757 
L 345.652408 82.46306 
L 345.788932 81.921701 
L 345.857194 82.12471 
L 346.06198 80.432962 
L 346.130242 80.568302 
L 346.266767 84.357818 
L 346.335029 84.357818 
L 346.403291 89.230053 
L 346.471553 89.162383 
L 346.608077 83.00442 
L 346.676339 83.410439 
L 346.812863 85.372867 
L 346.881125 84.831508 
L 346.949388 83.139759 
L 347.01765 89.297723 
L 347.085912 89.230053 
L 347.222436 89.500733 
L 347.563746 97.079765 
L 347.836795 97.756464 
L 347.905057 97.891804 
L 347.973319 98.771513 
L 348.109843 97.012095 
L 348.178105 97.147435 
L 348.382892 104.658797 
L 348.451154 104.388117 
L 348.519416 108.786663 
L 348.587678 107.500934 
L 348.792464 105.200157 
L 348.860726 107.433264 
L 349.133775 88.350344 
L 349.202037 93.628599 
L 349.270299 88.891703 
L 349.338561 88.959373 
L 349.406823 88.011994 
L 349.475085 88.350344 
L 349.611609 89.568403 
L 349.748134 89.433063 
L 349.884658 88.824034 
L 349.95292 88.824034 
L 350.021182 88.621024 
L 350.157706 87.470635 
L 350.225968 87.538305 
L 350.362493 88.011994 
L 350.430755 88.011994 
L 350.499017 87.605975 
L 350.567279 82.19238 
L 350.635541 82.80141 
L 350.772065 85.372867 
L 350.840327 85.575877 
L 350.908589 89.839083 
L 350.976851 89.500733 
L 351.045114 89.771413 
L 351.113376 89.636073 
L 351.181638 82.86908 
L 351.2499 86.184906 
L 351.318162 86.320246 
L 351.454686 86.726266 
L 351.522948 86.726266 
L 351.659472 87.402965 
L 351.727735 86.252576 
L 351.864259 90.718792 
L 351.932521 88.891703 
L 352.000783 89.500733 
L 352.069045 89.297723 
L 352.410356 77.184806 
L 352.615142 81.854031 
L 352.683404 81.989371 
L 352.819928 75.628397 
L 352.88819 84.628498 
L 352.956452 84.019469 
L 353.161239 84.493158 
L 353.229501 81.583351 
L 353.297763 81.651021 
L 353.366025 82.057041 
L 353.570811 79.756263 
L 353.639073 79.959273 
L 353.775598 80.568302 
L 353.84386 79.959273 
L 353.912122 80.635972 
L 353.980384 80.094613 
L 354.048646 81.109662 
L 354.116908 80.568302 
L 354.253432 80.500632 
L 354.458219 69.064414 
L 354.799529 89.839083 
L 354.867791 89.500733 
L 354.936053 91.530831 
L 355.004315 91.395491 
L 355.072577 88.959373 
L 355.14084 89.365393 
L 355.209102 89.500733 
L 355.345626 92.74889 
L 355.48215 89.365393 
L 355.550412 89.433063 
L 355.686936 89.230053 
L 355.755198 90.448112 
L 355.891723 97.553455 
L 355.959985 97.350445 
L 356.028247 96.335396 
L 356.096509 96.538406 
L 356.164771 95.997046 
L 356.301295 98.906853 
L 356.369557 99.109863 
L 356.437819 100.666271 
L 356.506082 99.921902 
L 356.642606 95.794036 
L 356.847392 95.388017 
L 356.915654 95.455687 
L 357.12044 92.2752 
L 357.188703 90.921801 
L 357.256965 91.463161 
L 357.325227 91.666171 
L 357.393489 98.974523 
L 357.461751 98.906853 
L 357.530013 99.109863 
L 357.666537 102.35802 
L 357.734799 102.15501 
L 357.803061 101.74899 
L 357.871323 104.117438 
L 357.939586 100.530931 
L 358.007848 100.733941 
L 358.144372 101.61365 
L 358.212634 100.124912 
L 358.280896 100.260252 
L 358.349158 100.327922 
L 358.485682 95.388017 
L 358.553944 95.252677 
L 358.622207 96.064716 
L 358.758731 95.523357 
L 358.826993 95.523357 
L 358.963517 97.012095 
L 359.100041 97.079765 
L 359.168303 96.267726 
L 359.236565 103.305399 
L 359.37309 96.538406 
L 359.509614 94.981997 
L 359.577876 96.403066 
L 359.646138 96.064716 
L 359.7144 96.064716 
L 359.782662 95.861706 
L 359.850924 95.929376 
L 359.919186 99.312873 
L 359.987449 98.906853 
L 360.123973 96.673745 
L 360.192235 95.997046 
L 360.260497 98.703843 
L 360.328759 98.500834 
L 360.465283 98.771513 
L 360.601807 98.839183 
L 360.738332 92.951899 
L 360.874856 92.74889 
L 360.943118 92.74889 
L 361.01138 91.93685 
L 361.079642 92.20753 
L 361.147904 94.643648 
L 361.216166 94.169958 
L 361.420953 86.320246 
L 361.489215 86.590926 
L 361.625739 91.530831 
L 361.762263 89.433063 
L 361.898787 94.440638 
L 361.967049 94.237628 
L 362.035312 88.824034 
L 362.103574 88.891703 
L 362.171836 89.094713 
L 362.240098 89.771413 
L 362.30836 89.027043 
L 362.376622 93.290249 
L 362.444884 93.019569 
L 362.513146 94.102288 
L 362.64967 92.07219 
L 362.717933 92.20753 
L 362.786195 93.222579 
L 362.854457 92.47821 
L 362.922719 87.944324 
L 362.990981 88.215004 
L 363.127505 88.079664 
L 363.264029 88.147334 
L 363.400554 89.771413 
L 363.673602 91.057141 
L 363.741864 87.944324 
L 363.810126 88.756364 
L 363.94665 92.68122 
L 364.083175 91.463161 
L 364.151437 91.192481 
L 364.219699 91.260151 
L 364.356223 87.402965 
L 364.424485 87.538305 
L 364.561009 87.064615 
L 364.629271 88.688694 
L 364.697533 86.049566 
L 364.765796 87.944324 
L 364.834058 85.508207 
L 364.90232 87.605975 
L 364.970582 86.658596 
L 365.038844 86.658596 
L 365.107106 80.906652 
L 365.175368 81.989371 
L 365.311892 81.718691 
L 365.380154 79.011894 
L 365.448417 79.417913 
L 365.584941 81.651021 
L 365.653203 82.46306 
L 365.789727 78.673544 
L 365.857989 78.673544 
L 365.994513 85.102187 
L 366.062775 84.696168 
L 366.131038 79.553253 
L 366.1993 81.041992 
L 366.267562 81.041992 
L 366.335824 81.177331 
L 366.472348 82.39539 
L 366.813659 79.147234 
L 366.881921 79.147234 
L 366.950183 76.237427 
L 367.018445 79.620923 
L 367.086707 75.899077 
L 367.154969 76.508106 
L 367.223231 76.575776 
L 367.291493 76.981796 
L 367.49628 79.620923 
L 367.564542 77.455485 
L 367.632804 78.470534 
L 367.701066 80.365292 
L 367.769328 79.688593 
L 367.905852 79.350243 
L 367.974114 77.861505 
L 368.042376 78.267524 
L 368.110638 78.132185 
L 368.315425 86.861606 
L 368.383687 86.861606 
L 368.520211 94.575978 
L 368.588473 94.102288 
L 368.724997 89.839083 
L 368.793259 89.636073 
L 368.861522 88.485684 
L 368.998046 89.906752 
L 369.066308 89.906752 
L 369.339356 85.643547 
L 369.407618 85.305197 
L 369.544143 82.32772 
L 369.612405 82.53073 
L 369.748929 80.094613 
L 369.817191 83.342769 
L 369.953715 80.635972 
L 370.158501 89.162383 
L 370.363288 85.237527 
L 370.43155 85.508207 
L 370.636336 80.974322 
L 370.841122 83.410439 
L 370.909385 82.86908 
L 371.045909 84.831508 
L 371.114171 84.831508 
L 371.182433 85.372867 
L 371.318957 87.808985 
L 371.387219 82.86908 
L 371.455481 83.07209 
L 371.523743 82.66607 
L 371.592006 83.951799 
L 371.660268 87.335295 
L 371.796792 84.154808 
L 372.001578 97.756464 
L 372.06984 97.688794 
L 372.206364 97.756464 
L 372.274627 98.230154 
L 372.479413 105.538506 
L 372.547675 104.726467 
L 372.615937 104.861807 
L 372.684199 104.794137 
L 372.752461 105.470836 
L 372.820723 107.703944 
L 372.957247 100.463262 
L 373.093772 100.260252 
L 373.435082 101.81666 
L 373.639868 95.388017 
L 373.776393 103.237729 
L 373.912917 98.500834 
L 374.049441 96.809085 
L 374.185965 96.944425 
L 374.254227 97.079765 
L 374.322489 97.012095 
L 374.527276 97.079765 
L 374.6638 92.47821 
L 374.868586 93.763938 
L 375.00511 93.019569 
L 375.141635 98.027144 
L 375.209897 98.500834 
L 375.278159 90.989471 
L 375.346421 93.696269 
L 375.414683 93.696269 
L 375.482945 87.538305 
L 375.551207 87.605975 
L 375.687731 87.267625 
L 375.824256 87.470635 
L 375.892518 87.402965 
L 376.029042 88.553354 
L 376.165566 94.981997 
L 376.30209 83.410439 
L 376.370352 85.237527 
L 376.575139 93.290249 
L 376.643401 92.13986 
L 376.779925 98.703843 
L 376.848187 88.756364 
L 376.916449 93.493259 
L 377.052973 90.651122 
L 377.189498 93.966948 
L 377.326022 85.372867 
L 377.394284 85.914227 
L 377.462546 85.440537 
L 377.530808 85.643547 
L 377.59907 93.290249 
L 377.667332 90.989471 
L 377.735594 90.854131 
L 377.803857 92.47821 
L 377.872119 91.93685 
L 378.008643 90.718792 
L 378.076905 94.372968 
L 378.145167 94.102288 
L 378.213429 86.455586 
L 378.281691 86.793936 
L 378.349953 86.793936 
L 378.486478 79.282573 
L 378.623002 77.726165 
L 378.691264 77.996845 
L 378.827788 80.026943 
L 378.89605 79.282573 
L 378.964312 79.350243 
L 379.100836 79.282573 
L 379.169099 81.583351 
L 379.237361 78.876554 
L 379.373885 82.057041 
L 379.510409 81.380341 
L 379.646933 82.73374 
L 379.85172 79.553253 
L 379.919982 79.553253 
L 379.988244 79.756263 
L 380.19303 85.643547 
L 380.329554 86.320246 
L 380.397816 86.320246 
L 380.534341 92.07219 
L 380.602603 91.80151 
L 380.670865 91.80151 
L 380.739127 101.74899 
L 380.807389 98.974523 
L 380.943913 97.350445 
L 381.012175 99.177533 
L 381.080437 98.974523 
L 381.216962 94.914327 
L 381.421748 95.997046 
L 381.626534 94.575978 
L 381.763058 95.117337 
L 381.899583 97.891804 
L 382.036107 98.568503 
L 382.104369 100.192582 
L 382.240893 105.335497 
L 382.309155 105.335497 
L 382.513941 94.914327 
L 382.650466 94.981997 
L 382.718728 90.515782 
L 382.78699 90.583452 
L 382.923514 93.763938 
L 383.060038 93.763938 
L 383.1283 92.61355 
L 383.264825 94.102288 
L 383.401349 94.102288 
L 383.469611 94.237628 
L 383.606135 94.981997 
L 383.742659 93.222579 
L 383.879183 94.846657 
L 384.015708 99.177533 
L 384.220494 95.117337 
L 384.288756 95.117337 
L 384.630067 103.102389 
L 384.698329 101.207631 
L 384.766591 103.170059 
L 384.834853 97.418115 
L 384.903115 99.786562 
L 384.971377 96.132386 
L 385.039639 96.335396 
L 385.107901 98.230154 
L 385.176163 95.861706 
L 385.312688 107.162585 
L 385.38095 107.094915 
L 385.585736 102.764039 
L 385.858784 112.10249 
L 385.927046 112.10249 
L 385.995309 111.83181 
L 386.063571 115.215306 
L 386.268357 108.786663 
L 386.336619 108.448313 
L 386.541405 116.636375 
L 386.746192 118.260453 
L 386.814454 122.252979 
L 386.882716 117.110064 
L 386.950978 117.245404 
L 387.01924 117.245404 
L 387.087502 115.824336 
L 387.155764 116.433365 
L 387.224026 116.230355 
L 387.565337 100.869281 
L 387.633599 100.733941 
L 387.770123 97.688794 
L 387.974909 97.756464 
L 388.111434 91.733841 
L 388.179696 91.463161 
L 388.31622 96.741415 
L 388.452744 95.997046 
L 388.521006 94.981997 
L 388.589268 95.117337 
L 388.65753 95.794036 
L 388.998841 93.357919 
L 389.067103 93.831608 
L 389.135365 93.628599 
L 389.203627 92.68122 
L 389.340151 95.997046 
L 389.544938 87.538305 
L 389.6132 87.470635 
L 390.022772 77.320145 
L 390.227559 79.756263 
L 390.364083 85.711217 
L 390.637131 85.034517 
L 390.705393 83.07209 
L 390.773655 83.139759 
L 390.841918 83.478109 
L 390.91018 83.410439 
L 390.978442 83.207429 
L 391.319752 87.808985 
L 391.388014 87.876655 
L 391.456276 93.966948 
L 391.524539 90.312772 
L 391.797587 102.967049 
L 391.865849 102.967049 
L 391.934111 103.237729 
L 392.002373 105.335497 
L 392.070635 105.267827 
L 392.20716 105.132487 
L 392.411946 105.335497 
L 392.480208 104.861807 
L 392.616732 99.312873 
L 392.684994 99.380543 
L 392.889781 88.688694 
L 392.958043 86.590926 
L 393.026305 87.335295 
L 393.094567 87.335295 
L 393.162829 87.538305 
L 393.367615 80.500632 
L 393.572402 79.620923 
L 393.640664 79.011894 
L 393.777188 73.19228 
L 393.84545 73.19228 
L 393.981974 71.974221 
L 394.118498 79.079564 
L 394.18676 75.831407 
L 394.255023 77.387815 
L 394.391547 80.500632 
L 394.459809 80.500632 
L 394.528071 76.778786 
L 394.596333 77.996845 
L 394.664595 77.590825 
L 394.869381 86.523256 
L 395.074168 86.793936 
L 395.347216 84.357818 
L 395.415478 84.628498 
L 395.48374 84.899178 
L 395.552002 84.763838 
L 395.620265 84.763838 
L 395.688527 83.613449 
L 395.756789 83.681119 
L 395.825051 94.305298 
L 395.893313 94.169958 
L 396.029837 85.508207 
L 396.166361 86.861606 
L 396.234623 87.132285 
L 396.302886 88.147334 
L 396.371148 88.079664 
L 396.43941 88.079664 
L 396.507672 85.914227 
L 396.575934 93.357919 
L 396.644196 92.13986 
L 396.78072 92.2752 
L 396.848982 92.2752 
L 396.917244 90.177432 
L 396.985507 90.312772 
L 397.053769 90.515782 
L 397.122031 93.425589 
L 397.190293 92.816559 
L 397.258555 92.13986 
L 397.463341 81.854031 
L 397.531603 81.921701 
L 397.599865 79.823933 
L 397.804652 87.402965 
L 397.941176 79.147234 
L 398.0777 79.959273 
L 398.282486 78.741214 
L 398.487273 82.66607 
L 398.487273 82.66607 
" clip-path="url(#pd955225cee)" style="fill: none; stroke: #1f77b4; stroke-width: 1.5; stroke-linecap: square"/>
   </g>
   <g id="patch_3">
    <path d="M 57.6 307.584 
L 57.6 41.472 
" style="fill: none; stroke: #000000; stroke-width: 0.8; stroke-linejoin: miter; stroke-linecap: square"/>
   </g>
   <g id="patch_4">
    <path d="M 414.72 307.584 
L 414.72 41.472 
" style="fill: none; stroke: #000000; stroke-width: 0.8; stroke-linejoin: miter; stroke-linecap: square"/>
   </g>
   <g id="patch_5">
    <path d="M 57.6 307.584 
L 414.72 307.584 
" style="fill: none; stroke: #000000; stroke-width: 0.8; stroke-linejoin: miter; stroke-linecap: square"/>
   </g>
   <g id="patch_6">
    <path d="M 57.6 41.472 
L 414.72 41.472 
" style="fill: none; stroke: #000000; stroke-width: 0.8; stroke-linejoin: miter; stroke-linecap: square"/>
   </g>
   <g id="text_16">
    <!-- comp17 -->
    <g transform="translate(211.90125 35.472) scale(0.12 -0.12)">
     <defs>
      <path id="DejaVuSans-63" d="M 3122 3366 
L 3122 2828 
Q 2878 2963 2633 3030 
Q 2388 3097 2138 3097 
Q 1578 3097 1268 2742 
Q 959 2388 959 1747 
Q 959 1106 1268 751 
Q 1578 397 2138 397 
Q 2388 397 2633 464 
Q 2878 531 3122 666 
L 3122 134 
Q 2881 22 2623 -34 
Q 2366 -91 2075 -91 
Q 1284 -91 818 406 
Q 353 903 353 1747 
Q 353 2603 823 3093 
Q 1294 3584 2113 3584 
Q 2378 3584 2631 3529 
Q 2884 3475 3122 3366 
z
" transform="scale(0.015625)"/>
      <path id="DejaVuSans-70" d="M 1159 525 
L 1159 -1331 
L 581 -1331 
L 581 3500 
L 1159 3500 
L 1159 2969 
Q 1341 3281 1617 3432 
Q 1894 3584 2278 3584 
Q 2916 3584 3314 3078 
Q 3713 2572 3713 1747 
Q 3713 922 3314 415 
Q 2916 -91 2278 -91 
Q 1894 -91 1617 61 
Q 1341 213 1159 525 
z
M 3116 1747 
Q 3116 2381 2855 2742 
Q 2594 3103 2138 3103 
Q 1681 3103 1420 2742 
Q 1159 2381 1159 1747 
Q 1159 1113 1420 752 
Q 1681 391 2138 391 
Q 2594 391 2855 752 
Q 3116 1113 3116 1747 
z
" transform="scale(0.015625)"/>
      <path id="DejaVuSans-37" d="M 525 4666 
L 3525 4666 
L 3525 4397 
L 1831 0 
L 1172 0 
L 2766 4134 
L 525 4134 
L 525 4666 
z
" transform="scale(0.015625)"/>
     </defs>
     <use xlink:href="#DejaVuSans-63"/>
     <use xlink:href="#DejaVuSans-6f" x="54.980469"/>
     <use xlink:href="#DejaVuSans-6d" x="116.162109"/>
     <use xlink:href="#DejaVuSans-70" x="213.574219"/>
     <use xlink:href="#DejaVuSans-31" x="277.050781"/>
     <use xlink:href="#DejaVuSans-37" x="340.673828"/>
    </g>
   </g>
  </g>
 </g>
 <defs>
  <clipPath id="pd955225cee">
   <rect x="57.6" y="41.472" width="357.12" height="266.112"/>
  </clipPath>
 </defs>
</svg>
