<?xml version="1.0" encoding="utf-8" standalone="no"?>
<!DOCTYPE svg PUBLIC "-//W3C//DTD SVG 1.1//EN"
  "http://www.w3.org/Graphics/SVG/1.1/DTD/svg11.dtd">
<svg xmlns:xlink="http://www.w3.org/1999/xlink" width="460.8pt" height="345.6pt" viewBox="0 0 460.8 345.6" xmlns="http://www.w3.org/2000/svg" version="1.1">
 <metadata>
  <rdf:RDF xmlns:dc="http://purl.org/dc/elements/1.1/" xmlns:cc="http://creativecommons.org/ns#" xmlns:rdf="http://www.w3.org/1999/02/22-rdf-syntax-ns#">
   <cc:Work>
    <dc:type rdf:resource="http://purl.org/dc/dcmitype/StillImage"/>
    <dc:date>2023-12-03T18:15:53.804286</dc:date>
    <dc:format>image/svg+xml</dc:format>
    <dc:creator>
     <cc:Agent>
      <dc:title>Matplotlib v3.7.1, https://matplotlib.org/</dc:title>
     </cc:Agent>
    </dc:creator>
   </cc:Work>
  </rdf:RDF>
 </metadata>
 <defs>
  <style type="text/css">*{stroke-linejoin: round; stroke-linecap: butt}</style>
 </defs>
 <g id="figure_1">
  <g id="patch_1">
   <path d="M 0 345.6 
L 460.8 345.6 
L 460.8 0 
L 0 0 
z
" style="fill: #ffffff"/>
  </g>
  <g id="axes_1">
   <g id="patch_2">
    <path d="M 57.6 307.584 
L 414.72 307.584 
L 414.72 41.472 
L 57.6 41.472 
z
" style="fill: #ffffff"/>
   </g>
   <g id="matplotlib.axis_1">
    <g id="xtick_1">
     <g id="line2d_1">
      <defs>
       <path id="ma94721b814" d="M 0 0 
L 0 3.5 
" style="stroke: #000000; stroke-width: 0.8"/>
      </defs>
      <g>
       <use xlink:href="#ma94721b814" x="73.832727" y="307.584" style="stroke: #000000; stroke-width: 0.8"/>
      </g>
     </g>
     <g id="text_1">
      <!-- 0 -->
      <g transform="translate(70.651477 322.182437) scale(0.1 -0.1)">
       <defs>
        <path id="DejaVuSans-30" d="M 2034 4250 
Q 1547 4250 1301 3770 
Q 1056 3291 1056 2328 
Q 1056 1369 1301 889 
Q 1547 409 2034 409 
Q 2525 409 2770 889 
Q 3016 1369 3016 2328 
Q 3016 3291 2770 3770 
Q 2525 4250 2034 4250 
z
M 2034 4750 
Q 2819 4750 3233 4129 
Q 3647 3509 3647 2328 
Q 3647 1150 3233 529 
Q 2819 -91 2034 -91 
Q 1250 -91 836 529 
Q 422 1150 422 2328 
Q 422 3509 836 4129 
Q 1250 4750 2034 4750 
z
" transform="scale(0.015625)"/>
       </defs>
       <use xlink:href="#DejaVuSans-30"/>
      </g>
     </g>
    </g>
    <g id="xtick_2">
     <g id="line2d_2">
      <g>
       <use xlink:href="#ma94721b814" x="127.273805" y="307.584" style="stroke: #000000; stroke-width: 0.8"/>
      </g>
     </g>
     <g id="text_2">
      <!-- 1000 -->
      <g transform="translate(114.548805 322.182437) scale(0.1 -0.1)">
       <defs>
        <path id="DejaVuSans-31" d="M 794 531 
L 1825 531 
L 1825 4091 
L 703 3866 
L 703 4441 
L 1819 4666 
L 2450 4666 
L 2450 531 
L 3481 531 
L 3481 0 
L 794 0 
L 794 531 
z
" transform="scale(0.015625)"/>
       </defs>
       <use xlink:href="#DejaVuSans-31"/>
       <use xlink:href="#DejaVuSans-30" x="63.623047"/>
       <use xlink:href="#DejaVuSans-30" x="127.246094"/>
       <use xlink:href="#DejaVuSans-30" x="190.869141"/>
      </g>
     </g>
    </g>
    <g id="xtick_3">
     <g id="line2d_3">
      <g>
       <use xlink:href="#ma94721b814" x="180.714882" y="307.584" style="stroke: #000000; stroke-width: 0.8"/>
      </g>
     </g>
     <g id="text_3">
      <!-- 2000 -->
      <g transform="translate(167.989882 322.182437) scale(0.1 -0.1)">
       <defs>
        <path id="DejaVuSans-32" d="M 1228 531 
L 3431 531 
L 3431 0 
L 469 0 
L 469 531 
Q 828 903 1448 1529 
Q 2069 2156 2228 2338 
Q 2531 2678 2651 2914 
Q 2772 3150 2772 3378 
Q 2772 3750 2511 3984 
Q 2250 4219 1831 4219 
Q 1534 4219 1204 4116 
Q 875 4013 500 3803 
L 500 4441 
Q 881 4594 1212 4672 
Q 1544 4750 1819 4750 
Q 2544 4750 2975 4387 
Q 3406 4025 3406 3419 
Q 3406 3131 3298 2873 
Q 3191 2616 2906 2266 
Q 2828 2175 2409 1742 
Q 1991 1309 1228 531 
z
" transform="scale(0.015625)"/>
       </defs>
       <use xlink:href="#DejaVuSans-32"/>
       <use xlink:href="#DejaVuSans-30" x="63.623047"/>
       <use xlink:href="#DejaVuSans-30" x="127.246094"/>
       <use xlink:href="#DejaVuSans-30" x="190.869141"/>
      </g>
     </g>
    </g>
    <g id="xtick_4">
     <g id="line2d_4">
      <g>
       <use xlink:href="#ma94721b814" x="234.15596" y="307.584" style="stroke: #000000; stroke-width: 0.8"/>
      </g>
     </g>
     <g id="text_4">
      <!-- 3000 -->
      <g transform="translate(221.43096 322.182437) scale(0.1 -0.1)">
       <defs>
        <path id="DejaVuSans-33" d="M 2597 2516 
Q 3050 2419 3304 2112 
Q 3559 1806 3559 1356 
Q 3559 666 3084 287 
Q 2609 -91 1734 -91 
Q 1441 -91 1130 -33 
Q 819 25 488 141 
L 488 750 
Q 750 597 1062 519 
Q 1375 441 1716 441 
Q 2309 441 2620 675 
Q 2931 909 2931 1356 
Q 2931 1769 2642 2001 
Q 2353 2234 1838 2234 
L 1294 2234 
L 1294 2753 
L 1863 2753 
Q 2328 2753 2575 2939 
Q 2822 3125 2822 3475 
Q 2822 3834 2567 4026 
Q 2313 4219 1838 4219 
Q 1578 4219 1281 4162 
Q 984 4106 628 3988 
L 628 4550 
Q 988 4650 1302 4700 
Q 1616 4750 1894 4750 
Q 2613 4750 3031 4423 
Q 3450 4097 3450 3541 
Q 3450 3153 3228 2886 
Q 3006 2619 2597 2516 
z
" transform="scale(0.015625)"/>
       </defs>
       <use xlink:href="#DejaVuSans-33"/>
       <use xlink:href="#DejaVuSans-30" x="63.623047"/>
       <use xlink:href="#DejaVuSans-30" x="127.246094"/>
       <use xlink:href="#DejaVuSans-30" x="190.869141"/>
      </g>
     </g>
    </g>
    <g id="xtick_5">
     <g id="line2d_5">
      <g>
       <use xlink:href="#ma94721b814" x="287.597037" y="307.584" style="stroke: #000000; stroke-width: 0.8"/>
      </g>
     </g>
     <g id="text_5">
      <!-- 4000 -->
      <g transform="translate(274.872037 322.182437) scale(0.1 -0.1)">
       <defs>
        <path id="DejaVuSans-34" d="M 2419 4116 
L 825 1625 
L 2419 1625 
L 2419 4116 
z
M 2253 4666 
L 3047 4666 
L 3047 1625 
L 3713 1625 
L 3713 1100 
L 3047 1100 
L 3047 0 
L 2419 0 
L 2419 1100 
L 313 1100 
L 313 1709 
L 2253 4666 
z
" transform="scale(0.015625)"/>
       </defs>
       <use xlink:href="#DejaVuSans-34"/>
       <use xlink:href="#DejaVuSans-30" x="63.623047"/>
       <use xlink:href="#DejaVuSans-30" x="127.246094"/>
       <use xlink:href="#DejaVuSans-30" x="190.869141"/>
      </g>
     </g>
    </g>
    <g id="xtick_6">
     <g id="line2d_6">
      <g>
       <use xlink:href="#ma94721b814" x="341.038114" y="307.584" style="stroke: #000000; stroke-width: 0.8"/>
      </g>
     </g>
     <g id="text_6">
      <!-- 5000 -->
      <g transform="translate(328.313114 322.182437) scale(0.1 -0.1)">
       <defs>
        <path id="DejaVuSans-35" d="M 691 4666 
L 3169 4666 
L 3169 4134 
L 1269 4134 
L 1269 2991 
Q 1406 3038 1543 3061 
Q 1681 3084 1819 3084 
Q 2600 3084 3056 2656 
Q 3513 2228 3513 1497 
Q 3513 744 3044 326 
Q 2575 -91 1722 -91 
Q 1428 -91 1123 -41 
Q 819 9 494 109 
L 494 744 
Q 775 591 1075 516 
Q 1375 441 1709 441 
Q 2250 441 2565 725 
Q 2881 1009 2881 1497 
Q 2881 1984 2565 2268 
Q 2250 2553 1709 2553 
Q 1456 2553 1204 2497 
Q 953 2441 691 2322 
L 691 4666 
z
" transform="scale(0.015625)"/>
       </defs>
       <use xlink:href="#DejaVuSans-35"/>
       <use xlink:href="#DejaVuSans-30" x="63.623047"/>
       <use xlink:href="#DejaVuSans-30" x="127.246094"/>
       <use xlink:href="#DejaVuSans-30" x="190.869141"/>
      </g>
     </g>
    </g>
    <g id="xtick_7">
     <g id="line2d_7">
      <g>
       <use xlink:href="#ma94721b814" x="394.479192" y="307.584" style="stroke: #000000; stroke-width: 0.8"/>
      </g>
     </g>
     <g id="text_7">
      <!-- 6000 -->
      <g transform="translate(381.754192 322.182437) scale(0.1 -0.1)">
       <defs>
        <path id="DejaVuSans-36" d="M 2113 2584 
Q 1688 2584 1439 2293 
Q 1191 2003 1191 1497 
Q 1191 994 1439 701 
Q 1688 409 2113 409 
Q 2538 409 2786 701 
Q 3034 994 3034 1497 
Q 3034 2003 2786 2293 
Q 2538 2584 2113 2584 
z
M 3366 4563 
L 3366 3988 
Q 3128 4100 2886 4159 
Q 2644 4219 2406 4219 
Q 1781 4219 1451 3797 
Q 1122 3375 1075 2522 
Q 1259 2794 1537 2939 
Q 1816 3084 2150 3084 
Q 2853 3084 3261 2657 
Q 3669 2231 3669 1497 
Q 3669 778 3244 343 
Q 2819 -91 2113 -91 
Q 1303 -91 875 529 
Q 447 1150 447 2328 
Q 447 3434 972 4092 
Q 1497 4750 2381 4750 
Q 2619 4750 2861 4703 
Q 3103 4656 3366 4563 
z
" transform="scale(0.015625)"/>
       </defs>
       <use xlink:href="#DejaVuSans-36"/>
       <use xlink:href="#DejaVuSans-30" x="63.623047"/>
       <use xlink:href="#DejaVuSans-30" x="127.246094"/>
       <use xlink:href="#DejaVuSans-30" x="190.869141"/>
      </g>
     </g>
    </g>
    <g id="text_8">
     <!-- iteration -->
     <g transform="translate(215.037344 335.860562) scale(0.1 -0.1)">
      <defs>
       <path id="DejaVuSans-69" d="M 603 3500 
L 1178 3500 
L 1178 0 
L 603 0 
L 603 3500 
z
M 603 4863 
L 1178 4863 
L 1178 4134 
L 603 4134 
L 603 4863 
z
" transform="scale(0.015625)"/>
       <path id="DejaVuSans-74" d="M 1172 4494 
L 1172 3500 
L 2356 3500 
L 2356 3053 
L 1172 3053 
L 1172 1153 
Q 1172 725 1289 603 
Q 1406 481 1766 481 
L 2356 481 
L 2356 0 
L 1766 0 
Q 1100 0 847 248 
Q 594 497 594 1153 
L 594 3053 
L 172 3053 
L 172 3500 
L 594 3500 
L 594 4494 
L 1172 4494 
z
" transform="scale(0.015625)"/>
       <path id="DejaVuSans-65" d="M 3597 1894 
L 3597 1613 
L 953 1613 
Q 991 1019 1311 708 
Q 1631 397 2203 397 
Q 2534 397 2845 478 
Q 3156 559 3463 722 
L 3463 178 
Q 3153 47 2828 -22 
Q 2503 -91 2169 -91 
Q 1331 -91 842 396 
Q 353 884 353 1716 
Q 353 2575 817 3079 
Q 1281 3584 2069 3584 
Q 2775 3584 3186 3129 
Q 3597 2675 3597 1894 
z
M 3022 2063 
Q 3016 2534 2758 2815 
Q 2500 3097 2075 3097 
Q 1594 3097 1305 2825 
Q 1016 2553 972 2059 
L 3022 2063 
z
" transform="scale(0.015625)"/>
       <path id="DejaVuSans-72" d="M 2631 2963 
Q 2534 3019 2420 3045 
Q 2306 3072 2169 3072 
Q 1681 3072 1420 2755 
Q 1159 2438 1159 1844 
L 1159 0 
L 581 0 
L 581 3500 
L 1159 3500 
L 1159 2956 
Q 1341 3275 1631 3429 
Q 1922 3584 2338 3584 
Q 2397 3584 2469 3576 
Q 2541 3569 2628 3553 
L 2631 2963 
z
" transform="scale(0.015625)"/>
       <path id="DejaVuSans-61" d="M 2194 1759 
Q 1497 1759 1228 1600 
Q 959 1441 959 1056 
Q 959 750 1161 570 
Q 1363 391 1709 391 
Q 2188 391 2477 730 
Q 2766 1069 2766 1631 
L 2766 1759 
L 2194 1759 
z
M 3341 1997 
L 3341 0 
L 2766 0 
L 2766 531 
Q 2569 213 2275 61 
Q 1981 -91 1556 -91 
Q 1019 -91 701 211 
Q 384 513 384 1019 
Q 384 1609 779 1909 
Q 1175 2209 1959 2209 
L 2766 2209 
L 2766 2266 
Q 2766 2663 2505 2880 
Q 2244 3097 1772 3097 
Q 1472 3097 1187 3025 
Q 903 2953 641 2809 
L 641 3341 
Q 956 3463 1253 3523 
Q 1550 3584 1831 3584 
Q 2591 3584 2966 3190 
Q 3341 2797 3341 1997 
z
" transform="scale(0.015625)"/>
       <path id="DejaVuSans-6f" d="M 1959 3097 
Q 1497 3097 1228 2736 
Q 959 2375 959 1747 
Q 959 1119 1226 758 
Q 1494 397 1959 397 
Q 2419 397 2687 759 
Q 2956 1122 2956 1747 
Q 2956 2369 2687 2733 
Q 2419 3097 1959 3097 
z
M 1959 3584 
Q 2709 3584 3137 3096 
Q 3566 2609 3566 1747 
Q 3566 888 3137 398 
Q 2709 -91 1959 -91 
Q 1206 -91 779 398 
Q 353 888 353 1747 
Q 353 2609 779 3096 
Q 1206 3584 1959 3584 
z
" transform="scale(0.015625)"/>
       <path id="DejaVuSans-6e" d="M 3513 2113 
L 3513 0 
L 2938 0 
L 2938 2094 
Q 2938 2591 2744 2837 
Q 2550 3084 2163 3084 
Q 1697 3084 1428 2787 
Q 1159 2491 1159 1978 
L 1159 0 
L 581 0 
L 581 3500 
L 1159 3500 
L 1159 2956 
Q 1366 3272 1645 3428 
Q 1925 3584 2291 3584 
Q 2894 3584 3203 3211 
Q 3513 2838 3513 2113 
z
" transform="scale(0.015625)"/>
      </defs>
      <use xlink:href="#DejaVuSans-69"/>
      <use xlink:href="#DejaVuSans-74" x="27.783203"/>
      <use xlink:href="#DejaVuSans-65" x="66.992188"/>
      <use xlink:href="#DejaVuSans-72" x="128.515625"/>
      <use xlink:href="#DejaVuSans-61" x="169.628906"/>
      <use xlink:href="#DejaVuSans-74" x="230.908203"/>
      <use xlink:href="#DejaVuSans-69" x="270.117188"/>
      <use xlink:href="#DejaVuSans-6f" x="297.900391"/>
      <use xlink:href="#DejaVuSans-6e" x="359.082031"/>
     </g>
    </g>
   </g>
   <g id="matplotlib.axis_2">
    <g id="ytick_1">
     <g id="line2d_8">
      <defs>
       <path id="m545db51302" d="M 0 0 
L -3.5 0 
" style="stroke: #000000; stroke-width: 0.8"/>
      </defs>
      <g>
       <use xlink:href="#m545db51302" x="57.6" y="295.334205" style="stroke: #000000; stroke-width: 0.8"/>
      </g>
     </g>
     <g id="text_9">
      <!-- 200 -->
      <g transform="translate(31.5125 299.133423) scale(0.1 -0.1)">
       <use xlink:href="#DejaVuSans-32"/>
       <use xlink:href="#DejaVuSans-30" x="63.623047"/>
       <use xlink:href="#DejaVuSans-30" x="127.246094"/>
      </g>
     </g>
    </g>
    <g id="ytick_2">
     <g id="line2d_9">
      <g>
       <use xlink:href="#m545db51302" x="57.6" y="264.575146" style="stroke: #000000; stroke-width: 0.8"/>
      </g>
     </g>
     <g id="text_10">
      <!-- 400 -->
      <g transform="translate(31.5125 268.374364) scale(0.1 -0.1)">
       <use xlink:href="#DejaVuSans-34"/>
       <use xlink:href="#DejaVuSans-30" x="63.623047"/>
       <use xlink:href="#DejaVuSans-30" x="127.246094"/>
      </g>
     </g>
    </g>
    <g id="ytick_3">
     <g id="line2d_10">
      <g>
       <use xlink:href="#m545db51302" x="57.6" y="233.816086" style="stroke: #000000; stroke-width: 0.8"/>
      </g>
     </g>
     <g id="text_11">
      <!-- 600 -->
      <g transform="translate(31.5125 237.615305) scale(0.1 -0.1)">
       <use xlink:href="#DejaVuSans-36"/>
       <use xlink:href="#DejaVuSans-30" x="63.623047"/>
       <use xlink:href="#DejaVuSans-30" x="127.246094"/>
      </g>
     </g>
    </g>
    <g id="ytick_4">
     <g id="line2d_11">
      <g>
       <use xlink:href="#m545db51302" x="57.6" y="203.057027" style="stroke: #000000; stroke-width: 0.8"/>
      </g>
     </g>
     <g id="text_12">
      <!-- 800 -->
      <g transform="translate(31.5125 206.856246) scale(0.1 -0.1)">
       <defs>
        <path id="DejaVuSans-38" d="M 2034 2216 
Q 1584 2216 1326 1975 
Q 1069 1734 1069 1313 
Q 1069 891 1326 650 
Q 1584 409 2034 409 
Q 2484 409 2743 651 
Q 3003 894 3003 1313 
Q 3003 1734 2745 1975 
Q 2488 2216 2034 2216 
z
M 1403 2484 
Q 997 2584 770 2862 
Q 544 3141 544 3541 
Q 544 4100 942 4425 
Q 1341 4750 2034 4750 
Q 2731 4750 3128 4425 
Q 3525 4100 3525 3541 
Q 3525 3141 3298 2862 
Q 3072 2584 2669 2484 
Q 3125 2378 3379 2068 
Q 3634 1759 3634 1313 
Q 3634 634 3220 271 
Q 2806 -91 2034 -91 
Q 1263 -91 848 271 
Q 434 634 434 1313 
Q 434 1759 690 2068 
Q 947 2378 1403 2484 
z
M 1172 3481 
Q 1172 3119 1398 2916 
Q 1625 2713 2034 2713 
Q 2441 2713 2670 2916 
Q 2900 3119 2900 3481 
Q 2900 3844 2670 4047 
Q 2441 4250 2034 4250 
Q 1625 4250 1398 4047 
Q 1172 3844 1172 3481 
z
" transform="scale(0.015625)"/>
       </defs>
       <use xlink:href="#DejaVuSans-38"/>
       <use xlink:href="#DejaVuSans-30" x="63.623047"/>
       <use xlink:href="#DejaVuSans-30" x="127.246094"/>
      </g>
     </g>
    </g>
    <g id="ytick_5">
     <g id="line2d_12">
      <g>
       <use xlink:href="#m545db51302" x="57.6" y="172.297968" style="stroke: #000000; stroke-width: 0.8"/>
      </g>
     </g>
     <g id="text_13">
      <!-- 1000 -->
      <g transform="translate(25.15 176.097187) scale(0.1 -0.1)">
       <use xlink:href="#DejaVuSans-31"/>
       <use xlink:href="#DejaVuSans-30" x="63.623047"/>
       <use xlink:href="#DejaVuSans-30" x="127.246094"/>
       <use xlink:href="#DejaVuSans-30" x="190.869141"/>
      </g>
     </g>
    </g>
    <g id="ytick_6">
     <g id="line2d_13">
      <g>
       <use xlink:href="#m545db51302" x="57.6" y="141.538909" style="stroke: #000000; stroke-width: 0.8"/>
      </g>
     </g>
     <g id="text_14">
      <!-- 1200 -->
      <g transform="translate(25.15 145.338128) scale(0.1 -0.1)">
       <use xlink:href="#DejaVuSans-31"/>
       <use xlink:href="#DejaVuSans-32" x="63.623047"/>
       <use xlink:href="#DejaVuSans-30" x="127.246094"/>
       <use xlink:href="#DejaVuSans-30" x="190.869141"/>
      </g>
     </g>
    </g>
    <g id="ytick_7">
     <g id="line2d_14">
      <g>
       <use xlink:href="#m545db51302" x="57.6" y="110.77985" style="stroke: #000000; stroke-width: 0.8"/>
      </g>
     </g>
     <g id="text_15">
      <!-- 1400 -->
      <g transform="translate(25.15 114.579069) scale(0.1 -0.1)">
       <use xlink:href="#DejaVuSans-31"/>
       <use xlink:href="#DejaVuSans-34" x="63.623047"/>
       <use xlink:href="#DejaVuSans-30" x="127.246094"/>
       <use xlink:href="#DejaVuSans-30" x="190.869141"/>
      </g>
     </g>
    </g>
    <g id="ytick_8">
     <g id="line2d_15">
      <g>
       <use xlink:href="#m545db51302" x="57.6" y="80.020791" style="stroke: #000000; stroke-width: 0.8"/>
      </g>
     </g>
     <g id="text_16">
      <!-- 1600 -->
      <g transform="translate(25.15 83.82001) scale(0.1 -0.1)">
       <use xlink:href="#DejaVuSans-31"/>
       <use xlink:href="#DejaVuSans-36" x="63.623047"/>
       <use xlink:href="#DejaVuSans-30" x="127.246094"/>
       <use xlink:href="#DejaVuSans-30" x="190.869141"/>
      </g>
     </g>
    </g>
    <g id="ytick_9">
     <g id="line2d_16">
      <g>
       <use xlink:href="#m545db51302" x="57.6" y="49.261732" style="stroke: #000000; stroke-width: 0.8"/>
      </g>
     </g>
     <g id="text_17">
      <!-- 1800 -->
      <g transform="translate(25.15 53.06095) scale(0.1 -0.1)">
       <use xlink:href="#DejaVuSans-31"/>
       <use xlink:href="#DejaVuSans-38" x="63.623047"/>
       <use xlink:href="#DejaVuSans-30" x="127.246094"/>
       <use xlink:href="#DejaVuSans-30" x="190.869141"/>
      </g>
     </g>
    </g>
    <g id="text_18">
     <!-- best fitness of swarm -->
     <g transform="translate(19.070312 228.0905) rotate(-90) scale(0.1 -0.1)">
      <defs>
       <path id="DejaVuSans-62" d="M 3116 1747 
Q 3116 2381 2855 2742 
Q 2594 3103 2138 3103 
Q 1681 3103 1420 2742 
Q 1159 2381 1159 1747 
Q 1159 1113 1420 752 
Q 1681 391 2138 391 
Q 2594 391 2855 752 
Q 3116 1113 3116 1747 
z
M 1159 2969 
Q 1341 3281 1617 3432 
Q 1894 3584 2278 3584 
Q 2916 3584 3314 3078 
Q 3713 2572 3713 1747 
Q 3713 922 3314 415 
Q 2916 -91 2278 -91 
Q 1894 -91 1617 61 
Q 1341 213 1159 525 
L 1159 0 
L 581 0 
L 581 4863 
L 1159 4863 
L 1159 2969 
z
" transform="scale(0.015625)"/>
       <path id="DejaVuSans-73" d="M 2834 3397 
L 2834 2853 
Q 2591 2978 2328 3040 
Q 2066 3103 1784 3103 
Q 1356 3103 1142 2972 
Q 928 2841 928 2578 
Q 928 2378 1081 2264 
Q 1234 2150 1697 2047 
L 1894 2003 
Q 2506 1872 2764 1633 
Q 3022 1394 3022 966 
Q 3022 478 2636 193 
Q 2250 -91 1575 -91 
Q 1294 -91 989 -36 
Q 684 19 347 128 
L 347 722 
Q 666 556 975 473 
Q 1284 391 1588 391 
Q 1994 391 2212 530 
Q 2431 669 2431 922 
Q 2431 1156 2273 1281 
Q 2116 1406 1581 1522 
L 1381 1569 
Q 847 1681 609 1914 
Q 372 2147 372 2553 
Q 372 3047 722 3315 
Q 1072 3584 1716 3584 
Q 2034 3584 2315 3537 
Q 2597 3491 2834 3397 
z
" transform="scale(0.015625)"/>
       <path id="DejaVuSans-20" transform="scale(0.015625)"/>
       <path id="DejaVuSans-66" d="M 2375 4863 
L 2375 4384 
L 1825 4384 
Q 1516 4384 1395 4259 
Q 1275 4134 1275 3809 
L 1275 3500 
L 2222 3500 
L 2222 3053 
L 1275 3053 
L 1275 0 
L 697 0 
L 697 3053 
L 147 3053 
L 147 3500 
L 697 3500 
L 697 3744 
Q 697 4328 969 4595 
Q 1241 4863 1831 4863 
L 2375 4863 
z
" transform="scale(0.015625)"/>
       <path id="DejaVuSans-77" d="M 269 3500 
L 844 3500 
L 1563 769 
L 2278 3500 
L 2956 3500 
L 3675 769 
L 4391 3500 
L 4966 3500 
L 4050 0 
L 3372 0 
L 2619 2869 
L 1863 0 
L 1184 0 
L 269 3500 
z
" transform="scale(0.015625)"/>
       <path id="DejaVuSans-6d" d="M 3328 2828 
Q 3544 3216 3844 3400 
Q 4144 3584 4550 3584 
Q 5097 3584 5394 3201 
Q 5691 2819 5691 2113 
L 5691 0 
L 5113 0 
L 5113 2094 
Q 5113 2597 4934 2840 
Q 4756 3084 4391 3084 
Q 3944 3084 3684 2787 
Q 3425 2491 3425 1978 
L 3425 0 
L 2847 0 
L 2847 2094 
Q 2847 2600 2669 2842 
Q 2491 3084 2119 3084 
Q 1678 3084 1418 2786 
Q 1159 2488 1159 1978 
L 1159 0 
L 581 0 
L 581 3500 
L 1159 3500 
L 1159 2956 
Q 1356 3278 1631 3431 
Q 1906 3584 2284 3584 
Q 2666 3584 2933 3390 
Q 3200 3197 3328 2828 
z
" transform="scale(0.015625)"/>
      </defs>
      <use xlink:href="#DejaVuSans-62"/>
      <use xlink:href="#DejaVuSans-65" x="63.476562"/>
      <use xlink:href="#DejaVuSans-73" x="125"/>
      <use xlink:href="#DejaVuSans-74" x="177.099609"/>
      <use xlink:href="#DejaVuSans-20" x="216.308594"/>
      <use xlink:href="#DejaVuSans-66" x="248.095703"/>
      <use xlink:href="#DejaVuSans-69" x="283.300781"/>
      <use xlink:href="#DejaVuSans-74" x="311.083984"/>
      <use xlink:href="#DejaVuSans-6e" x="350.292969"/>
      <use xlink:href="#DejaVuSans-65" x="413.671875"/>
      <use xlink:href="#DejaVuSans-73" x="475.195312"/>
      <use xlink:href="#DejaVuSans-73" x="527.294922"/>
      <use xlink:href="#DejaVuSans-20" x="579.394531"/>
      <use xlink:href="#DejaVuSans-6f" x="611.181641"/>
      <use xlink:href="#DejaVuSans-66" x="672.363281"/>
      <use xlink:href="#DejaVuSans-20" x="707.568359"/>
      <use xlink:href="#DejaVuSans-73" x="739.355469"/>
      <use xlink:href="#DejaVuSans-77" x="791.455078"/>
      <use xlink:href="#DejaVuSans-61" x="873.242188"/>
      <use xlink:href="#DejaVuSans-72" x="934.521484"/>
      <use xlink:href="#DejaVuSans-6d" x="973.884766"/>
     </g>
    </g>
   </g>
   <g id="line2d_17">
    <path d="M 73.832727 295.488 
L 73.993051 292.412094 
L 74.260256 292.412094 
L 74.47402 290.105165 
L 75.115313 288.567212 
L 75.275636 288.567212 
L 75.329077 288.413416 
L 75.542842 281.800219 
L 75.703165 272.418706 
L 75.756606 272.418706 
L 75.810047 272.726296 
L 75.863488 272.572501 
L 76.184135 260.576468 
L 76.291017 260.268877 
L 76.45134 264.11376 
L 76.718545 264.11376 
L 76.93231 261.037854 
L 76.985751 260.268877 
L 77.199515 253.65568 
L 77.359838 255.039837 
L 77.413279 251.04116 
L 77.520162 251.194955 
L 77.573603 251.04116 
L 77.787367 247.503868 
L 77.894249 247.503868 
L 77.94769 247.196277 
L 78.001131 247.503868 
L 78.054572 247.350072 
L 78.268337 249.657002 
L 78.42866 248.888025 
L 78.588983 248.888025 
L 78.749306 249.657002 
L 78.802747 249.657002 
L 79.016512 247.503868 
L 79.069953 248.888025 
L 79.123394 237.199583 
L 79.230276 237.353378 
L 79.337158 236.276811 
L 79.390599 237.199583 
L 79.550923 225.818731 
L 79.818128 225.818731 
L 79.978451 224.742164 
L 80.031892 224.742164 
L 80.085333 224.280778 
L 80.245657 218.436557 
L 80.352539 218.436557 
L 80.459421 219.359329 
L 80.566303 219.051738 
L 80.726626 222.742825 
L 80.886949 214.284084 
L 81.047273 214.284084 
L 81.154155 202.134256 
L 81.207596 203.210823 
L 81.314478 203.364618 
L 81.528242 206.440524 
L 81.635125 206.440524 
L 81.795448 203.364618 
L 81.90233 203.364618 
L 82.009212 203.518413 
L 82.169535 203.210823 
L 82.329859 196.44383 
L 82.436741 196.290034 
L 82.490182 186.908521 
L 82.597064 187.523702 
L 82.91771 182.140867 
L 83.024593 182.140867 
L 83.238357 184.755387 
L 83.291798 184.755387 
L 83.345239 185.831954 
L 83.39868 184.755387 
L 83.452121 185.062978 
L 83.505562 184.909182 
L 83.559003 196.44383 
L 83.665886 195.828648 
L 83.772768 195.367263 
L 83.933091 194.290695 
L 83.986532 194.290695 
L 84.146855 194.444491 
L 84.307178 194.444491 
L 84.36062 193.367924 
L 84.414061 189.676837 
L 84.574384 199.05835 
L 84.627825 199.05835 
L 84.788148 200.903893 
L 84.89503 200.288712 
L 85.055354 188.90786 
L 85.376 188.90786 
L 85.482882 188.446474 
L 85.750088 188.90786 
L 85.803529 183.217434 
L 85.85697 183.986411 
L 86.017293 183.67882 
L 86.070734 175.220079 
L 86.124175 175.527669 
L 86.231057 176.911827 
L 86.284498 176.450441 
L 86.39138 168.760676 
L 86.551704 171.990378 
L 86.605145 171.836582 
L 86.658586 171.836582 
L 86.765468 169.991039 
L 86.925791 161.532298 
L 87.086114 162.147479 
L 87.192997 162.147479 
L 87.246438 161.378502 
L 87.406761 173.989716 
L 87.567084 173.989716 
L 87.673966 172.144173 
L 87.727407 162.76266 
L 87.83429 162.916455 
L 87.887731 162.916455 
L 87.941172 163.224046 
L 88.101495 166.453747 
L 88.154936 166.915133 
L 88.315259 168.453086 
L 88.529024 169.068267 
L 88.582465 168.914472 
L 88.689347 170.60622 
L 88.84967 168.145495 
L 88.903111 168.453086 
L 88.956552 166.915133 
L 89.009993 167.376519 
L 89.223758 179.680142 
L 89.384081 179.680142 
L 89.490963 178.911166 
L 89.544404 179.064961 
L 89.651286 179.987733 
L 89.811609 176.604236 
L 89.865051 176.604236 
L 90.025374 177.680804 
L 90.292579 177.680804 
L 90.452902 179.372552 
L 90.613226 180.449119 
L 90.720108 180.449119 
L 90.880431 180.910505 
L 90.933872 180.910505 
L 91.040754 179.987733 
L 91.094195 190.292018 
L 91.147636 189.984427 
L 91.30796 188.90786 
L 91.361401 188.90786 
L 91.521724 189.061655 
L 91.735488 189.061655 
L 91.788929 189.369246 
L 91.949253 188.292679 
L 92.109576 188.292679 
L 92.376781 187.677498 
L 92.483663 187.985088 
L 92.643987 186.600931 
L 92.964633 186.600931 
L 93.071515 163.685432 
L 93.178397 163.839227 
L 93.285279 165.069589 
L 93.445603 163.685432 
L 93.499044 164.146818 
L 93.552485 163.993022 
L 93.766249 163.993022 
L 94.086896 156.303257 
L 94.30066 166.761338 
L 94.514424 167.530314 
L 94.621306 163.685432 
L 94.78163 169.068267 
L 94.835071 169.068267 
L 95.048835 169.529653 
L 95.102276 168.760676 
L 95.262599 160.14814 
L 95.422923 160.14814 
L 95.529805 161.070912 
L 95.583246 160.609526 
L 95.636687 161.070912 
L 95.690128 161.070912 
L 95.850451 163.993022 
L 95.903892 163.993022 
L 96.010774 163.531636 
L 96.064215 163.685432 
L 96.171098 161.378502 
L 96.224539 162.147479 
L 96.27798 164.915794 
L 96.331421 163.993022 
L 96.438303 163.993022 
L 96.598626 162.608865 
L 96.705508 162.608865 
L 96.865832 162.301274 
L 96.972714 162.301274 
L 97.026155 163.07025 
L 97.079596 162.76266 
L 97.239919 162.76266 
L 97.29336 157.53362 
L 97.346801 157.687415 
L 97.507125 158.148801 
L 97.560566 158.148801 
L 97.614007 157.995006 
L 97.667448 158.763982 
L 97.77433 168.606881 
L 97.827771 167.684109 
L 98.148418 167.684109 
L 98.201859 167.530314 
L 98.362182 174.604898 
L 98.575946 176.758032 
L 98.736269 165.223385 
L 98.78971 165.223385 
L 98.843152 166.607542 
L 99.003475 160.45573 
L 99.110357 160.609526 
L 99.27068 161.378502 
L 99.324121 161.378502 
L 99.377562 162.76266 
L 99.431003 162.147479 
L 99.484444 162.147479 
L 99.591327 161.839888 
L 99.698209 167.068928 
L 99.858532 164.608203 
L 99.911973 164.608203 
L 100.125737 167.068928 
L 100.23262 167.068928 
L 100.286061 167.376519 
L 100.499825 145.076201 
L 100.553266 145.998973 
L 100.606707 145.998973 
L 100.76703 145.537587 
L 100.873912 145.537587 
L 100.927354 151.381808 
L 100.980795 150.305241 
L 101.087677 150.612832 
L 101.141118 145.998973 
L 101.248 146.152768 
L 101.301441 146.152768 
L 101.515205 136.463664 
L 101.675529 136.309869 
L 101.72897 136.309869 
L 101.889293 138.155413 
L 101.996175 138.155413 
L 102.049616 138.463003 
L 102.103057 137.694027 
L 102.26338 135.079507 
L 102.370263 147.844516 
L 102.477145 146.614154 
L 102.530586 146.614154 
L 102.584027 145.691382 
L 102.637468 141.692704 
L 102.690909 142.15409 
L 102.851232 149.536264 
L 102.958114 149.843855 
L 103.011556 148.459697 
L 103.064997 151.074217 
L 103.118438 150.305241 
L 103.278761 150.920422 
L 103.332202 150.612832 
L 103.492525 150.459036 
L 103.545966 150.459036 
L 103.599407 150.766627 
L 103.759731 149.228674 
L 103.813172 149.228674 
L 103.920054 149.69006 
L 104.080377 141.538909 
L 104.187259 141.538909 
L 104.454465 142.461681 
L 104.614788 142.461681 
L 104.72167 145.229996 
L 104.775111 144.614815 
L 104.828552 144.76861 
L 105.095758 144.76861 
L 105.20264 142.923067 
L 105.309522 147.536926 
L 105.362963 147.07554 
L 105.416404 147.229335 
L 105.523286 145.691382 
L 105.683609 149.382469 
L 105.843933 144.614815 
L 105.950815 144.614815 
L 106.057697 144.307224 
L 106.111138 144.922406 
L 106.164579 143.999634 
L 106.324902 145.537587 
L 106.431785 145.537587 
L 106.645549 140.923728 
L 106.752431 140.923728 
L 106.805872 141.077523 
L 106.912754 132.772577 
L 106.966195 134.771916 
L 107.019636 134.771916 
L 107.073077 136.92505 
L 107.233401 129.696671 
L 107.340283 129.696671 
L 107.393724 129.850467 
L 107.447165 122.006907 
L 107.554047 122.314497 
L 107.660929 122.314497 
L 107.767811 124.467631 
L 107.928135 136.156074 
L 108.088458 135.079507 
L 108.248781 135.540893 
L 108.302222 135.540893 
L 108.355663 120.622749 
L 108.409104 126.774561 
L 108.462545 126.46697 
L 108.569428 128.466309 
L 108.622869 128.312514 
L 108.783192 128.004923 
L 108.836633 128.004923 
L 108.996956 128.927695 
L 109.050397 139.693366 
L 109.157279 139.078184 
L 109.210721 139.078184 
L 109.477926 140.308547 
L 109.584808 140.000956 
L 109.638249 152.61217 
L 109.745131 151.843194 
L 109.798572 151.843194 
L 109.905455 150.766627 
L 110.119219 170.760015 
L 110.17266 170.760015 
L 110.332983 167.837905 
L 110.386424 167.837905 
L 110.546747 169.222062 
L 110.707071 170.144834 
L 110.813953 170.144834 
L 111.081158 167.376519 
L 111.18804 167.222723 
L 111.294923 167.376519 
L 111.401805 166.607542 
L 111.562128 156.457053 
L 111.615569 156.457053 
L 111.722451 154.303919 
L 111.829333 159.225368 
L 111.989657 158.302596 
L 112.043098 158.302596 
L 112.14998 157.995006 
L 112.363744 159.994345 
L 112.737832 159.994345 
L 112.791273 159.532959 
L 112.844714 160.14814 
L 112.898155 159.532959 
L 113.058478 159.532959 
L 113.272242 158.610187 
L 113.325684 158.610187 
L 113.486007 157.226029 
L 113.592889 157.226029 
L 113.64633 156.457053 
L 113.753212 160.14814 
L 113.913535 157.687415 
L 113.966976 156.457053 
L 114.020418 157.53362 
L 114.073859 157.53362 
L 114.234182 157.226029 
L 114.341064 161.839888 
L 114.394505 161.532298 
L 114.447946 157.226029 
L 114.608269 167.530314 
L 114.66171 167.222723 
L 114.822034 149.69006 
L 114.875475 147.690721 
L 114.928916 147.998312 
L 114.982357 147.998312 
L 115.035798 150.151446 
L 115.089239 145.845177 
L 115.14268 149.99765 
L 115.196121 151.381808 
L 115.249562 151.228013 
L 115.463327 151.228013 
L 115.62365 150.920422 
L 115.837414 150.920422 
L 115.890855 150.305241 
L 116.051178 151.689399 
L 116.10462 151.843194 
L 116.264943 145.691382 
L 116.371825 145.229996 
L 116.532148 152.150784 
L 116.585589 152.150784 
L 116.745912 153.688737 
L 116.799354 153.688737 
L 116.906236 152.765966 
L 117.066559 147.229335 
L 117.333764 147.229335 
L 117.387205 146.306563 
L 117.440646 146.767949 
L 117.494088 146.614154 
L 117.547529 147.229335 
L 117.60097 146.767949 
L 117.761293 146.767949 
L 117.814734 146.460359 
L 117.921616 169.837243 
L 117.975057 169.068267 
L 118.081939 169.068267 
L 118.188822 171.375196 
L 118.242263 170.913811 
L 118.402586 164.608203 
L 118.562909 164.454408 
L 118.723232 164.454408 
L 118.830114 164.915794 
L 118.936997 164.761999 
L 119.043879 152.458375 
L 119.09732 155.995667 
L 119.257643 148.613493 
L 119.364525 148.613493 
L 119.524848 145.845177 
L 119.631731 144.76861 
L 119.845495 155.995667 
L 120.005818 155.534281 
L 120.1127 155.534281 
L 120.166141 155.688076 
L 120.326465 154.611509 
L 120.486788 158.302596 
L 120.753993 158.302596 
L 120.860875 158.148801 
L 121.021199 164.454408 
L 121.128081 164.454408 
L 121.288404 165.992361 
L 121.395286 165.992361 
L 121.502168 168.453086 
L 121.662492 159.686754 
L 121.769374 159.686754 
L 121.822815 159.532959 
L 121.876256 158.763982 
L 121.929697 159.532959 
L 122.09002 162.608865 
L 122.250343 164.300613 
L 122.357226 164.300613 
L 122.57099 163.07025 
L 122.731313 163.224046 
L 122.784754 163.224046 
L 122.945077 161.993683 
L 122.998519 161.993683 
L 123.158842 161.839888 
L 123.212283 161.839888 
L 123.319165 161.532298 
L 123.479488 162.455069 
L 123.532929 162.455069 
L 123.693253 162.76266 
L 123.800135 162.916455 
L 123.960458 140.923728 
L 124.120781 140.769933 
L 124.281104 138.924389 
L 124.387987 138.924389 
L 124.441428 137.386436 
L 124.54831 129.389081 
L 124.655192 130.619443 
L 124.708633 130.465648 
L 124.868956 136.156074 
L 124.922397 136.156074 
L 125.029279 127.389742 
L 125.189603 128.466309 
L 125.349926 128.312514 
L 125.510249 127.235947 
L 125.617131 127.235947 
L 125.670572 127.082151 
L 125.830896 134.31053 
L 125.884337 134.31053 
L 125.991219 133.695349 
L 126.311865 136.92505 
L 126.472189 137.078846 
L 126.632512 138.616798 
L 126.792835 148.152107 
L 126.846276 148.152107 
L 127.006599 149.382469 
L 127.166923 144.614815 
L 127.273805 144.922406 
L 127.434128 146.767949 
L 127.594451 137.540231 
L 127.647892 137.540231 
L 127.808215 137.232641 
L 127.968539 137.232641 
L 128.075421 136.771255 
L 128.235744 146.306563 
L 128.289185 148.305902 
L 128.342626 147.844516 
L 128.396067 147.536926 
L 128.556391 148.152107 
L 128.609832 148.152107 
L 128.770155 148.459697 
L 128.877037 148.459697 
L 128.930478 148.767288 
L 128.983919 147.844516 
L 129.03736 148.152107 
L 129.090801 148.152107 
L 129.304566 148.921083 
L 129.464889 136.771255 
L 129.51833 136.771255 
L 129.571771 136.92505 
L 129.625212 136.309869 
L 129.838976 142.923067 
L 129.892418 142.923067 
L 129.945859 143.845839 
L 129.9993 143.230657 
L 130.213064 143.230657 
L 130.319946 153.073556 
L 130.373387 152.458375 
L 130.640593 152.458375 
L 130.800916 152.919761 
L 130.907798 152.919761 
L 131.01468 152.765966 
L 131.175003 137.078846 
L 131.442209 137.078846 
L 131.549091 136.156074 
L 131.602532 136.463664 
L 131.655973 136.309869 
L 131.816296 124.621427 
L 131.923178 128.466309 
L 132.190384 122.468292 
L 132.350707 133.080168 
L 132.404148 133.080168 
L 132.564471 119.238591 
L 132.671354 118.469615 
L 132.778236 133.695349 
L 132.831677 133.233963 
L 132.938559 133.541554 
L 132.992 130.927034 
L 133.045441 132.003601 
L 133.312646 132.003601 
L 133.419529 130.158057 
L 133.47297 130.465648 
L 133.526411 131.69601 
L 133.686734 121.699316 
L 133.847057 120.468954 
L 133.900498 119.853772 
L 134.060822 127.851128 
L 134.221145 127.082151 
L 134.541791 127.082151 
L 134.595232 126.928356 
L 134.648673 128.927695 
L 134.702114 128.620104 
L 134.862438 124.467631 
L 135.022761 125.236608 
L 135.183084 121.391725 
L 135.343407 121.391725 
L 135.503731 120.622749 
L 135.557172 120.315158 
L 135.664054 122.622088 
L 135.717495 122.468292 
L 135.770936 122.468292 
L 135.824377 121.23793 
L 135.877818 121.391725 
L 136.145024 121.391725 
L 136.305347 122.929678 
L 136.412229 122.929678 
L 136.519111 121.391725 
L 136.679434 134.771916 
L 136.839758 120.315158 
L 136.893199 120.161363 
L 137.000081 118.777205 
L 137.053522 118.931001 
L 137.267286 136.463664 
L 137.320727 136.309869 
L 137.427609 126.774561 
L 137.587933 127.851128 
L 137.748256 120.468954 
L 137.908579 123.85245 
L 137.96202 123.85245 
L 138.122343 115.547504 
L 138.175785 115.547504 
L 138.282667 114.932323 
L 138.44299 111.395031 
L 138.496431 111.702622 
L 138.656754 110.010873 
L 138.817077 110.626055 
L 138.92396 110.626055 
L 139.084283 115.393709 
L 139.137724 115.393709 
L 139.351488 111.087441 
L 139.45837 117.085457 
L 139.618694 108.626716 
L 139.725576 107.857739 
L 139.832458 108.780511 
L 140.046222 100.167975 
L 140.313428 102.013518 
L 140.473751 101.705928 
L 140.527192 101.705928 
L 140.634074 104.474243 
L 140.794397 104.166652 
L 141.008162 104.166652 
L 141.221926 103.551471 
L 141.275367 103.551471 
L 141.328808 102.782495 
L 141.382249 102.93629 
L 141.43569 102.93629 
L 141.489131 107.242558 
L 141.649455 123.391064 
L 141.809778 124.775222 
L 141.91666 123.85245 
L 141.970101 122.006907 
L 142.023542 122.622088 
L 142.237306 125.851789 
L 142.451071 124.929017 
L 142.557953 125.082812 
L 142.718276 123.391064 
L 142.825158 124.775222 
L 142.985481 121.545521 
L 143.092364 121.545521 
L 143.199246 125.544198 
L 143.306128 121.699316 
L 143.359569 121.853111 
L 143.41301 121.084135 
L 143.466451 108.319125 
L 143.519892 121.084135 
L 143.626774 121.084135 
L 143.787098 136.771255 
L 143.89398 136.771255 
L 143.947421 136.156074 
L 144.000862 136.463664 
L 144.107744 121.391725 
L 144.161185 121.699316 
L 144.214626 121.699316 
L 144.481832 119.238591 
L 144.535273 119.084796 
L 144.588714 120.007568 
L 144.642155 119.546182 
L 144.749037 119.546182 
L 144.90936 118.469615 
L 145.069684 127.543537 
L 145.123125 128.466309 
L 145.283448 127.389742 
L 145.443771 126.928356 
L 145.604094 121.699316 
L 145.710976 118.469615 
L 145.764418 118.931001 
L 145.817859 118.931001 
L 145.978182 115.701299 
L 146.031623 115.701299 
L 146.191946 114.932323 
L 146.245387 115.086118 
L 146.40571 114.624732 
L 146.512593 114.624732 
L 146.672916 116.162685 
L 146.726357 114.163346 
L 146.88668 116.624071 
L 147.100444 116.624071 
L 147.527973 119.392387 
L 147.581414 117.854434 
L 147.634855 118.162024 
L 147.902061 118.162024 
L 147.955502 119.238591 
L 148.115825 106.473582 
L 148.169266 106.473582 
L 148.276148 105.089424 
L 148.38303 107.242558 
L 148.489912 120.315158 
L 148.543354 118.931001 
L 148.703677 112.471598 
L 148.864 113.240575 
L 148.917441 112.317803 
L 148.970882 113.086779 
L 149.024323 118.931001 
L 149.077764 118.162024 
L 149.184646 118.162024 
L 149.34497 117.700638 
L 149.505293 124.160041 
L 149.558734 124.160041 
L 149.665616 127.389742 
L 149.719057 127.235947 
L 149.772498 126.313175 
L 149.825939 127.389742 
L 149.87938 126.313175 
L 150.039704 126.313175 
L 150.200027 127.082151 
L 150.306909 126.928356 
L 150.467232 112.471598 
L 150.627556 111.087441 
L 150.787879 106.934968 
L 150.894761 106.934968 
L 151.001643 107.242558 
L 151.055084 108.626716 
L 151.108525 108.472921 
L 151.268848 100.62936 
L 151.375731 99.860384 
L 151.429172 100.62936 
L 151.482613 104.474243 
L 151.536054 101.859723 
L 151.589495 101.859723 
L 151.642936 102.167313 
L 151.696377 101.859723 
L 151.749818 101.859723 
L 151.803259 102.628699 
L 151.8567 101.398337 
L 151.910141 101.859723 
L 152.070465 101.859723 
L 152.123906 98.01484 
L 152.284229 103.24388 
L 152.391111 103.24388 
L 152.444552 103.090085 
L 152.497993 102.167313 
L 152.765199 85.557421 
L 152.81864 84.327059 
L 152.925522 91.555438 
L 152.978963 90.786462 
L 153.032404 90.786462 
L 153.192727 90.478871 
L 153.246168 90.478871 
L 153.299609 90.017485 
L 153.353051 90.786462 
L 153.459933 101.398337 
L 153.513374 101.090746 
L 153.673697 101.398337 
L 153.780579 101.398337 
L 153.83402 107.396353 
L 153.887461 106.627377 
L 153.994343 106.627377 
L 154.047785 106.473582 
L 154.101226 107.088763 
L 154.261549 101.705928 
L 154.421872 104.781833 
L 154.635636 104.781833 
L 154.79596 106.012196 
L 154.902842 103.24388 
L 154.956283 104.166652 
L 155.009724 104.166652 
L 155.170047 105.089424 
L 155.223488 105.858401 
L 155.276929 105.089424 
L 155.383811 105.089424 
L 155.544135 106.319786 
L 155.651017 106.319786 
L 155.81134 96.323092 
L 156.025104 94.938935 
L 156.131987 94.938935 
L 156.29231 87.710556 
L 156.452633 91.555438 
L 156.559515 89.86369 
L 156.719838 92.324414 
L 156.773279 92.324414 
L 156.933603 95.707911 
L 157.093926 95.09273 
L 157.147367 87.24917 
L 157.254249 87.710556 
L 157.30769 87.710556 
L 157.361131 88.171942 
L 157.414572 85.711217 
L 157.468013 85.865012 
L 157.521455 93.400982 
L 157.574896 91.555438 
L 157.628337 91.555438 
L 157.735219 92.7858 
L 157.895542 102.474904 
L 158.055865 102.474904 
L 158.216189 103.090085 
L 158.376512 103.090085 
L 158.536835 109.088102 
L 158.697158 109.549488 
L 158.857481 108.16533 
L 158.910923 108.934306 
L 158.964364 108.780511 
L 159.071246 108.780511 
L 159.231569 114.470937 
L 159.445333 118.162024 
L 159.498774 118.162024 
L 159.605657 117.854434 
L 159.76598 122.929678 
L 159.819421 122.160702 
L 159.872862 122.622088 
L 160.086626 122.622088 
L 160.140067 122.775883 
L 160.193508 120.161363 
L 160.246949 120.930339 
L 160.300391 120.930339 
L 160.514155 104.628038 
L 160.567596 105.397015 
L 160.674478 104.012857 
L 160.727919 104.166652 
L 160.834801 110.626055 
L 160.995125 109.241897 
L 161.155448 115.855095 
L 161.315771 116.316481 
L 161.369212 116.316481 
L 161.529535 118.931001 
L 161.689859 119.238591 
L 161.796741 123.54486 
L 161.903623 121.545521 
L 162.063946 122.314497 
L 162.170828 122.314497 
L 162.27771 125.544198 
L 162.384593 124.006245 
L 162.438034 124.467631 
L 162.491475 128.004923 
L 162.544916 124.313836 
L 162.651798 124.313836 
L 162.812121 124.775222 
L 162.972444 124.775222 
L 163.025886 124.313836 
L 163.079327 125.851789 
L 163.132768 125.236608 
L 163.293091 125.236608 
L 163.453414 122.468292 
L 163.506855 122.468292 
L 163.560296 121.23793 
L 163.613737 121.853111 
L 163.667178 122.160702 
L 163.827502 119.699977 
L 163.987825 119.699977 
L 164.094707 107.242558 
L 164.25503 110.77985 
L 164.361912 110.77985 
L 164.468795 109.241897 
L 164.575677 115.239914 
L 164.736 112.164008 
L 164.842882 112.164008 
L 164.896323 106.319786 
L 165.003205 106.473582 
L 165.110088 106.473582 
L 165.270411 105.243219 
L 165.430734 105.243219 
L 165.591057 98.783817 
L 165.644498 98.937612 
L 165.75138 98.630022 
L 165.804822 99.091408 
L 165.911704 110.626055 
L 166.018586 109.241897 
L 166.072027 109.241897 
L 166.125468 102.782495 
L 166.178909 103.551471 
L 166.285791 103.551471 
L 166.499556 102.93629 
L 166.552997 103.551471 
L 166.606438 103.397676 
L 166.766761 100.475565 
L 166.873643 101.090746 
L 166.980525 104.935629 
L 167.140848 104.628038 
L 167.247731 104.628038 
L 167.408054 110.318464 
L 167.568377 110.010873 
L 167.675259 110.010873 
L 167.835582 103.859062 
L 167.995906 104.012857 
L 168.102788 99.398998 
L 168.156229 100.014179 
L 168.369993 94.785139 
L 168.423434 95.09273 
L 168.583758 101.705928 
L 168.744081 103.090085 
L 168.904404 103.090085 
L 168.957845 101.859723 
L 169.118168 92.47821 
L 169.225051 93.247186 
L 169.331933 86.787784 
L 169.385374 88.325737 
L 169.438815 88.171942 
L 169.545697 86.018807 
L 169.599138 86.172603 
L 169.652579 86.172603 
L 169.919785 87.095374 
L 170.133549 84.019469 
L 170.18699 81.558744 
L 170.347313 88.633327 
L 170.454195 88.633327 
L 170.614519 89.709894 
L 170.66796 90.478871 
L 170.774842 86.787784 
L 170.828283 86.941579 
L 170.881724 86.941579 
L 170.935165 85.249831 
L 170.988606 85.711217 
L 171.148929 86.326398 
L 171.255811 85.711217 
L 171.416135 91.247847 
L 171.523017 91.247847 
L 171.790222 90.325076 
L 171.897104 90.786462 
L 172.003987 90.325076 
L 172.16431 91.401643 
L 172.217751 91.401643 
L 172.271192 92.016824 
L 172.431515 96.784478 
L 172.591838 93.400982 
L 172.645279 93.400982 
L 172.859044 92.170619 
L 173.019367 93.862367 
L 173.126249 93.862367 
L 173.17969 93.093391 
L 173.233131 93.400982 
L 173.340013 93.400982 
L 173.500337 90.786462 
L 173.607219 90.786462 
L 173.767542 88.171942 
L 174.034747 88.171942 
L 174.195071 88.479532 
L 174.355394 87.55676 
L 174.408835 90.325076 
L 174.515717 90.17128 
L 174.569158 90.17128 
L 174.67604 89.709894 
L 174.836364 95.554116 
L 174.889805 95.707911 
L 175.050128 95.246525 
L 175.210451 103.090085 
L 175.744862 103.090085 
L 175.905185 103.24388 
L 176.012067 103.24388 
L 176.065508 103.397676 
L 176.172391 101.552132 
L 176.225832 103.859062 
L 176.279273 102.474904 
L 176.386155 102.474904 
L 176.493037 98.476226 
L 176.65336 100.62936 
L 176.813684 100.62936 
L 176.867125 107.088763 
L 176.920566 104.935629 
L 176.974007 104.320448 
L 177.13433 94.169958 
L 177.241212 94.169958 
L 177.401535 96.938273 
L 177.561859 95.246525 
L 177.722182 94.323753 
L 177.829064 93.400982 
L 177.882505 88.171942 
L 177.989387 88.325737 
L 178.042828 88.325737 
L 178.096269 88.171942 
L 178.14971 90.632666 
L 178.203152 90.17128 
L 178.256593 90.17128 
L 178.416916 88.171942 
L 178.523798 93.862367 
L 178.577239 93.247186 
L 178.684121 87.24917 
L 178.737562 87.402965 
L 178.791003 87.710556 
L 178.951327 86.172603 
L 179.11165 87.55676 
L 179.271973 87.095374 
L 179.325414 87.095374 
L 179.485737 91.094052 
L 179.646061 90.940257 
L 179.699502 90.940257 
L 179.859825 87.710556 
L 179.913266 88.633327 
L 180.020148 89.248509 
L 180.12703 94.785139 
L 180.287354 89.094713 
L 180.340795 89.094713 
L 180.394236 89.248509 
L 180.554559 88.940918 
L 180.608 88.940918 
L 180.661441 84.63465 
L 180.714882 84.788445 
L 180.768323 85.403626 
L 180.875205 88.940918 
L 180.982088 87.095374 
L 181.142411 92.47821 
L 181.516498 92.47821 
L 181.62338 91.863029 
L 181.783704 92.324414 
L 181.944027 96.938273 
L 181.997468 96.938273 
L 182.157791 96.169297 
L 182.264673 96.630683 
L 182.318114 95.554116 
L 182.371556 95.861706 
L 182.424997 95.861706 
L 182.638761 96.630683 
L 182.745643 96.630683 
L 182.905966 96.476887 
L 183.06629 100.62936 
L 183.119731 101.398337 
L 183.173172 98.937612 
L 183.226613 100.014179 
L 183.333495 99.706589 
L 183.493818 100.32177 
L 183.654141 100.32177 
L 183.814465 99.706589 
L 183.867906 100.475565 
L 183.921347 100.014179 
L 184.028229 100.014179 
L 184.188552 101.705928 
L 184.455758 101.705928 
L 184.616081 102.628699 
L 184.669522 102.628699 
L 184.829845 101.244542 
L 184.990168 101.244542 
L 185.097051 100.936951 
L 185.257374 101.859723 
L 185.364256 95.40032 
L 185.417697 95.707911 
L 185.524579 95.707911 
L 185.684902 86.018807 
L 185.845226 86.018807 
L 185.952108 93.708572 
L 186.05899 93.093391 
L 186.112431 93.247186 
L 186.219313 87.864351 
L 186.272754 88.018146 
L 186.326195 88.018146 
L 186.379636 82.481516 
L 186.433077 83.250492 
L 186.486519 83.250492 
L 186.53996 85.711217 
L 186.593401 85.403626 
L 186.646842 85.403626 
L 186.807165 87.095374 
L 186.860606 87.095374 
L 187.020929 97.70725 
L 187.127811 97.092069 
L 187.181253 88.171942 
L 187.234694 89.556099 
L 187.395017 90.017485 
L 187.501899 90.017485 
L 187.608781 91.094052 
L 187.662222 90.786462 
L 187.715663 91.094052 
L 187.822545 85.711217 
L 187.929428 98.937612 
L 188.03631 96.169297 
L 188.196633 96.015502 
L 188.410397 98.168636 
L 188.570721 98.168636 
L 188.677603 98.322431 
L 188.837926 96.784478 
L 189.05169 96.784478 
L 189.158572 99.091408 
L 189.318896 92.7858 
L 189.372337 92.939596 
L 189.53266 92.939596 
L 189.692983 92.170619 
L 189.799865 92.170619 
L 189.960189 97.092069 
L 190.120512 98.01484 
L 190.227394 88.325737 
L 190.280835 88.479532 
L 190.387717 88.479532 
L 190.54804 87.864351 
L 190.654923 87.864351 
L 190.761805 85.865012 
L 190.922128 96.938273 
L 191.082451 98.476226 
L 191.242774 98.476226 
L 191.403098 100.32177 
L 191.670303 100.32177 
L 191.830626 101.244542 
L 191.884067 99.245203 
L 191.990949 92.170619 
L 192.044391 92.47821 
L 192.204714 89.248509 
L 192.258155 88.479532 
L 192.471919 99.245203 
L 192.52536 99.245203 
L 192.632242 96.938273 
L 192.685684 99.552793 
L 192.792566 99.398998 
L 192.899448 99.245203 
L 192.952889 102.321109 
L 193.00633 100.167975 
L 193.166653 101.859723 
L 193.220094 102.782495 
L 193.380418 93.093391 
L 193.540741 90.325076 
L 193.647623 90.17128 
L 193.754505 94.169958 
L 193.914828 90.017485 
L 193.968269 99.091408 
L 194.075152 98.630022 
L 194.128593 98.630022 
L 194.288916 98.783817 
L 194.342357 98.783817 
L 194.449239 99.552793 
L 194.556121 93.554777 
L 194.609562 94.016163 
L 194.769886 103.24388 
L 194.930209 103.397676 
L 195.037091 103.397676 
L 195.143973 101.859723 
L 195.304296 102.321109 
L 195.411178 102.321109 
L 195.571502 101.705928 
L 195.785266 101.705928 
L 195.945589 101.244542 
L 196.052471 100.62936 
L 196.105912 95.707911 
L 196.266236 79.251814 
L 196.373118 78.175247 
L 196.533441 79.559405 
L 196.586882 79.559405 
L 196.693764 80.635972 
L 196.800646 76.637294 
L 196.854088 77.406271 
L 196.907529 77.406271 
L 196.96097 77.713861 
L 197.121293 76.483499 
L 197.281616 77.713861 
L 197.388498 77.560066 
L 197.548822 77.713861 
L 197.602263 77.713861 
L 197.762586 81.558744 
L 197.922909 81.558744 
L 198.029791 81.404949 
L 198.190114 88.171942 
L 198.403879 87.402965 
L 198.45732 87.402965 
L 198.510761 87.55676 
L 198.617643 91.709233 
L 198.777966 84.788445 
L 198.831407 84.788445 
L 198.93829 84.173264 
L 198.991731 93.093391 
L 199.045172 92.016824 
L 199.152054 92.016824 
L 199.312377 100.475565 
L 199.4727 97.70725 
L 199.633024 96.938273 
L 199.686465 96.784478 
L 199.739906 89.094713 
L 199.793347 90.786462 
L 199.846788 90.786462 
L 200.007111 92.632005 
L 200.113993 92.324414 
L 200.167434 92.324414 
L 200.327758 81.558744 
L 200.541522 80.943563 
L 200.701845 76.483499 
L 200.755286 76.483499 
L 200.915609 76.329704 
L 200.969051 76.329704 
L 201.022492 75.253137 
L 201.129374 77.406271 
L 201.182815 76.483499 
L 201.289697 75.868318 
L 201.45002 73.561388 
L 201.503461 73.561388 
L 201.556902 72.792412 
L 201.610343 75.253137 
L 201.717226 89.248509 
L 201.770667 88.787123 
L 201.877549 88.787123 
L 201.93099 89.86369 
L 202.091313 86.633989 
L 202.144754 86.172603 
L 202.305077 84.173264 
L 202.41196 72.946207 
L 202.465401 73.253798 
L 202.518842 73.100003 
L 202.625724 77.713861 
L 202.786047 77.09868 
L 202.839488 77.09868 
L 202.94637 72.638617 
L 203.053253 77.09868 
L 203.106694 75.099341 
L 203.160135 75.714523 
L 203.320458 75.714523 
L 203.42734 75.560727 
L 203.534222 75.868318 
L 203.587663 75.714523 
L 203.694545 71.86964 
L 203.747987 72.023435 
L 203.90831 82.635311 
L 203.961751 82.635311 
L 204.122074 82.481516 
L 204.175515 82.481516 
L 204.442721 84.480854 
L 204.603044 82.32772 
L 204.656485 82.32772 
L 204.816808 83.404287 
L 205.030572 85.865012 
L 205.137455 85.865012 
L 205.244337 87.402965 
L 205.351219 99.860384 
L 205.40466 98.476226 
L 205.511542 98.476226 
L 205.88563 93.400982 
L 206.045953 100.475565 
L 206.152835 100.475565 
L 206.206276 100.62936 
L 206.473481 94.016163 
L 206.633805 93.862367 
L 206.687246 93.862367 
L 206.954451 96.630683 
L 207.007892 96.476887 
L 207.114774 96.476887 
L 207.275098 96.784478 
L 207.435421 96.784478 
L 207.595744 96.938273 
L 207.809508 96.015502 
L 207.862949 91.709233 
L 207.916391 100.32177 
L 208.023273 82.789106 
L 208.076714 83.404287 
L 208.130155 83.404287 
L 208.237037 88.171942 
L 208.290478 84.019469 
L 208.39736 84.327059 
L 208.557684 84.327059 
L 208.664566 100.475565 
L 208.718007 99.245203 
L 208.771448 87.095374 
L 208.87833 87.864351 
L 209.092094 87.864351 
L 209.145535 88.018146 
L 209.305859 90.786462 
L 209.466182 102.474904 
L 209.519623 102.474904 
L 209.679946 110.933645 
L 210.054034 110.933645 
L 210.214357 118.931001 
L 210.267798 118.931001 
L 210.321239 119.392387 
L 210.428121 123.85245 
L 210.588444 119.546182 
L 210.748768 124.160041 
L 210.802209 125.082812 
L 210.85565 124.929017 
L 210.909091 124.929017 
L 211.122855 125.236608 
L 211.229737 124.467631 
L 211.283178 125.544198 
L 211.33662 124.775222 
L 211.390061 124.775222 
L 211.550384 127.082151 
L 211.764148 116.624071 
L 211.87103 116.624071 
L 212.031354 122.160702 
L 212.084795 122.314497 
L 212.191677 124.160041 
L 212.245118 117.854434 
L 212.298559 118.931001 
L 212.352 118.931001 
L 212.512323 118.315819 
L 212.779529 118.315819 
L 212.83297 118.008229 
L 212.993293 123.698655 
L 213.046734 123.698655 
L 213.207057 124.160041 
L 213.36738 125.236608 
L 213.527704 121.699316 
L 213.741468 120.468954 
L 213.794909 123.85245 
L 213.84835 123.54486 
L 213.901791 123.54486 
L 214.062114 122.622088 
L 214.115556 122.622088 
L 214.275879 118.008229 
L 214.382761 118.008229 
L 214.436202 117.546843 
L 214.489643 117.854434 
L 214.649966 118.162024 
L 214.703407 114.009551 
L 214.756848 115.086118 
L 214.917172 115.086118 
L 215.077495 114.624732 
L 215.3447 116.470276 
L 215.505024 115.855095 
L 215.558465 115.855095 
L 215.611906 116.162685 
L 215.772229 115.086118 
L 215.82567 115.086118 
L 215.985993 114.932323 
L 216.039434 114.932323 
L 216.199758 114.470937 
L 216.30664 114.470937 
L 216.360081 119.084796 
L 216.413522 117.393048 
L 216.573845 117.393048 
L 216.734168 126.620765 
L 216.841051 126.928356 
L 217.001374 126.46697 
L 217.108256 126.46697 
L 217.268579 126.15938 
L 217.32202 126.15938 
L 217.428902 124.467631 
L 217.696108 126.313175 
L 217.856431 125.236608 
L 217.909872 125.236608 
L 218.070195 125.851789 
L 218.497724 125.851789 
L 218.658047 124.929017 
L 218.871811 124.929017 
L 219.032135 125.082812 
L 219.192458 125.082812 
L 219.352781 126.46697 
L 219.513104 126.15938 
L 219.673428 127.082151 
L 220.100956 127.082151 
L 220.261279 125.390403 
L 220.421603 136.002278 
L 220.581926 136.463664 
L 220.635367 135.694688 
L 220.79569 122.622088 
L 221.009455 120.776544 
L 221.223219 123.083474 
L 221.27666 123.083474 
L 221.330101 111.702622 
L 221.383542 113.39437 
L 221.490424 113.39437 
L 221.704189 134.31053 
L 221.811071 136.156074 
L 221.864512 136.002278 
L 221.971394 141.692704 
L 222.238599 138.616798 
L 222.345481 139.693366 
L 222.452364 139.385775 
L 222.612687 142.923067 
L 222.77301 142.923067 
L 222.986774 118.008229 
L 223.147098 120.315158 
L 223.25398 120.315158 
L 223.414303 120.161363 
L 223.467744 120.161363 
L 223.628067 118.931001 
L 223.841832 118.931001 
L 224.162478 116.470276 
L 224.376242 116.470276 
L 224.429684 116.162685 
L 224.536566 112.471598 
L 224.643448 113.240575 
L 224.75033 117.546843 
L 224.803771 117.085457 
L 224.910653 116.316481 
L 225.070976 130.158057 
L 225.284741 130.158057 
L 225.338182 126.46697 
L 225.391623 127.235947 
L 225.445064 127.235947 
L 225.498505 125.697994 
L 225.551946 126.313175 
L 225.605387 128.620104 
L 225.658828 127.543537 
L 225.76571 127.543537 
L 225.872593 126.46697 
L 225.926034 126.620765 
L 225.979475 125.851789 
L 226.032916 126.46697 
L 226.193239 126.46697 
L 226.353562 126.005584 
L 226.513886 133.695349 
L 226.567327 133.849144 
L 226.72765 135.079507 
L 226.781091 132.772577 
L 226.941414 140.000956 
L 227.101737 140.000956 
L 227.315502 137.540231 
L 227.475825 137.847822 
L 227.529266 137.847822 
L 227.74303 135.233302 
L 227.849912 137.386436 
L 227.903354 137.232641 
L 228.010236 137.232641 
L 228.224 139.847161 
L 228.277441 140.154751 
L 228.491205 138.155413 
L 228.544646 138.001617 
L 228.811852 135.694688 
L 228.918734 135.694688 
L 229.185939 137.847822 
L 229.506586 136.463664 
L 229.666909 136.463664 
L 229.72035 136.61746 
L 230.20132 134.464325 
L 230.361643 136.309869 
L 230.521966 133.387758 
L 231.056377 133.387758 
L 231.377024 136.771255 
L 231.537347 136.309869 
L 231.69767 136.156074 
L 231.751111 136.156074 
L 231.804552 137.694027 
L 232.071758 131.234624 
L 232.125199 131.234624 
L 232.17864 135.233302 
L 232.232081 122.622088 
L 232.285522 124.006245 
L 232.445845 124.929017 
L 232.499286 124.929017 
L 232.659609 124.160041 
L 232.713051 125.390403 
L 232.873374 123.85245 
L 232.926815 123.54486 
L 233.087138 127.543537 
L 233.67499 127.543537 
L 233.728431 127.851128 
L 233.888754 129.389081 
L 233.942195 129.389081 
L 233.995636 128.620104 
L 234.102519 108.780511 
L 234.15596 108.934306 
L 234.209401 108.934306 
L 234.316283 109.088102 
L 234.476606 110.010873 
L 234.530047 110.010873 
L 234.636929 108.626716 
L 234.797253 118.777205 
L 235.011017 118.777205 
L 235.17134 112.317803 
L 235.224781 112.625394 
L 235.278222 111.548826 
L 235.438545 116.316481 
L 235.598869 117.700638 
L 235.65231 109.241897 
L 235.705751 115.393709 
L 235.812633 115.393709 
L 235.972956 114.009551 
L 236.133279 114.009551 
L 236.240162 113.548165 
L 236.400485 110.318464 
L 236.560808 111.702622 
L 236.614249 111.702622 
L 236.66769 112.317803 
L 236.828013 104.474243 
L 236.988337 106.781172 
L 237.202101 106.781172 
L 237.308983 88.633327 
L 237.362424 89.556099 
L 237.522747 89.402304 
L 237.683071 90.632666 
L 237.736512 90.632666 
L 237.843394 90.17128 
L 237.950276 91.094052 
L 238.003717 103.705266 
L 238.110599 103.397676 
L 238.270923 101.859723 
L 238.431246 111.087441 
L 238.698451 114.932323 
L 238.751892 114.470937 
L 238.805333 113.240575 
L 238.858774 113.701961 
L 238.965657 113.39437 
L 239.019098 114.470937 
L 239.072539 114.009551 
L 239.339744 114.470937 
L 239.500067 114.470937 
L 239.660391 114.317142 
L 239.713832 115.086118 
L 239.767273 114.624732 
L 239.874155 114.317142 
L 239.927596 114.470937 
L 240.087919 122.160702 
L 240.194801 122.160702 
L 240.248242 122.929678 
L 240.301684 122.622088 
L 240.355125 122.622088 
L 240.408566 122.468292 
L 240.515448 119.392387 
L 240.675771 123.85245 
L 240.729212 123.85245 
L 240.889535 122.775883 
L 241.049859 122.775883 
L 241.1033 122.468292 
L 241.263623 124.313836 
L 241.423946 121.853111 
L 241.530828 121.853111 
L 241.851475 121.084135 
L 242.011798 125.390403 
L 242.225562 114.624732 
L 242.385886 114.624732 
L 242.492768 117.239252 
L 242.546209 117.085457 
L 242.59965 117.085457 
L 242.759973 118.777205 
L 242.920296 118.62341 
L 242.973737 118.62341 
L 243.134061 119.084796 
L 243.294384 119.084796 
L 243.347825 119.238591 
L 243.508148 120.622749 
L 243.561589 120.776544 
L 243.775354 118.777205 
L 244.096 120.622749 
L 244.202882 120.622749 
L 244.363205 115.239914 
L 244.470088 115.239914 
L 244.630411 124.160041 
L 244.737293 124.160041 
L 244.897616 123.391064 
L 245.057939 123.083474 
L 245.325145 119.546182 
L 245.378586 119.546182 
L 245.485468 116.00889 
L 245.699232 120.315158 
L 245.912997 116.162685 
L 245.966438 116.316481 
L 246.126761 115.855095 
L 246.180202 115.855095 
L 246.447407 113.39437 
L 246.714613 113.39437 
L 246.768054 112.317803 
L 246.928377 118.162024 
L 247.0887 120.007568 
L 247.195582 119.238591 
L 247.355906 118.162024 
L 247.462788 117.854434 
L 247.623111 103.397676 
L 247.676552 103.397676 
L 247.836875 97.553455 
L 248.05064 92.016824 
L 248.104081 92.170619 
L 248.317845 81.251153 
L 248.424727 81.251153 
L 248.585051 80.174586 
L 248.745374 80.174586 
L 248.852256 87.55676 
L 249.012579 84.173264 
L 249.119461 84.327059 
L 249.172902 78.944224 
L 249.279785 79.251814 
L 249.493549 87.55676 
L 249.600431 86.633989 
L 249.707313 86.787784 
L 249.867636 88.171942 
L 249.921077 88.171942 
L 250.081401 84.327059 
L 250.188283 83.711878 
L 250.348606 84.173264 
L 250.508929 81.251153 
L 250.669253 80.328381 
L 250.776135 80.328381 
L 250.936458 88.325737 
L 251.150222 90.017485 
L 251.310545 97.553455 
L 251.470869 96.938273 
L 251.52431 96.938273 
L 251.684633 91.863029 
L 251.844956 91.863029 
L 252.005279 91.555438 
L 252.058721 91.555438 
L 252.219044 92.016824 
L 252.272485 92.016824 
L 252.325926 91.555438 
L 252.432808 101.552132 
L 252.486249 100.936951 
L 252.593131 100.936951 
L 252.646572 100.783156 
L 252.753455 103.24388 
L 252.860337 101.244542 
L 253.02066 102.013518 
L 253.074101 102.013518 
L 253.287865 100.936951 
L 253.448189 107.857739 
L 253.50163 107.857739 
L 253.608512 109.088102 
L 253.768835 106.627377 
L 253.822276 106.627377 
L 254.03604 104.012857 
L 254.089481 104.012857 
L 254.196364 100.936951 
L 254.303246 102.321109 
L 254.410128 100.62936 
L 254.463569 105.704605 
L 254.51701 104.474243 
L 254.570451 104.474243 
L 254.677333 104.628038 
L 254.837657 104.320448 
L 254.944539 104.320448 
L 254.99798 103.705266 
L 255.158303 99.245203 
L 255.211744 99.245203 
L 255.425508 98.783817 
L 255.478949 96.323092 
L 255.532391 96.476887 
L 255.746155 96.938273 
L 255.799596 96.015502 
L 255.853037 96.169297 
L 255.906478 96.169297 
L 256.120242 99.091408 
L 256.173684 99.091408 
L 256.49433 94.169958 
L 256.547771 94.938935 
L 256.654653 95.707911 
L 256.814976 93.862367 
L 257.028741 96.630683 
L 257.135623 96.476887 
L 257.242505 95.09273 
L 257.349387 96.015502 
L 257.402828 94.938935 
L 257.456269 99.245203 
L 257.50971 97.553455 
L 257.563152 97.553455 
L 257.616593 96.630683 
L 257.670034 97.399659 
L 257.723475 97.399659 
L 257.883798 96.476887 
L 258.044121 99.860384 
L 258.097562 102.013518 
L 258.204444 101.859723 
L 258.257886 96.323092 
L 258.364768 96.630683 
L 258.525091 103.397676 
L 258.578532 103.397676 
L 258.631973 104.474243 
L 258.792296 100.936951 
L 258.899178 100.936951 
L 259.112943 100.167975 
L 259.166384 100.167975 
L 259.326707 105.704605 
L 259.380148 102.93629 
L 259.540471 92.47821 
L 259.647354 92.939596 
L 259.861118 92.47821 
L 260.074882 94.016163 
L 260.128323 78.482838 
L 260.235205 78.790428 
L 260.342088 80.174586 
L 260.395529 79.866996 
L 260.555852 80.943563 
L 260.609293 80.943563 
L 260.769616 86.633989 
L 260.876498 81.251153 
L 261.036822 74.330365 
L 261.143704 74.330365 
L 261.250586 74.637955 
L 261.410909 71.715845 
L 261.46435 71.715845 
L 261.571232 75.868318 
L 261.731556 74.945546 
L 261.891879 82.02013 
L 261.998761 80.020791 
L 262.159084 93.554777 
L 262.319407 94.785139 
L 262.372848 94.785139 
L 262.42629 92.47821 
L 262.586613 100.014179 
L 262.640054 94.477549 
L 262.746936 112.625394 
L 262.800377 112.471598 
L 262.853818 112.471598 
L 263.014141 116.624071 
L 263.174465 110.010873 
L 263.281347 121.545521 
L 263.334788 110.77985 
L 263.388229 112.932984 
L 263.44167 112.932984 
L 263.548552 110.472259 
L 263.655434 112.164008 
L 263.815758 111.856417 
L 263.92264 111.856417 
L 264.029522 112.164008 
L 264.082963 111.241236 
L 264.243286 107.703944 
L 264.296727 106.934968 
L 264.457051 100.014179 
L 264.670815 100.014179 
L 264.777697 97.861045 
L 264.93802 100.783156 
L 265.044902 100.783156 
L 265.098343 99.091408 
L 265.151785 101.552132 
L 265.258667 95.554116 
L 265.312108 96.938273 
L 265.525872 99.398998 
L 265.632754 99.398998 
L 266.006842 101.398337 
L 266.113724 107.550149 
L 266.274047 102.013518 
L 266.43437 114.778528 
L 266.594694 114.470937 
L 266.755017 114.470937 
L 267.182545 112.471598 
L 267.235987 112.471598 
L 267.342869 112.317803 
L 267.503192 115.239914 
L 267.663515 106.473582 
L 267.823838 106.473582 
L 267.877279 106.934968 
L 268.037603 106.012196 
L 268.197926 106.781172 
L 268.251367 106.781172 
L 268.358249 112.471598 
L 268.41169 112.317803 
L 268.572013 111.702622 
L 268.625455 111.702622 
L 268.785778 107.242558 
L 268.946101 110.010873 
L 269.106424 96.323092 
L 269.213306 96.323092 
L 269.480512 93.554777 
L 269.587394 93.708572 
L 269.640835 94.477549 
L 269.854599 123.85245 
L 269.961481 122.929678 
L 270.121805 126.928356 
L 270.175246 125.544198 
L 270.282128 114.778528 
L 270.335569 114.932323 
L 270.38901 114.932323 
L 270.442451 109.549488 
L 270.495892 111.548826 
L 270.602774 111.548826 
L 270.709657 110.472259 
L 270.86998 111.241236 
L 270.976862 111.241236 
L 271.083744 111.856417 
L 271.404391 111.087441 
L 271.457832 111.548826 
L 271.511273 111.395031 
L 271.671596 108.16533 
L 271.778478 108.16533 
L 271.831919 108.011535 
L 271.992242 107.242558 
L 272.045684 107.242558 
L 272.206007 107.088763 
L 272.312889 107.088763 
L 272.473212 105.858401 
L 272.633535 98.630022 
L 272.793859 99.398998 
L 272.954182 99.398998 
L 273.167946 101.090746 
L 273.221387 101.090746 
L 273.38171 99.860384 
L 273.435152 100.167975 
L 273.488593 100.167975 
L 273.542034 99.091408 
L 273.595475 99.398998 
L 273.702357 100.783156 
L 273.86268 97.70725 
L 274.076444 97.70725 
L 274.236768 93.862367 
L 274.397091 94.169958 
L 274.503973 89.556099 
L 274.664296 90.325076 
L 275.091825 90.325076 
L 275.252148 92.47821 
L 275.35903 91.247847 
L 275.519354 92.016824 
L 275.893441 92.016824 
L 276.000323 91.247847 
L 276.053764 91.709233 
L 276.214088 89.556099 
L 276.267529 90.017485 
L 276.374411 90.017485 
L 276.427852 90.478871 
L 276.534734 88.787123 
L 276.695057 91.401643 
L 276.801939 88.787123 
L 276.85538 89.556099 
L 276.962263 89.556099 
L 277.069145 88.787123 
L 277.229468 92.170619 
L 277.282909 91.555438 
L 277.33635 92.016824 
L 277.603556 91.555438 
L 277.763879 89.248509 
L 277.924202 90.632666 
L 277.977643 90.632666 
L 278.031084 89.556099 
L 278.084525 90.017485 
L 278.137966 89.86369 
L 278.29829 90.940257 
L 278.512054 92.7858 
L 278.565495 92.7858 
L 278.672377 92.939596 
L 278.8327 92.7858 
L 278.886141 92.7858 
L 278.993024 98.630022 
L 279.046465 98.476226 
L 279.260229 94.938935 
L 279.367111 95.707911 
L 279.527434 95.246525 
L 279.634316 95.246525 
L 279.79464 93.554777 
L 279.954963 93.554777 
L 280.008404 92.47821 
L 280.168727 98.168636 
L 280.382492 98.168636 
L 280.489374 98.01484 
L 280.649697 97.245864 
L 280.703138 90.17128 
L 280.756579 91.247847 
L 280.863461 91.094052 
L 281.023785 92.170619 
L 281.184108 89.86369 
L 281.237549 89.86369 
L 281.344431 90.478871 
L 281.397872 90.17128 
L 281.504754 98.476226 
L 281.558195 97.70725 
L 281.718519 96.630683 
L 281.77196 96.630683 
L 281.825401 100.014179 
L 281.878842 98.937612 
L 281.932283 98.168636 
L 281.985724 98.937612 
L 282.039165 99.398998 
L 282.092606 99.245203 
L 282.199488 99.245203 
L 282.413253 98.937612 
L 282.680458 102.628699 
L 282.947663 94.938935 
L 283.054545 96.323092 
L 283.26831 94.477549 
L 283.321751 94.785139 
L 283.535515 89.556099 
L 283.695838 89.556099 
L 283.856162 89.709894 
L 283.963044 89.709894 
L 284.123367 90.478871 
L 284.28369 89.86369 
L 284.337131 89.86369 
L 284.390572 87.24917 
L 284.444013 88.633327 
L 284.711219 90.17128 
L 284.76466 90.17128 
L 285.085306 93.708572 
L 285.192189 93.708572 
L 285.24563 93.554777 
L 285.352512 89.402304 
L 285.405953 89.556099 
L 285.459394 88.787123 
L 285.512835 86.172603 
L 285.566276 87.402965 
L 285.673158 87.24917 
L 285.833481 87.402965 
L 286.047246 87.402965 
L 286.207569 91.401643 
L 286.26101 91.401643 
L 286.367892 92.016824 
L 286.474774 97.553455 
L 286.528215 97.245864 
L 286.581657 97.553455 
L 286.688539 96.630683 
L 286.74198 101.244542 
L 286.795421 100.62936 
L 286.848862 100.62936 
L 286.955744 102.167313 
L 287.116067 98.783817 
L 287.276391 98.01484 
L 287.436714 90.017485 
L 287.490155 90.017485 
L 287.597037 90.325076 
L 287.703919 96.938273 
L 287.864242 80.635972 
L 288.024566 77.252476 
L 288.078007 83.250492 
L 288.131448 77.713861 
L 288.23833 77.252476 
L 288.291771 78.175247 
L 288.345212 77.252476 
L 288.452094 77.252476 
L 288.558976 77.560066 
L 288.7193 75.253137 
L 288.826182 75.253137 
L 288.933064 88.787123 
L 288.986505 87.864351 
L 289.146828 87.095374 
L 289.307152 80.789767 
L 289.520916 82.789106 
L 289.574357 82.789106 
L 289.73468 81.404949 
L 289.788121 81.404949 
L 289.948444 80.328381 
L 290.055327 86.326398 
L 290.108768 86.018807 
L 290.162209 84.788445 
L 290.21565 85.096036 
L 290.269091 85.096036 
L 290.322532 85.249831 
L 290.375973 82.942901 
L 290.536296 93.247186 
L 290.69662 93.554777 
L 290.803502 93.554777 
L 290.910384 92.324414 
L 291.070707 93.554777 
L 291.23103 82.789106 
L 291.284471 82.789106 
L 291.444795 83.865673 
L 291.498236 83.865673 
L 291.658559 88.171942 
L 291.765441 86.480193 
L 291.925764 76.79109 
L 291.979205 76.944885 
L 292.086088 88.171942 
L 292.139529 88.018146 
L 292.299852 82.32772 
L 292.460175 82.32772 
L 292.673939 83.865673 
L 292.72738 83.865673 
L 292.887704 95.861706 
L 293.048027 95.861706 
L 293.315232 96.938273 
L 293.475556 94.631344 
L 293.635879 94.938935 
L 293.742761 95.554116 
L 293.796202 90.940257 
L 293.849643 91.247847 
L 293.903084 91.555438 
L 294.063407 90.478871 
L 294.490936 90.478871 
L 294.544377 96.169297 
L 294.597818 81.251153 
L 294.651259 86.172603 
L 294.758141 86.172603 
L 294.918465 86.941579 
L 295.025347 86.941579 
L 295.18567 85.557421 
L 295.239111 86.480193 
L 295.292552 90.17128 
L 295.452875 84.480854 
L 295.506316 84.480854 
L 295.66664 88.940918 
L 295.720081 88.940918 
L 295.880404 91.247847 
L 295.987286 91.247847 
L 296.147609 91.863029 
L 296.201051 91.863029 
L 296.361374 89.248509 
L 296.414815 92.016824 
L 296.468256 89.402304 
L 296.575138 89.402304 
L 296.735461 85.403626 
L 296.788902 85.249831 
L 296.949226 84.019469 
L 297.109549 84.019469 
L 297.216431 84.327059 
L 297.376754 88.940918 
L 297.483636 88.940918 
L 297.537077 86.787784 
L 297.590519 87.864351 
L 297.64396 87.864351 
L 297.804283 88.171942 
L 297.857724 88.171942 
L 298.018047 86.941579 
L 298.124929 86.787784 
L 298.17837 87.402965 
L 298.231811 85.711217 
L 298.392135 94.631344 
L 298.499017 93.247186 
L 298.552458 93.708572 
L 298.712781 93.708572 
L 298.873104 94.169958 
L 298.979987 93.862367 
L 299.033428 94.938935 
L 299.086869 94.477549 
L 299.193751 94.477549 
L 299.247192 93.862367 
L 299.300633 91.094052 
L 299.354074 91.555438 
L 299.407515 91.555438 
L 299.567838 88.787123 
L 299.781603 92.016824 
L 299.835044 92.016824 
L 299.888485 91.863029 
L 299.995367 87.095374 
L 300.048808 92.939596 
L 300.102249 91.555438 
L 300.209131 91.555438 
L 300.262572 91.094052 
L 300.422896 102.167313 
L 300.63666 102.167313 
L 300.903865 99.860384 
L 300.957306 100.167975 
L 301.11763 92.939596 
L 301.598599 92.939596 
L 301.919246 102.628699 
L 301.972687 102.321109 
L 302.026128 102.474904 
L 302.13301 102.474904 
L 302.293333 92.632005 
L 302.346774 92.632005 
L 302.453657 93.708572 
L 302.61398 90.17128 
L 302.667421 90.17128 
L 302.720862 92.632005 
L 302.881185 86.633989 
L 302.934626 86.633989 
L 303.094949 86.480193 
L 303.148391 86.480193 
L 303.201832 87.55676 
L 303.255273 86.633989 
L 303.308714 87.402965 
L 303.362155 86.633989 
L 303.575919 85.865012 
L 303.896566 88.325737 
L 304.056889 82.635311 
L 304.11033 83.404287 
L 304.270653 106.012196 
L 304.377535 105.397015 
L 304.537859 109.241897 
L 304.698182 109.395692 
L 304.751623 109.395692 
L 304.805064 109.703283 
L 304.965387 104.781833 
L 305.018828 104.781833 
L 305.12571 103.859062 
L 305.286034 108.16533 
L 305.446357 108.780511 
L 305.820444 108.780511 
L 305.873886 109.088102 
L 306.034209 112.625394 
L 306.08765 112.625394 
L 306.247973 111.702622 
L 306.301414 112.010212 
L 306.354855 100.32177 
L 306.408296 113.548165 
L 306.461737 112.471598 
L 306.56862 101.859723 
L 306.622061 102.628699 
L 306.782384 107.550149 
L 306.996148 107.550149 
L 307.049589 108.319125 
L 307.316795 102.93629 
L 307.477118 103.397676 
L 307.637441 103.397676 
L 307.797764 102.782495 
L 307.851205 102.782495 
L 308.011529 104.935629 
L 308.118411 104.781833 
L 308.278734 109.088102 
L 308.332175 109.088102 
L 308.439057 106.781172 
L 308.492498 110.626055 
L 308.652822 125.544198 
L 308.706263 124.775222 
L 308.866586 130.465648 
L 308.973468 130.465648 
L 309.133791 129.08149 
L 309.240673 128.466309 
L 309.400997 122.314497 
L 309.56132 122.622088 
L 309.668202 122.622088 
L 309.775084 124.006245 
L 309.935407 123.85245 
L 310.095731 119.546182 
L 310.362936 119.546182 
L 310.523259 118.162024 
L 310.683582 106.627377 
L 310.790465 106.627377 
L 310.843906 106.934968 
L 310.897347 108.011535 
L 310.950788 107.857739 
L 311.05767 107.703944 
L 311.164552 109.703283 
L 311.217993 109.241897 
L 311.324875 109.241897 
L 311.485199 122.314497 
L 311.53864 122.314497 
L 311.645522 122.160702 
L 311.805845 120.622749 
L 311.859286 120.622749 
L 311.912727 119.084796 
L 311.966168 120.161363 
L 312.126492 119.853772 
L 312.179933 119.853772 
L 312.447138 120.468954 
L 312.607461 119.084796 
L 312.767785 119.084796 
L 312.928108 117.700638 
L 312.981549 117.546843 
L 313.088431 119.546182 
L 313.302195 117.700638 
L 313.569401 133.849144 
L 313.676283 120.007568 
L 313.729724 120.161363 
L 314.157253 110.933645 
L 314.264135 112.010212 
L 314.424458 111.087441 
L 314.584781 98.322431 
L 314.638222 98.322431 
L 314.745104 99.245203 
L 314.798545 98.937612 
L 314.851987 99.245203 
L 314.905428 112.625394 
L 314.958869 110.626055 
L 315.01231 110.933645 
L 315.119192 115.086118 
L 315.332956 96.784478 
L 315.493279 94.477549 
L 315.600162 94.477549 
L 315.760485 94.323753 
L 315.813926 96.476887 
L 315.867367 96.015502 
L 315.974249 96.015502 
L 316.02769 95.861706 
L 316.188013 99.860384 
L 316.241455 99.860384 
L 316.401778 101.705928 
L 316.562101 102.167313 
L 316.722424 102.321109 
L 316.775865 102.321109 
L 316.882747 99.245203 
L 316.936189 94.323753 
L 316.98963 98.01484 
L 317.043071 98.01484 
L 317.096512 102.167313 
L 317.256835 83.711878 
L 317.310276 83.711878 
L 317.630923 90.478871 
L 317.684364 90.478871 
L 317.844687 105.397015 
L 318.111892 101.398337 
L 318.218774 102.474904 
L 318.272215 108.626716 
L 318.325657 102.167313 
L 318.432539 102.167313 
L 318.48598 102.782495 
L 318.646303 109.088102 
L 318.806626 109.241897 
L 318.913508 109.241897 
L 319.073832 101.859723 
L 319.127273 101.859723 
L 319.50136 93.247186 
L 319.554801 93.247186 
L 319.661684 91.401643 
L 319.822007 95.554116 
L 319.98233 96.630683 
L 320.035771 96.630683 
L 320.089212 96.169297 
L 320.249535 96.938273 
L 320.356418 96.938273 
L 320.516741 100.475565 
L 320.677064 100.475565 
L 320.730505 93.554777 
L 320.783946 96.323092 
L 320.890828 95.554116 
L 320.944269 95.861706 
L 320.99771 94.785139 
L 321.051152 77.252476 
L 321.104593 78.175247 
L 321.158034 95.707911 
L 321.264916 95.40032 
L 321.318357 95.707911 
L 321.47868 94.938935 
L 321.532121 94.938935 
L 321.585562 95.09273 
L 321.692444 94.785139 
L 321.799327 98.937612 
L 321.906209 96.015502 
L 322.066532 96.630683 
L 322.119973 96.630683 
L 322.173414 96.015502 
L 322.226855 96.476887 
L 322.280296 97.399659 
L 322.44062 94.169958 
L 322.547502 94.477549 
L 322.600943 93.400982 
L 322.654384 93.862367 
L 322.761266 93.862367 
L 322.921589 102.474904 
L 322.97503 102.474904 
L 323.135354 101.552132 
L 323.188795 101.552132 
L 323.349118 99.706589 
L 323.402559 101.552132 
L 323.562882 111.241236 
L 323.616323 111.241236 
L 323.723205 112.317803 
L 323.776646 112.164008 
L 323.883529 112.471598 
L 323.93697 111.702622 
L 324.043852 112.932984 
L 324.150734 111.548826 
L 324.311057 112.010212 
L 324.364498 112.164008 
L 324.524822 110.472259 
L 324.578263 111.241236 
L 324.631704 111.241236 
L 324.685145 110.77985 
L 325.005791 113.240575 
L 325.059232 107.396353 
L 325.112673 108.011535 
L 325.326438 108.011535 
L 325.43332 99.552793 
L 325.540202 99.860384 
L 325.647084 99.860384 
L 325.753966 99.706589 
L 325.807407 98.476226 
L 325.91429 101.552132 
L 326.074613 96.938273 
L 326.128054 96.938273 
L 326.181495 96.169297 
L 326.234936 97.092069 
L 326.288377 96.630683 
L 326.341818 96.630683 
L 326.502141 96.323092 
L 326.662465 88.633327 
L 326.715906 88.633327 
L 326.822788 87.24917 
L 326.876229 90.325076 
L 327.036552 86.633989 
L 327.196875 88.171942 
L 327.357199 83.865673 
L 327.570963 77.713861 
L 327.624404 78.790428 
L 327.677845 78.790428 
L 327.838168 83.558083 
L 327.891609 83.558083 
L 328.051933 83.404287 
L 328.105374 85.249831 
L 328.158815 84.63465 
L 328.265697 77.560066 
L 328.319138 78.175247 
L 328.372579 80.174586 
L 328.42602 79.7132 
L 328.586343 79.7132 
L 328.800108 79.098019 
L 328.960431 87.864351 
L 329.120754 87.710556 
L 329.281077 87.710556 
L 329.441401 91.863029 
L 329.494842 91.863029 
L 329.548283 92.016824 
L 329.708606 91.247847 
L 329.762047 91.247847 
L 329.92237 90.940257 
L 329.975811 97.245864 
L 330.029253 96.476887 
L 330.189576 96.323092 
L 330.349899 91.401643 
L 330.40334 90.940257 
L 330.563663 97.861045 
L 330.777428 97.245864 
L 330.830869 97.245864 
L 330.88431 97.399659 
L 331.044633 98.937612 
L 331.098074 98.937612 
L 331.258397 100.014179 
L 331.418721 100.32177 
L 331.632485 98.168636 
L 331.685926 98.168636 
L 331.846249 97.70725 
L 331.89969 97.70725 
L 332.006572 97.399659 
L 332.166896 97.553455 
L 332.220337 96.323092 
L 332.434101 106.165991 
L 332.540983 105.397015 
L 332.754747 107.242558 
L 332.808189 106.627377 
L 332.968512 87.095374 
L 333.128835 87.095374 
L 333.235717 87.24917 
L 333.289158 86.326398 
L 333.342599 87.24917 
L 333.502923 99.552793 
L 333.556364 99.245203 
L 333.716687 99.860384 
L 333.823569 107.550149 
L 333.87701 107.088763 
L 333.930451 107.088763 
L 334.037333 107.550149 
L 334.144215 98.476226 
L 334.197657 98.630022 
L 334.251098 98.476226 
L 334.411421 96.323092 
L 334.464862 96.323092 
L 334.518303 96.938273 
L 334.678626 85.096036 
L 334.838949 85.403626 
L 334.892391 85.403626 
L 334.999273 85.557421 
L 335.159596 87.402965 
L 335.213037 87.402965 
L 335.426801 88.171942 
L 335.587125 91.555438 
L 335.694007 91.555438 
L 335.907771 83.558083 
L 336.068094 88.171942 
L 336.281859 87.864351 
L 336.3353 88.018146 
L 336.388741 87.864351 
L 336.442182 87.864351 
L 336.495623 87.55676 
L 336.602505 90.017485 
L 336.709387 89.709894 
L 336.86971 92.47821 
L 336.976593 92.47821 
L 337.083475 95.707911 
L 337.243798 94.785139 
L 337.297239 94.477549 
L 337.404121 99.091408 
L 337.564444 81.558744 
L 337.724768 86.172603 
L 337.885091 86.172603 
L 338.098855 85.865012 
L 338.205737 85.865012 
L 338.259178 81.251153 
L 338.366061 81.404949 
L 338.526384 79.866996 
L 338.579825 79.866996 
L 338.633266 80.635972 
L 338.686707 78.636633 
L 338.793589 78.790428 
L 338.953912 78.790428 
L 339.221118 80.020791 
L 339.328 79.098019 
L 339.488323 88.940918 
L 339.648646 89.556099 
L 339.80897 90.478871 
L 339.915852 89.86369 
L 340.076175 90.478871 
L 340.129616 90.478871 
L 340.183057 91.555438 
L 340.34338 82.481516 
L 340.450263 82.481516 
L 340.610586 81.251153 
L 340.664027 80.174586 
L 340.82435 81.866334 
L 340.931232 81.866334 
L 341.091556 80.635972 
L 341.251879 95.246525 
L 341.412202 95.246525 
L 341.572525 88.018146 
L 341.625966 88.018146 
L 341.78629 101.859723 
L 341.946613 101.859723 
L 342.000054 102.93629 
L 342.053495 102.628699 
L 342.213818 102.321109 
L 342.3207 102.321109 
L 342.481024 102.628699 
L 342.587906 101.244542 
L 342.641347 101.552132 
L 342.694788 101.244542 
L 342.855111 96.938273 
L 342.961993 96.938273 
L 343.068875 87.864351 
L 343.175758 89.86369 
L 343.336081 88.787123 
L 343.389522 88.787123 
L 343.549845 85.557421 
L 343.710168 84.173264 
L 343.763609 84.480854 
L 343.923933 76.637294 
L 343.977374 76.637294 
L 344.030815 74.791751 
L 344.084256 75.406932 
L 344.191138 76.79109 
L 344.351461 87.402965 
L 344.404902 87.864351 
L 344.458343 87.402965 
L 344.672108 87.402965 
L 344.725549 87.710556 
L 344.832431 72.023435 
L 344.885872 72.484821 
L 344.939313 72.484821 
L 345.099636 69.870301 
L 345.153077 69.870301 
L 345.25996 69.716506 
L 345.420283 74.330365 
L 345.580606 81.558744 
L 345.847811 81.558744 
L 345.954694 81.251153 
L 346.115017 82.02013 
L 346.168458 79.40561 
L 346.27534 79.559405 
L 346.382222 79.559405 
L 346.489104 74.17657 
L 346.542545 74.330365 
L 346.595987 74.330365 
L 346.75631 72.946207 
L 346.970074 72.946207 
L 347.130397 65.410238 
L 347.290721 65.410238 
L 347.397603 61.872946 
L 347.504485 62.334332 
L 347.664808 62.949513 
L 347.77169 58.489449 
L 347.932013 64.948852 
L 348.038896 65.102647 
L 348.199219 76.637294 
L 348.306101 76.483499 
L 348.412983 66.948191 
L 348.466424 67.255781 
L 348.626747 69.562711 
L 348.787071 70.331687 
L 348.893953 65.102647 
L 349.054276 67.255781 
L 349.214599 63.872285 
L 349.374923 63.872285 
L 349.481805 63.564694 
L 349.535246 70.024097 
L 349.642128 69.716506 
L 349.695569 69.716506 
L 349.855892 69.870301 
L 349.909333 67.409577 
L 349.962774 67.717167 
L 350.016215 67.717167 
L 350.069657 67.409577 
L 350.176539 67.870962 
L 350.283421 67.563372 
L 350.390303 68.332348 
L 350.657508 91.555438 
L 350.710949 91.555438 
L 350.871273 90.940257 
L 351.031596 90.632666 
L 351.512566 90.632666 
L 351.619448 89.86369 
L 351.72633 93.554777 
L 351.886653 81.866334 
L 351.940094 81.866334 
L 352.100418 79.866996 
L 352.367623 79.866996 
L 352.421064 80.174586 
L 352.474505 76.175908 
L 352.581387 76.329704 
L 352.688269 77.713861 
L 352.848593 77.560066 
L 353.008916 79.40561 
L 353.169239 79.40561 
L 353.22268 79.7132 
L 353.329562 78.329043 
L 353.383003 74.791751 
L 353.489886 74.945546 
L 353.543327 74.945546 
L 353.70365 75.253137 
L 353.863973 75.253137 
L 353.917414 73.407593 
L 353.970855 73.715184 
L 354.131178 74.791751 
L 354.18462 74.945546 
L 354.238061 76.022113 
L 354.291502 75.406932 
L 354.344943 75.406932 
L 354.398384 77.406271 
L 354.558707 68.486144 
L 354.612148 68.486144 
L 354.772471 68.024758 
L 355.093118 68.024758 
L 355.413764 69.25512 
L 355.574088 69.562711 
L 355.734411 68.793734 
L 355.787852 69.25512 
L 356.108498 65.871624 
L 356.21538 65.871624 
L 356.268822 61.719151 
L 356.322263 62.641922 
L 356.803232 62.641922 
L 356.856673 58.181859 
L 356.963556 58.489449 
L 357.016997 57.720473 
L 357.070438 58.79704 
L 357.123879 53.568 
L 357.17732 56.797701 
L 357.391084 63.410899 
L 357.444525 62.949513 
L 357.497966 68.94753 
L 357.604848 68.639939 
L 357.711731 68.639939 
L 357.872054 69.25512 
L 358.032377 82.32772 
L 358.139259 81.558744 
L 358.1927 81.866334 
L 358.353024 70.485483 
L 358.406465 70.485483 
L 358.566788 71.254459 
L 358.887434 71.254459 
L 359.047758 70.331687 
L 359.101199 70.331687 
L 359.15464 65.717828 
L 359.208081 67.101986 
L 359.314963 67.101986 
L 359.475286 66.33301 
L 359.528727 66.948191 
L 359.635609 65.564033 
L 359.795933 68.024758 
L 359.849374 68.332348 
L 360.063138 74.330365 
L 360.17002 75.560727 
L 360.330343 71.408254 
L 360.490667 67.717167 
L 360.597549 67.717167 
L 360.757872 65.564033 
L 360.811313 65.564033 
L 360.864754 68.332348 
L 360.918195 67.563372 
L 360.971636 67.409577 
L 361.185401 71.100664 
L 361.292283 71.100664 
L 361.452606 72.946207 
L 361.506047 72.946207 
L 361.559488 73.561388 
L 361.612929 73.100003 
L 361.66637 73.100003 
L 361.719811 74.48416 
L 361.773253 74.17657 
L 361.826694 68.793734 
L 361.880135 69.562711 
L 362.093899 69.562711 
L 362.14734 72.484821 
L 362.254222 81.712539 
L 362.307663 81.404949 
L 362.414545 80.020791 
L 362.574869 80.789767 
L 362.62831 80.789767 
L 362.788633 80.020791 
L 362.895515 80.020791 
L 362.948956 79.559405 
L 363.002397 79.866996 
L 363.109279 79.866996 
L 363.162721 79.7132 
L 363.269603 80.789767 
L 363.323044 79.7132 
L 363.483367 94.323753 
L 363.536808 94.323753 
L 363.750572 94.631344 
L 363.910896 94.631344 
L 364.071219 94.938935 
L 364.231542 89.094713 
L 364.284983 89.094713 
L 364.338424 89.402304 
L 364.552189 81.712539 
L 364.659071 81.404949 
L 364.819394 89.094713 
L 364.872835 89.094713 
L 364.979717 88.940918 
L 365.14004 88.018146 
L 365.246923 87.864351 
L 365.300364 86.941579 
L 365.460687 88.171942 
L 365.727892 88.171942 
L 365.834774 97.861045 
L 365.888215 97.70725 
L 365.941657 97.399659 
L 366.10198 100.936951 
L 366.262303 112.164008 
L 366.369185 112.164008 
L 366.422626 111.395031 
L 366.476067 111.548826 
L 366.636391 107.088763 
L 366.903596 107.088763 
L 367.063919 115.855095 
L 367.11736 115.855095 
L 367.277684 116.162685 
L 367.384566 116.162685 
L 367.544889 115.393709 
L 367.705212 115.855095 
L 367.758653 115.393709 
L 367.812094 116.316481 
L 367.865535 126.005584 
L 367.972418 125.544198 
L 368.025859 125.544198 
L 368.0793 124.313836 
L 368.239623 128.158718 
L 368.346505 120.468954 
L 368.399946 120.622749 
L 368.560269 120.622749 
L 368.61371 121.084135 
L 368.667152 120.315158 
L 368.720593 120.622749 
L 368.827475 120.622749 
L 368.987798 108.472921 
L 369.041239 108.472921 
L 369.148121 109.703283 
L 369.308444 108.16533 
L 369.57565 108.16533 
L 369.735973 106.781172 
L 369.842855 106.781172 
L 370.003178 106.627377 
L 370.110061 107.396353 
L 370.216943 106.319786 
L 370.270384 114.624732 
L 370.430707 104.012857 
L 370.537589 116.162685 
L 370.59103 115.393709 
L 370.697912 124.621427 
L 370.858236 123.083474 
L 371.018559 123.237269 
L 371.125441 123.237269 
L 371.178882 123.083474 
L 371.285764 112.010212 
L 371.339205 112.779189 
L 371.392646 112.779189 
L 371.55297 113.701961 
L 371.713293 119.238591 
L 371.820175 118.931001 
L 371.873616 110.626055 
L 371.927057 111.087441 
L 372.033939 111.548826 
L 372.194263 110.933645 
L 372.354586 102.013518 
L 372.728673 102.782495 
L 372.782114 102.628699 
L 372.835556 102.782495 
L 373.156202 102.782495 
L 373.209643 102.167313 
L 373.369966 109.241897 
L 373.53029 108.934306 
L 373.744054 108.934306 
L 373.797495 105.243219 
L 373.850936 106.319786 
L 373.957818 106.319786 
L 374.331906 102.474904 
L 374.385347 102.474904 
L 374.54567 99.552793 
L 374.759434 95.861706 
L 374.973199 95.861706 
L 375.02664 95.246525 
L 375.186963 97.861045 
L 375.347286 96.323092 
L 375.400727 96.323092 
L 375.561051 94.785139 
L 375.721374 94.785139 
L 375.774815 94.631344 
L 375.935138 81.712539 
L 375.988579 81.712539 
L 376.148902 82.02013 
L 376.202343 82.02013 
L 376.255785 80.789767 
L 376.309226 81.097358 
L 376.683313 81.097358 
L 376.843636 79.866996 
L 377.00396 82.02013 
L 377.164283 83.404287 
L 377.378047 83.404287 
L 377.591811 81.712539 
L 378.01934 81.712539 
L 378.179663 82.481516 
L 378.393428 84.63465 
L 378.446869 84.480854 
L 378.607192 79.866996 
L 378.714074 79.866996 
L 378.874397 79.559405 
L 379.034721 71.715845 
L 379.141603 71.715845 
L 379.355367 71.408254 
L 379.569131 71.408254 
L 379.622572 71.100664 
L 379.729455 80.020791 
L 379.782896 79.866996 
L 379.889778 79.866996 
L 379.943219 82.789106 
L 379.99666 82.32772 
L 380.370747 82.32772 
L 380.424189 84.63465 
L 380.47763 84.327059 
L 380.531071 84.327059 
L 380.691394 74.022774 
L 380.851717 77.252476 
L 380.905158 84.019469 
L 381.01204 83.711878 
L 381.118923 83.711878 
L 381.332687 82.635311 
L 381.386128 82.635311 
L 381.49301 80.943563 
L 381.599892 86.633989 
L 381.653333 86.326398 
L 381.706774 86.941579 
L 381.867098 86.172603 
L 381.97398 86.172603 
L 382.027421 85.865012 
L 382.187744 83.404287 
L 382.348067 93.093391 
L 382.508391 93.400982 
L 382.722155 93.400982 
L 382.882478 83.711878 
L 383.042801 83.558083 
L 383.096242 84.94224 
L 383.149684 84.63465 
L 383.203125 84.63465 
L 383.363448 83.404287 
L 383.523771 88.018146 
L 383.684094 92.170619 
L 383.790976 92.170619 
L 383.897859 90.940257 
L 384.058182 92.016824 
L 384.111623 91.094052 
L 384.165064 91.709233 
L 384.218505 91.709233 
L 384.271946 92.016824 
L 384.378828 103.397676 
L 384.432269 103.090085 
L 384.539152 103.090085 
L 384.592593 102.013518 
L 384.646034 102.474904 
L 384.699475 102.474904 
L 384.806357 102.93629 
L 384.913239 102.167313 
L 384.96668 102.474904 
L 385.127003 107.396353 
L 385.233886 104.935629 
L 385.394209 110.77985 
L 385.821737 110.77985 
L 385.982061 112.164008 
L 386.356148 114.624732 
L 386.46303 114.624732 
L 386.676795 114.009551 
L 386.890559 114.009551 
L 387.050882 113.240575 
L 387.157764 113.240575 
L 387.211205 115.239914 
L 387.371529 132.926373 
L 387.42497 132.926373 
L 387.478411 132.157396 
L 387.638734 127.543537 
L 387.745616 127.389742 
L 387.905939 127.851128 
L 388.012822 127.235947 
L 388.173145 119.699977 
L 388.280027 119.699977 
L 388.44035 119.084796 
L 388.600673 119.084796 
L 388.707556 120.161363 
L 388.867879 129.235285 
L 388.92132 129.235285 
L 389.081643 129.850467 
L 389.188525 129.696671 
L 389.241966 124.775222 
L 389.295407 125.544198 
L 389.455731 125.544198 
L 389.616054 104.781833 
L 389.776377 113.855756 
L 389.9367 113.39437 
L 390.203906 113.39437 
L 390.471111 112.010212 
L 390.684875 112.010212 
L 390.791758 116.00889 
L 390.952081 115.239914 
L 391.112404 115.239914 
L 391.326168 104.320448 
L 391.379609 104.320448 
L 391.433051 104.628038 
L 391.593374 99.091408 
L 391.753697 97.70725 
L 391.91402 97.861045 
L 391.967461 97.861045 
L 392.020902 95.09273 
L 392.074343 96.323092 
L 392.127785 96.323092 
L 392.288108 92.324414 
L 392.662195 92.324414 
L 392.715636 90.940257 
L 392.769077 91.555438 
L 392.929401 91.247847 
L 393.303488 91.247847 
L 393.463811 89.556099 
L 393.517253 90.017485 
L 393.677576 93.862367 
L 393.784458 93.862367 
L 393.944781 100.783156 
L 394.105104 100.936951 
L 394.158545 100.936951 
L 394.37231 99.706589 
L 394.692956 99.706589 
L 394.746397 99.091408 
L 394.799838 99.552793 
L 394.960162 99.860384 
L 395.173926 100.167975 
L 395.227367 99.860384 
L 395.38769 100.62936 
L 395.494572 100.62936 
L 395.548013 98.937612 
L 395.708337 104.320448 
L 395.761778 91.863029 
L 395.815219 95.246525 
L 395.86866 95.246525 
L 395.922101 92.7858 
L 395.975542 94.938935 
L 396.082424 94.938935 
L 396.135865 107.857739 
L 396.242747 107.703944 
L 396.403071 107.703944 
L 396.456512 108.934306 
L 396.616835 106.781172 
L 396.88404 106.781172 
L 396.990923 114.317142 
L 397.044364 114.163346 
L 397.097805 114.163346 
L 397.258128 116.624071 
L 397.311569 117.854434 
L 397.418451 124.313836 
L 397.739098 112.317803 
L 397.899421 112.779189 
L 397.952862 112.471598 
L 398.006303 109.088102 
L 398.113185 109.241897 
L 398.273508 112.625394 
L 398.487273 109.088102 
L 398.487273 109.088102 
" clip-path="url(#p630748a249)" style="fill: none; stroke: #1f77b4; stroke-width: 1.5; stroke-linecap: square"/>
   </g>
   <g id="patch_3">
    <path d="M 57.6 307.584 
L 57.6 41.472 
" style="fill: none; stroke: #000000; stroke-width: 0.8; stroke-linejoin: miter; stroke-linecap: square"/>
   </g>
   <g id="patch_4">
    <path d="M 414.72 307.584 
L 414.72 41.472 
" style="fill: none; stroke: #000000; stroke-width: 0.8; stroke-linejoin: miter; stroke-linecap: square"/>
   </g>
   <g id="patch_5">
    <path d="M 57.6 307.584 
L 414.72 307.584 
" style="fill: none; stroke: #000000; stroke-width: 0.8; stroke-linejoin: miter; stroke-linecap: square"/>
   </g>
   <g id="patch_6">
    <path d="M 57.6 41.472 
L 414.72 41.472 
" style="fill: none; stroke: #000000; stroke-width: 0.8; stroke-linejoin: miter; stroke-linecap: square"/>
   </g>
   <g id="text_19">
    <!-- comp12 -->
    <g transform="translate(211.90125 35.472) scale(0.12 -0.12)">
     <defs>
      <path id="DejaVuSans-63" d="M 3122 3366 
L 3122 2828 
Q 2878 2963 2633 3030 
Q 2388 3097 2138 3097 
Q 1578 3097 1268 2742 
Q 959 2388 959 1747 
Q 959 1106 1268 751 
Q 1578 397 2138 397 
Q 2388 397 2633 464 
Q 2878 531 3122 666 
L 3122 134 
Q 2881 22 2623 -34 
Q 2366 -91 2075 -91 
Q 1284 -91 818 406 
Q 353 903 353 1747 
Q 353 2603 823 3093 
Q 1294 3584 2113 3584 
Q 2378 3584 2631 3529 
Q 2884 3475 3122 3366 
z
" transform="scale(0.015625)"/>
      <path id="DejaVuSans-70" d="M 1159 525 
L 1159 -1331 
L 581 -1331 
L 581 3500 
L 1159 3500 
L 1159 2969 
Q 1341 3281 1617 3432 
Q 1894 3584 2278 3584 
Q 2916 3584 3314 3078 
Q 3713 2572 3713 1747 
Q 3713 922 3314 415 
Q 2916 -91 2278 -91 
Q 1894 -91 1617 61 
Q 1341 213 1159 525 
z
M 3116 1747 
Q 3116 2381 2855 2742 
Q 2594 3103 2138 3103 
Q 1681 3103 1420 2742 
Q 1159 2381 1159 1747 
Q 1159 1113 1420 752 
Q 1681 391 2138 391 
Q 2594 391 2855 752 
Q 3116 1113 3116 1747 
z
" transform="scale(0.015625)"/>
     </defs>
     <use xlink:href="#DejaVuSans-63"/>
     <use xlink:href="#DejaVuSans-6f" x="54.980469"/>
     <use xlink:href="#DejaVuSans-6d" x="116.162109"/>
     <use xlink:href="#DejaVuSans-70" x="213.574219"/>
     <use xlink:href="#DejaVuSans-31" x="277.050781"/>
     <use xlink:href="#DejaVuSans-32" x="340.673828"/>
    </g>
   </g>
  </g>
 </g>
 <defs>
  <clipPath id="p630748a249">
   <rect x="57.6" y="41.472" width="357.12" height="266.112"/>
  </clipPath>
 </defs>
</svg>
