<?xml version="1.0" encoding="utf-8" standalone="no"?>
<!DOCTYPE svg PUBLIC "-//W3C//DTD SVG 1.1//EN"
  "http://www.w3.org/Graphics/SVG/1.1/DTD/svg11.dtd">
<svg xmlns:xlink="http://www.w3.org/1999/xlink" width="460.8pt" height="345.6pt" viewBox="0 0 460.8 345.6" xmlns="http://www.w3.org/2000/svg" version="1.1">
 <metadata>
  <rdf:RDF xmlns:dc="http://purl.org/dc/elements/1.1/" xmlns:cc="http://creativecommons.org/ns#" xmlns:rdf="http://www.w3.org/1999/02/22-rdf-syntax-ns#">
   <cc:Work>
    <dc:type rdf:resource="http://purl.org/dc/dcmitype/StillImage"/>
    <dc:date>2023-12-03T18:15:54.185834</dc:date>
    <dc:format>image/svg+xml</dc:format>
    <dc:creator>
     <cc:Agent>
      <dc:title>Matplotlib v3.7.1, https://matplotlib.org/</dc:title>
     </cc:Agent>
    </dc:creator>
   </cc:Work>
  </rdf:RDF>
 </metadata>
 <defs>
  <style type="text/css">*{stroke-linejoin: round; stroke-linecap: butt}</style>
 </defs>
 <g id="figure_1">
  <g id="patch_1">
   <path d="M 0 345.6 
L 460.8 345.6 
L 460.8 0 
L 0 0 
z
" style="fill: #ffffff"/>
  </g>
  <g id="axes_1">
   <g id="patch_2">
    <path d="M 57.6 307.584 
L 414.72 307.584 
L 414.72 41.472 
L 57.6 41.472 
z
" style="fill: #ffffff"/>
   </g>
   <g id="matplotlib.axis_1">
    <g id="xtick_1">
     <g id="line2d_1">
      <defs>
       <path id="m3fe2e64750" d="M 0 0 
L 0 3.5 
" style="stroke: #000000; stroke-width: 0.8"/>
      </defs>
      <g>
       <use xlink:href="#m3fe2e64750" x="73.832727" y="307.584" style="stroke: #000000; stroke-width: 0.8"/>
      </g>
     </g>
     <g id="text_1">
      <!-- 0 -->
      <g transform="translate(70.651477 322.182437) scale(0.1 -0.1)">
       <defs>
        <path id="DejaVuSans-30" d="M 2034 4250 
Q 1547 4250 1301 3770 
Q 1056 3291 1056 2328 
Q 1056 1369 1301 889 
Q 1547 409 2034 409 
Q 2525 409 2770 889 
Q 3016 1369 3016 2328 
Q 3016 3291 2770 3770 
Q 2525 4250 2034 4250 
z
M 2034 4750 
Q 2819 4750 3233 4129 
Q 3647 3509 3647 2328 
Q 3647 1150 3233 529 
Q 2819 -91 2034 -91 
Q 1250 -91 836 529 
Q 422 1150 422 2328 
Q 422 3509 836 4129 
Q 1250 4750 2034 4750 
z
" transform="scale(0.015625)"/>
       </defs>
       <use xlink:href="#DejaVuSans-30"/>
      </g>
     </g>
    </g>
    <g id="xtick_2">
     <g id="line2d_2">
      <g>
       <use xlink:href="#m3fe2e64750" x="132.710955" y="307.584" style="stroke: #000000; stroke-width: 0.8"/>
      </g>
     </g>
     <g id="text_2">
      <!-- 1000 -->
      <g transform="translate(119.985955 322.182437) scale(0.1 -0.1)">
       <defs>
        <path id="DejaVuSans-31" d="M 794 531 
L 1825 531 
L 1825 4091 
L 703 3866 
L 703 4441 
L 1819 4666 
L 2450 4666 
L 2450 531 
L 3481 531 
L 3481 0 
L 794 0 
L 794 531 
z
" transform="scale(0.015625)"/>
       </defs>
       <use xlink:href="#DejaVuSans-31"/>
       <use xlink:href="#DejaVuSans-30" x="63.623047"/>
       <use xlink:href="#DejaVuSans-30" x="127.246094"/>
       <use xlink:href="#DejaVuSans-30" x="190.869141"/>
      </g>
     </g>
    </g>
    <g id="xtick_3">
     <g id="line2d_3">
      <g>
       <use xlink:href="#m3fe2e64750" x="191.589182" y="307.584" style="stroke: #000000; stroke-width: 0.8"/>
      </g>
     </g>
     <g id="text_3">
      <!-- 2000 -->
      <g transform="translate(178.864182 322.182437) scale(0.1 -0.1)">
       <defs>
        <path id="DejaVuSans-32" d="M 1228 531 
L 3431 531 
L 3431 0 
L 469 0 
L 469 531 
Q 828 903 1448 1529 
Q 2069 2156 2228 2338 
Q 2531 2678 2651 2914 
Q 2772 3150 2772 3378 
Q 2772 3750 2511 3984 
Q 2250 4219 1831 4219 
Q 1534 4219 1204 4116 
Q 875 4013 500 3803 
L 500 4441 
Q 881 4594 1212 4672 
Q 1544 4750 1819 4750 
Q 2544 4750 2975 4387 
Q 3406 4025 3406 3419 
Q 3406 3131 3298 2873 
Q 3191 2616 2906 2266 
Q 2828 2175 2409 1742 
Q 1991 1309 1228 531 
z
" transform="scale(0.015625)"/>
       </defs>
       <use xlink:href="#DejaVuSans-32"/>
       <use xlink:href="#DejaVuSans-30" x="63.623047"/>
       <use xlink:href="#DejaVuSans-30" x="127.246094"/>
       <use xlink:href="#DejaVuSans-30" x="190.869141"/>
      </g>
     </g>
    </g>
    <g id="xtick_4">
     <g id="line2d_4">
      <g>
       <use xlink:href="#m3fe2e64750" x="250.467409" y="307.584" style="stroke: #000000; stroke-width: 0.8"/>
      </g>
     </g>
     <g id="text_4">
      <!-- 3000 -->
      <g transform="translate(237.742409 322.182437) scale(0.1 -0.1)">
       <defs>
        <path id="DejaVuSans-33" d="M 2597 2516 
Q 3050 2419 3304 2112 
Q 3559 1806 3559 1356 
Q 3559 666 3084 287 
Q 2609 -91 1734 -91 
Q 1441 -91 1130 -33 
Q 819 25 488 141 
L 488 750 
Q 750 597 1062 519 
Q 1375 441 1716 441 
Q 2309 441 2620 675 
Q 2931 909 2931 1356 
Q 2931 1769 2642 2001 
Q 2353 2234 1838 2234 
L 1294 2234 
L 1294 2753 
L 1863 2753 
Q 2328 2753 2575 2939 
Q 2822 3125 2822 3475 
Q 2822 3834 2567 4026 
Q 2313 4219 1838 4219 
Q 1578 4219 1281 4162 
Q 984 4106 628 3988 
L 628 4550 
Q 988 4650 1302 4700 
Q 1616 4750 1894 4750 
Q 2613 4750 3031 4423 
Q 3450 4097 3450 3541 
Q 3450 3153 3228 2886 
Q 3006 2619 2597 2516 
z
" transform="scale(0.015625)"/>
       </defs>
       <use xlink:href="#DejaVuSans-33"/>
       <use xlink:href="#DejaVuSans-30" x="63.623047"/>
       <use xlink:href="#DejaVuSans-30" x="127.246094"/>
       <use xlink:href="#DejaVuSans-30" x="190.869141"/>
      </g>
     </g>
    </g>
    <g id="xtick_5">
     <g id="line2d_5">
      <g>
       <use xlink:href="#m3fe2e64750" x="309.345637" y="307.584" style="stroke: #000000; stroke-width: 0.8"/>
      </g>
     </g>
     <g id="text_5">
      <!-- 4000 -->
      <g transform="translate(296.620637 322.182437) scale(0.1 -0.1)">
       <defs>
        <path id="DejaVuSans-34" d="M 2419 4116 
L 825 1625 
L 2419 1625 
L 2419 4116 
z
M 2253 4666 
L 3047 4666 
L 3047 1625 
L 3713 1625 
L 3713 1100 
L 3047 1100 
L 3047 0 
L 2419 0 
L 2419 1100 
L 313 1100 
L 313 1709 
L 2253 4666 
z
" transform="scale(0.015625)"/>
       </defs>
       <use xlink:href="#DejaVuSans-34"/>
       <use xlink:href="#DejaVuSans-30" x="63.623047"/>
       <use xlink:href="#DejaVuSans-30" x="127.246094"/>
       <use xlink:href="#DejaVuSans-30" x="190.869141"/>
      </g>
     </g>
    </g>
    <g id="xtick_6">
     <g id="line2d_6">
      <g>
       <use xlink:href="#m3fe2e64750" x="368.223864" y="307.584" style="stroke: #000000; stroke-width: 0.8"/>
      </g>
     </g>
     <g id="text_6">
      <!-- 5000 -->
      <g transform="translate(355.498864 322.182437) scale(0.1 -0.1)">
       <defs>
        <path id="DejaVuSans-35" d="M 691 4666 
L 3169 4666 
L 3169 4134 
L 1269 4134 
L 1269 2991 
Q 1406 3038 1543 3061 
Q 1681 3084 1819 3084 
Q 2600 3084 3056 2656 
Q 3513 2228 3513 1497 
Q 3513 744 3044 326 
Q 2575 -91 1722 -91 
Q 1428 -91 1123 -41 
Q 819 9 494 109 
L 494 744 
Q 775 591 1075 516 
Q 1375 441 1709 441 
Q 2250 441 2565 725 
Q 2881 1009 2881 1497 
Q 2881 1984 2565 2268 
Q 2250 2553 1709 2553 
Q 1456 2553 1204 2497 
Q 953 2441 691 2322 
L 691 4666 
z
" transform="scale(0.015625)"/>
       </defs>
       <use xlink:href="#DejaVuSans-35"/>
       <use xlink:href="#DejaVuSans-30" x="63.623047"/>
       <use xlink:href="#DejaVuSans-30" x="127.246094"/>
       <use xlink:href="#DejaVuSans-30" x="190.869141"/>
      </g>
     </g>
    </g>
    <g id="text_7">
     <!-- iteration -->
     <g transform="translate(215.037344 335.860562) scale(0.1 -0.1)">
      <defs>
       <path id="DejaVuSans-69" d="M 603 3500 
L 1178 3500 
L 1178 0 
L 603 0 
L 603 3500 
z
M 603 4863 
L 1178 4863 
L 1178 4134 
L 603 4134 
L 603 4863 
z
" transform="scale(0.015625)"/>
       <path id="DejaVuSans-74" d="M 1172 4494 
L 1172 3500 
L 2356 3500 
L 2356 3053 
L 1172 3053 
L 1172 1153 
Q 1172 725 1289 603 
Q 1406 481 1766 481 
L 2356 481 
L 2356 0 
L 1766 0 
Q 1100 0 847 248 
Q 594 497 594 1153 
L 594 3053 
L 172 3053 
L 172 3500 
L 594 3500 
L 594 4494 
L 1172 4494 
z
" transform="scale(0.015625)"/>
       <path id="DejaVuSans-65" d="M 3597 1894 
L 3597 1613 
L 953 1613 
Q 991 1019 1311 708 
Q 1631 397 2203 397 
Q 2534 397 2845 478 
Q 3156 559 3463 722 
L 3463 178 
Q 3153 47 2828 -22 
Q 2503 -91 2169 -91 
Q 1331 -91 842 396 
Q 353 884 353 1716 
Q 353 2575 817 3079 
Q 1281 3584 2069 3584 
Q 2775 3584 3186 3129 
Q 3597 2675 3597 1894 
z
M 3022 2063 
Q 3016 2534 2758 2815 
Q 2500 3097 2075 3097 
Q 1594 3097 1305 2825 
Q 1016 2553 972 2059 
L 3022 2063 
z
" transform="scale(0.015625)"/>
       <path id="DejaVuSans-72" d="M 2631 2963 
Q 2534 3019 2420 3045 
Q 2306 3072 2169 3072 
Q 1681 3072 1420 2755 
Q 1159 2438 1159 1844 
L 1159 0 
L 581 0 
L 581 3500 
L 1159 3500 
L 1159 2956 
Q 1341 3275 1631 3429 
Q 1922 3584 2338 3584 
Q 2397 3584 2469 3576 
Q 2541 3569 2628 3553 
L 2631 2963 
z
" transform="scale(0.015625)"/>
       <path id="DejaVuSans-61" d="M 2194 1759 
Q 1497 1759 1228 1600 
Q 959 1441 959 1056 
Q 959 750 1161 570 
Q 1363 391 1709 391 
Q 2188 391 2477 730 
Q 2766 1069 2766 1631 
L 2766 1759 
L 2194 1759 
z
M 3341 1997 
L 3341 0 
L 2766 0 
L 2766 531 
Q 2569 213 2275 61 
Q 1981 -91 1556 -91 
Q 1019 -91 701 211 
Q 384 513 384 1019 
Q 384 1609 779 1909 
Q 1175 2209 1959 2209 
L 2766 2209 
L 2766 2266 
Q 2766 2663 2505 2880 
Q 2244 3097 1772 3097 
Q 1472 3097 1187 3025 
Q 903 2953 641 2809 
L 641 3341 
Q 956 3463 1253 3523 
Q 1550 3584 1831 3584 
Q 2591 3584 2966 3190 
Q 3341 2797 3341 1997 
z
" transform="scale(0.015625)"/>
       <path id="DejaVuSans-6f" d="M 1959 3097 
Q 1497 3097 1228 2736 
Q 959 2375 959 1747 
Q 959 1119 1226 758 
Q 1494 397 1959 397 
Q 2419 397 2687 759 
Q 2956 1122 2956 1747 
Q 2956 2369 2687 2733 
Q 2419 3097 1959 3097 
z
M 1959 3584 
Q 2709 3584 3137 3096 
Q 3566 2609 3566 1747 
Q 3566 888 3137 398 
Q 2709 -91 1959 -91 
Q 1206 -91 779 398 
Q 353 888 353 1747 
Q 353 2609 779 3096 
Q 1206 3584 1959 3584 
z
" transform="scale(0.015625)"/>
       <path id="DejaVuSans-6e" d="M 3513 2113 
L 3513 0 
L 2938 0 
L 2938 2094 
Q 2938 2591 2744 2837 
Q 2550 3084 2163 3084 
Q 1697 3084 1428 2787 
Q 1159 2491 1159 1978 
L 1159 0 
L 581 0 
L 581 3500 
L 1159 3500 
L 1159 2956 
Q 1366 3272 1645 3428 
Q 1925 3584 2291 3584 
Q 2894 3584 3203 3211 
Q 3513 2838 3513 2113 
z
" transform="scale(0.015625)"/>
      </defs>
      <use xlink:href="#DejaVuSans-69"/>
      <use xlink:href="#DejaVuSans-74" x="27.783203"/>
      <use xlink:href="#DejaVuSans-65" x="66.992188"/>
      <use xlink:href="#DejaVuSans-72" x="128.515625"/>
      <use xlink:href="#DejaVuSans-61" x="169.628906"/>
      <use xlink:href="#DejaVuSans-74" x="230.908203"/>
      <use xlink:href="#DejaVuSans-69" x="270.117188"/>
      <use xlink:href="#DejaVuSans-6f" x="297.900391"/>
      <use xlink:href="#DejaVuSans-6e" x="359.082031"/>
     </g>
    </g>
   </g>
   <g id="matplotlib.axis_2">
    <g id="ytick_1">
     <g id="line2d_7">
      <defs>
       <path id="m2f2b323bf4" d="M 0 0 
L -3.5 0 
" style="stroke: #000000; stroke-width: 0.8"/>
      </defs>
      <g>
       <use xlink:href="#m2f2b323bf4" x="57.6" y="278.080329" style="stroke: #000000; stroke-width: 0.8"/>
      </g>
     </g>
     <g id="text_8">
      <!-- 500 -->
      <g transform="translate(31.5125 281.879548) scale(0.1 -0.1)">
       <use xlink:href="#DejaVuSans-35"/>
       <use xlink:href="#DejaVuSans-30" x="63.623047"/>
       <use xlink:href="#DejaVuSans-30" x="127.246094"/>
      </g>
     </g>
    </g>
    <g id="ytick_2">
     <g id="line2d_8">
      <g>
       <use xlink:href="#m2f2b323bf4" x="57.6" y="239.22392" style="stroke: #000000; stroke-width: 0.8"/>
      </g>
     </g>
     <g id="text_9">
      <!-- 1000 -->
      <g transform="translate(25.15 243.023139) scale(0.1 -0.1)">
       <use xlink:href="#DejaVuSans-31"/>
       <use xlink:href="#DejaVuSans-30" x="63.623047"/>
       <use xlink:href="#DejaVuSans-30" x="127.246094"/>
       <use xlink:href="#DejaVuSans-30" x="190.869141"/>
      </g>
     </g>
    </g>
    <g id="ytick_3">
     <g id="line2d_9">
      <g>
       <use xlink:href="#m2f2b323bf4" x="57.6" y="200.367512" style="stroke: #000000; stroke-width: 0.8"/>
      </g>
     </g>
     <g id="text_10">
      <!-- 1500 -->
      <g transform="translate(25.15 204.16673) scale(0.1 -0.1)">
       <use xlink:href="#DejaVuSans-31"/>
       <use xlink:href="#DejaVuSans-35" x="63.623047"/>
       <use xlink:href="#DejaVuSans-30" x="127.246094"/>
       <use xlink:href="#DejaVuSans-30" x="190.869141"/>
      </g>
     </g>
    </g>
    <g id="ytick_4">
     <g id="line2d_10">
      <g>
       <use xlink:href="#m2f2b323bf4" x="57.6" y="161.511103" style="stroke: #000000; stroke-width: 0.8"/>
      </g>
     </g>
     <g id="text_11">
      <!-- 2000 -->
      <g transform="translate(25.15 165.310322) scale(0.1 -0.1)">
       <use xlink:href="#DejaVuSans-32"/>
       <use xlink:href="#DejaVuSans-30" x="63.623047"/>
       <use xlink:href="#DejaVuSans-30" x="127.246094"/>
       <use xlink:href="#DejaVuSans-30" x="190.869141"/>
      </g>
     </g>
    </g>
    <g id="ytick_5">
     <g id="line2d_11">
      <g>
       <use xlink:href="#m2f2b323bf4" x="57.6" y="122.654695" style="stroke: #000000; stroke-width: 0.8"/>
      </g>
     </g>
     <g id="text_12">
      <!-- 2500 -->
      <g transform="translate(25.15 126.453913) scale(0.1 -0.1)">
       <use xlink:href="#DejaVuSans-32"/>
       <use xlink:href="#DejaVuSans-35" x="63.623047"/>
       <use xlink:href="#DejaVuSans-30" x="127.246094"/>
       <use xlink:href="#DejaVuSans-30" x="190.869141"/>
      </g>
     </g>
    </g>
    <g id="ytick_6">
     <g id="line2d_12">
      <g>
       <use xlink:href="#m2f2b323bf4" x="57.6" y="83.798286" style="stroke: #000000; stroke-width: 0.8"/>
      </g>
     </g>
     <g id="text_13">
      <!-- 3000 -->
      <g transform="translate(25.15 87.597505) scale(0.1 -0.1)">
       <use xlink:href="#DejaVuSans-33"/>
       <use xlink:href="#DejaVuSans-30" x="63.623047"/>
       <use xlink:href="#DejaVuSans-30" x="127.246094"/>
       <use xlink:href="#DejaVuSans-30" x="190.869141"/>
      </g>
     </g>
    </g>
    <g id="ytick_7">
     <g id="line2d_13">
      <g>
       <use xlink:href="#m2f2b323bf4" x="57.6" y="44.941877" style="stroke: #000000; stroke-width: 0.8"/>
      </g>
     </g>
     <g id="text_14">
      <!-- 3500 -->
      <g transform="translate(25.15 48.741096) scale(0.1 -0.1)">
       <use xlink:href="#DejaVuSans-33"/>
       <use xlink:href="#DejaVuSans-35" x="63.623047"/>
       <use xlink:href="#DejaVuSans-30" x="127.246094"/>
       <use xlink:href="#DejaVuSans-30" x="190.869141"/>
      </g>
     </g>
    </g>
    <g id="text_15">
     <!-- best fitness of swarm -->
     <g transform="translate(19.070312 228.0905) rotate(-90) scale(0.1 -0.1)">
      <defs>
       <path id="DejaVuSans-62" d="M 3116 1747 
Q 3116 2381 2855 2742 
Q 2594 3103 2138 3103 
Q 1681 3103 1420 2742 
Q 1159 2381 1159 1747 
Q 1159 1113 1420 752 
Q 1681 391 2138 391 
Q 2594 391 2855 752 
Q 3116 1113 3116 1747 
z
M 1159 2969 
Q 1341 3281 1617 3432 
Q 1894 3584 2278 3584 
Q 2916 3584 3314 3078 
Q 3713 2572 3713 1747 
Q 3713 922 3314 415 
Q 2916 -91 2278 -91 
Q 1894 -91 1617 61 
Q 1341 213 1159 525 
L 1159 0 
L 581 0 
L 581 4863 
L 1159 4863 
L 1159 2969 
z
" transform="scale(0.015625)"/>
       <path id="DejaVuSans-73" d="M 2834 3397 
L 2834 2853 
Q 2591 2978 2328 3040 
Q 2066 3103 1784 3103 
Q 1356 3103 1142 2972 
Q 928 2841 928 2578 
Q 928 2378 1081 2264 
Q 1234 2150 1697 2047 
L 1894 2003 
Q 2506 1872 2764 1633 
Q 3022 1394 3022 966 
Q 3022 478 2636 193 
Q 2250 -91 1575 -91 
Q 1294 -91 989 -36 
Q 684 19 347 128 
L 347 722 
Q 666 556 975 473 
Q 1284 391 1588 391 
Q 1994 391 2212 530 
Q 2431 669 2431 922 
Q 2431 1156 2273 1281 
Q 2116 1406 1581 1522 
L 1381 1569 
Q 847 1681 609 1914 
Q 372 2147 372 2553 
Q 372 3047 722 3315 
Q 1072 3584 1716 3584 
Q 2034 3584 2315 3537 
Q 2597 3491 2834 3397 
z
" transform="scale(0.015625)"/>
       <path id="DejaVuSans-20" transform="scale(0.015625)"/>
       <path id="DejaVuSans-66" d="M 2375 4863 
L 2375 4384 
L 1825 4384 
Q 1516 4384 1395 4259 
Q 1275 4134 1275 3809 
L 1275 3500 
L 2222 3500 
L 2222 3053 
L 1275 3053 
L 1275 0 
L 697 0 
L 697 3053 
L 147 3053 
L 147 3500 
L 697 3500 
L 697 3744 
Q 697 4328 969 4595 
Q 1241 4863 1831 4863 
L 2375 4863 
z
" transform="scale(0.015625)"/>
       <path id="DejaVuSans-77" d="M 269 3500 
L 844 3500 
L 1563 769 
L 2278 3500 
L 2956 3500 
L 3675 769 
L 4391 3500 
L 4966 3500 
L 4050 0 
L 3372 0 
L 2619 2869 
L 1863 0 
L 1184 0 
L 269 3500 
z
" transform="scale(0.015625)"/>
       <path id="DejaVuSans-6d" d="M 3328 2828 
Q 3544 3216 3844 3400 
Q 4144 3584 4550 3584 
Q 5097 3584 5394 3201 
Q 5691 2819 5691 2113 
L 5691 0 
L 5113 0 
L 5113 2094 
Q 5113 2597 4934 2840 
Q 4756 3084 4391 3084 
Q 3944 3084 3684 2787 
Q 3425 2491 3425 1978 
L 3425 0 
L 2847 0 
L 2847 2094 
Q 2847 2600 2669 2842 
Q 2491 3084 2119 3084 
Q 1678 3084 1418 2786 
Q 1159 2488 1159 1978 
L 1159 0 
L 581 0 
L 581 3500 
L 1159 3500 
L 1159 2956 
Q 1356 3278 1631 3431 
Q 1906 3584 2284 3584 
Q 2666 3584 2933 3390 
Q 3200 3197 3328 2828 
z
" transform="scale(0.015625)"/>
      </defs>
      <use xlink:href="#DejaVuSans-62"/>
      <use xlink:href="#DejaVuSans-65" x="63.476562"/>
      <use xlink:href="#DejaVuSans-73" x="125"/>
      <use xlink:href="#DejaVuSans-74" x="177.099609"/>
      <use xlink:href="#DejaVuSans-20" x="216.308594"/>
      <use xlink:href="#DejaVuSans-66" x="248.095703"/>
      <use xlink:href="#DejaVuSans-69" x="283.300781"/>
      <use xlink:href="#DejaVuSans-74" x="311.083984"/>
      <use xlink:href="#DejaVuSans-6e" x="350.292969"/>
      <use xlink:href="#DejaVuSans-65" x="413.671875"/>
      <use xlink:href="#DejaVuSans-73" x="475.195312"/>
      <use xlink:href="#DejaVuSans-73" x="527.294922"/>
      <use xlink:href="#DejaVuSans-20" x="579.394531"/>
      <use xlink:href="#DejaVuSans-6f" x="611.181641"/>
      <use xlink:href="#DejaVuSans-66" x="672.363281"/>
      <use xlink:href="#DejaVuSans-20" x="707.568359"/>
      <use xlink:href="#DejaVuSans-73" x="739.355469"/>
      <use xlink:href="#DejaVuSans-77" x="791.455078"/>
      <use xlink:href="#DejaVuSans-61" x="873.242188"/>
      <use xlink:href="#DejaVuSans-72" x="934.521484"/>
      <use xlink:href="#DejaVuSans-6d" x="973.884766"/>
     </g>
    </g>
   </g>
   <g id="line2d_14">
    <path d="M 73.832727 295.488 
L 73.891606 295.410287 
L 74.06824 294.710872 
L 74.244875 291.680072 
L 74.42151 291.291508 
L 74.539266 291.369221 
L 74.715901 290.747518 
L 74.833657 290.747518 
L 75.245805 289.892677 
L 75.304683 289.892677 
L 75.363561 290.281241 
L 75.481318 281.810544 
L 75.540196 281.344267 
L 75.657952 272.32958 
L 75.716831 272.32958 
L 75.834587 274.816391 
L 75.952343 274.039262 
L 76.011222 273.96155 
L 76.187856 269.065642 
L 76.305613 269.065642 
L 76.482248 260.828084 
L 76.541126 260.828084 
L 76.658882 261.372073 
L 76.894395 261.216648 
L 77.129908 261.216648 
L 77.306543 250.880843 
L 77.424299 251.191694 
L 77.483177 251.191694 
L 77.600934 248.86031 
L 77.659812 248.86031 
L 77.71869 252.823663 
L 77.777569 252.668238 
L 77.836447 252.668238 
L 77.954203 251.735684 
L 78.130838 251.657971 
L 78.189716 251.657971 
L 78.248594 251.813397 
L 78.366351 251.424833 
L 78.425229 251.424833 
L 78.542985 250.647704 
L 78.601864 251.113981 
L 79.07289 239.379346 
L 79.131768 239.379346 
L 79.190646 239.534772 
L 79.308402 237.125674 
L 79.485037 237.125674 
L 79.543915 237.436526 
L 79.602794 236.348546 
L 79.661672 239.845623 
L 79.838306 225.080188 
L 79.956063 224.147634 
L 80.073819 225.624177 
L 80.132698 225.624177 
L 80.309332 222.826516 
L 80.427089 225.002475 
L 80.485967 225.002475 
L 80.544845 225.1579 
L 80.72148 214.822096 
L 80.898115 214.511244 
L 81.074749 214.66667 
L 81.192506 214.12268 
L 81.310262 214.278106 
L 81.428019 211.014168 
L 81.545775 211.091881 
L 81.663532 208.60507 
L 81.72241 212.956988 
L 81.781288 210.936455 
L 81.899044 211.558157 
L 81.957923 211.558157 
L 82.075679 208.760496 
L 82.252314 210.392465 
L 82.311192 210.314752 
L 82.37007 210.081614 
L 82.428948 210.23704 
L 82.546705 212.024434 
L 82.605583 204.253153 
L 82.664461 204.330865 
L 82.782218 203.786876 
L 82.899974 204.020014 
L 82.958853 204.020014 
L 83.076609 198.813255 
L 83.135487 199.279532 
L 83.253244 207.827942 
L 83.429878 198.890968 
L 83.488757 199.512671 
L 83.547635 201.377778 
L 83.606513 200.756076 
L 83.665391 200.756076 
L 83.783148 200.289799 
L 83.842026 200.911501 
L 83.959782 198.502404 
L 84.018661 199.124107 
L 84.254174 207.283952 
L 84.37193 207.283952 
L 84.607443 206.739963 
L 84.666321 206.66225 
L 84.784078 207.750229 
L 84.901834 202.854322 
L 84.960712 202.854322 
L 85.078469 203.242886 
L 85.137347 206.195973 
L 85.255103 200.911501 
L 85.313982 200.911501 
L 85.431738 200.212086 
L 85.549495 197.647563 
L 85.608373 197.802989 
L 85.667251 197.958414 
L 85.726129 197.880702 
L 85.785007 197.880702 
L 85.961642 197.725276 
L 86.02052 191.974527 
L 86.079399 192.518517 
L 86.138277 192.673943 
L 86.197155 191.974527 
L 86.314911 187.544897 
L 86.37379 187.544897 
L 86.491546 188.088887 
L 86.550424 188.088887 
L 86.668181 187.156333 
L 86.785937 192.59623 
L 86.962572 192.59623 
L 87.080328 191.741389 
L 87.139207 191.741389 
L 87.256963 192.129953 
L 87.37472 191.041974 
L 87.433598 191.041974 
L 87.492476 188.011174 
L 87.551354 188.088887 
L 87.669111 188.866015 
L 87.727989 188.244312 
L 87.904624 191.275112 
L 87.963502 191.275112 
L 88.140137 181.250159 
L 88.199015 181.250159 
L 88.316771 181.094733 
L 88.434528 181.327872 
L 88.493406 181.327872 
L 88.552284 181.483297 
L 88.728919 185.213512 
L 88.787797 185.291225 
L 88.905553 184.436384 
L 88.964432 184.436384 
L 89.082188 185.058087 
L 89.141066 185.058087 
L 89.317701 187.778035 
L 89.553214 186.301492 
L 89.67097 187.07862 
L 89.729849 186.53463 
L 89.788727 184.436384 
L 89.847605 184.824948 
L 89.965362 185.524364 
L 90.02424 185.524364 
L 90.083118 181.483297 
L 90.141996 191.041974 
L 90.200874 186.845482 
L 90.318631 186.845482 
L 90.495266 187.467184 
L 90.554144 187.156333 
L 90.6719 192.751656 
L 90.730779 191.430538 
L 90.789657 183.736969 
L 90.848535 183.814682 
L 91.02517 182.882128 
L 91.084048 182.882128 
L 91.142926 186.612343 
L 91.201804 186.456917 
L 91.260683 186.456917 
L 91.437317 185.446651 
L 91.555074 185.446651 
L 91.613952 177.98622 
L 91.67283 178.063933 
L 91.790587 178.918774 
L 92.0261 171.302918 
L 92.084978 171.147492 
L 92.261612 176.665102 
L 92.320491 176.58739 
L 92.379369 176.58739 
L 92.497125 176.898241 
L 92.556004 176.898241 
L 92.67376 177.675369 
L 92.732638 177.753082 
L 92.850395 177.442231 
L 92.909273 177.442231 
L 93.027029 183.037553 
L 93.144786 182.027287 
L 93.203664 186.146066 
L 93.321421 180.239892 
L 93.380299 180.239892 
L 93.556933 183.50383 
L 93.615812 183.50383 
L 93.733568 186.690056 
L 93.792446 186.612343 
L 93.851325 187.389471 
L 93.969081 189.876281 
L 94.145716 183.115266 
L 94.204594 183.115266 
L 94.263472 187.156333 
L 94.381229 179.929041 
L 94.498985 179.929041 
L 94.616742 180.317605 
L 94.793376 179.929041 
L 94.852254 175.188559 
L 94.911133 175.266272 
L 94.970011 175.654836 
L 95.146646 171.458344 
L 95.205524 171.846908 
L 95.558793 169.282385 
L 95.617671 169.282385 
L 95.67655 168.893821 
L 95.794306 172.779462 
L 95.853184 172.779462 
L 95.970941 178.841061 
L 96.32421 168.349831 
L 96.383088 168.660682 
L 96.441967 168.582969 
L 96.500845 168.582969 
L 96.559723 169.904087 
L 96.618601 169.826375 
L 96.736358 164.852754 
L 96.795236 164.852754 
L 96.912992 164.46419 
L 96.971871 166.018447 
L 97.030749 165.163606 
L 97.089627 165.163606 
L 97.148505 169.126959 
L 97.207384 168.971534 
L 97.32514 168.971534 
L 97.501775 170.059513 
L 97.619531 166.951 
L 97.796166 166.873288 
L 97.855044 166.484723 
L 97.9728 174.178292 
L 98.031679 174.256005 
L 98.32607 173.478877 
L 98.620461 173.478877 
L 98.738217 169.904087 
L 99.032609 172.779462 
L 99.150365 172.546323 
L 99.209243 170.370364 
L 99.268121 170.681216 
L 99.385878 170.681216 
L 99.503634 171.458344 
L 99.621391 168.427544 
L 99.680269 168.349831 
L 99.739147 170.836641 
L 99.856904 165.085893 
L 99.97466 165.085893 
L 100.033538 164.930467 
L 100.092417 165.319031 
L 100.269051 164.541903 
L 100.32793 164.697329 
L 100.386808 164.541903 
L 100.445686 164.541903 
L 100.563442 163.687062 
L 100.681199 163.687062 
L 100.740077 163.9202 
L 100.798955 163.842488 
L 100.857834 163.842488 
L 100.916712 164.075626 
L 101.034468 171.225205 
L 101.093347 171.225205 
L 101.211103 171.846908 
L 101.269981 171.846908 
L 101.328859 166.251585 
L 101.387738 166.951 
L 101.446616 166.951 
L 101.505494 170.681216 
L 101.564372 170.370364 
L 101.741007 170.292651 
L 101.917642 173.0126 
L 101.97652 173.0126 
L 102.094276 172.624036 
L 102.270911 168.272118 
L 102.329789 168.116693 
L 102.388668 168.272118 
L 102.506424 164.697329 
L 102.683059 165.629882 
L 102.741937 165.629882 
L 102.859693 161.821954 
L 102.97745 162.52137 
L 103.095206 159.723708 
L 103.212963 159.412857 
L 103.507354 159.412857 
L 103.62511 164.46419 
L 103.683989 164.46419 
L 103.742867 164.619616 
L 103.860623 167.184139 
L 103.919501 167.184139 
L 104.037258 166.717862 
L 104.155014 166.795575 
L 104.272771 166.640149 
L 104.449405 167.028713 
L 104.567162 167.028713 
L 104.684918 171.846908 
L 104.802675 171.846908 
L 104.861553 171.380631 
L 104.97931 167.339564 
L 105.155944 167.028713 
L 105.273701 167.49499 
L 105.391457 167.49499 
L 105.509214 158.169452 
L 105.744726 158.169452 
L 105.862483 161.97738 
L 105.921361 162.055093 
L 106.097996 161.277965 
L 106.156874 165.707595 
L 106.215752 162.443657 
L 106.333509 159.956847 
L 106.392387 159.956847 
L 106.510143 160.345411 
L 106.6279 160.345411 
L 106.745656 163.997913 
L 106.863413 163.9202 
L 106.922291 163.143072 
L 107.040047 168.505257 
L 107.098926 168.349831 
L 107.216682 168.349831 
L 107.27556 165.396744 
L 107.334439 166.096159 
L 107.393317 166.096159 
L 107.511073 169.049246 
L 107.62883 169.049246 
L 107.805464 185.058087 
L 107.864343 185.058087 
L 107.923221 183.192979 
L 107.982099 183.659256 
L 108.040977 183.659256 
L 108.27649 192.673943 
L 108.453125 188.866015 
L 108.62976 176.975954 
L 108.747516 176.975954 
L 108.806394 177.131379 
L 108.865273 177.053667 
L 108.983029 176.975954 
L 109.100785 177.131379 
L 109.218542 174.877708 
L 109.27742 174.799995 
L 109.454055 178.918774 
L 109.571811 178.918774 
L 109.630689 179.307338 
L 109.748446 178.763349 
L 109.807324 178.763349 
L 109.866202 179.0742 
L 110.160594 172.235472 
L 110.27835 162.443657 
L 110.454985 161.899667 
L 110.513863 162.288231 
L 110.749376 157.547749 
L 111.27928 157.470037 
L 111.397036 158.091739 
L 111.455915 157.625462 
L 111.573671 155.993493 
L 111.691427 156.382057 
L 111.809184 156.382057 
L 111.868062 156.226632 
L 112.044697 157.236898 
L 112.162453 153.895247 
L 112.28021 154.283811 
L 112.339088 159.645996 
L 112.456844 154.672375 
L 112.574601 154.594662 
L 112.751236 160.03456 
L 112.92787 159.179719 
L 113.104505 163.997913 
L 113.163383 165.319031 
L 113.222261 165.241318 
L 113.28114 165.241318 
L 113.398896 165.707595 
L 113.575531 164.386477 
L 113.634409 164.46419 
L 113.752165 163.9202 
L 113.811044 165.241318 
L 113.869922 164.231052 
L 114.164313 165.00818 
L 114.458704 156.304344 
L 114.635339 156.304344 
L 114.753095 153.97296 
L 114.870852 153.97296 
L 114.92973 153.584396 
L 115.341878 137.031566 
L 115.459634 129.260284 
L 115.57739 134.311617 
L 115.695147 133.534489 
L 115.754025 133.534489 
L 115.812903 134.38933 
L 115.871782 134.311617 
L 115.989538 134.311617 
L 116.107294 137.031566 
L 116.166173 137.264704 
L 116.283929 140.45093 
L 116.460564 140.45093 
L 116.57832 146.046252 
L 116.637199 145.96854 
L 116.754955 146.123965 
L 116.872711 138.663535 
L 116.93159 139.052099 
L 116.990468 138.741248 
L 117.049346 138.81896 
L 117.108224 139.285237 
L 117.167103 139.052099 
L 117.284859 147.522796 
L 117.402615 147.678222 
L 117.461494 148.45535 
L 117.57925 157.081473 
L 117.638128 157.081473 
L 117.814763 153.351257 
L 117.991398 150.165032 
L 118.168032 150.165032 
L 118.226911 149.854181 
L 118.285789 144.802847 
L 118.344667 147.833647 
L 118.462424 147.755934 
L 118.639058 148.610775 
L 118.697936 148.843914 
L 118.815693 154.361524 
L 118.874571 154.361524 
L 118.992328 148.766201 
L 119.227841 149.077052 
L 119.286719 148.99934 
L 119.345597 148.921627 
L 119.463353 148.610775 
L 119.639988 148.843914 
L 119.698866 148.144499 
L 119.875501 160.889401 
L 120.052136 159.49057 
L 120.22877 159.49057 
L 120.346527 158.791155 
L 120.405405 152.807268 
L 120.464283 153.195832 
L 120.523162 152.418704 
L 120.58204 154.283811 
L 120.640918 154.206098 
L 120.876431 154.128385 
L 120.994187 144.491996 
L 121.053066 144.336571 
L 121.170822 143.248591 
L 121.2297 143.248591 
L 121.347457 144.103432 
L 121.406335 143.792581 
L 121.465213 143.015453 
L 121.58297 143.714868 
L 121.641848 143.714868 
L 121.818483 142.93774 
L 121.877361 142.93774 
L 121.995117 143.48173 
L 122.23063 154.594662 
L 122.407265 154.594662 
L 122.466143 154.827801 
L 122.583899 151.641575 
L 122.642778 151.48615 
L 122.760534 151.719288 
L 122.819412 151.641575 
L 122.937169 154.750088 
L 122.996047 154.750088 
L 123.113804 155.138652 
L 123.172682 154.594662 
L 123.23156 154.827801 
L 123.349316 159.102006 
L 123.467073 158.791155 
L 123.525951 158.791155 
L 123.643708 161.43339 
L 123.761464 155.294078 
L 123.87922 154.827801 
L 123.996977 152.729555 
L 124.114733 155.449503 
L 124.173612 155.449503 
L 124.291368 154.983226 
L 124.409125 155.216365 
L 124.526881 148.921627 
L 124.644637 149.465616 
L 124.703516 154.128385 
L 124.762394 153.42897 
L 124.821272 153.42897 
L 124.88015 152.962693 
L 124.939029 154.905514 
L 125.056785 147.755934 
L 125.115663 147.755934 
L 125.23342 147.36737 
L 125.351176 150.94216 
L 125.410054 150.94216 
L 125.468933 151.330724 
L 125.586689 148.222211 
L 125.645567 148.222211 
L 125.704446 148.377637 
L 125.763324 138.197258 
L 125.822202 138.274971 
L 125.939958 137.730981 
L 125.998837 137.730981 
L 126.057715 143.870294 
L 126.116593 141.694335 
L 126.175471 141.694335 
L 126.23435 141.461196 
L 126.293228 136.254438 
L 126.352106 136.643002 
L 126.469862 138.585822 
L 126.587619 138.585822 
L 126.646497 138.197258 
L 126.705375 145.579976 
L 126.764254 143.714868 
L 126.823132 144.181145 
L 126.999767 133.223638 
L 127.117523 129.726561 
L 127.235279 131.513956 
L 127.647427 131.513956 
L 127.88294 123.664961 
L 128.059575 124.364376 
L 128.118453 124.364376 
L 128.177331 124.597515 
L 128.236209 124.364376 
L 128.295088 124.752941 
L 128.353966 116.593095 
L 128.412844 118.535915 
L 128.471722 118.535915 
L 128.589479 110.220644 
L 128.824992 110.142931 
L 128.942748 110.065218 
L 129.060505 110.842346 
L 129.237139 110.920059 
L 129.354896 110.142931 
L 129.472652 112.707454 
L 129.649287 112.396603 
L 129.708165 112.707454 
L 129.767043 112.629741 
L 129.825921 112.629741 
L 129.943678 117.137084 
L 130.061434 117.214797 
L 130.120313 120.012459 
L 130.179191 119.623895 
L 130.238069 119.623895 
L 130.355826 122.732407 
L 130.414704 122.576982 
L 130.650217 106.179577 
L 130.767973 107.966972 
L 130.944608 115.34969 
L 131.180121 115.738254 
L 131.238999 111.23091 
L 131.297877 112.008039 
L 131.356755 112.008039 
L 131.474512 111.23091 
L 131.53339 112.707454 
L 131.592268 112.241177 
L 131.651147 112.241177 
L 131.710025 112.085751 
L 131.827781 116.282243 
L 131.886659 116.126818 
L 131.945538 124.208951 
L 132.004416 124.131238 
L 132.063294 124.131238 
L 132.239929 128.560869 
L 132.357685 128.32773 
L 132.475442 130.81454 
L 132.53432 130.81454 
L 132.710955 131.980233 
L 132.769833 132.368797 
L 132.887589 136.099012 
L 132.946468 136.099012 
L 133.005346 133.223638 
L 133.064224 135.632735 
L 133.123102 135.943586 
L 133.299737 133.456776 
L 133.417493 134.000766 
L 133.476372 133.612202 
L 133.653006 129.104858 
L 133.711884 128.638581 
L 133.770763 128.716294 
L 133.829641 129.959699 
L 133.947397 134.311617 
L 134.006276 134.311617 
L 134.124032 144.647422 
L 134.241789 144.414283 
L 134.359545 140.994919 
L 134.418423 140.994919 
L 134.53618 141.228058 
L 134.595058 140.295504 
L 134.653936 140.528642 
L 134.712814 140.528642 
L 134.830571 140.217791 
L 134.889449 140.606355 
L 135.007205 137.808694 
L 135.124962 142.860027 
L 135.301597 127.239751 
L 135.360475 127.239751 
L 135.478231 123.975812 
L 135.772622 123.975812 
L 135.831501 120.634161 
L 135.890379 121.100438 
L 135.949257 121.100438 
L 136.067014 122.032992 
L 136.125892 121.799854 
L 136.18477 121.489002 
L 136.361405 123.198684 
L 136.420283 123.198684 
L 136.479161 114.339423 
L 136.538039 114.417136 
L 136.596918 114.417136 
L 136.655796 111.930326 
L 136.714674 112.008039 
L 136.891309 111.930326 
L 136.950187 111.7749 
L 137.009065 108.977239 
L 137.126822 116.981659 
L 137.244578 116.593095 
L 137.303456 112.31889 
L 137.362335 113.018305 
L 137.480091 112.86288 
L 137.538969 112.940592 
L 137.597847 112.940592 
L 137.715604 112.707454 
L 137.892239 112.785167 
L 138.009995 112.085751 
L 138.068873 112.707454 
L 138.18663 108.7441 
L 138.245508 112.940592 
L 138.304386 112.785167 
L 138.481021 112.785167 
L 138.598777 116.282243 
L 138.657656 116.282243 
L 138.716534 115.971392 
L 138.83429 117.991925 
L 138.893168 117.525649 
L 139.010925 115.582828 
L 139.069803 116.049105 
L 139.246438 122.188418 
L 139.305316 122.110705 
L 139.423073 126.618048 
L 139.481951 125.918633 
L 139.540829 132.835074 
L 139.599707 131.90252 
L 139.83522 122.81012 
L 139.952977 122.576982 
L 140.011855 122.732407 
L 140.129611 119.390756 
L 140.247368 119.390756 
L 140.365124 114.727987 
L 140.424002 115.116551 
L 140.541759 120.478736 
L 140.659515 116.359956 
L 140.718394 116.593095 
L 140.895028 106.645854 
L 140.953906 106.645854 
L 141.012785 103.459629 
L 141.130541 109.132664 
L 141.189419 109.443516 
L 141.248298 109.28809 
L 141.424932 108.666387 
L 141.542689 103.848193 
L 141.660445 112.629741 
L 141.778202 119.701607 
L 141.954836 119.701607 
L 142.013715 120.32331 
L 142.072593 119.623895 
L 142.131471 114.417136 
L 142.190349 114.494849 
L 142.249227 114.26171 
L 142.308106 108.433249 
L 142.366984 108.510962 
L 142.425862 108.510962 
L 142.602497 109.443516 
L 142.661375 109.443516 
L 142.779131 106.878993 
L 142.955766 106.878993 
L 143.014644 106.490429 
L 143.132401 98.408296 
L 143.191279 102.138511 
L 143.250157 101.594521 
L 143.367914 101.594521 
L 143.426792 101.050531 
L 143.48567 114.339423 
L 143.544548 113.251444 
L 143.603427 113.096018 
L 143.721183 118.302777 
L 143.780061 118.069638 
L 143.83894 118.225064 
L 143.956696 121.100438 
L 144.015574 120.945013 
L 144.192209 112.785167 
L 144.309965 112.241177 
L 144.4866 113.640008 
L 144.663235 118.535915 
L 144.780991 118.069638 
L 144.898748 116.593095 
L 145.016504 116.903946 
L 145.134261 116.282243 
L 145.193139 116.670808 
L 145.252017 116.593095 
L 145.310895 116.593095 
L 145.428652 117.525649 
L 145.48753 117.525649 
L 145.723043 118.613628 
L 145.781921 118.458202 
L 145.958556 117.991925 
L 146.017434 114.883413 
L 146.076312 115.038838 
L 146.13519 115.038838 
L 146.252947 115.271977 
L 146.311825 115.271977 
L 146.370703 115.038838 
L 146.547338 108.200111 
L 146.665094 112.085751 
L 146.723973 111.852613 
L 146.782851 101.594521 
L 146.841729 102.993352 
L 147.13612 111.464049 
L 147.253877 112.085751 
L 147.312755 109.83208 
L 147.371633 114.417136 
L 147.430511 114.339423 
L 147.48939 114.339423 
L 147.842659 116.126818 
L 148.078172 116.204531 
L 148.195928 110.764633 
L 148.313685 117.914213 
L 148.372563 117.603361 
L 148.49032 118.458202 
L 148.666954 117.525649 
L 148.902467 118.769054 
L 149.13798 118.458202 
L 149.196858 118.769054 
L 149.314615 114.650274 
L 149.373493 114.650274 
L 149.844519 113.640008 
L 149.962275 115.660541 
L 150.197788 116.126818 
L 150.374423 110.920059 
L 150.433301 111.075485 
L 150.492179 111.075485 
L 150.668814 110.220644 
L 150.845449 110.142931 
L 150.963205 104.858459 
L 151.080962 108.122398 
L 151.198718 108.122398 
L 151.316474 107.189844 
L 151.434231 107.966972 
L 151.610866 97.475742 
L 151.7875 96.465475 
L 151.964135 106.101864 
L 152.081891 109.987505 
L 152.14077 109.987505 
L 152.199648 110.220644 
L 152.317404 118.302777 
L 152.494039 118.302777 
L 152.611795 122.732407 
L 152.78843 119.857033 
L 152.965065 115.893679 
L 153.082821 115.893679 
L 153.200578 116.204531 
L 153.318334 120.090172 
L 153.377212 120.090172 
L 153.436091 127.006612 
L 153.494969 124.675228 
L 153.671604 124.675228 
L 153.848238 107.500695 
L 153.965995 100.895106 
L 154.024873 101.516808 
L 154.083751 101.516808 
L 154.260386 99.962552 
L 154.378142 102.760213 
L 154.672533 94.67808 
L 154.731412 94.67808 
L 154.79029 95.532921 
L 154.966925 99.263137 
L 155.025803 95.921485 
L 155.084681 100.19569 
L 155.143559 99.651701 
L 155.202437 99.651701 
L 155.320194 103.615054 
L 155.379072 102.6825 
L 155.43795 103.071065 
L 155.496829 103.071065 
L 155.555707 103.304203 
L 155.732341 109.132664 
L 155.850098 109.676654 
L 155.908976 109.676654 
L 156.085611 109.054951 
L 156.262246 109.054951 
L 156.380002 100.73968 
L 156.615515 100.506542 
L 156.674393 100.584254 
L 156.851028 104.547608 
L 156.909906 105.013885 
L 157.027662 104.31447 
L 157.086541 105.013885 
L 157.145419 104.547608 
L 157.322054 96.076911 
L 157.380932 95.999198 
L 157.498688 96.620901 
L 157.616445 96.620901 
L 157.793079 107.034418 
L 157.851958 99.418562 
L 157.910836 99.573988 
L 158.087471 99.651701 
L 158.146349 99.263137 
L 158.264105 100.428829 
L 158.381862 100.428829 
L 158.558496 100.972819 
L 158.676253 100.972819 
L 158.911766 101.983085 
L 158.970644 101.983085 
L 159.0884 100.19569 
L 159.147279 100.19569 
L 159.265035 95.76606 
L 159.323913 100.19569 
L 159.382792 100.117978 
L 159.44167 100.584254 
L 159.500548 102.449362 
L 159.559426 102.371649 
L 159.677183 102.371649 
L 159.736061 102.216224 
L 159.794939 108.355536 
L 159.853817 108.044685 
L 159.912696 108.044685 
L 159.971574 107.112131 
L 160.148209 109.987505 
L 160.265965 105.868726 
L 160.324843 105.7133 
L 160.501478 116.670808 
L 160.560356 116.670808 
L 160.736991 113.873146 
L 160.795869 113.873146 
L 160.913625 125.063792 
L 161.09026 114.961126 
L 161.149138 115.582828 
L 161.44353 121.722141 
L 161.502408 121.644428 
L 161.561286 129.648848 
L 161.620164 125.607782 
L 161.679042 125.607782 
L 161.737921 134.467043 
L 161.796799 134.233904 
L 161.914555 127.628315 
L 161.973434 127.550602 
L 162.032312 127.628315 
L 162.09119 127.628315 
L 162.208946 127.162038 
L 162.267825 127.317464 
L 162.326703 126.928899 
L 162.444459 123.043259 
L 162.562216 123.043259 
L 162.679972 126.695761 
L 162.738851 126.695761 
L 162.797729 128.716294 
L 162.974363 113.096018 
L 163.09212 118.069638 
L 163.268755 118.302777 
L 163.327633 118.069638 
L 163.445389 121.955279 
L 163.504267 121.955279 
L 163.622024 112.940592 
L 163.73978 112.940592 
L 163.857537 119.313043 
L 163.916415 119.77932 
L 164.034172 121.333577 
L 164.09305 121.333577 
L 164.151928 120.556448 
L 164.269684 115.738254 
L 164.328563 115.738254 
L 164.446319 106.568141 
L 164.681832 106.568141 
L 164.799588 106.179577 
L 164.858467 106.179577 
L 164.976223 113.018305 
L 165.09398 113.096018 
L 165.211736 108.977239 
L 165.329493 108.977239 
L 165.447249 110.142931 
L 165.506127 110.220644 
L 165.565005 106.723567 
L 165.623884 111.386336 
L 165.682762 110.920059 
L 165.800518 110.920059 
L 165.859397 110.764633 
L 166.036031 116.826233 
L 166.153788 119.002192 
L 166.271544 119.002192 
L 166.330422 119.157618 
L 166.389301 119.079905 
L 166.448179 119.002192 
L 166.74257 121.333577 
L 166.919205 121.333577 
L 166.978083 121.178151 
L 167.095839 119.701607 
L 167.154718 119.701607 
L 167.272474 107.422982 
L 167.331352 107.811546 
L 167.39023 110.842346 
L 167.449109 110.609208 
L 167.507987 110.609208 
L 167.566865 111.23091 
L 167.684622 114.494849 
L 167.7435 113.873146 
L 167.802378 110.298357 
L 167.861256 115.815967 
L 167.920135 115.194264 
L 167.979013 115.194264 
L 168.037891 115.34969 
L 168.155647 105.169311 
L 168.214526 105.247023 
L 168.273404 105.091598 
L 168.450039 99.807126 
L 168.567795 99.884839 
L 168.626673 100.19569 
L 168.685551 103.77048 
L 168.74443 103.692767 
L 168.803308 103.692767 
L 168.921064 108.433249 
L 168.979943 108.433249 
L 169.097699 105.946439 
L 169.215456 106.878993 
L 169.274334 106.723567 
L 169.39209 105.013885 
L 169.450968 105.013885 
L 169.568725 95.999198 
L 169.627603 96.232337 
L 169.74536 93.123824 
L 169.804238 93.27925 
L 169.921994 96.076911 
L 170.098629 96.698614 
L 170.157507 96.620901 
L 170.334142 94.988932 
L 170.451898 95.144357 
L 170.628533 90.24845 
L 170.746289 91.569568 
L 170.922924 86.751373 
L 170.981802 92.19127 
L 171.040681 91.802706 
L 171.217315 91.181004 
L 171.335072 97.16489 
L 171.39395 97.16489 
L 171.452828 97.009465 
L 171.747219 92.19127 
L 171.806098 92.19127 
L 171.864976 91.64728 
L 171.923854 86.595947 
L 171.982732 86.751373 
L 172.159367 96.076911 
L 172.39488 95.999198 
L 172.453758 95.843773 
L 172.571514 94.988932 
L 172.689271 94.988932 
L 172.865906 94.67808 
L 172.924784 94.67808 
L 173.04254 94.367229 
L 173.160297 92.579834 
L 173.219175 92.579834 
L 173.336931 97.087178 
L 173.513566 97.553455 
L 173.749079 98.175157 
L 173.866835 87.839352 
L 173.925714 87.839352 
L 173.984592 83.409722 
L 174.04347 84.808553 
L 174.161227 91.336429 
L 174.220105 91.258716 
L 174.278983 91.258716 
L 174.573374 77.814399 
L 174.750009 83.798286 
L 174.985522 81.70004 
L 175.0444 82.24403 
L 175.162156 82.24403 
L 175.279913 82.554881 
L 175.397669 82.088604 
L 175.515426 82.321742 
L 175.633182 85.041691 
L 175.692061 84.419988 
L 175.868695 94.289516 
L 175.927573 94.134091 
L 175.986452 94.134091 
L 176.221965 86.12967 
L 176.457477 87.917065 
L 176.575234 87.528501 
L 176.634112 87.76164 
L 176.810747 87.373075 
L 176.869625 87.373075 
L 176.928503 85.197117 
L 176.987382 85.430255 
L 177.164016 87.683927 
L 177.281773 87.683927 
L 177.458407 88.694193 
L 177.69392 74.550461 
L 177.811677 74.550461 
L 177.929433 74.783599 
L 177.988311 78.436102 
L 178.04719 78.12525 
L 178.106068 77.814399 
L 178.164946 78.047537 
L 178.341581 82.321742 
L 178.400459 82.166317 
L 178.459337 87.21765 
L 178.518215 85.974245 
L 178.577094 77.270409 
L 178.635972 77.425835 
L 178.871485 87.76164 
L 178.989241 87.76164 
L 179.106998 83.332009 
L 179.165876 83.332009 
L 179.224754 82.943445 
L 179.342511 83.487435 
L 179.401389 78.280676 
L 179.460267 78.436102 
L 179.519145 78.746953 
L 179.578024 80.378922 
L 179.69578 87.683927 
L 179.813536 87.839352 
L 179.872415 84.886265 
L 179.931293 85.274829 
L 180.049049 85.274829 
L 180.107928 84.73084 
L 180.166806 93.123824 
L 180.225684 92.346696 
L 180.34344 91.724993 
L 180.461197 92.035845 
L 180.578953 86.518235 
L 180.69671 86.67366 
L 180.873345 86.12967 
L 180.932223 86.829086 
L 180.991101 86.751373 
L 181.049979 86.751373 
L 181.462127 72.529927 
L 181.638761 82.554881 
L 181.756518 82.554881 
L 181.815396 83.565147 
L 181.874274 83.332009 
L 181.933153 83.332009 
L 182.109787 88.150204 
L 182.168666 80.301209 
L 182.227544 80.378922 
L 182.286422 80.378922 
L 182.3453 80.61206 
L 182.521935 79.912645 
L 182.580813 80.068071 
L 182.69857 87.295363 
L 182.934083 87.21765 
L 183.051839 95.299783 
L 183.169595 95.377496 
L 183.228474 95.22207 
L 183.34623 94.134091 
L 183.405108 94.134091 
L 183.522865 93.201537 
L 183.581743 93.201537 
L 183.699499 92.113557 
L 183.817256 92.346696 
L 183.935012 92.346696 
L 184.052769 93.123824 
L 184.170525 92.968398 
L 184.229404 93.434675 
L 184.288282 93.27925 
L 184.406038 92.424409 
L 184.464916 100.273403 
L 184.523795 100.19569 
L 184.582673 99.884839 
L 184.641551 100.351116 
L 184.759308 99.651701 
L 184.818186 99.729413 
L 184.935942 93.978665 
L 184.99482 93.978665 
L 185.053699 93.667814 
L 185.171455 94.289516 
L 185.34809 79.679507 
L 185.524725 79.679507 
L 185.642481 86.051958 
L 185.877994 86.207383 
L 185.99575 85.430255 
L 186.054629 85.352542 
L 186.172385 91.103291 
L 186.290141 96.854039 
L 186.34902 96.698614 
L 186.407898 97.475742 
L 186.584533 91.258716 
L 186.643411 91.258716 
L 186.702289 87.76164 
L 186.820046 93.123824 
L 186.99668 93.123824 
L 187.114437 88.383342 
L 187.173315 89.082757 
L 187.291071 95.144357 
L 187.467706 89.782173 
L 187.585462 99.573988 
L 187.644341 99.573988 
L 187.762097 99.107711 
L 187.820975 100.273403 
L 187.879854 100.117978 
L 187.938732 107.889259 
L 187.99761 103.537341 
L 188.174245 103.537341 
L 188.233123 102.138511 
L 188.292001 103.071065 
L 188.468636 106.878993 
L 188.586392 106.723567 
L 188.645271 106.101864 
L 188.704149 106.25729 
L 188.821905 107.189844 
L 188.880783 107.112131 
L 189.175175 120.090172 
L 189.351809 114.183997 
L 189.6462 124.830653 
L 189.763957 124.752941 
L 189.940592 125.219217 
L 189.99947 126.151771 
L 190.058348 112.474315 
L 190.117226 113.251444 
L 190.176104 113.173731 
L 190.234983 113.950859 
L 190.293861 113.640008 
L 190.411617 104.858459 
L 190.470496 98.175157 
L 190.529374 99.962552 
L 190.588252 99.962552 
L 190.64713 100.117978 
L 190.706009 100.040265 
L 190.823765 100.117978 
L 191.0004 100.273403 
L 191.353669 100.273403 
L 191.530304 106.179577 
L 191.589182 106.179577 
L 191.765817 106.956705 
L 191.942451 113.640008 
L 192.00133 113.640008 
L 192.060208 113.329156 
L 192.119086 115.34969 
L 192.177964 113.717721 
L 192.236842 113.717721 
L 192.354599 111.7749 
L 192.413477 112.163464 
L 192.531234 115.427403 
L 192.707868 95.22207 
L 192.766746 98.719147 
L 192.825625 96.854039 
L 192.943381 96.854039 
L 193.002259 96.232337 
L 193.120016 99.340849 
L 193.178894 99.340849 
L 193.237772 97.320316 
L 193.296651 97.553455 
L 193.355529 97.631167 
L 193.473285 97.475742 
L 193.532163 97.786593 
L 193.591042 97.553455 
L 193.64992 97.242603 
L 193.708798 89.937598 
L 193.767676 90.170737 
L 193.826555 90.24845 
L 193.944311 89.782173 
L 194.062067 102.6825 
L 194.120946 102.604788 
L 194.238702 101.594521 
L 194.356459 103.537341 
L 194.474215 95.532921 
L 194.533093 95.532921 
L 194.65085 98.952285 
L 194.768606 94.367229 
L 194.886363 94.367229 
L 195.062997 93.434675 
L 195.121876 93.745527 
L 195.29851 108.977239 
L 195.416267 108.977239 
L 195.475145 109.28809 
L 195.592901 100.972819 
L 195.710658 100.972819 
L 195.887293 108.510962 
L 196.063927 109.909792 
L 196.122805 109.443516 
L 196.358318 114.028572 
L 196.476075 114.028572 
L 196.593831 107.656121 
L 196.652709 110.997772 
L 196.711588 110.920059 
L 196.770466 110.920059 
L 196.888222 105.946439 
L 196.947101 106.645854 
L 197.064857 102.993352 
L 197.241492 102.915639 
L 197.418126 99.029998 
L 197.535883 98.563721 
L 197.594761 99.029998 
L 197.712518 102.060798 
L 198.124665 102.060798 
L 198.183543 101.827659 
L 198.242422 108.7441 
L 198.3013 100.584254 
L 198.360178 100.661967 
L 198.595691 100.661967 
L 198.654569 100.817393 
L 198.831204 100.273403 
L 198.890082 100.273403 
L 199.125595 92.968398 
L 199.243351 93.046111 
L 199.30223 93.512388 
L 199.361108 97.087178 
L 199.419986 97.009465 
L 199.537743 97.009465 
L 199.714377 90.714727 
L 199.94989 91.880419 
L 200.067647 104.236757 
L 200.126525 104.236757 
L 200.362038 97.475742 
L 200.479794 97.009465 
L 200.538672 97.398029 
L 200.597551 105.791013 
L 200.656429 105.480162 
L 200.833064 102.6825 
L 200.891942 107.422982 
L 200.95082 107.112131 
L 201.127455 108.044685 
L 201.245211 103.071065 
L 201.421846 108.588675 
L 201.480724 108.510962 
L 201.598481 112.940592 
L 201.716237 105.247023 
L 201.775115 105.868726 
L 201.892872 102.837926 
L 201.95175 102.837926 
L 202.010628 103.848193 
L 202.069506 103.615054 
L 202.128385 103.537341 
L 202.246141 104.31447 
L 202.363898 103.148777 
L 202.422776 103.692767 
L 202.481654 103.304203 
L 202.540532 103.22649 
L 202.717167 108.510962 
L 202.776045 108.122398 
L 202.834923 108.433249 
L 202.95268 108.044685 
L 203.305949 116.282243 
L 203.423706 115.738254 
L 203.894731 115.660541 
L 204.012488 113.096018 
L 204.071366 113.096018 
L 204.130244 125.374643 
L 204.189123 120.8673 
L 204.248001 120.8673 
L 204.365757 119.002192 
L 204.424635 118.846766 
L 204.660148 117.370223 
L 204.719027 117.370223 
L 204.836783 117.214797 
L 204.95454 107.733834 
L 205.131174 108.977239 
L 205.307809 97.475742 
L 205.366687 94.056378 
L 205.425565 96.854039 
L 205.484444 96.854039 
L 205.719956 95.610634 
L 205.778835 91.103291 
L 205.837713 94.211803 
L 205.896591 94.211803 
L 206.014348 96.154624 
L 206.132104 96.154624 
L 206.190982 96.620901 
L 206.249861 96.465475 
L 206.308739 96.465475 
L 206.367617 96.698614 
L 206.485373 102.915639 
L 206.544252 102.915639 
L 206.720886 102.293936 
L 206.956399 102.371649 
L 207.133034 109.676654 
L 207.191912 109.598941 
L 207.309669 115.815967 
L 207.427425 115.815967 
L 207.486303 121.566715 
L 207.545182 121.255864 
L 207.662938 118.458202 
L 207.721816 118.846766 
L 207.780694 118.613628 
L 207.957329 118.613628 
L 208.016207 118.846766 
L 208.133964 116.903946 
L 208.310598 116.903946 
L 208.428355 117.059372 
L 208.546111 117.758787 
L 208.663868 114.961126 
L 208.781624 122.188418 
L 208.958259 122.81012 
L 209.076015 126.229484 
L 209.134894 125.063792 
L 209.193772 125.219217 
L 209.311528 125.219217 
L 209.429285 120.090172 
L 209.488163 120.012459 
L 209.664798 124.519802 
L 209.723676 124.208951 
L 209.900311 126.773474 
L 210.018067 126.462623 
L 210.135824 126.462623 
L 210.25358 125.918633 
L 210.371336 125.918633 
L 210.430215 125.374643 
L 210.547971 126.695761 
L 210.842362 126.773474 
L 211.018997 125.918633 
L 211.136753 120.711874 
L 211.25451 120.32331 
L 211.431145 120.401023 
L 211.725536 120.401023 
L 211.843292 120.634161 
L 211.90217 120.245597 
L 211.961049 120.478736 
L 212.078805 120.401023 
L 212.137683 123.043259 
L 212.196561 121.411289 
L 212.314318 121.489002 
L 212.432074 118.458202 
L 212.549831 118.458202 
L 212.608709 117.758787 
L 212.726466 124.208951 
L 213.079735 124.208951 
L 213.25637 124.752941 
L 213.315248 124.131238 
L 213.374126 124.519802 
L 213.491882 124.442089 
L 213.668517 123.742674 
L 213.786274 123.664961 
L 213.90403 118.069638 
L 213.962908 118.069638 
L 214.021787 118.225064 
L 214.139543 117.991925 
L 214.198421 117.991925 
L 214.375056 128.094592 
L 214.433934 127.395176 
L 214.551691 127.472889 
L 214.669447 127.239751 
L 214.728325 127.239751 
L 214.963838 126.540335 
L 215.081595 126.540335 
L 215.199351 127.084325 
L 215.258229 126.928899 
L 215.317108 127.084325 
L 215.434864 125.063792 
L 215.493742 125.063792 
L 215.611499 120.634161 
L 215.788133 127.861453 
L 215.90589 128.794007 
L 215.964768 128.716294 
L 216.082524 128.250017 
L 216.259159 131.669381 
L 216.318037 131.669381 
L 216.435794 128.483156 
L 216.55355 129.648848 
L 216.847941 129.648848 
L 216.90682 128.87172 
L 216.965698 128.949433 
L 217.083454 125.84092 
L 217.142333 125.996346 
L 217.260089 121.955279 
L 217.318967 121.955279 
L 217.436724 117.603361 
L 217.613358 117.758787 
L 217.731115 112.86288 
L 217.789993 112.86288 
L 217.848871 112.396603 
L 217.90775 113.096018 
L 217.966628 111.308623 
L 218.143262 124.131238 
L 218.202141 122.965546 
L 218.261019 123.35411 
L 218.378775 131.980233 
L 218.496532 128.87172 
L 218.614288 128.87172 
L 218.732045 132.291084 
L 218.790923 132.291084 
L 218.908679 130.270551 
L 218.967558 124.131238 
L 219.026436 124.208951 
L 219.085314 124.208951 
L 219.261949 124.908366 
L 219.379705 124.364376 
L 219.497462 124.364376 
L 219.674096 123.664961 
L 220.086244 122.576982 
L 220.145122 122.732407 
L 220.204 122.732407 
L 220.262879 126.618048 
L 220.321757 125.996346 
L 220.380635 126.307197 
L 220.498392 122.26613 
L 220.616148 122.732407 
L 220.733904 122.421556 
L 220.910539 130.270551 
L 220.969417 130.270551 
L 221.20493 130.736827 
L 221.263808 130.192838 
L 221.440443 137.497843 
L 221.499321 137.497843 
L 221.5582 135.011032 
L 221.617078 135.399597 
L 221.852591 136.487576 
L 221.970347 139.673801 
L 222.088104 139.596089 
L 222.20586 143.404017 
L 222.323617 138.81896 
L 222.382495 138.81896 
L 222.500251 131.747094 
L 222.559129 131.824807 
L 222.676886 131.280817 
L 222.735764 132.213371 
L 222.853521 128.172305 
L 222.971277 129.260284 
L 223.265668 129.260284 
L 223.324546 129.648848 
L 223.442303 129.260284 
L 223.677816 122.26613 
L 223.795572 121.644428 
L 223.913329 116.126818 
L 224.031085 115.971392 
L 224.089963 116.359956 
L 224.20772 115.971392 
L 224.266598 116.515382 
L 224.325476 116.126818 
L 224.443233 116.049105 
L 224.560989 116.359956 
L 224.619867 116.282243 
L 224.737624 116.903946 
L 224.85538 116.126818 
L 225.032015 116.126818 
L 225.090893 115.038838 
L 225.20865 119.468469 
L 225.326406 119.002192 
L 225.503041 118.924479 
L 225.620797 118.613628 
L 225.738554 119.313043 
L 225.797432 119.313043 
L 225.85631 118.691341 
L 225.974067 124.053525 
L 226.032945 124.053525 
L 226.20958 119.468469 
L 226.268458 119.313043 
L 226.327336 118.769054 
L 226.445092 109.598941 
L 226.562849 109.676654 
L 226.85724 114.650274 
L 226.916118 114.650274 
L 227.033875 114.494849 
L 227.151631 103.22649 
L 227.210509 103.925906 
L 227.328266 95.843773 
L 227.446022 98.330583 
L 227.504901 98.25287 
L 227.622657 95.610634 
L 227.85817 95.532921 
L 227.917048 95.455208 
L 227.975926 94.911219 
L 228.034805 100.273403 
L 228.093683 99.962552 
L 228.152561 99.962552 
L 228.211439 101.749947 
L 228.270318 101.28367 
L 228.329196 101.128244 
L 228.50583 94.988932 
L 228.623587 96.776326 
L 228.682465 96.776326 
L 228.741343 97.70888 
L 228.8591 88.694193 
L 228.976856 88.072491 
L 229.153491 82.710306 
L 229.447882 92.346696 
L 229.50676 92.346696 
L 229.565639 92.73526 
L 229.624517 95.921485 
L 229.683395 95.843773 
L 229.86003 95.299783 
L 230.036664 84.808553 
L 230.213299 83.254296 
L 230.331055 88.383342 
L 230.448812 83.098871 
L 230.50769 83.098871 
L 230.802081 76.260143 
L 231.037594 75.63844 
L 231.096472 78.824666 
L 231.155351 78.12525 
L 231.214229 78.12525 
L 231.273107 77.969825 
L 231.331985 78.12525 
L 231.390864 78.12525 
L 231.449742 77.736686 
L 231.50862 77.892112 
L 231.626376 82.321742 
L 231.744133 82.321742 
L 231.861889 82.554881 
L 231.979646 82.632594 
L 232.097402 82.865732 
L 232.215159 82.788019 
L 232.332915 83.098871 
L 232.391793 83.098871 
L 232.450672 82.865732 
L 232.627306 87.062224 
L 232.745063 86.595947 
L 232.862819 87.606214 
L 232.921697 87.139937 
L 233.039454 87.139937 
L 233.098332 86.984511 
L 233.274967 84.73084 
L 233.333845 84.73084 
L 233.451602 75.63844 
L 233.51048 75.871579 
L 233.569358 75.871579 
L 233.628236 76.804132 
L 233.687114 76.72642 
L 233.981506 95.688347 
L 234.040384 95.377496 
L 234.099262 95.455208 
L 234.15814 95.455208 
L 234.217018 94.988932 
L 234.275897 90.870152 
L 234.334775 91.025578 
L 234.51141 91.181004 
L 234.688044 90.015311 
L 234.805801 91.802706 
L 234.864679 86.751373 
L 234.923557 87.606214 
L 234.982435 87.606214 
L 235.217948 88.383342 
L 235.394583 88.461055 
L 235.512339 89.315896 
L 235.630096 89.315896 
L 235.688974 86.67366 
L 235.747852 86.751373 
L 235.865609 87.683927 
L 235.924487 84.18685 
L 235.983365 84.264563 
L 236.101122 84.419988 
L 236.218878 84.264563 
L 236.336635 84.886265 
L 236.395513 84.342276 
L 236.454391 84.73084 
L 236.631026 85.507968 
L 236.984295 84.419988 
L 237.16093 87.373075 
L 237.278686 85.585681 
L 237.337565 87.450788 
L 237.396443 80.068071 
L 237.455321 84.342276 
L 237.514199 83.021158 
L 237.631956 85.974245 
L 237.690834 85.974245 
L 237.749712 85.119404 
L 237.80859 85.507968 
L 237.867469 85.507968 
L 237.985225 83.565147 
L 238.102982 83.409722 
L 238.220738 82.788019 
L 238.279616 82.788019 
L 238.456251 85.041691 
L 238.632886 85.041691 
L 238.750642 88.072491 
L 238.80952 87.994778 
L 238.927277 78.66924 
L 239.045033 78.12525 
L 239.339424 78.202963 
L 239.398303 78.358389 
L 239.457181 78.202963 
L 239.574937 78.047537 
L 239.633815 77.503548 
L 239.692694 77.892112 
L 239.751572 77.892112 
L 239.928207 77.736686 
L 239.987085 77.658973 
L 240.104841 82.24403 
L 240.222598 82.166317 
L 240.399232 65.768912 
L 240.458111 66.312902 
L 240.575867 75.09445 
L 240.693624 69.57684 
L 240.752502 70.431681 
L 240.870258 66.235189 
L 241.105771 67.400881 
L 241.164649 71.20881 
L 241.223528 71.053384 
L 241.282406 71.053384 
L 241.45904 77.892112 
L 241.517919 77.892112 
L 241.576797 77.736686 
L 241.694553 78.280676 
L 241.81231 78.280676 
L 242.047823 79.990358 
L 242.165579 80.689773 
L 242.224457 80.456635 
L 242.283336 80.767486 
L 242.342214 85.352542 
L 242.401092 85.119404 
L 242.518849 78.047537 
L 242.577727 78.746953 
L 242.695483 78.746953 
L 242.81324 78.12525 
L 242.872118 78.12525 
L 243.048753 77.425835 
L 243.166509 90.015311 
L 243.284266 82.321742 
L 243.343144 82.321742 
L 243.402022 80.534348 
L 243.4609 81.000624 
L 243.519778 80.378922 
L 243.578657 80.534348 
L 243.81417 70.431681 
L 243.931926 70.431681 
L 243.990804 67.323169 
L 244.049682 67.400881 
L 244.108561 67.323169 
L 244.226317 64.292369 
L 244.285195 64.292369 
L 244.344074 61.106143 
L 244.402952 61.261569 
L 244.46183 60.795292 
L 244.579587 68.255722 
L 244.638465 68.411148 
L 244.815099 75.716153 
L 244.873978 75.483014 
L 244.991734 71.908225 
L 245.168369 71.053384 
L 245.345003 65.069497 
L 245.580516 80.767486 
L 245.757151 74.317322 
L 245.816029 74.006471 
L 245.933786 70.975671 
L 245.992664 71.20881 
L 246.11042 69.732266 
L 246.287055 75.09445 
L 246.345933 75.716153 
L 246.46369 79.757219 
L 246.581446 79.601794 
L 246.758081 80.145783 
L 246.934716 83.098871 
L 246.993594 83.254296 
L 247.052472 84.031424 
L 247.11135 83.953712 
L 247.229107 83.953712 
L 247.346863 83.64286 
L 247.46462 84.808553 
L 247.700133 80.61206 
L 247.759011 87.994778 
L 247.817889 82.24403 
L 247.935645 82.24403 
L 248.11228 76.570994 
L 248.347793 82.166317 
L 248.406671 81.70004 
L 248.46555 85.741106 
L 248.524428 85.507968 
L 248.701062 85.507968 
L 248.818819 83.953712 
L 248.877697 84.031424 
L 248.936575 84.419988 
L 248.995454 87.528501 
L 249.172088 80.223496 
L 249.230966 80.767486 
L 249.407601 90.015311 
L 249.643114 90.015311 
L 249.701992 92.035845 
L 249.819749 102.293936 
L 249.878627 102.293936 
L 249.996383 101.439095 
L 250.055262 106.024152 
L 250.11414 105.7133 
L 250.231896 105.7133 
L 250.290775 105.868726 
L 250.467409 110.609208 
L 250.526287 110.453782 
L 250.585166 109.054951 
L 250.7618 101.28367 
L 250.938435 100.972819 
L 250.997313 102.138511 
L 251.056192 108.7441 
L 251.11507 108.666387 
L 251.232826 104.547608 
L 251.291704 104.547608 
L 251.409461 104.31447 
L 251.468339 104.31447 
L 251.527217 112.085751 
L 251.586096 112.008039 
L 251.644974 108.588675 
L 251.703852 110.609208 
L 251.76273 110.764633 
L 251.821608 110.220644 
L 251.880487 104.858459 
L 251.939365 105.013885 
L 252.116 105.324736 
L 252.174878 105.247023 
L 252.292634 103.848193 
L 252.410391 111.464049 
L 252.469269 111.386336 
L 252.528147 112.085751 
L 252.587025 111.7749 
L 252.704782 111.697187 
L 252.822538 112.085751 
L 252.999173 103.848193 
L 253.058051 103.848193 
L 253.116929 102.449362 
L 253.175808 102.6825 
L 253.234686 103.148777 
L 253.293564 106.101864 
L 253.411321 101.439095 
L 253.470199 101.594521 
L 253.587955 103.925906 
L 253.646834 103.304203 
L 253.705712 105.324736 
L 253.76459 105.091598 
L 253.882346 105.7133 
L 253.941225 105.091598 
L 254.000103 105.635588 
L 254.058981 106.101864 
L 254.117859 105.791013 
L 254.235616 105.557875 
L 254.294494 105.635588 
L 254.530007 106.024152 
L 254.588885 106.25729 
L 254.647763 105.557875 
L 254.76552 109.754367 
L 254.824398 109.054951 
L 254.942155 115.660541 
L 255.118789 115.738254 
L 255.177667 116.126818 
L 255.236546 115.893679 
L 255.354302 103.848193 
L 255.589815 102.293936 
L 255.707571 97.70888 
L 255.76645 97.70888 
L 255.825328 99.107711 
L 255.884206 98.79686 
L 256.001963 98.330583 
L 256.060841 98.79686 
L 256.119719 98.563721 
L 256.237476 104.159044 
L 256.355232 104.469895 
L 256.531867 104.469895 
L 256.649623 100.895106 
L 256.708501 100.895106 
L 256.76738 91.880419 
L 256.826258 91.958132 
L 256.885136 91.414142 
L 257.238405 101.050531 
L 257.297284 101.050531 
L 257.473918 102.138511 
L 257.532797 109.28809 
L 257.591675 109.132664 
L 257.768309 105.091598 
L 257.827188 105.247023 
L 257.944944 109.521228 
L 258.062701 108.666387 
L 258.121579 108.666387 
L 258.180457 105.557875 
L 258.239335 108.588675 
L 258.298213 108.200111 
L 258.474848 108.355536 
L 258.533726 108.355536 
L 258.592605 108.821813 
L 258.651483 108.510962 
L 258.710361 107.733834 
L 258.828118 98.719147 
L 258.945874 98.719147 
L 259.06363 99.573988 
L 259.240265 99.263137 
L 259.358022 89.859886 
L 259.4169 89.937598 
L 259.475778 88.150204 
L 259.534656 88.771906 
L 259.593534 92.346696 
L 259.652413 89.937598 
L 259.711291 90.170737 
L 259.770169 89.471322 
L 259.829047 89.549034 
L 259.946804 93.201537 
L 260.005682 93.123824 
L 260.182317 100.661967 
L 260.300073 97.009465 
L 260.358951 97.009465 
L 260.476708 96.465475 
L 260.535586 100.19569 
L 260.594464 99.884839 
L 260.653343 99.263137 
L 260.712221 103.304203 
L 260.888855 93.823239 
L 261.06549 94.755793 
L 261.124368 94.67808 
L 261.183247 94.67808 
L 261.359881 94.911219 
L 261.536516 94.755793 
L 261.713151 94.755793 
L 261.830907 97.320316 
L 261.889785 90.24845 
L 261.948664 90.637014 
L 262.007542 90.870152 
L 262.06642 90.714727 
L 262.125298 90.714727 
L 262.243055 90.559301 
L 262.301933 97.398029 
L 262.360811 93.667814 
L 262.419689 93.27925 
L 262.478568 93.978665 
L 262.537446 93.900952 
L 262.655202 93.900952 
L 262.772959 94.056378 
L 262.831837 92.890686 
L 262.890715 93.512388 
L 263.008472 95.066644 
L 263.06735 100.661967 
L 263.126228 100.506542 
L 263.185106 100.817393 
L 263.361741 99.807126 
L 263.420619 100.040265 
L 263.71501 100.273403 
L 263.832767 100.351116 
L 264.009402 100.506542 
L 264.186036 89.70446 
L 264.244914 89.70446 
L 264.303793 90.24845 
L 264.421549 85.663394 
L 264.539306 92.657547 
L 264.657062 92.579834 
L 264.774818 93.27925 
L 264.951453 99.884839 
L 265.128088 100.73968 
L 265.304723 100.661967 
L 265.363601 95.455208 
L 265.422479 100.040265 
L 265.481357 99.962552 
L 265.540235 99.496275 
L 265.657992 95.76606 
L 265.775748 99.107711 
L 265.952383 99.029998 
L 266.070139 98.641434 
L 266.187896 95.921485 
L 266.305652 96.698614 
L 266.364531 96.698614 
L 266.423409 99.496275 
L 266.482287 97.942019 
L 266.658922 98.486008 
L 266.7178 98.486008 
L 266.835556 89.626747 
L 266.894435 89.626747 
L 267.012191 89.005045 
L 267.071069 81.855465 
L 267.129948 88.072491 
L 267.306582 84.963978 
L 267.424339 85.197117 
L 267.542095 84.575414 
L 267.659852 70.276256 
L 267.777608 70.198543 
L 267.836486 69.654553 
L 268.013121 62.349548 
L 268.071999 62.427261 
L 268.130877 65.14721 
L 268.248634 61.650133 
L 268.36639 65.302635 
L 268.425269 65.302635 
L 268.484147 64.914071 
L 268.601903 60.873005 
L 268.71966 60.873005 
L 268.778538 61.261569 
L 268.896294 64.05923 
L 269.072929 63.048964 
L 269.249564 63.048964 
L 269.308442 63.515241 
L 269.485077 60.795292 
L 269.661711 61.960984 
L 269.779468 61.960984 
L 269.897224 63.670666 
L 269.956102 63.592953 
L 270.132737 63.981518 
L 270.191615 64.05923 
L 270.36825 63.592953 
L 270.427128 60.950718 
L 270.486007 61.02843 
L 270.544885 77.969825 
L 270.603763 75.949291 
L 270.721519 75.949291 
L 270.957032 74.705886 
L 271.074789 75.560727 
L 271.133667 74.628173 
L 271.192545 74.939025 
L 271.310302 75.405302 
L 271.428058 75.172163 
L 271.486936 75.793866 
L 271.604693 89.393609 
L 271.663571 89.471322 
L 271.781328 83.332009 
L 271.899084 87.21765 
L 271.957962 87.062224 
L 272.01684 87.139937 
L 272.075719 88.150204 
L 272.134597 87.683927 
L 272.193475 87.683927 
L 272.252353 87.917065 
L 272.37011 85.663394 
L 272.428988 85.585681 
L 272.546744 91.491855 
L 272.782257 92.424409 
L 272.958892 92.424409 
L 273.076649 100.584254 
L 273.135527 100.972819 
L 273.194405 100.661967 
L 273.37104 100.584254 
L 273.547674 100.584254 
L 273.606553 97.16489 
L 273.665431 97.553455 
L 273.724309 97.553455 
L 273.783187 95.144357 
L 273.900944 86.440522 
L 273.959822 86.362809 
L 274.077578 82.399455 
L 274.254213 82.477168 
L 274.37197 77.270409 
L 274.607482 77.348122 
L 274.666361 76.881845 
L 274.842995 72.840779 
L 275.078508 80.61206 
L 275.137386 80.61206 
L 275.196265 80.301209 
L 275.372899 82.554881 
L 275.549534 76.72642 
L 275.608412 76.415568 
L 275.785047 71.441948 
L 275.843925 71.519661 
L 275.961682 64.370082 
L 276.079438 74.161897 
L 276.197195 69.188276 
L 276.256073 69.032851 
L 276.314951 69.265989 
L 276.373829 69.188276 
L 276.491586 69.265989 
L 276.609342 69.732266 
L 276.785977 67.556307 
L 276.903733 69.965404 
L 276.962612 65.613487 
L 277.02149 65.691199 
L 277.139246 69.188276 
L 277.198124 68.799712 
L 277.257003 69.343702 
L 277.374759 66.312902 
L 277.433637 66.235189 
L 277.492516 66.779179 
L 277.610272 70.509394 
L 277.66915 69.654553 
L 277.728028 76.337855 
L 277.845785 68.022584 
L 277.963541 68.100297 
L 278.081298 68.955138 
L 278.199054 68.17801 
L 278.257933 68.17801 
L 278.316811 67.63402 
L 278.375689 67.711733 
L 278.493445 67.711733 
L 278.611202 73.617907 
L 278.728958 73.462481 
L 278.787837 73.617907 
L 278.846715 73.462481 
L 278.964471 68.799712 
L 279.023349 68.644287 
L 279.317741 79.21323 
L 279.376619 79.135517 
L 279.435497 83.953712 
L 279.494375 83.720573 
L 279.553254 83.798286 
L 279.906523 67.167743 
L 280.083158 67.167743 
L 280.200914 67.323169 
L 280.436427 66.312902 
L 280.613062 57.609066 
L 280.730818 66.312902 
L 280.789696 64.370082 
L 280.966331 64.447794 
L 281.025209 65.069497 
L 281.142966 74.317322 
L 281.201844 67.556307 
L 281.260722 71.441948 
L 281.3196 71.441948 
L 281.378479 75.09445 
L 281.437357 74.084184 
L 281.555113 73.540194 
L 281.67287 70.587107 
L 281.790626 79.990358 
L 281.967261 81.544614 
L 282.085017 77.037271 
L 282.202774 77.114984 
L 282.379408 77.192696 
L 282.556043 83.176583 
L 282.614921 83.254296 
L 282.6738 83.176583 
L 282.850434 104.936172 
L 282.909312 104.780747 
L 283.085947 104.858459 
L 283.144825 104.858459 
L 283.203704 104.547608 
L 283.32146 102.371649 
L 283.380338 102.371649 
L 283.498095 102.604788 
L 283.674729 105.247023 
L 283.792486 105.013885 
L 283.851364 103.148777 
L 283.910242 103.381916 
L 283.969121 103.615054 
L 284.027999 103.537341 
L 284.145755 103.537341 
L 284.440146 84.886265 
L 284.499025 84.18685 
L 284.557903 84.264563 
L 284.616781 84.264563 
L 284.675659 84.808553 
L 284.734538 78.824666 
L 284.852294 86.67366 
L 284.97005 86.67366 
L 285.028929 87.21765 
L 285.146685 84.264563 
L 285.205563 84.264563 
L 285.264442 84.653127 
L 285.382198 80.223496 
L 285.499954 80.145783 
L 285.617711 76.415568 
L 285.676589 76.493281 
L 285.794346 87.683927 
L 285.97098 87.373075 
L 286.029859 89.238183 
L 286.206493 86.362809 
L 286.265371 86.362809 
L 286.32425 85.818819 
L 286.500884 74.939025 
L 286.559763 75.09445 
L 286.618641 75.949291 
L 286.795275 89.238183 
L 286.854154 89.16047 
L 287.030788 79.135517 
L 287.089667 79.057804 
L 287.207423 80.922912 
L 287.32518 80.301209 
L 287.384058 80.301209 
L 287.560692 75.327589 
L 287.678449 79.757219 
L 287.737327 79.912645 
L 287.796205 79.757219 
L 287.855084 79.757219 
L 287.97284 77.658973 
L 288.031718 78.591527 
L 288.090596 79.601794 
L 288.149475 79.446368 
L 288.267231 75.560727 
L 288.443866 76.027004 
L 288.502744 76.027004 
L 288.561622 75.716153 
L 288.679379 81.933178 
L 288.738257 82.010891 
L 288.856013 87.21765 
L 288.914892 87.062224 
L 289.032648 88.072491 
L 289.268161 107.811546 
L 289.327039 108.588675 
L 289.385917 107.811546 
L 289.444796 108.277823 
L 289.503674 108.433249 
L 289.562552 105.480162 
L 289.680309 108.7441 
L 289.739187 108.7441 
L 289.856943 91.958132 
L 289.9747 93.745527 
L 290.151334 93.745527 
L 290.210213 93.512388 
L 290.269091 103.304203 
L 290.327969 103.071065 
L 290.386847 103.537341 
L 290.445726 103.459629 
L 290.563482 112.552028 
L 290.740117 104.780747 
L 290.857873 104.780747 
L 290.97563 104.236757 
L 291.093386 99.340849 
L 291.152264 99.185424 
L 291.270021 99.573988 
L 291.328899 99.573988 
L 291.446655 99.807126 
L 291.62329 103.77048 
L 291.741047 98.019731 
L 291.858803 97.631167 
L 291.97656 101.205957 
L 292.094316 101.205957 
L 292.153194 95.843773 
L 292.212072 95.921485 
L 292.329829 95.921485 
L 292.388707 92.268983 
L 292.447585 92.346696 
L 292.565342 91.958132 
L 292.683098 92.73526 
L 292.800855 97.16489 
L 292.859733 97.631167 
L 292.977489 97.16489 
L 293.154124 97.16489 
L 293.213002 96.465475 
L 293.271881 104.703034 
L 293.330759 100.972819 
L 293.507393 100.972819 
L 293.742906 101.827659 
L 293.919541 101.205957 
L 293.978419 101.749947 
L 294.037297 101.205957 
L 294.155054 95.999198 
L 294.213932 95.999198 
L 294.390567 97.631167 
L 294.449445 97.009465 
L 294.508323 97.087178 
L 294.62608 90.24845 
L 294.684958 90.24845 
L 294.861593 90.870152 
L 294.979349 90.637014 
L 295.038227 90.637014 
L 295.097106 90.792439 
L 295.155984 92.268983 
L 295.27374 99.418562 
L 295.332618 99.418562 
L 295.450375 98.874572 
L 295.509253 99.029998 
L 295.685888 99.263137 
L 295.744766 99.185424 
L 295.803644 98.952285 
L 295.921401 102.837926 
L 296.098035 103.071065 
L 296.156914 108.510962 
L 296.215792 105.480162 
L 296.333548 109.909792 
L 296.392427 109.83208 
L 296.451305 109.83208 
L 296.569061 110.376069 
L 296.627939 110.376069 
L 296.686818 111.153198 
L 296.745696 111.075485 
L 296.804574 110.920059 
L 296.863452 107.34527 
L 296.922331 107.656121 
L 296.981209 107.267557 
L 297.040087 107.34527 
L 297.157844 107.34527 
L 297.393356 115.893679 
L 297.687748 115.971392 
L 297.805504 110.609208 
L 297.864382 111.23091 
L 297.982139 109.054951 
L 298.158773 109.28809 
L 298.217652 108.355536 
L 298.27653 108.588675 
L 298.394286 108.7441 
L 298.512043 104.780747 
L 298.570921 104.547608 
L 298.629799 104.780747 
L 298.747556 109.676654 
L 299.218581 108.7441 
L 299.27746 108.977239 
L 299.336338 106.024152 
L 299.454094 109.365803 
L 299.571851 104.159044 
L 299.630729 103.925906 
L 299.807364 104.703034 
L 299.866242 104.081331 
L 299.983998 100.506542 
L 300.101755 100.506542 
L 300.219511 103.304203 
L 300.27839 103.304203 
L 300.337268 103.459629 
L 300.690537 100.428829 
L 300.808294 100.584254 
L 300.867172 100.584254 
L 300.984928 100.972819 
L 301.220441 100.661967 
L 301.632589 100.73968 
L 301.691467 100.19569 
L 301.750345 100.351116 
L 301.868102 100.351116 
L 301.985858 99.807126 
L 302.103615 99.807126 
L 302.162493 100.117978 
L 302.280249 103.925906 
L 302.339128 103.925906 
L 302.398006 99.496275 
L 302.456884 100.117978 
L 302.515762 100.117978 
L 302.57464 100.351116 
L 302.810153 92.346696 
L 302.869032 92.346696 
L 302.92791 92.579834 
L 302.986788 93.434675 
L 303.045666 93.201537 
L 303.222301 90.170737 
L 303.340057 90.170737 
L 303.516692 88.694193 
L 303.57557 89.082757 
L 303.693327 93.590101 
L 303.811083 93.434675 
L 303.92884 94.134091 
L 304.046596 96.931752 
L 304.164353 96.931752 
L 304.399865 94.056378 
L 304.517622 98.25287 
L 304.5765 98.25287 
L 304.694257 97.009465 
L 304.812013 98.79686 
L 304.870891 98.563721 
L 305.047526 109.443516 
L 305.106404 109.83208 
L 305.165282 108.977239 
L 305.224161 109.521228 
L 305.341917 111.619474 
L 305.400795 111.7749 
L 305.57743 114.650274 
L 305.695186 119.623895 
L 305.930699 119.546182 
L 305.989578 119.934746 
L 306.048456 124.286664 
L 306.107334 124.208951 
L 306.166212 124.131238 
L 306.283969 118.147351 
L 306.401725 118.38049 
L 306.57836 118.069638 
L 306.754995 118.069638 
L 306.813873 118.225064 
L 306.872751 123.587248 
L 306.931629 122.887833 
L 307.22602 122.188418 
L 307.284899 124.208951 
L 307.343777 124.053525 
L 307.461533 124.131238 
L 307.520412 123.35411 
L 307.57929 123.820387 
L 307.697046 129.648848 
L 307.755924 129.493422 
L 307.932559 128.87172 
L 308.344707 128.87172 
L 308.462463 124.986079 
L 308.521341 124.986079 
L 308.58022 130.270551 
L 308.697976 122.576982 
L 308.756854 122.576982 
L 308.933489 115.582828 
L 309.110124 120.556448 
L 309.22788 120.167884 
L 309.404515 125.29693 
L 309.522271 121.489002 
L 309.640028 121.411289 
L 309.698906 121.178151 
L 309.875541 122.032992 
L 309.934419 121.955279 
L 309.993297 121.722141 
L 310.052175 119.701607 
L 310.22881 122.654695 
L 310.346566 122.343843 
L 310.464323 122.654695 
L 310.582079 123.509535 
L 310.640958 122.732407 
L 310.758714 118.924479 
L 310.87647 118.691341 
L 310.994227 118.769054 
L 311.170862 118.613628 
L 311.465253 118.691341 
L 311.700766 107.966972 
L 311.8774 108.433249 
L 311.936279 111.619474 
L 311.995157 111.541762 
L 312.054035 111.619474 
L 312.171791 111.386336 
L 312.289548 111.7749 
L 312.348426 111.075485 
L 312.407304 111.23091 
L 312.466183 111.23091 
L 312.642817 114.727987 
L 312.701696 111.7749 
L 312.760574 113.873146 
L 312.819452 117.214797 
L 312.87833 116.981659 
L 312.937208 115.660541 
L 312.996087 115.971392 
L 313.054965 115.971392 
L 313.113843 107.889259 
L 313.2316 118.535915 
L 313.467112 117.29251 
L 313.525991 117.29251 
L 313.643747 115.815967 
L 313.761504 115.738254 
L 313.87926 115.505115 
L 313.938138 116.204531 
L 314.055895 110.997772 
L 314.114773 118.613628 
L 314.173651 118.38049 
L 314.232529 116.049105 
L 314.291408 116.204531 
L 314.526921 116.204531 
L 314.703555 114.183997 
L 314.997946 116.049105 
L 315.233459 110.220644 
L 315.292338 110.531495 
L 315.586729 107.811546 
L 315.645607 110.531495 
L 315.704485 107.34527 
L 315.763363 107.889259 
L 315.88112 107.889259 
L 316.057754 108.977239 
L 316.116633 113.096018 
L 316.175511 107.811546 
L 316.234389 109.987505 
L 316.352146 110.065218 
L 316.411024 111.541762 
L 316.469902 110.764633 
L 316.587659 110.764633 
L 316.646537 107.811546 
L 316.705415 108.277823 
L 316.764293 108.277823 
L 316.88205 107.733834 
L 316.940928 111.930326 
L 316.999806 111.7749 
L 317.117563 111.697187 
L 317.235319 112.008039 
L 317.353075 111.23091 
L 317.52971 111.852613 
L 317.588588 111.7749 
L 317.647467 111.7749 
L 317.765223 111.930326 
L 317.824101 111.852613 
L 317.88298 112.085751 
L 318.059614 111.464049 
L 318.118492 111.464049 
L 318.177371 111.930326 
L 318.236249 111.697187 
L 318.354005 108.821813 
L 318.53064 115.738254 
L 319.060544 83.487435 
L 319.237179 84.264563 
L 319.354935 84.342276 
L 319.472692 84.497701 
L 319.53157 84.18685 
L 319.649326 84.73084 
L 319.708205 84.73084 
L 319.767083 84.419988 
L 319.825961 84.886265 
L 319.943717 79.679507 
L 320.002596 80.068071 
L 320.061474 80.068071 
L 320.17923 79.21323 
L 320.414743 85.896532 
L 320.473622 81.777753 
L 320.5325 81.855465 
L 320.591378 81.933178 
L 320.709134 78.902378 
L 320.768013 78.591527 
L 320.944647 76.72642 
L 321.003526 76.959558 
L 321.121282 83.021158 
L 321.18016 83.021158 
L 321.239038 82.710306 
L 321.415673 79.990358 
L 321.53343 79.601794 
L 321.651186 79.679507 
L 321.827821 80.145783 
L 321.886699 73.928758 
L 321.945577 76.959558 
L 322.004455 76.959558 
L 322.063334 77.192696 
L 322.18109 75.560727 
L 322.298847 76.337855 
L 322.357725 75.793866 
L 322.416603 76.959558 
L 322.475481 72.60764 
L 322.534359 72.918491 
L 322.593238 73.307056 
L 322.652116 69.265989 
L 322.710994 71.752799 
L 322.769872 73.384768 
L 322.828751 72.296789 
L 322.946507 72.452215 
L 323.005385 75.016738 
L 323.064264 73.15163 
L 323.18202 75.016738 
L 323.299776 74.628173 
L 323.417533 74.705886 
L 323.476411 74.084184 
L 323.711924 82.632594 
L 323.888559 82.632594 
L 324.006315 82.399455 
L 324.065193 86.751373 
L 324.300706 68.566574 
L 324.359585 68.333435 
L 324.418463 68.411148 
L 324.595097 65.768912 
L 324.712854 65.613487 
L 324.771732 66.468328 
L 324.948367 72.685353 
L 325.066123 69.032851 
L 325.18388 69.421415 
L 325.242758 69.188276 
L 325.419393 69.57684 
L 325.537149 69.499128 
L 325.596027 70.043117 
L 325.654906 71.908225 
L 325.713784 71.752799 
L 325.83154 67.556307 
L 325.949297 72.763066 
L 326.125931 66.079764 
L 326.18481 65.924338 
L 326.361444 69.499128 
L 326.420322 70.043117 
L 326.479201 75.793866 
L 326.538079 72.685353 
L 326.714714 71.675086 
L 326.83247 71.675086 
L 326.950227 72.918491 
L 327.126861 72.918491 
L 327.185739 77.581261 
L 327.244618 76.415568 
L 327.303496 76.415568 
L 327.421252 76.104717 
L 327.539009 75.016738 
L 327.656765 71.20881 
L 327.8334 71.286522 
L 327.892278 71.053384 
L 328.010035 79.21323 
L 328.068913 79.057804 
L 328.186669 74.084184 
L 328.304426 73.928758 
L 328.422182 83.953712 
L 328.48106 83.565147 
L 328.657695 83.720573 
L 328.83433 82.554881 
L 328.952086 82.477168 
L 329.128721 90.559301 
L 329.187599 89.549034 
L 329.246477 89.859886 
L 329.305356 90.093024 
L 329.364234 90.015311 
L 329.48199 90.170737 
L 329.540869 89.937598 
L 329.599747 90.093024 
L 329.658625 90.015311 
L 329.776381 90.559301 
L 329.894138 87.683927 
L 329.953016 88.383342 
L 330.070773 81.000624 
L 330.188529 81.466901 
L 330.247407 81.466901 
L 330.306285 81.933178 
L 330.48292 76.027004 
L 330.541798 74.006471 
L 330.659555 77.736686 
L 330.718433 77.658973 
L 331.071702 81.622327 
L 331.130581 81.466901 
L 331.307215 81.70004 
L 331.424972 81.389189 
L 331.48385 84.963978 
L 331.542728 84.031424 
L 331.719363 83.875999 
L 331.778241 83.953712 
L 331.837119 86.829086 
L 331.895998 85.974245 
L 331.954876 86.051958 
L 332.013754 85.974245 
L 332.072632 85.974245 
L 332.190389 78.980091 
L 332.249267 78.202963 
L 332.308145 78.513814 
L 332.367023 78.513814 
L 332.425902 77.969825 
L 332.602536 82.554881 
L 332.779171 86.440522 
L 332.838049 86.440522 
L 332.896927 86.12967 
L 332.955806 86.285096 
L 333.014684 86.285096 
L 333.073562 86.595947 
L 333.13244 85.974245 
L 333.191319 86.051958 
L 333.426832 85.974245 
L 333.603466 93.590101 
L 333.780101 93.745527 
L 333.838979 95.999198 
L 334.074492 85.274829 
L 334.13337 85.352542 
L 334.251127 85.663394 
L 334.310005 85.663394 
L 334.368883 85.818819 
L 334.663274 94.911219 
L 334.722153 94.444942 
L 334.781031 94.211803 
L 334.898787 92.346696 
L 334.957665 94.367229 
L 335.016544 94.134091 
L 335.075422 93.823239 
L 335.252057 81.000624 
L 335.369813 80.689773 
L 335.428691 75.560727 
L 335.487569 75.871579 
L 335.605326 75.871579 
L 335.723082 77.037271 
L 335.781961 76.493281 
L 335.840839 78.436102 
L 335.899717 77.969825 
L 336.017474 76.18243 
L 336.076352 76.415568 
L 336.194108 73.15163 
L 336.370743 73.073917 
L 336.547378 73.073917 
L 336.665134 72.918491 
L 336.724012 69.809979 
L 336.78289 70.043117 
L 336.841769 70.043117 
L 336.900647 70.353969 
L 336.959525 60.406728 
L 337.018403 60.795292 
L 337.077282 60.639866 
L 337.195038 64.05923 
L 337.253916 64.05923 
L 337.371673 64.447794 
L 337.430551 64.447794 
L 337.489429 60.562154 
L 337.548307 61.650133 
L 337.607186 61.650133 
L 337.724942 54.034277 
L 337.78382 53.568 
L 337.842699 54.034277 
L 337.960455 72.296789 
L 338.078211 80.689773 
L 338.13709 80.61206 
L 338.195968 79.524081 
L 338.254846 70.509394 
L 338.313724 70.820245 
L 338.372603 70.975671 
L 338.431481 70.66482 
L 338.490359 65.768912 
L 338.549237 66.002051 
L 338.608116 65.768912 
L 338.843628 60.251302 
L 339.020263 61.183856 
L 339.079141 61.183856 
L 339.13802 61.02843 
L 339.196898 61.261569 
L 339.314654 73.15163 
L 339.491289 73.15163 
L 339.609045 83.720573 
L 339.726802 80.223496 
L 339.844558 80.456635 
L 339.962315 80.378922 
L 340.138949 79.912645 
L 340.256706 80.145783 
L 340.315584 80.068071 
L 340.374462 81.15605 
L 340.433341 80.61206 
L 340.551097 86.440522 
L 340.609975 86.595947 
L 340.727732 86.207383 
L 340.78661 86.984511 
L 341.022123 80.456635 
L 341.139879 80.456635 
L 341.198758 74.395035 
L 341.257636 79.524081 
L 341.493149 64.525507 
L 341.610905 68.255722 
L 341.669783 68.255722 
L 341.78754 68.100297 
L 341.964174 61.416995 
L 342.023053 61.416995 
L 342.081931 61.106143 
L 342.258566 69.887692 
L 342.317444 71.20881 
L 342.494079 63.903805 
L 342.611835 64.136943 
L 342.729591 60.484441 
L 342.906226 62.971251 
L 343.082861 61.416995 
L 343.259495 65.224923 
L 343.318374 65.380348 
L 343.377252 72.374502 
L 343.43613 71.908225 
L 343.612765 72.763066 
L 343.7894 90.326163 
L 344.083791 89.626747 
L 344.201547 91.181004 
L 344.260425 90.947865 
L 344.319304 92.268983 
L 344.378182 91.569568 
L 344.43706 100.506542 
L 344.495938 99.029998 
L 344.554817 99.029998 
L 344.731451 95.377496 
L 344.790329 98.408296 
L 344.849208 97.475742 
L 345.025842 98.486008 
L 345.084721 98.486008 
L 345.202477 98.719147 
L 345.379112 97.16489 
L 345.496868 93.512388 
L 345.614625 93.434675 
L 345.850138 93.667814 
L 345.909016 93.434675 
L 345.967894 96.154624 
L 346.026772 96.076911 
L 346.08565 96.076911 
L 346.144529 96.232337 
L 346.203407 96.154624 
L 346.262285 96.154624 
L 346.321163 96.465475 
L 346.380042 96.387762 
L 346.497798 102.527075 
L 346.556676 102.216224 
L 346.674433 95.299783 
L 346.792189 95.455208 
L 346.851067 95.610634 
L 346.968824 94.988932 
L 347.145459 95.066644 
L 347.263215 95.76606 
L 347.498728 95.688347 
L 347.616484 99.418562 
L 347.675363 99.496275 
L 347.851997 99.962552 
L 348.146388 99.962552 
L 348.264145 104.547608 
L 348.44078 104.003618 
L 348.558536 103.925906 
L 348.617414 103.381916 
L 348.735171 104.858459 
L 348.794049 104.858459 
L 348.852927 104.469895 
L 348.911805 100.895106 
L 348.970684 103.692767 
L 349.206196 103.615054 
L 349.323953 102.216224 
L 349.441709 102.6825 
L 349.618344 108.044685 
L 349.677222 107.966972 
L 349.736101 108.355536 
L 349.794979 108.200111 
L 349.853857 108.200111 
L 349.912735 108.821813 
L 349.971613 108.510962 
L 350.324883 96.620901 
L 350.383761 96.543188 
L 350.442639 96.620901 
L 350.560396 96.931752 
L 350.678152 96.543188 
L 350.73703 92.812973 
L 350.795909 106.25729 
L 350.854787 103.381916 
L 350.913665 105.7133 
L 350.972543 102.6825 
L 351.031422 102.915639 
L 351.0903 104.236757 
L 351.266934 99.340849 
L 351.384691 98.952285 
L 351.443569 99.496275 
L 351.502447 99.263137 
L 351.561326 99.029998 
L 351.679082 99.729413 
L 351.855717 99.651701 
L 351.914595 99.884839 
L 352.032351 105.635588 
L 352.208986 105.7133 
L 352.385621 104.858459 
L 352.562255 104.780747 
L 352.621134 104.625321 
L 352.680012 105.169311 
L 352.73889 105.091598 
L 352.856647 105.013885 
L 352.915525 107.267557 
L 352.974403 107.112131 
L 353.092159 106.878993 
L 353.151038 101.672234 
L 353.209916 102.138511 
L 353.268794 102.138511 
L 353.386551 102.604788 
L 353.563185 102.527075 
L 353.680942 102.216224 
L 353.857576 102.293936 
L 354.034211 102.371649 
L 354.093089 105.324736 
L 354.151968 105.247023 
L 354.269724 102.604788 
L 354.446359 102.604788 
L 354.564115 99.107711 
L 354.74075 99.185424 
L 354.858506 98.952285 
L 354.976263 95.22207 
L 355.035141 94.988932 
L 355.152897 95.921485 
L 355.329532 93.745527 
L 355.447289 93.512388 
L 355.623923 95.066644 
L 355.859436 87.139937 
L 356.271584 84.264563 
L 356.330462 84.419988 
L 356.448218 81.933178 
L 356.565975 86.207383 
L 356.74261 81.389189 
L 356.860366 81.389189 
L 356.919244 78.202963 
L 356.978122 78.358389 
L 357.095879 79.135517 
L 357.272514 79.135517 
L 357.331392 75.405302 
L 357.39027 78.358389 
L 357.449148 76.881845 
L 357.566905 70.66482 
L 357.625783 70.66482 
L 357.684661 71.364235 
L 357.743539 73.851045 
L 357.802418 73.384768 
L 358.096809 73.851045 
L 358.273443 71.286522 
L 358.332322 70.587107 
L 358.3912 70.66482 
L 358.450078 70.66482 
L 358.508956 70.509394 
L 358.626713 75.793866 
L 358.685591 70.587107 
L 358.744469 74.084184 
L 358.862226 74.084184 
L 358.921104 76.648707 
L 358.979982 76.027004 
L 359.03886 75.793866 
L 359.097739 71.985938 
L 359.215495 75.949291 
L 359.274373 75.871579 
L 359.333252 76.104717 
L 359.451008 73.462481 
L 359.509886 73.462481 
L 359.568764 77.192696 
L 359.627643 76.959558 
L 359.745399 76.337855 
L 359.863156 76.959558 
L 360.03979 80.223496 
L 360.098669 80.301209 
L 360.157547 88.771906 
L 360.216425 87.917065 
L 360.275303 87.917065 
L 360.451938 93.123824 
L 360.569694 87.606214 
L 360.922964 87.917065 
L 361.158477 87.528501 
L 361.217355 87.683927 
L 361.39399 95.066644 
L 361.511746 94.67808 
L 361.570624 97.553455 
L 361.629502 97.398029 
L 361.688381 97.16489 
L 361.806137 93.900952 
L 361.865015 93.900952 
L 361.923894 89.859886 
L 361.982772 90.015311 
L 362.04165 90.093024 
L 362.159406 92.424409 
L 362.218285 92.113557 
L 362.394919 90.714727 
L 362.453798 91.336429 
L 362.571554 89.393609 
L 362.630432 89.393609 
L 362.748189 82.788019 
L 362.807067 82.865732 
L 362.924823 82.554881 
L 362.983702 82.554881 
L 363.04258 82.710306 
L 363.101458 82.554881 
L 363.219215 82.554881 
L 363.395849 83.254296 
L 363.513606 83.098871 
L 363.631362 82.865732 
L 363.807997 87.062224 
L 363.925753 87.21765 
L 363.984632 88.305629 
L 364.04351 87.917065 
L 364.337901 87.450788 
L 364.573414 93.123824 
L 364.632292 92.579834 
L 364.69117 95.843773 
L 364.750048 95.455208 
L 364.808927 95.299783 
L 364.926683 102.371649 
L 364.985561 102.293936 
L 365.04444 102.293936 
L 365.279953 94.134091 
L 365.397709 94.134091 
L 365.574344 97.087178 
L 365.633222 97.553455 
L 365.6921 97.398029 
L 365.750978 97.398029 
L 365.868735 100.972819 
L 365.986491 100.19569 
L 366.163126 100.117978 
L 366.280882 100.040265 
L 366.339761 99.962552 
L 366.398639 92.502121 
L 366.457517 95.377496 
L 366.516395 95.299783 
L 366.575274 95.377496 
L 366.634152 95.377496 
L 366.69303 95.843773 
L 366.751908 95.455208 
L 366.869665 95.455208 
L 367.046299 94.522655 
L 367.164056 94.833506 
L 367.222934 94.833506 
L 367.458447 95.377496 
L 367.517325 97.864306 
L 367.69396 84.808553 
L 367.752838 84.808553 
L 367.811716 87.839352 
L 367.870595 87.76164 
L 367.929473 87.450788 
L 367.988351 87.528501 
L 368.164986 89.315896 
L 368.223864 89.315896 
L 368.282742 88.927332 
L 368.34162 89.005045 
L 368.400499 89.005045 
L 368.577133 88.305629 
L 368.636011 88.305629 
L 368.753768 89.549034 
L 368.871524 79.990358 
L 368.930403 80.068071 
L 368.989281 82.710306 
L 369.048159 82.010891 
L 369.107037 82.010891 
L 369.165916 72.296789 
L 369.224794 72.529927 
L 369.283672 72.840779 
L 369.34255 72.763066 
L 369.578063 72.452215 
L 369.636941 71.053384 
L 369.754698 63.515241 
L 369.872454 71.675086 
L 369.931332 71.675086 
L 370.049089 68.100297 
L 370.107967 68.100297 
L 370.225724 68.877425 
L 370.284602 74.705886 
L 370.34348 74.628173 
L 370.520115 74.550461 
L 370.578993 74.628173 
L 370.696749 79.990358 
L 370.755628 73.69562 
L 370.814506 76.104717 
L 370.932262 76.104717 
L 371.050019 75.63844 
L 371.167775 77.736686 
L 371.226653 77.736686 
L 371.34441 82.166317 
L 371.462166 81.933178 
L 371.579923 87.373075 
L 371.638801 85.274829 
L 371.697679 86.984511 
L 371.815436 95.688347 
L 371.99207 95.76606 
L 372.050949 95.843773 
L 372.168705 95.688347 
L 372.227583 98.097444 
L 372.286462 97.398029 
L 372.404218 97.398029 
L 372.698609 95.299783 
L 372.934122 95.22207 
L 372.993 101.594521 
L 373.051879 101.516808 
L 373.110757 101.516808 
L 373.287391 99.340849 
L 373.34627 99.651701 
L 373.405148 99.573988 
L 373.522904 88.461055 
L 373.640661 89.082757 
L 373.758417 87.450788 
L 373.935052 87.373075 
L 373.99393 87.76164 
L 374.052808 87.606214 
L 374.111687 87.76164 
L 374.288321 83.798286 
L 374.3472 83.64286 
L 374.464956 76.72642 
L 374.523834 76.72642 
L 374.641591 84.419988 
L 374.818225 84.342276 
L 374.877104 81.311476 
L 374.935982 81.622327 
L 375.112616 88.771906 
L 375.171495 88.771906 
L 375.289251 89.238183 
L 375.348129 88.849619 
L 375.407008 89.393609 
L 375.465886 89.315896 
L 375.583642 89.315896 
L 375.642521 88.072491 
L 375.701399 88.461055 
L 375.760277 88.461055 
L 375.878033 89.626747 
L 376.231303 89.626747 
L 376.290181 90.170737 
L 376.349059 94.67808 
L 376.525694 88.616481 
L 376.702329 83.565147 
L 376.761207 83.487435 
L 376.878963 89.082757 
L 376.937842 89.005045 
L 376.99672 83.720573 
L 377.055598 83.875999 
L 377.349989 83.875999 
L 377.408867 83.409722 
L 377.467746 84.18685 
L 377.526624 84.109137 
L 377.585502 84.109137 
L 377.64438 83.176583 
L 377.703258 83.64286 
L 377.762137 84.18685 
L 377.879893 88.461055 
L 377.938771 88.461055 
L 377.99765 89.315896 
L 378.056528 89.16047 
L 378.350919 89.082757 
L 378.527554 88.927332 
L 378.64531 89.782173 
L 378.704188 89.782173 
L 378.821945 93.978665 
L 378.939701 88.461055 
L 378.998579 88.461055 
L 379.234092 78.436102 
L 379.351849 89.549034 
L 379.410727 89.549034 
L 379.705118 88.616481 
L 379.822875 86.440522 
L 379.999509 89.549034 
L 380.058388 89.549034 
L 380.235022 86.984511 
L 380.411657 87.994778 
L 380.529413 87.994778 
L 380.706048 88.694193 
L 380.823805 88.383342 
L 380.941561 83.021158 
L 381.177074 92.579834 
L 381.235952 92.579834 
L 381.353709 92.890686 
L 381.471465 92.579834 
L 381.765856 92.579834 
L 381.824734 91.724993 
L 381.883613 96.232337 
L 381.942491 95.999198 
L 382.001369 95.999198 
L 382.236882 98.408296 
L 382.413517 99.029998 
L 382.472395 98.486008 
L 382.531273 98.563721 
L 382.64903 98.408296 
L 382.766786 98.952285 
L 382.825664 99.263137 
L 382.884542 98.019731 
L 383.002299 101.749947 
L 383.120055 101.439095 
L 383.178934 100.895106 
L 383.237812 102.293936 
L 383.355568 107.733834 
L 383.532203 107.889259 
L 383.649959 107.500695 
L 383.826594 97.942019 
L 383.944351 98.408296 
L 384.062107 105.091598 
L 384.238742 105.091598 
L 384.415376 104.936172 
L 384.592011 104.936172 
L 384.709768 105.247023 
L 384.827524 107.267557 
L 384.94528 117.991925 
L 385.180793 118.069638 
L 385.357428 117.137084 
L 385.592941 117.059372 
L 385.651819 116.826233 
L 385.710697 116.903946 
L 385.769576 116.903946 
L 386.005089 117.681074 
L 386.122845 117.447936 
L 386.240601 121.255864 
L 386.29948 121.255864 
L 386.417236 107.578408 
L 386.534993 107.733834 
L 386.652749 109.987505 
L 386.94714 109.987505 
L 387.064897 100.584254 
L 387.123775 100.506542 
L 387.30041 98.175157 
L 387.535922 97.942019 
L 387.653679 97.553455 
L 387.771435 90.015311 
L 387.94807 93.900952 
L 388.065826 93.978665 
L 388.242461 93.512388 
L 388.301339 93.823239 
L 388.360218 93.201537 
L 388.477974 90.015311 
L 388.536852 89.859886 
L 388.595731 93.434675 
L 388.654609 93.356962 
L 388.713487 92.968398 
L 388.949 93.823239 
L 389.066756 89.238183 
L 389.184513 92.113557 
L 389.243391 91.491855 
L 389.420026 88.694193 
L 389.655539 88.694193 
L 389.773295 92.657547 
L 389.832173 85.818819 
L 389.891052 92.968398 
L 389.94993 91.64728 
L 390.126564 91.64728 
L 390.185443 84.419988 
L 390.244321 85.119404 
L 390.303199 85.119404 
L 390.362077 85.741106 
L 390.420956 85.274829 
L 390.538712 89.471322 
L 390.715347 89.782173 
L 390.833103 82.477168 
L 390.891981 84.497701 
L 390.95086 84.653127 
L 391.127494 83.254296 
L 391.245251 90.714727 
L 391.304129 90.714727 
L 391.421885 84.109137 
L 391.539642 84.109137 
L 391.59852 84.264563 
L 391.716277 89.16047 
L 391.775155 89.16047 
L 391.834033 89.549034 
L 392.010668 87.917065 
L 392.128424 89.082757 
L 392.246181 88.771906 
L 392.422815 89.626747 
L 392.481694 89.626747 
L 392.776085 87.450788 
L 393.070476 93.27925 
L 393.24711 94.134091 
L 393.423745 93.978665 
L 393.482623 90.637014 
L 393.541502 95.76606 
L 393.659258 90.792439 
L 393.777015 94.833506 
L 394.012527 94.755793 
L 394.130284 95.610634 
L 394.189162 97.70888 
L 394.24804 92.113557 
L 394.306919 92.268983 
L 394.365797 92.890686 
L 394.424675 92.73526 
L 394.483553 92.73526 
L 394.660188 92.035845 
L 394.777944 88.150204 
L 395.072336 87.139937 
L 395.190092 87.683927 
L 395.366727 87.683927 
L 395.425605 90.170737 
L 395.60224 78.902378 
L 395.778874 78.202963 
L 395.837752 78.280676 
L 395.896631 78.202963 
L 395.955509 78.047537 
L 396.014387 73.928758 
L 396.132144 79.990358 
L 396.308778 79.990358 
L 396.367657 79.834932 
L 396.485413 78.436102 
L 396.544291 78.824666 
L 396.720926 82.166317 
L 396.838682 82.088604 
L 396.897561 78.66924 
L 397.015317 88.150204 
L 397.133073 88.150204 
L 397.191952 88.305629 
L 397.309708 86.595947 
L 397.368586 86.595947 
L 397.486343 88.927332 
L 397.604099 85.818819 
L 397.662978 93.356962 
L 397.721856 88.383342 
L 397.89849 88.305629 
L 397.957369 87.528501 
L 398.075125 92.890686 
L 398.134003 93.434675 
L 398.25176 90.481588 
L 398.310638 92.890686 
L 398.369516 90.637014 
L 398.428394 91.103291 
L 398.487273 91.103291 
L 398.487273 91.103291 
" clip-path="url(#p35103fa78e)" style="fill: none; stroke: #1f77b4; stroke-width: 1.5; stroke-linecap: square"/>
   </g>
   <g id="patch_3">
    <path d="M 57.6 307.584 
L 57.6 41.472 
" style="fill: none; stroke: #000000; stroke-width: 0.8; stroke-linejoin: miter; stroke-linecap: square"/>
   </g>
   <g id="patch_4">
    <path d="M 414.72 307.584 
L 414.72 41.472 
" style="fill: none; stroke: #000000; stroke-width: 0.8; stroke-linejoin: miter; stroke-linecap: square"/>
   </g>
   <g id="patch_5">
    <path d="M 57.6 307.584 
L 414.72 307.584 
" style="fill: none; stroke: #000000; stroke-width: 0.8; stroke-linejoin: miter; stroke-linecap: square"/>
   </g>
   <g id="patch_6">
    <path d="M 57.6 41.472 
L 414.72 41.472 
" style="fill: none; stroke: #000000; stroke-width: 0.8; stroke-linejoin: miter; stroke-linecap: square"/>
   </g>
   <g id="text_16">
    <!-- comp19 -->
    <g transform="translate(211.90125 35.472) scale(0.12 -0.12)">
     <defs>
      <path id="DejaVuSans-63" d="M 3122 3366 
L 3122 2828 
Q 2878 2963 2633 3030 
Q 2388 3097 2138 3097 
Q 1578 3097 1268 2742 
Q 959 2388 959 1747 
Q 959 1106 1268 751 
Q 1578 397 2138 397 
Q 2388 397 2633 464 
Q 2878 531 3122 666 
L 3122 134 
Q 2881 22 2623 -34 
Q 2366 -91 2075 -91 
Q 1284 -91 818 406 
Q 353 903 353 1747 
Q 353 2603 823 3093 
Q 1294 3584 2113 3584 
Q 2378 3584 2631 3529 
Q 2884 3475 3122 3366 
z
" transform="scale(0.015625)"/>
      <path id="DejaVuSans-70" d="M 1159 525 
L 1159 -1331 
L 581 -1331 
L 581 3500 
L 1159 3500 
L 1159 2969 
Q 1341 3281 1617 3432 
Q 1894 3584 2278 3584 
Q 2916 3584 3314 3078 
Q 3713 2572 3713 1747 
Q 3713 922 3314 415 
Q 2916 -91 2278 -91 
Q 1894 -91 1617 61 
Q 1341 213 1159 525 
z
M 3116 1747 
Q 3116 2381 2855 2742 
Q 2594 3103 2138 3103 
Q 1681 3103 1420 2742 
Q 1159 2381 1159 1747 
Q 1159 1113 1420 752 
Q 1681 391 2138 391 
Q 2594 391 2855 752 
Q 3116 1113 3116 1747 
z
" transform="scale(0.015625)"/>
      <path id="DejaVuSans-39" d="M 703 97 
L 703 672 
Q 941 559 1184 500 
Q 1428 441 1663 441 
Q 2288 441 2617 861 
Q 2947 1281 2994 2138 
Q 2813 1869 2534 1725 
Q 2256 1581 1919 1581 
Q 1219 1581 811 2004 
Q 403 2428 403 3163 
Q 403 3881 828 4315 
Q 1253 4750 1959 4750 
Q 2769 4750 3195 4129 
Q 3622 3509 3622 2328 
Q 3622 1225 3098 567 
Q 2575 -91 1691 -91 
Q 1453 -91 1209 -44 
Q 966 3 703 97 
z
M 1959 2075 
Q 2384 2075 2632 2365 
Q 2881 2656 2881 3163 
Q 2881 3666 2632 3958 
Q 2384 4250 1959 4250 
Q 1534 4250 1286 3958 
Q 1038 3666 1038 3163 
Q 1038 2656 1286 2365 
Q 1534 2075 1959 2075 
z
" transform="scale(0.015625)"/>
     </defs>
     <use xlink:href="#DejaVuSans-63"/>
     <use xlink:href="#DejaVuSans-6f" x="54.980469"/>
     <use xlink:href="#DejaVuSans-6d" x="116.162109"/>
     <use xlink:href="#DejaVuSans-70" x="213.574219"/>
     <use xlink:href="#DejaVuSans-31" x="277.050781"/>
     <use xlink:href="#DejaVuSans-39" x="340.673828"/>
    </g>
   </g>
  </g>
 </g>
 <defs>
  <clipPath id="p35103fa78e">
   <rect x="57.6" y="41.472" width="357.12" height="266.112"/>
  </clipPath>
 </defs>
</svg>
