<?xml version="1.0" encoding="utf-8" standalone="no"?>
<!DOCTYPE svg PUBLIC "-//W3C//DTD SVG 1.1//EN"
  "http://www.w3.org/Graphics/SVG/1.1/DTD/svg11.dtd">
<svg xmlns:xlink="http://www.w3.org/1999/xlink" width="460.8pt" height="345.6pt" viewBox="0 0 460.8 345.6" xmlns="http://www.w3.org/2000/svg" version="1.1">
 <metadata>
  <rdf:RDF xmlns:dc="http://purl.org/dc/elements/1.1/" xmlns:cc="http://creativecommons.org/ns#" xmlns:rdf="http://www.w3.org/1999/02/22-rdf-syntax-ns#">
   <cc:Work>
    <dc:type rdf:resource="http://purl.org/dc/dcmitype/StillImage"/>
    <dc:date>2023-12-03T18:15:54.747312</dc:date>
    <dc:format>image/svg+xml</dc:format>
    <dc:creator>
     <cc:Agent>
      <dc:title>Matplotlib v3.7.1, https://matplotlib.org/</dc:title>
     </cc:Agent>
    </dc:creator>
   </cc:Work>
  </rdf:RDF>
 </metadata>
 <defs>
  <style type="text/css">*{stroke-linejoin: round; stroke-linecap: butt}</style>
 </defs>
 <g id="figure_1">
  <g id="patch_1">
   <path d="M 0 345.6 
L 460.8 345.6 
L 460.8 0 
L 0 0 
z
" style="fill: #ffffff"/>
  </g>
  <g id="axes_1">
   <g id="patch_2">
    <path d="M 57.6 307.584 
L 414.72 307.584 
L 414.72 41.472 
L 57.6 41.472 
z
" style="fill: #ffffff"/>
   </g>
   <g id="matplotlib.axis_1">
    <g id="xtick_1">
     <g id="line2d_1">
      <defs>
       <path id="m9b768f6d7d" d="M 0 0 
L 0 3.5 
" style="stroke: #000000; stroke-width: 0.8"/>
      </defs>
      <g>
       <use xlink:href="#m9b768f6d7d" x="73.832727" y="307.584" style="stroke: #000000; stroke-width: 0.8"/>
      </g>
     </g>
     <g id="text_1">
      <!-- 0 -->
      <g transform="translate(70.651477 322.182437) scale(0.1 -0.1)">
       <defs>
        <path id="DejaVuSans-30" d="M 2034 4250 
Q 1547 4250 1301 3770 
Q 1056 3291 1056 2328 
Q 1056 1369 1301 889 
Q 1547 409 2034 409 
Q 2525 409 2770 889 
Q 3016 1369 3016 2328 
Q 3016 3291 2770 3770 
Q 2525 4250 2034 4250 
z
M 2034 4750 
Q 2819 4750 3233 4129 
Q 3647 3509 3647 2328 
Q 3647 1150 3233 529 
Q 2819 -91 2034 -91 
Q 1250 -91 836 529 
Q 422 1150 422 2328 
Q 422 3509 836 4129 
Q 1250 4750 2034 4750 
z
" transform="scale(0.015625)"/>
       </defs>
       <use xlink:href="#DejaVuSans-30"/>
      </g>
     </g>
    </g>
    <g id="xtick_2">
     <g id="line2d_2">
      <g>
       <use xlink:href="#m9b768f6d7d" x="118.269429" y="307.584" style="stroke: #000000; stroke-width: 0.8"/>
      </g>
     </g>
     <g id="text_2">
      <!-- 500 -->
      <g transform="translate(108.725679 322.182437) scale(0.1 -0.1)">
       <defs>
        <path id="DejaVuSans-35" d="M 691 4666 
L 3169 4666 
L 3169 4134 
L 1269 4134 
L 1269 2991 
Q 1406 3038 1543 3061 
Q 1681 3084 1819 3084 
Q 2600 3084 3056 2656 
Q 3513 2228 3513 1497 
Q 3513 744 3044 326 
Q 2575 -91 1722 -91 
Q 1428 -91 1123 -41 
Q 819 9 494 109 
L 494 744 
Q 775 591 1075 516 
Q 1375 441 1709 441 
Q 2250 441 2565 725 
Q 2881 1009 2881 1497 
Q 2881 1984 2565 2268 
Q 2250 2553 1709 2553 
Q 1456 2553 1204 2497 
Q 953 2441 691 2322 
L 691 4666 
z
" transform="scale(0.015625)"/>
       </defs>
       <use xlink:href="#DejaVuSans-35"/>
       <use xlink:href="#DejaVuSans-30" x="63.623047"/>
       <use xlink:href="#DejaVuSans-30" x="127.246094"/>
      </g>
     </g>
    </g>
    <g id="xtick_3">
     <g id="line2d_3">
      <g>
       <use xlink:href="#m9b768f6d7d" x="162.706131" y="307.584" style="stroke: #000000; stroke-width: 0.8"/>
      </g>
     </g>
     <g id="text_3">
      <!-- 1000 -->
      <g transform="translate(149.981131 322.182437) scale(0.1 -0.1)">
       <defs>
        <path id="DejaVuSans-31" d="M 794 531 
L 1825 531 
L 1825 4091 
L 703 3866 
L 703 4441 
L 1819 4666 
L 2450 4666 
L 2450 531 
L 3481 531 
L 3481 0 
L 794 0 
L 794 531 
z
" transform="scale(0.015625)"/>
       </defs>
       <use xlink:href="#DejaVuSans-31"/>
       <use xlink:href="#DejaVuSans-30" x="63.623047"/>
       <use xlink:href="#DejaVuSans-30" x="127.246094"/>
       <use xlink:href="#DejaVuSans-30" x="190.869141"/>
      </g>
     </g>
    </g>
    <g id="xtick_4">
     <g id="line2d_4">
      <g>
       <use xlink:href="#m9b768f6d7d" x="207.142834" y="307.584" style="stroke: #000000; stroke-width: 0.8"/>
      </g>
     </g>
     <g id="text_4">
      <!-- 1500 -->
      <g transform="translate(194.417834 322.182437) scale(0.1 -0.1)">
       <use xlink:href="#DejaVuSans-31"/>
       <use xlink:href="#DejaVuSans-35" x="63.623047"/>
       <use xlink:href="#DejaVuSans-30" x="127.246094"/>
       <use xlink:href="#DejaVuSans-30" x="190.869141"/>
      </g>
     </g>
    </g>
    <g id="xtick_5">
     <g id="line2d_5">
      <g>
       <use xlink:href="#m9b768f6d7d" x="251.579536" y="307.584" style="stroke: #000000; stroke-width: 0.8"/>
      </g>
     </g>
     <g id="text_5">
      <!-- 2000 -->
      <g transform="translate(238.854536 322.182437) scale(0.1 -0.1)">
       <defs>
        <path id="DejaVuSans-32" d="M 1228 531 
L 3431 531 
L 3431 0 
L 469 0 
L 469 531 
Q 828 903 1448 1529 
Q 2069 2156 2228 2338 
Q 2531 2678 2651 2914 
Q 2772 3150 2772 3378 
Q 2772 3750 2511 3984 
Q 2250 4219 1831 4219 
Q 1534 4219 1204 4116 
Q 875 4013 500 3803 
L 500 4441 
Q 881 4594 1212 4672 
Q 1544 4750 1819 4750 
Q 2544 4750 2975 4387 
Q 3406 4025 3406 3419 
Q 3406 3131 3298 2873 
Q 3191 2616 2906 2266 
Q 2828 2175 2409 1742 
Q 1991 1309 1228 531 
z
" transform="scale(0.015625)"/>
       </defs>
       <use xlink:href="#DejaVuSans-32"/>
       <use xlink:href="#DejaVuSans-30" x="63.623047"/>
       <use xlink:href="#DejaVuSans-30" x="127.246094"/>
       <use xlink:href="#DejaVuSans-30" x="190.869141"/>
      </g>
     </g>
    </g>
    <g id="xtick_6">
     <g id="line2d_6">
      <g>
       <use xlink:href="#m9b768f6d7d" x="296.016238" y="307.584" style="stroke: #000000; stroke-width: 0.8"/>
      </g>
     </g>
     <g id="text_6">
      <!-- 2500 -->
      <g transform="translate(283.291238 322.182437) scale(0.1 -0.1)">
       <use xlink:href="#DejaVuSans-32"/>
       <use xlink:href="#DejaVuSans-35" x="63.623047"/>
       <use xlink:href="#DejaVuSans-30" x="127.246094"/>
       <use xlink:href="#DejaVuSans-30" x="190.869141"/>
      </g>
     </g>
    </g>
    <g id="xtick_7">
     <g id="line2d_7">
      <g>
       <use xlink:href="#m9b768f6d7d" x="340.45294" y="307.584" style="stroke: #000000; stroke-width: 0.8"/>
      </g>
     </g>
     <g id="text_7">
      <!-- 3000 -->
      <g transform="translate(327.72794 322.182437) scale(0.1 -0.1)">
       <defs>
        <path id="DejaVuSans-33" d="M 2597 2516 
Q 3050 2419 3304 2112 
Q 3559 1806 3559 1356 
Q 3559 666 3084 287 
Q 2609 -91 1734 -91 
Q 1441 -91 1130 -33 
Q 819 25 488 141 
L 488 750 
Q 750 597 1062 519 
Q 1375 441 1716 441 
Q 2309 441 2620 675 
Q 2931 909 2931 1356 
Q 2931 1769 2642 2001 
Q 2353 2234 1838 2234 
L 1294 2234 
L 1294 2753 
L 1863 2753 
Q 2328 2753 2575 2939 
Q 2822 3125 2822 3475 
Q 2822 3834 2567 4026 
Q 2313 4219 1838 4219 
Q 1578 4219 1281 4162 
Q 984 4106 628 3988 
L 628 4550 
Q 988 4650 1302 4700 
Q 1616 4750 1894 4750 
Q 2613 4750 3031 4423 
Q 3450 4097 3450 3541 
Q 3450 3153 3228 2886 
Q 3006 2619 2597 2516 
z
" transform="scale(0.015625)"/>
       </defs>
       <use xlink:href="#DejaVuSans-33"/>
       <use xlink:href="#DejaVuSans-30" x="63.623047"/>
       <use xlink:href="#DejaVuSans-30" x="127.246094"/>
       <use xlink:href="#DejaVuSans-30" x="190.869141"/>
      </g>
     </g>
    </g>
    <g id="xtick_8">
     <g id="line2d_8">
      <g>
       <use xlink:href="#m9b768f6d7d" x="384.889642" y="307.584" style="stroke: #000000; stroke-width: 0.8"/>
      </g>
     </g>
     <g id="text_8">
      <!-- 3500 -->
      <g transform="translate(372.164642 322.182437) scale(0.1 -0.1)">
       <use xlink:href="#DejaVuSans-33"/>
       <use xlink:href="#DejaVuSans-35" x="63.623047"/>
       <use xlink:href="#DejaVuSans-30" x="127.246094"/>
       <use xlink:href="#DejaVuSans-30" x="190.869141"/>
      </g>
     </g>
    </g>
    <g id="text_9">
     <!-- iteration -->
     <g transform="translate(215.037344 335.860562) scale(0.1 -0.1)">
      <defs>
       <path id="DejaVuSans-69" d="M 603 3500 
L 1178 3500 
L 1178 0 
L 603 0 
L 603 3500 
z
M 603 4863 
L 1178 4863 
L 1178 4134 
L 603 4134 
L 603 4863 
z
" transform="scale(0.015625)"/>
       <path id="DejaVuSans-74" d="M 1172 4494 
L 1172 3500 
L 2356 3500 
L 2356 3053 
L 1172 3053 
L 1172 1153 
Q 1172 725 1289 603 
Q 1406 481 1766 481 
L 2356 481 
L 2356 0 
L 1766 0 
Q 1100 0 847 248 
Q 594 497 594 1153 
L 594 3053 
L 172 3053 
L 172 3500 
L 594 3500 
L 594 4494 
L 1172 4494 
z
" transform="scale(0.015625)"/>
       <path id="DejaVuSans-65" d="M 3597 1894 
L 3597 1613 
L 953 1613 
Q 991 1019 1311 708 
Q 1631 397 2203 397 
Q 2534 397 2845 478 
Q 3156 559 3463 722 
L 3463 178 
Q 3153 47 2828 -22 
Q 2503 -91 2169 -91 
Q 1331 -91 842 396 
Q 353 884 353 1716 
Q 353 2575 817 3079 
Q 1281 3584 2069 3584 
Q 2775 3584 3186 3129 
Q 3597 2675 3597 1894 
z
M 3022 2063 
Q 3016 2534 2758 2815 
Q 2500 3097 2075 3097 
Q 1594 3097 1305 2825 
Q 1016 2553 972 2059 
L 3022 2063 
z
" transform="scale(0.015625)"/>
       <path id="DejaVuSans-72" d="M 2631 2963 
Q 2534 3019 2420 3045 
Q 2306 3072 2169 3072 
Q 1681 3072 1420 2755 
Q 1159 2438 1159 1844 
L 1159 0 
L 581 0 
L 581 3500 
L 1159 3500 
L 1159 2956 
Q 1341 3275 1631 3429 
Q 1922 3584 2338 3584 
Q 2397 3584 2469 3576 
Q 2541 3569 2628 3553 
L 2631 2963 
z
" transform="scale(0.015625)"/>
       <path id="DejaVuSans-61" d="M 2194 1759 
Q 1497 1759 1228 1600 
Q 959 1441 959 1056 
Q 959 750 1161 570 
Q 1363 391 1709 391 
Q 2188 391 2477 730 
Q 2766 1069 2766 1631 
L 2766 1759 
L 2194 1759 
z
M 3341 1997 
L 3341 0 
L 2766 0 
L 2766 531 
Q 2569 213 2275 61 
Q 1981 -91 1556 -91 
Q 1019 -91 701 211 
Q 384 513 384 1019 
Q 384 1609 779 1909 
Q 1175 2209 1959 2209 
L 2766 2209 
L 2766 2266 
Q 2766 2663 2505 2880 
Q 2244 3097 1772 3097 
Q 1472 3097 1187 3025 
Q 903 2953 641 2809 
L 641 3341 
Q 956 3463 1253 3523 
Q 1550 3584 1831 3584 
Q 2591 3584 2966 3190 
Q 3341 2797 3341 1997 
z
" transform="scale(0.015625)"/>
       <path id="DejaVuSans-6f" d="M 1959 3097 
Q 1497 3097 1228 2736 
Q 959 2375 959 1747 
Q 959 1119 1226 758 
Q 1494 397 1959 397 
Q 2419 397 2687 759 
Q 2956 1122 2956 1747 
Q 2956 2369 2687 2733 
Q 2419 3097 1959 3097 
z
M 1959 3584 
Q 2709 3584 3137 3096 
Q 3566 2609 3566 1747 
Q 3566 888 3137 398 
Q 2709 -91 1959 -91 
Q 1206 -91 779 398 
Q 353 888 353 1747 
Q 353 2609 779 3096 
Q 1206 3584 1959 3584 
z
" transform="scale(0.015625)"/>
       <path id="DejaVuSans-6e" d="M 3513 2113 
L 3513 0 
L 2938 0 
L 2938 2094 
Q 2938 2591 2744 2837 
Q 2550 3084 2163 3084 
Q 1697 3084 1428 2787 
Q 1159 2491 1159 1978 
L 1159 0 
L 581 0 
L 581 3500 
L 1159 3500 
L 1159 2956 
Q 1366 3272 1645 3428 
Q 1925 3584 2291 3584 
Q 2894 3584 3203 3211 
Q 3513 2838 3513 2113 
z
" transform="scale(0.015625)"/>
      </defs>
      <use xlink:href="#DejaVuSans-69"/>
      <use xlink:href="#DejaVuSans-74" x="27.783203"/>
      <use xlink:href="#DejaVuSans-65" x="66.992188"/>
      <use xlink:href="#DejaVuSans-72" x="128.515625"/>
      <use xlink:href="#DejaVuSans-61" x="169.628906"/>
      <use xlink:href="#DejaVuSans-74" x="230.908203"/>
      <use xlink:href="#DejaVuSans-69" x="270.117188"/>
      <use xlink:href="#DejaVuSans-6f" x="297.900391"/>
      <use xlink:href="#DejaVuSans-6e" x="359.082031"/>
     </g>
    </g>
   </g>
   <g id="matplotlib.axis_2">
    <g id="ytick_1">
     <g id="line2d_9">
      <defs>
       <path id="m2ad6880405" d="M 0 0 
L -3.5 0 
" style="stroke: #000000; stroke-width: 0.8"/>
      </defs>
      <g>
       <use xlink:href="#m2ad6880405" x="57.6" y="270.482824" style="stroke: #000000; stroke-width: 0.8"/>
      </g>
     </g>
     <g id="text_10">
      <!-- 500 -->
      <g transform="translate(31.5125 274.282042) scale(0.1 -0.1)">
       <use xlink:href="#DejaVuSans-35"/>
       <use xlink:href="#DejaVuSans-30" x="63.623047"/>
       <use xlink:href="#DejaVuSans-30" x="127.246094"/>
      </g>
     </g>
    </g>
    <g id="ytick_2">
     <g id="line2d_10">
      <g>
       <use xlink:href="#m2ad6880405" x="57.6" y="219.659294" style="stroke: #000000; stroke-width: 0.8"/>
      </g>
     </g>
     <g id="text_11">
      <!-- 1000 -->
      <g transform="translate(25.15 223.458513) scale(0.1 -0.1)">
       <use xlink:href="#DejaVuSans-31"/>
       <use xlink:href="#DejaVuSans-30" x="63.623047"/>
       <use xlink:href="#DejaVuSans-30" x="127.246094"/>
       <use xlink:href="#DejaVuSans-30" x="190.869141"/>
      </g>
     </g>
    </g>
    <g id="ytick_3">
     <g id="line2d_11">
      <g>
       <use xlink:href="#m2ad6880405" x="57.6" y="168.835765" style="stroke: #000000; stroke-width: 0.8"/>
      </g>
     </g>
     <g id="text_12">
      <!-- 1500 -->
      <g transform="translate(25.15 172.634983) scale(0.1 -0.1)">
       <use xlink:href="#DejaVuSans-31"/>
       <use xlink:href="#DejaVuSans-35" x="63.623047"/>
       <use xlink:href="#DejaVuSans-30" x="127.246094"/>
       <use xlink:href="#DejaVuSans-30" x="190.869141"/>
      </g>
     </g>
    </g>
    <g id="ytick_4">
     <g id="line2d_12">
      <g>
       <use xlink:href="#m2ad6880405" x="57.6" y="118.012235" style="stroke: #000000; stroke-width: 0.8"/>
      </g>
     </g>
     <g id="text_13">
      <!-- 2000 -->
      <g transform="translate(25.15 121.811454) scale(0.1 -0.1)">
       <use xlink:href="#DejaVuSans-32"/>
       <use xlink:href="#DejaVuSans-30" x="63.623047"/>
       <use xlink:href="#DejaVuSans-30" x="127.246094"/>
       <use xlink:href="#DejaVuSans-30" x="190.869141"/>
      </g>
     </g>
    </g>
    <g id="ytick_5">
     <g id="line2d_13">
      <g>
       <use xlink:href="#m2ad6880405" x="57.6" y="67.188706" style="stroke: #000000; stroke-width: 0.8"/>
      </g>
     </g>
     <g id="text_14">
      <!-- 2500 -->
      <g transform="translate(25.15 70.987925) scale(0.1 -0.1)">
       <use xlink:href="#DejaVuSans-32"/>
       <use xlink:href="#DejaVuSans-35" x="63.623047"/>
       <use xlink:href="#DejaVuSans-30" x="127.246094"/>
       <use xlink:href="#DejaVuSans-30" x="190.869141"/>
      </g>
     </g>
    </g>
    <g id="text_15">
     <!-- best fitness of swarm -->
     <g transform="translate(19.070312 228.0905) rotate(-90) scale(0.1 -0.1)">
      <defs>
       <path id="DejaVuSans-62" d="M 3116 1747 
Q 3116 2381 2855 2742 
Q 2594 3103 2138 3103 
Q 1681 3103 1420 2742 
Q 1159 2381 1159 1747 
Q 1159 1113 1420 752 
Q 1681 391 2138 391 
Q 2594 391 2855 752 
Q 3116 1113 3116 1747 
z
M 1159 2969 
Q 1341 3281 1617 3432 
Q 1894 3584 2278 3584 
Q 2916 3584 3314 3078 
Q 3713 2572 3713 1747 
Q 3713 922 3314 415 
Q 2916 -91 2278 -91 
Q 1894 -91 1617 61 
Q 1341 213 1159 525 
L 1159 0 
L 581 0 
L 581 4863 
L 1159 4863 
L 1159 2969 
z
" transform="scale(0.015625)"/>
       <path id="DejaVuSans-73" d="M 2834 3397 
L 2834 2853 
Q 2591 2978 2328 3040 
Q 2066 3103 1784 3103 
Q 1356 3103 1142 2972 
Q 928 2841 928 2578 
Q 928 2378 1081 2264 
Q 1234 2150 1697 2047 
L 1894 2003 
Q 2506 1872 2764 1633 
Q 3022 1394 3022 966 
Q 3022 478 2636 193 
Q 2250 -91 1575 -91 
Q 1294 -91 989 -36 
Q 684 19 347 128 
L 347 722 
Q 666 556 975 473 
Q 1284 391 1588 391 
Q 1994 391 2212 530 
Q 2431 669 2431 922 
Q 2431 1156 2273 1281 
Q 2116 1406 1581 1522 
L 1381 1569 
Q 847 1681 609 1914 
Q 372 2147 372 2553 
Q 372 3047 722 3315 
Q 1072 3584 1716 3584 
Q 2034 3584 2315 3537 
Q 2597 3491 2834 3397 
z
" transform="scale(0.015625)"/>
       <path id="DejaVuSans-20" transform="scale(0.015625)"/>
       <path id="DejaVuSans-66" d="M 2375 4863 
L 2375 4384 
L 1825 4384 
Q 1516 4384 1395 4259 
Q 1275 4134 1275 3809 
L 1275 3500 
L 2222 3500 
L 2222 3053 
L 1275 3053 
L 1275 0 
L 697 0 
L 697 3053 
L 147 3053 
L 147 3500 
L 697 3500 
L 697 3744 
Q 697 4328 969 4595 
Q 1241 4863 1831 4863 
L 2375 4863 
z
" transform="scale(0.015625)"/>
       <path id="DejaVuSans-77" d="M 269 3500 
L 844 3500 
L 1563 769 
L 2278 3500 
L 2956 3500 
L 3675 769 
L 4391 3500 
L 4966 3500 
L 4050 0 
L 3372 0 
L 2619 2869 
L 1863 0 
L 1184 0 
L 269 3500 
z
" transform="scale(0.015625)"/>
       <path id="DejaVuSans-6d" d="M 3328 2828 
Q 3544 3216 3844 3400 
Q 4144 3584 4550 3584 
Q 5097 3584 5394 3201 
Q 5691 2819 5691 2113 
L 5691 0 
L 5113 0 
L 5113 2094 
Q 5113 2597 4934 2840 
Q 4756 3084 4391 3084 
Q 3944 3084 3684 2787 
Q 3425 2491 3425 1978 
L 3425 0 
L 2847 0 
L 2847 2094 
Q 2847 2600 2669 2842 
Q 2491 3084 2119 3084 
Q 1678 3084 1418 2786 
Q 1159 2488 1159 1978 
L 1159 0 
L 581 0 
L 581 3500 
L 1159 3500 
L 1159 2956 
Q 1356 3278 1631 3431 
Q 1906 3584 2284 3584 
Q 2666 3584 2933 3390 
Q 3200 3197 3328 2828 
z
" transform="scale(0.015625)"/>
      </defs>
      <use xlink:href="#DejaVuSans-62"/>
      <use xlink:href="#DejaVuSans-65" x="63.476562"/>
      <use xlink:href="#DejaVuSans-73" x="125"/>
      <use xlink:href="#DejaVuSans-74" x="177.099609"/>
      <use xlink:href="#DejaVuSans-20" x="216.308594"/>
      <use xlink:href="#DejaVuSans-66" x="248.095703"/>
      <use xlink:href="#DejaVuSans-69" x="283.300781"/>
      <use xlink:href="#DejaVuSans-74" x="311.083984"/>
      <use xlink:href="#DejaVuSans-6e" x="350.292969"/>
      <use xlink:href="#DejaVuSans-65" x="413.671875"/>
      <use xlink:href="#DejaVuSans-73" x="475.195312"/>
      <use xlink:href="#DejaVuSans-73" x="527.294922"/>
      <use xlink:href="#DejaVuSans-20" x="579.394531"/>
      <use xlink:href="#DejaVuSans-6f" x="611.181641"/>
      <use xlink:href="#DejaVuSans-66" x="672.363281"/>
      <use xlink:href="#DejaVuSans-20" x="707.568359"/>
      <use xlink:href="#DejaVuSans-73" x="739.355469"/>
      <use xlink:href="#DejaVuSans-77" x="791.455078"/>
      <use xlink:href="#DejaVuSans-61" x="873.242188"/>
      <use xlink:href="#DejaVuSans-72" x="934.521484"/>
      <use xlink:href="#DejaVuSans-6d" x="973.884766"/>
     </g>
    </g>
   </g>
   <g id="line2d_14">
    <path d="M 73.832727 295.488 
L 74.010474 295.488 
L 74.188221 295.183059 
L 74.365968 292.133647 
L 74.810335 292.133647 
L 75.076955 289.592471 
L 75.343575 289.592471 
L 75.521322 289.185882 
L 75.699069 289.084235 
L 75.787942 289.084235 
L 75.965689 288.474353 
L 76.498929 288.474353 
L 76.676676 287.559529 
L 76.76555 288.169412 
L 76.943296 287.661176 
L 77.29879 287.661176 
L 77.476537 283.392 
L 77.56541 283.392 
L 77.743157 280.647529 
L 77.83203 280.037647 
L 77.920904 278.208 
L 78.009777 278.411294 
L 78.187524 278.411294 
L 78.365271 277.394824 
L 78.454144 277.191529 
L 78.720765 276.073412 
L 78.898511 275.768471 
L 79.076258 276.378353 
L 79.254005 276.073412 
L 79.431752 276.276706 
L 79.609499 276.276706 
L 80.320486 262.554353 
L 80.409359 253.609412 
L 80.498233 253.711059 
L 80.587106 253.711059 
L 80.853726 250.966588 
L 80.9426 250.966588 
L 81.120346 243.444706 
L 81.386967 243.343059 
L 81.564713 240.090353 
L 81.74246 249.340235 
L 81.920207 249.136941 
L 82.097954 248.832 
L 82.275701 243.343059 
L 82.364574 243.343059 
L 82.453447 239.582118 
L 82.542321 239.887059 
L 82.720068 239.785412 
L 82.897814 241.310118 
L 82.986688 241.310118 
L 83.253308 234.296471 
L 83.431055 234.296471 
L 83.608802 221.082353 
L 83.786549 220.167529 
L 84.142042 220.167529 
L 84.319789 219.964235 
L 84.586409 219.964235 
L 85.11965 207.156706 
L 85.208523 205.632 
L 85.38627 195.060706 
L 85.475143 195.060706 
L 85.65289 193.332706 
L 85.741763 193.332706 
L 85.830637 193.536 
L 86.008384 190.384941 
L 86.18613 191.096471 
L 86.275004 191.299765 
L 86.452751 191.198118 
L 86.541624 191.198118 
L 86.630497 193.231059 
L 87.074864 179.813647 
L 87.341485 179.813647 
L 87.430358 181.744941 
L 87.608105 180.118588 
L 87.874725 180.525176 
L 88.319092 177.679059 
L 88.496839 173.308235 
L 88.585712 173.206588 
L 88.674586 172.495059 
L 88.852333 174.121412 
L 89.030079 173.613176 
L 89.207826 170.665412 
L 89.2967 178.390588 
L 89.385573 174.731294 
L 89.474446 175.341176 
L 89.56332 174.934588 
L 89.652193 175.646118 
L 89.741067 164.973176 
L 89.918813 170.258824 
L 90.09656 168.734118 
L 90.185434 169.852235 
L 90.36318 163.448471 
L 90.540927 163.448471 
L 90.629801 168.530824 
L 90.718674 167.819294 
L 90.896421 167.819294 
L 91.074168 166.192941 
L 91.251914 171.072 
L 91.607408 171.072 
L 91.785155 169.648941 
L 91.962902 169.344 
L 92.051775 169.852235 
L 92.140649 169.648941 
L 92.229522 168.225882 
L 92.318395 168.429176 
L 92.407269 168.429176 
L 92.496142 168.632471 
L 92.585016 167.616 
L 92.762762 163.855059 
L 92.851636 163.855059 
L 93.029383 156.739765 
L 93.118256 162.228706 
L 93.207129 161.517176 
L 93.296003 162.838588 
L 93.47375 161.212235 
L 93.562623 161.313882 
L 93.74037 151.047529 
L 93.829243 151.149176 
L 93.918117 151.352471 
L 94.00699 149.827765 
L 94.184737 152.877176 
L 94.27361 152.775529 
L 94.362484 150.336 
L 94.451357 157.756235 
L 94.54023 156.231529 
L 94.717977 156.231529 
L 94.806851 155.215059 
L 94.895724 155.316706 
L 94.984597 155.316706 
L 95.162344 158.976 
L 95.251218 158.976 
L 95.428964 158.264471 
L 95.517838 158.264471 
L 95.695585 150.437647 
L 95.873332 150.945882 
L 96.051078 150.945882 
L 96.139952 151.555765 
L 96.317699 150.031059 
L 96.406572 149.929412 
L 96.495445 149.624471 
L 96.673192 155.418353 
L 96.762066 155.418353 
L 96.850939 155.723294 
L 97.028686 153.690353 
L 97.117559 153.690353 
L 97.206433 147.693176 
L 97.295306 147.794824 
L 97.384179 147.794824 
L 97.561926 152.877176 
L 97.739673 146.168471 
L 97.828546 146.778353 
L 98.006293 144.948706 
L 98.095167 144.948706 
L 98.272913 140.476235 
L 98.361787 141.289412 
L 98.45066 140.882824 
L 98.539534 140.984471 
L 98.628407 140.882824 
L 98.806154 139.764706 
L 98.895027 139.764706 
L 99.072774 143.627294 
L 99.161647 143.424 
L 99.250521 144.237176 
L 99.339394 143.627294 
L 99.517141 141.391059 
L 99.606014 141.391059 
L 99.694888 141.696 
L 99.872635 140.781176 
L 100.050382 140.882824 
L 100.228128 140.272941 
L 100.317002 140.374588 
L 100.405875 140.984471 
L 100.494749 140.171294 
L 100.583622 141.492706 
L 100.761369 138.748235 
L 101.027989 137.833412 
L 101.205736 138.849882 
L 101.294609 138.849882 
L 101.383483 139.561412 
L 101.561229 134.987294 
L 101.650103 134.987294 
L 101.82785 140.272941 
L 102.005596 139.866353 
L 102.183343 140.679529 
L 102.449963 138.036706 
L 102.538837 137.833412 
L 102.62771 146.778353 
L 102.716584 146.270118 
L 102.805457 146.270118 
L 102.89433 145.355294 
L 102.983204 145.660235 
L 103.072077 150.437647 
L 103.338697 142.509176 
L 103.427571 142.712471 
L 103.516444 142.712471 
L 103.605318 143.932235 
L 103.783064 139.866353 
L 103.871938 139.968 
L 103.960811 135.597176 
L 104.049685 138.748235 
L 104.138558 138.443294 
L 104.227432 140.882824 
L 104.316305 133.970824 
L 104.405178 134.479059 
L 104.494052 133.564235 
L 104.582925 128.888471 
L 104.671799 129.498353 
L 104.938419 125.737412 
L 105.027292 127.465412 
L 105.116166 126.753882 
L 105.205039 129.091765 
L 105.382786 125.534118 
L 105.560533 125.025882 
L 105.649406 122.281412 
L 105.916026 128.380235 
L 106.0049 127.668706 
L 106.093773 125.432471 
L 106.27152 126.347294 
L 106.360393 126.347294 
L 106.53814 131.124706 
L 106.627013 131.124706 
L 106.715887 130.616471 
L 106.893634 139.256471 
L 106.982507 139.256471 
L 107.07138 136.918588 
L 107.249127 138.443294 
L 107.338001 137.731765 
L 107.604621 138.646588 
L 107.693494 137.426824 
L 107.782368 138.036706 
L 107.960114 137.528471 
L 108.137861 139.663059 
L 108.315608 131.124706 
L 108.404481 131.124706 
L 108.582228 129.6 
L 108.759975 129.6 
L 108.937722 128.786824 
L 109.026595 128.786824 
L 109.115469 128.278588 
L 109.293216 130.718118 
L 109.382089 130.718118 
L 109.470962 128.990118 
L 109.648709 139.256471 
L 109.737583 139.256471 
L 109.915329 141.899294 
L 110.004203 140.476235 
L 110.093076 140.781176 
L 110.18195 140.781176 
L 110.359696 138.544941 
L 110.626317 138.544941 
L 110.71519 138.748235 
L 110.804063 140.374588 
L 110.892937 139.663059 
L 111.070684 136.918588 
L 111.159557 138.748235 
L 111.24843 138.341647 
L 111.426177 140.781176 
L 111.603924 140.781176 
L 111.692797 141.086118 
L 111.870544 140.781176 
L 111.959418 140.781176 
L 112.048291 143.627294 
L 112.137164 143.220706 
L 112.226038 143.220706 
L 112.314911 147.693176 
L 112.581531 140.374588 
L 112.670405 140.374588 
L 112.759278 140.679529 
L 112.848152 140.577882 
L 113.114772 130.819765 
L 113.203645 130.819765 
L 113.292519 129.803294 
L 113.470266 137.121882 
L 113.559139 136.918588 
L 113.736886 143.220706 
L 113.914633 142.712471 
L 114.003506 142.712471 
L 114.092379 142.915765 
L 114.181253 142.610824 
L 114.359 148.201412 
L 114.447873 148.201412 
L 114.536746 149.624471 
L 114.714493 148.506353 
L 114.803367 148.506353 
L 114.89224 148.709647 
L 115.069987 146.88 
L 115.42548 153.690353 
L 115.603227 153.385412 
L 115.692101 153.487059 
L 115.869847 150.844235 
L 116.047594 150.234353 
L 116.225341 142.915765 
L 116.403088 144.745412 
L 116.491961 144.745412 
L 116.669708 145.660235 
L 116.847455 145.660235 
L 116.936328 139.256471 
L 117.025202 142.814118 
L 117.114075 139.764706 
L 117.202949 143.627294 
L 117.291822 143.525647 
L 117.469569 143.525647 
L 117.647316 150.945882 
L 117.736189 150.945882 
L 117.825062 150.742588 
L 118.180556 142.305882 
L 118.358303 142.814118 
L 118.447176 137.528471 
L 118.53605 137.731765 
L 118.624923 137.731765 
L 118.80267 141.391059 
L 119.06929 141.289412 
L 119.247037 142.000941 
L 119.33591 141.797647 
L 119.424784 142.000941 
L 119.60253 152.673882 
L 119.691404 151.047529 
L 119.780277 151.250824 
L 119.958024 142.305882 
L 120.046897 142.509176 
L 120.224644 140.272941 
L 120.313518 140.272941 
L 120.669011 123.196235 
L 120.757885 123.196235 
L 120.846758 123.602824 
L 121.113378 121.976471 
L 121.291125 122.281412 
L 121.468872 122.179765 
L 121.557745 125.635765 
L 121.735492 122.586353 
L 121.824366 127.262118 
L 121.913239 126.753882 
L 122.002112 128.075294 
L 122.268733 119.435294 
L 122.446479 120.146824 
L 122.624226 122.586353 
L 122.7131 122.586353 
L 122.890846 124.517647 
L 123.068593 112.726588 
L 123.24634 115.369412 
L 123.51296 115.166118 
L 123.601834 114.556235 
L 123.77958 119.841882 
L 123.957327 116.080941 
L 124.046201 119.536941 
L 124.135074 110.388706 
L 124.312821 113.844706 
L 124.934935 116.182588 
L 125.112681 109.473882 
L 125.290428 109.168941 
L 125.379302 110.795294 
L 125.468175 103.273412 
L 125.557049 103.984941 
L 125.734795 101.850353 
L 125.823669 102.358588 
L 126.001416 102.256941 
L 126.179162 102.968471 
L 126.356909 102.358588 
L 126.445783 102.358588 
L 126.623529 101.037176 
L 126.801276 100.224 
L 126.89015 104.391529 
L 126.979023 104.289882 
L 127.15677 99.309176 
L 127.245643 100.224 
L 127.334517 100.020706 
L 127.512263 100.020706 
L 127.601137 99.817412 
L 127.778884 99.309176 
L 127.867757 99.309176 
L 128.045504 101.545412 
L 128.134377 101.647059 
L 128.312124 101.037176 
L 128.489871 101.952 
L 128.667618 96.361412 
L 128.845364 96.564706 
L 129.023111 99.105882 
L 129.200858 99.919059 
L 129.289731 99.919059 
L 129.378605 103.070118 
L 129.556352 97.377882 
L 129.822972 97.377882 
L 130.000719 105.103059 
L 130.178466 105.001412 
L 130.356212 105.001412 
L 130.445086 105.204706 
L 130.533959 105.916235 
L 130.622833 105.814588 
L 130.711706 105.814588 
L 130.889453 106.729412 
L 130.978326 106.729412 
L 131.156073 110.693647 
L 131.244946 110.693647 
L 131.422693 110.896941 
L 131.511567 110.693647 
L 131.689313 109.677176 
L 131.86706 113.641412 
L 131.955934 115.166118 
L 132.13368 113.438118 
L 132.311427 113.946353 
L 132.400301 113.946353 
L 132.489174 114.556235 
L 132.666921 110.490353 
L 132.844668 111.405176 
L 132.933541 115.572706 
L 133.022414 109.575529 
L 133.111288 109.778824 
L 133.200161 109.778824 
L 133.377908 112.828235 
L 133.466781 113.031529 
L 133.555655 112.929882 
L 133.733402 113.234824 
L 133.822275 113.234824 
L 133.911148 112.726588 
L 134.088895 116.690824 
L 134.177769 116.894118 
L 134.355516 115.877647 
L 134.444389 115.979294 
L 134.622136 112.32 
L 134.799883 112.32 
L 134.977629 116.182588 
L 135.066503 115.267765 
L 135.155376 109.067294 
L 135.24425 109.168941 
L 135.421996 111.506824 
L 135.599743 112.726588 
L 135.688617 112.726588 
L 135.77749 111.100235 
L 135.866363 113.133176 
L 135.955237 113.031529 
L 136.04411 113.031529 
L 136.31073 106.119529 
L 136.488477 106.221176 
L 136.666224 107.440941 
L 136.843971 93.312 
L 136.932844 96.463059 
L 137.021718 93.515294 
L 137.110591 94.226824 
L 137.199464 94.226824 
L 137.288338 93.921882 
L 137.466085 97.581176 
L 137.554958 97.174588 
L 137.643831 94.226824 
L 137.732705 94.938353 
L 137.821578 94.023529 
L 137.910452 94.125176 
L 138.088198 88.737882 
L 138.265945 88.026353 
L 138.532566 88.026353 
L 138.621439 78.776471 
L 138.888059 86.806588 
L 138.976933 86.806588 
L 139.065806 85.993412 
L 139.243553 88.026353 
L 139.332426 86.806588 
L 139.510173 87.721412 
L 139.599046 87.721412 
L 139.68792 88.128 
L 139.865667 90.160941 
L 139.95454 90.669176 
L 140.043413 87.314824 
L 140.22116 89.347765 
L 140.310034 89.754353 
L 140.48778 89.246118 
L 140.576654 89.042824 
L 140.754401 87.314824 
L 140.843274 87.721412 
L 140.932147 87.213176 
L 141.198768 81.419294 
L 141.287641 83.452235 
L 141.376514 82.842353 
L 141.465388 83.147294 
L 141.643135 82.029176 
L 141.820881 77.455059 
L 141.909755 77.455059 
L 141.998628 77.048471 
L 142.087502 77.963294 
L 142.176375 77.76 
L 142.265248 77.048471 
L 142.354122 77.353412 
L 142.709616 91.888941 
L 142.798489 91.888941 
L 142.887362 99.004235 
L 142.976236 98.496 
L 143.153983 89.042824 
L 143.242856 89.754353 
L 143.331729 89.754353 
L 143.59835 88.128 
L 143.687223 88.534588 
L 143.953843 81.927529 
L 144.042717 82.029176 
L 144.220463 82.740706 
L 144.309337 86.908235 
L 144.487084 83.045647 
L 144.575957 83.045647 
L 145.109197 81.012706 
L 145.198071 81.419294 
L 145.464691 79.589647 
L 145.642438 86.806588 
L 145.731311 87.416471 
L 145.820185 86.806588 
L 145.997931 88.128 
L 146.086805 88.128 
L 146.264552 87.619765 
L 146.531172 102.765176 
L 146.620045 106.119529 
L 146.797792 100.935529 
L 146.886666 101.647059 
L 147.064412 100.122353 
L 147.153286 100.122353 
L 147.331033 100.833882 
L 147.419906 100.833882 
L 147.686526 103.273412 
L 147.7754 106.322824 
L 147.864273 104.086588 
L 147.953146 104.899765 
L 148.04202 104.188235 
L 148.130893 101.952 
L 148.30864 110.896941 
L 148.397513 110.795294 
L 148.57526 113.743059 
L 148.753007 115.064471 
L 148.930754 111.811765 
L 149.019627 111.811765 
L 149.197374 113.438118 
L 149.375121 113.336471 
L 149.463994 113.336471 
L 149.641741 115.877647 
L 149.730614 114.048 
L 150.174981 116.385882 
L 150.263855 116.385882 
L 150.352728 114.352941 
L 150.530475 116.385882 
L 150.619348 116.284235 
L 150.797095 115.471059 
L 151.063716 115.369412 
L 151.152589 112.015059 
L 151.241462 112.116706 
L 151.596956 112.015059 
L 151.685829 110.795294 
L 151.774703 118.317176 
L 151.95245 106.322824 
L 152.041323 106.322824 
L 152.21907 100.427294 
L 152.307943 105.306353 
L 152.396817 105.103059 
L 152.75231 106.729412 
L 152.930057 102.765176 
L 153.01893 102.866824 
L 153.196677 97.276235 
L 153.374424 97.072941 
L 153.463297 97.784471 
L 153.729918 95.548235 
L 153.907664 93.413647 
L 154.085411 83.757176 
L 154.263158 82.842353 
L 154.352031 82.842353 
L 154.618652 84.773647 
L 154.796398 80.606118 
L 154.974145 78.369882 
L 155.151892 82.130824 
L 155.329639 79.386353 
L 155.507386 79.183059 
L 155.685133 70.746353 
L 155.862879 69.12 
L 156.040626 69.018353 
L 156.1295 72.576 
L 156.218373 71.864471 
L 156.307246 66.273882 
L 156.573867 74.812235 
L 156.751613 73.795765 
L 156.840487 73.795765 
L 157.018234 74.710588 
L 157.284854 85.485176 
L 157.462601 85.485176 
L 157.640347 84.976941 
L 157.818094 84.976941 
L 157.906968 82.232471 
L 158.173588 85.891765 
L 158.262461 85.790118 
L 158.351335 86.095059 
L 158.529081 86.806588 
L 158.706828 96.056471 
L 158.884575 88.534588 
L 158.973448 87.213176 
L 159.062322 87.416471 
L 159.151195 87.416471 
L 159.240069 88.128 
L 159.328942 86.908235 
L 159.506689 83.045647 
L 159.684436 83.858824 
L 160.128803 81.520941 
L 160.217676 82.029176 
L 160.395423 79.488 
L 160.484296 80.199529 
L 160.662043 79.284706 
L 160.750917 75.218824 
L 160.83979 75.727059 
L 160.928663 76.133647 
L 161.017537 75.422118 
L 161.195284 82.639059 
L 161.461904 82.639059 
L 161.550777 81.520941 
L 161.728524 82.029176 
L 161.995144 80.911059 
L 162.084018 80.402824 
L 162.172891 76.946824 
L 162.261764 77.76 
L 162.528385 75.218824 
L 162.617258 75.218824 
L 162.795005 82.334118 
L 162.883878 81.825882 
L 163.061625 79.691294 
L 163.150498 86.298353 
L 163.239372 85.383529 
L 163.417119 84.570353 
L 163.683739 84.570353 
L 163.772612 84.367059 
L 163.861486 84.468706 
L 163.950359 82.639059 
L 164.039233 85.281882 
L 164.216979 84.468706 
L 164.394726 84.672 
L 164.4836 80.911059 
L 164.75022 93.718588 
L 164.839093 93.413647 
L 164.927967 93.312 
L 165.01684 93.820235 
L 165.105713 91.685647 
L 165.194587 92.397176 
L 165.372334 96.056471 
L 165.55008 95.446588 
L 165.727827 95.954824 
L 165.816701 95.954824 
L 165.994447 95.649882 
L 166.083321 98.394353 
L 166.349941 91.075765 
L 166.616561 93.312 
L 166.883181 87.619765 
L 166.972055 88.432941 
L 167.149802 103.68 
L 167.238675 103.68 
L 167.327548 104.391529 
L 167.416422 104.289882 
L 167.505295 104.899765 
L 167.594169 100.122353 
L 167.683042 100.630588 
L 167.860789 99.614118 
L 167.949662 99.614118 
L 168.038536 99.817412 
L 168.216283 95.141647 
L 168.305156 95.243294 
L 168.394029 96.056471 
L 168.482903 95.954824 
L 168.66065 95.04 
L 168.749523 94.531765 
L 168.838396 95.141647 
L 169.016143 88.941176 
L 169.105017 88.941176 
L 169.371637 86.095059 
L 169.46051 79.894588 
L 169.549384 80.606118 
L 169.72713 96.056471 
L 169.816004 95.954824 
L 169.904877 95.548235 
L 170.082624 96.158118 
L 170.171497 96.158118 
L 170.349244 94.938353 
L 170.438118 94.938353 
L 170.615864 93.820235 
L 170.793611 90.262588 
L 170.882485 90.262588 
L 171.060231 91.787294 
L 171.149105 94.023529 
L 171.237978 93.616941 
L 171.326852 93.616941 
L 171.504598 93.312 
L 171.682345 93.108706 
L 171.771219 94.328471 
L 171.948965 102.765176 
L 172.037839 102.053647 
L 172.126712 102.358588 
L 172.304459 99.919059 
L 172.482206 100.427294 
L 172.659953 98.089412 
L 172.8377 98.292706 
L 173.015446 98.191059 
L 173.193193 101.850353 
L 173.37094 101.748706 
L 173.459813 103.273412 
L 173.548687 102.358588 
L 173.726434 105.103059 
L 173.815307 102.968471 
L 173.90418 103.070118 
L 174.526294 103.070118 
L 174.615168 103.984941 
L 174.704041 106.932706 
L 174.792914 106.221176 
L 174.881788 107.644235 
L 174.970661 107.542588 
L 175.059535 107.339294 
L 175.237281 106.017882 
L 175.503902 104.899765 
L 175.681648 107.745882 
L 175.770522 107.644235 
L 175.859395 111.811765 
L 176.126015 93.820235 
L 176.392636 96.666353 
L 176.481509 96.463059 
L 176.570383 94.430118 
L 176.659256 95.141647 
L 176.837003 96.869647 
L 177.01475 96.869647 
L 177.192496 96.056471 
L 177.28137 96.056471 
L 177.370243 91.787294 
L 177.459117 92.092235 
L 177.636863 88.941176 
L 177.725737 88.941176 
L 177.81461 88.432941 
L 177.903484 89.144471 
L 177.992357 91.279059 
L 178.08123 90.567529 
L 178.258977 91.380706 
L 178.436724 91.075765 
L 178.614471 90.974118 
L 178.703344 90.974118 
L 178.792218 90.262588 
L 178.881091 90.364235 
L 179.058838 90.770824 
L 179.147711 90.872471 
L 179.236585 91.279059 
L 179.414331 95.243294 
L 179.503205 95.243294 
L 179.858698 89.551059 
L 179.947572 89.856 
L 180.036445 83.858824 
L 180.125319 84.468706 
L 180.214192 82.944 
L 180.391939 85.790118 
L 180.480812 82.740706 
L 180.569686 82.842353 
L 180.658559 82.842353 
L 180.925179 86.501647 
L 181.014053 85.485176 
L 181.1918 90.364235 
L 181.547293 90.364235 
L 181.72504 87.009882 
L 181.813913 89.551059 
L 181.902787 88.839529 
L 181.99166 97.276235 
L 182.080534 96.768 
L 182.169407 96.768 
L 182.25828 98.496 
L 182.436027 97.784471 
L 182.613774 95.446588 
L 182.791521 92.397176 
L 182.880394 92.702118 
L 183.058141 97.479529 
L 183.147014 97.479529 
L 183.324761 97.784471 
L 183.413635 97.784471 
L 183.680255 98.597647 
L 183.769128 98.902588 
L 183.858002 99.919059 
L 183.946875 99.715765 
L 184.124622 105.001412 
L 184.213495 107.136 
L 184.302369 105.611294 
L 184.391242 106.627765 
L 184.480115 103.375059 
L 184.568989 103.984941 
L 184.657862 103.984941 
L 184.835609 102.968471 
L 185.013356 105.509647 
L 185.279976 101.952 
L 185.36885 101.850353 
L 185.63547 103.578353 
L 186.079837 103.578353 
L 186.16871 103.883294 
L 186.346457 103.273412 
L 186.43533 103.476706 
L 186.613077 103.476706 
L 186.790824 108.965647 
L 186.879697 108.965647 
L 187.057444 104.289882 
L 187.146318 102.256941 
L 187.235191 96.056471 
L 187.412938 98.800941 
L 187.590685 96.971294 
L 187.679558 88.737882 
L 187.857305 96.259765 
L 187.946178 94.633412 
L 188.035052 94.836706 
L 188.212798 94.938353 
L 188.301672 95.344941 
L 188.390545 99.309176 
L 188.479419 98.496 
L 188.568292 98.496 
L 188.746039 97.886118 
L 188.834912 97.784471 
L 188.923786 96.971294 
L 189.101532 87.416471 
L 189.190406 85.891765 
L 189.368153 90.160941 
L 189.5459 91.075765 
L 189.81252 91.075765 
L 189.990267 90.872471 
L 190.07914 92.295529 
L 190.61238 89.856 
L 190.790127 90.770824 
L 190.879001 90.770824 
L 190.967874 89.856 
L 191.145621 86.806588 
L 191.323368 86.908235 
L 191.412241 85.383529 
L 191.501114 88.839529 
L 191.589988 87.314824 
L 191.678861 89.347765 
L 191.856608 88.026353 
L 192.123228 96.666353 
L 192.212102 96.463059 
L 192.300975 97.072941 
L 192.389848 101.138824 
L 192.656469 98.496 
L 192.834215 98.394353 
L 192.923089 97.072941 
L 193.011962 100.528941 
L 193.100836 100.325647 
L 193.189709 92.905412 
L 193.367456 95.548235 
L 193.456329 95.548235 
L 193.634076 97.377882 
L 193.811823 97.987765 
L 193.900696 96.564706 
L 193.98957 96.768 
L 194.078443 96.971294 
L 194.345063 92.092235 
L 194.433937 92.498824 
L 194.611684 91.279059 
L 194.700557 91.584 
L 194.878304 95.04 
L 194.967177 91.584 
L 195.144924 94.633412 
L 195.322671 93.616941 
L 195.411544 95.954824 
L 195.500418 92.498824 
L 195.589291 92.600471 
L 195.678164 92.193882 
L 195.855911 92.498824 
L 195.944785 93.312 
L 196.122531 96.259765 
L 196.211405 97.377882 
L 196.389152 96.768 
L 196.478025 96.768 
L 196.655772 95.344941 
L 196.744645 95.446588 
L 196.833519 95.344941 
L 197.011265 95.751529 
L 197.100139 95.751529 
L 197.277886 98.089412 
L 197.455632 96.158118 
L 197.633379 95.853176 
L 197.722253 95.649882 
L 197.988873 87.111529 
L 198.077746 87.111529 
L 198.16662 91.584 
L 198.255493 90.770824 
L 198.344367 91.482353 
L 198.43324 90.974118 
L 198.522113 88.534588 
L 198.69986 91.075765 
L 198.877607 92.092235 
L 198.96648 91.990588 
L 199.144227 93.515294 
L 199.233101 93.515294 
L 199.321974 93.312 
L 199.410847 90.770824 
L 199.499721 92.295529 
L 199.677468 86.908235 
L 199.766341 86.908235 
L 200.032961 78.268235 
L 200.121835 84.976941 
L 200.210708 84.367059 
L 200.655075 84.265412 
L 200.832822 86.095059 
L 200.921695 85.383529 
L 201.099442 81.724235 
L 201.188315 81.724235 
L 201.366062 84.570353 
L 201.632682 84.062118 
L 201.810429 84.163765 
L 201.899303 84.163765 
L 201.988176 99.207529 
L 202.077049 97.987765 
L 202.521417 99.207529 
L 202.61029 95.853176 
L 202.699163 100.935529 
L 202.788037 100.427294 
L 202.87691 101.037176 
L 203.054657 99.207529 
L 203.232404 99.105882 
L 203.321277 95.954824 
L 203.410151 96.158118 
L 203.499024 95.649882 
L 203.587897 95.751529 
L 203.676771 95.954824 
L 204.476631 87.924706 
L 204.654378 87.823059 
L 204.832125 82.029176 
L 205.009872 82.029176 
L 205.187619 83.045647 
L 205.276492 82.232471 
L 205.454239 82.842353 
L 205.543112 86.4 
L 205.631986 86.298353 
L 205.720859 86.501647 
L 205.809732 86.4 
L 205.987479 83.757176 
L 206.076353 85.180235 
L 206.254099 90.059294 
L 206.342973 90.059294 
L 206.52072 90.770824 
L 206.609593 90.669176 
L 206.78734 90.262588 
L 206.876213 94.125176 
L 206.965087 94.023529 
L 207.142834 94.938353 
L 207.231707 98.699294 
L 207.32058 98.394353 
L 207.409454 94.023529 
L 207.498327 95.548235 
L 207.676074 91.279059 
L 207.764947 91.380706 
L 207.942694 93.312 
L 208.031568 89.652706 
L 208.120441 95.04 
L 208.209314 89.754353 
L 208.387061 98.699294 
L 208.475935 103.883294 
L 208.564808 103.476706 
L 208.831428 91.380706 
L 209.009175 92.702118 
L 209.186922 92.498824 
L 209.364669 86.704941 
L 209.453542 86.908235 
L 209.631289 87.416471 
L 209.720162 87.416471 
L 209.986782 89.042824 
L 210.164529 81.724235 
L 210.342276 82.944 
L 210.431149 78.878118 
L 210.69777 88.128 
L 210.875517 88.026353 
L 211.053263 95.751529 
L 211.319884 96.768 
L 211.586504 96.768 
L 211.675377 98.394353 
L 211.764251 98.292706 
L 211.853124 98.089412 
L 211.941997 89.652706 
L 212.119744 96.564706 
L 212.208618 96.564706 
L 212.297491 98.597647 
L 212.475238 97.682824 
L 212.652985 98.292706 
L 212.830731 97.072941 
L 213.008478 109.168941 
L 213.186225 109.168941 
L 213.541719 110.998588 
L 213.719465 113.641412 
L 213.897212 112.624941 
L 213.986086 113.438118 
L 214.163832 109.677176 
L 214.341579 109.677176 
L 214.430453 110.998588 
L 214.608199 110.490353 
L 214.785946 111.405176 
L 214.87482 111.405176 
L 215.052567 112.624941 
L 215.14144 110.083765 
L 215.230313 110.592 
L 215.40806 110.287059 
L 215.496934 110.490353 
L 215.67468 109.168941 
L 215.763554 110.490353 
L 215.852427 104.391529 
L 215.941301 104.899765 
L 216.207921 104.899765 
L 216.474541 104.188235 
L 216.741161 89.144471 
L 216.830035 89.144471 
L 217.007781 89.347765 
L 217.185528 86.095059 
L 217.274402 85.891765 
L 217.452148 85.180235 
L 217.541022 88.737882 
L 217.718769 79.894588 
L 217.807642 79.894588 
L 218.074262 72.982588 
L 218.163136 72.982588 
L 218.252009 73.897412 
L 218.340882 73.795765 
L 218.518629 78.166588 
L 218.696376 74.100706 
L 219.05187 73.999059 
L 219.140743 72.271059 
L 219.229617 72.576 
L 219.31849 71.559529 
L 219.496237 75.523765 
L 219.58511 75.727059 
L 219.673984 75.320471 
L 219.85173 77.251765 
L 219.940604 74.304 
L 220.118351 77.150118 
L 220.296097 72.372706 
L 220.384971 72.880941 
L 220.562718 72.169412 
L 220.829338 72.271059 
L 221.007085 75.218824 
L 221.095958 75.523765 
L 221.184831 72.474353 
L 221.451452 86.298353 
L 221.540325 85.485176 
L 221.718072 83.960471 
L 221.895819 83.960471 
L 221.984692 81.927529 
L 222.162439 82.944 
L 222.340186 76.438588 
L 222.429059 76.438588 
L 222.517932 77.251765 
L 222.695679 80.199529 
L 222.962299 73.490824 
L 223.051173 77.658353 
L 223.22892 76.336941 
L 223.406667 75.625412 
L 223.584413 78.979765 
L 223.673287 77.963294 
L 223.76216 79.589647 
L 223.851034 79.386353 
L 224.02878 76.032 
L 224.206527 74.507294 
L 224.384274 74.507294 
L 224.473147 76.235294 
L 224.562021 75.930353 
L 224.739768 75.015529 
L 224.828641 70.441412 
L 225.184135 82.334118 
L 225.273008 82.639059 
L 225.450755 81.419294 
L 225.628502 78.674824 
L 225.717375 78.573176 
L 225.895122 78.166588 
L 225.983995 74.405647 
L 226.072869 75.117176 
L 226.161742 75.117176 
L 226.339489 77.556706 
L 226.428362 77.861647 
L 226.606109 82.842353 
L 226.783856 83.248941 
L 227.050476 89.754353 
L 227.139349 88.941176 
L 227.494843 90.669176 
L 227.67259 90.770824 
L 227.850337 88.737882 
L 227.93921 89.551059 
L 228.028084 89.347765 
L 228.116957 89.347765 
L 228.383577 84.367059 
L 228.472451 85.993412 
L 228.650197 80.097882 
L 228.739071 80.097882 
L 228.827944 80.301176 
L 229.183438 79.081412 
L 229.361185 79.488 
L 229.538931 87.518118 
L 229.627805 88.026353 
L 229.716678 92.295529 
L 229.805552 91.990588 
L 229.983298 91.990588 
L 230.072172 92.803765 
L 230.161045 92.092235 
L 230.338792 93.820235 
L 230.427665 93.820235 
L 230.605412 93.616941 
L 230.694286 93.616941 
L 230.872032 91.584 
L 230.960906 94.633412 
L 231.049779 90.160941 
L 231.405273 94.633412 
L 231.494146 92.905412 
L 231.671893 97.784471 
L 231.760766 96.361412 
L 231.84964 103.375059 
L 231.938513 103.070118 
L 232.205134 94.938353 
L 232.38288 94.938353 
L 232.560627 97.174588 
L 232.649501 97.072941 
L 232.738374 90.669176 
L 232.827247 91.177412 
L 233.004994 89.754353 
L 233.182741 98.394353 
L 233.271614 98.394353 
L 233.360488 99.105882 
L 233.538235 102.765176 
L 233.804855 100.833882 
L 233.982602 100.935529 
L 234.160348 102.256941 
L 234.426969 100.224 
L 234.515842 101.342118 
L 234.693589 106.017882 
L 234.782462 105.814588 
L 234.960209 106.831059 
L 235.137956 106.424471 
L 235.226829 104.086588 
L 235.315703 104.696471 
L 235.404576 104.594824 
L 235.493449 101.443765 
L 235.582323 101.952 
L 235.76007 100.325647 
L 235.848943 101.138824 
L 236.02669 100.833882 
L 236.115563 101.037176 
L 236.29331 98.496 
L 236.382184 98.292706 
L 236.55993 97.682824 
L 236.648804 99.919059 
L 236.737677 99.410824 
L 236.826551 99.207529 
L 237.004297 87.924706 
L 237.182044 83.757176 
L 237.270918 83.757176 
L 237.359791 82.130824 
L 237.448664 82.334118 
L 237.537538 82.232471 
L 237.626411 82.639059 
L 237.715285 91.177412 
L 237.804158 90.160941 
L 237.981905 88.128 
L 238.159652 88.128 
L 238.337398 82.130824 
L 238.426272 82.130824 
L 238.515145 83.452235 
L 238.781765 76.743529 
L 238.870639 77.048471 
L 238.959512 74.507294 
L 239.048386 74.608941 
L 239.226132 77.353412 
L 239.315006 77.353412 
L 239.403879 76.946824 
L 239.581626 77.76 
L 239.759373 77.658353 
L 239.848246 77.658353 
L 240.025993 80.707765 
L 240.114866 80.606118 
L 240.20374 83.045647 
L 240.381487 81.927529 
L 240.559234 76.540235 
L 240.73698 77.455059 
L 240.914727 77.658353 
L 241.092474 85.180235 
L 241.181347 85.180235 
L 241.270221 88.839529 
L 241.359094 88.737882 
L 241.536841 88.331294 
L 241.714588 77.556706 
L 241.892335 82.232471 
L 241.981208 82.232471 
L 242.070081 73.999059 
L 242.247828 80.911059 
L 242.336702 80.911059 
L 242.425575 81.724235 
L 242.514448 81.520941 
L 242.603322 81.825882 
L 242.781069 77.861647 
L 242.869942 77.353412 
L 242.958815 78.979765 
L 243.047689 75.523765 
L 243.225436 78.471529 
L 243.314309 78.369882 
L 243.403182 79.792941 
L 243.492056 79.589647 
L 243.580929 79.589647 
L 243.669803 82.842353 
L 243.758676 81.927529 
L 243.847549 82.130824 
L 243.936423 82.130824 
L 244.025296 84.367059 
L 244.11417 79.589647 
L 244.291916 82.537412 
L 244.38079 82.435765 
L 244.558537 80.606118 
L 244.64741 80.504471 
L 244.825157 80.606118 
L 244.91403 80.606118 
L 245.091777 79.894588 
L 245.180651 75.117176 
L 245.269524 76.235294 
L 245.447271 79.386353 
L 245.625018 79.386353 
L 245.802764 79.691294 
L 245.980511 81.825882 
L 246.158258 76.032 
L 246.247131 72.474353 
L 246.424878 74.608941 
L 246.513752 74.304 
L 246.602625 73.592471 
L 246.691498 87.213176 
L 246.780372 86.603294 
L 246.869245 86.603294 
L 247.224739 78.674824 
L 247.313612 78.674824 
L 247.491359 76.946824 
L 247.580232 76.946824 
L 247.669106 75.727059 
L 247.757979 76.641882 
L 248.024599 74.812235 
L 248.202346 76.133647 
L 248.380093 76.133647 
L 248.468966 77.251765 
L 248.646713 81.216 
L 248.913333 86.4 
L 249.002207 76.743529 
L 249.09108 77.353412 
L 249.179954 77.353412 
L 249.357701 77.963294 
L 249.535447 79.284706 
L 249.713194 80.707765 
L 249.890941 80.707765 
L 249.979814 79.589647 
L 250.068688 79.691294 
L 250.246435 79.183059 
L 250.335308 79.589647 
L 250.424181 81.419294 
L 250.601928 93.210353 
L 250.690802 92.295529 
L 250.868548 97.377882 
L 251.046295 94.938353 
L 251.135169 94.735059 
L 251.312915 82.842353 
L 251.401789 82.842353 
L 251.668409 84.570353 
L 251.757282 84.570353 
L 251.846156 87.314824 
L 252.023903 85.993412 
L 252.290523 88.128 
L 252.46827 85.281882 
L 252.646016 79.996235 
L 252.73489 79.996235 
L 252.912637 80.402824 
L 253.00151 80.199529 
L 253.26813 75.727059 
L 253.357004 77.048471 
L 253.445877 73.795765 
L 253.534751 74.304 
L 253.623624 73.795765 
L 253.712497 74.304 
L 253.801371 71.966118 
L 253.890244 72.067765 
L 253.979118 76.946824 
L 254.067991 76.540235 
L 254.245738 77.455059 
L 254.423485 71.559529 
L 254.601231 71.559529 
L 254.867852 62.614588 
L 254.956725 62.614588 
L 255.045598 62.309647 
L 255.134472 62.817882 
L 255.223345 61.293176 
L 255.578839 70.746353 
L 255.667712 70.644706 
L 255.756586 70.339765 
L 255.934332 71.966118 
L 256.112079 69.526588 
L 256.289826 78.369882 
L 256.378699 77.861647 
L 256.467573 77.963294 
L 256.64532 75.828706 
L 256.734193 75.828706 
L 256.91194 82.639059 
L 257.000813 82.537412 
L 257.17856 82.435765 
L 257.356307 82.537412 
L 257.622927 76.845176 
L 257.800674 76.133647 
L 257.978421 75.930353 
L 258.156168 76.946824 
L 258.333914 70.949647 
L 258.511661 71.966118 
L 258.689408 67.900235 
L 258.778281 67.900235 
L 258.867155 66.375529 
L 258.956028 72.982588 
L 259.044902 64.037647 
L 259.133775 64.342588 
L 259.311522 64.444235 
L 259.400395 65.765647 
L 259.578142 62.512941 
L 259.667015 62.512941 
L 259.844762 68.001882 
L 260.022509 68.001882 
L 260.111382 67.087059 
L 260.289129 67.798588 
L 260.378003 63.834353 
L 260.466876 64.240941 
L 260.555749 63.834353 
L 260.644623 64.240941 
L 260.82237 81.216 
L 261.08899 71.966118 
L 261.177863 71.356235 
L 261.266737 69.526588 
L 261.35561 69.628235 
L 261.444483 71.051294 
L 261.62223 64.139294 
L 261.799977 64.139294 
L 261.888851 63.224471 
L 261.977724 64.139294 
L 262.066597 64.037647 
L 262.155471 63.834353 
L 262.333218 67.290353 
L 262.599838 67.696941 
L 262.688711 68.306824 
L 262.866458 67.696941 
L 262.955331 71.559529 
L 263.133078 65.359059 
L 263.399698 65.359059 
L 263.488572 64.749176 
L 263.666319 65.867294 
L 263.844065 65.867294 
L 264.021812 66.578824 
L 264.199559 66.782118 
L 264.377306 66.782118 
L 264.466179 66.578824 
L 264.555053 67.087059 
L 264.643926 66.985412 
L 264.732799 66.883765 
L 264.910546 72.779294 
L 264.99942 70.441412 
L 265.088293 73.897412 
L 265.177166 70.238118 
L 265.26604 70.543059 
L 265.354913 70.543059 
L 265.53266 77.150118 
L 265.621533 76.743529 
L 265.710407 76.743529 
L 265.79928 74.405647 
L 265.888154 74.913882 
L 265.977027 77.76 
L 266.065901 70.136471 
L 266.243647 77.556706 
L 266.332521 77.353412 
L 266.510268 78.064941 
L 266.599141 84.773647 
L 266.688014 83.858824 
L 266.776888 82.232471 
L 266.865761 83.248941 
L 267.043508 94.023529 
L 267.132381 94.328471 
L 267.221255 94.226824 
L 267.399002 98.800941 
L 267.576748 103.883294 
L 267.665622 96.463059 
L 267.754495 96.971294 
L 267.843369 96.158118 
L 268.021115 91.482353 
L 268.109989 90.669176 
L 268.287736 100.833882 
L 268.465482 100.833882 
L 268.643229 99.715765 
L 268.820976 99.512471 
L 268.909849 96.768 
L 268.998723 97.072941 
L 269.17647 97.072941 
L 269.354216 96.056471 
L 269.531963 97.581176 
L 269.620837 97.377882 
L 269.70971 101.342118 
L 269.97633 98.089412 
L 270.154077 98.699294 
L 270.242951 98.699294 
L 270.420697 95.04 
L 270.509571 95.446588 
L 270.687318 93.718588 
L 270.865064 88.839529 
L 271.220558 88.737882 
L 271.576052 84.976941 
L 271.753798 78.979765 
L 271.842672 78.166588 
L 272.020419 76.133647 
L 272.287039 76.235294 
L 272.553659 78.573176 
L 273.086899 78.471529 
L 273.264646 81.216 
L 273.442393 81.216 
L 273.531266 80.097882 
L 273.709013 81.216 
L 273.88676 81.317647 
L 274.242254 81.012706 
L 274.42 85.078588 
L 274.508874 85.078588 
L 274.686621 85.891765 
L 274.775494 85.891765 
L 275.042114 95.344941 
L 275.130988 95.548235 
L 275.308735 91.584 
L 275.486481 96.361412 
L 275.664228 94.938353 
L 275.753102 94.938353 
L 275.841975 87.518118 
L 275.930848 89.754353 
L 276.019722 89.652706 
L 276.108595 86.196706 
L 276.197469 86.501647 
L 276.375215 93.820235 
L 276.552962 102.866824 
L 276.730709 99.309176 
L 276.819582 99.715765 
L 276.908456 99.614118 
L 276.997329 99.614118 
L 277.086203 98.597647 
L 277.263949 89.652706 
L 277.441696 88.026353 
L 277.619443 82.842353 
L 277.79719 82.740706 
L 277.886063 82.740706 
L 277.974937 82.130824 
L 278.152683 83.147294 
L 278.33043 90.262588 
L 278.419304 90.262588 
L 278.59705 89.246118 
L 278.774797 88.941176 
L 278.863671 88.941176 
L 279.041418 90.059294 
L 279.130291 89.856 
L 279.308038 89.347765 
L 279.396911 89.246118 
L 279.485785 88.534588 
L 279.574658 85.180235 
L 279.752405 72.677647 
L 279.841278 72.677647 
L 279.930152 73.084235 
L 280.019025 72.880941 
L 280.107898 73.795765 
L 280.196772 69.221647 
L 280.285645 69.424941 
L 280.463392 69.424941 
L 280.552265 69.933176 
L 280.641139 66.172235 
L 280.818886 68.510118 
L 280.907759 68.205176 
L 280.996632 68.611765 
L 281.085506 71.051294 
L 281.174379 70.949647 
L 281.352126 70.949647 
L 281.529873 70.644706 
L 281.70762 79.894588 
L 281.796493 79.894588 
L 281.885366 79.589647 
L 282.151987 82.740706 
L 282.24086 82.740706 
L 282.329733 79.081412 
L 282.418607 82.435765 
L 282.50748 81.520941 
L 282.685227 86.4 
L 282.7741 85.688471 
L 282.862974 86.196706 
L 283.040721 85.485176 
L 283.307341 85.485176 
L 283.396214 85.993412 
L 283.573961 80.402824 
L 283.751708 83.045647 
L 283.929455 82.232471 
L 284.018328 83.045647 
L 284.196075 81.927529 
L 284.373822 82.232471 
L 284.462695 82.232471 
L 284.551569 81.520941 
L 284.729315 84.976941 
L 284.907062 84.976941 
L 285.262556 95.548235 
L 285.351429 98.496 
L 285.440303 95.243294 
L 285.618049 98.597647 
L 285.706923 95.446588 
L 285.795796 98.292706 
L 285.88467 94.226824 
L 286.15129 104.188235 
L 286.329037 95.344941 
L 286.506783 94.735059 
L 286.68453 95.344941 
L 286.773404 89.347765 
L 286.862277 89.957647 
L 286.95115 89.449412 
L 287.128897 94.633412 
L 287.217771 94.226824 
L 287.662138 96.361412 
L 287.928758 96.158118 
L 288.017631 96.259765 
L 288.195378 96.666353 
L 288.461998 96.361412 
L 288.550872 96.768 
L 288.639745 89.042824 
L 288.728619 90.059294 
L 288.906365 87.111529 
L 288.995239 86.908235 
L 289.172986 87.009882 
L 289.261859 83.858824 
L 289.439606 90.059294 
L 289.528479 85.891765 
L 289.706226 87.111529 
L 289.795099 87.111529 
L 289.972846 86.501647 
L 290.06172 89.449412 
L 290.150593 86.806588 
L 290.239466 87.111529 
L 290.32834 88.229647 
L 290.506087 94.938353 
L 290.59496 88.229647 
L 290.683833 88.941176 
L 290.86158 87.416471 
L 290.950454 87.416471 
L 291.1282 86.806588 
L 291.217074 86.806588 
L 291.305947 83.655529 
L 291.394821 86.806588 
L 291.572568 85.688471 
L 291.661441 85.688471 
L 291.750314 85.383529 
L 291.928061 88.737882 
L 292.105808 91.685647 
L 292.194681 91.685647 
L 292.372428 89.551059 
L 292.550175 92.295529 
L 292.727922 92.905412 
L 292.994542 90.770824 
L 293.083415 90.872471 
L 293.172289 89.246118 
L 293.261162 89.551059 
L 293.350036 89.042824 
L 293.527782 90.160941 
L 293.705529 88.331294 
L 293.794403 88.331294 
L 293.883276 89.551059 
L 293.972149 85.790118 
L 294.061023 86.603294 
L 294.23877 86.603294 
L 294.416516 78.369882 
L 294.594263 81.825882 
L 294.860883 80.097882 
L 295.03863 73.287529 
L 295.127504 73.185882 
L 295.216377 72.474353 
L 295.30525 83.147294 
L 295.394124 81.825882 
L 295.482997 81.927529 
L 295.660744 77.455059 
L 295.749617 77.455059 
L 295.927364 76.336941 
L 296.105111 76.540235 
L 296.282858 74.507294 
L 296.549478 74.507294 
L 296.638352 73.490824 
L 296.727225 73.694118 
L 296.904972 79.284706 
L 296.993845 78.674824 
L 297.171592 70.136471 
L 297.260465 70.136471 
L 297.349339 66.070588 
L 297.438212 67.392 
L 297.704832 72.779294 
L 297.793706 72.779294 
L 297.882579 73.795765 
L 297.971453 73.694118 
L 298.149199 73.389176 
L 298.238073 73.185882 
L 298.504693 73.795765 
L 298.593566 76.946824 
L 298.68244 74.202353 
L 298.771313 74.405647 
L 298.860187 74.405647 
L 298.94906 73.694118 
L 299.126807 86.603294 
L 299.21568 86.603294 
L 299.304554 86.908235 
L 299.4823 90.669176 
L 299.571174 80.097882 
L 299.660047 80.606118 
L 299.837794 76.845176 
L 299.926667 76.845176 
L 300.104414 85.993412 
L 300.282161 87.111529 
L 300.371035 87.111529 
L 300.459908 82.334118 
L 300.548781 83.147294 
L 300.637655 82.029176 
L 300.815402 74.608941 
L 300.993148 81.419294 
L 301.082022 82.130824 
L 301.170895 80.606118 
L 301.259769 81.317647 
L 301.437515 81.114353 
L 301.526389 79.284706 
L 301.704136 84.672 
L 301.881882 78.776471 
L 301.970756 78.776471 
L 302.148503 70.848 
L 302.237376 71.254588 
L 302.59287 71.254588 
L 302.770616 68.103529 
L 302.85949 68.103529 
L 303.037237 67.696941 
L 303.12611 67.696941 
L 303.303857 77.861647 
L 303.39273 78.369882 
L 303.570477 73.999059 
L 303.65935 72.779294 
L 303.837097 68.306824 
L 304.014844 73.287529 
L 304.103717 73.287529 
L 304.281464 73.795765 
L 304.370338 70.441412 
L 304.459211 70.949647 
L 304.636958 70.949647 
L 304.814705 64.444235 
L 304.903578 64.240941 
L 304.992452 65.460706 
L 305.170198 63.021176 
L 305.347945 66.680471 
L 305.614565 66.680471 
L 305.703439 66.477176 
L 305.881186 66.680471 
L 306.058932 63.224471 
L 306.236679 63.224471 
L 306.325553 64.139294 
L 306.503299 70.644706 
L 306.681046 68.001882 
L 306.858793 67.696941 
L 306.947666 67.188706 
L 307.03654 67.493647 
L 307.125413 73.084235 
L 307.30316 70.034824 
L 307.392033 70.238118 
L 307.480907 67.290353 
L 307.56978 67.493647 
L 307.658654 67.493647 
L 307.8364 85.891765 
L 307.925274 85.891765 
L 308.014147 86.298353 
L 308.103021 84.570353 
L 308.280767 88.331294 
L 308.369641 87.619765 
L 308.547388 91.075765 
L 308.902881 93.312 
L 309.080628 93.312 
L 309.169502 89.144471 
L 309.258375 89.347765 
L 309.436122 89.347765 
L 309.613869 90.567529 
L 309.702742 87.111529 
L 309.791615 88.737882 
L 309.880489 88.229647 
L 310.413729 97.886118 
L 310.858096 97.784471 
L 310.94697 99.919059 
L 311.035843 99.817412 
L 311.124716 98.800941 
L 311.302463 95.853176 
L 311.48021 96.361412 
L 311.657957 90.770824 
L 311.74683 91.482353 
L 311.924577 93.108706 
L 312.01345 93.108706 
L 312.102324 90.160941 
L 312.280071 94.938353 
L 312.368944 94.735059 
L 312.457817 91.482353 
L 312.724438 97.072941 
L 312.813311 97.174588 
L 312.902185 98.394353 
L 312.991058 96.971294 
L 313.168805 88.534588 
L 313.435425 87.213176 
L 313.524298 87.213176 
L 313.613172 86.4 
L 313.702045 86.501647 
L 313.879792 78.064941 
L 313.968665 78.064941 
L 314.146412 76.540235 
L 314.235286 76.540235 
L 314.324159 77.556706 
L 314.501906 76.540235 
L 314.590779 80.504471 
L 314.679653 79.894588 
L 314.857399 75.523765 
L 314.946273 75.523765 
L 315.12402 77.556706 
L 315.212893 77.556706 
L 315.479513 76.641882 
L 315.65726 77.048471 
L 315.746133 76.235294 
L 315.835007 76.743529 
L 315.92388 78.776471 
L 316.012754 78.369882 
L 316.1905 79.488 
L 316.368247 79.488 
L 316.457121 74.507294 
L 316.723741 84.773647 
L 316.901488 75.828706 
L 317.079235 80.199529 
L 317.168108 79.589647 
L 317.256981 81.216 
L 317.523602 79.589647 
L 317.612475 76.032 
L 317.701348 76.438588 
L 317.879095 78.166588 
L 317.967969 77.861647 
L 318.145715 73.694118 
L 318.234589 73.694118 
L 318.323462 74.507294 
L 318.412336 73.185882 
L 318.501209 75.015529 
L 318.590082 74.812235 
L 318.678956 74.812235 
L 318.856703 75.015529 
L 319.034449 73.795765 
L 319.212196 76.235294 
L 319.389943 76.438588 
L 319.478816 74.913882 
L 319.656563 76.133647 
L 319.83431 76.235294 
L 320.012057 85.891765 
L 320.10093 85.586824 
L 320.189804 86.095059 
L 320.36755 82.639059 
L 320.545297 80.504471 
L 320.634171 80.504471 
L 320.811917 84.570353 
L 320.900791 84.773647 
L 321.078538 82.130824 
L 321.167411 82.029176 
L 321.345158 77.150118 
L 321.522905 75.117176 
L 321.700652 77.76 
L 321.789525 78.573176 
L 321.878398 81.012706 
L 322.056145 79.894588 
L 322.145019 79.894588 
L 322.322765 80.504471 
L 322.500512 77.658353 
L 322.767132 76.743529 
L 322.856006 76.743529 
L 323.033753 79.996235 
L 323.389246 80.097882 
L 323.74474 80.504471 
L 323.833613 82.334118 
L 324.01136 81.317647 
L 324.189107 81.317647 
L 324.455727 83.248941 
L 324.5446 83.248941 
L 324.722347 81.012706 
L 324.900094 81.012706 
L 325.077841 81.825882 
L 325.344461 77.556706 
L 325.522208 78.268235 
L 325.699955 84.367059 
L 325.788828 84.163765 
L 325.966575 88.941176 
L 326.055448 88.941176 
L 326.233195 90.364235 
L 326.322069 88.839529 
L 326.588689 89.551059 
L 326.855309 89.551059 
L 326.944182 88.229647 
L 327.033056 84.773647 
L 327.121929 87.924706 
L 327.210803 87.416471 
L 327.299676 88.737882 
L 327.566296 81.419294 
L 327.92179 80.809412 
L 328.099537 81.520941 
L 328.277283 81.520941 
L 328.45503 80.911059 
L 328.543904 81.317647 
L 328.810524 74.304 
L 328.988271 79.081412 
L 329.343764 74.710588 
L 329.699258 74.710588 
L 329.788131 75.320471 
L 329.965878 75.117176 
L 330.143625 76.743529 
L 330.232498 76.845176 
L 330.321372 74.304 
L 330.410245 76.133647 
L 330.587992 72.779294 
L 330.854612 72.576 
L 331.210106 67.188706 
L 331.387853 69.018353 
L 331.654473 69.018353 
L 331.743346 74.202353 
L 331.83222 73.592471 
L 331.921093 74.608941 
L 332.09884 73.999059 
L 332.276587 73.694118 
L 332.36546 74.608941 
L 332.543207 78.369882 
L 332.720954 74.710588 
L 332.809827 74.812235 
L 332.8987 71.559529 
L 333.076447 72.677647 
L 333.254194 73.490824 
L 333.343067 72.474353 
L 333.520814 68.815059 
L 333.609688 68.611765 
L 333.787434 78.369882 
L 333.965181 78.369882 
L 334.054055 79.183059 
L 334.142928 78.369882 
L 334.231802 71.864471 
L 334.320675 72.067765 
L 334.498422 76.235294 
L 334.676169 74.202353 
L 334.765042 74.202353 
L 334.942789 80.606118 
L 335.031662 80.606118 
L 335.209409 81.012706 
L 335.298282 77.76 
L 335.387156 78.064941 
L 335.476029 77.556706 
L 335.653776 66.680471 
L 335.831523 70.746353 
L 336.00927 70.543059 
L 336.098143 71.559529 
L 336.187016 74.100706 
L 336.453637 67.696941 
L 336.720257 71.356235 
L 336.898004 72.067765 
L 336.986877 72.067765 
L 337.164624 65.664 
L 337.431244 68.103529 
L 337.697864 66.477176 
L 337.786738 65.867294 
L 337.875611 66.070588 
L 338.053358 68.713412 
L 338.319978 68.611765 
L 338.408852 68.510118 
L 338.675472 66.985412 
L 338.764345 67.188706 
L 338.853219 64.850824 
L 338.942092 65.664 
L 339.119839 72.169412 
L 339.208712 74.608941 
L 339.297586 74.304 
L 339.475332 73.287529 
L 339.564206 73.999059 
L 339.741953 62.919529 
L 339.830826 62.919529 
L 339.919699 63.326118 
L 340.097446 62.309647 
L 340.18632 62.309647 
L 340.275193 62.919529 
L 340.45294 62.716235 
L 340.541813 62.716235 
L 340.630687 59.361882 
L 340.71956 59.666824 
L 340.897307 63.936 
L 340.98618 60.886588 
L 341.163927 64.749176 
L 341.2528 65.155765 
L 341.341674 67.493647 
L 341.519421 66.273882 
L 341.608294 66.273882 
L 341.697167 64.952471 
L 341.874914 59.666824 
L 341.963788 59.666824 
L 342.141534 62.004706 
L 342.319281 60.378353 
L 342.497028 62.512941 
L 342.585902 62.512941 
L 342.674775 66.070588 
L 342.763648 63.326118 
L 342.852522 63.936 
L 342.941395 63.427765 
L 343.119142 66.375529 
L 343.296889 61.293176 
L 343.385762 57.633882 
L 343.474636 58.447059 
L 343.563509 58.548706 
L 343.741256 58.955294 
L 343.830129 68.103529 
L 343.919003 59.056941 
L 344.007876 59.361882 
L 344.185623 53.974588 
L 344.274496 53.568 
L 344.452243 54.076235 
L 344.62999 58.040471 
L 344.807737 56.312471 
L 344.985483 56.210824 
L 345.16323 61.293176 
L 345.340977 63.122824 
L 345.42985 61.699765 
L 345.518724 61.903059 
L 345.696471 70.746353 
L 345.785344 70.746353 
L 346.051964 69.526588 
L 346.140838 72.372706 
L 346.318584 63.529412 
L 346.496331 63.122824 
L 346.674078 62.919529 
L 346.762951 63.936 
L 346.851825 63.732706 
L 346.940698 63.732706 
L 347.029572 67.392 
L 347.118445 66.883765 
L 347.296192 66.680471 
L 347.385065 65.765647 
L 347.562812 58.650353 
L 347.829432 62.411294 
L 348.007179 70.644706 
L 348.096053 70.644706 
L 348.184926 73.897412 
L 348.273799 73.389176 
L 348.362673 73.389176 
L 348.54042 72.576 
L 348.629293 73.185882 
L 348.718166 71.864471 
L 348.80704 66.375529 
L 348.984787 71.152941 
L 349.34028 71.152941 
L 349.518027 82.130824 
L 349.784647 79.996235 
L 349.873521 80.301176 
L 349.962394 81.012706 
L 350.140141 78.776471 
L 350.229014 78.776471 
L 350.406761 74.913882 
L 350.495634 75.828706 
L 350.940001 73.897412 
L 351.028875 73.897412 
L 351.117748 73.185882 
L 351.295495 68.815059 
L 351.384369 67.798588 
L 351.562115 62.309647 
L 351.650989 62.309647 
L 351.828736 62.817882 
L 351.917609 62.817882 
L 352.095356 61.191529 
L 352.273103 63.529412 
L 352.361976 63.427765 
L 352.71747 64.037647 
L 352.806343 64.037647 
L 352.895216 66.070588 
L 352.98409 65.765647 
L 353.072963 65.664 
L 353.161837 65.054118 
L 353.25071 65.257412 
L 353.428457 63.936 
L 353.51733 64.850824 
L 353.695077 64.342588 
L 353.872824 58.752 
L 353.961697 57.328941 
L 354.139444 57.837176 
L 354.317191 57.938824 
L 354.494938 56.414118 
L 354.583811 58.142118 
L 354.672684 57.938824 
L 354.850431 57.938824 
L 355.028178 63.224471 
L 355.205925 62.004706 
L 355.383672 61.801412 
L 355.561419 61.801412 
L 355.828039 63.224471 
L 356.183532 77.353412 
L 356.272406 77.353412 
L 356.450153 77.150118 
L 356.539026 77.150118 
L 356.716773 68.205176 
L 356.805646 67.798588 
L 356.983393 64.749176 
L 357.072266 64.749176 
L 357.250013 68.001882 
L 357.42776 68.306824 
L 357.516633 68.306824 
L 357.605507 68.916706 
L 357.69438 71.457882 
L 357.783254 71.356235 
L 357.872127 71.356235 
L 357.961 72.271059 
L 358.138747 70.949647 
L 358.227621 71.457882 
L 358.316494 71.356235 
L 358.494241 70.034824 
L 358.760861 71.661176 
L 358.938608 77.048471 
L 359.027481 77.556706 
L 359.205228 80.301176 
L 359.294101 79.589647 
L 359.471848 80.199529 
L 359.560722 68.001882 
L 359.649595 68.408471 
L 359.738469 69.12 
L 359.827342 66.680471 
L 359.916215 66.782118 
L 360.182836 66.782118 
L 360.360582 63.529412 
L 360.449456 70.543059 
L 360.538329 69.424941 
L 360.804949 74.100706 
L 360.982696 75.422118 
L 361.07157 75.422118 
L 361.160443 73.287529 
L 361.249316 73.795765 
L 361.33819 77.861647 
L 361.427063 77.251765 
L 361.515937 76.946824 
L 361.693683 77.76 
L 361.782557 77.861647 
L 361.960304 81.216 
L 362.049177 79.996235 
L 362.315797 71.051294 
L 362.671291 68.815059 
L 362.760164 68.916706 
L 362.937911 66.477176 
L 363.026784 66.477176 
L 363.115658 66.273882 
L 363.204531 66.985412 
L 363.293405 61.801412 
L 363.382278 63.936 
L 363.471151 62.309647 
L 363.560025 58.447059 
L 363.648898 58.650353 
L 363.737772 63.326118 
L 363.826645 63.224471 
L 364.004392 63.732706 
L 364.093265 64.037647 
L 364.271012 66.375529 
L 364.359886 66.375529 
L 364.537632 69.221647 
L 364.893126 68.103529 
L 364.981999 68.103529 
L 365.159746 69.323294 
L 365.24862 69.323294 
L 365.426366 69.526588 
L 365.78186 69.526588 
L 366.137354 65.257412 
L 366.226227 58.650353 
L 366.403974 63.224471 
L 366.759467 62.512941 
L 366.937214 59.158588 
L 367.026088 58.752 
L 367.114961 62.716235 
L 367.203834 59.870118 
L 367.292708 60.175059 
L 367.381581 60.175059 
L 367.559328 60.683294 
L 367.737075 63.529412 
L 367.825948 54.991059 
L 368.003695 59.260235 
L 368.270315 59.260235 
L 368.359189 64.850824 
L 368.448062 60.988235 
L 368.536936 61.699765 
L 368.625809 61.699765 
L 368.714682 64.342588 
L 368.803556 63.631059 
L 368.981303 71.864471 
L 369.159049 71.966118 
L 369.336796 68.408471 
L 369.42567 68.408471 
L 369.603416 65.867294 
L 369.69229 66.070588 
L 369.95891 67.696941 
L 370.136657 67.900235 
L 370.22553 69.526588 
L 370.581024 62.716235 
L 370.669897 62.309647 
L 370.936517 64.342588 
L 371.203138 63.122824 
L 371.292011 63.326118 
L 371.380884 62.817882 
L 371.469758 64.749176 
L 371.647505 60.581647 
L 371.736378 60.581647 
L 371.914125 57.024 
L 372.091872 57.024 
L 372.269618 57.938824 
L 372.358492 58.345412 
L 372.536239 59.971765 
L 372.713986 58.955294 
L 372.980606 72.677647 
L 373.158353 82.435765 
L 373.247226 82.435765 
L 373.424973 82.130824 
L 373.513846 80.504471 
L 373.60272 80.606118 
L 373.691593 80.606118 
L 373.86934 67.290353 
L 374.047087 66.782118 
L 374.13596 66.782118 
L 374.313707 64.850824 
L 374.491454 71.051294 
L 374.580327 71.051294 
L 374.6692 71.254588 
L 374.846947 73.897412 
L 375.113567 73.389176 
L 375.380188 81.114353 
L 375.557934 81.317647 
L 375.646808 80.911059 
L 375.913428 83.248941 
L 376.002301 86.501647 
L 376.091175 86.298353 
L 376.268922 85.586824 
L 376.446668 90.465882 
L 376.624415 95.04 
L 376.802162 94.938353 
L 376.891036 92.295529 
L 377.068782 93.718588 
L 377.246529 86.196706 
L 377.335403 86.196706 
L 377.513149 85.586824 
L 377.690896 85.586824 
L 377.868643 86.908235 
L 377.957516 86.908235 
L 378.04639 87.111529 
L 378.224137 89.957647 
L 378.31301 89.957647 
L 378.401883 88.839529 
L 378.490757 91.990588 
L 378.57963 91.685647 
L 378.668504 91.685647 
L 378.757377 91.888941 
L 378.84625 92.600471 
L 378.935124 89.957647 
L 379.023997 94.328471 
L 379.112871 90.567529 
L 379.201744 90.669176 
L 379.468364 86.298353 
L 379.646111 84.265412 
L 379.734984 84.367059 
L 380.001605 85.688471 
L 380.090478 87.416471 
L 380.268225 86.298353 
L 380.445972 88.839529 
L 380.623718 88.839529 
L 380.801465 89.449412 
L 380.979212 88.026353 
L 381.068086 87.924706 
L 381.156959 88.026353 
L 381.334706 85.586824 
L 381.512453 89.246118 
L 381.690199 89.144471 
L 381.867946 88.331294 
L 381.95682 90.160941 
L 382.134566 95.548235 
L 382.312313 95.853176 
L 382.401187 95.853176 
L 382.49006 96.259765 
L 382.578933 98.292706 
L 382.75668 91.787294 
L 382.934427 91.787294 
L 383.112174 89.652706 
L 383.201047 88.941176 
L 383.289921 89.449412 
L 383.378794 89.246118 
L 383.467667 90.770824 
L 383.645414 95.141647 
L 383.734288 94.633412 
L 383.823161 94.938353 
L 383.912034 94.836706 
L 384.089781 97.886118 
L 384.267528 93.921882 
L 384.445275 93.820235 
L 384.534148 94.328471 
L 384.711895 89.347765 
L 384.800768 90.059294 
L 384.889642 80.911059 
L 384.978515 82.130824 
L 385.245136 78.369882 
L 385.422882 78.064941 
L 385.600629 76.133647 
L 385.689503 77.150118 
L 385.778376 77.048471 
L 385.867249 77.048471 
L 385.956123 77.556706 
L 386.13387 77.150118 
L 386.311616 69.424941 
L 386.40049 69.018353 
L 386.578237 77.150118 
L 386.844857 78.776471 
L 387.022604 79.183059 
L 387.111477 78.979765 
L 387.20035 78.064941 
L 387.378097 71.254588 
L 387.555844 80.301176 
L 387.733591 80.402824 
L 387.822464 78.878118 
L 388.000211 73.592471 
L 388.089084 74.202353 
L 388.266831 72.677647 
L 388.355705 72.677647 
L 388.533451 77.963294 
L 388.800072 71.051294 
L 389.066692 90.160941 
L 389.155565 90.262588 
L 389.333312 89.754353 
L 389.422186 90.160941 
L 389.511059 80.809412 
L 389.599932 86.298353 
L 389.688806 84.976941 
L 389.777679 84.976941 
L 390.222046 83.655529 
L 390.31092 84.062118 
L 390.488666 86.095059 
L 390.57754 93.921882 
L 390.755287 91.279059 
L 391.021907 92.295529 
L 391.11078 89.449412 
L 391.199654 89.856 
L 391.3774 90.974118 
L 391.466274 91.177412 
L 391.555147 89.957647 
L 391.644021 90.262588 
L 391.732894 90.262588 
L 391.910641 89.144471 
L 391.999514 89.449412 
L 392.266134 82.435765 
L 392.355008 82.334118 
L 392.443881 82.639059 
L 392.532755 89.246118 
L 392.710501 82.842353 
L 392.799375 81.927529 
L 392.888248 83.757176 
L 393.065995 83.045647 
L 393.154868 83.960471 
L 393.332615 87.009882 
L 393.421489 87.009882 
L 393.510362 88.839529 
L 393.599235 84.875294 
L 393.688109 85.790118 
L 393.776982 85.790118 
L 393.954729 85.383529 
L 394.310223 94.531765 
L 394.48797 94.531765 
L 394.665716 98.800941 
L 394.75459 98.191059 
L 395.02121 98.191059 
L 395.28783 89.246118 
L 395.376704 89.246118 
L 395.465577 90.262588 
L 395.643324 93.210353 
L 395.732197 93.413647 
L 395.821071 93.312 
L 396.087691 103.273412 
L 396.176564 102.663529 
L 396.354311 102.663529 
L 396.443184 105.611294 
L 396.532058 103.070118 
L 396.709805 104.899765 
L 396.798678 104.899765 
L 396.887551 103.375059 
L 397.065298 93.820235 
L 397.154172 99.207529 
L 397.331918 96.971294 
L 397.420792 87.721412 
L 397.509665 96.361412 
L 397.598539 95.649882 
L 397.954032 95.649882 
L 398.042906 97.072941 
L 398.131779 96.158118 
L 398.309526 100.224 
L 398.487273 100.122353 
L 398.487273 100.122353 
" clip-path="url(#p6d80169b61)" style="fill: none; stroke: #1f77b4; stroke-width: 1.5; stroke-linecap: square"/>
   </g>
   <g id="patch_3">
    <path d="M 57.6 307.584 
L 57.6 41.472 
" style="fill: none; stroke: #000000; stroke-width: 0.8; stroke-linejoin: miter; stroke-linecap: square"/>
   </g>
   <g id="patch_4">
    <path d="M 414.72 307.584 
L 414.72 41.472 
" style="fill: none; stroke: #000000; stroke-width: 0.8; stroke-linejoin: miter; stroke-linecap: square"/>
   </g>
   <g id="patch_5">
    <path d="M 57.6 307.584 
L 414.72 307.584 
" style="fill: none; stroke: #000000; stroke-width: 0.8; stroke-linejoin: miter; stroke-linecap: square"/>
   </g>
   <g id="patch_6">
    <path d="M 57.6 41.472 
L 414.72 41.472 
" style="fill: none; stroke: #000000; stroke-width: 0.8; stroke-linejoin: miter; stroke-linecap: square"/>
   </g>
   <g id="text_16">
    <!-- comp14 -->
    <g transform="translate(211.90125 35.472) scale(0.12 -0.12)">
     <defs>
      <path id="DejaVuSans-63" d="M 3122 3366 
L 3122 2828 
Q 2878 2963 2633 3030 
Q 2388 3097 2138 3097 
Q 1578 3097 1268 2742 
Q 959 2388 959 1747 
Q 959 1106 1268 751 
Q 1578 397 2138 397 
Q 2388 397 2633 464 
Q 2878 531 3122 666 
L 3122 134 
Q 2881 22 2623 -34 
Q 2366 -91 2075 -91 
Q 1284 -91 818 406 
Q 353 903 353 1747 
Q 353 2603 823 3093 
Q 1294 3584 2113 3584 
Q 2378 3584 2631 3529 
Q 2884 3475 3122 3366 
z
" transform="scale(0.015625)"/>
      <path id="DejaVuSans-70" d="M 1159 525 
L 1159 -1331 
L 581 -1331 
L 581 3500 
L 1159 3500 
L 1159 2969 
Q 1341 3281 1617 3432 
Q 1894 3584 2278 3584 
Q 2916 3584 3314 3078 
Q 3713 2572 3713 1747 
Q 3713 922 3314 415 
Q 2916 -91 2278 -91 
Q 1894 -91 1617 61 
Q 1341 213 1159 525 
z
M 3116 1747 
Q 3116 2381 2855 2742 
Q 2594 3103 2138 3103 
Q 1681 3103 1420 2742 
Q 1159 2381 1159 1747 
Q 1159 1113 1420 752 
Q 1681 391 2138 391 
Q 2594 391 2855 752 
Q 3116 1113 3116 1747 
z
" transform="scale(0.015625)"/>
      <path id="DejaVuSans-34" d="M 2419 4116 
L 825 1625 
L 2419 1625 
L 2419 4116 
z
M 2253 4666 
L 3047 4666 
L 3047 1625 
L 3713 1625 
L 3713 1100 
L 3047 1100 
L 3047 0 
L 2419 0 
L 2419 1100 
L 313 1100 
L 313 1709 
L 2253 4666 
z
" transform="scale(0.015625)"/>
     </defs>
     <use xlink:href="#DejaVuSans-63"/>
     <use xlink:href="#DejaVuSans-6f" x="54.980469"/>
     <use xlink:href="#DejaVuSans-6d" x="116.162109"/>
     <use xlink:href="#DejaVuSans-70" x="213.574219"/>
     <use xlink:href="#DejaVuSans-31" x="277.050781"/>
     <use xlink:href="#DejaVuSans-34" x="340.673828"/>
    </g>
   </g>
  </g>
 </g>
 <defs>
  <clipPath id="p6d80169b61">
   <rect x="57.6" y="41.472" width="357.12" height="266.112"/>
  </clipPath>
 </defs>
</svg>
