<?xml version="1.0" encoding="utf-8" standalone="no"?>
<!DOCTYPE svg PUBLIC "-//W3C//DTD SVG 1.1//EN"
  "http://www.w3.org/Graphics/SVG/1.1/DTD/svg11.dtd">
<svg xmlns:xlink="http://www.w3.org/1999/xlink" width="460.8pt" height="345.6pt" viewBox="0 0 460.8 345.6" xmlns="http://www.w3.org/2000/svg" version="1.1">
 <metadata>
  <rdf:RDF xmlns:dc="http://purl.org/dc/elements/1.1/" xmlns:cc="http://creativecommons.org/ns#" xmlns:rdf="http://www.w3.org/1999/02/22-rdf-syntax-ns#">
   <cc:Work>
    <dc:type rdf:resource="http://purl.org/dc/dcmitype/StillImage"/>
    <dc:date>2023-12-03T18:15:54.344172</dc:date>
    <dc:format>image/svg+xml</dc:format>
    <dc:creator>
     <cc:Agent>
      <dc:title>Matplotlib v3.7.1, https://matplotlib.org/</dc:title>
     </cc:Agent>
    </dc:creator>
   </cc:Work>
  </rdf:RDF>
 </metadata>
 <defs>
  <style type="text/css">*{stroke-linejoin: round; stroke-linecap: butt}</style>
 </defs>
 <g id="figure_1">
  <g id="patch_1">
   <path d="M 0 345.6 
L 460.8 345.6 
L 460.8 0 
L 0 0 
z
" style="fill: #ffffff"/>
  </g>
  <g id="axes_1">
   <g id="patch_2">
    <path d="M 57.6 307.584 
L 414.72 307.584 
L 414.72 41.472 
L 57.6 41.472 
z
" style="fill: #ffffff"/>
   </g>
   <g id="matplotlib.axis_1">
    <g id="xtick_1">
     <g id="line2d_1">
      <defs>
       <path id="m9245526fab" d="M 0 0 
L 0 3.5 
" style="stroke: #000000; stroke-width: 0.8"/>
      </defs>
      <g>
       <use xlink:href="#m9245526fab" x="73.832727" y="307.584" style="stroke: #000000; stroke-width: 0.8"/>
      </g>
     </g>
     <g id="text_1">
      <!-- 0 -->
      <g transform="translate(70.651477 322.182437) scale(0.1 -0.1)">
       <defs>
        <path id="DejaVuSans-30" d="M 2034 4250 
Q 1547 4250 1301 3770 
Q 1056 3291 1056 2328 
Q 1056 1369 1301 889 
Q 1547 409 2034 409 
Q 2525 409 2770 889 
Q 3016 1369 3016 2328 
Q 3016 3291 2770 3770 
Q 2525 4250 2034 4250 
z
M 2034 4750 
Q 2819 4750 3233 4129 
Q 3647 3509 3647 2328 
Q 3647 1150 3233 529 
Q 2819 -91 2034 -91 
Q 1250 -91 836 529 
Q 422 1150 422 2328 
Q 422 3509 836 4129 
Q 1250 4750 2034 4750 
z
" transform="scale(0.015625)"/>
       </defs>
       <use xlink:href="#DejaVuSans-30"/>
      </g>
     </g>
    </g>
    <g id="xtick_2">
     <g id="line2d_2">
      <g>
       <use xlink:href="#m9245526fab" x="129.711307" y="307.584" style="stroke: #000000; stroke-width: 0.8"/>
      </g>
     </g>
     <g id="text_2">
      <!-- 500 -->
      <g transform="translate(120.167557 322.182437) scale(0.1 -0.1)">
       <defs>
        <path id="DejaVuSans-35" d="M 691 4666 
L 3169 4666 
L 3169 4134 
L 1269 4134 
L 1269 2991 
Q 1406 3038 1543 3061 
Q 1681 3084 1819 3084 
Q 2600 3084 3056 2656 
Q 3513 2228 3513 1497 
Q 3513 744 3044 326 
Q 2575 -91 1722 -91 
Q 1428 -91 1123 -41 
Q 819 9 494 109 
L 494 744 
Q 775 591 1075 516 
Q 1375 441 1709 441 
Q 2250 441 2565 725 
Q 2881 1009 2881 1497 
Q 2881 1984 2565 2268 
Q 2250 2553 1709 2553 
Q 1456 2553 1204 2497 
Q 953 2441 691 2322 
L 691 4666 
z
" transform="scale(0.015625)"/>
       </defs>
       <use xlink:href="#DejaVuSans-35"/>
       <use xlink:href="#DejaVuSans-30" x="63.623047"/>
       <use xlink:href="#DejaVuSans-30" x="127.246094"/>
      </g>
     </g>
    </g>
    <g id="xtick_3">
     <g id="line2d_3">
      <g>
       <use xlink:href="#m9245526fab" x="185.589886" y="307.584" style="stroke: #000000; stroke-width: 0.8"/>
      </g>
     </g>
     <g id="text_3">
      <!-- 1000 -->
      <g transform="translate(172.864886 322.182437) scale(0.1 -0.1)">
       <defs>
        <path id="DejaVuSans-31" d="M 794 531 
L 1825 531 
L 1825 4091 
L 703 3866 
L 703 4441 
L 1819 4666 
L 2450 4666 
L 2450 531 
L 3481 531 
L 3481 0 
L 794 0 
L 794 531 
z
" transform="scale(0.015625)"/>
       </defs>
       <use xlink:href="#DejaVuSans-31"/>
       <use xlink:href="#DejaVuSans-30" x="63.623047"/>
       <use xlink:href="#DejaVuSans-30" x="127.246094"/>
       <use xlink:href="#DejaVuSans-30" x="190.869141"/>
      </g>
     </g>
    </g>
    <g id="xtick_4">
     <g id="line2d_4">
      <g>
       <use xlink:href="#m9245526fab" x="241.468465" y="307.584" style="stroke: #000000; stroke-width: 0.8"/>
      </g>
     </g>
     <g id="text_4">
      <!-- 1500 -->
      <g transform="translate(228.743465 322.182437) scale(0.1 -0.1)">
       <use xlink:href="#DejaVuSans-31"/>
       <use xlink:href="#DejaVuSans-35" x="63.623047"/>
       <use xlink:href="#DejaVuSans-30" x="127.246094"/>
       <use xlink:href="#DejaVuSans-30" x="190.869141"/>
      </g>
     </g>
    </g>
    <g id="xtick_5">
     <g id="line2d_5">
      <g>
       <use xlink:href="#m9245526fab" x="297.347044" y="307.584" style="stroke: #000000; stroke-width: 0.8"/>
      </g>
     </g>
     <g id="text_5">
      <!-- 2000 -->
      <g transform="translate(284.622044 322.182437) scale(0.1 -0.1)">
       <defs>
        <path id="DejaVuSans-32" d="M 1228 531 
L 3431 531 
L 3431 0 
L 469 0 
L 469 531 
Q 828 903 1448 1529 
Q 2069 2156 2228 2338 
Q 2531 2678 2651 2914 
Q 2772 3150 2772 3378 
Q 2772 3750 2511 3984 
Q 2250 4219 1831 4219 
Q 1534 4219 1204 4116 
Q 875 4013 500 3803 
L 500 4441 
Q 881 4594 1212 4672 
Q 1544 4750 1819 4750 
Q 2544 4750 2975 4387 
Q 3406 4025 3406 3419 
Q 3406 3131 3298 2873 
Q 3191 2616 2906 2266 
Q 2828 2175 2409 1742 
Q 1991 1309 1228 531 
z
" transform="scale(0.015625)"/>
       </defs>
       <use xlink:href="#DejaVuSans-32"/>
       <use xlink:href="#DejaVuSans-30" x="63.623047"/>
       <use xlink:href="#DejaVuSans-30" x="127.246094"/>
       <use xlink:href="#DejaVuSans-30" x="190.869141"/>
      </g>
     </g>
    </g>
    <g id="xtick_6">
     <g id="line2d_6">
      <g>
       <use xlink:href="#m9245526fab" x="353.225624" y="307.584" style="stroke: #000000; stroke-width: 0.8"/>
      </g>
     </g>
     <g id="text_6">
      <!-- 2500 -->
      <g transform="translate(340.500624 322.182437) scale(0.1 -0.1)">
       <use xlink:href="#DejaVuSans-32"/>
       <use xlink:href="#DejaVuSans-35" x="63.623047"/>
       <use xlink:href="#DejaVuSans-30" x="127.246094"/>
       <use xlink:href="#DejaVuSans-30" x="190.869141"/>
      </g>
     </g>
    </g>
    <g id="xtick_7">
     <g id="line2d_7">
      <g>
       <use xlink:href="#m9245526fab" x="409.104203" y="307.584" style="stroke: #000000; stroke-width: 0.8"/>
      </g>
     </g>
     <g id="text_7">
      <!-- 3000 -->
      <g transform="translate(396.379203 322.182437) scale(0.1 -0.1)">
       <defs>
        <path id="DejaVuSans-33" d="M 2597 2516 
Q 3050 2419 3304 2112 
Q 3559 1806 3559 1356 
Q 3559 666 3084 287 
Q 2609 -91 1734 -91 
Q 1441 -91 1130 -33 
Q 819 25 488 141 
L 488 750 
Q 750 597 1062 519 
Q 1375 441 1716 441 
Q 2309 441 2620 675 
Q 2931 909 2931 1356 
Q 2931 1769 2642 2001 
Q 2353 2234 1838 2234 
L 1294 2234 
L 1294 2753 
L 1863 2753 
Q 2328 2753 2575 2939 
Q 2822 3125 2822 3475 
Q 2822 3834 2567 4026 
Q 2313 4219 1838 4219 
Q 1578 4219 1281 4162 
Q 984 4106 628 3988 
L 628 4550 
Q 988 4650 1302 4700 
Q 1616 4750 1894 4750 
Q 2613 4750 3031 4423 
Q 3450 4097 3450 3541 
Q 3450 3153 3228 2886 
Q 3006 2619 2597 2516 
z
" transform="scale(0.015625)"/>
       </defs>
       <use xlink:href="#DejaVuSans-33"/>
       <use xlink:href="#DejaVuSans-30" x="63.623047"/>
       <use xlink:href="#DejaVuSans-30" x="127.246094"/>
       <use xlink:href="#DejaVuSans-30" x="190.869141"/>
      </g>
     </g>
    </g>
    <g id="text_8">
     <!-- iteration -->
     <g transform="translate(215.037344 335.860562) scale(0.1 -0.1)">
      <defs>
       <path id="DejaVuSans-69" d="M 603 3500 
L 1178 3500 
L 1178 0 
L 603 0 
L 603 3500 
z
M 603 4863 
L 1178 4863 
L 1178 4134 
L 603 4134 
L 603 4863 
z
" transform="scale(0.015625)"/>
       <path id="DejaVuSans-74" d="M 1172 4494 
L 1172 3500 
L 2356 3500 
L 2356 3053 
L 1172 3053 
L 1172 1153 
Q 1172 725 1289 603 
Q 1406 481 1766 481 
L 2356 481 
L 2356 0 
L 1766 0 
Q 1100 0 847 248 
Q 594 497 594 1153 
L 594 3053 
L 172 3053 
L 172 3500 
L 594 3500 
L 594 4494 
L 1172 4494 
z
" transform="scale(0.015625)"/>
       <path id="DejaVuSans-65" d="M 3597 1894 
L 3597 1613 
L 953 1613 
Q 991 1019 1311 708 
Q 1631 397 2203 397 
Q 2534 397 2845 478 
Q 3156 559 3463 722 
L 3463 178 
Q 3153 47 2828 -22 
Q 2503 -91 2169 -91 
Q 1331 -91 842 396 
Q 353 884 353 1716 
Q 353 2575 817 3079 
Q 1281 3584 2069 3584 
Q 2775 3584 3186 3129 
Q 3597 2675 3597 1894 
z
M 3022 2063 
Q 3016 2534 2758 2815 
Q 2500 3097 2075 3097 
Q 1594 3097 1305 2825 
Q 1016 2553 972 2059 
L 3022 2063 
z
" transform="scale(0.015625)"/>
       <path id="DejaVuSans-72" d="M 2631 2963 
Q 2534 3019 2420 3045 
Q 2306 3072 2169 3072 
Q 1681 3072 1420 2755 
Q 1159 2438 1159 1844 
L 1159 0 
L 581 0 
L 581 3500 
L 1159 3500 
L 1159 2956 
Q 1341 3275 1631 3429 
Q 1922 3584 2338 3584 
Q 2397 3584 2469 3576 
Q 2541 3569 2628 3553 
L 2631 2963 
z
" transform="scale(0.015625)"/>
       <path id="DejaVuSans-61" d="M 2194 1759 
Q 1497 1759 1228 1600 
Q 959 1441 959 1056 
Q 959 750 1161 570 
Q 1363 391 1709 391 
Q 2188 391 2477 730 
Q 2766 1069 2766 1631 
L 2766 1759 
L 2194 1759 
z
M 3341 1997 
L 3341 0 
L 2766 0 
L 2766 531 
Q 2569 213 2275 61 
Q 1981 -91 1556 -91 
Q 1019 -91 701 211 
Q 384 513 384 1019 
Q 384 1609 779 1909 
Q 1175 2209 1959 2209 
L 2766 2209 
L 2766 2266 
Q 2766 2663 2505 2880 
Q 2244 3097 1772 3097 
Q 1472 3097 1187 3025 
Q 903 2953 641 2809 
L 641 3341 
Q 956 3463 1253 3523 
Q 1550 3584 1831 3584 
Q 2591 3584 2966 3190 
Q 3341 2797 3341 1997 
z
" transform="scale(0.015625)"/>
       <path id="DejaVuSans-6f" d="M 1959 3097 
Q 1497 3097 1228 2736 
Q 959 2375 959 1747 
Q 959 1119 1226 758 
Q 1494 397 1959 397 
Q 2419 397 2687 759 
Q 2956 1122 2956 1747 
Q 2956 2369 2687 2733 
Q 2419 3097 1959 3097 
z
M 1959 3584 
Q 2709 3584 3137 3096 
Q 3566 2609 3566 1747 
Q 3566 888 3137 398 
Q 2709 -91 1959 -91 
Q 1206 -91 779 398 
Q 353 888 353 1747 
Q 353 2609 779 3096 
Q 1206 3584 1959 3584 
z
" transform="scale(0.015625)"/>
       <path id="DejaVuSans-6e" d="M 3513 2113 
L 3513 0 
L 2938 0 
L 2938 2094 
Q 2938 2591 2744 2837 
Q 2550 3084 2163 3084 
Q 1697 3084 1428 2787 
Q 1159 2491 1159 1978 
L 1159 0 
L 581 0 
L 581 3500 
L 1159 3500 
L 1159 2956 
Q 1366 3272 1645 3428 
Q 1925 3584 2291 3584 
Q 2894 3584 3203 3211 
Q 3513 2838 3513 2113 
z
" transform="scale(0.015625)"/>
      </defs>
      <use xlink:href="#DejaVuSans-69"/>
      <use xlink:href="#DejaVuSans-74" x="27.783203"/>
      <use xlink:href="#DejaVuSans-65" x="66.992188"/>
      <use xlink:href="#DejaVuSans-72" x="128.515625"/>
      <use xlink:href="#DejaVuSans-61" x="169.628906"/>
      <use xlink:href="#DejaVuSans-74" x="230.908203"/>
      <use xlink:href="#DejaVuSans-69" x="270.117188"/>
      <use xlink:href="#DejaVuSans-6f" x="297.900391"/>
      <use xlink:href="#DejaVuSans-6e" x="359.082031"/>
     </g>
    </g>
   </g>
   <g id="matplotlib.axis_2">
    <g id="ytick_1">
     <g id="line2d_8">
      <defs>
       <path id="m137e7a3c53" d="M 0 0 
L -3.5 0 
" style="stroke: #000000; stroke-width: 0.8"/>
      </defs>
      <g>
       <use xlink:href="#m137e7a3c53" x="57.6" y="288.699429" style="stroke: #000000; stroke-width: 0.8"/>
      </g>
     </g>
     <g id="text_9">
      <!-- 500 -->
      <g transform="translate(31.5125 292.498647) scale(0.1 -0.1)">
       <use xlink:href="#DejaVuSans-35"/>
       <use xlink:href="#DejaVuSans-30" x="63.623047"/>
       <use xlink:href="#DejaVuSans-30" x="127.246094"/>
      </g>
     </g>
    </g>
    <g id="ytick_2">
     <g id="line2d_9">
      <g>
       <use xlink:href="#m137e7a3c53" x="57.6" y="257.842286" style="stroke: #000000; stroke-width: 0.8"/>
      </g>
     </g>
     <g id="text_10">
      <!-- 1000 -->
      <g transform="translate(25.15 261.641504) scale(0.1 -0.1)">
       <use xlink:href="#DejaVuSans-31"/>
       <use xlink:href="#DejaVuSans-30" x="63.623047"/>
       <use xlink:href="#DejaVuSans-30" x="127.246094"/>
       <use xlink:href="#DejaVuSans-30" x="190.869141"/>
      </g>
     </g>
    </g>
    <g id="ytick_3">
     <g id="line2d_10">
      <g>
       <use xlink:href="#m137e7a3c53" x="57.6" y="226.985143" style="stroke: #000000; stroke-width: 0.8"/>
      </g>
     </g>
     <g id="text_11">
      <!-- 1500 -->
      <g transform="translate(25.15 230.784362) scale(0.1 -0.1)">
       <use xlink:href="#DejaVuSans-31"/>
       <use xlink:href="#DejaVuSans-35" x="63.623047"/>
       <use xlink:href="#DejaVuSans-30" x="127.246094"/>
       <use xlink:href="#DejaVuSans-30" x="190.869141"/>
      </g>
     </g>
    </g>
    <g id="ytick_4">
     <g id="line2d_11">
      <g>
       <use xlink:href="#m137e7a3c53" x="57.6" y="196.128" style="stroke: #000000; stroke-width: 0.8"/>
      </g>
     </g>
     <g id="text_12">
      <!-- 2000 -->
      <g transform="translate(25.15 199.927219) scale(0.1 -0.1)">
       <use xlink:href="#DejaVuSans-32"/>
       <use xlink:href="#DejaVuSans-30" x="63.623047"/>
       <use xlink:href="#DejaVuSans-30" x="127.246094"/>
       <use xlink:href="#DejaVuSans-30" x="190.869141"/>
      </g>
     </g>
    </g>
    <g id="ytick_5">
     <g id="line2d_12">
      <g>
       <use xlink:href="#m137e7a3c53" x="57.6" y="165.270857" style="stroke: #000000; stroke-width: 0.8"/>
      </g>
     </g>
     <g id="text_13">
      <!-- 2500 -->
      <g transform="translate(25.15 169.070076) scale(0.1 -0.1)">
       <use xlink:href="#DejaVuSans-32"/>
       <use xlink:href="#DejaVuSans-35" x="63.623047"/>
       <use xlink:href="#DejaVuSans-30" x="127.246094"/>
       <use xlink:href="#DejaVuSans-30" x="190.869141"/>
      </g>
     </g>
    </g>
    <g id="ytick_6">
     <g id="line2d_13">
      <g>
       <use xlink:href="#m137e7a3c53" x="57.6" y="134.413714" style="stroke: #000000; stroke-width: 0.8"/>
      </g>
     </g>
     <g id="text_14">
      <!-- 3000 -->
      <g transform="translate(25.15 138.212933) scale(0.1 -0.1)">
       <use xlink:href="#DejaVuSans-33"/>
       <use xlink:href="#DejaVuSans-30" x="63.623047"/>
       <use xlink:href="#DejaVuSans-30" x="127.246094"/>
       <use xlink:href="#DejaVuSans-30" x="190.869141"/>
      </g>
     </g>
    </g>
    <g id="ytick_7">
     <g id="line2d_14">
      <g>
       <use xlink:href="#m137e7a3c53" x="57.6" y="103.556571" style="stroke: #000000; stroke-width: 0.8"/>
      </g>
     </g>
     <g id="text_15">
      <!-- 3500 -->
      <g transform="translate(25.15 107.35579) scale(0.1 -0.1)">
       <use xlink:href="#DejaVuSans-33"/>
       <use xlink:href="#DejaVuSans-35" x="63.623047"/>
       <use xlink:href="#DejaVuSans-30" x="127.246094"/>
       <use xlink:href="#DejaVuSans-30" x="190.869141"/>
      </g>
     </g>
    </g>
    <g id="ytick_8">
     <g id="line2d_15">
      <g>
       <use xlink:href="#m137e7a3c53" x="57.6" y="72.699429" style="stroke: #000000; stroke-width: 0.8"/>
      </g>
     </g>
     <g id="text_16">
      <!-- 4000 -->
      <g transform="translate(25.15 76.498647) scale(0.1 -0.1)">
       <defs>
        <path id="DejaVuSans-34" d="M 2419 4116 
L 825 1625 
L 2419 1625 
L 2419 4116 
z
M 2253 4666 
L 3047 4666 
L 3047 1625 
L 3713 1625 
L 3713 1100 
L 3047 1100 
L 3047 0 
L 2419 0 
L 2419 1100 
L 313 1100 
L 313 1709 
L 2253 4666 
z
" transform="scale(0.015625)"/>
       </defs>
       <use xlink:href="#DejaVuSans-34"/>
       <use xlink:href="#DejaVuSans-30" x="63.623047"/>
       <use xlink:href="#DejaVuSans-30" x="127.246094"/>
       <use xlink:href="#DejaVuSans-30" x="190.869141"/>
      </g>
     </g>
    </g>
    <g id="ytick_9">
     <g id="line2d_16">
      <g>
       <use xlink:href="#m137e7a3c53" x="57.6" y="41.842286" style="stroke: #000000; stroke-width: 0.8"/>
      </g>
     </g>
     <g id="text_17">
      <!-- 4500 -->
      <g transform="translate(25.15 45.641504) scale(0.1 -0.1)">
       <use xlink:href="#DejaVuSans-34"/>
       <use xlink:href="#DejaVuSans-35" x="63.623047"/>
       <use xlink:href="#DejaVuSans-30" x="127.246094"/>
       <use xlink:href="#DejaVuSans-30" x="190.869141"/>
      </g>
     </g>
    </g>
    <g id="text_18">
     <!-- best fitness of swarm -->
     <g transform="translate(19.070312 228.0905) rotate(-90) scale(0.1 -0.1)">
      <defs>
       <path id="DejaVuSans-62" d="M 3116 1747 
Q 3116 2381 2855 2742 
Q 2594 3103 2138 3103 
Q 1681 3103 1420 2742 
Q 1159 2381 1159 1747 
Q 1159 1113 1420 752 
Q 1681 391 2138 391 
Q 2594 391 2855 752 
Q 3116 1113 3116 1747 
z
M 1159 2969 
Q 1341 3281 1617 3432 
Q 1894 3584 2278 3584 
Q 2916 3584 3314 3078 
Q 3713 2572 3713 1747 
Q 3713 922 3314 415 
Q 2916 -91 2278 -91 
Q 1894 -91 1617 61 
Q 1341 213 1159 525 
L 1159 0 
L 581 0 
L 581 4863 
L 1159 4863 
L 1159 2969 
z
" transform="scale(0.015625)"/>
       <path id="DejaVuSans-73" d="M 2834 3397 
L 2834 2853 
Q 2591 2978 2328 3040 
Q 2066 3103 1784 3103 
Q 1356 3103 1142 2972 
Q 928 2841 928 2578 
Q 928 2378 1081 2264 
Q 1234 2150 1697 2047 
L 1894 2003 
Q 2506 1872 2764 1633 
Q 3022 1394 3022 966 
Q 3022 478 2636 193 
Q 2250 -91 1575 -91 
Q 1294 -91 989 -36 
Q 684 19 347 128 
L 347 722 
Q 666 556 975 473 
Q 1284 391 1588 391 
Q 1994 391 2212 530 
Q 2431 669 2431 922 
Q 2431 1156 2273 1281 
Q 2116 1406 1581 1522 
L 1381 1569 
Q 847 1681 609 1914 
Q 372 2147 372 2553 
Q 372 3047 722 3315 
Q 1072 3584 1716 3584 
Q 2034 3584 2315 3537 
Q 2597 3491 2834 3397 
z
" transform="scale(0.015625)"/>
       <path id="DejaVuSans-20" transform="scale(0.015625)"/>
       <path id="DejaVuSans-66" d="M 2375 4863 
L 2375 4384 
L 1825 4384 
Q 1516 4384 1395 4259 
Q 1275 4134 1275 3809 
L 1275 3500 
L 2222 3500 
L 2222 3053 
L 1275 3053 
L 1275 0 
L 697 0 
L 697 3053 
L 147 3053 
L 147 3500 
L 697 3500 
L 697 3744 
Q 697 4328 969 4595 
Q 1241 4863 1831 4863 
L 2375 4863 
z
" transform="scale(0.015625)"/>
       <path id="DejaVuSans-77" d="M 269 3500 
L 844 3500 
L 1563 769 
L 2278 3500 
L 2956 3500 
L 3675 769 
L 4391 3500 
L 4966 3500 
L 4050 0 
L 3372 0 
L 2619 2869 
L 1863 0 
L 1184 0 
L 269 3500 
z
" transform="scale(0.015625)"/>
       <path id="DejaVuSans-6d" d="M 3328 2828 
Q 3544 3216 3844 3400 
Q 4144 3584 4550 3584 
Q 5097 3584 5394 3201 
Q 5691 2819 5691 2113 
L 5691 0 
L 5113 0 
L 5113 2094 
Q 5113 2597 4934 2840 
Q 4756 3084 4391 3084 
Q 3944 3084 3684 2787 
Q 3425 2491 3425 1978 
L 3425 0 
L 2847 0 
L 2847 2094 
Q 2847 2600 2669 2842 
Q 2491 3084 2119 3084 
Q 1678 3084 1418 2786 
Q 1159 2488 1159 1978 
L 1159 0 
L 581 0 
L 581 3500 
L 1159 3500 
L 1159 2956 
Q 1356 3278 1631 3431 
Q 1906 3584 2284 3584 
Q 2666 3584 2933 3390 
Q 3200 3197 3328 2828 
z
" transform="scale(0.015625)"/>
      </defs>
      <use xlink:href="#DejaVuSans-62"/>
      <use xlink:href="#DejaVuSans-65" x="63.476562"/>
      <use xlink:href="#DejaVuSans-73" x="125"/>
      <use xlink:href="#DejaVuSans-74" x="177.099609"/>
      <use xlink:href="#DejaVuSans-20" x="216.308594"/>
      <use xlink:href="#DejaVuSans-66" x="248.095703"/>
      <use xlink:href="#DejaVuSans-69" x="283.300781"/>
      <use xlink:href="#DejaVuSans-74" x="311.083984"/>
      <use xlink:href="#DejaVuSans-6e" x="350.292969"/>
      <use xlink:href="#DejaVuSans-65" x="413.671875"/>
      <use xlink:href="#DejaVuSans-73" x="475.195312"/>
      <use xlink:href="#DejaVuSans-73" x="527.294922"/>
      <use xlink:href="#DejaVuSans-20" x="579.394531"/>
      <use xlink:href="#DejaVuSans-6f" x="611.181641"/>
      <use xlink:href="#DejaVuSans-66" x="672.363281"/>
      <use xlink:href="#DejaVuSans-20" x="707.568359"/>
      <use xlink:href="#DejaVuSans-73" x="739.355469"/>
      <use xlink:href="#DejaVuSans-77" x="791.455078"/>
      <use xlink:href="#DejaVuSans-61" x="873.242188"/>
      <use xlink:href="#DejaVuSans-72" x="934.521484"/>
      <use xlink:href="#DejaVuSans-6d" x="973.884766"/>
     </g>
    </g>
   </g>
   <g id="line2d_17">
    <path d="M 73.832727 295.488 
L 74.056242 292.525714 
L 74.279756 291.476571 
L 74.391513 291.414857 
L 74.50327 291.538286 
L 74.726785 288.699429 
L 74.950299 288.761143 
L 75.173813 287.958857 
L 75.509085 287.897143 
L 75.620842 287.897143 
L 76.06787 283.885714 
L 76.291385 284.070857 
L 76.626656 284.009143 
L 76.850171 278.516571 
L 76.961928 278.269714 
L 77.297199 268.457143 
L 77.408956 270.987429 
L 77.520714 269.136 
L 77.632471 269.197714 
L 77.855985 268.950857 
L 77.967742 268.950857 
L 78.079499 267.654857 
L 78.303014 267.654857 
L 78.414771 267.222857 
L 78.526528 266.173714 
L 78.638285 266.173714 
L 78.861799 270.061714 
L 79.085314 269.506286 
L 79.197071 269.506286 
L 79.755857 257.780571 
L 79.979371 258.459429 
L 80.202885 258.212571 
L 80.4264 258.027429 
L 80.649914 257.410286 
L 80.761671 257.410286 
L 80.985185 252.349714 
L 81.2087 252.349714 
L 81.320457 254.016 
L 81.432214 253.892571 
L 81.543971 254.077714 
L 81.767486 255.065143 
L 81.879243 254.88 
L 81.991 249.140571 
L 82.102757 249.140571 
L 82.214514 242.784 
L 82.326271 243.030857 
L 82.438028 242.290286 
L 82.549786 240.192 
L 82.661543 240.500571 
L 82.885057 240.377143 
L 83.108571 242.660571 
L 83.220329 242.537143 
L 83.332086 241.92 
L 83.5556 237.908571 
L 83.779114 238.217143 
L 84.114386 237.970286 
L 84.226143 237.414857 
L 84.3379 233.588571 
L 84.449657 233.588571 
L 84.673172 233.897143 
L 84.896686 233.156571 
L 85.1202 233.156571 
L 85.343715 232.539429 
L 85.455472 232.477714 
L 85.567229 228.157714 
L 85.678986 228.281143 
L 85.790743 225.812571 
L 86.014258 226.676571 
L 86.237772 224.825143 
L 86.349529 225.380571 
L 86.573043 225.195429 
L 86.796558 224.701714 
L 87.020072 221.369143 
L 87.131829 221.677714 
L 87.355343 223.344 
L 87.578858 217.419429 
L 87.802372 216.740571 
L 88.025886 217.666286 
L 88.249401 214.889143 
L 88.472915 214.827429 
L 88.584672 210.445714 
L 88.696429 211.062857 
L 88.919944 207.483429 
L 89.143458 207.174857 
L 89.478729 198.843429 
L 89.590487 198.164571 
L 89.702244 198.473143 
L 89.814001 197.670857 
L 89.925758 193.536 
L 90.149272 193.597714 
L 90.26103 195.634286 
L 90.484544 191.684571 
L 90.596301 191.499429 
L 90.708058 190.697143 
L 90.931573 190.882286 
L 91.155087 189.277714 
L 91.490358 185.019429 
L 91.602115 185.019429 
L 91.82563 182.736 
L 91.937387 182.736 
L 92.049144 182.859429 
L 92.272658 182.736 
L 92.384416 182.736 
L 92.60793 183.168 
L 92.719687 181.625143 
L 92.831444 182.242286 
L 92.943201 182.180571 
L 93.278473 178.045714 
L 93.39023 177.922286 
L 93.501987 176.749714 
L 93.613744 180.144 
L 93.725501 177.428571 
L 93.949016 177.613714 
L 94.060773 180.576 
L 94.17253 179.773714 
L 94.396044 174.219429 
L 94.507802 175.453714 
L 94.619559 172.923429 
L 94.731316 173.108571 
L 94.843073 167.862857 
L 95.178345 167.986286 
L 95.401859 159.84 
L 95.513616 159.84 
L 95.73713 160.333714 
L 95.848887 158.914286 
L 95.960645 159.778286 
L 96.072402 159.716571 
L 96.184159 157.865143 
L 96.407673 158.050286 
L 96.51943 158.050286 
L 96.742945 158.358857 
L 96.854702 158.420571 
L 97.078216 158.914286 
L 97.301731 158.852571 
L 97.525245 160.580571 
L 97.860516 161.938286 
L 97.972274 156.137143 
L 98.084031 156.877714 
L 98.195788 159.408 
L 98.307545 158.544 
L 98.531059 153.545143 
L 98.642816 153.668571 
L 98.754574 153.977143 
L 98.866331 153.606857 
L 98.978088 149.904 
L 99.089845 149.904 
L 99.201602 150.027429 
L 99.425117 151.446857 
L 99.536874 151.261714 
L 99.760388 149.780571 
L 100.09566 149.842286 
L 100.319174 148.361143 
L 100.542688 148.176 
L 100.766202 148.793143 
L 100.87796 148.793143 
L 101.101474 148.052571 
L 101.213231 148.052571 
L 101.324988 148.237714 
L 101.436745 147.620571 
L 101.66026 136.388571 
L 101.883774 136.203429 
L 101.995531 135.401143 
L 102.219046 135.956571 
L 102.330803 136.08 
L 102.44256 133.858286 
L 102.554317 133.858286 
L 102.666074 133.488 
L 102.777831 133.611429 
L 102.889588 133.426286 
L 103.001346 135.956571 
L 103.113103 135.771429 
L 103.22486 132.500571 
L 103.448374 133.117714 
L 103.671889 129.291429 
L 103.783646 127.872 
L 103.895403 127.872 
L 104.00716 123.798857 
L 104.118917 124.416 
L 104.342432 129.476571 
L 104.454189 129.353143 
L 104.677703 131.204571 
L 104.78946 130.278857 
L 105.012974 130.649143 
L 105.124732 129.785143 
L 105.236489 134.784 
L 105.348246 130.525714 
L 105.57176 130.834286 
L 105.683517 130.834286 
L 106.018789 129.661714 
L 106.242303 136.882286 
L 106.577575 126.020571 
L 106.689332 126.020571 
L 106.801089 128.921143 
L 106.912846 128.921143 
L 107.136361 126.267429 
L 107.248118 130.896 
L 107.359875 127.933714 
L 107.471632 129.476571 
L 107.695146 133.734857 
L 107.918661 133.364571 
L 108.142175 137.622857 
L 108.477446 139.968 
L 108.589204 139.968 
L 108.700961 139.844571 
L 108.812718 139.906286 
L 108.924475 138.672 
L 109.036232 138.672 
L 109.147989 138.548571 
L 109.259747 133.179429 
L 109.371504 134.598857 
L 109.483261 134.413714 
L 109.595018 134.537143 
L 109.706775 134.228571 
L 109.818532 135.154286 
L 109.930289 133.734857 
L 110.153804 134.845714 
L 110.265561 140.214857 
L 110.489075 140.214857 
L 110.600832 138.548571 
L 110.71259 138.548571 
L 111.159618 126.390857 
L 111.271375 126.699429 
L 111.49489 121.700571 
L 111.606647 121.824 
L 111.830161 124.786286 
L 112.053675 124.539429 
L 112.27719 124.662857 
L 112.388947 125.218286 
L 112.724218 120.404571 
L 112.947733 120.096 
L 113.05949 122.626286 
L 113.171247 122.626286 
L 113.394761 122.441143 
L 113.618276 122.441143 
L 113.953547 126.020571 
L 114.177061 126.329143 
L 114.400576 126.329143 
L 114.62409 121.021714 
L 114.735847 119.664 
L 114.959362 115.899429 
L 115.182876 115.714286 
L 115.294633 115.714286 
L 115.518147 114.048 
L 115.741662 113.122286 
L 115.965176 113.122286 
L 116.412205 113.492571 
L 116.523962 118.244571 
L 116.635719 112.875429 
L 116.97099 112.813714 
L 117.194505 113.739429 
L 117.306262 113.677714 
L 117.529776 114.541714 
L 117.865048 114.541714 
L 118.088562 120.157714 
L 118.200319 122.688 
L 118.312076 122.688 
L 118.423834 122.194286 
L 118.535591 117.318857 
L 118.759105 117.318857 
L 119.094376 121.392 
L 119.541405 121.392 
L 119.653162 124.786286 
L 119.876677 124.230857 
L 120.211948 123.984 
L 120.323705 124.107429 
L 120.54722 123.922286 
L 120.658977 125.341714 
L 120.770734 123.613714 
L 120.882491 123.613714 
L 121.106005 123.428571 
L 121.32952 123.737143 
L 121.441277 123.552 
L 121.664791 118.368 
L 121.776548 118.738286 
L 121.888305 122.934857 
L 122.000063 121.824 
L 122.223577 121.885714 
L 122.335334 122.256 
L 122.558848 122.070857 
L 122.782363 122.009143 
L 122.89412 122.564571 
L 123.005877 122.441143 
L 123.229391 116.825143 
L 123.341148 120.219429 
L 123.452906 120.096 
L 123.564663 116.022857 
L 123.67642 116.022857 
L 123.899934 116.701714 
L 124.011691 116.825143 
L 124.235206 117.627429 
L 124.570477 117.627429 
L 124.682234 119.355429 
L 124.793992 119.355429 
L 125.017506 119.232 
L 125.24102 118.368 
L 125.464535 118.861714 
L 125.576292 121.577143 
L 125.688049 116.578286 
L 125.799806 117.812571 
L 126.135077 117.812571 
L 126.358592 117.195429 
L 126.470349 117.997714 
L 126.582106 117.380571 
L 126.693863 114.973714 
L 126.80562 114.973714 
L 127.029135 121.947429 
L 127.140892 121.885714 
L 127.252649 115.097143 
L 127.364406 115.097143 
L 127.699678 124.909714 
L 128.034949 125.218286 
L 128.146706 124.786286 
L 128.370221 125.712 
L 128.481978 125.650286 
L 128.593735 124.292571 
L 128.705492 127.316571 
L 128.817249 126.946286 
L 129.040764 127.193143 
L 129.152521 120.651429 
L 129.264278 123.058286 
L 129.487792 122.379429 
L 129.599549 122.379429 
L 129.823064 118.614857 
L 129.934821 117.936 
L 130.046578 119.170286 
L 130.158335 122.749714 
L 130.270092 122.626286 
L 130.381849 126.390857 
L 130.717121 126.452571 
L 130.940635 125.773714 
L 131.275907 124.477714 
L 131.499421 119.355429 
L 131.611178 118.491429 
L 131.722935 119.355429 
L 131.94645 119.293714 
L 132.058207 118.985143 
L 132.169964 115.529143 
L 132.281721 115.776 
L 132.393478 116.393143 
L 132.505235 118.8 
L 132.616993 118.8 
L 132.72875 114.665143 
L 132.840507 117.627429 
L 133.175778 117.565714 
L 133.51105 118.059429 
L 133.622807 117.936 
L 133.734564 120.034286 
L 133.846321 119.849143 
L 134.069836 120.034286 
L 134.181593 118.306286 
L 134.405107 119.478857 
L 134.516864 123.490286 
L 134.628621 118.738286 
L 134.740379 118.738286 
L 134.852136 116.886857 
L 134.963893 116.886857 
L 135.187407 113.245714 
L 135.410922 113.060571 
L 135.522679 112.505143 
L 135.746193 114.603429 
L 135.969707 113.862857 
L 136.193222 114.48 
L 136.416736 110.468571 
L 136.528493 110.406857 
L 136.64025 110.900571 
L 136.752008 112.381714 
L 136.863765 112.134857 
L 137.087279 111.209143 
L 137.199036 115.344 
L 137.310793 115.344 
L 137.42255 113.307429 
L 137.646065 113.307429 
L 137.757822 109.728 
L 137.869579 109.789714 
L 137.981336 107.938286 
L 138.204851 111.702857 
L 138.428365 110.16 
L 138.540122 110.16 
L 138.651879 108.555429 
L 138.763636 110.283429 
L 138.875394 106.333714 
L 138.987151 106.395429 
L 139.210665 104.173714 
L 139.322422 104.235429 
L 139.434179 104.235429 
L 139.545936 103.988571 
L 139.657694 106.210286 
L 139.881208 103.556571 
L 139.992965 103.433143 
L 140.439994 102.260571 
L 140.551751 106.827429 
L 140.663508 106.580571 
L 140.887022 105.963429 
L 140.99878 102.816 
L 141.222294 106.148571 
L 141.334051 104.976 
L 141.557565 113.616 
L 141.892837 103.124571 
L 142.004594 103.001143 
L 142.451623 100.224 
L 142.675137 99.792 
L 142.898651 97.570286 
L 143.010408 96.768 
L 143.233923 91.337143 
L 143.569194 91.275429 
L 143.904466 84.425143 
L 144.016223 85.659429 
L 144.12798 85.597714 
L 144.239737 93.188571 
L 144.351494 93.188571 
L 144.575009 91.954286 
L 144.798523 86.029714 
L 144.91028 90.041143 
L 145.022037 90.041143 
L 145.357309 100.532571 
L 145.469066 100.532571 
L 145.69258 106.827429 
L 145.804337 105.84 
L 145.916095 111.024 
L 146.027852 110.406857 
L 146.139609 110.900571 
L 146.363123 110.838857 
L 146.586637 108.987429 
L 146.698395 105.284571 
L 146.810152 108.802286 
L 146.921909 108.246857 
L 147.145423 108.555429 
L 147.25718 108.617143 
L 147.368938 107.753143 
L 147.480695 114.109714 
L 147.704209 112.690286 
L 147.815966 112.628571 
L 147.927723 110.16 
L 148.039481 110.16 
L 148.262995 111.085714 
L 148.374752 114.356571 
L 148.486509 114.356571 
L 148.598266 114.233143 
L 148.710023 117.133714 
L 148.821781 117.010286 
L 149.045295 108.740571 
L 149.268809 102.630857 
L 149.492324 102.075429 
L 149.604081 102.322286 
L 149.715838 102.260571 
L 149.939352 105.161143 
L 150.051109 105.716571 
L 150.162867 100.902857 
L 150.386381 100.902857 
L 150.609895 99.483429 
L 150.833409 100.224 
L 150.945167 99.051429 
L 151.056924 99.545143 
L 151.168681 99.483429 
L 151.280438 99.051429 
L 151.392195 99.174857 
L 151.503952 103.186286 
L 151.61571 98.681143 
L 151.839224 99.606857 
L 151.950981 104.914286 
L 152.062738 104.852571 
L 152.174495 104.976 
L 152.286253 106.457143 
L 152.39801 106.457143 
L 152.621524 106.025143 
L 152.956795 92.756571 
L 153.068553 96.706286 
L 153.18031 96.644571 
L 153.292067 96.953143 
L 153.403824 94.361143 
L 153.515581 94.361143 
L 153.739096 94.669714 
L 153.96261 94.546286 
L 154.074367 87.881143 
L 154.409639 87.942857 
L 154.633153 87.696 
L 154.74491 87.634286 
L 154.968424 82.018286 
L 155.080182 82.326857 
L 155.191939 82.326857 
L 155.303696 78.500571 
L 155.415453 78.932571 
L 155.750724 77.698286 
L 155.974239 83.808 
L 156.085996 83.499429 
L 156.197753 82.388571 
L 156.30951 83.129143 
L 156.533025 86.523429 
L 156.644782 86.708571 
L 156.868296 80.598857 
L 156.980053 85.659429 
L 157.203568 79.426286 
L 157.315325 79.488 
L 157.538839 80.352 
L 157.650596 75.168 
L 157.87411 75.168 
L 158.097625 74.736 
L 158.321139 78.068571 
L 158.656411 75.970286 
L 158.991682 76.957714 
L 159.326954 85.042286 
L 159.438711 85.350857 
L 159.550468 84.795429 
L 159.662225 84.857143 
L 159.773982 82.944 
L 159.997496 83.067429 
L 160.109254 79.858286 
L 160.221011 79.858286 
L 160.444525 79.179429 
L 160.556282 81.462857 
L 160.891554 80.166857 
L 161.003311 80.475429 
L 161.115068 80.228571 
L 161.562097 81.339429 
L 161.897368 81.339429 
L 162.009125 69.490286 
L 162.23264 70.354286 
L 162.344397 73.193143 
L 162.456154 73.193143 
L 162.679668 72.452571 
L 162.791425 74.674286 
L 162.903183 74.365714 
L 163.01494 74.982857 
L 163.126697 76.649143 
L 163.238454 76.155429 
L 163.461968 78.932571 
L 163.685483 78.932571 
L 163.79724 79.056 
L 163.908997 78.932571 
L 164.020754 76.587429 
L 164.132511 76.710857 
L 164.244269 77.019429 
L 164.356026 73.563429 
L 164.57954 73.563429 
L 164.691297 73.254857 
L 164.803054 77.389714 
L 164.914811 77.389714 
L 165.138326 76.896 
L 165.36184 77.698286 
L 165.473597 77.698286 
L 165.697112 78.006857 
L 165.808869 84.486857 
L 165.920626 81.956571 
L 166.14414 82.697143 
L 166.255897 80.413714 
L 166.479412 72.637714 
L 166.702926 67.083429 
L 166.92644 73.44 
L 167.038197 73.44 
L 167.261712 73.563429 
L 167.373469 73.316571 
L 167.596983 76.402286 
L 167.70874 76.464 
L 167.820498 74.304 
L 168.267526 75.044571 
L 168.379283 82.08 
L 168.602798 81.771429 
L 168.714555 81.771429 
L 168.938069 80.784 
L 169.161583 80.475429 
L 169.273341 80.475429 
L 169.385098 80.722286 
L 169.608612 79.549714 
L 169.720369 84.116571 
L 169.832126 82.450286 
L 169.943884 82.450286 
L 170.055641 81.401143 
L 170.167398 81.648 
L 170.279155 82.758857 
L 170.502669 74.118857 
L 170.614427 74.118857 
L 170.726184 77.513143 
L 170.837941 76.093714 
L 171.061455 77.266286 
L 171.284969 77.76 
L 171.508484 77.204571 
L 171.731998 77.204571 
L 171.955512 79.179429 
L 172.179027 74.118857 
L 172.514298 76.525714 
L 172.737813 76.772571 
L 173.073084 76.834286 
L 173.184841 76.464 
L 173.296598 82.512 
L 173.408355 82.512 
L 173.520113 83.376 
L 173.63187 78.192 
L 173.855384 78.253714 
L 173.967141 78.068571 
L 174.190656 73.872 
L 174.302413 76.834286 
L 174.41417 76.834286 
L 174.637684 76.649143 
L 174.749441 77.636571 
L 174.972956 83.129143 
L 175.419984 83.067429 
L 175.531742 82.635429 
L 175.755256 80.475429 
L 175.867013 80.845714 
L 175.97877 79.611429 
L 176.202284 80.660571 
L 176.314042 75.044571 
L 176.537556 75.044571 
L 176.76107 77.328 
L 176.872827 77.266286 
L 177.096342 83.190857 
L 177.319856 83.314286 
L 177.431613 81.524571 
L 177.655128 88.004571 
L 177.878642 88.004571 
L 177.990399 91.645714 
L 178.102156 91.152 
L 178.213913 85.659429 
L 178.437428 85.721143 
L 178.549185 85.412571 
L 178.660942 87.942857 
L 178.772699 87.325714 
L 178.996213 94.114286 
L 179.219728 93.805714 
L 179.331485 93.805714 
L 179.443242 94.176 
L 179.666756 101.334857 
L 179.890271 99.730286 
L 180.002028 99.730286 
L 180.225542 99.483429 
L 180.449056 94.669714 
L 180.560814 94.484571 
L 180.672571 92.941714 
L 180.896085 93.373714 
L 181.007842 93.497143 
L 181.119599 95.780571 
L 181.343114 95.472 
L 181.790142 95.472 
L 181.9019 95.163429 
L 182.125414 93.805714 
L 182.237171 93.805714 
L 182.460685 93.497143 
L 182.572442 94.546286 
L 182.795957 94.546286 
L 182.907714 95.163429 
L 183.131228 94.731429 
L 183.4665 94.669714 
L 183.690014 100.717714 
L 183.801771 100.779429 
L 184.025286 99.730286 
L 184.2488 99.792 
L 184.360557 97.446857 
L 184.472314 97.693714 
L 184.584071 92.694857 
L 184.695829 94.731429 
L 184.919343 94.731429 
L 185.0311 94.114286 
L 185.142857 92.633143 
L 185.254614 92.694857 
L 185.478129 91.337143 
L 185.589886 93.126857 
L 185.701643 92.818286 
L 185.8134 94.052571 
L 185.925157 93.867429 
L 186.036914 96.582857 
L 186.260429 96.521143 
L 186.5957 96.397714 
L 186.707457 99.298286 
L 187.042729 99.298286 
L 187.154486 97.014857 
L 187.266243 97.508571 
L 187.378 97.323429 
L 187.489757 96.521143 
L 187.713272 96.768 
L 187.825029 96.768 
L 188.048543 94.854857 
L 188.1603 94.299429 
L 188.272058 94.854857 
L 188.383815 91.645714 
L 188.495572 91.645714 
L 188.607329 92.139429 
L 188.830843 92.139429 
L 188.942601 93.188571 
L 189.166115 93.188571 
L 189.389629 93.744 
L 189.501386 93.744 
L 189.724901 95.04 
L 189.836658 89.732571 
L 189.948415 91.152 
L 190.171929 91.152 
L 190.283686 90.288 
L 190.507201 93.929143 
L 190.954229 93.990857 
L 191.065987 94.854857 
L 191.177744 89.177143 
L 191.401258 89.300571 
L 191.513015 92.818286 
L 191.624772 92.386286 
L 191.848287 93.373714 
L 192.183558 93.435429 
L 192.407072 91.275429 
L 192.51883 91.892571 
L 192.630587 94.361143 
L 192.742344 91.337143 
L 192.965858 91.707429 
L 193.412887 91.645714 
L 193.636401 97.138286 
L 193.748158 96.891429 
L 193.859916 97.076571 
L 194.08343 93.373714 
L 194.195187 92.262857 
L 194.306944 92.756571 
L 194.530458 98.125714 
L 194.753973 98.125714 
L 194.86573 102.384 
L 195.201001 102.384 
L 195.312759 102.754286 
L 195.536273 102.137143 
L 195.64803 102.137143 
L 195.871544 97.755429 
L 195.983302 98.064 
L 196.095059 91.769143 
L 196.206816 92.016 
L 196.318573 94.299429 
L 196.43033 89.115429 
L 196.542087 89.115429 
L 196.653844 90.226286 
L 196.765602 90.226286 
L 196.877359 87.942857 
L 196.989116 88.436571 
L 197.100873 87.942857 
L 197.21263 88.806857 
L 197.324387 84.363429 
L 197.547902 84.672 
L 197.771416 83.746286 
L 197.883173 83.808 
L 197.99493 76.464 
L 198.106688 76.464 
L 198.330202 78.500571 
L 198.441959 83.808 
L 198.77723 83.129143 
L 198.888988 84.733714 
L 199.112502 88.621714 
L 199.336016 85.906286 
L 199.447773 85.906286 
L 199.559531 89.547429 
L 199.783045 89.238857 
L 199.894802 89.362286 
L 200.006559 83.499429 
L 200.118316 83.499429 
L 200.230074 83.376 
L 200.565345 82.018286 
L 200.788859 82.08 
L 200.900616 81.833143 
L 201.012374 81.956571 
L 201.124131 85.597714 
L 201.347645 85.042286 
L 201.794674 93.373714 
L 201.906431 99.668571 
L 202.018188 99.606857 
L 202.241702 100.347429 
L 202.465217 100.347429 
L 202.688731 100.656 
L 202.912245 98.928 
L 203.13576 99.051429 
L 203.247517 105.716571 
L 203.471031 105.716571 
L 203.694545 109.604571 
L 204.253331 109.604571 
L 204.476846 110.098286 
L 204.588603 110.098286 
L 204.812117 110.715429 
L 204.923874 107.197714 
L 205.035631 108.493714 
L 205.147389 103.494857 
L 205.259146 103.926857 
L 205.370903 103.803429 
L 205.48266 103.248 
L 205.594417 103.803429 
L 205.817931 103.433143 
L 205.929689 101.890286 
L 206.041446 102.013714 
L 206.153203 99.483429 
L 206.26496 99.483429 
L 206.376717 99.606857 
L 206.488474 95.410286 
L 206.600232 95.410286 
L 206.711989 95.225143 
L 206.935503 97.817143 
L 207.04726 97.817143 
L 207.159017 93.435429 
L 207.270775 93.435429 
L 207.382532 97.261714 
L 207.494289 97.261714 
L 207.606046 97.138286 
L 207.717803 99.545143 
L 207.941317 96.089143 
L 208.053075 96.089143 
L 208.164832 96.212571 
L 208.276589 93.682286 
L 208.388346 93.805714 
L 208.61186 92.509714 
L 208.835375 93.373714 
L 209.058889 88.745143 
L 209.282403 88.992 
L 209.505918 88.313143 
L 209.617675 88.251429 
L 209.841189 92.386286 
L 209.952946 92.448 
L 210.064703 93.126857 
L 210.176461 89.362286 
L 210.288218 92.571429 
L 210.399975 92.571429 
L 210.623489 91.707429 
L 210.735246 96.027429 
L 210.847004 95.533714 
L 210.958761 96.336 
L 211.070518 96.150857 
L 211.182275 96.336 
L 211.517547 94.669714 
L 211.741061 94.608 
L 211.852818 93.929143 
L 212.076332 94.546286 
L 212.411604 94.299429 
L 212.635118 90.596571 
L 212.97039 90.596571 
L 213.082147 94.608 
L 213.193904 93.435429 
L 213.417418 93.558857 
L 213.640933 93.620571 
L 213.864447 93.990857 
L 214.087961 93.990857 
L 214.199718 92.509714 
L 214.53499 93.620571 
L 214.646747 95.225143 
L 214.870261 95.225143 
L 215.093776 89.670857 
L 215.205533 89.732571 
L 215.429047 90.102857 
L 215.540804 90.288 
L 215.652561 93.929143 
L 215.876076 93.929143 
L 215.987833 92.262857 
L 216.09959 96.953143 
L 216.434862 93.805714 
L 216.658376 93.682286 
L 216.770133 96.768 
L 216.993647 91.954286 
L 217.217162 87.942857 
L 217.328919 86.461714 
L 217.440676 82.882286 
L 217.552433 83.005714 
L 217.66419 82.388571 
L 217.775947 80.660571 
L 217.887705 80.660571 
L 217.999462 81.277714 
L 218.111219 79.796571 
L 218.222976 80.290286 
L 218.44649 80.166857 
L 218.558248 79.611429 
L 218.670005 81.462857 
L 218.781762 81.092571 
L 219.005276 76.896 
L 219.340548 69.428571 
L 219.452305 69.922286 
L 219.564062 72.267429 
L 219.675819 72.267429 
L 219.787576 73.501714 
L 220.011091 73.008 
L 220.122848 73.131429 
L 220.346362 77.513143 
L 220.458119 78.562286 
L 220.681634 78.500571 
L 220.793391 78.994286 
L 221.016905 78.685714 
L 221.240419 78.624 
L 221.463934 78.192 
L 221.687448 78.500571 
L 221.799205 78.500571 
L 221.910962 82.08 
L 222.022719 79.302857 
L 222.134477 83.252571 
L 222.357991 83.129143 
L 222.581505 83.067429 
L 222.80502 78.377143 
L 222.916777 78.377143 
L 223.028534 77.142857 
L 223.140291 81.524571 
L 223.252048 81.401143 
L 223.475563 76.834286 
L 223.810834 78.685714 
L 223.922591 85.227429 
L 224.034348 84.795429 
L 224.146105 80.228571 
L 224.36962 89.053714 
L 224.593134 88.992 
L 224.704891 86.893714 
L 224.816648 88.930286 
L 225.040163 88.930286 
L 225.15192 88.806857 
L 225.375434 86.585143 
L 225.487191 89.979429 
L 226.269491 89.485714 
L 226.493006 88.868571 
L 226.604763 88.498286 
L 226.71652 88.745143 
L 226.828277 83.993143 
L 226.940034 87.881143 
L 227.051792 87.881143 
L 227.163549 88.004571 
L 227.275306 85.782857 
L 227.387063 86.646857 
L 227.49882 92.941714 
L 227.610577 92.941714 
L 227.722335 94.793143 
L 227.945849 88.745143 
L 228.057606 88.745143 
L 228.169363 87.325714 
L 228.28112 87.634286 
L 228.392877 90.102857 
L 228.616392 86.523429 
L 228.728149 87.140571 
L 228.839906 85.844571 
L 229.06342 92.262857 
L 229.175178 89.856 
L 229.286935 94.484571 
L 229.398692 92.818286 
L 229.510449 93.126857 
L 229.622206 90.966857 
L 229.733963 90.966857 
L 229.845721 86.091429 
L 229.957478 86.646857 
L 230.292749 86.276571 
L 230.516263 87.140571 
L 230.628021 83.376 
L 230.739778 83.499429 
L 230.851535 82.820571 
L 231.075049 83.314286 
L 231.298564 81.771429 
L 231.633835 81.277714 
L 231.857349 82.388571 
L 232.080864 84.980571 
L 232.192621 85.042286 
L 232.304378 89.670857 
L 232.527892 85.844571 
L 232.63965 86.029714 
L 232.863164 84.425143 
L 232.974921 83.746286 
L 233.086678 87.264 
L 233.310192 87.264 
L 233.533707 91.275429 
L 233.645464 91.152 
L 233.757221 91.152 
L 233.868978 90.843429 
L 233.980735 86.646857 
L 234.20425 86.770286 
L 234.427764 87.696 
L 234.539521 92.694857 
L 234.763036 90.164571 
L 234.874793 90.596571 
L 234.98655 87.510857 
L 235.098307 87.819429 
L 235.321821 88.745143 
L 235.433578 88.745143 
L 235.545336 89.238857 
L 235.657093 89.177143 
L 235.880607 85.906286 
L 235.992364 85.968 
L 236.104121 86.585143 
L 236.327636 85.906286 
L 236.439393 85.906286 
L 236.55115 86.461714 
L 236.662907 82.635429 
L 236.774664 82.697143 
L 236.886422 80.537143 
L 237.109936 81.586286 
L 237.221693 81.586286 
L 237.33345 77.266286 
L 237.445207 77.389714 
L 237.556964 78.809143 
L 237.668722 78.809143 
L 237.780479 82.820571 
L 237.892236 82.203429 
L 238.003993 82.388571 
L 238.227507 81.277714 
L 238.674536 83.376 
L 238.786293 95.657143 
L 239.009808 95.348571 
L 239.121565 95.348571 
L 239.233322 96.582857 
L 239.345079 96.397714 
L 239.456836 95.904 
L 239.568593 96.150857 
L 239.792108 97.2 
L 240.015622 97.755429 
L 240.239136 97.446857 
L 240.350893 94.052571 
L 240.462651 94.052571 
L 240.574408 93.805714 
L 240.909679 85.165714 
L 241.021436 85.042286 
L 241.133194 85.412571 
L 241.244951 85.165714 
L 241.356708 84.425143 
L 241.468465 82.141714 
L 241.580222 82.141714 
L 241.691979 83.993143 
L 241.803737 82.388571 
L 241.915494 82.450286 
L 242.027251 84.486857 
L 242.139008 84.486857 
L 242.362522 79.611429 
L 242.474279 79.611429 
L 242.586037 79.488 
L 242.697794 78.870857 
L 242.921308 81.709714 
L 243.144822 81.709714 
L 243.25658 81.956571 
L 243.368337 78.068571 
L 243.703608 79.364571 
L 244.150637 76.155429 
L 244.262394 79.858286 
L 244.374151 79.302857 
L 244.485908 79.673143 
L 244.597665 79.426286 
L 244.82118 79.673143 
L 245.044694 79.673143 
L 245.156451 79.488 
L 245.379966 77.574857 
L 245.60348 77.574857 
L 245.715237 78.315429 
L 245.826994 78.192 
L 245.938751 75.353143 
L 246.050509 75.353143 
L 246.162266 86.770286 
L 246.274023 81.092571 
L 246.38578 81.092571 
L 246.721051 85.412571 
L 246.944566 79.426286 
L 247.16808 83.067429 
L 247.279837 83.005714 
L 247.391594 81.771429 
L 247.503352 81.771429 
L 247.838623 82.697143 
L 248.062137 82.697143 
L 248.173895 82.944 
L 248.285652 77.574857 
L 248.509166 77.698286 
L 248.620923 77.451429 
L 248.73268 72.761143 
L 248.844437 72.761143 
L 248.956195 72.514286 
L 249.179709 68.317714 
L 249.291466 70.971429 
L 249.403223 70.292571 
L 249.626738 67.453714 
L 249.738495 68.564571 
L 249.850252 68.441143 
L 249.962009 70.230857 
L 250.185523 70.230857 
L 250.297281 70.971429 
L 250.409038 69.12 
L 250.632552 69.860571 
L 250.744309 73.501714 
L 250.856066 72.884571 
L 250.967824 76.587429 
L 251.079581 69.675429 
L 251.303095 69.922286 
L 251.526609 69.922286 
L 251.750124 71.094857 
L 251.973638 74.921143 
L 252.085395 74.057143 
L 252.197152 68.934857 
L 252.308909 75.661714 
L 252.420667 71.28 
L 252.532424 71.465143 
L 252.644181 60.418286 
L 252.755938 60.418286 
L 253.202967 71.773714 
L 253.426481 70.601143 
L 253.538238 70.662857 
L 253.649995 77.636571 
L 253.761752 77.636571 
L 253.87351 79.179429 
L 253.985267 78.562286 
L 254.097024 78.624 
L 254.320538 80.166857 
L 254.432295 80.228571 
L 254.544053 79.611429 
L 254.65581 83.622857 
L 254.767567 83.622857 
L 254.879324 81.524571 
L 254.991081 81.524571 
L 255.102838 81.401143 
L 255.214596 87.942857 
L 255.43811 84.054857 
L 255.549867 83.931429 
L 255.661624 84.116571 
L 255.773381 85.350857 
L 255.885138 85.350857 
L 255.996896 80.290286 
L 256.22041 80.475429 
L 256.443924 87.325714 
L 256.555681 87.264 
L 256.667439 92.509714 
L 256.890953 92.262857 
L 257.00271 92.262857 
L 257.337982 84.301714 
L 257.449739 84.795429 
L 257.673253 89.917714 
L 257.78501 89.979429 
L 257.896767 90.411429 
L 258.120282 86.338286 
L 258.232039 85.597714 
L 258.343796 89.856 
L 258.455553 89.115429 
L 258.679067 80.166857 
L 258.790825 80.290286 
L 259.014339 79.302857 
L 259.126096 79.302857 
L 259.237853 79.179429 
L 259.34961 79.92 
L 259.573125 79.056 
L 259.684882 79.364571 
L 259.908396 80.105143 
L 260.020153 79.364571 
L 260.13191 83.931429 
L 260.243668 76.957714 
L 260.355425 76.957714 
L 260.467182 76.525714 
L 260.578939 76.649143 
L 260.690696 77.142857 
L 260.802453 75.661714 
L 261.025968 79.858286 
L 261.137725 79.549714 
L 261.249482 77.328 
L 261.472996 78.562286 
L 261.584754 76.772571 
L 261.696511 77.204571 
L 262.143539 75.661714 
L 262.367054 75.661714 
L 262.590568 76.217143 
L 262.702325 75.785143 
L 262.814082 75.908571 
L 262.925839 77.513143 
L 263.149354 77.142857 
L 263.261111 77.081143 
L 263.372868 80.907429 
L 263.484625 79.426286 
L 263.596382 84.178286 
L 263.819897 74.550857 
L 264.155168 74.797714 
L 264.266925 74.180571 
L 264.378683 76.464 
L 264.49044 76.155429 
L 264.602197 79.056 
L 264.713954 78.994286 
L 264.937468 74.859429 
L 265.049225 76.402286 
L 265.160983 76.402286 
L 265.384497 80.166857 
L 265.608011 80.228571 
L 265.831526 69.552 
L 266.05504 69.552 
L 266.166797 71.403429 
L 266.390311 71.156571 
L 266.502069 74.427429 
L 266.613826 70.292571 
L 266.83734 75.785143 
L 266.949097 75.661714 
L 267.060854 74.118857 
L 267.172611 76.834286 
L 267.284369 73.748571 
L 267.396126 73.748571 
L 267.507883 74.057143 
L 267.61964 71.650286 
L 267.731397 71.773714 
L 267.843154 73.316571 
L 267.954912 72.452571 
L 268.066669 72.761143 
L 268.178426 68.996571 
L 268.40194 74.427429 
L 268.625455 76.525714 
L 268.737212 73.995429 
L 268.960726 77.204571 
L 269.072483 76.649143 
L 269.18424 73.193143 
L 269.295997 76.340571 
L 269.407755 75.044571 
L 269.519512 75.661714 
L 269.631269 75.6 
L 269.743026 78.932571 
L 269.96654 78.870857 
L 270.078298 77.266286 
L 270.301812 71.403429 
L 270.525326 71.403429 
L 270.637083 73.563429 
L 270.748841 73.501714 
L 270.860598 79.241143 
L 270.972355 79.241143 
L 271.195869 78.994286 
L 271.307626 78.994286 
L 271.531141 82.203429 
L 271.642898 82.203429 
L 271.754655 82.08 
L 271.866412 80.105143 
L 272.089926 71.897143 
L 272.425198 71.341714 
L 272.536955 72.637714 
L 272.648712 72.637714 
L 272.760469 75.291429 
L 272.872227 75.291429 
L 272.983984 77.636571 
L 273.095741 77.636571 
L 273.319255 76.896 
L 273.431012 77.389714 
L 273.654527 76.402286 
L 273.878041 76.896 
L 273.989798 78.500571 
L 274.213312 78.377143 
L 274.436827 77.636571 
L 274.548584 78.870857 
L 274.660341 78.870857 
L 274.772098 78.994286 
L 274.995613 78.377143 
L 275.10737 80.722286 
L 275.442641 90.72 
L 275.666156 90.164571 
L 275.88967 86.153143 
L 276.001427 86.153143 
L 276.113184 83.622857 
L 276.224941 85.597714 
L 276.448456 84.672 
L 276.560213 84.795429 
L 276.67197 84.548571 
L 276.783727 84.980571 
L 276.895484 84.857143 
L 277.007241 85.227429 
L 277.230756 84.918857 
L 277.342513 84.918857 
L 277.45427 84.672 
L 277.677784 79.302857 
L 277.789542 77.451429 
L 278.124813 77.513143 
L 278.348327 77.945143 
L 278.571842 78.315429 
L 278.683599 77.821714 
L 278.795356 81.030857 
L 279.01887 80.845714 
L 279.130627 79.734857 
L 279.354142 79.734857 
L 279.465899 78.870857 
L 279.689413 78.994286 
L 279.912928 78.747429 
L 280.136442 83.190857 
L 280.359956 82.758857 
L 280.471713 83.067429 
L 280.695228 87.387429 
L 280.918742 86.955429 
L 281.030499 89.670857 
L 281.254013 89.485714 
L 281.365771 90.164571 
L 281.477528 93.682286 
L 281.701042 93.620571 
L 281.924556 98.804571 
L 282.148071 98.804571 
L 282.259828 101.458286 
L 282.371585 101.088 
L 282.483342 101.211429 
L 282.706857 105.84 
L 282.818614 99.853714 
L 282.930371 99.853714 
L 283.265642 94.052571 
L 283.489157 94.731429 
L 283.600914 93.003429 
L 283.712671 93.003429 
L 283.824428 91.769143 
L 283.936185 91.769143 
L 284.1597 91.522286 
L 284.271457 92.201143 
L 284.494971 94.608 
L 284.606728 88.992 
L 284.718485 88.992 
L 284.830243 92.139429 
L 284.942 92.139429 
L 285.165514 91.152 
L 285.7243 91.090286 
L 285.836057 90.843429 
L 285.947814 88.066286 
L 286.059571 88.066286 
L 286.283086 85.536 
L 286.394843 85.597714 
L 286.5066 85.721143 
L 286.618357 85.659429 
L 286.730114 85.906286 
L 286.953629 84.795429 
L 287.065386 83.005714 
L 287.2889 83.067429 
L 287.400657 87.510857 
L 287.512414 82.758857 
L 287.624171 84.918857 
L 287.735929 84.918857 
L 287.847686 88.621714 
L 288.0712 87.510857 
L 288.294714 88.128 
L 288.406472 86.461714 
L 288.518229 86.708571 
L 288.629986 86.091429 
L 288.8535 83.622857 
L 288.965257 83.622857 
L 289.077015 78.006857 
L 289.188772 83.005714 
L 289.300529 83.005714 
L 289.524043 83.808 
L 289.6358 83.684571 
L 289.747558 87.017143 
L 289.859315 86.338286 
L 289.971072 81.092571 
L 290.082829 81.092571 
L 290.194586 81.956571 
L 290.306343 81.092571 
L 290.4181 81.216 
L 290.641615 78.068571 
L 290.753372 79.734857 
L 290.865129 75.970286 
L 290.976886 76.896 
L 291.088643 76.525714 
L 291.200401 81.586286 
L 291.423915 73.316571 
L 291.535672 73.254857 
L 291.647429 73.501714 
L 292.094458 72.576 
L 292.206215 72.576 
L 292.429729 73.008 
L 292.541486 72.267429 
L 292.653244 72.576 
L 292.765001 78.747429 
L 292.876758 78.192 
L 292.988515 76.896 
L 293.212029 77.081143 
L 293.323787 77.081143 
L 293.435544 76.834286 
L 293.547301 75.846857 
L 293.770815 76.402286 
L 293.99433 80.413714 
L 294.106087 79.673143 
L 294.329601 73.995429 
L 294.553115 73.501714 
L 294.77663 73.501714 
L 294.888387 72.329143 
L 295.000144 72.390857 
L 295.223658 73.378286 
L 295.447173 73.378286 
L 295.55893 72.946286 
L 295.670687 75.291429 
L 295.782444 80.290286 
L 296.117716 78.932571 
L 296.34123 78.932571 
L 296.452987 76.772571 
L 296.676501 76.834286 
L 296.900016 76.649143 
L 297.12353 76.217143 
L 297.347044 76.402286 
L 297.458801 78.130286 
L 297.570559 77.883429 
L 297.794073 71.526857 
L 297.90583 69.984 
L 298.017587 69.984 
L 298.241102 73.44 
L 298.464616 74.118857 
L 298.576373 76.340571 
L 298.68813 74.982857 
L 298.799887 78.747429 
L 298.911645 86.523429 
L 299.023402 85.721143 
L 299.246916 81.524571 
L 299.358673 80.845714 
L 299.47043 79.364571 
L 299.693945 79.549714 
L 299.805702 79.549714 
L 300.029216 77.821714 
L 300.25273 78.006857 
L 300.476245 78.685714 
L 300.588002 77.328 
L 300.699759 81.833143 
L 300.811516 81.833143 
L 301.035031 80.845714 
L 301.258545 74.304 
L 301.482059 74.242286 
L 301.593816 74.365714 
L 301.705573 71.094857 
L 301.817331 71.465143 
L 301.929088 72.699429 
L 302.040845 72.699429 
L 302.264359 71.218286 
L 302.487874 72.514286 
L 302.711388 71.033143 
L 302.823145 70.477714 
L 302.934902 68.564571 
L 303.046659 68.564571 
L 303.158417 70.848 
L 303.270174 70.107429 
L 303.381931 71.218286 
L 303.493688 71.218286 
L 303.717202 70.909714 
L 303.940717 73.625143 
L 304.052474 73.748571 
L 304.275988 67.885714 
L 304.499502 74.057143 
L 304.61126 68.996571 
L 304.834774 73.748571 
L 304.946531 69.860571 
L 305.281803 71.526857 
L 305.39356 71.341714 
L 305.505317 71.773714 
L 305.840588 71.218286 
L 305.952345 68.626286 
L 306.17586 68.811429 
L 306.399374 64.553143 
L 306.511131 65.417143 
L 306.622888 60.603429 
L 306.734646 60.603429 
L 306.846403 63.195429 
L 306.95816 62.208 
L 307.293431 63.195429 
L 307.405189 61.467429 
L 307.516946 61.652571 
L 307.74046 61.467429 
L 307.852217 60.788571 
L 307.963974 63.627429 
L 308.299246 63.689143 
L 308.411003 63.812571 
L 308.52276 63.627429 
L 308.969789 72.452571 
L 309.193303 72.514286 
L 309.416817 73.131429 
L 309.640332 73.625143 
L 309.752089 73.625143 
L 309.863846 74.736 
L 309.975603 72.946286 
L 310.199118 75.044571 
L 310.310875 74.921143 
L 310.422632 72.576 
L 310.534389 72.637714 
L 310.646146 75.106286 
L 310.757903 74.859429 
L 310.981418 72.761143 
L 311.204932 73.748571 
L 311.316689 73.131429 
L 311.651961 74.674286 
L 311.763718 74.674286 
L 311.987232 73.872 
L 312.098989 76.896 
L 312.210746 76.772571 
L 312.322504 72.822857 
L 312.546018 79.92 
L 312.657775 79.858286 
L 312.769532 75.476571 
L 312.881289 75.476571 
L 312.993046 76.710857 
L 313.104804 76.278857 
L 313.216561 75.106286 
L 313.440075 80.043429 
L 313.551832 82.326857 
L 313.663589 87.078857 
L 313.887104 86.461714 
L 313.998861 87.942857 
L 314.110618 87.757714 
L 314.222375 86.4 
L 314.334132 86.461714 
L 314.44589 83.067429 
L 314.557647 83.067429 
L 314.669404 83.190857 
L 314.781161 82.758857 
L 314.892918 78.068571 
L 315.116432 78.068571 
L 315.22819 76.278857 
L 315.563461 79.488 
L 315.675218 79.796571 
L 315.786975 83.684571 
L 315.898733 82.450286 
L 316.01049 85.350857 
L 316.122247 85.165714 
L 316.234004 81.462857 
L 316.345761 84.857143 
L 316.569276 84.857143 
L 316.681033 85.042286 
L 316.79279 83.993143 
L 317.016304 76.278857 
L 317.128061 75.168 
L 317.239818 76.957714 
L 317.351576 76.278857 
L 317.463333 76.525714 
L 317.57509 76.402286 
L 317.686847 76.464 
L 317.910361 77.328 
L 318.022119 77.328 
L 318.133876 77.019429 
L 318.35739 73.933714 
L 318.469147 73.933714 
L 318.580904 71.958857 
L 318.692662 73.069714 
L 319.027933 80.105143 
L 319.251447 80.475429 
L 319.474962 74.057143 
L 319.698476 81.524571 
L 319.810233 81.401143 
L 319.92199 78.006857 
L 320.033747 78.006857 
L 320.369019 76.155429 
L 320.480776 76.587429 
L 320.592533 74.427429 
L 320.927805 74.489143 
L 321.039562 70.169143 
L 321.151319 70.169143 
L 321.263076 73.501714 
L 321.486591 72.884571 
L 321.598348 72.822857 
L 321.710105 72.205714 
L 321.821862 73.44 
L 322.045376 72.637714 
L 322.268891 74.550857 
L 322.492405 74.427429 
L 322.604162 74.612571 
L 322.715919 74.365714 
L 322.939434 69.12 
L 323.162948 69.305143 
L 323.274705 68.811429 
L 323.386462 68.873143 
L 323.609977 69.181714 
L 323.721734 65.108571 
L 323.945248 65.108571 
L 324.057005 68.317714 
L 324.168762 63.380571 
L 324.392277 63.380571 
L 324.504034 57.517714 
L 324.727548 57.826286 
L 324.951062 57.024 
L 325.06282 57.085714 
L 325.174577 59.862857 
L 325.398091 59.739429 
L 325.621605 70.662857 
L 325.733363 70.848 
L 325.84512 72.699429 
L 325.956877 72.267429 
L 326.068634 73.501714 
L 326.180391 73.501714 
L 326.292148 72.946286 
L 326.403905 73.008 
L 326.739177 67.330286 
L 326.850934 69.922286 
L 327.074448 69.922286 
L 327.186206 71.094857 
L 327.297963 71.094857 
L 327.521477 70.354286 
L 327.968506 70.354286 
L 328.303777 71.835429 
L 328.415534 72.205714 
L 328.639049 78.747429 
L 328.750806 78.192 
L 328.862563 79.673143 
L 328.97432 79.673143 
L 329.086077 75.353143 
L 329.197834 75.414857 
L 329.309592 73.563429 
L 329.421349 73.625143 
L 329.644863 74.365714 
L 329.868377 74.674286 
L 329.980135 70.416 
L 330.203649 73.378286 
L 330.315406 73.316571 
L 330.53892 73.995429 
L 330.650678 73.686857 
L 330.762435 73.748571 
L 330.874192 72.761143 
L 330.985949 73.44 
L 331.097706 81.092571 
L 331.209463 81.092571 
L 331.32122 81.401143 
L 331.656492 79.611429 
L 331.991763 76.834286 
L 332.103521 76.710857 
L 332.215278 76.402286 
L 332.327035 74.489143 
L 332.550549 74.550857 
L 332.774064 73.810286 
L 332.885821 73.810286 
L 332.997578 74.674286 
L 333.221092 73.995429 
L 333.332849 73.933714 
L 333.444606 75.044571 
L 333.556364 71.588571 
L 333.668121 75.661714 
L 333.891635 71.773714 
L 334.115149 70.848 
L 334.226907 70.848 
L 334.338664 69.12 
L 334.562178 69.12 
L 334.673935 69.552 
L 334.785692 69.428571 
L 335.009207 69.490286 
L 335.120964 69.984 
L 335.344478 73.686857 
L 335.456235 70.169143 
L 335.567992 70.169143 
L 335.67975 65.540571 
L 335.903264 67.206857 
L 336.015021 67.083429 
L 336.238535 64.429714 
L 336.350293 65.602286 
L 336.46205 65.602286 
L 336.573807 65.910857 
L 336.685564 67.330286 
L 336.909078 64.923429 
L 337.020836 64.985143 
L 337.24435 67.145143 
L 337.467864 67.206857 
L 337.691379 64.8 
L 337.803136 64.861714 
L 337.914893 66.157714 
L 338.02665 66.157714 
L 338.138407 65.972571 
L 338.250164 67.392 
L 338.361921 67.392 
L 338.473679 67.268571 
L 338.585436 65.910857 
L 338.80895 66.713143 
L 339.144222 62.516571 
L 339.59125 62.454857 
L 339.703007 60.603429 
L 339.926522 61.405714 
L 340.150036 60.603429 
L 340.261793 60.850286 
L 340.37355 61.529143 
L 340.597065 61.220571 
L 340.820579 61.961143 
L 340.932336 61.961143 
L 341.267608 58.690286 
L 341.379365 58.690286 
L 341.491122 60.912 
L 341.602879 60.912 
L 341.714636 65.108571 
L 341.826393 61.220571 
L 341.938151 61.220571 
L 342.049908 59.554286 
L 342.273422 69.922286 
L 342.385179 69.058286 
L 342.496936 69.12 
L 342.608693 68.934857 
L 342.720451 74.180571 
L 342.832208 74.180571 
L 343.055722 78.994286 
L 343.167479 76.772571 
L 343.279236 80.537143 
L 343.390994 80.413714 
L 343.502751 78.870857 
L 343.614508 78.870857 
L 343.838022 77.574857 
L 344.061537 70.292571 
L 344.173294 72.452571 
L 344.285051 72.205714 
L 344.508565 64.368 
L 344.620322 64.368 
L 344.732079 64.244571 
L 344.955594 67.453714 
L 345.067351 67.145143 
L 345.290865 71.897143 
L 345.51438 71.897143 
L 345.626137 73.563429 
L 345.737894 73.563429 
L 345.849651 68.256 
L 345.961408 71.094857 
L 346.073165 69.922286 
L 346.29668 70.107429 
L 346.408437 69.490286 
L 346.520194 69.675429 
L 346.631951 75.291429 
L 346.855465 74.736 
L 346.967223 74.736 
L 347.07898 73.069714 
L 347.414251 73.131429 
L 347.526008 73.872 
L 347.637766 69.366857 
L 347.86128 69.428571 
L 347.973037 71.033143 
L 348.196551 70.971429 
L 348.308309 71.218286 
L 348.420066 70.662857 
L 348.531823 73.748571 
L 348.64358 73.748571 
L 348.755337 66.404571 
L 348.867094 66.713143 
L 349.202366 66.157714 
L 349.314123 66.034286 
L 349.42588 67.824 
L 349.649394 67.824 
L 349.761152 66.589714 
L 349.872909 66.589714 
L 350.096423 66.774857 
L 350.319937 69.181714 
L 350.543452 69.181714 
L 350.655209 74.180571 
L 350.766966 74.180571 
L 350.878723 79.92 
L 350.99048 79.92 
L 351.325752 79.673143 
L 351.549266 80.475429 
L 351.661023 78.624 
L 351.77278 78.624 
L 351.884538 74.612571 
L 351.996295 75.908571 
L 352.108052 75.908571 
L 352.331566 76.772571 
L 352.443323 76.772571 
L 352.555081 76.402286 
L 352.666838 77.204571 
L 352.778595 75.538286 
L 352.890352 76.896 
L 353.002109 81.709714 
L 353.113866 81.648 
L 353.337381 82.141714 
L 353.449138 87.325714 
L 353.560895 87.325714 
L 353.672652 90.966857 
L 353.896166 90.966857 
L 354.007924 90.781714 
L 354.119681 93.929143 
L 354.231438 92.633143 
L 354.343195 92.818286 
L 354.454952 92.633143 
L 354.566709 96.582857 
L 354.790224 96.150857 
L 354.901981 96.150857 
L 355.460767 91.028571 
L 355.684281 90.534857 
L 355.796038 90.534857 
L 355.907795 92.016 
L 356.019552 92.016 
L 356.13131 90.905143 
L 356.243067 94.546286 
L 356.354824 94.237714 
L 356.466581 94.361143 
L 356.690095 93.497143 
L 356.801853 93.497143 
L 357.025367 93.126857 
L 357.248881 93.126857 
L 357.472396 99.915429 
L 357.584153 101.643429 
L 357.69591 101.643429 
L 357.807667 106.395429 
L 358.142939 95.657143 
L 358.254696 95.657143 
L 358.366453 95.410286 
L 358.47821 98.064 
L 358.701724 95.410286 
L 358.813481 95.410286 
L 358.925239 90.288 
L 359.148753 91.522286 
L 359.372267 91.090286 
L 359.484024 89.177143 
L 359.595782 90.781714 
L 359.707539 90.781714 
L 360.154567 78.562286 
L 360.266325 80.537143 
L 360.378082 80.105143 
L 360.601596 80.907429 
L 360.713353 79.488 
L 360.936867 83.252571 
L 361.160382 83.252571 
L 361.272139 83.376 
L 361.383896 83.746286 
L 361.495653 81.339429 
L 361.60741 81.339429 
L 361.830925 81.154286 
L 361.942682 80.475429 
L 362.389711 88.436571 
L 362.501468 88.189714 
L 362.724982 88.498286 
L 362.948496 88.313143 
L 363.060253 88.374857 
L 363.283768 87.572571 
L 363.395525 87.634286 
L 363.619039 87.510857 
L 363.730796 87.449143 
L 363.954311 86.646857 
L 364.177825 86.646857 
L 364.289582 83.005714 
L 364.401339 83.314286 
L 364.513097 80.105143 
L 364.624854 82.944 
L 364.848368 82.944 
L 365.295397 83.684571 
L 365.407154 83.437714 
L 365.518911 80.660571 
L 365.630668 80.660571 
L 365.742425 80.105143 
L 365.96594 69.305143 
L 366.077697 63.072 
L 366.189454 63.318857 
L 366.412968 64.244571 
L 366.859997 60.850286 
L 366.971754 60.665143 
L 367.083511 61.714286 
L 367.307026 61.776 
L 367.53054 62.64 
L 367.754054 62.393143 
L 367.865811 62.393143 
L 367.977568 62.208 
L 368.31284 66.96 
L 368.424597 66.96 
L 368.536354 64.182857 
L 368.648111 66.774857 
L 368.759869 66.466286 
L 368.983383 65.664 
L 369.318654 65.664 
L 369.542169 65.046857 
L 369.653926 65.170286 
L 369.765683 69.181714 
L 369.989197 69.181714 
L 370.100954 70.292571 
L 370.212712 70.169143 
L 370.324469 73.748571 
L 370.436226 72.082286 
L 370.547983 72.082286 
L 370.65974 71.218286 
L 370.883255 72.020571 
L 371.106769 72.637714 
L 371.218526 70.230857 
L 371.330283 72.144 
L 371.44204 72.144 
L 371.777312 71.897143 
L 372.000826 74.859429 
L 372.22434 76.464 
L 372.336098 76.772571 
L 372.447855 76.402286 
L 372.559612 78.377143 
L 372.671369 78.315429 
L 372.783126 76.710857 
L 372.894883 76.896 
L 373.006641 73.378286 
L 373.118398 74.736 
L 373.230155 74.674286 
L 373.341912 74.118857 
L 373.565426 77.883429 
L 373.677184 78.253714 
L 373.788941 72.946286 
L 373.900698 78.006857 
L 374.012455 77.698286 
L 374.235969 81.154286 
L 374.459484 79.302857 
L 374.682998 79.364571 
L 374.906512 79.611429 
L 375.018269 79.734857 
L 375.353541 78.192 
L 375.577055 75.106286 
L 375.688812 76.525714 
L 375.80057 76.402286 
L 375.912327 76.464 
L 376.024084 76.834286 
L 376.135841 71.094857 
L 376.359355 72.082286 
L 376.58287 71.403429 
L 376.806384 71.218286 
L 376.918141 71.218286 
L 377.029898 67.145143 
L 377.141655 67.145143 
L 377.36517 67.392 
L 377.476927 67.330286 
L 377.588684 66.589714 
L 377.700441 61.035429 
L 378.035713 61.405714 
L 378.14747 66.157714 
L 378.259227 66.157714 
L 378.482741 65.664 
L 378.706256 65.417143 
L 378.818013 65.602286 
L 378.92977 65.170286 
L 379.041527 64.244571 
L 379.153284 66.281143 
L 379.265041 66.034286 
L 379.376799 65.355429 
L 379.600313 62.022857 
L 379.71207 63.504 
L 379.823827 66.589714 
L 379.935584 66.589714 
L 380.047342 66.342857 
L 380.270856 68.688 
L 380.49437 64.985143 
L 380.717885 64.676571 
L 380.829642 66.528 
L 380.941399 66.528 
L 381.053156 63.195429 
L 381.164913 65.849143 
L 381.27667 60.912 
L 381.388427 60.912 
L 381.500185 64.059429 
L 381.723699 63.874286 
L 382.05897 64.614857 
L 382.170728 65.787429 
L 382.394242 57.949714 
L 382.505999 57.826286 
L 382.617756 57.270857 
L 382.841271 57.332571 
L 382.953028 58.752 
L 383.064785 58.258286 
L 383.176542 59.245714 
L 383.288299 63.195429 
L 383.400056 63.195429 
L 383.623571 60.048 
L 383.847085 64.182857 
L 384.070599 64.059429 
L 384.294114 63.997714 
L 384.405871 61.035429 
L 384.629385 62.454857 
L 384.741142 56.406857 
L 384.964657 56.345143 
L 385.076414 56.592 
L 385.188171 57.579429 
L 385.299928 56.283429 
L 385.411685 56.777143 
L 385.746957 62.146286 
L 385.858714 60.109714 
L 385.970471 61.652571 
L 386.082228 61.282286 
L 386.193985 66.219429 
L 386.4175 62.578286 
L 386.752771 60.726857 
L 386.976285 60.48 
L 387.088043 59.184 
L 387.1998 63.195429 
L 387.311557 58.258286 
L 387.423314 58.258286 
L 387.646828 54.617143 
L 387.758586 54.617143 
L 387.870343 54.185143 
L 387.9821 54.925714 
L 388.093857 53.568 
L 388.205614 56.592 
L 388.317371 56.592 
L 388.540886 63.627429 
L 388.652643 60.541714 
L 388.7644 64.738286 
L 389.211429 64.676571 
L 389.323186 66.157714 
L 389.434943 66.157714 
L 389.5467 64.429714 
L 389.770214 64.614857 
L 389.881972 64.121143 
L 389.993729 67.330286 
L 390.217243 63.133714 
L 390.440757 63.565714 
L 390.664272 63.812571 
L 390.887786 62.948571 
L 390.999543 63.072 
L 391.223057 63.010286 
L 391.334815 63.072 
L 391.446572 62.886857 
L 391.558329 68.502857 
L 391.781843 68.441143 
L 391.8936 68.379429 
L 392.005358 68.009143 
L 392.340629 65.355429 
L 392.452386 65.355429 
L 392.564143 64.491429 
L 392.6759 65.478857 
L 392.787658 64.923429 
L 393.011172 65.108571 
L 393.122929 67.885714 
L 393.234686 67.885714 
L 393.346443 68.256 
L 393.458201 69.922286 
L 393.681715 67.885714 
L 393.793472 67.885714 
L 393.905229 68.256 
L 394.128744 61.837714 
L 394.240501 62.331429 
L 394.352258 60.294857 
L 394.464015 69.860571 
L 394.575772 65.355429 
L 394.799286 65.355429 
L 395.022801 65.664 
L 395.246315 64.923429 
L 395.358072 66.281143 
L 395.469829 66.281143 
L 395.581587 59.677714 
L 395.693344 60.233143 
L 395.916858 62.948571 
L 396.140372 66.281143 
L 396.363887 65.849143 
L 396.475644 65.849143 
L 396.587401 66.836571 
L 396.810915 66.589714 
L 396.922673 65.355429 
L 397.146187 67.392 
L 397.257944 65.725714 
L 397.369701 65.725714 
L 397.593215 72.576 
L 397.704973 72.514286 
L 397.81673 74.859429 
L 397.928487 73.069714 
L 398.263758 75.476571 
L 398.375516 75.476571 
L 398.487273 75.785143 
L 398.487273 75.785143 
" clip-path="url(#pd3cd6d178e)" style="fill: none; stroke: #1f77b4; stroke-width: 1.5; stroke-linecap: square"/>
   </g>
   <g id="patch_3">
    <path d="M 57.6 307.584 
L 57.6 41.472 
" style="fill: none; stroke: #000000; stroke-width: 0.8; stroke-linejoin: miter; stroke-linecap: square"/>
   </g>
   <g id="patch_4">
    <path d="M 414.72 307.584 
L 414.72 41.472 
" style="fill: none; stroke: #000000; stroke-width: 0.8; stroke-linejoin: miter; stroke-linecap: square"/>
   </g>
   <g id="patch_5">
    <path d="M 57.6 307.584 
L 414.72 307.584 
" style="fill: none; stroke: #000000; stroke-width: 0.8; stroke-linejoin: miter; stroke-linecap: square"/>
   </g>
   <g id="patch_6">
    <path d="M 57.6 41.472 
L 414.72 41.472 
" style="fill: none; stroke: #000000; stroke-width: 0.8; stroke-linejoin: miter; stroke-linecap: square"/>
   </g>
   <g id="text_19">
    <!-- comp13 -->
    <g transform="translate(211.90125 35.472) scale(0.12 -0.12)">
     <defs>
      <path id="DejaVuSans-63" d="M 3122 3366 
L 3122 2828 
Q 2878 2963 2633 3030 
Q 2388 3097 2138 3097 
Q 1578 3097 1268 2742 
Q 959 2388 959 1747 
Q 959 1106 1268 751 
Q 1578 397 2138 397 
Q 2388 397 2633 464 
Q 2878 531 3122 666 
L 3122 134 
Q 2881 22 2623 -34 
Q 2366 -91 2075 -91 
Q 1284 -91 818 406 
Q 353 903 353 1747 
Q 353 2603 823 3093 
Q 1294 3584 2113 3584 
Q 2378 3584 2631 3529 
Q 2884 3475 3122 3366 
z
" transform="scale(0.015625)"/>
      <path id="DejaVuSans-70" d="M 1159 525 
L 1159 -1331 
L 581 -1331 
L 581 3500 
L 1159 3500 
L 1159 2969 
Q 1341 3281 1617 3432 
Q 1894 3584 2278 3584 
Q 2916 3584 3314 3078 
Q 3713 2572 3713 1747 
Q 3713 922 3314 415 
Q 2916 -91 2278 -91 
Q 1894 -91 1617 61 
Q 1341 213 1159 525 
z
M 3116 1747 
Q 3116 2381 2855 2742 
Q 2594 3103 2138 3103 
Q 1681 3103 1420 2742 
Q 1159 2381 1159 1747 
Q 1159 1113 1420 752 
Q 1681 391 2138 391 
Q 2594 391 2855 752 
Q 3116 1113 3116 1747 
z
" transform="scale(0.015625)"/>
     </defs>
     <use xlink:href="#DejaVuSans-63"/>
     <use xlink:href="#DejaVuSans-6f" x="54.980469"/>
     <use xlink:href="#DejaVuSans-6d" x="116.162109"/>
     <use xlink:href="#DejaVuSans-70" x="213.574219"/>
     <use xlink:href="#DejaVuSans-31" x="277.050781"/>
     <use xlink:href="#DejaVuSans-33" x="340.673828"/>
    </g>
   </g>
  </g>
 </g>
 <defs>
  <clipPath id="pd3cd6d178e">
   <rect x="57.6" y="41.472" width="357.12" height="266.112"/>
  </clipPath>
 </defs>
</svg>
