<?xml version="1.0" encoding="utf-8" standalone="no"?>
<!DOCTYPE svg PUBLIC "-//W3C//DTD SVG 1.1//EN"
  "http://www.w3.org/Graphics/SVG/1.1/DTD/svg11.dtd">
<svg xmlns:xlink="http://www.w3.org/1999/xlink" width="460.8pt" height="345.6pt" viewBox="0 0 460.8 345.6" xmlns="http://www.w3.org/2000/svg" version="1.1">
 <metadata>
  <rdf:RDF xmlns:dc="http://purl.org/dc/elements/1.1/" xmlns:cc="http://creativecommons.org/ns#" xmlns:rdf="http://www.w3.org/1999/02/22-rdf-syntax-ns#">
   <cc:Work>
    <dc:type rdf:resource="http://purl.org/dc/dcmitype/StillImage"/>
    <dc:date>2023-12-03T18:15:55.164642</dc:date>
    <dc:format>image/svg+xml</dc:format>
    <dc:creator>
     <cc:Agent>
      <dc:title>Matplotlib v3.7.1, https://matplotlib.org/</dc:title>
     </cc:Agent>
    </dc:creator>
   </cc:Work>
  </rdf:RDF>
 </metadata>
 <defs>
  <style type="text/css">*{stroke-linejoin: round; stroke-linecap: butt}</style>
 </defs>
 <g id="figure_1">
  <g id="patch_1">
   <path d="M 0 345.6 
L 460.8 345.6 
L 460.8 0 
L 0 0 
z
" style="fill: #ffffff"/>
  </g>
  <g id="axes_1">
   <g id="patch_2">
    <path d="M 57.6 307.584 
L 414.72 307.584 
L 414.72 41.472 
L 57.6 41.472 
z
" style="fill: #ffffff"/>
   </g>
   <g id="matplotlib.axis_1">
    <g id="xtick_1">
     <g id="line2d_1">
      <defs>
       <path id="m9d42b83190" d="M 0 0 
L 0 3.5 
" style="stroke: #000000; stroke-width: 0.8"/>
      </defs>
      <g>
       <use xlink:href="#m9d42b83190" x="73.832727" y="307.584" style="stroke: #000000; stroke-width: 0.8"/>
      </g>
     </g>
     <g id="text_1">
      <!-- 0 -->
      <g transform="translate(70.651477 322.182437) scale(0.1 -0.1)">
       <defs>
        <path id="DejaVuSans-30" d="M 2034 4250 
Q 1547 4250 1301 3770 
Q 1056 3291 1056 2328 
Q 1056 1369 1301 889 
Q 1547 409 2034 409 
Q 2525 409 2770 889 
Q 3016 1369 3016 2328 
Q 3016 3291 2770 3770 
Q 2525 4250 2034 4250 
z
M 2034 4750 
Q 2819 4750 3233 4129 
Q 3647 3509 3647 2328 
Q 3647 1150 3233 529 
Q 2819 -91 2034 -91 
Q 1250 -91 836 529 
Q 422 1150 422 2328 
Q 422 3509 836 4129 
Q 1250 4750 2034 4750 
z
" transform="scale(0.015625)"/>
       </defs>
       <use xlink:href="#DejaVuSans-30"/>
      </g>
     </g>
    </g>
    <g id="xtick_2">
     <g id="line2d_2">
      <g>
       <use xlink:href="#m9d42b83190" x="152.025055" y="307.584" style="stroke: #000000; stroke-width: 0.8"/>
      </g>
     </g>
     <g id="text_2">
      <!-- 1000 -->
      <g transform="translate(139.300055 322.182437) scale(0.1 -0.1)">
       <defs>
        <path id="DejaVuSans-31" d="M 794 531 
L 1825 531 
L 1825 4091 
L 703 3866 
L 703 4441 
L 1819 4666 
L 2450 4666 
L 2450 531 
L 3481 531 
L 3481 0 
L 794 0 
L 794 531 
z
" transform="scale(0.015625)"/>
       </defs>
       <use xlink:href="#DejaVuSans-31"/>
       <use xlink:href="#DejaVuSans-30" x="63.623047"/>
       <use xlink:href="#DejaVuSans-30" x="127.246094"/>
       <use xlink:href="#DejaVuSans-30" x="190.869141"/>
      </g>
     </g>
    </g>
    <g id="xtick_3">
     <g id="line2d_3">
      <g>
       <use xlink:href="#m9d42b83190" x="230.217383" y="307.584" style="stroke: #000000; stroke-width: 0.8"/>
      </g>
     </g>
     <g id="text_3">
      <!-- 2000 -->
      <g transform="translate(217.492383 322.182437) scale(0.1 -0.1)">
       <defs>
        <path id="DejaVuSans-32" d="M 1228 531 
L 3431 531 
L 3431 0 
L 469 0 
L 469 531 
Q 828 903 1448 1529 
Q 2069 2156 2228 2338 
Q 2531 2678 2651 2914 
Q 2772 3150 2772 3378 
Q 2772 3750 2511 3984 
Q 2250 4219 1831 4219 
Q 1534 4219 1204 4116 
Q 875 4013 500 3803 
L 500 4441 
Q 881 4594 1212 4672 
Q 1544 4750 1819 4750 
Q 2544 4750 2975 4387 
Q 3406 4025 3406 3419 
Q 3406 3131 3298 2873 
Q 3191 2616 2906 2266 
Q 2828 2175 2409 1742 
Q 1991 1309 1228 531 
z
" transform="scale(0.015625)"/>
       </defs>
       <use xlink:href="#DejaVuSans-32"/>
       <use xlink:href="#DejaVuSans-30" x="63.623047"/>
       <use xlink:href="#DejaVuSans-30" x="127.246094"/>
       <use xlink:href="#DejaVuSans-30" x="190.869141"/>
      </g>
     </g>
    </g>
    <g id="xtick_4">
     <g id="line2d_4">
      <g>
       <use xlink:href="#m9d42b83190" x="308.409711" y="307.584" style="stroke: #000000; stroke-width: 0.8"/>
      </g>
     </g>
     <g id="text_4">
      <!-- 3000 -->
      <g transform="translate(295.684711 322.182437) scale(0.1 -0.1)">
       <defs>
        <path id="DejaVuSans-33" d="M 2597 2516 
Q 3050 2419 3304 2112 
Q 3559 1806 3559 1356 
Q 3559 666 3084 287 
Q 2609 -91 1734 -91 
Q 1441 -91 1130 -33 
Q 819 25 488 141 
L 488 750 
Q 750 597 1062 519 
Q 1375 441 1716 441 
Q 2309 441 2620 675 
Q 2931 909 2931 1356 
Q 2931 1769 2642 2001 
Q 2353 2234 1838 2234 
L 1294 2234 
L 1294 2753 
L 1863 2753 
Q 2328 2753 2575 2939 
Q 2822 3125 2822 3475 
Q 2822 3834 2567 4026 
Q 2313 4219 1838 4219 
Q 1578 4219 1281 4162 
Q 984 4106 628 3988 
L 628 4550 
Q 988 4650 1302 4700 
Q 1616 4750 1894 4750 
Q 2613 4750 3031 4423 
Q 3450 4097 3450 3541 
Q 3450 3153 3228 2886 
Q 3006 2619 2597 2516 
z
" transform="scale(0.015625)"/>
       </defs>
       <use xlink:href="#DejaVuSans-33"/>
       <use xlink:href="#DejaVuSans-30" x="63.623047"/>
       <use xlink:href="#DejaVuSans-30" x="127.246094"/>
       <use xlink:href="#DejaVuSans-30" x="190.869141"/>
      </g>
     </g>
    </g>
    <g id="xtick_5">
     <g id="line2d_5">
      <g>
       <use xlink:href="#m9d42b83190" x="386.602039" y="307.584" style="stroke: #000000; stroke-width: 0.8"/>
      </g>
     </g>
     <g id="text_5">
      <!-- 4000 -->
      <g transform="translate(373.877039 322.182437) scale(0.1 -0.1)">
       <defs>
        <path id="DejaVuSans-34" d="M 2419 4116 
L 825 1625 
L 2419 1625 
L 2419 4116 
z
M 2253 4666 
L 3047 4666 
L 3047 1625 
L 3713 1625 
L 3713 1100 
L 3047 1100 
L 3047 0 
L 2419 0 
L 2419 1100 
L 313 1100 
L 313 1709 
L 2253 4666 
z
" transform="scale(0.015625)"/>
       </defs>
       <use xlink:href="#DejaVuSans-34"/>
       <use xlink:href="#DejaVuSans-30" x="63.623047"/>
       <use xlink:href="#DejaVuSans-30" x="127.246094"/>
       <use xlink:href="#DejaVuSans-30" x="190.869141"/>
      </g>
     </g>
    </g>
    <g id="text_6">
     <!-- iteration -->
     <g transform="translate(215.037344 335.860562) scale(0.1 -0.1)">
      <defs>
       <path id="DejaVuSans-69" d="M 603 3500 
L 1178 3500 
L 1178 0 
L 603 0 
L 603 3500 
z
M 603 4863 
L 1178 4863 
L 1178 4134 
L 603 4134 
L 603 4863 
z
" transform="scale(0.015625)"/>
       <path id="DejaVuSans-74" d="M 1172 4494 
L 1172 3500 
L 2356 3500 
L 2356 3053 
L 1172 3053 
L 1172 1153 
Q 1172 725 1289 603 
Q 1406 481 1766 481 
L 2356 481 
L 2356 0 
L 1766 0 
Q 1100 0 847 248 
Q 594 497 594 1153 
L 594 3053 
L 172 3053 
L 172 3500 
L 594 3500 
L 594 4494 
L 1172 4494 
z
" transform="scale(0.015625)"/>
       <path id="DejaVuSans-65" d="M 3597 1894 
L 3597 1613 
L 953 1613 
Q 991 1019 1311 708 
Q 1631 397 2203 397 
Q 2534 397 2845 478 
Q 3156 559 3463 722 
L 3463 178 
Q 3153 47 2828 -22 
Q 2503 -91 2169 -91 
Q 1331 -91 842 396 
Q 353 884 353 1716 
Q 353 2575 817 3079 
Q 1281 3584 2069 3584 
Q 2775 3584 3186 3129 
Q 3597 2675 3597 1894 
z
M 3022 2063 
Q 3016 2534 2758 2815 
Q 2500 3097 2075 3097 
Q 1594 3097 1305 2825 
Q 1016 2553 972 2059 
L 3022 2063 
z
" transform="scale(0.015625)"/>
       <path id="DejaVuSans-72" d="M 2631 2963 
Q 2534 3019 2420 3045 
Q 2306 3072 2169 3072 
Q 1681 3072 1420 2755 
Q 1159 2438 1159 1844 
L 1159 0 
L 581 0 
L 581 3500 
L 1159 3500 
L 1159 2956 
Q 1341 3275 1631 3429 
Q 1922 3584 2338 3584 
Q 2397 3584 2469 3576 
Q 2541 3569 2628 3553 
L 2631 2963 
z
" transform="scale(0.015625)"/>
       <path id="DejaVuSans-61" d="M 2194 1759 
Q 1497 1759 1228 1600 
Q 959 1441 959 1056 
Q 959 750 1161 570 
Q 1363 391 1709 391 
Q 2188 391 2477 730 
Q 2766 1069 2766 1631 
L 2766 1759 
L 2194 1759 
z
M 3341 1997 
L 3341 0 
L 2766 0 
L 2766 531 
Q 2569 213 2275 61 
Q 1981 -91 1556 -91 
Q 1019 -91 701 211 
Q 384 513 384 1019 
Q 384 1609 779 1909 
Q 1175 2209 1959 2209 
L 2766 2209 
L 2766 2266 
Q 2766 2663 2505 2880 
Q 2244 3097 1772 3097 
Q 1472 3097 1187 3025 
Q 903 2953 641 2809 
L 641 3341 
Q 956 3463 1253 3523 
Q 1550 3584 1831 3584 
Q 2591 3584 2966 3190 
Q 3341 2797 3341 1997 
z
" transform="scale(0.015625)"/>
       <path id="DejaVuSans-6f" d="M 1959 3097 
Q 1497 3097 1228 2736 
Q 959 2375 959 1747 
Q 959 1119 1226 758 
Q 1494 397 1959 397 
Q 2419 397 2687 759 
Q 2956 1122 2956 1747 
Q 2956 2369 2687 2733 
Q 2419 3097 1959 3097 
z
M 1959 3584 
Q 2709 3584 3137 3096 
Q 3566 2609 3566 1747 
Q 3566 888 3137 398 
Q 2709 -91 1959 -91 
Q 1206 -91 779 398 
Q 353 888 353 1747 
Q 353 2609 779 3096 
Q 1206 3584 1959 3584 
z
" transform="scale(0.015625)"/>
       <path id="DejaVuSans-6e" d="M 3513 2113 
L 3513 0 
L 2938 0 
L 2938 2094 
Q 2938 2591 2744 2837 
Q 2550 3084 2163 3084 
Q 1697 3084 1428 2787 
Q 1159 2491 1159 1978 
L 1159 0 
L 581 0 
L 581 3500 
L 1159 3500 
L 1159 2956 
Q 1366 3272 1645 3428 
Q 1925 3584 2291 3584 
Q 2894 3584 3203 3211 
Q 3513 2838 3513 2113 
z
" transform="scale(0.015625)"/>
      </defs>
      <use xlink:href="#DejaVuSans-69"/>
      <use xlink:href="#DejaVuSans-74" x="27.783203"/>
      <use xlink:href="#DejaVuSans-65" x="66.992188"/>
      <use xlink:href="#DejaVuSans-72" x="128.515625"/>
      <use xlink:href="#DejaVuSans-61" x="169.628906"/>
      <use xlink:href="#DejaVuSans-74" x="230.908203"/>
      <use xlink:href="#DejaVuSans-69" x="270.117188"/>
      <use xlink:href="#DejaVuSans-6f" x="297.900391"/>
      <use xlink:href="#DejaVuSans-6e" x="359.082031"/>
     </g>
    </g>
   </g>
   <g id="matplotlib.axis_2">
    <g id="ytick_1">
     <g id="line2d_6">
      <defs>
       <path id="m06d4194418" d="M 0 0 
L -3.5 0 
" style="stroke: #000000; stroke-width: 0.8"/>
      </defs>
      <g>
       <use xlink:href="#m06d4194418" x="57.6" y="278.725296" style="stroke: #000000; stroke-width: 0.8"/>
      </g>
     </g>
     <g id="text_7">
      <!-- 500 -->
      <g transform="translate(31.5125 282.524514) scale(0.1 -0.1)">
       <defs>
        <path id="DejaVuSans-35" d="M 691 4666 
L 3169 4666 
L 3169 4134 
L 1269 4134 
L 1269 2991 
Q 1406 3038 1543 3061 
Q 1681 3084 1819 3084 
Q 2600 3084 3056 2656 
Q 3513 2228 3513 1497 
Q 3513 744 3044 326 
Q 2575 -91 1722 -91 
Q 1428 -91 1123 -41 
Q 819 9 494 109 
L 494 744 
Q 775 591 1075 516 
Q 1375 441 1709 441 
Q 2250 441 2565 725 
Q 2881 1009 2881 1497 
Q 2881 1984 2565 2268 
Q 2250 2553 1709 2553 
Q 1456 2553 1204 2497 
Q 953 2441 691 2322 
L 691 4666 
z
" transform="scale(0.015625)"/>
       </defs>
       <use xlink:href="#DejaVuSans-35"/>
       <use xlink:href="#DejaVuSans-30" x="63.623047"/>
       <use xlink:href="#DejaVuSans-30" x="127.246094"/>
      </g>
     </g>
    </g>
    <g id="ytick_2">
     <g id="line2d_7">
      <g>
       <use xlink:href="#m06d4194418" x="57.6" y="238.03912" style="stroke: #000000; stroke-width: 0.8"/>
      </g>
     </g>
     <g id="text_8">
      <!-- 1000 -->
      <g transform="translate(25.15 241.838339) scale(0.1 -0.1)">
       <use xlink:href="#DejaVuSans-31"/>
       <use xlink:href="#DejaVuSans-30" x="63.623047"/>
       <use xlink:href="#DejaVuSans-30" x="127.246094"/>
       <use xlink:href="#DejaVuSans-30" x="190.869141"/>
      </g>
     </g>
    </g>
    <g id="ytick_3">
     <g id="line2d_8">
      <g>
       <use xlink:href="#m06d4194418" x="57.6" y="197.352945" style="stroke: #000000; stroke-width: 0.8"/>
      </g>
     </g>
     <g id="text_9">
      <!-- 1500 -->
      <g transform="translate(25.15 201.152163) scale(0.1 -0.1)">
       <use xlink:href="#DejaVuSans-31"/>
       <use xlink:href="#DejaVuSans-35" x="63.623047"/>
       <use xlink:href="#DejaVuSans-30" x="127.246094"/>
       <use xlink:href="#DejaVuSans-30" x="190.869141"/>
      </g>
     </g>
    </g>
    <g id="ytick_4">
     <g id="line2d_9">
      <g>
       <use xlink:href="#m06d4194418" x="57.6" y="156.666769" style="stroke: #000000; stroke-width: 0.8"/>
      </g>
     </g>
     <g id="text_10">
      <!-- 2000 -->
      <g transform="translate(25.15 160.465988) scale(0.1 -0.1)">
       <use xlink:href="#DejaVuSans-32"/>
       <use xlink:href="#DejaVuSans-30" x="63.623047"/>
       <use xlink:href="#DejaVuSans-30" x="127.246094"/>
       <use xlink:href="#DejaVuSans-30" x="190.869141"/>
      </g>
     </g>
    </g>
    <g id="ytick_5">
     <g id="line2d_10">
      <g>
       <use xlink:href="#m06d4194418" x="57.6" y="115.980593" style="stroke: #000000; stroke-width: 0.8"/>
      </g>
     </g>
     <g id="text_11">
      <!-- 2500 -->
      <g transform="translate(25.15 119.779812) scale(0.1 -0.1)">
       <use xlink:href="#DejaVuSans-32"/>
       <use xlink:href="#DejaVuSans-35" x="63.623047"/>
       <use xlink:href="#DejaVuSans-30" x="127.246094"/>
       <use xlink:href="#DejaVuSans-30" x="190.869141"/>
      </g>
     </g>
    </g>
    <g id="ytick_6">
     <g id="line2d_11">
      <g>
       <use xlink:href="#m06d4194418" x="57.6" y="75.294418" style="stroke: #000000; stroke-width: 0.8"/>
      </g>
     </g>
     <g id="text_12">
      <!-- 3000 -->
      <g transform="translate(25.15 79.093637) scale(0.1 -0.1)">
       <use xlink:href="#DejaVuSans-33"/>
       <use xlink:href="#DejaVuSans-30" x="63.623047"/>
       <use xlink:href="#DejaVuSans-30" x="127.246094"/>
       <use xlink:href="#DejaVuSans-30" x="190.869141"/>
      </g>
     </g>
    </g>
    <g id="text_13">
     <!-- best fitness of swarm -->
     <g transform="translate(19.070312 228.0905) rotate(-90) scale(0.1 -0.1)">
      <defs>
       <path id="DejaVuSans-62" d="M 3116 1747 
Q 3116 2381 2855 2742 
Q 2594 3103 2138 3103 
Q 1681 3103 1420 2742 
Q 1159 2381 1159 1747 
Q 1159 1113 1420 752 
Q 1681 391 2138 391 
Q 2594 391 2855 752 
Q 3116 1113 3116 1747 
z
M 1159 2969 
Q 1341 3281 1617 3432 
Q 1894 3584 2278 3584 
Q 2916 3584 3314 3078 
Q 3713 2572 3713 1747 
Q 3713 922 3314 415 
Q 2916 -91 2278 -91 
Q 1894 -91 1617 61 
Q 1341 213 1159 525 
L 1159 0 
L 581 0 
L 581 4863 
L 1159 4863 
L 1159 2969 
z
" transform="scale(0.015625)"/>
       <path id="DejaVuSans-73" d="M 2834 3397 
L 2834 2853 
Q 2591 2978 2328 3040 
Q 2066 3103 1784 3103 
Q 1356 3103 1142 2972 
Q 928 2841 928 2578 
Q 928 2378 1081 2264 
Q 1234 2150 1697 2047 
L 1894 2003 
Q 2506 1872 2764 1633 
Q 3022 1394 3022 966 
Q 3022 478 2636 193 
Q 2250 -91 1575 -91 
Q 1294 -91 989 -36 
Q 684 19 347 128 
L 347 722 
Q 666 556 975 473 
Q 1284 391 1588 391 
Q 1994 391 2212 530 
Q 2431 669 2431 922 
Q 2431 1156 2273 1281 
Q 2116 1406 1581 1522 
L 1381 1569 
Q 847 1681 609 1914 
Q 372 2147 372 2553 
Q 372 3047 722 3315 
Q 1072 3584 1716 3584 
Q 2034 3584 2315 3537 
Q 2597 3491 2834 3397 
z
" transform="scale(0.015625)"/>
       <path id="DejaVuSans-20" transform="scale(0.015625)"/>
       <path id="DejaVuSans-66" d="M 2375 4863 
L 2375 4384 
L 1825 4384 
Q 1516 4384 1395 4259 
Q 1275 4134 1275 3809 
L 1275 3500 
L 2222 3500 
L 2222 3053 
L 1275 3053 
L 1275 0 
L 697 0 
L 697 3053 
L 147 3053 
L 147 3500 
L 697 3500 
L 697 3744 
Q 697 4328 969 4595 
Q 1241 4863 1831 4863 
L 2375 4863 
z
" transform="scale(0.015625)"/>
       <path id="DejaVuSans-77" d="M 269 3500 
L 844 3500 
L 1563 769 
L 2278 3500 
L 2956 3500 
L 3675 769 
L 4391 3500 
L 4966 3500 
L 4050 0 
L 3372 0 
L 2619 2869 
L 1863 0 
L 1184 0 
L 269 3500 
z
" transform="scale(0.015625)"/>
       <path id="DejaVuSans-6d" d="M 3328 2828 
Q 3544 3216 3844 3400 
Q 4144 3584 4550 3584 
Q 5097 3584 5394 3201 
Q 5691 2819 5691 2113 
L 5691 0 
L 5113 0 
L 5113 2094 
Q 5113 2597 4934 2840 
Q 4756 3084 4391 3084 
Q 3944 3084 3684 2787 
Q 3425 2491 3425 1978 
L 3425 0 
L 2847 0 
L 2847 2094 
Q 2847 2600 2669 2842 
Q 2491 3084 2119 3084 
Q 1678 3084 1418 2786 
Q 1159 2488 1159 1978 
L 1159 0 
L 581 0 
L 581 3500 
L 1159 3500 
L 1159 2956 
Q 1356 3278 1631 3431 
Q 1906 3584 2284 3584 
Q 2666 3584 2933 3390 
Q 3200 3197 3328 2828 
z
" transform="scale(0.015625)"/>
      </defs>
      <use xlink:href="#DejaVuSans-62"/>
      <use xlink:href="#DejaVuSans-65" x="63.476562"/>
      <use xlink:href="#DejaVuSans-73" x="125"/>
      <use xlink:href="#DejaVuSans-74" x="177.099609"/>
      <use xlink:href="#DejaVuSans-20" x="216.308594"/>
      <use xlink:href="#DejaVuSans-66" x="248.095703"/>
      <use xlink:href="#DejaVuSans-69" x="283.300781"/>
      <use xlink:href="#DejaVuSans-74" x="311.083984"/>
      <use xlink:href="#DejaVuSans-6e" x="350.292969"/>
      <use xlink:href="#DejaVuSans-65" x="413.671875"/>
      <use xlink:href="#DejaVuSans-73" x="475.195312"/>
      <use xlink:href="#DejaVuSans-73" x="527.294922"/>
      <use xlink:href="#DejaVuSans-20" x="579.394531"/>
      <use xlink:href="#DejaVuSans-6f" x="611.181641"/>
      <use xlink:href="#DejaVuSans-66" x="672.363281"/>
      <use xlink:href="#DejaVuSans-20" x="707.568359"/>
      <use xlink:href="#DejaVuSans-73" x="739.355469"/>
      <use xlink:href="#DejaVuSans-77" x="791.455078"/>
      <use xlink:href="#DejaVuSans-61" x="873.242188"/>
      <use xlink:href="#DejaVuSans-72" x="934.521484"/>
      <use xlink:href="#DejaVuSans-6d" x="973.884766"/>
     </g>
    </g>
   </g>
   <g id="line2d_12">
    <path d="M 73.832727 295.488 
L 73.989112 292.884085 
L 74.145497 290.117425 
L 74.536458 290.117425 
L 74.692843 289.222329 
L 75.005612 289.222329 
L 75.240189 287.269393 
L 75.396574 287.025275 
L 75.552958 287.594882 
L 75.631151 287.432137 
L 75.787535 283.444892 
L 75.94392 282.224307 
L 76.022112 282.224307 
L 76.256689 281.085094 
L 76.491266 279.620392 
L 76.569459 279.294902 
L 76.725843 275.06354 
L 76.882228 275.06354 
L 76.96042 274.900795 
L 77.116805 272.459625 
L 77.194997 272.378252 
L 77.27319 272.540997 
L 77.429574 268.228262 
L 77.898728 265.949837 
L 77.976921 265.949837 
L 78.211498 265.38023 
L 78.367882 260.1724 
L 78.446075 260.009655 
L 78.602459 259.440048 
L 78.915229 259.521421 
L 79.071613 259.684165 
L 79.227998 259.114559 
L 79.384383 259.114559 
L 79.540767 258.300836 
L 79.61896 258.138091 
L 79.697152 258.300836 
L 80.009921 247.72243 
L 80.166306 247.966547 
L 80.479075 247.966547 
L 80.557267 245.606749 
L 80.63546 246.3391 
L 80.713652 246.3391 
L 80.948229 236.737162 
L 81.026421 236.65579 
L 81.182806 236.248928 
L 81.260998 236.248928 
L 81.495575 222.497001 
L 81.65196 222.497001 
L 81.808345 221.032299 
L 81.886537 221.032299 
L 81.964729 221.520533 
L 82.042922 220.706809 
L 82.121114 221.683277 
L 82.277499 219.160735 
L 82.433883 218.102894 
L 82.512076 218.347011 
L 82.590268 218.265639 
L 82.746653 224.449937 
L 82.824845 224.449937 
L 82.903037 223.961703 
L 82.98123 222.415629 
L 83.059422 222.578373 
L 83.137614 222.741118 
L 83.293999 221.520533 
L 83.372191 221.520533 
L 83.450384 220.706809 
L 83.528576 221.113671 
L 83.763153 209.477425 
L 83.841345 209.802914 
L 83.99773 214.441138 
L 84.075922 214.848 
L 84.154115 214.685255 
L 84.310499 214.522511 
L 84.388692 214.685255 
L 84.545076 214.278394 
L 84.623269 214.115649 
L 84.701461 214.603883 
L 84.779653 214.522511 
L 84.857846 214.603883 
L 85.01423 215.010745 
L 85.092422 215.173489 
L 85.248807 217.940149 
L 85.326999 218.591128 
L 85.483384 213.46467 
L 85.639769 212.650947 
L 85.717961 212.488202 
L 85.796153 205.083318 
L 85.874346 205.16469 
L 85.952538 204.757828 
L 86.108923 205.16469 
L 86.265307 205.083318 
L 86.421692 204.595084 
L 86.499884 196.783338 
L 86.578077 197.515689 
L 86.656269 197.434317 
L 86.812654 198.654902 
L 86.890846 204.757828 
L 86.969038 204.595084 
L 87.047231 204.513711 
L 87.203615 198.085296 
L 87.281808 198.166668 
L 87.36 197.922551 
L 87.594577 191.819625 
L 87.672769 191.900997 
L 87.750962 190.924529 
L 87.829154 187.669635 
L 87.907346 188.076496 
L 88.063731 187.995124 
L 88.141923 187.995124 
L 88.220116 187.669635 
L 88.298308 182.054942 
L 88.3765 183.3569 
L 88.454693 191.65688 
L 88.532885 190.192178 
L 88.611077 190.761784 
L 88.68927 184.984347 
L 88.767462 185.309837 
L 88.845654 184.984347 
L 88.923847 185.065719 
L 89.158424 175.789271 
L 89.236616 175.626527 
L 89.393001 177.742208 
L 89.549385 177.579463 
L 89.627578 181.241219 
L 89.862154 172.371633 
L 89.940347 174.731431 
L 90.018539 174.243197 
L 90.096731 174.161824 
L 90.174924 171.313792 
L 90.253116 171.964771 
L 90.331308 172.208888 
L 90.409501 171.395164 
L 90.487693 171.557909 
L 90.644078 171.476537 
L 90.72227 169.5236 
L 90.878655 160.654014 
L 91.113232 160.654014 
L 91.269616 161.630482 
L 91.426001 163.746163 
L 91.582386 163.908908 
L 91.660578 163.908908 
L 91.73877 167.08243 
L 91.816963 166.675568 
L 91.895155 166.594196 
L 92.207924 160.898131 
L 92.286117 160.898131 
L 92.364309 161.630482 
L 92.442501 160.572642 
L 92.598886 156.178535 
L 92.755271 156.504024 
L 92.911655 159.352057 
L 93.06804 147.064831 
L 93.146232 147.146204 
L 93.224425 155.283439 
L 93.302617 154.144226 
L 93.380809 154.306971 
L 93.615386 156.422652 
L 93.771771 161.630482 
L 94.162733 161.54911 
L 94.319117 157.155003 
L 94.39731 157.073631 
L 94.475502 154.63246 
L 94.631886 156.504024 
L 94.866463 152.679524 
L 94.944656 152.679524 
L 95.022848 147.878555 
L 95.10104 149.017768 
L 95.257425 147.146204 
L 95.492002 145.681502 
L 95.648387 146.739342 
L 95.726579 145.762874 
L 95.804771 148.855023 
L 95.882964 148.692279 
L 95.961156 149.42463 
L 96.039348 149.261885 
L 96.117541 149.587374 
L 96.352118 147.959927 
L 96.586695 146.33248 
L 96.821272 148.366789 
L 96.899464 147.634438 
L 96.977656 147.71581 
L 97.055849 147.878555 
L 97.290426 147.146204 
L 97.368618 146.902087 
L 97.525003 143.647193 
L 97.603195 143.321703 
L 97.681387 140.79916 
L 97.915964 145.518757 
L 97.994157 145.111895 
L 98.228734 148.448161 
L 98.619695 148.366789 
L 98.697888 141.206022 
L 98.77608 142.263863 
L 98.932465 143.56582 
L 99.010657 136.567798 
L 99.088849 137.381522 
L 99.245234 137.381522 
L 99.401618 133.882511 
L 99.558003 130.708989 
L 99.870772 131.604085 
L 99.948965 131.929574 
L 100.105349 130.383499 
L 100.183542 130.05801 
L 100.261734 131.604085 
L 100.339926 131.197223 
L 100.418119 131.44134 
L 100.574503 131.278595 
L 100.652696 129.569776 
L 100.887273 114.109029 
L 101.043657 113.620795 
L 101.12185 113.620795 
L 101.200042 113.946285 
L 101.278234 113.702168 
L 101.356427 115.248242 
L 101.434619 114.760008 
L 101.512811 113.946285 
L 101.591004 114.109029 
L 101.747388 114.353146 
L 101.825581 114.190402 
L 101.903773 111.667859 
L 101.981965 104.832581 
L 102.060158 104.995326 
L 102.216542 104.995326 
L 102.294735 106.297284 
L 102.372927 106.053166 
L 102.529312 106.134539 
L 102.685696 106.134539 
L 102.763889 106.86689 
L 102.920273 104.832581 
L 103.233043 108.087475 
L 103.311235 107.761986 
L 103.46762 109.389433 
L 103.545812 109.226688 
L 103.624004 109.145316 
L 103.702197 109.308061 
L 103.780389 107.924731 
L 103.936774 114.190402 
L 104.014966 115.329615 
L 104.093158 115.085497 
L 104.327735 114.760008 
L 104.405927 114.922753 
L 104.48412 114.760008 
L 104.640504 115.004125 
L 104.718697 115.004125 
L 104.875081 111.098252 
L 105.031466 111.423742 
L 105.187851 117.526668 
L 105.266043 113.702168 
L 105.344235 113.864912 
L 105.422428 113.864912 
L 105.50062 113.702168 
L 105.657005 111.423742 
L 105.735197 111.505114 
L 105.891582 103.774741 
L 105.969774 103.611996 
L 106.126159 97.590442 
L 106.204351 104.669837 
L 106.282543 104.10023 
L 106.360736 104.10023 
L 106.51712 105.727677 
L 106.751697 99.95024 
L 106.908082 99.380634 
L 107.064467 101.496315 
L 107.142659 101.65906 
L 107.299044 99.868868 
L 107.377236 99.868868 
L 107.611813 106.134539 
L 107.690005 106.134539 
L 107.924582 104.425719 
L 108.002775 104.669837 
L 108.080967 103.856113 
L 108.159159 104.181602 
L 108.315544 103.449251 
L 108.393736 103.693368 
L 108.471929 103.611996 
L 108.784698 103.530624 
L 108.86289 104.751209 
L 108.941083 102.798272 
L 109.019275 104.344347 
L 109.175659 99.462006 
L 109.410236 100.926708 
L 109.723006 110.935508 
L 109.957583 108.168848 
L 110.035775 112.969816 
L 110.113967 112.237465 
L 110.19216 111.505114 
L 110.348544 105.971794 
L 110.504929 106.134539 
L 110.583121 105.239443 
L 110.739506 108.901199 
L 110.817698 109.389433 
L 110.974083 104.832581 
L 111.130468 109.145316 
L 111.286852 106.622773 
L 111.443237 106.297284 
L 111.521429 106.215911 
L 111.599622 113.213933 
L 111.677814 112.888444 
L 111.756006 112.156093 
L 111.834199 112.318838 
L 111.912391 112.156093 
L 111.990583 112.318838 
L 112.22516 110.284529 
L 112.303353 110.528646 
L 112.381545 110.203156 
L 112.53793 100.031613 
L 112.616122 106.948262 
L 112.694314 105.320815 
L 112.772507 105.320815 
L 112.850699 104.751209 
L 113.085276 110.528646 
L 113.163468 110.528646 
L 113.632622 111.667859 
L 113.710815 111.586486 
L 113.867199 109.552178 
L 114.023584 109.552178 
L 114.101776 111.749231 
L 114.336353 125.501158 
L 114.414545 125.419786 
L 114.492738 125.012924 
L 114.57093 125.175669 
L 114.649122 124.931552 
L 114.805507 120.70019 
L 115.118276 117.852157 
L 115.274661 117.852157 
L 115.431046 117.689413 
L 115.509238 117.852157 
L 115.665623 115.085497 
L 115.743815 114.922753 
L 115.978392 115.899221 
L 116.056584 115.899221 
L 116.134777 115.655104 
L 116.212969 112.969816 
L 116.291161 113.132561 
L 116.447546 112.969816 
L 116.603931 111.505114 
L 116.682123 111.830603 
L 116.760315 110.691391 
L 116.994892 111.586486 
L 117.073085 110.691391 
L 117.385854 116.143338 
L 117.464046 116.468827 
L 117.542239 118.340392 
L 117.620431 124.199201 
L 117.776816 117.363923 
L 117.855008 117.201179 
L 117.9332 114.271774 
L 118.089585 122.653126 
L 118.167777 134.370745 
L 118.24597 134.208 
L 118.324162 133.475649 
L 118.402354 133.638394 
L 118.480547 133.638394 
L 118.715123 135.509958 
L 118.793316 135.509958 
L 118.871508 136.730543 
L 118.9497 136.079564 
L 119.027893 136.160936 
L 119.340662 125.419786 
L 119.497047 125.582531 
L 119.575239 122.327637 
L 119.653431 123.059988 
L 119.731624 123.059988 
L 119.888008 122.653126 
L 119.966201 122.653126 
L 120.044393 123.14136 
L 120.200778 126.314882 
L 120.357162 125.90802 
L 120.435355 125.419786 
L 120.513547 123.385477 
L 120.591739 116.957062 
L 120.669932 117.282551 
L 120.748124 117.282551 
L 120.826316 117.689413 
L 121.060893 116.306083 
L 121.139086 116.306083 
L 121.29547 114.84138 
L 121.373663 114.678636 
L 121.530047 118.421764 
L 121.60824 118.096274 
L 121.686432 118.340392 
L 121.764624 118.177647 
L 121.999201 119.398232 
L 122.077394 119.154115 
L 122.233778 123.873711 
L 122.311971 124.280573 
L 122.390163 128.349191 
L 122.468355 128.105074 
L 122.702932 122.08352 
L 122.859317 128.349191 
L 122.937509 128.511935 
L 123.015702 127.698212 
L 123.172086 129.813893 
L 123.328471 125.989393 
L 123.406663 128.511935 
L 123.484855 128.430563 
L 123.64124 128.837425 
L 123.797625 128.837425 
L 123.875817 126.23351 
L 123.954009 127.779584 
L 124.110394 120.781562 
L 124.188586 120.70019 
L 124.344971 118.259019 
L 124.423163 118.259019 
L 124.501356 118.503136 
L 124.65774 119.723721 
L 124.735933 119.235487 
L 124.814125 119.31686 
L 125.126894 125.338414 
L 125.205087 123.059988 
L 125.361471 125.826648 
L 125.517856 123.873711 
L 125.596048 123.548222 
L 125.98701 129.244287 
L 126.065202 129.081542 
L 126.221587 130.139382 
L 126.377972 126.558999 
L 126.456164 126.23351 
L 126.612549 129.488404 
L 126.768933 128.186446 
L 126.847126 128.105074 
L 126.925318 128.593308 
L 127.081703 136.079564 
L 127.159895 134.777606 
L 127.238087 134.858979 
L 127.31628 135.103096 
L 127.394472 134.533489 
L 127.472664 139.904065 
L 127.550857 139.74132 
L 127.707241 140.310926 
L 127.785434 140.310926 
L 127.863626 142.101118 
L 128.098203 134.289372 
L 128.176395 132.173691 
L 128.254587 133.068787 
L 128.33278 132.987415 
L 128.567357 132.336436 
L 128.801934 136.649171 
L 128.880126 136.486426 
L 129.036511 139.74132 
L 129.114703 139.578575 
L 129.271088 152.109917 
L 129.427472 151.377566 
L 129.583857 151.458938 
L 129.818434 154.551088 
L 129.896626 160.16578 
L 129.974819 160.003035 
L 130.131203 158.294216 
L 130.36578 158.294216 
L 130.443973 158.701078 
L 130.756742 156.992258 
L 130.913127 156.910886 
L 131.069511 161.223621 
L 131.147704 154.306971 
L 131.225896 154.95795 
L 131.304088 155.039322 
L 131.382281 155.364811 
L 131.538665 157.968727 
L 131.616858 157.236375 
L 131.69505 159.189312 
L 131.773242 159.026567 
L 131.929627 155.608928 
L 132.007819 156.097162 
L 132.086012 155.283439 
L 132.164204 157.236375 
L 132.242396 155.364811 
L 132.398781 156.992258 
L 132.555166 154.95795 
L 132.71155 155.039322 
L 132.867935 157.073631 
L 132.946127 157.236375 
L 133.024319 157.887354 
L 133.180704 152.760896 
L 133.337089 152.516779 
L 133.415281 153.411875 
L 133.493473 152.679524 
L 133.571666 152.760896 
L 133.72805 152.842268 
L 133.806243 150.80796 
L 133.884435 150.889332 
L 133.962627 151.133449 
L 134.119012 152.760896 
L 134.197204 152.435407 
L 134.353589 153.24913 
L 134.431781 153.086385 
L 134.588166 149.831491 
L 134.666358 149.750119 
L 134.822743 145.844246 
L 134.900935 145.844246 
L 134.979128 140.880533 
L 135.05732 142.833469 
L 135.135512 141.206022 
L 135.291897 143.240331 
L 135.370089 142.833469 
L 135.526474 145.844246 
L 135.604666 145.356012 
L 135.682859 147.227576 
L 135.761051 146.169736 
L 135.839243 146.902087 
L 135.917436 146.495225 
L 135.995628 152.842268 
L 136.152013 145.111895 
L 136.230205 145.111895 
L 136.38659 143.728565 
L 136.464782 145.356012 
L 136.542974 143.403076 
L 136.699359 145.030523 
L 136.777551 145.030523 
L 137.012128 135.835447 
L 137.246705 138.927596 
L 137.40309 134.858979 
L 137.559475 134.858979 
L 137.715859 139.008969 
L 138.028628 130.383499 
L 138.185013 131.522712 
L 138.263205 129.569776 
L 138.497782 135.347213 
L 138.810552 123.955084 
L 138.888744 124.85018 
L 139.045129 127.535467 
L 139.123321 128.186446 
L 139.201513 127.779584 
L 139.43609 121.839403 
L 139.592475 121.839403 
L 139.74886 122.978616 
L 139.905244 116.143338 
L 140.061629 115.736476 
L 140.139821 117.119806 
L 140.296206 121.513913 
L 140.452591 120.211956 
L 140.608975 115.573732 
L 140.843552 108.901199 
L 140.921745 108.901199 
L 140.999937 109.063943 
L 141.312706 96.12574 
L 141.390899 95.962995 
L 141.625476 89.046345 
L 141.860053 86.279685 
L 142.016437 91.65026 
L 142.09463 91.65026 
L 142.172822 89.615952 
L 142.407399 92.057122 
L 142.485591 91.97575 
L 142.563783 94.335548 
L 142.641976 102.065921 
L 142.720168 101.903177 
L 143.11113 102.961017 
L 143.267514 97.50907 
L 143.423899 110.528646 
L 143.580284 109.063943 
L 143.736668 109.063943 
L 143.893053 108.331592 
L 143.971245 101.903177 
L 144.049438 102.065921 
L 144.205822 102.065921 
L 144.284015 102.228666 
L 144.362207 102.961017 
L 144.440399 102.7169 
L 144.596784 102.879645 
L 144.674976 102.7169 
L 144.831361 101.903177 
L 145.065938 102.7169 
L 145.14413 102.879645 
L 145.300515 102.310038 
L 145.4569 102.798272 
L 145.535092 102.065921 
L 145.691477 110.203156 
L 145.769669 110.610018 
L 145.926054 103.937485 
L 146.004246 103.774741 
L 146.160631 105.076698 
L 146.317015 103.937485 
L 146.4734 103.693368 
L 146.551592 103.774741 
L 146.864362 108.738454 
L 146.942554 108.982571 
L 147.020746 108.901199 
L 147.098939 107.517869 
L 147.177131 107.680614 
L 147.255323 107.843358 
L 147.4899 98.322793 
L 147.646285 108.657082 
L 147.724477 103.611996 
L 147.802669 104.018858 
L 147.880862 103.856113 
L 148.037246 102.798272 
L 148.193631 111.179625 
L 148.428208 110.447273 
L 148.662785 109.714922 
L 148.740977 108.901199 
L 148.81917 106.053166 
L 148.975554 95.312016 
L 149.053747 95.312016 
L 149.210131 90.26693 
L 149.366516 89.615952 
L 149.522901 89.860069 
L 149.601093 89.778696 
L 149.679285 90.022813 
L 149.83567 90.999282 
L 149.913862 90.836537 
L 149.992055 89.778696 
L 150.148439 83.67577 
L 150.226632 83.67577 
L 150.383016 82.536557 
L 150.539401 82.129695 
L 150.617593 82.373812 
L 150.695786 81.966951 
L 150.85217 80.258131 
L 151.243132 90.917909 
L 151.399517 90.022813 
L 151.477709 90.511047 
L 151.555901 90.348303 
L 151.634094 90.26693 
L 151.712286 90.836537 
L 151.868671 90.429675 
L 152.103248 94.41692 
L 152.337824 92.626729 
L 152.416017 93.277707 
L 152.494209 91.894377 
L 152.572401 92.382612 
L 152.728786 92.382612 
L 152.963363 88.151249 
L 153.119748 91.406143 
L 153.19794 91.406143 
L 153.354325 89.778696 
L 153.432517 89.860069 
L 153.823479 93.521824 
L 153.979863 93.277707 
L 154.136248 88.639483 
L 154.21444 88.8836 
L 154.52721 85.221845 
L 154.683594 80.583621 
L 154.839979 80.339504 
L 154.918171 81.315972 
L 154.996364 81.234599 
L 155.074556 81.153227 
L 155.230941 86.035568 
L 155.309133 86.035568 
L 155.387325 85.384589 
L 155.465518 91.731633 
L 155.54371 90.999282 
L 155.621902 90.673792 
L 155.700095 90.755164 
L 155.856479 92.382612 
L 155.934672 92.382612 
L 156.012864 94.010059 
L 156.091056 91.894377 
L 156.247441 93.196335 
L 156.325633 89.371835 
L 156.403826 89.453207 
L 156.482018 87.907132 
L 156.638403 81.397344 
L 156.716595 82.943419 
L 156.794787 82.455185 
L 156.87298 77.084609 
L 156.951172 78.386567 
L 157.185749 75.782652 
L 157.342133 75.782652 
L 157.420326 75.619907 
L 157.57671 76.026769 
L 157.654903 75.864024 
L 157.811287 77.898333 
L 157.88948 77.084609 
L 158.045864 79.363035 
L 158.124057 80.014014 
L 158.358634 79.444408 
L 158.436826 79.932642 
L 158.515018 79.851269 
L 158.593211 78.223822 
L 158.671403 78.712057 
L 158.749595 77.816961 
L 158.827788 82.699302 
L 158.90598 81.722834 
L 159.062365 84.73361 
L 159.140557 84.977728 
L 159.218749 84.814983 
L 159.296942 86.198313 
L 159.453326 83.431653 
L 159.531519 86.523802 
L 159.687903 80.583621 
L 159.766096 81.397344 
L 159.844288 77.735588 
L 159.92248 78.549312 
L 160.000673 79.769897 
L 160.157057 75.864024 
L 160.23525 77.410099 
L 160.313442 76.677748 
L 160.391634 77.003237 
L 160.469827 76.433631 
L 160.626211 78.305195 
L 160.860788 76.108141 
L 160.938981 76.108141 
L 161.017173 75.294418 
L 161.095365 75.457162 
L 161.173558 75.37579 
L 161.329942 74.968928 
L 161.408135 69.435608 
L 161.486327 70.005215 
L 161.799096 72.120896 
L 161.955481 71.876779 
L 162.033673 71.144428 
L 162.111865 72.446385 
L 162.26825 70.818938 
L 162.346442 70.818938 
L 162.424635 69.923843 
L 162.502827 70.330704 
L 162.581019 69.272864 
L 162.659212 71.388545 
L 162.815596 67.07581 
L 162.893789 68.052279 
L 162.971981 67.889534 
L 163.206558 69.923843 
L 163.28475 72.771875 
L 163.362943 72.202268 
L 163.441135 71.469917 
L 163.519327 72.771875 
L 163.675712 70.981683 
L 163.910289 76.270886 
L 164.066674 77.328727 
L 164.223058 78.793429 
L 164.301251 78.793429 
L 164.379443 77.003237 
L 164.535828 79.363035 
L 164.61402 78.549312 
L 164.692212 78.874801 
L 164.770405 78.712057 
L 164.848597 78.874801 
L 165.004982 77.247354 
L 165.161366 79.52578 
L 165.239559 83.268908 
L 165.317751 83.024791 
L 165.395943 82.617929 
L 165.474136 82.699302 
L 165.552328 82.699302 
L 165.708713 87.663015 
L 165.865097 87.50027 
L 166.021482 88.720856 
L 166.177867 86.035568 
L 166.256059 85.221845 
L 166.334251 85.872823 
L 166.490636 84.570866 
L 166.64702 87.174781 
L 166.725213 84.570866 
L 166.803405 84.73361 
L 166.881597 84.977728 
L 167.037982 86.849292 
L 167.116174 87.012036 
L 167.194367 86.686547 
L 167.272559 88.069877 
L 167.428944 85.384589 
L 167.585328 87.418898 
L 167.663521 87.256153 
L 168.054482 69.84247 
L 168.210867 75.864024 
L 168.289059 75.864024 
L 168.367252 74.643439 
L 168.445444 75.457162 
L 168.601829 72.60913 
L 168.680021 72.60913 
L 168.836406 73.341481 
L 168.99279 72.283641 
L 169.149175 72.039524 
L 169.227367 72.202268 
L 169.30556 70.412077 
L 169.383752 71.795407 
L 169.461944 67.645417 
L 169.696521 77.410099 
L 169.774714 77.328727 
L 169.852906 81.234599 
L 169.931098 80.176759 
L 170.009291 80.746365 
L 170.087483 84.73361 
L 170.243868 80.583621 
L 170.32206 80.664993 
L 170.478445 83.187536 
L 170.556637 80.583621 
L 170.634829 80.664993 
L 170.713022 81.397344 
L 170.791214 80.095386 
L 170.947599 85.140472 
L 171.025791 85.140472 
L 171.103983 84.570866 
L 171.182176 77.735588 
L 171.260368 80.827738 
L 171.33856 80.502248 
L 171.416752 80.502248 
L 171.494945 84.570866 
L 171.573137 84.164004 
L 171.729522 82.536557 
L 171.807714 87.581643 
L 171.964099 79.118918 
L 172.042291 79.118918 
L 172.120483 78.712057 
L 172.198676 78.793429 
L 172.276868 80.827738 
L 172.35506 91.162026 
L 172.433253 85.710079 
L 172.511445 86.035568 
L 172.589637 83.187536 
L 172.66783 75.619907 
L 172.746022 78.467939 
L 172.902407 76.840492 
L 173.058791 79.688525 
L 173.136984 79.444408 
L 173.293368 77.572844 
L 173.371561 76.840492 
L 173.449753 77.003237 
L 173.527945 77.084609 
L 173.606138 78.386567 
L 173.762522 75.538535 
L 173.918907 75.538535 
L 173.997099 75.131673 
L 174.075292 70.818938 
L 174.153484 70.900311 
L 174.231676 70.656194 
L 174.309869 66.994438 
L 174.388061 67.4013 
L 174.544446 68.78463 
L 174.622638 68.78463 
L 174.779023 70.086587 
L 174.935407 70.493449 
L 175.091792 69.272864 
L 175.248177 69.354236 
L 175.326369 69.435608 
L 175.404561 68.866002 
L 175.482754 69.272864 
L 175.639138 63.983661 
L 175.873715 69.516981 
L 175.951908 70.249332 
L 176.0301 69.516981 
L 176.186484 64.146406 
L 176.264677 66.994438 
L 176.342869 66.262087 
L 176.421061 66.831693 
L 176.499254 68.377768 
L 176.577446 67.726789 
L 176.733831 67.157183 
L 176.812023 67.157183 
L 176.890215 70.16796 
L 176.968408 69.84247 
L 177.124792 68.621885 
L 177.202985 68.78463 
L 177.359369 63.658172 
L 177.515754 76.75912 
L 177.593946 75.864024 
L 177.672139 75.864024 
L 177.750331 76.677748 
L 177.906716 81.153227 
L 178.219485 87.744387 
L 178.454062 87.744387 
L 178.532254 87.581643 
L 178.610447 89.046345 
L 178.688639 88.720856 
L 178.845024 85.547334 
L 179.001408 85.872823 
L 179.157793 85.872823 
L 179.235985 90.104186 
L 179.39237 85.465962 
L 179.705139 90.185558 
L 179.783332 90.104186 
L 179.861524 90.185558 
L 180.017909 90.917909 
L 180.096101 90.673792 
L 180.174293 91.65026 
L 180.252486 90.022813 
L 180.330678 93.277707 
L 180.487063 91.080654 
L 180.72164 98.241421 
L 180.799832 98.241421 
L 180.878024 98.648283 
L 181.112601 106.704145 
L 181.190793 106.704145 
L 181.268986 106.541401 
L 181.42537 105.239443 
L 181.581755 105.239443 
L 181.73814 103.286507 
L 181.816332 103.367879 
L 181.894524 103.205134 
L 182.050909 96.858091 
L 182.207294 93.847314 
L 182.363678 96.532601 
L 182.520063 96.369857 
L 182.75464 90.836537 
L 182.911025 90.429675 
L 183.067409 88.232622 
L 183.145602 88.476739 
L 183.301986 88.313994 
L 183.380179 89.534579 
L 183.536563 95.230644 
L 183.692948 95.474761 
L 183.849333 96.288484 
L 183.927525 96.288484 
L 184.162102 95.637506 
L 184.318487 92.626729 
L 184.396679 92.789473 
L 184.474871 89.615952 
L 184.553064 90.511047 
L 184.631256 93.196335 
L 184.709448 92.301239 
L 184.787641 92.301239 
L 184.944025 95.962995 
L 185.022218 95.962995 
L 185.256795 96.207112 
L 185.334987 96.12574 
L 185.413179 95.067899 
L 185.491372 95.556133 
L 185.569564 97.020836 
L 185.647756 96.695346 
L 185.804141 96.695346 
L 185.882333 98.8924 
L 186.038718 94.254176 
L 186.195102 94.986527 
L 186.351487 95.067899 
L 186.507872 97.997304 
L 186.664256 96.695346 
L 186.742449 96.207112 
L 186.898833 97.020836 
L 187.055218 96.288484 
L 187.13341 100.031613 
L 187.211603 99.868868 
L 187.289795 100.27573 
L 187.367987 100.112985 
L 187.524372 100.194357 
L 187.602564 100.926708 
L 187.680757 100.601219 
L 187.758949 100.763964 
L 187.915334 113.45805 
L 187.993526 113.376678 
L 188.149911 113.78354 
L 188.228103 113.946285 
L 188.306295 113.213933 
L 188.46268 114.027657 
L 188.540872 113.376678 
L 188.775449 115.248242 
L 188.853642 115.248242 
L 188.931834 118.665881 
L 189.010026 118.503136 
L 189.088219 118.503136 
L 189.244603 117.93353 
L 189.322796 117.119806 
L 189.400988 117.689413 
L 189.557373 115.004125 
L 189.79195 115.004125 
L 189.948334 110.935508 
L 190.261104 112.156093 
L 190.417488 112.156093 
L 190.495681 110.447273 
L 190.652065 105.564932 
L 190.730257 109.796295 
L 190.80845 109.389433 
L 190.886642 109.470805 
L 191.043027 108.006103 
L 191.199411 107.111007 
L 191.355796 107.599241 
L 191.512181 106.460028 
L 191.590373 106.460028 
L 191.668565 106.215911 
L 191.82495 106.378656 
L 191.903142 111.260997 
L 191.981335 111.01688 
L 192.215912 111.01688 
L 192.450489 109.959039 
L 192.528681 102.554155 
L 192.606873 102.961017 
L 192.763258 102.961017 
L 192.919643 103.367879 
L 193.076027 102.635528 
L 193.232412 102.635528 
L 193.388797 100.601219 
L 193.466989 100.601219 
L 193.545181 101.089453 
L 193.701566 100.438474 
L 193.857951 92.545356 
L 194.014335 93.521824 
L 194.17072 93.684569 
L 194.248912 93.684569 
L 194.405297 93.928686 
L 194.483489 92.545356 
L 194.561682 93.196335 
L 194.639874 93.03359 
L 194.874451 85.954196 
L 195.030836 93.521824 
L 195.18722 84.570866 
L 195.265413 84.570866 
L 195.343605 86.44243 
L 195.421797 86.361058 
L 195.499989 86.44243 
L 195.734566 87.012036 
L 195.812759 87.012036 
L 195.890951 86.523802 
L 196.047336 84.652238 
L 196.20372 83.757142 
L 196.51649 98.160048 
L 196.594682 99.136517 
L 196.672874 97.671814 
L 196.829259 101.740432 
L 196.985644 101.089453 
L 197.063836 101.414942 
L 197.142028 102.879645 
L 197.298413 110.040412 
L 197.376605 110.365901 
L 197.454798 109.959039 
L 197.611182 104.669837 
L 197.689375 104.832581 
L 197.923952 93.440452 
L 198.236721 93.35908 
L 198.314913 93.684569 
L 198.393106 91.65026 
L 198.471298 94.091431 
L 198.54949 93.03359 
L 198.627683 93.114963 
L 198.784067 95.80025 
L 198.86226 95.718878 
L 199.018644 97.264953 
L 199.096837 97.427697 
L 199.331414 101.008081 
L 199.409606 99.380634 
L 199.487798 100.926708 
L 199.565991 99.543378 
L 199.644183 100.031613 
L 199.722375 100.112985 
L 199.800568 100.682591 
L 199.87876 100.601219 
L 200.035145 103.611996 
L 200.113337 103.611996 
L 200.191529 104.425719 
L 200.426106 95.312016 
L 200.504298 95.637506 
L 200.582491 95.556133 
L 200.738875 96.939463 
L 200.817068 94.254176 
L 201.051645 100.926708 
L 201.129837 98.973772 
L 201.208029 98.973772 
L 201.286222 98.485538 
L 201.442606 98.8924 
L 201.520799 97.997304 
L 201.598991 99.462006 
L 201.677183 98.241421 
L 201.833568 100.27573 
L 201.91176 93.440452 
L 202.22453 104.588464 
L 202.302722 104.669837 
L 202.380914 102.879645 
L 202.615491 110.935508 
L 202.771876 109.714922 
L 202.928261 110.040412 
L 203.084645 109.389433 
L 203.24103 104.995326 
L 203.397415 109.877667 
L 203.553799 107.680614 
L 203.710184 108.25022 
L 203.788376 108.25022 
L 203.944761 107.680614 
L 204.022953 107.680614 
L 204.101146 111.423742 
L 204.179338 110.935508 
L 204.25753 110.935508 
L 204.413915 109.63355 
L 204.492107 112.40021 
L 204.5703 112.318838 
L 204.726684 111.993348 
L 204.883069 109.877667 
L 205.039453 110.365901 
L 205.195838 109.959039 
L 205.27403 108.087475 
L 205.508607 97.346325 
L 205.5868 97.264953 
L 205.743184 97.427697 
L 205.977761 97.427697 
L 206.134146 99.868868 
L 206.290531 97.18358 
L 206.368723 97.020836 
L 206.525108 90.836537 
L 206.6033 91.324771 
L 206.759685 91.894377 
L 206.837877 87.744387 
L 206.994262 94.661037 
L 207.072454 93.847314 
L 207.307031 87.50027 
L 207.385223 87.50027 
L 207.463416 92.626729 
L 207.541608 92.138494 
L 207.6198 92.545356 
L 207.697993 92.382612 
L 207.776185 92.382612 
L 207.854377 87.256153 
L 207.93257 87.663015 
L 208.010762 87.663015 
L 208.245339 88.639483 
L 208.401724 88.558111 
L 208.479916 88.8836 
L 208.714493 90.429675 
L 208.792685 90.022813 
L 208.870878 90.185558 
L 208.94907 90.673792 
L 209.105455 87.744387 
L 209.183647 87.744387 
L 209.340032 83.757142 
L 209.418224 83.757142 
L 209.574609 84.245376 
L 209.730993 83.106163 
L 209.809185 82.699302 
L 209.887378 83.431653 
L 209.96557 83.187536 
L 210.043762 83.268908 
L 210.200147 83.513025 
L 210.278339 80.339504 
L 210.356532 80.583621 
L 210.512916 80.502248 
L 210.591109 80.90911 
L 210.669301 77.084609 
L 210.747493 77.572844 
L 210.825686 77.572844 
L 210.98207 84.977728 
L 211.060263 83.024791 
L 211.138455 83.106163 
L 211.216647 86.523802 
L 211.29484 81.885578 
L 211.373032 81.966951 
L 211.451224 89.127717 
L 211.607609 80.583621 
L 211.763994 80.827738 
L 211.842186 80.827738 
L 212.154955 80.339504 
L 212.31134 77.735588 
L 212.389532 77.735588 
L 212.545917 80.014014 
L 212.624109 80.014014 
L 212.780494 79.607152 
L 212.858686 79.607152 
L 212.936879 79.444408 
L 213.015071 79.769897 
L 213.171456 84.570866 
L 213.32784 84.73361 
L 213.484225 83.67577 
L 213.562417 83.838515 
L 213.796994 86.686547 
L 213.953379 86.686547 
L 214.266148 83.838515 
L 214.344341 83.594398 
L 214.422533 84.245376 
L 214.500725 83.024791 
L 214.578917 84.001259 
L 214.65711 75.864024 
L 214.735302 76.270886 
L 214.891687 71.144428 
L 214.969879 74.31795 
L 215.048071 73.829715 
L 215.282648 73.99246 
L 215.439033 80.990482 
L 215.517225 80.176759 
L 215.67361 80.990482 
L 215.751802 80.746365 
L 215.829995 75.37579 
L 215.908187 75.70128 
L 215.986379 75.70128 
L 216.142764 70.412077 
L 216.377341 73.260109 
L 216.455533 73.097364 
L 216.69011 73.178737 
L 216.768303 72.446385 
L 216.846495 72.60913 
L 217.081072 74.643439 
L 217.237457 75.37579 
L 217.393841 75.37579 
L 217.472034 76.026769 
L 217.628418 74.399322 
L 217.706611 74.480694 
L 218.01938 80.502248 
L 218.097572 80.176759 
L 218.175765 84.001259 
L 218.253957 83.268908 
L 218.332149 83.350281 
L 218.410342 82.862046 
L 218.488534 83.838515 
L 218.644919 76.515003 
L 218.801303 76.515003 
L 218.879496 76.75912 
L 219.192265 80.258131 
L 219.270457 80.258131 
L 219.426842 79.200291 
L 219.505034 79.200291 
L 219.661419 78.956174 
L 219.739611 78.874801 
L 219.895996 76.75912 
L 220.05238 79.932642 
L 220.208765 80.990482 
L 220.286957 80.746365 
L 220.599727 88.558111 
L 220.756111 85.954196 
L 220.912496 85.872823 
L 220.990688 85.872823 
L 221.068881 85.547334 
L 221.225265 85.710079 
L 221.303458 85.710079 
L 221.38165 86.767919 
L 221.459842 85.710079 
L 221.538035 85.791451 
L 221.616227 85.710079 
L 221.772612 79.769897 
L 221.928996 80.502248 
L 222.007189 79.118918 
L 222.241766 82.780674 
L 222.319958 82.862046 
L 222.39815 78.712057 
L 222.476343 78.956174 
L 222.554535 79.200291 
L 222.71092 82.211068 
L 222.789112 83.106163 
L 222.945497 81.560089 
L 223.023689 81.641461 
L 223.101881 83.594398 
L 223.258266 78.793429 
L 223.336458 79.281663 
L 223.414651 79.200291 
L 223.571035 81.153227 
L 223.649228 81.153227 
L 223.72742 80.583621 
L 223.883805 78.467939 
L 223.961997 78.467939 
L 224.040189 78.305195 
L 224.196574 78.793429 
L 224.431151 78.467939 
L 224.587535 78.386567 
L 224.74392 71.632662 
L 224.822112 71.632662 
L 224.978497 71.876779 
L 225.134882 73.748343 
L 225.291266 73.748343 
L 225.369459 72.283641 
L 225.525843 79.769897 
L 225.604036 79.688525 
L 225.682228 78.630684 
L 225.994997 70.16796 
L 226.151382 71.469917 
L 226.307767 69.84247 
L 226.385959 69.028747 
L 226.464151 69.435608 
L 226.542344 68.866002 
L 226.620536 63.414054 
L 226.698728 63.576799 
L 226.776921 63.414054 
L 227.08969 70.737566 
L 227.402459 68.78463 
L 227.480652 68.78463 
L 227.637036 69.110119 
L 227.715229 68.78463 
L 227.793421 69.028747 
L 228.027998 71.307173 
L 228.262575 66.424831 
L 228.340767 66.424831 
L 228.41896 67.645417 
L 228.497152 71.55129 
L 228.575344 71.307173 
L 228.731729 71.307173 
L 228.809921 71.063055 
L 228.966306 70.412077 
L 229.12269 70.005215 
L 229.279075 80.095386 
L 229.357267 79.851269 
L 229.513652 83.919887 
L 229.670037 70.412077 
L 229.826421 71.388545 
L 229.904614 71.388545 
L 229.982806 75.050301 
L 230.060998 74.887556 
L 230.139191 69.679726 
L 230.217383 69.84247 
L 230.373768 68.133651 
L 230.45196 70.005215 
L 230.530152 69.761098 
L 230.686537 69.84247 
L 230.764729 73.748343 
L 230.842922 72.853247 
L 230.999306 72.93462 
L 231.077499 71.795407 
L 231.155691 71.876779 
L 231.312076 73.422854 
L 231.390268 73.422854 
L 231.46846 73.666971 
L 231.546653 73.341481 
L 231.78123 70.412077 
L 231.937614 72.771875 
L 232.250384 79.851269 
L 232.328576 79.851269 
L 232.406768 84.73361 
L 232.484961 82.699302 
L 232.563153 82.455185 
L 232.79773 78.467939 
L 232.875922 78.874801 
L 233.110499 90.26693 
L 233.188692 90.104186 
L 233.345076 90.59242 
L 233.423269 90.59242 
L 233.501461 90.917909 
L 233.657846 90.429675 
L 233.736038 92.301239 
L 233.892422 89.127717 
L 233.970615 89.534579 
L 234.048807 91.162026 
L 234.205192 95.474761 
L 234.361576 94.172803 
L 234.439769 93.684569 
L 234.596153 92.138494 
L 234.752538 94.091431 
L 234.83073 93.35908 
L 234.908923 100.031613 
L 234.987115 97.264953 
L 235.065307 97.264953 
L 235.299884 88.232622 
L 235.378077 88.232622 
L 235.612654 82.862046 
L 235.769038 82.780674 
L 235.847231 83.838515 
L 235.925423 83.513025 
L 236.003615 82.699302 
L 236.081808 84.570866 
L 236.16 79.688525 
L 236.238192 80.258131 
L 236.472769 86.279685 
L 236.550962 85.791451 
L 236.629154 85.791451 
L 236.863731 74.806184 
L 237.020116 74.724811 
L 237.098308 73.911088 
L 237.1765 74.31795 
L 237.254693 76.515003 
L 237.332885 74.155205 
L 237.411077 75.050301 
L 237.48927 75.050301 
L 237.645654 84.896355 
L 237.723847 84.814983 
L 237.802039 84.896355 
L 237.958424 84.814983 
L 238.036616 84.814983 
L 238.271193 85.628706 
L 238.349385 85.954196 
L 238.583962 82.536557 
L 238.896731 70.900311 
L 239.053116 76.270886 
L 239.209501 75.538535 
L 239.365885 75.782652 
L 239.444078 72.60913 
L 239.52227 73.504226 
L 239.600462 73.341481 
L 239.678655 73.911088 
L 239.835039 73.178737 
L 239.991424 74.562067 
L 240.069616 74.562067 
L 240.147809 73.666971 
L 240.382386 77.572844 
L 240.616963 73.829715 
L 240.773347 73.341481 
L 240.85154 76.596375 
L 241.086117 72.853247 
L 241.242501 71.795407 
L 241.398886 72.202268 
L 241.477078 71.958151 
L 241.633463 70.737566 
L 241.711655 70.900311 
L 241.789848 77.165982 
L 241.86804 77.084609 
L 241.946232 77.084609 
L 242.024425 76.108141 
L 242.259002 78.630684 
L 242.337194 78.467939 
L 242.415386 78.467939 
L 242.571771 81.641461 
L 242.728156 80.90911 
L 242.88454 78.223822 
L 243.040925 78.223822 
L 243.119117 83.350281 
L 243.19731 82.862046 
L 243.275502 82.617929 
L 243.353694 83.919887 
L 243.666463 75.945397 
L 243.744656 76.026769 
L 243.822848 80.827738 
L 243.90104 80.339504 
L 243.979233 75.945397 
L 244.057425 77.084609 
L 244.21381 77.003237 
L 244.292002 77.247354 
L 244.370194 77.979705 
L 244.448387 77.816961 
L 244.526579 77.410099 
L 244.839348 83.024791 
L 245.308502 76.840492 
L 245.464887 76.921865 
L 245.543079 76.189514 
L 245.699464 77.654216 
L 245.777656 77.491471 
L 245.934041 77.654216 
L 246.090426 76.921865 
L 246.325003 77.003237 
L 246.481387 82.455185 
L 246.637772 83.106163 
L 246.794157 82.862046 
L 247.028734 77.491471 
L 247.185118 78.14245 
L 247.341503 77.247354 
L 247.419695 77.165982 
L 247.57608 78.386567 
L 247.732465 78.956174 
L 247.810657 78.874801 
L 247.888849 76.677748 
L 247.967042 80.664993 
L 248.045234 78.793429 
L 248.279811 83.024791 
L 248.358003 83.024791 
L 248.436195 82.699302 
L 248.514388 85.303217 
L 248.59258 84.814983 
L 248.670772 84.814983 
L 248.748965 85.628706 
L 248.827157 84.164004 
L 248.905349 80.014014 
L 248.983542 84.896355 
L 249.061734 84.814983 
L 249.218119 86.198313 
L 249.296311 85.465962 
L 249.452696 87.50027 
L 249.530888 83.919887 
L 249.60908 84.001259 
L 249.687273 82.862046 
L 250.000042 94.661037 
L 250.078234 94.74241 
L 250.156427 94.661037 
L 250.312811 91.97575 
L 250.625581 90.429675 
L 250.703773 92.708101 
L 250.781965 92.545356 
L 250.860158 93.440452 
L 250.93835 90.511047 
L 251.094735 92.138494 
L 251.251119 90.185558 
L 251.407504 90.755164 
L 251.485696 91.731633 
L 251.642081 90.59242 
L 251.720273 90.673792 
L 251.798466 90.59242 
L 251.876658 88.069877 
L 251.95485 88.232622 
L 252.424004 80.827738 
L 252.502197 80.827738 
L 252.580389 81.153227 
L 252.736774 82.373812 
L 252.814966 81.722834 
L 252.893158 79.118918 
L 252.97135 79.363035 
L 253.049543 79.52578 
L 253.28412 86.605175 
L 253.362312 86.523802 
L 253.675081 91.813005 
L 254.066043 84.164004 
L 254.144235 84.164004 
L 254.30062 85.221845 
L 254.378812 85.221845 
L 254.613389 86.198313 
L 254.691582 85.872823 
L 254.769774 85.384589 
L 254.847966 86.11694 
L 255.004351 85.628706 
L 255.082543 85.710079 
L 255.160736 85.628706 
L 255.238928 85.710079 
L 255.31712 80.90911 
L 255.395313 81.234599 
L 255.473505 80.990482 
L 255.551697 83.106163 
L 255.62989 82.780674 
L 255.708082 82.699302 
L 255.786274 82.780674 
L 255.942659 79.363035 
L 256.020851 79.363035 
L 256.099044 78.956174 
L 256.177236 79.281663 
L 256.333621 82.129695 
L 256.490005 82.048323 
L 256.64639 81.153227 
L 256.724582 81.804206 
L 256.802775 81.722834 
L 256.880967 81.397344 
L 257.037352 83.106163 
L 257.115544 83.350281 
L 257.271929 78.386567 
L 257.350121 78.223822 
L 257.506506 82.536557 
L 257.584698 82.455185 
L 257.66289 82.617929 
L 257.741083 84.082632 
L 257.975659 81.397344 
L 258.053852 81.397344 
L 258.132044 81.722834 
L 258.210236 80.746365 
L 258.288429 80.827738 
L 258.601198 89.453207 
L 258.67939 89.534579 
L 258.757583 89.046345 
L 258.835775 89.20909 
L 259.070352 81.885578 
L 259.148544 82.536557 
L 259.226737 82.129695 
L 259.304929 82.29244 
L 259.461314 84.082632 
L 259.539506 84.001259 
L 259.852275 82.211068 
L 259.930468 83.431653 
L 260.00866 82.699302 
L 260.243237 88.8836 
L 260.321429 84.977728 
L 260.399622 85.0591 
L 260.477814 85.0591 
L 260.634199 83.187536 
L 260.790583 82.780674 
L 260.946968 82.211068 
L 261.02516 77.979705 
L 261.103353 81.722834 
L 261.181545 80.90911 
L 261.33793 81.397344 
L 261.416122 83.268908 
L 261.494314 79.363035 
L 261.572507 79.851269 
L 261.650699 79.851269 
L 261.728891 80.014014 
L 261.807084 81.234599 
L 261.885276 80.746365 
L 262.35443 74.31795 
L 262.432622 74.480694 
L 262.510815 71.063055 
L 262.589007 71.714034 
L 262.745391 71.144428 
L 262.901776 77.084609 
L 263.058161 79.688525 
L 263.136353 66.099342 
L 263.214545 66.180714 
L 263.292738 67.319927 
L 263.37093 66.587576 
L 263.449122 67.482672 
L 263.527315 64.960129 
L 263.605507 66.099342 
L 263.683699 66.01797 
L 263.840084 65.773853 
L 263.918276 68.052279 
L 263.996469 67.726789 
L 264.074661 67.726789 
L 264.231046 68.540513 
L 264.38743 68.540513 
L 264.465623 69.84247 
L 264.622007 69.110119 
L 264.778392 71.55129 
L 265.012969 68.45914 
L 265.247546 56.904266 
L 265.403931 60.728767 
L 265.560315 61.298373 
L 265.7167 64.878757 
L 265.873085 63.495427 
L 265.951277 63.739544 
L 266.029469 63.576799 
L 266.185854 62.92582 
L 266.264046 62.92582 
L 266.342239 66.343459 
L 266.498623 58.450341 
L 266.576816 60.403277 
L 266.655008 58.043479 
L 266.811393 61.379746 
L 266.967777 57.880735 
L 267.04597 57.880735 
L 267.280547 61.705235 
L 267.358739 61.379746 
L 267.436931 68.621885 
L 267.515123 68.45914 
L 267.671508 63.495427 
L 267.7497 63.902289 
L 268.06247 70.656194 
L 268.218854 57.799362 
L 268.297047 61.54249 
L 268.375239 60.891512 
L 268.531624 57.148383 
L 268.688008 59.345437 
L 268.766201 59.264065 
L 268.922585 59.915043 
L 269.07897 65.611108 
L 269.235355 62.112097 
L 269.313547 62.193469 
L 269.391739 60.566022 
L 269.548124 63.658172 
L 269.626316 64.227778 
L 269.782701 63.414054 
L 269.939086 63.983661 
L 270.09547 68.052279 
L 270.251855 69.354236 
L 270.330047 69.110119 
L 270.40824 69.272864 
L 270.486432 69.761098 
L 270.564624 69.272864 
L 270.721009 66.506204 
L 270.799201 67.319927 
L 270.955586 67.4013 
L 271.190163 77.654216 
L 271.268355 77.816961 
L 271.346548 78.467939 
L 271.42474 78.223822 
L 271.502932 78.305195 
L 271.581125 78.630684 
L 271.815702 75.782652 
L 271.972086 76.026769 
L 272.128471 85.465962 
L 272.284855 84.977728 
L 272.44124 88.558111 
L 272.519432 87.256153 
L 272.597625 87.418898 
L 272.675817 87.418898 
L 272.832202 81.966951 
L 272.910394 82.780674 
L 272.988586 82.699302 
L 273.066779 82.862046 
L 273.223163 76.596375 
L 273.301356 76.596375 
L 273.379548 76.433631 
L 273.45774 76.677748 
L 273.535933 76.433631 
L 273.614125 78.956174 
L 273.77051 74.643439 
L 273.848702 74.643439 
L 274.005087 74.399322 
L 274.161471 74.562067 
L 274.317856 74.31795 
L 274.474241 77.491471 
L 274.552433 78.630684 
L 274.708818 86.11694 
L 274.78701 85.384589 
L 274.943395 81.071855 
L 275.021587 81.234599 
L 275.177972 83.67577 
L 275.256164 92.057122 
L 275.334356 91.894377 
L 275.412549 91.243399 
L 275.490741 89.534579 
L 275.568933 90.348303 
L 275.725318 89.697324 
L 275.80351 90.917909 
L 275.959895 94.986527 
L 276.038087 94.986527 
L 276.194472 96.044367 
L 276.350857 99.95024 
L 276.429049 95.067899 
L 276.507241 100.357102 
L 276.663626 92.057122 
L 276.741818 91.731633 
L 276.976395 97.18358 
L 277.054587 97.18358 
L 277.210972 99.299261 
L 277.289164 99.462006 
L 277.445549 98.8924 
L 277.523741 98.8924 
L 277.601934 99.055144 
L 277.680126 98.973772 
L 277.836511 99.055144 
L 277.914703 98.973772 
L 278.227472 98.078676 
L 278.305665 95.149271 
L 278.383857 95.312016 
L 278.462049 95.149271 
L 278.618434 100.194357 
L 278.696626 98.811027 
L 278.774819 99.543378 
L 278.853011 99.299261 
L 278.931203 99.217889 
L 279.009396 98.811027 
L 279.16578 92.789473 
L 279.322165 97.590442 
L 279.634934 100.601219 
L 279.791319 100.519847 
L 279.869511 100.519847 
L 280.025896 105.890422 
L 280.182281 105.48356 
L 280.338665 106.460028 
L 280.416858 106.622773 
L 280.573242 106.460028 
L 280.651435 106.704145 
L 280.807819 106.297284 
L 280.886012 110.121784 
L 281.042396 106.378656 
L 281.120589 106.134539 
L 281.198781 106.704145 
L 281.355166 105.564932 
L 281.433358 103.937485 
L 281.667935 109.063943 
L 281.746127 109.063943 
L 281.902512 109.308061 
L 282.058896 103.04239 
L 282.137089 103.856113 
L 282.293473 103.449251 
L 282.52805 87.82576 
L 282.606243 87.907132 
L 282.762627 87.663015 
L 282.84082 80.746365 
L 282.919012 81.560089 
L 282.997204 81.560089 
L 283.231781 79.52578 
L 283.466358 67.482672 
L 283.544551 67.726789 
L 283.779128 68.45914 
L 283.85732 67.726789 
L 283.935512 67.808161 
L 284.013705 67.645417 
L 284.091897 67.889534 
L 284.404666 70.981683 
L 284.561051 69.761098 
L 284.639243 83.757142 
L 284.717436 81.966951 
L 284.795628 78.549312 
L 284.87382 78.630684 
L 284.952013 78.14245 
L 285.030205 78.223822 
L 285.108397 78.223822 
L 285.342974 72.446385 
L 285.577551 72.93462 
L 285.655744 71.388545 
L 285.812128 79.52578 
L 285.968513 78.793429 
L 286.046705 79.118918 
L 286.124898 78.956174 
L 286.20309 80.746365 
L 286.281282 80.420876 
L 286.359475 80.502248 
L 286.437667 80.339504 
L 286.515859 82.455185 
L 286.750436 78.712057 
L 286.828628 79.932642 
L 286.906821 72.853247 
L 286.985013 73.422854 
L 287.063205 72.771875 
L 287.141398 73.260109 
L 287.454167 64.716012 
L 287.532359 65.041502 
L 287.610552 64.878757 
L 287.688744 65.448363 
L 287.923321 70.493449 
L 288.079706 70.330704 
L 288.392475 60.48465 
L 288.627052 66.099342 
L 288.783437 65.773853 
L 288.861629 66.343459 
L 289.096206 65.041502 
L 289.174398 69.028747 
L 289.252591 68.947374 
L 289.330783 69.679726 
L 289.408975 75.70128 
L 289.487168 75.619907 
L 289.56536 74.562067 
L 289.878129 80.502248 
L 290.034514 78.793429 
L 290.190899 78.793429 
L 290.269091 79.118918 
L 290.347283 82.129695 
L 290.425476 82.048323 
L 290.503668 81.478716 
L 290.58186 81.560089 
L 290.738245 86.361058 
L 290.816437 86.198313 
L 291.051014 76.596375 
L 291.129207 76.026769 
L 291.285591 77.491471 
L 291.363783 76.921865 
L 291.441976 77.084609 
L 291.520168 77.084609 
L 291.59836 77.410099 
L 291.754745 78.874801 
L 291.832937 76.921865 
L 291.989322 81.397344 
L 292.145707 79.118918 
L 292.302091 78.386567 
L 292.380284 74.643439 
L 292.458476 75.864024 
L 292.536668 76.352258 
L 292.693053 75.864024 
L 292.771245 77.328727 
L 292.849438 76.433631 
L 293.084015 80.990482 
L 293.162207 80.90911 
L 293.240399 81.641461 
L 293.318592 79.688525 
L 293.474976 83.67577 
L 293.865938 81.315972 
L 293.94413 82.455185 
L 294.022323 87.744387 
L 294.100515 86.849292 
L 294.647861 83.187536 
L 294.726054 83.187536 
L 294.882438 85.791451 
L 294.960631 86.198313 
L 295.038823 85.954196 
L 295.195208 86.279685 
L 295.2734 86.198313 
L 295.351592 86.930664 
L 295.429785 86.44243 
L 295.664362 91.080654 
L 295.742554 90.836537 
L 295.977131 88.476739 
L 296.055323 88.639483 
L 296.211708 82.862046 
L 296.2899 82.862046 
L 296.368092 82.29244 
L 296.446285 82.536557 
L 296.524477 78.467939 
L 296.602669 78.630684 
L 296.680862 78.874801 
L 296.915439 77.816961 
L 296.993631 73.260109 
L 297.3064 82.211068 
L 297.462785 82.211068 
L 297.540977 82.862046 
L 297.61917 90.999282 
L 297.697362 90.917909 
L 297.775554 90.917909 
L 297.853747 90.185558 
L 297.931939 93.847314 
L 298.088324 91.162026 
L 298.166516 91.487516 
L 298.322901 89.860069 
L 298.479285 81.804206 
L 298.557478 81.560089 
L 298.63567 81.722834 
L 298.713862 82.211068 
L 298.948439 73.585598 
L 299.026632 73.829715 
L 299.183016 77.979705 
L 299.339401 77.654216 
L 299.417593 76.189514 
L 299.495786 76.352258 
L 299.573978 76.352258 
L 299.886747 74.806184 
L 300.199517 79.037546 
L 300.434094 78.467939 
L 300.512286 80.583621 
L 300.746863 74.236577 
L 300.825055 74.562067 
L 300.903248 73.829715 
L 300.98144 76.189514 
L 301.059632 75.457162 
L 301.137824 75.213045 
L 301.216017 76.026769 
L 301.294209 75.457162 
L 301.450594 77.898333 
L 301.528786 77.165982 
L 301.606978 81.478716 
L 301.685171 80.827738 
L 301.841555 82.048323 
L 301.919748 81.885578 
L 302.076132 85.791451 
L 302.232517 95.230644 
L 302.310709 92.382612 
L 302.388902 93.603197 
L 302.467094 96.613974 
L 302.545286 94.905154 
L 302.623479 95.149271 
L 302.936248 96.451229 
L 303.01444 93.603197 
L 303.092633 93.847314 
L 303.170825 93.847314 
L 303.32721 94.254176 
L 303.405402 94.254176 
L 303.483594 94.091431 
L 303.561787 94.41692 
L 303.718171 96.369857 
L 303.796364 96.288484 
L 303.874556 95.393388 
L 303.952748 92.708101 
L 304.030941 92.789473 
L 304.109133 92.545356 
L 304.187325 92.952218 
L 304.421902 84.814983 
L 304.656479 83.838515 
L 304.734672 85.628706 
L 304.812864 79.607152 
L 304.969249 87.337526 
L 305.047441 87.337526 
L 305.125633 87.744387 
L 305.203826 89.290462 
L 305.282018 86.523802 
L 305.36021 86.930664 
L 305.438403 87.012036 
L 305.516595 86.930664 
L 305.594787 86.605175 
L 305.751172 90.26693 
L 305.829364 87.256153 
L 305.985749 88.802228 
L 306.142133 88.151249 
L 306.298518 90.836537 
L 306.533095 89.20909 
L 306.68948 93.603197 
L 306.767672 86.849292 
L 306.845864 86.930664 
L 306.924057 86.523802 
L 307.080441 91.243399 
L 307.236826 90.755164 
L 307.315018 90.836537 
L 307.393211 90.26693 
L 307.549595 96.044367 
L 307.627788 96.044367 
L 307.70598 95.393388 
L 307.862365 96.939463 
L 308.018749 96.776718 
L 308.096942 94.254176 
L 308.175134 94.41692 
L 308.253326 94.498293 
L 308.331519 94.254176 
L 308.409711 94.41692 
L 308.566096 93.765941 
L 308.72248 94.335548 
L 308.878865 100.031613 
L 309.269827 92.952218 
L 309.348019 93.928686 
L 309.504404 93.521824 
L 309.582596 94.254176 
L 309.738981 106.215911 
L 309.817173 101.65906 
L 309.895365 101.740432 
L 309.973558 101.577687 
L 310.05175 101.984549 
L 310.129942 103.611996 
L 310.286327 101.984549 
L 310.364519 102.147294 
L 310.520904 104.751209 
L 310.599096 103.04239 
L 310.677288 97.346325 
L 310.755481 98.56691 
L 310.990058 100.112985 
L 311.06825 100.031613 
L 311.224635 87.50027 
L 311.302827 87.50027 
L 311.381019 87.256153 
L 311.459212 89.615952 
L 311.537404 89.453207 
L 311.615596 84.489493 
L 311.693789 84.652238 
L 311.771981 84.977728 
L 311.928366 82.129695 
L 312.08475 82.29244 
L 312.162943 78.549312 
L 312.319327 82.780674 
L 312.475712 85.140472 
L 312.632097 85.791451 
L 312.710289 85.710079 
L 312.788481 93.114963 
L 312.866674 92.301239 
L 313.023058 91.65026 
L 313.257635 79.52578 
L 313.335828 80.014014 
L 313.41402 81.478716 
L 313.492212 77.898333 
L 313.570405 78.061078 
L 313.726789 80.420876 
L 313.804982 80.583621 
L 313.883174 80.176759 
L 314.039559 80.502248 
L 314.117751 80.502248 
L 314.195943 80.339504 
L 314.352328 79.200291 
L 314.508713 77.247354 
L 314.586905 76.75912 
L 314.665097 77.084609 
L 314.899674 87.012036 
L 314.977867 86.930664 
L 315.056059 87.663015 
L 315.212444 87.337526 
L 315.290636 87.337526 
L 315.368828 87.093409 
L 315.44702 86.035568 
L 315.525213 86.361058 
L 315.681597 86.605175 
L 315.75979 85.710079 
L 315.994367 89.20909 
L 316.150751 96.695346 
L 316.228944 96.288484 
L 316.307136 96.369857 
L 316.385328 96.12574 
L 316.619905 100.112985 
L 316.77629 101.740432 
L 316.854482 100.763964 
L 316.932675 101.252198 
L 317.010867 101.008081 
L 317.089059 101.33357 
L 317.245444 100.845336 
L 317.401829 99.706123 
L 317.480021 99.299261 
L 317.636406 100.519847 
L 317.714598 100.682591 
L 317.79279 101.252198 
L 317.870983 100.112985 
L 318.027367 105.48356 
L 318.183752 99.136517 
L 318.261944 99.136517 
L 318.340137 99.462006 
L 318.496521 92.301239 
L 318.652906 85.465962 
L 318.887483 93.114963 
L 318.965675 92.057122 
L 319.12206 100.845336 
L 319.200252 100.845336 
L 319.356637 102.961017 
L 319.434829 103.530624 
L 319.513022 101.903177 
L 319.591214 103.856113 
L 319.669406 103.04239 
L 319.747599 102.798272 
L 319.825791 103.937485 
L 319.903983 102.147294 
L 319.982176 102.961017 
L 320.060368 102.879645 
L 320.13856 99.055144 
L 320.216752 99.217889 
L 320.451329 95.637506 
L 320.607714 97.18358 
L 320.764099 95.556133 
L 320.842291 88.476739 
L 320.920483 89.534579 
L 321.076868 95.230644 
L 321.15506 92.138494 
L 321.311445 99.217889 
L 321.46783 99.624751 
L 321.624214 98.648283 
L 321.780599 98.973772 
L 321.858791 98.241421 
L 321.936984 100.601219 
L 322.093368 99.217889 
L 322.327945 98.8924 
L 322.406138 98.8924 
L 322.48433 100.519847 
L 322.640715 97.264953 
L 322.718907 98.648283 
L 322.875292 98.404165 
L 322.953484 98.729655 
L 323.109869 97.346325 
L 323.188061 96.695346 
L 323.266253 96.858091 
L 323.422638 96.858091 
L 323.50083 97.427697 
L 323.579023 88.964973 
L 323.657215 89.127717 
L 323.735407 88.720856 
L 323.891792 86.44243 
L 324.048177 86.279685 
L 324.126369 85.547334 
L 324.360946 88.395366 
L 324.439138 88.232622 
L 324.517331 91.080654 
L 324.595523 90.917909 
L 324.673715 91.080654 
L 324.8301 89.941441 
L 324.908292 89.697324 
L 325.064677 93.603197 
L 325.221061 93.35908 
L 325.299254 98.078676 
L 325.377446 97.427697 
L 325.455638 97.102208 
L 325.612023 97.915931 
L 325.768408 96.858091 
L 325.8466 97.020836 
L 325.924792 96.858091 
L 326.159369 87.988505 
L 326.237562 90.59242 
L 326.315754 86.279685 
L 326.393946 86.361058 
L 326.472139 86.198313 
L 326.550331 86.279685 
L 326.706716 86.279685 
L 326.784908 86.035568 
L 326.8631 85.0591 
L 326.941293 85.303217 
L 327.019485 87.988505 
L 327.097677 85.547334 
L 327.17587 86.361058 
L 327.254062 86.279685 
L 327.410447 86.44243 
L 327.488639 87.256153 
L 327.566831 87.174781 
L 327.723216 87.174781 
L 327.879601 92.382612 
L 327.957793 93.277707 
L 328.035985 92.138494 
L 328.19237 94.498293 
L 328.270562 94.498293 
L 328.348755 94.74241 
L 328.426947 93.765941 
L 328.505139 90.836537 
L 328.583332 91.243399 
L 328.817909 93.03359 
L 328.896101 92.789473 
L 329.052486 93.521824 
L 329.287063 93.521824 
L 329.365255 95.393388 
L 329.443447 94.823782 
L 329.599832 94.905154 
L 329.678024 95.881623 
L 329.756217 95.718878 
L 329.912601 93.03359 
L 329.990793 90.26693 
L 330.22537 93.603197 
L 330.303563 94.010059 
L 330.459947 93.440452 
L 330.616332 92.057122 
L 330.772717 91.65026 
L 330.850909 91.65026 
L 330.929101 91.813005 
L 331.085486 88.802228 
L 331.163678 87.581643 
L 331.241871 89.615952 
L 331.320063 86.930664 
L 331.398255 87.012036 
L 331.476448 87.418898 
L 331.55464 84.082632 
L 331.632832 84.652238 
L 331.711025 83.594398 
L 331.789217 88.964973 
L 331.867409 88.639483 
L 332.023794 85.140472 
L 332.101986 84.652238 
L 332.258371 78.712057 
L 332.336563 77.084609 
L 332.414756 78.223822 
L 332.649333 73.422854 
L 332.88391 75.457162 
L 333.040294 74.643439 
L 333.196679 77.491471 
L 333.353064 77.654216 
L 333.431256 77.979705 
L 333.587641 73.911088 
L 333.665833 74.399322 
L 333.744025 75.213045 
L 333.822218 71.876779 
L 333.90041 71.958151 
L 333.978602 71.958151 
L 334.056795 72.60913 
L 334.134987 79.281663 
L 334.213179 76.026769 
L 334.291372 76.189514 
L 334.369564 75.619907 
L 334.604141 83.838515 
L 334.760525 87.093409 
L 334.838718 86.767919 
L 334.995102 80.420876 
L 335.073295 81.234599 
L 335.151487 81.071855 
L 335.229679 81.071855 
L 335.386064 82.129695 
L 335.464256 82.048323 
L 335.542449 80.990482 
L 335.698833 81.966951 
L 335.777026 81.966951 
L 335.855218 81.153227 
L 335.93341 83.431653 
L 336.011603 83.268908 
L 336.167987 83.350281 
L 336.324372 82.699302 
L 336.402564 82.699302 
L 336.558949 83.513025 
L 336.715334 79.037546 
L 336.871718 79.444408 
L 336.949911 78.14245 
L 337.106295 80.258131 
L 337.184488 79.281663 
L 337.26268 79.363035 
L 337.419065 78.956174 
L 337.497257 79.363035 
L 337.575449 81.641461 
L 337.653642 78.630684 
L 337.731834 79.444408 
L 337.888219 79.363035 
L 337.966411 79.688525 
L 338.122796 76.189514 
L 338.200988 75.782652 
L 338.27918 80.664993 
L 338.357373 80.502248 
L 338.670142 75.213045 
L 338.826527 75.538535 
L 338.904719 75.538535 
L 339.217488 80.990482 
L 339.373873 81.397344 
L 339.452065 77.735588 
L 339.530257 78.305195 
L 339.764834 78.061078 
L 339.921219 81.397344 
L 339.999411 80.664993 
L 340.077604 80.746365 
L 340.155796 80.664993 
L 340.233988 80.90911 
L 340.312181 77.654216 
L 340.390373 78.061078 
L 340.546758 78.467939 
L 340.703142 77.328727 
L 340.781335 77.328727 
L 340.859527 76.596375 
L 341.094104 89.046345 
L 341.172296 88.964973 
L 341.328681 89.20909 
L 341.406873 89.290462 
L 341.485066 82.29244 
L 341.563258 82.617929 
L 341.64145 82.617929 
L 341.797835 81.885578 
L 341.876027 81.722834 
L 342.188797 79.932642 
L 342.266989 80.90911 
L 342.345181 80.827738 
L 342.423374 80.746365 
L 342.501566 79.851269 
L 342.579758 80.014014 
L 342.657951 80.664993 
L 342.814335 79.118918 
L 342.892528 78.874801 
L 343.127105 68.052279 
L 343.205297 68.866002 
L 343.283489 68.947374 
L 343.439874 76.840492 
L 343.596259 81.315972 
L 343.674451 81.315972 
L 343.830836 81.804206 
L 343.98722 75.619907 
L 344.143605 75.619907 
L 344.299989 75.131673 
L 344.378182 68.215023 
L 344.456374 72.60913 
L 344.534566 72.120896 
L 344.690951 74.968928 
L 344.769143 74.968928 
L 345.00372 73.911088 
L 345.081913 76.921865 
L 345.160105 76.515003 
L 345.31649 77.328727 
L 345.394682 77.410099 
L 345.551067 76.515003 
L 345.629259 76.515003 
L 345.785644 75.945397 
L 345.863836 75.70128 
L 345.942028 76.352258 
L 346.098413 83.268908 
L 346.176605 85.384589 
L 346.489375 81.722834 
L 346.645759 80.827738 
L 346.723952 80.990482 
L 346.802144 80.90911 
L 346.880336 80.420876 
L 347.036721 75.619907 
L 347.193106 79.281663 
L 347.271298 79.281663 
L 347.34949 81.478716 
L 347.427683 77.816961 
L 347.505875 78.386567 
L 347.584067 78.467939 
L 347.740452 77.572844 
L 347.975029 77.572844 
L 348.131414 78.467939 
L 348.209606 78.467939 
L 348.365991 77.572844 
L 348.444183 77.735588 
L 348.67876 78.712057 
L 348.835145 79.281663 
L 348.991529 79.607152 
L 349.069721 79.688525 
L 349.304298 76.596375 
L 349.460683 71.307173 
L 349.617068 73.341481 
L 349.69526 72.690503 
L 349.773452 74.968928 
L 349.851645 74.887556 
L 349.929837 75.538535 
L 350.086222 77.572844 
L 350.164414 77.084609 
L 350.320799 77.735588 
L 350.398991 77.654216 
L 350.555376 76.921865 
L 350.71176 81.478716 
L 350.868145 75.213045 
L 350.946337 74.887556 
L 351.02453 77.654216 
L 351.102722 77.247354 
L 351.337299 75.538535 
L 351.415491 74.968928 
L 351.493684 76.677748 
L 351.571876 76.515003 
L 351.650068 76.270886 
L 351.806453 74.073832 
L 351.962838 77.572844 
L 352.04103 77.572844 
L 352.119222 69.191491 
L 352.197415 69.679726 
L 352.353799 70.086587 
L 352.431992 70.005215 
L 352.510184 63.332682 
L 352.588376 63.414054 
L 352.666569 63.088565 
L 352.744761 63.495427 
L 352.822953 63.332682 
L 352.901146 63.088565 
L 353.05753 64.797384 
L 353.135723 64.797384 
L 353.292107 65.773853 
L 353.448492 65.936597 
L 353.604877 61.054256 
L 353.917646 56.822894 
L 353.995838 55.276819 
L 354.152223 62.356214 
L 354.230415 62.193469 
L 354.308607 63.332682 
L 354.3868 62.92582 
L 354.464992 62.92582 
L 354.543184 63.983661 
L 354.621377 63.576799 
L 354.777761 58.613086 
L 354.855954 59.589554 
L 354.934146 58.043479 
L 355.012338 58.938575 
L 355.168723 58.124852 
L 355.325108 57.799362 
L 355.4033 57.799362 
L 355.481492 59.508182 
L 355.559685 59.426809 
L 355.637877 59.996416 
L 355.716069 59.264065 
L 355.794262 64.390523 
L 355.872454 63.169937 
L 356.028839 61.86798 
L 356.263416 59.426809 
L 356.4198 59.508182 
L 356.497993 59.019948 
L 356.576185 67.808161 
L 356.654377 67.645417 
L 356.888954 67.970906 
L 356.967147 69.191491 
L 357.123531 65.041502 
L 357.279916 63.739544 
L 357.358108 63.983661 
L 357.436301 60.728767 
L 357.514493 60.810139 
L 357.592685 60.891512 
L 357.670878 67.319927 
L 357.74907 67.238555 
L 357.827262 66.913066 
L 357.905455 63.820916 
L 358.061839 69.435608 
L 358.140032 68.377768 
L 358.218224 68.45914 
L 358.296416 69.354236 
L 358.452801 71.632662 
L 358.609185 72.853247 
L 358.687378 72.93462 
L 358.843762 71.469917 
L 358.921955 71.388545 
L 359.078339 75.538535 
L 359.156532 75.457162 
L 359.312916 82.536557 
L 359.469301 82.943419 
L 359.547493 76.921865 
L 359.625686 77.084609 
L 359.78207 80.502248 
L 359.860263 80.258131 
L 359.938455 72.527758 
L 360.016647 73.015992 
L 360.173032 72.93462 
L 360.251224 72.93462 
L 360.329417 73.341481 
L 360.407609 77.247354 
L 360.485801 77.165982 
L 360.563994 77.654216 
L 360.642186 80.095386 
L 360.720378 79.932642 
L 360.798571 73.829715 
L 360.876763 74.155205 
L 360.954955 74.155205 
L 361.189532 79.281663 
L 361.345917 75.70128 
L 361.424109 76.108141 
L 361.580494 77.898333 
L 361.815071 78.061078 
L 361.893263 72.690503 
L 361.971456 73.341481 
L 362.12784 76.026769 
L 362.284225 76.026769 
L 362.362417 73.097364 
L 362.675187 84.896355 
L 362.753379 84.408121 
L 362.831571 83.106163 
L 362.987956 84.652238 
L 363.144341 86.279685 
L 363.222533 85.547334 
L 363.378917 80.339504 
L 363.45711 80.827738 
L 363.691687 88.964973 
L 363.848071 89.046345 
L 363.926264 88.964973 
L 364.082648 81.071855 
L 364.239033 88.313994 
L 364.317225 88.720856 
L 364.395418 86.849292 
L 364.47361 86.930664 
L 364.629995 86.686547 
L 364.708187 86.767919 
L 364.942764 88.720856 
L 365.177341 97.427697 
L 365.333726 97.590442 
L 365.411918 97.590442 
L 365.568303 96.451229 
L 365.724687 98.322793 
L 365.80288 98.322793 
L 366.115649 88.151249 
L 366.193841 88.232622 
L 366.272034 89.941441 
L 366.350226 88.476739 
L 366.506611 93.03359 
L 366.584803 91.65026 
L 366.741188 98.078676 
L 366.81938 98.078676 
L 366.975765 98.973772 
L 367.053957 98.8924 
L 367.210342 98.322793 
L 367.444919 98.973772 
L 367.601303 98.8924 
L 367.757688 92.301239 
L 367.83588 92.219867 
L 367.992265 91.65026 
L 368.305034 93.03359 
L 368.383226 89.290462 
L 368.461419 89.697324 
L 368.617803 89.697324 
L 368.695996 90.104186 
L 368.85238 96.369857 
L 369.086957 104.751209 
L 369.243342 101.903177 
L 369.321534 102.554155 
L 369.399727 102.065921 
L 369.634304 97.427697 
L 369.790688 99.624751 
L 369.947073 100.519847 
L 370.103458 98.160048 
L 370.18165 98.322793 
L 370.259842 98.404165 
L 370.338035 98.648283 
L 370.416227 97.997304 
L 370.494419 98.078676 
L 370.650804 95.393388 
L 370.728996 94.986527 
L 370.807189 95.067899 
L 370.885381 96.695346 
L 371.041766 93.847314 
L 371.276343 95.556133 
L 371.432727 90.511047 
L 371.589112 91.324771 
L 371.745497 87.581643 
L 371.901881 88.476739 
L 371.980074 93.277707 
L 372.058266 92.952218 
L 372.136458 93.03359 
L 372.371035 91.080654 
L 372.52742 85.465962 
L 372.683805 84.001259 
L 372.761997 84.082632 
L 372.840189 83.187536 
L 372.918382 85.0591 
L 372.996574 84.977728 
L 373.309343 78.223822 
L 373.387535 77.898333 
L 373.465728 78.14245 
L 373.54392 77.898333 
L 373.622112 77.165982 
L 373.778497 73.666971 
L 373.934882 73.585598 
L 374.169459 73.829715 
L 374.247651 73.666971 
L 374.404036 63.576799 
L 374.482228 64.390523 
L 374.56042 64.065033 
L 374.794997 56.171915 
L 374.951382 54.137606 
L 375.107767 56.009171 
L 375.185959 55.602309 
L 375.264151 54.463096 
L 375.342344 54.707213 
L 375.498728 54.707213 
L 375.576921 54.95133 
L 375.733305 53.568 
L 375.811498 54.056234 
L 376.046075 53.974862 
L 376.202459 55.683681 
L 376.280652 58.450341 
L 376.358844 56.171915 
L 376.437036 56.33466 
L 376.515229 56.660149 
L 376.671613 60.077788 
L 376.827998 59.670926 
L 376.90619 58.77583 
L 376.984383 58.938575 
L 377.062575 58.857203 
L 377.140767 62.518959 
L 377.297152 58.450341 
L 377.375344 62.763076 
L 377.453537 62.600331 
L 377.531729 64.63464 
L 377.688114 70.493449 
L 377.844498 70.818938 
L 378.000883 70.900311 
L 378.079075 68.621885 
L 378.23546 70.249332 
L 378.391844 77.898333 
L 378.470037 81.234599 
L 378.626421 73.585598 
L 378.939191 72.446385 
L 379.017383 76.921865 
L 379.173768 71.632662 
L 379.25196 71.714034 
L 379.330152 74.643439 
L 379.408345 73.341481 
L 379.486537 73.422854 
L 379.564729 73.178737 
L 379.721114 74.562067 
L 379.799306 74.480694 
L 379.955691 73.666971 
L 380.190268 67.726789 
L 380.26846 69.110119 
L 380.346653 69.028747 
L 380.424845 68.621885 
L 380.503037 60.240533 
L 380.58123 64.553267 
L 380.659422 64.065033 
L 380.815807 62.112097 
L 380.893999 60.810139 
L 380.972191 60.972884 
L 381.128576 60.077788 
L 381.363153 57.636618 
L 381.519538 57.555245 
L 381.59773 57.148383 
L 381.910499 59.345437 
L 381.988692 58.694458 
L 382.066884 57.880735 
L 382.145076 57.962107 
L 382.301461 57.880735 
L 382.457846 64.390523 
L 382.536038 62.763076 
L 382.770615 61.949352 
L 382.848807 67.4013 
L 382.926999 67.319927 
L 383.005192 65.204246 
L 383.083384 65.448363 
L 383.161576 65.773853 
L 383.396153 69.354236 
L 383.552538 69.028747 
L 383.708923 70.737566 
L 384.021692 64.227778 
L 384.099884 64.878757 
L 384.178077 64.960129 
L 384.256269 69.679726 
L 384.334461 68.866002 
L 384.412654 69.272864 
L 384.647231 67.889534 
L 384.803615 71.144428 
L 384.96 70.900311 
L 385.038192 71.2258 
L 385.116385 70.656194 
L 385.194577 70.737566 
L 385.272769 71.795407 
L 385.350962 67.482672 
L 385.429154 71.388545 
L 385.585539 69.516981 
L 385.820116 70.249332 
L 385.9765 68.78463 
L 386.054693 68.947374 
L 386.28927 77.410099 
L 386.367462 77.410099 
L 386.602039 75.945397 
L 386.680231 76.026769 
L 386.836616 82.455185 
L 386.914808 82.617929 
L 386.993001 82.455185 
L 387.071193 81.478716 
L 387.149385 85.303217 
L 387.227578 85.221845 
L 387.383962 87.418898 
L 387.462154 87.581643 
L 387.540347 88.720856 
L 387.618539 91.731633 
L 387.696731 91.65026 
L 387.774924 93.35908 
L 387.853116 90.917909 
L 387.931308 91.568888 
L 388.165885 90.26693 
L 388.244078 90.26693 
L 388.32227 85.465962 
L 388.400462 85.872823 
L 388.478655 85.872823 
L 388.556847 89.860069 
L 388.635039 89.615952 
L 388.713232 88.964973 
L 388.869616 91.813005 
L 389.026001 87.093409 
L 389.33877 92.545356 
L 389.495155 82.29244 
L 389.65154 89.534579 
L 389.807924 89.20909 
L 389.886117 87.093409 
L 390.042501 88.639483 
L 390.198886 88.720856 
L 390.277078 88.802228 
L 390.433463 84.73361 
L 390.511655 84.814983 
L 390.746232 93.03359 
L 390.824425 89.615952 
L 390.902617 90.26693 
L 390.980809 90.185558 
L 391.059002 89.453207 
L 391.215386 92.626729 
L 391.371771 92.708101 
L 391.528156 92.463984 
L 391.68454 87.907132 
L 391.762733 87.82576 
L 391.919117 87.418898 
L 391.99731 88.720856 
L 392.075502 88.558111 
L 392.153694 88.395366 
L 392.310079 82.780674 
L 392.388271 84.001259 
L 392.544656 77.898333 
L 392.70104 77.898333 
L 392.779233 78.874801 
L 392.935617 76.352258 
L 393.092002 77.816961 
L 393.170194 78.305195 
L 393.326579 80.420876 
L 393.404771 80.014014 
L 393.482964 73.504226 
L 393.561156 74.724811 
L 393.795733 76.840492 
L 393.952118 79.281663 
L 394.108502 79.037546 
L 394.186695 78.793429 
L 394.499464 86.279685 
L 394.655849 92.301239 
L 394.890426 89.778696 
L 394.968618 89.778696 
L 395.04681 90.348303 
L 395.125003 92.301239 
L 395.203195 92.138494 
L 395.281387 91.894377 
L 395.35958 85.710079 
L 395.437772 87.174781 
L 395.672349 87.581643 
L 395.750541 87.744387 
L 395.906926 81.478716 
L 396.063311 82.129695 
L 396.219695 88.232622 
L 396.297888 87.82576 
L 396.37608 88.069877 
L 396.532465 80.827738 
L 396.610657 80.990482 
L 396.767042 77.898333 
L 396.845234 77.898333 
L 396.923426 77.735588 
L 397.001618 76.270886 
L 397.079811 76.433631 
L 397.236195 76.270886 
L 397.39258 75.213045 
L 397.548965 75.70128 
L 397.627157 75.619907 
L 397.783542 70.005215 
L 397.861734 62.112097 
L 397.939926 62.274842 
L 398.174503 68.45914 
L 398.252696 68.45914 
L 398.330888 68.621885 
L 398.487273 74.399322 
L 398.487273 74.399322 
" clip-path="url(#p98664c1ab2)" style="fill: none; stroke: #1f77b4; stroke-width: 1.5; stroke-linecap: square"/>
   </g>
   <g id="patch_3">
    <path d="M 57.6 307.584 
L 57.6 41.472 
" style="fill: none; stroke: #000000; stroke-width: 0.8; stroke-linejoin: miter; stroke-linecap: square"/>
   </g>
   <g id="patch_4">
    <path d="M 414.72 307.584 
L 414.72 41.472 
" style="fill: none; stroke: #000000; stroke-width: 0.8; stroke-linejoin: miter; stroke-linecap: square"/>
   </g>
   <g id="patch_5">
    <path d="M 57.6 307.584 
L 414.72 307.584 
" style="fill: none; stroke: #000000; stroke-width: 0.8; stroke-linejoin: miter; stroke-linecap: square"/>
   </g>
   <g id="patch_6">
    <path d="M 57.6 41.472 
L 414.72 41.472 
" style="fill: none; stroke: #000000; stroke-width: 0.8; stroke-linejoin: miter; stroke-linecap: square"/>
   </g>
   <g id="text_14">
    <!-- comp08 -->
    <g transform="translate(211.90125 35.472) scale(0.12 -0.12)">
     <defs>
      <path id="DejaVuSans-63" d="M 3122 3366 
L 3122 2828 
Q 2878 2963 2633 3030 
Q 2388 3097 2138 3097 
Q 1578 3097 1268 2742 
Q 959 2388 959 1747 
Q 959 1106 1268 751 
Q 1578 397 2138 397 
Q 2388 397 2633 464 
Q 2878 531 3122 666 
L 3122 134 
Q 2881 22 2623 -34 
Q 2366 -91 2075 -91 
Q 1284 -91 818 406 
Q 353 903 353 1747 
Q 353 2603 823 3093 
Q 1294 3584 2113 3584 
Q 2378 3584 2631 3529 
Q 2884 3475 3122 3366 
z
" transform="scale(0.015625)"/>
      <path id="DejaVuSans-70" d="M 1159 525 
L 1159 -1331 
L 581 -1331 
L 581 3500 
L 1159 3500 
L 1159 2969 
Q 1341 3281 1617 3432 
Q 1894 3584 2278 3584 
Q 2916 3584 3314 3078 
Q 3713 2572 3713 1747 
Q 3713 922 3314 415 
Q 2916 -91 2278 -91 
Q 1894 -91 1617 61 
Q 1341 213 1159 525 
z
M 3116 1747 
Q 3116 2381 2855 2742 
Q 2594 3103 2138 3103 
Q 1681 3103 1420 2742 
Q 1159 2381 1159 1747 
Q 1159 1113 1420 752 
Q 1681 391 2138 391 
Q 2594 391 2855 752 
Q 3116 1113 3116 1747 
z
" transform="scale(0.015625)"/>
      <path id="DejaVuSans-38" d="M 2034 2216 
Q 1584 2216 1326 1975 
Q 1069 1734 1069 1313 
Q 1069 891 1326 650 
Q 1584 409 2034 409 
Q 2484 409 2743 651 
Q 3003 894 3003 1313 
Q 3003 1734 2745 1975 
Q 2488 2216 2034 2216 
z
M 1403 2484 
Q 997 2584 770 2862 
Q 544 3141 544 3541 
Q 544 4100 942 4425 
Q 1341 4750 2034 4750 
Q 2731 4750 3128 4425 
Q 3525 4100 3525 3541 
Q 3525 3141 3298 2862 
Q 3072 2584 2669 2484 
Q 3125 2378 3379 2068 
Q 3634 1759 3634 1313 
Q 3634 634 3220 271 
Q 2806 -91 2034 -91 
Q 1263 -91 848 271 
Q 434 634 434 1313 
Q 434 1759 690 2068 
Q 947 2378 1403 2484 
z
M 1172 3481 
Q 1172 3119 1398 2916 
Q 1625 2713 2034 2713 
Q 2441 2713 2670 2916 
Q 2900 3119 2900 3481 
Q 2900 3844 2670 4047 
Q 2441 4250 2034 4250 
Q 1625 4250 1398 4047 
Q 1172 3844 1172 3481 
z
" transform="scale(0.015625)"/>
     </defs>
     <use xlink:href="#DejaVuSans-63"/>
     <use xlink:href="#DejaVuSans-6f" x="54.980469"/>
     <use xlink:href="#DejaVuSans-6d" x="116.162109"/>
     <use xlink:href="#DejaVuSans-70" x="213.574219"/>
     <use xlink:href="#DejaVuSans-30" x="277.050781"/>
     <use xlink:href="#DejaVuSans-38" x="340.673828"/>
    </g>
   </g>
  </g>
 </g>
 <defs>
  <clipPath id="p98664c1ab2">
   <rect x="57.6" y="41.472" width="357.12" height="266.112"/>
  </clipPath>
 </defs>
</svg>
